M48
;Layer_Color=9474304
;FILE_FORMAT=2:4
INCH,LZ
;TYPE=PLATED
T1F00S00C0.0060
T2F00S00C0.0070
T3F00S00C0.0080
%
T01
X002323Y004528
X002598
X002992Y005
X003268Y004803
X003701Y005157
X004055Y004528
X00437
X004331Y005945
Y00626
Y006575
Y00689
Y007205
Y00752
X005Y007677
X005315Y007362
Y007047
Y006732
Y006417
Y006102
X005906Y004685
X005551Y004173
X006693Y003031
X007165
X007638
X00811
X008701
X008465Y002559
Y002047
Y001575
X008701Y00126
X009173
X008937Y002047
X007756
Y001575
X007992Y00126
X007283
X007047Y001575
Y002047
X006929Y002559
X007402
X007874
Y004685
X007835Y005787
Y006417
X00815Y007362
X008465Y007677
Y005787
X00752Y008622
Y008937
X007205
Y009252
X00689
Y009882
X006575
Y010197
X007205
X00689Y010827
X00563Y010512
X005315
Y009882
X00563
Y010197
Y009252
Y008937
X005315
Y008622
X00563Y008307
X006575Y008622
Y008937
Y009567
X00689Y008307
X005Y008937
Y009567
Y009882
X001339Y009449
X006575Y00126
X009882
X009646Y001575
Y002047
X009528Y002559
X01
X010472
X011063
X011496
X01189
X012283
X012835
X013189
X013346Y002756
X01374Y002756
X013937Y00374
Y004213
Y004528
X013622
X013307
Y004213
X013622
Y003898
X014252
Y004213
X014567
X014882
X015197
Y004528
Y004843
X015512
Y005157
X015827
Y005472
Y005787
Y006102
X016142
X015512
Y006417
Y006732
X015827Y006732
Y006417
Y007047
Y007677
X015512
X015197
Y007362
X014882
Y007677
X014567
X014252
Y007362
Y007047
X013937
X014252Y006732
X014567
Y006417
X014252
Y006102
Y005787
X014567
Y005472
X014252
Y005157
Y004843
X014567
Y005157
Y004528
X014252
X013937Y004843
X013622
Y005157
Y005472
Y005787
X013307
X013307Y005472
X012992Y005157
X012677
X012362
X012047
X011732
Y004843
X011417
Y005157
X011102
Y004843
X010787Y005157
X010157
Y004528
X011102Y004213
X011417
Y004528
X011732
X012047
X012362
Y004213
X012677
X012992
Y004528
X012992Y004843
X012677Y005472
X012362
X012677Y005787
Y006102
Y006417
X012362
X012047
X011732
X011417Y006417
Y006732
Y007047
Y007362
Y007677
Y007992
Y008307
Y008937
X011102
X010787
X010472
Y009252
X010157
X009843
Y009567
X010157
Y009882
X009843
Y010197
X010157Y010512
X010787
Y010197
X011102
Y009882
X011417Y010197
Y010512
X011732Y010512
X012047
Y009882
X012362
Y010197
X012992Y010197
Y009882
Y009567
Y009252
X012677
Y009567
Y008937
X012992Y008937
X012362
X012047Y008937
X011732Y008937
Y009252
Y009567
Y009882
X011417Y009252
X011102
X010787
Y008622
Y008307
X010472
Y007992
X010157
X009843
Y008307
X010157
Y008937
X009843Y008937
X009528
X009843Y007362
X010157
Y007047
X009843
Y006732
X010157
Y006417
X010472Y006732
X010787
X011102Y006732
Y007047
X010787
X010472
X010787Y007362
X011102
X010787Y007677
Y007992
X012047Y008307
X012362Y007992
X012362Y007677
X012677Y007677
X012992
Y007362
Y007047
X012677
X012362
X012047
X012677Y007362
X013307Y007362
Y007677
Y007992
X013622
X013937
X014252
X014567
X014882
Y008307
Y008622
X015197
Y008307
X015512
Y008622
X015827
Y008307
Y007992
X016142
X016457Y007677
Y007047
X015197
X014882
Y006732
X015197
Y006417
X014882
X015197Y006102
Y005787
X014882
Y005472
X013937Y005787
X013307Y006417
Y006732
X012992Y007992
X013937Y008622
X014252Y008622
X014567Y008622
X014567Y008307
Y008937
X014252
Y009252
Y009567
X014567
X014882
X015197
Y009252
X015512
Y008937
X015827
X015197
X014882
Y009882
Y010197
X015197
Y009882
X015512
X015827
X015512Y010512
X015197
X014567
Y010197
X014252
X013937
Y009882
X013622
Y010197
X013307
X013307Y009567
X013622
X013937
Y009252
X013661Y010512
X01126Y010787
X011102Y006417
Y006102
Y005787
X010472
X011732
X011417Y005472
X011299Y003031
X010709
X010236
X009764
X009291
X010354Y002047
Y001575
X010591Y00126
X011299
X011693
X011063Y001575
Y002047
X012598
X013386Y001693
X014252
X014488
Y001299
X014961Y001457
Y001693
X015197Y001299
X015669Y001535
X015748Y002008
X016142Y00185
X016142Y001339
X016811Y002008
X016575Y002283
X017323
X017795
X01811
X018425
X01874
X019055
X01937
X020079Y002047
X020472
X020157Y001732
X021024
X021142Y002047
X021732
Y001732
X022362
Y002047
X022756
X023504
X023937
X024567
X024291Y001575
X023583
X02315
X023189Y003307
X023425
X023819
X024055
X024449
X024685
X022913
X022638
X022244
X021929
X021535
X021142
X020827
X020512
X020197
X019528Y004528
Y004764
X020118Y006732
X020551Y007717
X020433Y008622
X020118
X019803
X019409
X019055
X01811Y009567
X019724Y010118
Y010512
X020118
X020394Y009528
X020748
X020984
X02187Y00811
X022441Y007913
X023031
X023819Y008031
Y008346
X024528Y009606
X024173Y011339
X023819
X023268Y011299
Y010984
X022559Y010866
X016575Y010197
X016457Y008622
X016693Y008307
X015512Y004528
Y004213
X01622Y003189
X016457
X015394Y002362
X015197Y002165
X009528Y006732
X023543Y004449
X023937Y004606
X025236Y004331
X025591
X025748Y003898
X025669Y003661
X02622Y004252
X026457Y004055
X02748Y004094
X027677Y003898
X028425Y004134
X028819Y003937
X029016Y003583
X028661Y003465
X028465Y003307
Y003031
X027953Y002598
X027677
X027402
X027047Y002441
X02748Y001929
X026969Y001299
X026732Y001535
X026457Y001339
X02626Y001496
X026063Y001575
X025906Y002047
X025591
X025157
X024882Y001575
X025591Y001339
X028504Y001732
X028898Y001535
X028976Y001299
X029213
X029449
X030079
X030315
X030039Y003031
X029488
X029843Y003465
X030039Y003937
X030591
X030945Y003307
X029606Y004134
X028976Y005709
X028307Y005827
Y005551
X027638Y005827
X027244Y005945
X027047Y005787
X026693
X026496Y005945
X02622Y00626
X025827Y006535
X025709Y006732
X025591Y006929
X025472Y007126
X025591Y007323
X025709Y00752
X025787Y00811
X026181
X02626Y008386
X026457Y009882
X026063
Y011417
X028386Y010344
X02937
X030354
X028583Y008425
X028386Y008583
X028346Y007835
X028502Y007679
X02874Y007362
X028896Y007207
X028543Y006732
X028346Y006575
X030748Y006063
X031299Y005709
X025276Y006142
T02
X00126Y000394
Y000945
X001969
Y000394
X00315
Y000945
X003858
Y000394
X003425Y001772
X00248Y002205
X0031Y00315
Y00315
Y00365
Y00365
X00335Y0034
X0036Y00365
Y00365
Y00315
Y00315
X004016Y005157
X004724
X005118
X005512
X005906
X006299
X006575Y006102
X007205
Y005787
X00752
Y006102
Y006417
Y006732
X007205
Y006417
Y007047
Y007362
Y007677
Y007992
Y008307
Y008622
X00689
X006575Y008307
Y007992
Y007677
Y007047
Y006732
X00689Y007047
X00752Y007362
X00563
Y007677
X005315
Y007992
X00563
X005315Y008307
X005
Y008622
X004685
Y009252
Y009567
Y009882
Y010197
X005
X005315
X004685Y010512
Y010827
X007205
X00752
Y010512
Y010197
Y009882
X007205
Y009567
X00752
X006299Y009252
X005984
Y008937
X006299
X00563Y007047
Y006732
Y006417
Y006102
Y005787
X005
X004685
Y006102
Y006417
Y006732
Y007047
X002835Y007244
Y00685
X00252Y007047
X002205Y00689
Y007244
X002244Y008504
X00311Y007756
X00185Y010236
X00122Y010079
Y009764
X008937Y010945
X008268Y005157
X007874
X00752
X005984Y003189
Y002598
Y002008
X006457Y000945
Y000394
X009055
Y000945
X011654
Y000394
X012047Y004843
X012362
X012677
Y004528
X013307Y004843
Y005157
X012992Y005472
Y005787
Y006102
Y006417
Y006732
X012677
X012362
X012047
X011732
Y007047
Y007362
Y007677
Y007992
X012047
Y007677
Y007362
X012362
Y008307
Y008622
X012047
X011732
Y008307
X011102Y008307
Y007992
Y007677
X010472
Y007362
Y006417
X010787Y006417
X011417Y006102
X011732
X012047Y006102
X012362
Y005787
X012047
Y005472
X011732
X013937
Y005157
X014882
Y004843
X015827
Y004528
X015512Y005472
Y005787
X014882Y006102
X014567
X013937Y006102
X013622
X013307Y006102
X013622Y006417
Y006732
Y007047
Y007362
Y007677
X013937
Y007362
X014567
Y007047
X013937Y006732
Y006417
X013307Y007047
X013307Y008307
X013307Y008622
X012992
Y008307
X012677
Y007992
X013622Y008307
Y008622
X013937Y008307
X014252
X014567Y009252
X014882
X015827
Y009567
X014567Y009882
X014252
X013307Y009252
X013307Y008937
X012362Y009252
Y009567
X012047Y009567
Y009252
Y010197
X011732
X011417Y009882
Y009567
X010787Y009567
X010472
Y010197
X010157
X010787Y009882
X011102Y008628
X010472Y008622
X010157
X009843Y006102
X009252Y010945
X012205Y011378
X014449Y011339
X014724
X015197
Y011575
X015472
Y011339
X015866
Y011575
X016142
X015512Y007992
X015197
X015512Y007362
X015827Y007362
X017717Y007402
Y007126
X017992
X017913Y006457
X018268Y006575
X018543
X018622Y005748
X018898
Y005472
X018346
X018071
X017795
Y005748
X018071
X01752
Y005472
Y006024
Y006299
X017795Y006024
X018228Y005
X018425
X018622
X020433Y005315
X020709
X020984
X02126
X02122Y004488
X020945
X020669
X020394
X022756Y004843
X023228
X022992Y005079
X023228Y005315
X022756
X022913Y006772
X023189
Y007165
X022913
Y00752
X023189
X022244
X021969
Y007165
X022244
Y006772
X021969
X018819Y007717
X018543
Y007992
X018268
Y008268
X018543
Y008543
X018268
X017638
X018819Y008268
Y007992
X023228Y000945
Y000394
X025118
Y000945
X028425
Y000394
X029134
Y000945
X030315
Y000394
X031024
Y000945
X027559Y006772
Y007205
X027126
Y006772
X026693
Y007205
Y007638
X027126
X027559
X025394Y007756
Y007953
X025Y005748
X025197Y005551
X025551Y011496
X027087Y011457
X028189
T03
X000474Y0015
X001026
X000984Y002402
X000709
X000433
Y002953
X000709
X000984
X001339Y003819
X001457Y004606
X002087Y005
X002126Y005512
X00185
X001575
Y005787
X00185
X002126
X002598Y005748
X002638Y006142
X002992
Y005906
X002677Y005
X00437Y005157
X004803Y004803
X005354Y003661
Y002677
X005512Y002205
Y001969
Y001732
X004961Y001535
X004724
X004843Y001339
X003976Y002323
X003971Y002632
X004118Y002772
X002717Y002638
X002559Y002795
X00252Y001654
X002795
X001457Y006299
Y006614
X001142
Y006299
Y006929
Y007244
Y007559
Y007874
Y008189
Y008504
X001417
X001929
X002756Y008701
X003071
X003386
X003701
X003976Y009803
Y010118
X004291
Y009803
Y009488
Y010433
Y010748
Y011063
X003976
Y010748
Y010433
X003661
X003346
X002835Y010315
X002047Y010433
X002323Y010787
Y011102
Y011417
X002638
X001969
X001614
X00126
X000906
Y011102
Y010787
X000591
Y011102
Y011417
Y010394
X000906
Y010079
Y009764
X000591Y009764
Y010065
Y009449
X001142Y008858
X001339Y009055
X00189Y009606
X002559
X001457Y007244
Y006929
X006102Y007205
Y00815
X007402Y01126
X007717
X008031
X008346
X008937
X007126Y003858
X006614
X009606Y005433
X009252Y01126
X009803Y011535
X01063Y011496
X010472Y010984
X011732Y010866
X012047
X012362
X012835
X013346
X01311Y011417
X01252Y011339
Y011575
X012205
X01185
X011563
X013982Y01153
X014449Y011575
X014724
X01689Y010866
X017559
X017992
X018071Y010157
X017913Y008543
Y008268
X019094Y007992
Y007717
X01937
X019449Y009528
X020118Y010118
X020354Y010866
X021299
X021654
X021969
X022087Y010197
X022441
X022795
X02315
Y009528
X022795
X022441
X022087
X021496
X02248Y008937
X022953
X024409Y008701
X024528Y009213
X024606Y010157
X024409Y007677
X024016
X023465Y00752
Y007165
Y006772
X024685Y006811
X024567Y005354
X024724Y005197
X021496Y004764
X02122
X020945
X020669
X020394
X021496Y004488
X021693Y006772
Y007165
Y00752
X020197Y006142
X018819Y00626
X018543
X018268
X017992Y00685
X017717
X018228Y005197
X018425
X018622
X017992Y004291
X017717
X017441
X017559Y00185
X017126
X01685Y001181
X018268Y001299
Y001535
X018976
Y001299
X019685
Y001535
Y002047
X020394Y001535
Y001299
X021024Y00126
X021181Y001457
X02189
X021732Y00126
X022441
X022598Y001457
X013858Y001339
X013189Y001457
X012362Y001575
X025827Y001339
X02748Y001535
X029124Y001614
X029134Y002323
Y002598
X030315
Y002323
X030325Y001614
X031299Y001378
X03185
Y002402
X031575
X031299
Y002953
X031575
X03185
X031693Y004961
Y006614
X03185Y008976
X031378
Y009528
X03185
Y010079
X031378
X030354Y0106
X02937
X028386
X028543Y011457
X027795Y011417
X027362
X026811
X026378
X025787
X024882Y011299
X025276Y009882
X025394Y009606
Y00937
X027205Y00874
X027559Y008504
X028189Y00874
X028898Y008189
X029449Y007795
X029646Y007638
Y007441
X029587Y008504
Y008701
X030394Y008628
Y008425
X029803Y009961
X029528Y011457
X030512
X027441Y009961
X028937Y006378
Y006142
X028071Y005394
X028189Y004331
X027008
X02687Y005413
X026024Y005394
X025787
X025512Y005354
X025Y006811
X02937Y004331
X030394
X030748Y004252
M30
