M48
;Layer_Color=9474304
;FILE_FORMAT=2:4
INCH,LZ
;TYPE=PLATED
T1F00S00C0.0060
T2F00S00C0.0070
T3F00S00C0.0080
%
T01
X002323Y004528
X002598
X002992Y005
X003268Y004803
X003701Y005157
X004055Y004528
X00437
X004331Y005945
Y00626
Y006575
Y00689
Y007205
Y00752
X005Y007677
X005315Y007362
Y007047
Y006732
Y006417
Y006102
X005906Y004685
X005551Y004173
X006693Y003031
X007165
X007638
X00811
X007874Y002717
X007402
X006929
X006496Y002486
X007047Y00185
Y001575
X007283Y00126
X007992
X007756Y001575
Y00185
X008465
Y002126
X008937
X008701Y001575
X008465
X008701Y00126
X009173
X006575
X007874Y004685
X007835Y005787
X008465
X007835Y006417
X00815Y007362
X008465Y007677
X00752Y008622
Y008937
X007205
Y009252
X00689
X006575Y009567
Y009882
Y010197
X00689Y009882
X007205Y010197
X00689Y010827
X00563Y010512
X005315
X00563Y010197
Y009882
X005315
X005
Y009567
Y008937
X005315
X00563
Y009252
Y008307
X005315Y008622
X006575
Y008937
X00689Y008307
X001339Y009449
X009843Y009567
X010157
Y009252
Y008937
X009843Y008937
X009528
X009843Y009252
Y009882
Y010197
X010157Y009882
Y010512
X010787
Y010197
X011102
Y009882
Y009252
X010787
Y008937
X011102
X010787Y008622
Y008307
Y007992
Y007677
Y007362
X011102
Y007047
X010787
X010472
Y006732
X010157
Y006417
X009843Y006732
Y007047
X010157
Y007362
X009843
Y007992
X010157
Y008307
X009843
X010472
Y007992
Y008937
Y009252
X011417
X011732
Y009567
Y009882
X012047
X012362
Y010197
X012992
Y009882
Y009567
Y009252
X012677
Y009567
Y008937
X012362Y008937
X012047Y008937
X011732Y008937
X011417Y008307
Y007992
Y007677
Y007362
Y007047
Y006732
Y006417
X011732Y006417
X012047
X012362
X012677
Y006102
Y005787
Y005472
X012362
Y005157
X012677
X012992
X012992Y004843
X012992Y004528
Y004213
X012677
X012362
Y004528
X012047
X011732
X011417
Y004843
Y005157
X011732
Y004843
X011102
Y005157
X010787
X010157
Y004528
X011102Y004213
X011417
Y005472
X011732Y005787
X011102
Y006102
Y006417
Y006732
X010787Y006732
X010472Y005787
X009528Y006732
X012047Y007047
X012362
X012677
Y007362
Y007677
X012992
Y007362
X013307
Y007677
Y007992
X013622
X013937
X014252
X014567
Y008307
X014882
X015197
Y008622
X014882
Y008937
X015197
X015512
X015827
Y008622
Y008307
X015512
Y008622
Y009252
X015197
Y009567
X014882
X014567
X014252
Y009252
Y008937
X014567
X014567Y008622
X014252Y008622
X013937Y008622
Y009252
Y009567
Y009882
Y010197
X014252
X014567
Y010512
X015197
Y010197
Y009882
X014882
Y010197
X015512Y009882
X015827
X015512Y010512
X016575Y010197
X016457Y008622
X016693Y008307
X016457Y007677
Y007047
X015827
Y006732
Y006417
Y006102
Y005787
Y005472
Y005157
X015512
Y004843
Y004528
Y004213
X015197
X014882
X014567
X014252
Y003898
X013937Y00374
Y004213
X013622
Y003898
X013307Y004213
Y004528
X013622
Y004843
Y005157
Y005472
Y005787
X013307
X013307Y005472
X014252Y005472
X014567
Y005157
Y004843
X014252
Y005157
Y004528
X014567
X015197
Y004843
X014882Y005472
Y005787
X015197
Y006102
X015512
Y006417
Y006732
X015197Y006732
Y006417
X014882
Y006732
Y007047
X015197
Y007362
Y007677
X014882
Y007362
Y007992
X014567Y007677
X014252
Y007362
Y007047
Y006732
Y006417
X014567
Y006732
X014252Y006102
Y005787
X014567
X013937
Y004843
Y004528
X01374Y002756
X013543Y002559
X013032Y002047
X012717Y001969
X01252Y001772
X012283Y001969
X01189Y00185
X011496Y001732
X011299Y001575
X011063
Y00185
Y002126
X010354Y00185
Y001575
X010591Y00126
X009882
X009646Y001575
Y00185
X009528Y002717
X01
X010472
X010709Y003031
X010236
X009764
X009291
X011299Y00126
X011693Y001339
X013386Y001693
X014252
X014488
Y001299
X014961Y001457
Y001693
X015197Y001299
X015669Y001535
X015787Y002008
X015197Y002165
X015394Y002362
X01622
X016693Y002323
X017008
X017283Y001969
X017795Y002362
X01811
X018425
X01874
X019055
X01937
X02
X020315
X020472Y00252
X020787Y002362
X021102Y00252
X021417Y002362
X021732Y00252
X022047Y002362
X022362Y00252
X022677Y002362
X022992Y00252
X023307Y002362
X023622Y00252
X023937Y002362
X024252Y00252
X024567Y002362
X024449Y003307
X024685
X024055
X023819
X023425
X023189
X022992Y003425
X022795Y003307
X022559
X022165
X021929
X021535
X021299
X020906
X020669
X019528Y004528
Y004764
X020118Y006732
X020551Y007717
X020433Y008622
X020118
X019803
X019409
X019055
X01811Y009567
X019724Y010118
Y010512
X020118
X020394Y009528
X020748
X020984
X02248Y009055
X022913
X023661Y008504
Y008189
X024281Y007677
X024173Y007441
X024528Y009606
X024016Y011339
X023465
X023228Y011299
Y010984
X022638Y010591
X022126Y008071
X023543Y004449
X023937Y004606
X016457Y003189
X01622
X016142Y001339
X016142Y006102
X015827Y007677
Y007992
X016142
X015512Y007677
X013937Y007047
X013307Y006732
Y006417
X012992Y007047
Y007992
X012362
X012362Y007677
X012047Y008307
X012992Y008937
X013307Y009567
X013622
Y009882
Y010197
X013307
X013661Y010512
X012047
X011732
X011417
Y010197
X01126Y010787
X012047Y005157
X025236Y004331
X025748Y003898
X025669Y003661
X026142Y004213
X026378Y004094
X026534Y003939
X02752Y004094
X027675Y003939
X028701Y004094
X028858Y003937
X029016Y003583
X028661Y003465
X028465Y003307
Y003031
X027953Y002598
X027677
X027402
X027047Y002441
X027598Y00185
X028504Y001732
X028898Y001535
X028976Y001299
X029213
X029449
X030079
X030315
X030039Y003031
X029488
X029843Y003465
X030039Y003937
X029882Y004094
X030551Y005433
X030709Y005709
Y006063
X031299Y005709
X028976
X028307Y005827
Y005551
X027638Y005827
X027244Y005945
X027047Y005787
X026693
X026496Y005945
X02622Y00626
X025827Y006535
X025709Y006732
X025591Y006929
X025472Y007126
X025591Y007323
X025709Y00752
X025787Y00811
X026181
X02626Y008386
X028386Y008583
X028583Y008425
X028346Y007835
X028502Y007679
X02874Y007362
X028896Y007207
X028543Y006732
X028346Y006575
X025276Y006142
X025157Y00252
X024882
X025591
X025906
X026063Y001575
X02626Y001496
X026457Y001339
X026732Y001535
X026969Y001299
X025591Y001339
X026063Y011417
X028386Y010344
X02937
X030354
T02
X00126Y000394
Y000945
X001969
Y000394
X00315
Y000945
X003858
Y000394
X003425Y001772
X00248Y002205
X0031Y00315
Y00315
Y00365
Y00365
X00335Y0034
X0036Y00365
Y00365
Y00315
Y00315
X005984Y003189
Y002598
Y002008
X006457Y000945
Y000394
X009055
Y000945
X008268Y005157
X007874
X00752
Y005787
Y006102
X007205
Y005787
Y006417
Y006732
X00752
Y006417
Y007362
X007205
Y007677
Y007992
Y008307
Y008622
X00689
X006575Y008307
Y007992
Y007677
Y007047
Y006732
Y006102
X00563
Y005787
X005
X004685
Y006102
Y006417
Y006732
Y007047
X00563
Y006732
Y006417
Y007362
Y007677
X005315
Y007992
X00563
X005315Y008307
X005
Y008622
X004685
Y009252
Y009567
Y009882
Y010197
Y010512
Y010827
X005Y010197
X005315
X005984Y009252
X006299
X006299Y008937
X005984
X007205Y009567
X00752
Y009882
Y010197
Y010512
Y010827
X007205
Y009882
X008937Y010945
X007205Y007047
X00689Y007047
X006299Y005157
X005906
X005512
X005118
X004724
X004016
X002835Y00685
Y007244
X00252Y007047
X002205Y00689
Y007244
X002244Y008504
X00311Y007756
X00185Y010236
X00122Y010079
Y009764
X009252Y010945
X010157Y010197
X010472
X010787Y009882
X010787Y009567
X010472
Y008622
X010157
X011102Y008628
Y008307
Y007992
Y007677
X010472
Y007362
Y006417
X010787Y006417
X011417Y006102
X011732
X012047Y006102
X012362
Y005787
X012047
Y005472
X011732
X012047Y004843
X012362
X012677
Y004528
X013307Y004843
Y005157
X012992Y005472
Y005787
Y006102
Y006417
Y006732
X012677
X012362
X012047
X011732
Y007047
Y007362
Y007677
X012047
Y007362
X012362
X012047Y007992
X011732
Y008307
Y008622
X012047
X012362
Y008307
X012677
Y007992
X012992Y008307
Y008622
X013307
X013307Y008307
X013622Y008307
Y008622
X013937Y008307
X014252
X013937Y007677
Y007362
X013622
Y007677
Y007047
X013307
X013622Y006732
Y006417
X013937
Y006732
Y006102
X013622
X013307Y006102
X014567
X014882
X015512Y005787
Y005472
X015827Y004843
Y004528
X014882Y004843
Y005157
X013937
Y005472
X014567Y007047
Y007362
X015512Y007362
X015827Y007362
X015512Y007992
X015197
X014882Y009252
X014567
Y009882
X014252
X013307Y009252
X013307Y008937
X012362Y009252
Y009567
X012047Y009567
Y009252
Y010197
X011732
X011417Y009882
Y009567
X012205Y011378
X014449Y011339
X014724
X015197
Y011575
X015472
Y011339
X015866
Y011575
X016142
X015827Y009567
Y009252
X017638Y008543
X018268
X018543
Y008268
X018268
Y007992
X018543
X018819
Y008268
Y007717
X018543
X018268Y00685
Y006575
X018543
X017913Y006457
X017795Y006024
Y005748
X018071
Y005472
X017795
X01752
Y005748
Y006024
Y006299
X017717Y007126
Y007402
X017992Y007126
X018622Y005748
X018898
Y005472
X018346
X018425Y005
X018622
X018228
X020433Y005315
X020709
X020984
X02126
X02122Y004488
X020945
X020669
X020394
X022756Y004843
X022992Y005079
X023228Y004843
Y005315
X022756
X022913Y006772
X023189
Y007165
X022913
Y00752
X023189
X022244
X021969
Y007165
X022244
Y006772
X021969
X022283Y00937
X022677
X023071
Y009803
Y010197
X022677
X022283
Y009803
X022677
X023228Y000945
Y000394
X011654
Y000945
X009843Y006102
X025Y005748
X025197Y005551
X025394Y007756
Y007953
X026693Y007638
Y007205
Y006772
X027126
Y007205
Y007638
X027559
Y007205
Y006772
X027087Y011457
X028189
X025551Y011496
X025984Y002165
X025118Y000945
Y000394
X028425
Y000945
X029134
Y000394
X030315
Y000945
X031024
Y000394
T03
X000474Y0015
X00075
X001026
X000984Y002402
X000709
X000433
Y002953
X000709
X000984
X001339Y003819
X001457Y004606
X001575Y005512
Y005787
X00185
X002126
Y005512
X00185
X002087Y005
X002677
X002598Y005748
X002638Y006142
X002992
Y005906
X001457Y006299
Y006614
Y006929
Y007244
X001142
Y006929
Y006614
Y006299
Y007559
Y007874
Y008189
Y008504
X001417
X001929
X002756Y008701
X003071
X003386
X003701
X004291Y009488
Y009803
Y010118
X003976
Y009803
Y010433
Y010748
Y011063
X004291
Y010748
Y010433
X003661
X003346
X002835Y010315
X002047Y010433
X002323Y010787
Y011102
Y011417
X002638
X001969
X001614
X00126
X000906
X000591
Y011102
Y010787
X000906
Y011102
Y010394
X000591
Y010065
Y009764
Y009449
X000906Y009764
Y010079
X00189Y009606
X002559
X001339Y009055
X001142Y008858
X006102Y00815
Y007205
X004803Y004803
X00437Y005157
X005354Y003661
Y002677
X005512Y002205
Y001969
Y001732
X004961Y001535
X004724
X004843Y001339
X003976Y002323
X003971Y002632
X004118Y002772
X002717Y002638
X002559Y002795
X00252Y001654
X002795
X006575Y003589
X006614Y003858
X007126
X009213Y003543
X009173Y00248
X008268Y002486
X008346Y01126
X008031
X007717
X007402
X008937
X009252
X009803Y011535
X01063Y011496
X010472Y010984
X011732Y010866
X012047
X012362
X012835
X013346
X01311Y011417
X01252Y011339
Y011575
X012205Y011614
X01185Y011575
X011563
X013982Y01153
X014449Y011575
X014724
X01689Y010866
X017559
X018071
Y010157
X017913Y008543
Y008268
X019094Y007992
Y007717
X01937
X019449Y009528
X020118Y010118
X019567Y010866
X021142
X021496
X021693
X021496Y009528
X021693Y00752
Y007165
Y006772
X023465
Y007165
Y00752
X024685Y006811
X024567Y005354
X024724Y005197
X021496Y004764
Y004488
X02122Y004764
X020945
X020669
X020394
X020197Y006142
X018819Y00626
X018543
X018268
X017992Y00685
X017717
X018228Y005197
X018425
X018622
X017992Y004291
X017717
X017441
X017559Y001969
Y001693
X017244
X01685Y001181
X018268Y001299
Y001535
X018976
Y001299
X019685
Y001535
Y00189
Y002323
X020394Y001535
Y001299
X020984
X021181Y001457
X02189
X021732Y00126
X022441
X022598Y001457
X013858Y001339
X013189Y001457
X012362Y001575
X01252Y002756
X012835
X011614Y002913
X010906Y00248
X009606Y005433
X023937Y009055
X024528Y009213
X024606Y010157
X025276Y009882
X025472Y009882
X025394Y009606
Y00937
X02626Y009882
X026654
X02748Y009882
X027835Y009882
X029016
X02937Y0106
X030354
X030512Y011457
X029528
X028543
X027795Y011417
X027362
X026811
X026378
X025787
X024882Y011299
X028386Y0106
X028189Y00874
X027559Y008504
X027244Y00874
X028898Y008189
X029449Y007795
X029646Y007638
Y007441
X029587Y008504
Y008701
X030394Y008628
Y008425
X031299Y008976
X031575
X03185
Y009528
X031575
X031299
Y010079
X031575
X03185
X028937Y006378
Y006142
X028071Y005394
X02687Y005354
X025984Y005348
X025787
X025512Y005354
X025551Y004291
X025886
X027067
X028248
X029429
X030315Y003465
X030787
X031299Y002953
X031575
X03185
Y002402
X031575
X031299
X030315Y002323
Y002598
X030325Y001614
X029124
X029134Y002323
Y002598
X02748Y001535
X025827Y001339
X031299Y00126
X031575
X03185
X024961Y006811
M30
