M48
;Layer_Color=9474304
;FILE_FORMAT=2:4
INCH,LZ
;TYPE=PLATED
T1F00S00C0.0080
T2F00S00C0.0160
T4F00S00C0.0354
T5F00S00C0.0620
T6F00S00C0.0709
T7F00S00C0.1063
%
T01
X0372Y0078
X0392Y0082
X0414Y0069
Y0038
X0447Y0068
X0463
X0471
X0469Y007725
X0367Y0074
X0362Y007
X0353Y0065
X035594Y0094
X036381
X034806
X034019
X0336Y0119
X0348Y0116
X0356Y0119
Y011
X0318Y0103
X0253Y0126
X0249Y0132
X025Y0067
X0245Y0023
X0219Y002
X0275Y0023
X0301Y002
X0185Y0023
X0159Y002
X0125Y0023
X0099Y002
X0091Y0087
Y0095
X0094Y0097
X0086Y0083
X0073Y0091
X0066Y013
X005811Y0125
X0043Y013
X0022Y012988
X0043Y014
X0042Y0146
X0038Y0158
X005546Y013697
Y013303
X0017Y0195
Y0244
X0146Y02372
Y022539
Y022145
Y021751
Y021357
Y020964
Y019783
X0128Y019
X0123Y0202
X0128Y0213
X01585Y022145
X0171Y022539
Y023326
Y024113
Y025294
Y026476
Y028444
X0178Y0287
X0146Y028444
Y026476
Y025294
X0172Y020176
X0176Y02057
X0066Y0152
Y014
X006254Y013697
X0059
Y013303
X006254
X005989Y0143
X005811Y0145
X0241Y0144
X0245Y0138
X0257Y015299
X0261Y015535
X0262Y015772
Y015063
X0272
Y015772
X0282
X0284Y016244
Y016717
X0282Y016953
Y017661
Y01837
X0284Y018606
Y019079
Y019551
X0287Y019315
Y019787
Y020496
X0282Y02026
Y020969
X0272
X0262
X0261Y021205
Y021677
Y02215
Y022622
X0262Y022858
X0261Y023331
X0257Y023094
Y022386
Y021913
Y021441
Y020732
Y019315
Y018843
X0261Y019079
Y019551
X0262Y019787
Y018606
X0261Y017898
X0262Y017661
X0261Y017189
X0262Y016953
X0257Y017425
Y018134
X0272Y017661
Y016953
X0287Y01648
Y016008
X0289Y015
X0282Y015063
X0294Y0153
Y0167
Y017
X029Y0179
Y0184
X0287Y018843
X0318Y0188
X032Y026165
Y026874
Y027583
Y028291
X0325Y028055
Y027346
Y026638
Y025929
X0312Y0288
X0308
X0304
X03
X0282Y027819
Y02711
X028198Y026402
X0282Y025693
Y024984
Y024276
Y023567
Y022858
X0272Y022858
X0261Y024039
X0257Y023803
Y024512
X0261Y024748
Y025457
X0257Y02522
X0418Y024984
Y024276
Y023567
Y022858
Y020969
X0428
X0438
X0439Y021205
Y021677
Y02215
Y022622
X0438Y022858
X0439Y023331
X0438Y023567
X0439Y024039
X0438Y024276
X0439Y024748
X0438Y024984
X0439Y025457
X0438Y025693
X0439Y026165
X0438Y026402
X0439Y026874
X0438Y02711
X0439Y027583
X0438Y027819
X0439Y028291
X0442Y028055
Y027346
Y026638
Y025929
Y02522
Y024512
Y023803
Y023094
Y022386
Y021913
Y021441
Y020732
X0439Y020496
X0438Y02026
Y01837
X0439Y017898
X0438Y017661
X0439Y017189
X0438Y016953
X0443Y017425
Y018134
X0428Y017661
Y016953
X0418
Y017661
X0411Y017425
Y0169
X0405Y017189
X0408Y0177
X0418Y018606
Y019787
X0392Y0184
X0377Y0181
X0397Y015535
X0404Y0153
X0418Y015063
Y015772
X0428
Y015063
X0438
X0439Y015299
X0438Y015772
X0443Y015535
X0482Y0239
X0477Y0244
X0484Y0261
X048746Y026403
X0491
X049454
Y026797
X0491
X048746
X0484Y0271
X0493Y0275
X0503Y0277
X0502Y0271
Y0261
X0501Y0255
X0519Y027212
X0485Y0284
X0453Y0309
X0442Y030654
X0439Y030417
X0438Y030181
X0439Y029709
X0442Y029945
X0438Y03089
Y031598
Y032307
Y033016
X0439Y033252
X0438Y033724
X0439Y033961
X0438Y034433
X0439Y034669
Y035142
Y035614
Y036087
Y036559
X0438Y037032
X0439Y037504
Y037976
Y038449
Y038921
Y039394
X0438Y03963
X0443Y039157
Y038685
Y038213
Y03774
Y037268
Y036795
Y036323
Y03585
Y035378
Y034906
Y034197
Y033488
X0428Y033016
Y034433
X0418
Y031835
X0415Y0316
Y03089
X0418Y031126
X0407Y0295
X0405Y0297
X0418Y037032
X0428
Y03963
X0418
Y042228
Y042937
X0428
Y042228
X0438
Y042937
Y044118
X0418
X0282
X0272
X0262
Y042937
Y042228
X0272
Y042937
X0282
Y042228
Y03963
X0272
X0262
X0261Y039394
Y038921
Y038449
Y037976
Y037504
X0262Y037032
X0261Y036559
Y036087
Y035614
Y035142
Y034669
X0262Y034433
X0261Y033961
Y033488
Y033016
Y032543
Y032071
X0262Y031835
Y031126
Y030417
X0261Y029945
X0262Y029709
X0257Y030181
Y032307
Y03278
Y033252
Y033724
Y034197
Y034906
Y035378
Y03585
Y036323
Y036795
Y037268
Y03774
Y038213
Y038685
Y039157
X0272Y037032
X0282
Y034433
X0272
X0282Y0316
Y03089
X0283Y030417
X0287Y030654
X0293Y0295
X0295Y0297
X0298Y0291
X0302
X0306
X031
X0327Y0318
Y032307
Y03278
Y033252
Y033724
Y034197
X0332Y033961
Y033488
Y033016
Y032543
Y032071
Y0315
X0171Y0312
X0146
Y029232
Y0377
Y038487
Y039669
Y040062
Y040456
Y04085
Y041243
X014Y0412
X0146Y042424
Y044
X0171Y043999
Y042818
Y042031
Y041243
Y04085
Y039275
Y038881
X0178Y037
X0128Y0376
Y0401
X0017Y038
Y0435
Y029
Y048
X0146Y047936
Y047149
Y04518
X0171
Y047149
X0192Y0476
X018953Y0485
X0171Y049905
X0146
X0262Y044827
X0272
X0282
X0303Y0455
Y0461
X0306Y0467
X0311
X0316
X032Y0461
Y0456
X0327Y0461
X0341Y045974
X0347Y046
X03505
Y04565
X0418Y044827
X0428
X0438
X0424Y0535
T02
X0378Y0043
X0385
X0392
X0433Y0052
Y0059
X045Y0025
X0467
X0482
X0357
Y0043
X0315Y002
X0324Y0107
Y0115
X0165Y012
Y0105
Y009
X015
Y0105
Y012
X0065Y0115
X0055Y0118
Y011
X0029Y0112
X0021
X0025Y0118
X0112Y0185
X014Y0245
Y026
Y0275
X0165Y015
Y0135
X0218Y0225
Y023
Y0235
Y024
Y0245
X0223
Y024
Y0235
Y023
Y0225
X023Y0255
X0235
X024
X0248Y0264
X0253
X0258
Y0279
X0253
X0248
X024
X0235
X0248Y0288
X0226Y0264
X037Y0287
X0335Y0195
X0325
Y016
Y015
X04Y0165
Y0195
Y0287
X039
X038
X047Y0272
X048Y0272
Y0249
X0472Y0249
X0485Y0254
X0491
Y0361
Y037
X0482
X0473
Y0361
X0482
X0485Y0385
X0475
Y0395
X0485
X0495Y0385
X049Y041
Y042
Y043
Y044
X05Y0435
X0515
Y042
X05
X0475Y0405
X0461Y037
X045
Y0361
X041Y0311
X04Y0292
X039
X038
Y0311
X0424Y0294
X037Y0292
Y0311
X036
X035
X034
X033
X032
X0268Y0294
X0248Y0293
X0295Y0405
Y0415
X031
Y0405
X0325
Y0415
X037
Y0405
X014Y043
Y044
X0112Y037
X014Y032
Y031
Y03
Y029
Y045
Y046
Y047
Y048
Y049
Y05
X0255Y0512
X05Y0445
X0515
T04
X051Y0045
Y0055
Y0065
Y0075
Y0085
Y0095
Y0105
Y0115
Y0125
X052
Y0115
Y0105
Y0095
Y0085
Y0075
Y0065
Y0055
Y0045
X029Y0042
Y0052
X028
Y0042
X027
Y0052
X026
Y0042
X025
Y0052
X024
Y0042
X023
Y0052
X022
Y0042
X021
Y0052
X02
Y0042
X019
Y0052
X018
Y0042
X017
Y0052
X016
Y0042
X015
Y0052
X014
Y0042
X013
Y0052
X012
Y0042
X011
Y0052
X01
Y0042
X0057Y0054
Y0064
Y0074
Y0084
X0047Y0089
Y0079
Y0069
Y0059
X0018Y012516
Y014484
X0207Y0285
X0346Y0196
Y0186
Y0176
Y0166
X0356
Y0176
Y0186
Y0196
Y0149
X0366
Y0139
X0356
X0346
Y0149
X0336
Y0139
X051Y0135
Y0145
Y0155
Y0165
Y0175
Y0185
Y0195
Y0205
Y0215
Y0225
Y0235
X052
Y0225
Y0215
Y0205
Y0195
Y0185
Y0175
Y0165
Y0155
Y0145
Y0135
X0525Y025716
Y027684
X0496Y0315
Y0325
Y0335
Y0345
X0486Y035
Y034
Y033
Y032
X04995Y039
X05095
Y04
X04995
Y041
X05095
X0464Y0411
Y0421
Y0431
Y0441
Y0401
X0392
Y0411
Y0421
Y0431
Y0441
X0207Y0345
Y0335
Y0325
Y0315
Y0305
Y0295
Y0455
Y0465
Y0475
Y0485
Y0495
Y0505
Y0515
X0392Y0481
Y0471
Y0461
Y0451
X0464
Y0461
Y0471
Y0481
X046Y0535
X047
X045
T05
X001Y0041
Y0102
X0533Y0302
Y0363
T06
X0507Y0426
Y0442
Y0458
Y0474
Y049
Y0506
T07
X0521Y002
X002
X003645Y01742
X0382Y0193
X035Y041
X003645Y036125
Y032775
Y05148
X002Y0535
X032
X038
X0521
M30
