G04 Layer_Color=8421504*
%FSLAX24Y24*%
%MOIN*%
%TF.FileFunction,Paste,Top*%
%TF.Part,Single*%
G01*
G75*
%TA.AperFunction,SMDPad,CuDef*%
%ADD10R,0.0209X0.0069*%
%ADD12O,0.0236X0.0098*%
%ADD13R,0.0236X0.0098*%
%ADD15R,0.0177X0.0413*%
%ADD16R,0.0354X0.0256*%
%ADD17R,0.0295X0.0295*%
%ADD18R,0.0197X0.0205*%
%ADD21R,0.0315X0.0315*%
%ADD22R,0.0217X0.0217*%
%ADD23R,0.0248X0.0799*%
%ADD24O,0.0098X0.0354*%
%ADD25O,0.0354X0.0098*%
%ADD27O,0.0118X0.0335*%
%ADD28O,0.0335X0.0118*%
%ADD31R,0.0531X0.1024*%
%ADD32R,0.0394X0.0571*%
%ADD33R,0.1024X0.0531*%
%ADD34R,0.0138X0.0138*%
%ADD35R,0.0138X0.0138*%
%ADD36R,0.0205X0.0197*%
%ADD37R,0.0906X0.0335*%
%ADD38R,0.0217X0.0217*%
%ADD39R,0.0315X0.0315*%
%ADD40R,0.0571X0.0394*%
%TA.AperFunction,NonConductor*%
%ADD53C,0.0100*%
%ADD81R,0.0512X0.0512*%
%ADD82R,0.0400X0.0400*%
%ADD83R,0.0350X0.0350*%
%TA.AperFunction,SMDPad,SMDef*%
%ADD84R,0.0575X0.0102*%
D10*
X24555Y8130D02*
D03*
Y8268D02*
D03*
Y8406D02*
D03*
Y8543D02*
D03*
X24291Y8130D02*
D03*
Y8268D02*
D03*
Y8406D02*
D03*
Y8543D02*
D03*
D12*
X19094Y4961D02*
D03*
Y4764D02*
D03*
Y4567D02*
D03*
X1575Y9252D02*
D03*
Y9055D02*
D03*
Y8858D02*
D03*
D13*
X19094Y4370D02*
D03*
X1575Y9449D02*
D03*
D15*
X23427Y10874D02*
D03*
X22927D02*
D03*
X22427D02*
D03*
X21927D02*
D03*
X23427Y8732D02*
D03*
X22927D02*
D03*
X22427D02*
D03*
X21927D02*
D03*
D16*
X20394Y9744D02*
D03*
Y10118D02*
D03*
Y10492D02*
D03*
X19449D02*
D03*
Y10118D02*
D03*
Y9744D02*
D03*
D17*
X20039Y7695D02*
D03*
X20413Y6793D02*
D03*
X19665D02*
D03*
D18*
X17014Y8622D02*
D03*
X16687D02*
D03*
X11563Y11299D02*
D03*
X11890D02*
D03*
X22354Y11346D02*
D03*
X22028D02*
D03*
X23392Y8307D02*
D03*
X23065D02*
D03*
X22435D02*
D03*
X22762D02*
D03*
X13864Y11181D02*
D03*
X13537D02*
D03*
X16687Y9921D02*
D03*
X17014D02*
D03*
X16687Y9606D02*
D03*
X17014D02*
D03*
Y9291D02*
D03*
X16687D02*
D03*
X23262Y6299D02*
D03*
X23589D02*
D03*
X2998Y4803D02*
D03*
X2671D02*
D03*
X22132Y8307D02*
D03*
X21805D02*
D03*
X17041Y10709D02*
D03*
X17368D02*
D03*
X20596Y6339D02*
D03*
X20270D02*
D03*
X24679Y9016D02*
D03*
X25006D02*
D03*
X2474Y1850D02*
D03*
X2801D02*
D03*
X3431D02*
D03*
X3104D02*
D03*
X1863Y3800D02*
D03*
X1537D02*
D03*
X22722Y7953D02*
D03*
X22396D02*
D03*
X25360Y11457D02*
D03*
X25033D02*
D03*
D21*
X27795Y11142D02*
D03*
Y10512D02*
D03*
X6654Y4134D02*
D03*
Y4764D02*
D03*
X7126D02*
D03*
Y4134D02*
D03*
X29961Y11142D02*
D03*
Y10512D02*
D03*
X28976D02*
D03*
Y11142D02*
D03*
X30945D02*
D03*
Y10512D02*
D03*
X26811D02*
D03*
Y11142D02*
D03*
D22*
X12205Y11437D02*
D03*
Y11083D02*
D03*
D23*
X25886Y4797D02*
D03*
X26280D02*
D03*
X26673D02*
D03*
X27067D02*
D03*
X27461D02*
D03*
X27854D02*
D03*
X28248D02*
D03*
X28642D02*
D03*
X29035D02*
D03*
X29429D02*
D03*
X29823D02*
D03*
X30217D02*
D03*
X25886Y9297D02*
D03*
X26280D02*
D03*
X26673D02*
D03*
X27067D02*
D03*
X27461D02*
D03*
X27854D02*
D03*
X28248D02*
D03*
X28642D02*
D03*
X29035D02*
D03*
X29429D02*
D03*
X29823D02*
D03*
X30217D02*
D03*
D24*
X2956Y2632D02*
D03*
X3153D02*
D03*
X3350D02*
D03*
X3547D02*
D03*
X3744D02*
D03*
Y4168D02*
D03*
X3547D02*
D03*
X3350D02*
D03*
X3153D02*
D03*
X2956D02*
D03*
D25*
X4118Y3006D02*
D03*
Y3203D02*
D03*
Y3400D02*
D03*
Y3597D02*
D03*
Y3794D02*
D03*
X2582D02*
D03*
Y3597D02*
D03*
Y3400D02*
D03*
Y3203D02*
D03*
Y3006D02*
D03*
D27*
X22608Y4360D02*
D03*
X22864D02*
D03*
X23120D02*
D03*
X23376D02*
D03*
Y5797D02*
D03*
X23120D02*
D03*
X22864D02*
D03*
X22608D02*
D03*
D28*
X23711Y4695D02*
D03*
Y4951D02*
D03*
Y5207D02*
D03*
Y5463D02*
D03*
X22274D02*
D03*
Y5207D02*
D03*
Y4951D02*
D03*
Y4695D02*
D03*
D31*
X22077Y7165D02*
D03*
X23041D02*
D03*
X9144Y10512D02*
D03*
X8179D02*
D03*
X17510Y8150D02*
D03*
X18474D02*
D03*
D32*
X3484Y10866D02*
D03*
X2736D02*
D03*
X16083Y11220D02*
D03*
X15335D02*
D03*
D33*
X1614Y11033D02*
D03*
Y10069D02*
D03*
X20866Y4321D02*
D03*
Y5285D02*
D03*
X17480Y6289D02*
D03*
Y7254D02*
D03*
X18740Y6624D02*
D03*
Y5659D02*
D03*
D34*
X28543Y10600D02*
D03*
Y10344D02*
D03*
X1024Y9242D02*
D03*
Y9498D02*
D03*
X19685Y4281D02*
D03*
Y4537D02*
D03*
X24134Y4616D02*
D03*
Y4360D02*
D03*
X30512Y10344D02*
D03*
Y10600D02*
D03*
X29528D02*
D03*
Y10344D02*
D03*
X5354Y2234D02*
D03*
Y2490D02*
D03*
D35*
X24970Y9606D02*
D03*
X24715D02*
D03*
X30325Y2047D02*
D03*
X30069D02*
D03*
X30128Y2323D02*
D03*
X29872D02*
D03*
X29321D02*
D03*
X29577D02*
D03*
X29124Y2047D02*
D03*
X29380D02*
D03*
X30325Y1772D02*
D03*
X30069D02*
D03*
X30128Y2598D02*
D03*
X29872D02*
D03*
X29321D02*
D03*
X29577D02*
D03*
X29124Y1772D02*
D03*
X29380D02*
D03*
X18770Y10118D02*
D03*
X19026D02*
D03*
X24970Y9331D02*
D03*
X24715D02*
D03*
X24281Y7835D02*
D03*
X24537D02*
D03*
X25659Y9882D02*
D03*
X25915D02*
D03*
X27037Y9882D02*
D03*
X27293D02*
D03*
X28022Y9882D02*
D03*
X28278D02*
D03*
X29459D02*
D03*
X29203D02*
D03*
X2077Y4803D02*
D03*
X2333D02*
D03*
X2878Y2200D02*
D03*
X2622D02*
D03*
X3372Y2200D02*
D03*
X3628D02*
D03*
D36*
X18071Y10348D02*
D03*
Y10675D02*
D03*
X25000Y8628D02*
D03*
Y8301D02*
D03*
X23937Y8195D02*
D03*
Y7868D02*
D03*
Y8825D02*
D03*
Y8498D02*
D03*
X20039Y10978D02*
D03*
Y11305D02*
D03*
X18465D02*
D03*
Y10978D02*
D03*
X30787Y2907D02*
D03*
Y3234D02*
D03*
X30315D02*
D03*
Y2907D02*
D03*
X25354Y2132D02*
D03*
Y1805D02*
D03*
X25039Y2132D02*
D03*
Y1805D02*
D03*
X24724Y2132D02*
D03*
Y1805D02*
D03*
X24409Y2132D02*
D03*
Y1805D02*
D03*
X24094Y2132D02*
D03*
Y1805D02*
D03*
X23780Y2132D02*
D03*
Y1805D02*
D03*
X23465Y2132D02*
D03*
Y1805D02*
D03*
X23150Y2132D02*
D03*
Y1805D02*
D03*
X22835Y2132D02*
D03*
Y1805D02*
D03*
X22520Y2132D02*
D03*
Y1805D02*
D03*
X22205Y2132D02*
D03*
Y1805D02*
D03*
X21890Y2132D02*
D03*
Y1805D02*
D03*
X21575Y2132D02*
D03*
Y1805D02*
D03*
X21260Y2132D02*
D03*
Y1805D02*
D03*
X20945Y2132D02*
D03*
Y1805D02*
D03*
X20630Y2132D02*
D03*
Y1805D02*
D03*
X27362D02*
D03*
Y2132D02*
D03*
X27047D02*
D03*
Y1805D02*
D03*
X26732D02*
D03*
Y2132D02*
D03*
X26417Y1805D02*
D03*
Y2132D02*
D03*
X25669D02*
D03*
Y1805D02*
D03*
X16378Y2132D02*
D03*
Y1805D02*
D03*
X16063D02*
D03*
Y2132D02*
D03*
X10354Y2159D02*
D03*
Y2486D02*
D03*
X10039D02*
D03*
Y2159D02*
D03*
X9724D02*
D03*
Y2486D02*
D03*
X9409D02*
D03*
Y2159D02*
D03*
X8071D02*
D03*
Y2486D02*
D03*
X7756D02*
D03*
Y2159D02*
D03*
X7441D02*
D03*
Y2486D02*
D03*
X7126D02*
D03*
Y2159D02*
D03*
X6811D02*
D03*
Y2486D02*
D03*
X6220Y4730D02*
D03*
Y4404D02*
D03*
X7559D02*
D03*
Y4730D02*
D03*
X20906Y7722D02*
D03*
Y7396D02*
D03*
X24213Y6069D02*
D03*
Y5742D02*
D03*
X20906Y7093D02*
D03*
Y6766D02*
D03*
X29528Y11266D02*
D03*
Y10939D02*
D03*
X28543D02*
D03*
Y11266D02*
D03*
X30512D02*
D03*
Y10939D02*
D03*
X25000Y7671D02*
D03*
Y7998D02*
D03*
X5354Y3852D02*
D03*
Y4179D02*
D03*
X1500Y2937D02*
D03*
Y3263D02*
D03*
X1496Y2250D02*
D03*
Y1923D02*
D03*
X28780Y3116D02*
D03*
Y2789D02*
D03*
X24331Y9219D02*
D03*
Y8892D02*
D03*
X2559Y9876D02*
D03*
Y10203D02*
D03*
X24134Y4915D02*
D03*
Y5242D02*
D03*
X21220Y6766D02*
D03*
Y7093D02*
D03*
X19094Y7081D02*
D03*
Y7407D02*
D03*
X24488Y4730D02*
D03*
Y4404D02*
D03*
X12835Y11423D02*
D03*
Y11096D02*
D03*
X18386Y7407D02*
D03*
Y7081D02*
D03*
X18740D02*
D03*
Y7407D02*
D03*
X26378Y10663D02*
D03*
Y10990D02*
D03*
X27362D02*
D03*
Y10663D02*
D03*
X13150Y2571D02*
D03*
Y2244D02*
D03*
X12835D02*
D03*
Y2571D02*
D03*
X12520D02*
D03*
Y2244D02*
D03*
X12205D02*
D03*
Y2571D02*
D03*
X11890D02*
D03*
Y2244D02*
D03*
X10669Y2159D02*
D03*
Y2486D02*
D03*
X28819Y1923D02*
D03*
Y2250D02*
D03*
X24764Y7041D02*
D03*
Y7368D02*
D03*
X24409Y7041D02*
D03*
Y7368D02*
D03*
D37*
X3386Y9173D02*
D03*
Y9961D02*
D03*
X17480Y5433D02*
D03*
Y4646D02*
D03*
D38*
X5315Y1850D02*
D03*
X4961D02*
D03*
D39*
X21142Y11181D02*
D03*
X20512D02*
D03*
X18937D02*
D03*
X19567D02*
D03*
D40*
X17441Y3976D02*
D03*
Y3228D02*
D03*
X19803Y6240D02*
D03*
Y5492D02*
D03*
D53*
X-30400Y-1600D02*
X-30000D01*
X-30200D01*
Y-2200D01*
X-29700D02*
X-29500D01*
X-29400Y-2100D01*
Y-1900D01*
X-29500Y-1800D01*
X-29700D01*
X-29800Y-1900D01*
Y-2100D01*
X-29700Y-2200D01*
X-29200Y-2400D02*
Y-1800D01*
X-28900D01*
X-28801Y-1900D01*
Y-2100D01*
X-28900Y-2200D01*
X-29200D01*
X-28001D02*
Y-1600D01*
X-27701D01*
X-27601Y-1700D01*
Y-1900D01*
X-27701Y-2000D01*
X-28001D01*
X-27301Y-1800D02*
X-27101D01*
X-27001Y-1900D01*
Y-2200D01*
X-27301D01*
X-27401Y-2100D01*
X-27301Y-2000D01*
X-27001D01*
X-26801Y-2200D02*
X-26501D01*
X-26401Y-2100D01*
X-26501Y-2000D01*
X-26701D01*
X-26801Y-1900D01*
X-26701Y-1800D01*
X-26401D01*
X-26101Y-1700D02*
Y-1800D01*
X-26201D01*
X-26001D01*
X-26101D01*
Y-2100D01*
X-26001Y-2200D01*
X-25402D02*
X-25602D01*
X-25702Y-2100D01*
Y-1900D01*
X-25602Y-1800D01*
X-25402D01*
X-25302Y-1900D01*
Y-2000D01*
X-25702D01*
X-24302Y-2200D02*
X-24502Y-2000D01*
Y-1800D01*
X-24302Y-1600D01*
X-24002Y-2200D02*
Y-1600D01*
X-23702D01*
X-23602Y-1700D01*
Y-1900D01*
X-23702Y-2000D01*
X-24002D01*
X-23302Y-1800D02*
X-23102D01*
X-23002Y-1900D01*
Y-2200D01*
X-23302D01*
X-23402Y-2100D01*
X-23302Y-2000D01*
X-23002D01*
X-22802Y-2200D02*
X-22503D01*
X-22403Y-2100D01*
X-22503Y-2000D01*
X-22702D01*
X-22802Y-1900D01*
X-22702Y-1800D01*
X-22403D01*
X-22103Y-1700D02*
Y-1800D01*
X-22203D01*
X-22003D01*
X-22103D01*
Y-2100D01*
X-22003Y-2200D01*
X-21403D02*
X-21603D01*
X-21703Y-2100D01*
Y-1900D01*
X-21603Y-1800D01*
X-21403D01*
X-21303Y-1900D01*
Y-2000D01*
X-21703D01*
X-21103Y-2200D02*
X-20903Y-2000D01*
Y-1800D01*
X-21103Y-1600D01*
D81*
X22972Y10098D02*
D03*
X22382Y10098D02*
D03*
X22972Y9508D02*
D03*
X22382Y9508D02*
D03*
D82*
X3600Y3650D02*
D03*
X3600Y3150D02*
D03*
X3100Y3650D02*
D03*
X3100Y3150D02*
D03*
D83*
X23217Y4854D02*
D03*
X23217Y5304D02*
D03*
X22767Y5304D02*
D03*
X22767Y4854D02*
D03*
D84*
X18563Y4429D02*
D03*
Y4665D02*
D03*
Y4902D02*
D03*
X2106Y8917D02*
D03*
Y9154D02*
D03*
Y9390D02*
D03*
%TF.MD5,b0dd780ed0e1c634922fd0252360883b*%
M02*
