G04 Layer_Physical_Order=1*
G04 Layer_Color=255*
%FSLAX24Y24*%
%MOIN*%
%TF.FileFunction,Copper,L1,Top,Signal*%
%TF.Part,Single*%
G01*
G75*
%TA.AperFunction,SMDPad,CuDef*%
%ADD10R,0.0209X0.0069*%
%TA.AperFunction,SMDPad,SMDef*%
%ADD11R,0.0646X0.0173*%
%TA.AperFunction,SMDPad,CuDef*%
%ADD12O,0.0236X0.0098*%
%ADD13R,0.0236X0.0098*%
%ADD14R,0.1181X0.1181*%
%ADD15R,0.0177X0.0413*%
%ADD16R,0.0354X0.0256*%
%ADD17R,0.0295X0.0295*%
%ADD18R,0.0197X0.0205*%
%ADD19R,0.0177X0.1004*%
%TA.AperFunction,BGAPad,CuDef*%
%ADD20C,0.0157*%
%TA.AperFunction,SMDPad,CuDef*%
%ADD21R,0.0315X0.0315*%
%ADD22R,0.0217X0.0217*%
%ADD23R,0.0248X0.0799*%
%ADD24O,0.0098X0.0354*%
%ADD25O,0.0354X0.0098*%
%ADD26R,0.0984X0.0984*%
%ADD27O,0.0118X0.0335*%
%ADD28O,0.0335X0.0118*%
%ADD29R,0.0827X0.0827*%
%TA.AperFunction,BGAPad,CuDef*%
%ADD30C,0.0177*%
%TA.AperFunction,SMDPad,CuDef*%
%ADD31R,0.0531X0.1024*%
%ADD32R,0.0394X0.0571*%
%ADD33R,0.1024X0.0531*%
%ADD34R,0.0138X0.0138*%
%ADD35R,0.0138X0.0138*%
%ADD36R,0.0205X0.0197*%
%ADD37R,0.0906X0.0335*%
%ADD38R,0.0217X0.0217*%
%ADD39R,0.0315X0.0315*%
%ADD40R,0.0571X0.0394*%
%TA.AperFunction,Conductor*%
%ADD41C,0.0200*%
%ADD42C,0.0100*%
%ADD43C,0.0065*%
%ADD44C,0.0060*%
%ADD45C,0.0070*%
%ADD46C,0.0175*%
%ADD47C,0.0080*%
%ADD48C,0.0150*%
%ADD49C,0.0120*%
%ADD50C,0.0095*%
%ADD51C,0.0250*%
%ADD52C,0.0180*%
%TA.AperFunction,NonConductor*%
%ADD53C,0.0100*%
%TA.AperFunction,Conductor*%
%ADD54R,0.0630X0.0433*%
%ADD55R,0.0551X0.0827*%
%ADD56R,0.0551X0.0472*%
%TA.AperFunction,ViaPad*%
%ADD57C,0.0180*%
%ADD58C,0.0170*%
%ADD59C,0.0160*%
%TA.AperFunction,TestPad*%
%ADD60C,0.0160*%
G36*
X11732Y6732D02*
Y6732D01*
X11575Y6575D01*
X11417Y6732D01*
Y6732D01*
X11575Y6890D01*
X11732Y6732D01*
D02*
G37*
G36*
X28353Y7655D02*
X28361Y7621D01*
X28394Y7571D01*
X28443Y7538D01*
X28502Y7526D01*
X28555Y7469D01*
X28596Y7406D01*
X28587Y7362D01*
X28599Y7304D01*
X28632Y7254D01*
X28682Y7221D01*
X28741Y7207D01*
X28754Y7148D01*
X28788Y7099D01*
X28837Y7065D01*
X28896Y7054D01*
X28954Y7065D01*
X29004Y7099D01*
X29037Y7148D01*
X29049Y7207D01*
X29048Y7211D01*
X29168Y7332D01*
X29191Y7365D01*
X29199Y7405D01*
Y7629D01*
X29307Y7670D01*
X29339Y7676D01*
X29386Y7645D01*
X29449Y7632D01*
X29511Y7645D01*
X29564Y7680D01*
X29578Y7701D01*
X29718Y7667D01*
Y7386D01*
X29209Y6876D01*
X28589D01*
X28543Y6885D01*
X28485Y6874D01*
X28435Y6840D01*
X28402Y6791D01*
X28346Y6728D01*
X28288Y6716D01*
X28238Y6683D01*
X28101Y6729D01*
Y7664D01*
X28224Y7720D01*
X28353Y7655D01*
D02*
G37*
G36*
X23858Y6417D02*
X23898Y6378D01*
X24370D01*
X24409Y6339D01*
X24409Y5984D01*
X23898D01*
X23583Y5669D01*
X23543Y5630D01*
X23346Y5630D01*
X23307Y5669D01*
Y5945D01*
X23504Y6142D01*
Y6496D01*
X23858D01*
Y6417D01*
D02*
G37*
G36*
X18898Y5314D02*
X18905Y5308D01*
Y4965D01*
X18904Y4961D01*
X18904Y4959D01*
X18904Y4953D01*
X18834Y4848D01*
X18806Y4823D01*
X18240D01*
X18213Y4818D01*
X18206Y4813D01*
X18004D01*
X17999Y4840D01*
X17984Y4863D01*
X17960Y4879D01*
X17933Y4884D01*
X17028D01*
X16941Y4954D01*
X16913Y4989D01*
Y5079D01*
X16927Y5110D01*
X16953Y5147D01*
X16959Y5154D01*
X17022Y5196D01*
X17028Y5194D01*
X17933D01*
X17960Y5200D01*
X17967Y5204D01*
X17992D01*
X18019Y5210D01*
X18043Y5225D01*
X18140Y5322D01*
X18307D01*
X18346Y5314D01*
X18386Y5322D01*
X18858D01*
X18898Y5314D01*
D02*
G37*
G36*
X32283Y8703D02*
X32243Y8664D01*
X32085Y8640D01*
X31935Y8584D01*
X31799Y8500D01*
X31683Y8389D01*
X31591Y8258D01*
X31528Y8111D01*
X31496Y7954D01*
X31496Y7874D01*
X31496Y7794D01*
X31528Y7637D01*
X31591Y7490D01*
X31683Y7359D01*
X31799Y7248D01*
X31935Y7164D01*
X32085Y7108D01*
X32243Y7084D01*
X32283Y7045D01*
Y4331D01*
X31851D01*
X31775Y4316D01*
X31703Y4286D01*
X31639Y4243D01*
X31584Y4188D01*
X31541Y4123D01*
X31511Y4052D01*
X31496Y3976D01*
Y3898D01*
X31511Y3822D01*
X31541Y3751D01*
X31584Y3686D01*
X31639Y3631D01*
X31703Y3588D01*
X31775Y3558D01*
X31851Y3543D01*
X32283D01*
Y1024D01*
X30947D01*
Y1053D01*
X30942Y1080D01*
X30926Y1104D01*
X30903Y1119D01*
X30892Y1121D01*
Y2738D01*
X30917Y2743D01*
X30940Y2759D01*
X30956Y2782D01*
X30961Y2809D01*
Y2933D01*
X31098Y3070D01*
X31120Y3104D01*
X31128Y3144D01*
Y5390D01*
X31295Y5557D01*
X31299Y5556D01*
X31358Y5567D01*
X31407Y5601D01*
X31441Y5650D01*
X31452Y5709D01*
X31441Y5767D01*
X31407Y5817D01*
X31358Y5850D01*
X31299Y5862D01*
X31241Y5850D01*
X31191Y5817D01*
X31158Y5767D01*
X31146Y5709D01*
X31147Y5704D01*
X30950Y5507D01*
X30927Y5473D01*
X30919Y5433D01*
Y3733D01*
X30910Y3718D01*
X30787Y3628D01*
X30665Y3718D01*
X30656Y3733D01*
Y5273D01*
X30685Y5364D01*
X30692Y5375D01*
X30703Y5419D01*
X30713Y5447D01*
X30713Y5448D01*
X30736Y5495D01*
X30772Y5562D01*
X30817Y5601D01*
X30850Y5650D01*
X30850Y5650D01*
X30854Y5669D01*
X30862Y5709D01*
X30850Y5767D01*
X30827Y5802D01*
X30817Y5822D01*
Y5950D01*
X30827Y5970D01*
X30850Y6004D01*
X30862Y6063D01*
X30850Y6122D01*
X30817Y6171D01*
X30767Y6204D01*
X30709Y6216D01*
X30650Y6204D01*
X30601Y6171D01*
X30567Y6122D01*
X30556Y6063D01*
X30567Y6004D01*
X30590Y5970D01*
X30601Y5950D01*
Y5822D01*
X30590Y5802D01*
X30567Y5767D01*
X30558Y5719D01*
X30556Y5709D01*
X30537Y5646D01*
X30501Y5588D01*
X30472Y5560D01*
X30443Y5541D01*
X30410Y5492D01*
X30398Y5433D01*
X30406Y5393D01*
X30379Y5341D01*
X30313Y5268D01*
X30093D01*
X30065Y5263D01*
X30042Y5247D01*
X29997D01*
X29974Y5263D01*
X29947Y5268D01*
X29745D01*
X29699Y5268D01*
X29626Y5268D01*
X29553Y5268D01*
X29507Y5268D01*
X29352D01*
X29305Y5268D01*
X29232Y5268D01*
X29159Y5268D01*
X29113Y5268D01*
X28911D01*
X28884Y5263D01*
X28861Y5247D01*
X28816D01*
X28793Y5263D01*
X28766Y5268D01*
X28564D01*
X28518Y5268D01*
X28445Y5268D01*
X28372Y5268D01*
X28371D01*
X28357Y5408D01*
X28366Y5410D01*
X28415Y5443D01*
X28448Y5493D01*
X28460Y5551D01*
X28592Y5608D01*
X28629Y5611D01*
X28636Y5604D01*
X28684Y5572D01*
X28740Y5561D01*
X28951D01*
X28976Y5556D01*
X29035Y5567D01*
X29085Y5601D01*
X29118Y5650D01*
X29129Y5709D01*
X29118Y5767D01*
X29085Y5817D01*
X29035Y5850D01*
X29021Y5853D01*
X29005Y5956D01*
X29010Y5998D01*
X29052Y6026D01*
X29088Y6079D01*
X29100Y6142D01*
X29088Y6204D01*
X29052Y6257D01*
X28999Y6292D01*
X28937Y6305D01*
X28875Y6292D01*
X28822Y6257D01*
X28786Y6204D01*
X28774Y6142D01*
X28786Y6079D01*
X28806Y6050D01*
X28697Y5961D01*
X28388Y6270D01*
X28391Y6298D01*
X28425Y6431D01*
X28669D01*
X28709Y6439D01*
X28743Y6462D01*
X28744Y6463D01*
X29284D01*
X29324Y6471D01*
X29358Y6493D01*
X30290Y7426D01*
X30313Y7460D01*
X30321Y7500D01*
Y8826D01*
X30341D01*
X30368Y8832D01*
X30391Y8847D01*
X30406Y8870D01*
X30412Y8898D01*
Y9697D01*
X30406Y9724D01*
X30391Y9747D01*
X30368Y9763D01*
X30341Y9768D01*
X30093D01*
X30065Y9763D01*
X30042Y9747D01*
X29997D01*
X29974Y9763D01*
X29947Y9768D01*
X29733D01*
X29682Y9785D01*
X29616Y9852D01*
X29599Y9880D01*
Y9951D01*
X29594Y9978D01*
X29578Y10001D01*
X29555Y10017D01*
X29528Y10022D01*
X29390D01*
X29362Y10017D01*
X29339Y10001D01*
X29324Y9978D01*
X29318Y9951D01*
Y9830D01*
X29273Y9796D01*
X29200Y9768D01*
X29159Y9768D01*
X29113Y9768D01*
X28911D01*
X28884Y9763D01*
X28861Y9747D01*
X28816D01*
X28793Y9763D01*
X28766Y9768D01*
X28552D01*
X28501Y9785D01*
X28435Y9852D01*
X28418Y9880D01*
Y9951D01*
X28412Y9978D01*
X28397Y10001D01*
X28374Y10017D01*
X28346Y10022D01*
X28209D01*
X28181Y10017D01*
X28158Y10001D01*
X28143Y9978D01*
X28137Y9951D01*
Y9830D01*
X28092Y9796D01*
X28019Y9768D01*
X27978Y9768D01*
X27932Y9768D01*
X27730D01*
X27703Y9763D01*
X27680Y9747D01*
X27635D01*
X27612Y9763D01*
X27585Y9768D01*
X27337D01*
X27309Y9763D01*
X27223Y9796D01*
X27178Y9830D01*
Y9951D01*
X27172Y9978D01*
X27157Y10001D01*
X27134Y10017D01*
X27106Y10022D01*
X26969Y10022D01*
X26963Y10021D01*
X26939Y10016D01*
X26851Y10001D01*
X26807Y10008D01*
X26716Y10033D01*
X26654Y10045D01*
X26591Y10033D01*
X26538Y9997D01*
X26534Y9992D01*
X26530Y9990D01*
X26383D01*
X26379Y9992D01*
X26375Y9997D01*
X26322Y10033D01*
X26260Y10045D01*
X26197Y10033D01*
X26178Y10020D01*
X26168Y10016D01*
X26085Y10007D01*
X26021Y10016D01*
X26009Y10017D01*
X25984Y10022D01*
X25846D01*
X25819Y10017D01*
X25796Y10001D01*
X25781Y9978D01*
X25775Y9951D01*
Y9813D01*
X25765Y9778D01*
X25735Y9763D01*
X25711Y9747D01*
X25696Y9724D01*
X25690Y9697D01*
Y9652D01*
X25550Y9638D01*
X25544Y9669D01*
X25509Y9722D01*
X25456Y9757D01*
X25394Y9769D01*
X25331Y9757D01*
X25327Y9754D01*
X24970D01*
X24932Y9747D01*
X24902D01*
X24874Y9741D01*
X24843Y9729D01*
X24811Y9741D01*
X24783Y9747D01*
X24646D01*
X24618Y9741D01*
X24607Y9734D01*
X24586Y9748D01*
X24528Y9759D01*
X24520Y9758D01*
X24118Y10160D01*
Y11226D01*
X24124Y11230D01*
X24157Y11280D01*
X24169Y11339D01*
X24157Y11397D01*
X24124Y11447D01*
X24074Y11480D01*
X24016Y11492D01*
X23957Y11480D01*
X23908Y11447D01*
X23874Y11397D01*
X23863Y11339D01*
X23874Y11280D01*
X23908Y11230D01*
X23914Y11226D01*
Y10118D01*
X23922Y10079D01*
X23944Y10046D01*
X24376Y9614D01*
X24375Y9606D01*
X24386Y9548D01*
X24419Y9498D01*
X24469Y9465D01*
X24528Y9453D01*
X24586Y9465D01*
X24607Y9479D01*
X24618Y9471D01*
X24646Y9466D01*
X24706D01*
X24760Y9437D01*
X24815Y9358D01*
X24823Y9331D01*
X24823Y9331D01*
Y9051D01*
X24834Y8995D01*
X24836Y8991D01*
Y8913D01*
X24842Y8886D01*
X24852Y8870D01*
Y8780D01*
X24847Y8777D01*
X24832Y8754D01*
X24826Y8726D01*
Y8655D01*
X24586D01*
X24547Y8705D01*
X24521Y8742D01*
X24504Y8786D01*
X24504Y8789D01*
X24504Y8793D01*
Y8990D01*
X24499Y9017D01*
X24484Y9041D01*
X24460Y9056D01*
X24433Y9062D01*
X24348D01*
X24331Y9065D01*
X24108D01*
X24097Y9121D01*
X24060Y9178D01*
X24003Y9215D01*
X23937Y9228D01*
X23871Y9215D01*
X23814Y9178D01*
X23777Y9121D01*
X23764Y9055D01*
Y8925D01*
X23763Y8923D01*
Y8772D01*
X23675Y8673D01*
X23644Y8653D01*
X23603Y8645D01*
X23553Y8612D01*
X23520Y8562D01*
X23508Y8504D01*
X23520Y8445D01*
X23553Y8396D01*
X23553Y8297D01*
X23548Y8289D01*
X23520Y8248D01*
X23508Y8189D01*
X23520Y8130D01*
X23553Y8081D01*
X23603Y8048D01*
X23644Y8040D01*
X23675Y8020D01*
X23763Y7921D01*
Y7770D01*
X23769Y7742D01*
X23784Y7719D01*
X23807Y7704D01*
X23825Y7677D01*
X23833Y7634D01*
X23858Y7598D01*
X24022Y7434D01*
X24032Y7382D01*
X24065Y7333D01*
X24115Y7300D01*
X24173Y7288D01*
X24236Y7270D01*
X24241Y7242D01*
X24241Y7242D01*
X24257Y7219D01*
X24280Y7204D01*
X24307Y7198D01*
X24392D01*
X24409Y7195D01*
X24764D01*
X24782Y7198D01*
X24866D01*
X24893Y7204D01*
X24917Y7219D01*
X24932Y7242D01*
X24938Y7270D01*
Y7377D01*
X25056Y7433D01*
X25078Y7437D01*
X25109Y7416D01*
X25152Y7408D01*
X25312D01*
X25345Y7385D01*
X25364Y7234D01*
X25331Y7185D01*
X25319Y7126D01*
X25331Y7067D01*
X25364Y7018D01*
X25414Y6985D01*
X25447Y6978D01*
X25438Y6929D01*
X25449Y6871D01*
X25482Y6821D01*
X25532Y6788D01*
X25565Y6781D01*
X25556Y6732D01*
X25567Y6674D01*
X25601Y6624D01*
X25650Y6591D01*
X25684Y6584D01*
X25674Y6535D01*
X25685Y6477D01*
X25719Y6427D01*
X25768Y6394D01*
X25827Y6382D01*
X25885Y6394D01*
X25935Y6427D01*
X25968Y6477D01*
X25980Y6535D01*
X25968Y6594D01*
X25935Y6644D01*
X25885Y6677D01*
X25852Y6683D01*
X25862Y6732D01*
X25850Y6791D01*
X25817Y6840D01*
X25767Y6874D01*
X25734Y6880D01*
X25743Y6929D01*
X25732Y6988D01*
X25699Y7037D01*
X25682Y7048D01*
X25673Y7086D01*
Y7166D01*
X25682Y7204D01*
X25699Y7215D01*
X25732Y7264D01*
X25743Y7323D01*
X25734Y7372D01*
X25767Y7378D01*
X25817Y7412D01*
X25850Y7461D01*
X25862Y7520D01*
X25850Y7578D01*
X25847Y7582D01*
X25907Y7720D01*
X25909Y7722D01*
X26220D01*
X26220Y7722D01*
X26263Y7731D01*
X26300Y7755D01*
X26575Y8031D01*
X26575Y8031D01*
X26600Y8067D01*
X26608Y8110D01*
X26608Y8110D01*
Y8356D01*
X27492D01*
X27497Y8353D01*
X27502Y8352D01*
X27805Y8049D01*
Y6496D01*
X27816Y6439D01*
X27848Y6392D01*
X28161Y6078D01*
X28199Y5935D01*
X28166Y5885D01*
X28154Y5827D01*
X28166Y5768D01*
X28199Y5719D01*
Y5666D01*
X28116Y5554D01*
X28071Y5557D01*
X28008Y5544D01*
X27956Y5509D01*
X27920Y5456D01*
X27908Y5394D01*
X27811Y5274D01*
X27801Y5268D01*
X27730D01*
X27703Y5263D01*
X27680Y5247D01*
X27635D01*
X27612Y5263D01*
X27585Y5268D01*
X27383D01*
X27337Y5268D01*
X27264Y5268D01*
X27191Y5268D01*
X27159Y5268D01*
X27033Y5354D01*
X27021Y5417D01*
X26985Y5470D01*
X26933Y5505D01*
X26870Y5517D01*
X26808Y5505D01*
X26755Y5470D01*
X26719Y5417D01*
X26707Y5354D01*
X26581Y5268D01*
X26549D01*
X26522Y5263D01*
X26499Y5247D01*
X26454D01*
X26431Y5263D01*
X26404Y5268D01*
X26156D01*
X26128Y5263D01*
X26105Y5247D01*
X26060D01*
X26037Y5263D01*
X26010Y5268D01*
X25801D01*
X25708Y5332D01*
X25677Y5369D01*
X25670Y5382D01*
X25663Y5417D01*
X25627Y5470D01*
X25574Y5505D01*
X25512Y5517D01*
X25449Y5505D01*
X25396Y5470D01*
X25361Y5417D01*
X25349Y5354D01*
X25361Y5292D01*
X25396Y5239D01*
X25449Y5204D01*
X25512Y5191D01*
X25551Y5199D01*
X25640Y5152D01*
X25690Y5113D01*
Y4398D01*
X25696Y4370D01*
X25711Y4347D01*
X25642Y4238D01*
X25502Y4216D01*
X25389Y4329D01*
X25389Y4331D01*
X25378Y4389D01*
X25344Y4439D01*
X25295Y4472D01*
X25236Y4484D01*
X25178Y4472D01*
X25128Y4439D01*
X25095Y4389D01*
X25083Y4331D01*
X25095Y4272D01*
X25128Y4223D01*
X25178Y4189D01*
X25236Y4178D01*
X25238Y4178D01*
X25397Y4019D01*
X25431Y3996D01*
X25472Y3988D01*
X25472Y3987D01*
X25595Y3898D01*
X25607Y3839D01*
X25561Y3770D01*
X25528Y3720D01*
X25516Y3661D01*
X25528Y3603D01*
X25561Y3553D01*
X25611Y3520D01*
X25669Y3508D01*
X25671Y3509D01*
X26310Y2869D01*
Y2332D01*
X26212Y2273D01*
X26067Y2313D01*
X26066Y2314D01*
X26043Y2414D01*
X26042Y2455D01*
X26047Y2461D01*
X26058Y2520D01*
X26047Y2578D01*
X26014Y2628D01*
X25964Y2661D01*
X25906Y2673D01*
X25847Y2661D01*
X25797Y2628D01*
X25699D01*
X25649Y2661D01*
X25591Y2673D01*
X25470Y2756D01*
X25456Y2778D01*
Y2913D01*
X25449Y2952D01*
X25426Y2985D01*
X24875Y3537D01*
X24842Y3559D01*
X24803Y3567D01*
X24708D01*
X24701Y3584D01*
X24668Y3707D01*
X24672Y3713D01*
X24678Y3740D01*
Y4528D01*
X24672Y4555D01*
X24657Y4578D01*
X24634Y4593D01*
X24606Y4599D01*
X24410D01*
X24275Y4616D01*
X24274Y4621D01*
Y4685D01*
X24269Y4712D01*
X24253Y4736D01*
X24230Y4751D01*
X24203Y4756D01*
X24065D01*
X24038Y4751D01*
X24014Y4736D01*
X24010Y4738D01*
X23996Y4748D01*
X23990Y4749D01*
X23895Y4799D01*
X23869Y4816D01*
X23819Y4826D01*
X23602D01*
X23552Y4816D01*
X23509Y4788D01*
X23481Y4745D01*
X23474Y4712D01*
X23465Y4689D01*
X23393Y4617D01*
X23249Y4589D01*
X23220Y4617D01*
X23197Y4633D01*
X23169Y4638D01*
X22628D01*
X22620Y4646D01*
X22614Y4650D01*
X22609Y4655D01*
X22603Y4658D01*
X22597Y4662D01*
X22590Y4663D01*
X22583Y4666D01*
X22580Y4667D01*
X22579Y4672D01*
Y5042D01*
X22578Y5048D01*
X22578Y5054D01*
X22575Y5062D01*
X22573Y5070D01*
X22570Y5075D01*
X22568Y5080D01*
X22562Y5086D01*
X22558Y5093D01*
X22553Y5096D01*
X22549Y5100D01*
X22522Y5119D01*
X22521Y5119D01*
X22521Y5120D01*
X22512Y5124D01*
Y5201D01*
X22513Y5207D01*
X22512Y5213D01*
Y5457D01*
X22513Y5463D01*
X22608Y5557D01*
X22614Y5559D01*
X22858D01*
X22864Y5557D01*
X22870Y5559D01*
X23114D01*
X23120Y5557D01*
X23126Y5559D01*
X23189D01*
X23216Y5564D01*
X23239Y5579D01*
X23319Y5564D01*
X23346Y5559D01*
X23356D01*
X23460Y5473D01*
X23471Y5463D01*
X23481Y5412D01*
X23509Y5370D01*
Y5300D01*
X23481Y5257D01*
X23471Y5207D01*
X23481Y5156D01*
X23509Y5114D01*
X23552Y5085D01*
X23602Y5075D01*
X23819D01*
X23869Y5085D01*
X23981Y5093D01*
X24004Y5078D01*
X24032Y5072D01*
X24236D01*
X24264Y5078D01*
X24287Y5093D01*
X24302Y5116D01*
X24308Y5144D01*
Y5341D01*
X24302Y5368D01*
X24287Y5391D01*
X24264Y5406D01*
X24236Y5412D01*
X24083D01*
X24004Y5442D01*
X23940Y5513D01*
X23912Y5556D01*
X23869Y5584D01*
X23819Y5594D01*
X23806D01*
X23749Y5734D01*
X23927Y5913D01*
X24070D01*
X24083Y5905D01*
X24110Y5899D01*
X24315D01*
X24342Y5905D01*
X24355Y5913D01*
X24409D01*
X24437Y5918D01*
X24460Y5934D01*
X24475Y5957D01*
X24481Y5984D01*
X24481Y6339D01*
X24475Y6366D01*
X24460Y6389D01*
X24421Y6428D01*
X24397Y6444D01*
X24370Y6449D01*
X23930D01*
Y6496D01*
X23924Y6523D01*
X23909Y6547D01*
X23886Y6562D01*
X23858Y6567D01*
X23504D01*
X23477Y6562D01*
X23451Y6547D01*
X23400D01*
X23374Y6562D01*
X23346Y6567D01*
X22707D01*
X22591Y6683D01*
Y8071D01*
X22586Y8098D01*
X22571Y8122D01*
X22599Y8177D01*
X22605Y8205D01*
Y8409D01*
X22599Y8437D01*
X22584Y8460D01*
X22566Y8472D01*
Y8475D01*
X22582Y8498D01*
X22587Y8526D01*
Y8880D01*
X22727Y8928D01*
X22767Y8876D01*
Y8526D01*
X22773Y8498D01*
X22788Y8475D01*
X22811Y8460D01*
X22842Y8452D01*
X22895Y8409D01*
Y8205D01*
X22901Y8177D01*
X22916Y8154D01*
X22939Y8139D01*
X22967Y8133D01*
X23163D01*
X23191Y8139D01*
X23214Y8154D01*
X23229Y8177D01*
X23235Y8205D01*
Y8409D01*
X23229Y8437D01*
X23214Y8460D01*
X23191Y8475D01*
X23169Y8480D01*
Y8510D01*
X23162Y8550D01*
X23139Y8584D01*
X23087Y8635D01*
Y8939D01*
X23082Y8966D01*
X23066Y8989D01*
X23055Y8997D01*
X23066Y9055D01*
X23055Y9114D01*
X23022Y9163D01*
X22972Y9196D01*
X22913Y9208D01*
X22855Y9196D01*
X22805Y9163D01*
X22772Y9114D01*
X22771Y9112D01*
X22623D01*
X22622Y9114D01*
X22618Y9119D01*
X22588Y9163D01*
X22539Y9196D01*
X22480Y9208D01*
X22422Y9196D01*
X22372Y9163D01*
X22339Y9114D01*
X22327Y9055D01*
X22336Y9010D01*
X22311Y9005D01*
X22288Y8989D01*
X22273Y8966D01*
X22267Y8939D01*
Y8620D01*
X22250Y8609D01*
X22199Y8587D01*
X22087Y8655D01*
Y8939D01*
X22082Y8966D01*
X22066Y8989D01*
X22043Y9005D01*
X22016Y9010D01*
X21839D01*
X21811Y9005D01*
X21788Y8989D01*
X21773Y8966D01*
X21767Y8939D01*
Y8526D01*
X21709Y8483D01*
X21679Y8475D01*
X21656Y8460D01*
X21641Y8437D01*
X21639Y8429D01*
X20669D01*
X20638Y8423D01*
X20590Y8481D01*
X20558Y8539D01*
X20574Y8564D01*
X20586Y8622D01*
X20574Y8681D01*
X20541Y8730D01*
X20492Y8763D01*
X20433Y8775D01*
X20429Y8774D01*
X19798Y9405D01*
X19764Y9427D01*
X19744Y9431D01*
X19726Y9443D01*
X19715Y9461D01*
X19698Y9507D01*
X19683Y9575D01*
X19692Y9589D01*
X19697Y9616D01*
Y9828D01*
X19709Y9886D01*
X19783Y9977D01*
X19833Y10010D01*
X19866Y10060D01*
X19877Y10118D01*
X19866Y10177D01*
X19833Y10226D01*
X19816Y10237D01*
X19807Y10274D01*
Y10355D01*
X19816Y10393D01*
X19833Y10404D01*
X19843Y10420D01*
X19881Y10429D01*
X19962D01*
X19999Y10420D01*
X20010Y10404D01*
X20060Y10371D01*
X20118Y10359D01*
X20145Y10364D01*
X20145Y10364D01*
X20151Y10337D01*
X20166Y10314D01*
X20189Y10298D01*
X20217Y10293D01*
X20571D01*
X20598Y10298D01*
X20621Y10314D01*
X20637Y10337D01*
X20642Y10364D01*
Y10620D01*
X20637Y10647D01*
X20621Y10671D01*
X20598Y10686D01*
X20571Y10691D01*
X20335D01*
X20261Y10831D01*
X20291Y10874D01*
X20309D01*
X20349Y10882D01*
X20383Y10904D01*
X20431Y10952D01*
X20669D01*
X20697Y10958D01*
X20720Y10973D01*
X20735Y10996D01*
X20741Y11024D01*
Y11339D01*
X20735Y11366D01*
X20720Y11389D01*
X20697Y11405D01*
X20669Y11410D01*
X20354D01*
X20351Y11409D01*
X20313Y11408D01*
X20247Y11422D01*
X20192Y11454D01*
X20169Y11469D01*
X20142Y11475D01*
X20021D01*
X19885Y11611D01*
X19850Y11634D01*
X19796Y11654D01*
Y11811D01*
X32283D01*
Y8703D01*
D02*
G37*
G36*
X16045Y9244D02*
X16306Y8983D01*
X16339Y8961D01*
X16378Y8953D01*
X17517D01*
X17763Y8707D01*
X17772Y8701D01*
X17992D01*
Y8678D01*
X18025D01*
X18110Y8543D01*
X18118Y8503D01*
Y8308D01*
X18110Y8268D01*
X18118Y8228D01*
Y8032D01*
X18110Y7992D01*
X18118Y7952D01*
Y7638D01*
X18123Y7610D01*
X18139Y7587D01*
X18196Y7529D01*
Y7283D01*
X18202Y7256D01*
X18217Y7233D01*
X18240Y7218D01*
X18268Y7212D01*
X19213D01*
X19240Y7218D01*
X19263Y7233D01*
X19439Y7409D01*
X20157D01*
X20185Y7414D01*
X20208Y7430D01*
X20247Y7469D01*
X20263Y7492D01*
X20268Y7520D01*
Y7653D01*
X20408Y7666D01*
X20410Y7658D01*
X20443Y7608D01*
X20493Y7575D01*
X20551Y7564D01*
X20610Y7575D01*
X20627Y7575D01*
X20647Y7566D01*
X20698Y7523D01*
X20732Y7488D01*
Y7297D01*
X20645Y7215D01*
X20619Y7200D01*
X19965D01*
X19924Y7191D01*
X19889Y7168D01*
X19733Y7012D01*
X19518D01*
X19490Y7007D01*
X19467Y6991D01*
X19452Y6968D01*
X19446Y6941D01*
Y6646D01*
X19452Y6618D01*
X19467Y6595D01*
X19490Y6580D01*
X19518Y6574D01*
X19813D01*
X19840Y6580D01*
X19863Y6595D01*
X19975Y6617D01*
X20021Y6617D01*
X20060Y6591D01*
X20118Y6579D01*
X20177Y6591D01*
X20190Y6600D01*
X20215Y6595D01*
X20238Y6580D01*
X20251Y6577D01*
X20352Y6476D01*
X20358Y6472D01*
X20363Y6467D01*
X20370Y6464D01*
X20376Y6460D01*
X20382Y6459D01*
X20388Y6457D01*
X20394D01*
Y6450D01*
Y6267D01*
X20399Y6240D01*
X20415Y6217D01*
X21059Y5572D01*
X21082Y5557D01*
X21110Y5551D01*
X21371D01*
X21377Y5550D01*
X21378Y5544D01*
Y5027D01*
X21377Y5021D01*
X21371Y5020D01*
X21339D01*
X21311Y5014D01*
X21288Y4999D01*
X21273Y4976D01*
X21267Y4948D01*
X21237Y4924D01*
X21220Y4927D01*
X21158Y4915D01*
X21157Y4914D01*
X21008D01*
X21007Y4915D01*
X20945Y4927D01*
X20882Y4915D01*
X20882Y4914D01*
X20733D01*
X20732Y4915D01*
X20669Y4927D01*
X20607Y4915D01*
X20606Y4914D01*
X20457D01*
X20456Y4915D01*
X20394Y4927D01*
X20331Y4915D01*
X20330Y4914D01*
X20315D01*
X20288Y4908D01*
X20264Y4893D01*
X19970Y4599D01*
X19825D01*
Y4606D01*
X19820Y4634D01*
X19804Y4657D01*
X19781Y4672D01*
X19751Y4681D01*
X19681Y4764D01*
X19669Y4822D01*
X19636Y4872D01*
X19586Y4905D01*
X19528Y4917D01*
X19469Y4905D01*
X19462Y4912D01*
X19460Y5107D01*
X19577Y5224D01*
X20089D01*
X20116Y5229D01*
X20139Y5245D01*
X20155Y5268D01*
X20160Y5295D01*
Y5689D01*
X20155Y5716D01*
X20139Y5739D01*
X20116Y5755D01*
X20089Y5760D01*
X19577D01*
X19342Y5995D01*
X19319Y6011D01*
X19291Y6016D01*
X18258D01*
X18063Y6211D01*
Y6417D01*
X18071Y6457D01*
X18063Y6497D01*
Y6555D01*
X18058Y6582D01*
X18043Y6606D01*
X18019Y6621D01*
X17992Y6626D01*
X16968D01*
X16941Y6621D01*
X16918Y6606D01*
X16903Y6582D01*
X16897Y6555D01*
Y6024D01*
Y5335D01*
X16757Y5277D01*
X16441Y5593D01*
Y6535D01*
X16433Y6574D01*
X16411Y6608D01*
X16174Y6844D01*
X16186Y6984D01*
X16196Y6990D01*
X16315Y6989D01*
X16349Y6939D01*
X16398Y6906D01*
X16457Y6894D01*
X16515Y6906D01*
X16565Y6939D01*
X16598Y6989D01*
X16610Y7047D01*
X16598Y7106D01*
X16565Y7155D01*
X16515Y7189D01*
X16457Y7200D01*
X16449Y7199D01*
X16371Y7277D01*
X16338Y7299D01*
X16299Y7307D01*
X16188D01*
X16180Y7316D01*
X16126Y7447D01*
X16134Y7458D01*
X16146Y7520D01*
X16134Y7582D01*
X16196Y7620D01*
X16315Y7619D01*
X16349Y7569D01*
X16398Y7536D01*
X16457Y7524D01*
X16515Y7536D01*
X16565Y7569D01*
X16598Y7619D01*
X16610Y7677D01*
X16598Y7736D01*
X16565Y7785D01*
X16515Y7818D01*
X16457Y7830D01*
X16449Y7829D01*
X16371Y7907D01*
X16338Y7929D01*
X16295Y7992D01*
X16283Y8051D01*
X16273Y8065D01*
X16318Y8183D01*
X16335Y8205D01*
X16581D01*
X16585Y8199D01*
X16634Y8166D01*
X16693Y8154D01*
X16751Y8166D01*
X16801Y8199D01*
X16834Y8249D01*
X16846Y8307D01*
X16834Y8366D01*
X16836Y8469D01*
X16851Y8492D01*
X16857Y8520D01*
Y8724D01*
X16851Y8752D01*
X16836Y8775D01*
X16813Y8790D01*
X16785Y8796D01*
X16589D01*
X16561Y8790D01*
X16538Y8775D01*
X16533Y8767D01*
X16515Y8763D01*
X16457Y8775D01*
X16398Y8763D01*
X16349Y8730D01*
X16344Y8724D01*
X16271D01*
X16146Y8780D01*
X16134Y8841D01*
X16099Y8894D01*
X16046Y8929D01*
X15984Y8941D01*
X15979Y8940D01*
X15968Y8996D01*
X15935Y9045D01*
X15907Y9064D01*
X15894Y9107D01*
X15962Y9217D01*
X16007Y9245D01*
X16045Y9244D01*
D02*
G37*
G36*
X7212Y9825D02*
X7222Y9782D01*
X7211Y9724D01*
X7222Y9666D01*
X7228Y9657D01*
X7255Y9517D01*
X7222Y9467D01*
X7211Y9409D01*
X7222Y9351D01*
X7255Y9302D01*
X7304Y9269D01*
X7362Y9258D01*
X7420Y9269D01*
X7469Y9302D01*
X7493Y9338D01*
X7671D01*
X7715Y9272D01*
X7736Y9198D01*
X7724Y9180D01*
X7715Y9134D01*
Y8833D01*
X7578Y8763D01*
X7575Y8764D01*
X7520Y8775D01*
X7461Y8763D01*
X7412Y8730D01*
X7378Y8681D01*
X7372Y8647D01*
X7336Y8611D01*
X7304Y8605D01*
X7255Y8572D01*
X7154Y8572D01*
X7143Y8579D01*
X7105Y8605D01*
X7048Y8622D01*
X7036Y8683D01*
X7002Y8734D01*
X6950Y8768D01*
X6900Y8879D01*
X6917Y8905D01*
X6955Y8931D01*
X7063Y8878D01*
X7097Y8829D01*
X7146Y8796D01*
X7205Y8784D01*
X7263Y8796D01*
X7313Y8829D01*
X7346Y8878D01*
X7358Y8937D01*
X7346Y8996D01*
X7313Y9045D01*
X7263Y9078D01*
X7225Y9086D01*
X7194Y9117D01*
X7187Y9153D01*
X7154Y9202D01*
X7105Y9235D01*
X7043Y9252D01*
X7031Y9311D01*
X6998Y9360D01*
X6948Y9393D01*
X6910Y9401D01*
X6880Y9432D01*
X6872Y9467D01*
X6840Y9517D01*
Y9617D01*
X6872Y9666D01*
X6890Y9729D01*
X6948Y9741D01*
X6998Y9774D01*
X7031Y9823D01*
X7167Y9857D01*
X7212Y9825D01*
D02*
G37*
G36*
X12992Y7813D02*
X13000Y7773D01*
X13035Y7720D01*
X13088Y7685D01*
X13150Y7673D01*
X13152Y7673D01*
X13156Y7670D01*
X13166Y7619D01*
X13199Y7569D01*
X13227Y7550D01*
X13245Y7487D01*
X13219Y7450D01*
X13307Y7362D01*
X13128D01*
X13088Y7354D01*
X13035Y7319D01*
X13000Y7267D01*
X12992Y7226D01*
Y7184D01*
X13000Y7143D01*
X13006Y7135D01*
X12992Y7121D01*
Y7047D01*
X12919D01*
X12905Y7034D01*
X12897Y7039D01*
X12856Y7047D01*
X12813D01*
X12773Y7039D01*
X12720Y7004D01*
X12634D01*
X12582Y7039D01*
X12541Y7047D01*
X12499D01*
X12458Y7039D01*
X12405Y7004D01*
X12319D01*
X12267Y7039D01*
X12208Y7051D01*
X12202Y7055D01*
X12116Y7177D01*
X12133Y7233D01*
X12159Y7250D01*
X12193Y7302D01*
X12204Y7358D01*
X12205Y7358D01*
X12267Y7370D01*
X12319Y7405D01*
X12354Y7458D01*
X12364Y7506D01*
X12387Y7529D01*
X12421Y7536D01*
X12470Y7569D01*
X12503Y7619D01*
X12515Y7674D01*
X12520Y7673D01*
X12582Y7685D01*
X12634Y7720D01*
X12669Y7773D01*
X12681Y7835D01*
X12681Y7835D01*
X12738Y7846D01*
X12789Y7880D01*
X12806Y7906D01*
X12863Y7923D01*
X12898Y7898D01*
X12992Y7992D01*
Y7813D01*
D02*
G37*
G36*
X21299Y7165D02*
Y7008D01*
X20827D01*
Y7480D01*
X20984D01*
X21299Y7165D01*
D02*
G37*
G36*
X19528Y7874D02*
X20197D01*
Y7520D01*
X20157Y7480D01*
X19409D01*
X19213Y7283D01*
X18268D01*
Y7559D01*
X18189Y7638D01*
Y8661D01*
X18740D01*
X19528Y7874D01*
D02*
G37*
G36*
X22520Y6654D02*
X22677Y6496D01*
X23346D01*
Y6142D01*
X23189Y5984D01*
Y5630D01*
X22559D01*
X22441Y5512D01*
Y5118D01*
X22087D01*
X22047Y5157D01*
Y6339D01*
X21772Y6614D01*
X21614D01*
X21575Y6654D01*
Y7638D01*
X21614Y7677D01*
X22126D01*
X22283Y7835D01*
Y8071D01*
X22520D01*
Y6654D01*
D02*
G37*
G36*
X5630Y1614D02*
X5197D01*
X5197Y2323D01*
X5630D01*
X5630Y1614D01*
D02*
G37*
G36*
X14270Y2721D02*
X13589Y2041D01*
X13567Y2008D01*
X13559Y1969D01*
Y1926D01*
X13512Y1888D01*
X13419Y1839D01*
X13386Y1846D01*
X13327Y1834D01*
X13278Y1801D01*
X13245Y1751D01*
X13233Y1693D01*
X13245Y1634D01*
X13278Y1585D01*
X13284Y1581D01*
Y1391D01*
X13189Y1336D01*
X13094Y1391D01*
Y1909D01*
X13140Y1939D01*
X13173Y1989D01*
X13184Y2047D01*
X13207Y2074D01*
X13252D01*
X13279Y2080D01*
X13302Y2095D01*
X13318Y2118D01*
X13323Y2146D01*
Y2343D01*
X13318Y2370D01*
X13302Y2393D01*
X13279Y2408D01*
X13252Y2414D01*
X13047D01*
X13020Y2408D01*
X12992Y2395D01*
X12964Y2408D01*
X12937Y2414D01*
X12823D01*
X12719Y2461D01*
X12693Y2549D01*
Y2669D01*
X12688Y2697D01*
X12679Y2711D01*
X12688Y2760D01*
X12804Y2851D01*
X13363D01*
X13463Y2711D01*
X13456Y2681D01*
X13435Y2667D01*
X13402Y2618D01*
X13390Y2559D01*
X13402Y2501D01*
X13435Y2451D01*
X13485Y2418D01*
X13543Y2406D01*
X13602Y2418D01*
X13651Y2451D01*
X13685Y2501D01*
X13696Y2559D01*
X13740Y2603D01*
X13799Y2615D01*
X13848Y2648D01*
X13881Y2697D01*
X13893Y2756D01*
X14013Y2851D01*
X14217D01*
X14270Y2721D01*
D02*
G37*
G36*
X2566Y2575D02*
X2601Y2522D01*
X2654Y2487D01*
X2717Y2475D01*
X2734Y2459D01*
X2736Y2454D01*
X2759Y2319D01*
X2743Y2296D01*
X2738Y2269D01*
Y2131D01*
X2719Y2073D01*
X2675Y2019D01*
X2652Y2003D01*
X2637Y1980D01*
X2631Y1953D01*
Y1892D01*
X2622Y1844D01*
Y1654D01*
X2635Y1587D01*
X2515Y1531D01*
X2355Y1691D01*
Y2500D01*
X2489Y2595D01*
X2566Y2575D01*
D02*
G37*
G36*
X16025Y2888D02*
X16029Y2866D01*
X15952Y2789D01*
X15929Y2756D01*
X15922Y2717D01*
Y2288D01*
X15910Y2281D01*
X15895Y2258D01*
X15879Y2224D01*
X15787Y2161D01*
X15729Y2149D01*
X15679Y2116D01*
X15646Y2066D01*
X15634Y2008D01*
X15646Y1949D01*
X15679Y1900D01*
X15729Y1867D01*
X15755Y1861D01*
X15809Y1811D01*
X15851Y1726D01*
Y1125D01*
X15817D01*
X15790Y1119D01*
X15766Y1104D01*
X15751Y1080D01*
X15746Y1053D01*
Y1024D01*
X15593D01*
Y1053D01*
X15588Y1080D01*
X15572Y1104D01*
X15509Y1192D01*
X15496Y1260D01*
Y2250D01*
X15502Y2254D01*
X15535Y2304D01*
X15547Y2362D01*
X15535Y2421D01*
X15502Y2470D01*
X15548Y2608D01*
X15873Y2934D01*
X16025Y2888D01*
D02*
G37*
G36*
X5079Y1220D02*
X4606Y1220D01*
X4606Y1811D01*
X4803Y2008D01*
X5079D01*
X5079Y1220D01*
D02*
G37*
G36*
X20737Y6967D02*
X20753Y6944D01*
X20776Y6928D01*
X20803Y6923D01*
X21008D01*
X21035Y6928D01*
X21048Y6937D01*
X21078D01*
X21091Y6928D01*
X21118Y6923D01*
X21323D01*
X21350Y6928D01*
X21373Y6944D01*
X21384Y6959D01*
X21417Y6968D01*
X21503Y6882D01*
Y6654D01*
X21509Y6626D01*
X21524Y6603D01*
X21564Y6564D01*
X21587Y6548D01*
X21614Y6543D01*
X21742D01*
X21976Y6309D01*
Y5157D01*
X21981Y5130D01*
X21997Y5107D01*
X22036Y5068D01*
X22059Y5052D01*
X22087Y5047D01*
X22441D01*
X22468Y5052D01*
X22481Y5061D01*
X22507Y5042D01*
Y4665D01*
X22513Y4638D01*
X22528Y4615D01*
X22551Y4599D01*
X22570Y4596D01*
X22598Y4567D01*
X23169D01*
X23248Y4488D01*
X23244Y4469D01*
Y4252D01*
X23254Y4202D01*
X23283Y4159D01*
X23326Y4130D01*
X23376Y4120D01*
X23426Y4130D01*
X23469Y4159D01*
X23498Y4202D01*
X23508Y4252D01*
Y4279D01*
X23531Y4298D01*
X23543Y4296D01*
X23602Y4308D01*
X23651Y4341D01*
X23665Y4360D01*
X23967D01*
X24082Y4476D01*
X24203D01*
X24230Y4481D01*
X24253Y4497D01*
X24269Y4520D01*
X24270Y4528D01*
X24606D01*
Y3740D01*
X24433Y3567D01*
X23050D01*
X22992Y3578D01*
X22934Y3566D01*
X22899Y3543D01*
X20787D01*
X20698Y3454D01*
X20669Y3460D01*
X20611Y3448D01*
X20561Y3415D01*
X20528Y3366D01*
X20516Y3307D01*
X20522Y3278D01*
X20512Y3268D01*
Y2688D01*
X20489Y2669D01*
X20472Y2673D01*
X20414Y2661D01*
X20364Y2628D01*
X20331Y2578D01*
X20319Y2520D01*
X20315Y2515D01*
X20256Y2503D01*
X20207Y2470D01*
X20174Y2421D01*
X20173Y2416D01*
X20142D01*
X20141Y2421D01*
X20108Y2470D01*
X20059Y2503D01*
X20000Y2515D01*
X19941Y2503D01*
X19892Y2470D01*
X19859Y2421D01*
X19847Y2362D01*
X19859Y2304D01*
X19892Y2254D01*
X19941Y2221D01*
X20000Y2209D01*
X20059Y2221D01*
X20108Y2254D01*
X20141Y2304D01*
X20142Y2308D01*
X20173D01*
X20174Y2304D01*
X20207Y2254D01*
X20256Y2221D01*
X20315Y2209D01*
X20373Y2221D01*
X20423Y2254D01*
X20448Y2292D01*
X20480Y2285D01*
X20481Y2283D01*
X20477Y2281D01*
X20462Y2258D01*
X20456Y2230D01*
Y2033D01*
X20462Y2006D01*
X20474Y1988D01*
X20477Y1969D01*
X20474Y1949D01*
X20462Y1931D01*
X20456Y1904D01*
Y1707D01*
X20462Y1679D01*
X20477Y1656D01*
X20500Y1641D01*
X20512Y1638D01*
Y1449D01*
X20482Y1433D01*
X20456Y1450D01*
X20394Y1462D01*
X20331Y1450D01*
X20278Y1415D01*
X20243Y1362D01*
X20231Y1299D01*
X20243Y1237D01*
X20278Y1184D01*
X20331Y1148D01*
X20394Y1136D01*
X20456Y1148D01*
X20482Y1166D01*
X20512Y1150D01*
Y1118D01*
X20491Y1104D01*
X20475Y1080D01*
X20472Y1063D01*
X17480Y1063D01*
Y1378D01*
X17362Y1496D01*
X17205D01*
X17087Y1378D01*
Y1063D01*
X16300D01*
X16296Y1080D01*
X16283Y1100D01*
X16422Y1239D01*
X16444Y1272D01*
X16452Y1311D01*
Y1413D01*
X17061Y2022D01*
X17098Y2016D01*
X17109Y1998D01*
X17132Y1976D01*
X17131Y1969D01*
X17142Y1910D01*
X17175Y1860D01*
X17225Y1827D01*
X17283Y1816D01*
X17342Y1827D01*
X17392Y1860D01*
X17425Y1910D01*
X17436Y1969D01*
X17425Y2027D01*
X17392Y2077D01*
X17342Y2110D01*
X17283Y2121D01*
Y2425D01*
X17276Y2464D01*
X17254Y2497D01*
X17126Y2625D01*
X17126Y3425D01*
X17559D01*
X18189Y4055D01*
Y4488D01*
X18213Y4513D01*
X18240Y4507D01*
X18886D01*
X18913Y4513D01*
X18917Y4515D01*
X18940Y4481D01*
X18979Y4455D01*
X19026Y4445D01*
X19163D01*
X19210Y4455D01*
X19225Y4465D01*
X19389D01*
X19419Y4419D01*
X19469Y4386D01*
X19528Y4375D01*
X19586Y4386D01*
X19606Y4399D01*
X19616Y4397D01*
X19754D01*
X19781Y4403D01*
X19804Y4418D01*
X19820Y4441D01*
X19825Y4469D01*
Y4528D01*
X20000D01*
X20315Y4843D01*
X21339D01*
Y4948D01*
X21378D01*
X21405Y4954D01*
X21428Y4969D01*
X21444Y4992D01*
X21449Y5020D01*
Y5551D01*
X21444Y5578D01*
X21428Y5602D01*
X21405Y5617D01*
X21378Y5623D01*
X21110D01*
X20465Y6267D01*
Y6457D01*
X20460Y6484D01*
X20444Y6507D01*
X20421Y6523D01*
X20403Y6526D01*
X20276Y6654D01*
Y6985D01*
X20733D01*
X20737Y6967D01*
D02*
G37*
G36*
X17992Y6181D02*
X18228Y5945D01*
X19291D01*
X19567Y5669D01*
Y5315D01*
X19173Y4921D01*
X19016D01*
X18976Y4961D01*
Y5354D01*
X18937Y5394D01*
X18110D01*
X17992Y5276D01*
X16968D01*
Y6535D01*
X17992D01*
Y6181D01*
D02*
G37*
G36*
X18025Y4414D02*
X18118Y4384D01*
Y4085D01*
X17529Y3497D01*
X17165D01*
X17126Y3497D01*
X17126Y3497D01*
X17099Y3491D01*
X17076Y3476D01*
X17060Y3453D01*
X17055Y3425D01*
X17055Y3425D01*
X17055Y3386D01*
Y3045D01*
X16915Y2971D01*
X16913Y2972D01*
Y4302D01*
X16941Y4337D01*
X17028Y4407D01*
X17399D01*
X17402Y4409D01*
X17946D01*
X17960Y4412D01*
X17978Y4424D01*
X18025Y4414D01*
D02*
G37*
G36*
X9049Y3543D02*
X9062Y3481D01*
X9097Y3428D01*
X9128Y3407D01*
X9138Y3397D01*
X9203Y3279D01*
X9200Y3251D01*
X9197Y3236D01*
Y3149D01*
X9183Y3140D01*
X9150Y3090D01*
X9138Y3031D01*
X9150Y2973D01*
X9183Y2923D01*
X9233Y2890D01*
X9291Y2879D01*
X9329Y2838D01*
X9349Y2777D01*
X9280Y2651D01*
X9280Y2651D01*
X9257Y2635D01*
X9236Y2631D01*
X9173Y2643D01*
X9111Y2631D01*
X9058Y2596D01*
X9023Y2543D01*
X9010Y2480D01*
X9023Y2418D01*
X9034Y2400D01*
X9038Y2394D01*
X8992Y2322D01*
X8992Y2322D01*
X8961Y2274D01*
X8937Y2279D01*
X8878Y2267D01*
X8829Y2234D01*
X8796Y2185D01*
X8784Y2126D01*
X8796Y2067D01*
X8829Y2018D01*
X8878Y1985D01*
X8937Y1973D01*
X8996Y1985D01*
X9045Y2018D01*
X9078Y2067D01*
X9090Y2126D01*
X9218Y2200D01*
X9230Y2199D01*
X9236Y2187D01*
Y2061D01*
X9241Y2034D01*
X9257Y2011D01*
X9280Y1995D01*
X9307Y1990D01*
X9390D01*
X9394Y1969D01*
X9416Y1936D01*
X9494Y1858D01*
X9493Y1850D01*
X9494Y1843D01*
X9377Y1726D01*
X9355Y1693D01*
X9347Y1654D01*
Y1496D01*
X9348Y1492D01*
X9256Y1410D01*
X9234Y1400D01*
X9232Y1401D01*
X9173Y1413D01*
X9115Y1401D01*
X9065Y1368D01*
X9032Y1318D01*
X8885Y1296D01*
X8842Y1318D01*
X8809Y1368D01*
X8809Y1467D01*
X8815Y1475D01*
X8842Y1516D01*
X8854Y1575D01*
X8842Y1633D01*
X8809Y1683D01*
X8759Y1716D01*
X8724Y1723D01*
X8691Y1742D01*
X8618Y1850D01*
X8606Y1909D01*
X8582Y1988D01*
X8606Y2067D01*
X8618Y2126D01*
X8606Y2185D01*
X8573Y2234D01*
X8523Y2267D01*
X8465Y2279D01*
X8406Y2267D01*
X8385Y2253D01*
X8345Y2254D01*
X8278Y2274D01*
X8231Y2298D01*
X8224Y2308D01*
X8201Y2324D01*
X8173Y2329D01*
X7969D01*
X7941Y2324D01*
X7918Y2308D01*
X7909D01*
X7886Y2324D01*
X7858Y2329D01*
X7744D01*
X7640Y2376D01*
X7615Y2464D01*
Y2585D01*
X7610Y2609D01*
X7733Y2658D01*
X7766Y2608D01*
X7815Y2575D01*
X7874Y2564D01*
X7933Y2575D01*
X7982Y2608D01*
X8015Y2658D01*
X8027Y2717D01*
X8019Y2756D01*
X8071Y2836D01*
X8110Y2879D01*
X8169Y2890D01*
X8218Y2923D01*
X8252Y2973D01*
X8263Y3031D01*
X8252Y3090D01*
X8218Y3140D01*
X8169Y3173D01*
X8129Y3181D01*
X8092Y3243D01*
X8070Y3319D01*
X8389Y3638D01*
X8928D01*
X9049Y3543D01*
D02*
G37*
G36*
X11239Y3036D02*
X11030Y2828D01*
X11008Y2795D01*
X11000Y2756D01*
Y2387D01*
X10992Y2368D01*
X10953Y2336D01*
X10822Y2308D01*
X10799Y2324D01*
X10772Y2329D01*
X10567D01*
X10540Y2324D01*
X10512Y2311D01*
X10484Y2324D01*
X10457Y2329D01*
X10342D01*
X10238Y2376D01*
X10213Y2464D01*
Y2585D01*
X10208Y2609D01*
X10331Y2658D01*
X10364Y2608D01*
X10414Y2575D01*
X10472Y2564D01*
X10531Y2575D01*
X10581Y2608D01*
X10614Y2658D01*
X10625Y2717D01*
X10617Y2756D01*
X10670Y2836D01*
X10709Y2879D01*
X10767Y2890D01*
X10817Y2923D01*
X10850Y2973D01*
X10862Y3031D01*
X10860Y3039D01*
X10987Y3166D01*
X11185D01*
X11239Y3036D01*
D02*
G37*
G36*
X12015Y11772D02*
Y11565D01*
X11923Y11473D01*
X11791D01*
X11764Y11468D01*
X11741Y11452D01*
X11725Y11429D01*
X11720Y11402D01*
Y11235D01*
X11708Y11173D01*
X11667Y11092D01*
X11642Y11074D01*
X11564Y10995D01*
X11548Y10972D01*
X11543Y10945D01*
X11543Y10851D01*
X11403Y10838D01*
X11401Y10846D01*
X11368Y10896D01*
X11318Y10929D01*
X11260Y10940D01*
X11201Y10929D01*
X11152Y10896D01*
X11119Y10846D01*
X11107Y10787D01*
X11119Y10729D01*
X11152Y10679D01*
X11180Y10660D01*
X11201Y10641D01*
X11199Y10504D01*
X11198Y10504D01*
X11146Y10469D01*
X11059D01*
X11007Y10504D01*
X10955Y10514D01*
X10936Y10532D01*
X10929Y10570D01*
X10896Y10620D01*
X10846Y10653D01*
X10787Y10665D01*
X10729Y10653D01*
X10679Y10620D01*
X10646Y10570D01*
X10635Y10515D01*
X10630Y10516D01*
X10568Y10504D01*
X10516Y10469D01*
X10429D01*
X10377Y10504D01*
X10325Y10514D01*
X10306Y10532D01*
X10299Y10570D01*
X10266Y10620D01*
X10216Y10653D01*
X10157Y10665D01*
X10099Y10653D01*
X10049Y10620D01*
X10016Y10570D01*
X10005Y10515D01*
X10000Y10516D01*
X9938Y10504D01*
X9886Y10469D01*
X9851Y10416D01*
X9840Y10364D01*
X9822Y10346D01*
X9784Y10338D01*
X9734Y10305D01*
X9701Y10255D01*
X9690Y10197D01*
X9701Y10138D01*
X9734Y10089D01*
X9734Y9990D01*
X9729Y9981D01*
X9701Y9940D01*
X9690Y9882D01*
X9701Y9823D01*
X9734Y9774D01*
Y9675D01*
X9701Y9625D01*
X9690Y9567D01*
X9701Y9508D01*
X9734Y9459D01*
Y9360D01*
X9701Y9311D01*
X9690Y9252D01*
X9701Y9193D01*
X9653Y9126D01*
X9586Y9078D01*
X9528Y9090D01*
X9469Y9078D01*
X9419Y9045D01*
X9386Y8996D01*
X9375Y8937D01*
X9386Y8878D01*
X9419Y8829D01*
X9469Y8796D01*
X9528Y8784D01*
X9586Y8796D01*
X9636Y8829D01*
X9734D01*
X9784Y8796D01*
X9822Y8788D01*
X9840Y8770D01*
X9851Y8718D01*
X9886Y8665D01*
Y8579D01*
X9851Y8526D01*
X9838Y8465D01*
X9839Y8459D01*
X9784Y8448D01*
X9734Y8415D01*
X9701Y8366D01*
X9690Y8307D01*
X9701Y8249D01*
X9734Y8199D01*
Y8100D01*
X9701Y8051D01*
X9690Y7992D01*
X9701Y7934D01*
X9734Y7884D01*
X9784Y7851D01*
X9822Y7843D01*
X9840Y7825D01*
X9851Y7773D01*
X9886Y7720D01*
Y7634D01*
X9851Y7582D01*
X9840Y7529D01*
X9822Y7511D01*
X9784Y7503D01*
X9734Y7470D01*
X9701Y7421D01*
X9690Y7362D01*
X9701Y7304D01*
X9734Y7254D01*
Y7155D01*
X9701Y7106D01*
X9690Y7047D01*
X9701Y6989D01*
X9734Y6939D01*
X9784Y6906D01*
X9843Y6894D01*
X9901Y6906D01*
X9968Y6858D01*
X9981Y6840D01*
X9938Y6724D01*
X9886Y6689D01*
X9731Y6698D01*
X9676Y6753D01*
X9669Y6791D01*
X9636Y6840D01*
X9586Y6874D01*
X9528Y6885D01*
X9469Y6874D01*
X9419Y6840D01*
X9386Y6791D01*
X9375Y6732D01*
X9386Y6674D01*
X9419Y6624D01*
X9469Y6591D01*
X9507Y6583D01*
X9718Y6372D01*
X9757Y6346D01*
X9838Y6260D01*
X9851Y6198D01*
X9886Y6146D01*
Y6059D01*
X9851Y6007D01*
X9838Y5945D01*
X9851Y5883D01*
X9886Y5831D01*
Y5744D01*
X9851Y5692D01*
X9845Y5664D01*
X9838Y5658D01*
X9747Y5613D01*
X9701Y5604D01*
X9682Y5617D01*
X9606Y5632D01*
X8709D01*
X8681Y5659D01*
X8614Y5772D01*
X8618Y5787D01*
X8606Y5846D01*
X8584Y5878D01*
Y6416D01*
X8740D01*
X8786Y6425D01*
X8825Y6451D01*
X8864Y6490D01*
X8890Y6529D01*
X8899Y6575D01*
X8899Y6575D01*
Y6693D01*
X8899Y6693D01*
X8890Y6739D01*
X8864Y6778D01*
X8825Y6817D01*
X8786Y6843D01*
X8740Y6852D01*
X8670D01*
X8636Y6892D01*
X8581Y6992D01*
X8584Y7008D01*
X8584Y7008D01*
Y7586D01*
X8606Y7619D01*
X8618Y7677D01*
X8606Y7736D01*
X8573Y7785D01*
X8523Y7818D01*
X8465Y7830D01*
X8409Y7819D01*
X8406Y7819D01*
X8269Y7888D01*
Y9134D01*
X8260Y9180D01*
X8234Y9219D01*
X8156Y9297D01*
X8138Y9430D01*
X8144Y9461D01*
X8554Y9871D01*
X8570Y9894D01*
X8575Y9921D01*
X8575Y11496D01*
X8570Y11523D01*
X8554Y11547D01*
X8531Y11562D01*
X8504Y11567D01*
X3149D01*
X3110Y11567D01*
X3110Y11567D01*
X3083Y11562D01*
X3060Y11547D01*
X3044Y11523D01*
X3039Y11496D01*
X3039Y11496D01*
X3039Y11457D01*
X3039Y10345D01*
X2875Y10180D01*
X2867Y10173D01*
X2860Y10167D01*
X2791Y10131D01*
X2760Y10122D01*
X2743Y10105D01*
X2717Y10111D01*
X2690D01*
X2683Y10109D01*
D01*
D01*
X2676Y10109D01*
X2673Y10108D01*
X2654Y10104D01*
X2464D01*
X2445Y10108D01*
X2442Y10109D01*
X2435Y10109D01*
X2433Y10110D01*
X2432Y10110D01*
D01*
X2237Y10305D01*
Y10551D01*
X2231Y10578D01*
X2216Y10602D01*
X2193Y10617D01*
X2165Y10623D01*
X394D01*
X366Y10617D01*
X343Y10602D01*
X328Y10578D01*
X322Y10551D01*
X322Y9330D01*
X322Y9291D01*
X322Y9291D01*
X328Y9264D01*
X343Y9241D01*
X366Y9225D01*
X394Y9220D01*
X394Y9220D01*
X433Y9220D01*
X883D01*
Y9173D01*
X889Y9146D01*
X904Y9123D01*
X927Y9107D01*
X955Y9102D01*
X966D01*
X1005Y9019D01*
X1019Y8962D01*
X991Y8921D01*
X979Y8858D01*
X991Y8796D01*
X1026Y8743D01*
X1079Y8708D01*
X1142Y8695D01*
X1204Y8708D01*
X1257Y8743D01*
X1259Y8746D01*
X1459D01*
X1459Y8746D01*
X1506Y8737D01*
X1644D01*
X1690Y8746D01*
X1690Y8746D01*
X1730Y8772D01*
X1753Y8808D01*
X1756Y8812D01*
X1756Y8812D01*
X1756Y8812D01*
X1765Y8858D01*
X1765Y8858D01*
X1765Y8860D01*
X1766Y8866D01*
X1811Y8935D01*
Y8976D01*
X1841D01*
X1864Y8996D01*
X2080D01*
X2106Y8990D01*
X2865D01*
X2867Y8979D01*
X2883Y8955D01*
X2906Y8940D01*
X2933Y8935D01*
X3839D01*
X3866Y8940D01*
X3889Y8955D01*
X3905Y8979D01*
X3910Y9006D01*
Y9341D01*
X3905Y9368D01*
X3889Y9391D01*
X3866Y9406D01*
X3839Y9412D01*
X2933D01*
X2906Y9406D01*
X2883Y9391D01*
X2875Y9380D01*
X2820Y9371D01*
X2813Y9376D01*
X2764Y9513D01*
X2806Y9556D01*
X2822Y9579D01*
X2822Y9579D01*
X2828Y9591D01*
X2856Y9624D01*
X2967Y9692D01*
X3789Y9692D01*
X4516Y8965D01*
X4540Y8950D01*
X4567Y8944D01*
X4714D01*
X4847Y8937D01*
X4859Y8878D01*
X4888Y8734D01*
X4883Y8726D01*
X4854Y8683D01*
X4842Y8622D01*
X4784Y8605D01*
X4735Y8572D01*
X4702Y8523D01*
X4691Y8465D01*
X4702Y8407D01*
X4735Y8357D01*
Y8257D01*
X4702Y8208D01*
X4691Y8150D01*
X4702Y8092D01*
X4735Y8042D01*
X4735Y7942D01*
X4730Y7934D01*
X4702Y7893D01*
X4691Y7835D01*
X4702Y7777D01*
X4735Y7727D01*
Y7627D01*
X4702Y7578D01*
X4691Y7520D01*
X4702Y7462D01*
X4735Y7412D01*
X4784Y7380D01*
X4843Y7368D01*
X4901Y7380D01*
X4970Y7332D01*
X5017Y7263D01*
X5006Y7205D01*
X5017Y7147D01*
X4970Y7077D01*
X4901Y7030D01*
X4843Y7041D01*
X4784Y7030D01*
X4735Y6997D01*
X4702Y6948D01*
X4600Y6902D01*
X4472Y6948D01*
X4439Y6998D01*
Y7097D01*
X4472Y7146D01*
X4484Y7205D01*
X4472Y7263D01*
X4439Y7313D01*
Y7412D01*
X4472Y7461D01*
X4484Y7520D01*
X4472Y7578D01*
X4439Y7628D01*
X4389Y7661D01*
X4331Y7673D01*
X4272Y7661D01*
X4223Y7628D01*
X4189Y7578D01*
X4178Y7520D01*
X4189Y7461D01*
X4223Y7412D01*
Y7313D01*
X4189Y7263D01*
X4178Y7205D01*
X4189Y7146D01*
X4223Y7097D01*
Y6998D01*
X4189Y6948D01*
X4178Y6890D01*
X4189Y6831D01*
X4223Y6782D01*
Y6683D01*
X4189Y6633D01*
X4178Y6575D01*
X4189Y6516D01*
X4223Y6467D01*
Y6368D01*
X4189Y6318D01*
X4178Y6260D01*
X4189Y6201D01*
X4223Y6152D01*
Y6053D01*
X4189Y6003D01*
X4178Y5945D01*
X4189Y5886D01*
X4223Y5837D01*
X4272Y5804D01*
X4331Y5792D01*
X4389Y5804D01*
X4439Y5837D01*
X4472Y5886D01*
X4475Y5901D01*
X4481Y5907D01*
X4595Y5958D01*
X4619Y5960D01*
X4625Y5956D01*
X4685Y5944D01*
X4746Y5956D01*
X4768Y5972D01*
X4869Y5871D01*
X4854Y5848D01*
X4842Y5787D01*
X4845Y5772D01*
X4777Y5657D01*
X4749Y5632D01*
X3547D01*
X3191Y5988D01*
Y6142D01*
X3176Y6218D01*
X3133Y6282D01*
X3068Y6325D01*
X2992Y6341D01*
X2916Y6325D01*
X2888Y6307D01*
X2753Y6257D01*
X2700Y6292D01*
X2638Y6305D01*
X2575Y6292D01*
X2522Y6257D01*
X2487Y6204D01*
X2475Y6142D01*
X2487Y6079D01*
X2522Y6026D01*
X2575Y5991D01*
X2638Y5979D01*
X2653Y5982D01*
X2766Y5920D01*
X2797Y5887D01*
X2808Y5829D01*
X2852Y5765D01*
X3324Y5292D01*
X3388Y5249D01*
X3422Y5243D01*
X3548Y5157D01*
X3559Y5099D01*
X3593Y5049D01*
X3642Y5016D01*
X3701Y5005D01*
X3759Y5016D01*
X3809Y5049D01*
X3842Y5099D01*
X3854Y5157D01*
X3981Y5234D01*
X4079D01*
X4207Y5157D01*
X4219Y5095D01*
X4255Y5042D01*
X4308Y5007D01*
X4370Y4994D01*
X4433Y5007D01*
X4485Y5042D01*
X4521Y5095D01*
X4533Y5157D01*
X4661Y5234D01*
X9606D01*
X9682Y5249D01*
X9706Y5265D01*
X9812Y5256D01*
X9841Y5240D01*
X9872Y5094D01*
X9851Y5062D01*
X9838Y5000D01*
X9851Y4938D01*
X9886Y4886D01*
Y4799D01*
X9851Y4747D01*
X9838Y4685D01*
X9851Y4623D01*
X9886Y4571D01*
Y4484D01*
X9851Y4432D01*
X9838Y4370D01*
X9851Y4308D01*
X9858Y4297D01*
X9804Y4166D01*
X9796Y4157D01*
X8189D01*
X8150Y4149D01*
X8117Y4127D01*
X7173Y3183D01*
X7165Y3184D01*
X7107Y3173D01*
X7057Y3140D01*
X7024Y3090D01*
X7012Y3031D01*
X6929Y2996D01*
X6846Y3031D01*
X6834Y3090D01*
X6801Y3140D01*
X6751Y3173D01*
X6693Y3184D01*
X6634Y3173D01*
X6585Y3140D01*
X6552Y3090D01*
X6540Y3031D01*
X6552Y2973D01*
X6585Y2923D01*
X6634Y2890D01*
X6693Y2879D01*
X6730Y2838D01*
X6751Y2777D01*
X6681Y2651D01*
X6681Y2651D01*
X6658Y2635D01*
X6657Y2634D01*
X6522D01*
X6496Y2639D01*
X6438Y2628D01*
X6388Y2594D01*
X6355Y2545D01*
X6343Y2486D01*
X6355Y2428D01*
X6388Y2378D01*
X6438Y2345D01*
X6496Y2333D01*
X6521Y2338D01*
X6525Y2337D01*
X6637Y2258D01*
Y2061D01*
X6643Y2034D01*
X6658Y2011D01*
X6681Y1995D01*
X6709Y1990D01*
X6791D01*
X6796Y1969D01*
X6818Y1936D01*
X6896Y1858D01*
X6894Y1850D01*
X6896Y1843D01*
X6778Y1726D01*
X6756Y1693D01*
X6748Y1654D01*
Y1496D01*
X6749Y1492D01*
X6658Y1410D01*
X6636Y1400D01*
X6633Y1401D01*
X6575Y1413D01*
X6516Y1401D01*
X6467Y1368D01*
X6434Y1318D01*
X6422Y1260D01*
X6429Y1226D01*
X6371Y1159D01*
X6318Y1123D01*
X6309Y1125D01*
X6132D01*
X6105Y1119D01*
X6102Y1118D01*
X6100Y1119D01*
X6073Y1125D01*
X5896D01*
X5868Y1119D01*
X5866Y1118D01*
X5864Y1119D01*
X5837Y1125D01*
X5659D01*
X5632Y1119D01*
X5630Y1118D01*
X5628Y1119D01*
X5600Y1125D01*
X5423D01*
X5396Y1119D01*
X5394Y1118D01*
X5391Y1119D01*
X5364Y1125D01*
X5263D01*
X5240Y1138D01*
X5239Y1139D01*
X5155Y1244D01*
X5150Y1260D01*
Y1409D01*
X5197Y1543D01*
X5630D01*
X5657Y1548D01*
X5680Y1564D01*
X5696Y1587D01*
X5701Y1614D01*
X5701Y2284D01*
X5701Y2323D01*
X5701Y2323D01*
X5696Y2350D01*
X5680Y2373D01*
X5657Y2389D01*
X5630Y2394D01*
X5630Y2394D01*
X5591Y2394D01*
X5197D01*
X5170Y2389D01*
X5166Y2386D01*
X5087Y2408D01*
X5026Y2445D01*
Y3189D01*
X5018Y3229D01*
X4995Y3263D01*
X4587Y3671D01*
X4553Y3693D01*
X4513Y3701D01*
X4304D01*
X4292Y3709D01*
X4246Y3718D01*
X3990D01*
X3943Y3709D01*
X3943Y3709D01*
X3904Y3683D01*
X3880Y3647D01*
X3877Y3643D01*
X3877Y3643D01*
X3877Y3643D01*
X3868Y3597D01*
X3868Y3597D01*
X3869Y3592D01*
X3877Y3550D01*
X3899Y3498D01*
X3877Y3447D01*
X3877Y3447D01*
X3877Y3447D01*
X3868Y3400D01*
X3877Y3353D01*
X3877Y3353D01*
X3877Y3353D01*
X3899Y3302D01*
X3877Y3250D01*
X3877Y3250D01*
X3877Y3250D01*
X3868Y3203D01*
X3877Y3157D01*
X3877Y3157D01*
X3877Y3157D01*
X3899Y3105D01*
X3877Y3053D01*
X3868Y3006D01*
X3877Y2960D01*
X3877Y2960D01*
X3904Y2920D01*
X3905Y2872D01*
X3892Y2772D01*
X3856Y2748D01*
X3820Y2695D01*
X3808Y2632D01*
X3820Y2570D01*
X3856Y2517D01*
X3908Y2482D01*
X3971Y2469D01*
X4033Y2482D01*
X4086Y2517D01*
X4097Y2532D01*
X4213Y2522D01*
X4229Y2513D01*
X4251Y2470D01*
X3436Y1655D01*
X3387D01*
X3367Y1666D01*
X3274Y1748D01*
Y1923D01*
X3282Y1962D01*
X3350Y2036D01*
X3384Y2060D01*
X3441D01*
X3468Y2065D01*
X3491Y2081D01*
X3507Y2104D01*
X3512Y2131D01*
Y2269D01*
X3507Y2296D01*
X3491Y2319D01*
X3462Y2458D01*
X3472Y2504D01*
Y2760D01*
X3462Y2807D01*
X3439Y2842D01*
X3436Y2846D01*
X3436Y2846D01*
X3397Y2873D01*
X3350Y2882D01*
X3303Y2873D01*
X3303Y2873D01*
X3264Y2846D01*
X3239D01*
X3200Y2873D01*
X3153Y2882D01*
X3107Y2873D01*
X3067Y2846D01*
X3042D01*
X3003Y2873D01*
X2956Y2882D01*
X2936Y2878D01*
X2873Y2923D01*
X2828Y2986D01*
X2832Y3006D01*
X2823Y3053D01*
X2801Y3105D01*
X2823Y3157D01*
X2823Y3157D01*
X2823Y3157D01*
X2832Y3203D01*
X2823Y3250D01*
X2823Y3250D01*
X2823Y3250D01*
X2801Y3302D01*
X2823Y3353D01*
X2823Y3353D01*
X2823Y3353D01*
X2832Y3400D01*
X2823Y3447D01*
X2823Y3447D01*
X2823Y3447D01*
X2801Y3498D01*
X2823Y3550D01*
X2823Y3550D01*
X2823Y3550D01*
X2832Y3597D01*
X2823Y3643D01*
X2823Y3643D01*
X2823Y3643D01*
X2801Y3695D01*
X2823Y3747D01*
X2832Y3794D01*
X2828Y3814D01*
X2873Y3877D01*
X2936Y3922D01*
X2956Y3918D01*
X3003Y3927D01*
X3055Y3949D01*
X3107Y3927D01*
X3107Y3927D01*
X3107Y3927D01*
X3153Y3918D01*
X3200Y3927D01*
X3200Y3927D01*
X3200Y3927D01*
X3252Y3949D01*
X3303Y3927D01*
X3303Y3927D01*
X3303Y3927D01*
X3350Y3918D01*
X3397Y3927D01*
X3397Y3927D01*
X3397Y3927D01*
X3448Y3949D01*
X3500Y3927D01*
X3500Y3927D01*
X3500Y3927D01*
X3547Y3918D01*
X3593Y3927D01*
X3593Y3927D01*
X3593Y3927D01*
X3645Y3949D01*
X3697Y3927D01*
X3744Y3918D01*
X3744Y3918D01*
X3790Y3927D01*
X3790Y3927D01*
X3790Y3927D01*
X3830Y3954D01*
X3856Y3993D01*
X3856Y3993D01*
X3865Y4040D01*
Y4063D01*
X5075D01*
X5109Y4037D01*
X5181Y3951D01*
Y3754D01*
X5186Y3727D01*
X5200Y3706D01*
X5191Y3661D01*
X5204Y3599D01*
X5239Y3546D01*
X5292Y3511D01*
X5354Y3498D01*
X5417Y3511D01*
X5470Y3546D01*
X5505Y3599D01*
X5517Y3661D01*
X5509Y3706D01*
X5523Y3727D01*
X5528Y3754D01*
Y3884D01*
X5542Y3964D01*
X5610Y4032D01*
X5659Y4065D01*
X5692Y4115D01*
X5704Y4173D01*
X5692Y4232D01*
X5659Y4281D01*
X5610Y4315D01*
X5551Y4326D01*
X5513Y4319D01*
X5507Y4328D01*
X5484Y4344D01*
X5457Y4349D01*
X5252D01*
X5225Y4344D01*
X5202Y4328D01*
X5186Y4305D01*
X5181Y4278D01*
Y4272D01*
X4510D01*
X4467Y4412D01*
X4478Y4419D01*
X4511Y4469D01*
X4523Y4528D01*
X4511Y4586D01*
X4478Y4636D01*
X4467Y4643D01*
X4467Y4646D01*
X4444Y4680D01*
X4326Y4798D01*
X4292Y4821D01*
X4252Y4829D01*
X3465D01*
X3409Y4862D01*
X3376Y4911D01*
X3326Y4944D01*
X3268Y4956D01*
X3181Y4987D01*
X3133Y5059D01*
X3100Y5108D01*
X3051Y5141D01*
X2992Y5153D01*
X2934Y5141D01*
X2793Y5115D01*
X2740Y5151D01*
X2677Y5163D01*
X2615Y5151D01*
X2562Y5115D01*
X2526Y5062D01*
X2523Y5044D01*
X2497Y5015D01*
X2427Y4963D01*
X2383Y4943D01*
X2264D01*
X2236Y4938D01*
X2213Y4923D01*
X2198Y4899D01*
X2192Y4872D01*
Y4734D01*
X2198Y4707D01*
X2213Y4684D01*
X2182Y4586D01*
X2170Y4528D01*
X2182Y4469D01*
X2215Y4419D01*
X2264Y4386D01*
X2323Y4375D01*
X2381Y4386D01*
X2461Y4410D01*
X2540Y4386D01*
X2598Y4375D01*
X2657Y4386D01*
X2694Y4411D01*
X2754Y4396D01*
X2834Y4358D01*
Y4168D01*
X2835Y4164D01*
Y4040D01*
X2839Y4020D01*
X2793Y3957D01*
X2730Y3911D01*
X2710Y3915D01*
X2454D01*
X2408Y3906D01*
X2406Y3905D01*
X2033D01*
X2028Y3930D01*
X2012Y3953D01*
X1989Y3968D01*
X1962Y3974D01*
X1765D01*
X1738Y3968D01*
X1714Y3953D01*
X1699Y3930D01*
X1694Y3902D01*
Y3698D01*
X1699Y3670D01*
X1714Y3647D01*
X1738Y3632D01*
X1765Y3626D01*
X1773D01*
Y3338D01*
X1541Y3106D01*
X1398D01*
X1370Y3101D01*
X1347Y3086D01*
X1332Y3062D01*
X1326Y3035D01*
Y2838D01*
X1332Y2811D01*
X1347Y2788D01*
X1370Y2772D01*
X1392Y2768D01*
Y2419D01*
X1366Y2414D01*
X1343Y2399D01*
X1328Y2376D01*
X1322Y2348D01*
Y2152D01*
X1328Y2124D01*
X1339Y2087D01*
X1328Y2049D01*
X1322Y2022D01*
Y1825D01*
X1328Y1797D01*
X1343Y1774D01*
X1366Y1759D01*
X1374Y1757D01*
Y1115D01*
X1357Y1104D01*
X1342Y1080D01*
X1336Y1053D01*
Y1024D01*
X0D01*
Y3543D01*
X432D01*
X509Y3558D01*
X580Y3588D01*
X645Y3631D01*
X700Y3686D01*
X743Y3751D01*
X772Y3822D01*
X787Y3898D01*
Y3976D01*
X772Y4052D01*
X743Y4123D01*
X700Y4188D01*
X645Y4243D01*
X580Y4286D01*
X509Y4316D01*
X432Y4331D01*
X0D01*
Y7045D01*
X41Y7084D01*
X199Y7108D01*
X349Y7164D01*
X485Y7248D01*
X601Y7359D01*
X692Y7490D01*
X755Y7637D01*
X787Y7794D01*
X787Y7874D01*
X787Y7954D01*
X755Y8111D01*
X692Y8258D01*
X601Y8389D01*
X485Y8500D01*
X349Y8584D01*
X199Y8640D01*
X41Y8664D01*
X0Y8703D01*
Y11811D01*
X11880D01*
X12015Y11772D01*
D02*
G37*
G36*
X19338Y11252D02*
Y11024D01*
X19344Y10996D01*
X19359Y10973D01*
X19382Y10958D01*
X19396Y10824D01*
X19345Y10730D01*
X19311Y10691D01*
X19272D01*
X19244Y10686D01*
X19221Y10671D01*
X19206Y10647D01*
X19200Y10620D01*
Y10364D01*
X19173Y10326D01*
X19133Y10285D01*
X19094Y10258D01*
X18957D01*
X18929Y10253D01*
X18898Y10241D01*
X18866Y10253D01*
X18839Y10258D01*
X18701D01*
X18673Y10253D01*
X18655Y10240D01*
X18378D01*
X18245Y10250D01*
Y10447D01*
X18239Y10474D01*
X18224Y10497D01*
X18201Y10513D01*
X18173Y10518D01*
X18089D01*
X18071Y10522D01*
X18053Y10518D01*
X17968D01*
X17941Y10513D01*
X17918Y10497D01*
X17903Y10474D01*
X17897Y10447D01*
Y10250D01*
X17898Y10248D01*
Y10157D01*
X17911Y10091D01*
X17948Y10035D01*
X18005Y9997D01*
X18071Y9984D01*
X18129Y9996D01*
X18655D01*
X18673Y9983D01*
X18701Y9978D01*
X18839D01*
X18866Y9983D01*
X18898Y9995D01*
X18929Y9983D01*
X18957Y9978D01*
X19094D01*
X19133Y9951D01*
X19173Y9910D01*
X19200Y9872D01*
Y9782D01*
X19192Y9767D01*
X19094Y9671D01*
X18221D01*
X18218Y9675D01*
X18169Y9708D01*
X18110Y9720D01*
X18052Y9708D01*
X18002Y9675D01*
X17851Y9698D01*
X17554Y9995D01*
X17520Y10018D01*
X17480Y10026D01*
X17183D01*
X17178Y10051D01*
X17163Y10074D01*
X17140Y10090D01*
X17112Y10095D01*
X16915D01*
X16888Y10090D01*
X16850Y10078D01*
X16813Y10090D01*
X16779Y10107D01*
X16728Y10197D01*
X16716Y10255D01*
X16683Y10305D01*
X16633Y10338D01*
X16575Y10350D01*
X16516Y10338D01*
X16467Y10305D01*
X16434Y10255D01*
X16433Y10252D01*
X16291Y10196D01*
X16290Y10196D01*
X16144Y10343D01*
X16146Y10354D01*
X16134Y10416D01*
X16130Y10422D01*
X16191Y10562D01*
X16192Y10562D01*
X16417D01*
X16458Y10570D01*
X16493Y10594D01*
X16624Y10724D01*
X16748Y10746D01*
X16872Y10659D01*
Y10606D01*
X16877Y10579D01*
X16892Y10556D01*
X16916Y10540D01*
X16943Y10535D01*
X17140D01*
X17167Y10540D01*
X17190Y10556D01*
X17206Y10579D01*
X17211Y10606D01*
Y10811D01*
X17206Y10838D01*
X17190Y10861D01*
X17167Y10877D01*
X17140Y10882D01*
X17095D01*
X17009Y11006D01*
X17032Y11132D01*
X17097Y11198D01*
X18191D01*
X18226Y11166D01*
X18291Y11077D01*
Y10880D01*
X18296Y10853D01*
X18312Y10829D01*
X18335Y10814D01*
X18362Y10809D01*
X18567D01*
X18594Y10814D01*
X18617Y10829D01*
X18633Y10853D01*
X18637Y10874D01*
X18734D01*
X18774Y10882D01*
X18808Y10904D01*
X18856Y10952D01*
X19094D01*
X19122Y10958D01*
X19145Y10973D01*
X19160Y10996D01*
X19166Y11024D01*
Y11252D01*
X19252Y11303D01*
X19338Y11252D01*
D02*
G37*
G36*
X8504Y9921D02*
X7992Y9409D01*
X7406D01*
X7351Y9506D01*
X7351Y9509D01*
X7363Y9567D01*
X7351Y9627D01*
X7316Y9679D01*
Y9770D01*
X7351Y9821D01*
X7363Y9882D01*
X7351Y9942D01*
X7316Y9994D01*
X7316Y9996D01*
X7326Y10108D01*
X7346Y10138D01*
X7358Y10197D01*
X7420Y10214D01*
X7469Y10247D01*
X7502Y10296D01*
X7509Y10328D01*
X7538Y10358D01*
X7580Y10366D01*
X7631Y10400D01*
X7666Y10451D01*
X7678Y10512D01*
X7666Y10572D01*
X7631Y10624D01*
Y10715D01*
X7666Y10766D01*
X7678Y10827D01*
X7666Y10887D01*
X7631Y10939D01*
X7580Y10973D01*
X7520Y10985D01*
X7459Y10973D01*
X7408Y10939D01*
X7374Y10887D01*
X7365Y10845D01*
X7336Y10816D01*
X7304Y10809D01*
X7255Y10777D01*
X7222Y10727D01*
X7211Y10669D01*
X7222Y10611D01*
X7255Y10562D01*
Y10462D01*
X7154D01*
X7105Y10494D01*
X7047Y10506D01*
X6989Y10494D01*
X6940Y10462D01*
X6840D01*
Y10562D01*
X6849Y10576D01*
X6872Y10611D01*
X6880Y10647D01*
X6910Y10678D01*
X6948Y10685D01*
X6998Y10719D01*
X7031Y10768D01*
X7043Y10827D01*
X7031Y10885D01*
X6998Y10935D01*
X6948Y10968D01*
X6890Y10980D01*
X6831Y10968D01*
X6782Y10935D01*
X6748Y10885D01*
X6741Y10847D01*
X6710Y10817D01*
X6674Y10809D01*
X6655Y10796D01*
X6623Y10777D01*
X6521Y10801D01*
X6496Y10827D01*
X5709D01*
X5683Y10801D01*
X5582Y10777D01*
X5550Y10796D01*
X5530Y10809D01*
X5472Y10821D01*
X5414Y10809D01*
X5365Y10777D01*
X5265D01*
X5216Y10809D01*
X5157Y10821D01*
X5099Y10809D01*
X5050Y10777D01*
X5017Y10727D01*
X5006Y10669D01*
X5017Y10611D01*
X5050Y10562D01*
X5099Y10529D01*
X5135Y10522D01*
X5166Y10491D01*
X5174Y10453D01*
X5194Y10423D01*
X5203Y10311D01*
X5203Y10309D01*
X5169Y10257D01*
X5157Y10197D01*
X5099Y10179D01*
X5050Y10147D01*
X5017Y10097D01*
X5006Y10039D01*
X5017Y9981D01*
X5050Y9932D01*
X5099Y9899D01*
X5135Y9892D01*
X5166Y9861D01*
X5174Y9823D01*
X5207Y9774D01*
X5256Y9741D01*
X5315Y9729D01*
X5332Y9666D01*
X5365Y9617D01*
Y9517D01*
X5265D01*
X5251Y9526D01*
X5216Y9550D01*
X5184Y9556D01*
X5148Y9592D01*
X5141Y9625D01*
X5108Y9675D01*
X5059Y9708D01*
X5025Y9715D01*
X4989Y9751D01*
X4983Y9782D01*
X4950Y9832D01*
X4901Y9865D01*
X4869Y9871D01*
X4839Y9901D01*
X4831Y9942D01*
X4797Y9994D01*
X4746Y10028D01*
X4685Y10040D01*
X4625Y10028D01*
X4573Y9994D01*
X4539Y9942D01*
X4527Y9882D01*
X4539Y9821D01*
X4573Y9770D01*
Y9679D01*
X4539Y9627D01*
X4527Y9567D01*
X4539Y9506D01*
X4573Y9455D01*
X4625Y9421D01*
X4666Y9413D01*
X4696Y9383D01*
X4702Y9351D01*
X4735Y9302D01*
X4784Y9269D01*
X4843Y9258D01*
X4901Y9269D01*
X4950Y9302D01*
X5050D01*
Y9202D01*
X5041Y9188D01*
X5017Y9153D01*
X5010Y9117D01*
X4979Y9086D01*
X4941Y9078D01*
X4892Y9045D01*
X4872Y9016D01*
X4567D01*
X3819Y9764D01*
X2913Y9764D01*
Y10118D01*
X3110Y10315D01*
X3110Y11496D01*
X8504D01*
X8504Y9921D01*
D02*
G37*
G36*
X12126Y11339D02*
X12008Y11220D01*
X11929D01*
Y11378D01*
X12087Y11535D01*
X12126D01*
Y11339D01*
D02*
G37*
G36*
X15677Y11772D02*
Y10945D01*
X15668Y10934D01*
X13779D01*
X13776Y10937D01*
X13761Y10959D01*
X13706Y11074D01*
X13707Y11079D01*
Y11163D01*
X13711Y11181D01*
X13707Y11199D01*
Y11283D01*
X13702Y11311D01*
X13686Y11334D01*
X13663Y11349D01*
X13636Y11355D01*
X13439D01*
X13412Y11349D01*
X13389Y11334D01*
X13373Y11311D01*
X13368Y11283D01*
Y11256D01*
X13224Y11113D01*
X13186Y11056D01*
X13173Y10990D01*
Y10866D01*
X13186Y10800D01*
X13224Y10744D01*
X13280Y10706D01*
X13346Y10693D01*
X13357Y10561D01*
X13357Y10561D01*
X13218Y10500D01*
X13211Y10504D01*
X13150Y10516D01*
X13088Y10504D01*
X13035Y10469D01*
X12949D01*
X12897Y10504D01*
X12835Y10516D01*
X12773Y10504D01*
X12720Y10469D01*
X12634D01*
X12582Y10504D01*
X12520Y10516D01*
X12458Y10504D01*
X12405Y10469D01*
X12370Y10416D01*
X12358Y10354D01*
X12359Y10349D01*
X12304Y10338D01*
X12254Y10305D01*
X12236Y10277D01*
X12128Y10385D01*
X12155Y10404D01*
X12189Y10453D01*
X12200Y10512D01*
X12195Y10537D01*
X12253Y10641D01*
X12286Y10677D01*
X12441D01*
X12468Y10682D01*
X12491Y10698D01*
X12531Y10737D01*
X12546Y10760D01*
X12600Y10777D01*
X12647Y10782D01*
X12688Y10779D01*
X12712Y10744D01*
X12768Y10706D01*
X12835Y10693D01*
X12901Y10706D01*
X12957Y10744D01*
X12995Y10800D01*
X13008Y10866D01*
Y10996D01*
X13008Y10998D01*
Y11195D01*
X13003Y11222D01*
X12987Y11245D01*
X12964Y11261D01*
X12937Y11266D01*
X12852D01*
X12846Y11268D01*
X12834Y11270D01*
X12719Y11343D01*
X12709Y11403D01*
Y11772D01*
X12844Y11811D01*
X14262D01*
X14299Y11749D01*
X14321Y11671D01*
X14298Y11637D01*
X14286Y11575D01*
X14298Y11512D01*
X14333Y11459D01*
X14303Y11399D01*
X14291Y11339D01*
X14303Y11278D01*
X14337Y11227D01*
X14388Y11193D01*
X14449Y11181D01*
X14509Y11193D01*
X14561Y11227D01*
X14613D01*
X14664Y11193D01*
X14724Y11181D01*
X14785Y11193D01*
X14836Y11227D01*
X14870Y11278D01*
X14882Y11339D01*
X14870Y11399D01*
X14840Y11459D01*
X14875Y11512D01*
X14888Y11575D01*
X14875Y11637D01*
X14853Y11671D01*
X14874Y11749D01*
X14911Y11811D01*
X15542D01*
X15677Y11772D01*
D02*
G37*
G36*
X12480Y11024D02*
X12480Y10787D01*
X12441Y10748D01*
X11654Y10748D01*
X11614Y10787D01*
X11614Y10945D01*
X11693Y11024D01*
X11929Y11024D01*
X12087Y11181D01*
X12323D01*
X12480Y11024D01*
D02*
G37*
G36*
X2165Y10276D02*
X2402Y10039D01*
X2428D01*
X2429Y10038D01*
X2457Y10033D01*
X2661D01*
X2689Y10038D01*
X2690Y10039D01*
X2717D01*
X2756Y10000D01*
Y9606D01*
X2466Y9317D01*
X2106D01*
X2080Y9312D01*
X1783D01*
X1772Y9309D01*
X1756Y9332D01*
X1748Y9355D01*
X1759Y9372D01*
X1764Y9400D01*
Y9498D01*
X1759Y9525D01*
X1743Y9549D01*
X1720Y9564D01*
X1693Y9569D01*
X1457D01*
X1435Y9565D01*
X1397Y9590D01*
X1339Y9602D01*
X1280Y9590D01*
X1230Y9557D01*
X1197Y9507D01*
X1186Y9449D01*
X1190Y9428D01*
X1155Y9380D01*
X1122Y9375D01*
X1120Y9377D01*
X1093Y9382D01*
X955D01*
X927Y9377D01*
X904Y9361D01*
X889Y9338D01*
X883Y9311D01*
Y9291D01*
X394D01*
X394Y10551D01*
X2165D01*
Y10276D01*
D02*
G37*
G36*
X6417Y9331D02*
Y8858D01*
X6378Y8819D01*
X6220D01*
X6181Y8858D01*
Y9055D01*
X6102Y9134D01*
X5906D01*
X5866Y9173D01*
Y9331D01*
X5906Y9370D01*
X6378D01*
X6417Y9331D01*
D02*
G37*
%LPC*%
G36*
X25132Y11630D02*
X24935D01*
X24908Y11625D01*
X24885Y11610D01*
X24869Y11586D01*
X24864Y11559D01*
Y11526D01*
X24759Y11422D01*
X24722Y11366D01*
X24709Y11299D01*
X24722Y11233D01*
X24759Y11177D01*
X24816Y11139D01*
X24882Y11126D01*
X24948Y11139D01*
X25004Y11177D01*
X25111Y11283D01*
X25132D01*
X25159Y11288D01*
X25182Y11304D01*
X25198Y11327D01*
X25203Y11354D01*
Y11433D01*
X25207Y11451D01*
Y11457D01*
X25203Y11474D01*
Y11559D01*
X25198Y11586D01*
X25182Y11610D01*
X25159Y11625D01*
X25132Y11630D01*
D02*
G37*
G36*
X27795Y11580D02*
X27733Y11568D01*
X27680Y11533D01*
X27645Y11480D01*
X27632Y11417D01*
X27641Y11374D01*
X27638Y11371D01*
X27610Y11365D01*
X27587Y11350D01*
X27572Y11327D01*
X27566Y11299D01*
Y10984D01*
X27572Y10957D01*
X27587Y10934D01*
X27610Y10918D01*
X27638Y10913D01*
X27953D01*
X27980Y10918D01*
X28003Y10934D01*
X28019Y10957D01*
X28024Y10984D01*
Y11299D01*
X28019Y11327D01*
X28003Y11350D01*
X27980Y11365D01*
X27953Y11371D01*
X27950Y11374D01*
X27958Y11417D01*
X27946Y11480D01*
X27911Y11533D01*
X27858Y11568D01*
X27795Y11580D01*
D02*
G37*
G36*
X26811D02*
X26749Y11568D01*
X26696Y11533D01*
X26660Y11480D01*
X26648Y11417D01*
X26656Y11374D01*
X26654Y11371D01*
X26626Y11365D01*
X26603Y11350D01*
X26588Y11327D01*
X26582Y11299D01*
Y10984D01*
X26588Y10957D01*
X26603Y10934D01*
X26626Y10918D01*
X26654Y10913D01*
X26969D01*
X26996Y10918D01*
X27019Y10934D01*
X27034Y10957D01*
X27040Y10984D01*
Y11299D01*
X27034Y11327D01*
X27019Y11350D01*
X26996Y11365D01*
X26969Y11371D01*
X26966Y11374D01*
X26974Y11417D01*
X26962Y11480D01*
X26926Y11533D01*
X26873Y11568D01*
X26811Y11580D01*
D02*
G37*
G36*
X22453Y11520D02*
X22256D01*
X22229Y11515D01*
X22191Y11504D01*
X22153Y11515D01*
X22126Y11520D01*
X21929D01*
X21902Y11515D01*
X21879Y11499D01*
X21863Y11476D01*
X21858Y11449D01*
Y11386D01*
X21823Y11351D01*
X21791Y11303D01*
X21779Y11246D01*
Y11155D01*
X21693Y11029D01*
X21630Y11017D01*
X21626Y11014D01*
X21563D01*
X21558Y11017D01*
X21511Y11026D01*
X21496Y11029D01*
X21376Y11126D01*
X21371Y11136D01*
Y11339D01*
X21365Y11366D01*
X21350Y11389D01*
X21327Y11405D01*
X21299Y11410D01*
X20984D01*
X20957Y11405D01*
X20934Y11389D01*
X20918Y11366D01*
X20913Y11339D01*
Y11024D01*
X20918Y10996D01*
X20934Y10973D01*
X20957Y10958D01*
X20968Y10955D01*
Y10866D01*
X20968Y10866D01*
X20982Y10800D01*
X21019Y10744D01*
X21075Y10706D01*
X21142Y10693D01*
X21208Y10706D01*
X21232Y10722D01*
X21249Y10731D01*
X21316Y10741D01*
X21401Y10737D01*
X21419Y10725D01*
X21434Y10715D01*
X21496Y10703D01*
X21558Y10715D01*
X21563Y10718D01*
X21626D01*
X21630Y10715D01*
X21693Y10703D01*
X21766Y10668D01*
X21773Y10640D01*
X21773Y10640D01*
X21788Y10617D01*
X21811Y10601D01*
X21839Y10596D01*
X22016D01*
X22043Y10601D01*
X22066Y10617D01*
X22082Y10640D01*
X22087Y10667D01*
Y11059D01*
X22126Y11093D01*
X22131Y11094D01*
X22134Y11094D01*
X22267Y10992D01*
Y10667D01*
X22273Y10640D01*
X22288Y10617D01*
X22311Y10601D01*
X22339Y10596D01*
X22352D01*
X22485Y10591D01*
X22497Y10532D01*
X22530Y10482D01*
X22579Y10449D01*
X22638Y10438D01*
X22696Y10449D01*
X22746Y10482D01*
X22779Y10532D01*
Y10532D01*
X22835Y10592D01*
X22924Y10596D01*
X23016D01*
X23043Y10601D01*
X23066Y10617D01*
X23082Y10640D01*
X23157Y10690D01*
X23227Y10713D01*
X23267Y10691D01*
Y10667D01*
X23273Y10640D01*
X23288Y10617D01*
X23311Y10601D01*
X23339Y10596D01*
X23516D01*
X23543Y10601D01*
X23566Y10617D01*
X23582Y10640D01*
X23587Y10667D01*
Y11081D01*
X23582Y11108D01*
X23566Y11131D01*
X23598Y11268D01*
X23606Y11280D01*
X23618Y11339D01*
X23606Y11397D01*
X23573Y11447D01*
X23523Y11480D01*
X23465Y11492D01*
X23406Y11480D01*
X23356Y11447D01*
X23332Y11410D01*
X23287Y11441D01*
X23228Y11452D01*
X23170Y11441D01*
X23120Y11407D01*
X23087Y11358D01*
X23075Y11299D01*
X23076Y11295D01*
X22933Y11152D01*
X22839D01*
X22811Y11147D01*
X22788Y11131D01*
X22773Y11108D01*
X22767Y11081D01*
Y10970D01*
X22627Y10858D01*
X22606Y10863D01*
X22587Y10880D01*
Y11081D01*
X22582Y11108D01*
X22566Y11131D01*
X22543Y11147D01*
X22532Y11149D01*
Y11274D01*
X22524Y11312D01*
Y11449D01*
X22519Y11476D01*
X22503Y11499D01*
X22480Y11515D01*
X22453Y11520D01*
D02*
G37*
G36*
X25787Y11580D02*
X25725Y11568D01*
X25672Y11533D01*
X25637Y11480D01*
X25624Y11417D01*
X25637Y11355D01*
X25672Y11302D01*
X25725Y11267D01*
X25787Y11254D01*
X25850Y11267D01*
X25903Y11302D01*
X26004Y11276D01*
X26063Y11264D01*
X26122Y11276D01*
X26171Y11309D01*
X26204Y11359D01*
X26216Y11417D01*
X26204Y11476D01*
X26171Y11525D01*
X26122Y11559D01*
X26063Y11570D01*
X26004Y11559D01*
X25903Y11533D01*
X25850Y11568D01*
X25787Y11580D01*
D02*
G37*
G36*
X25276Y6295D02*
X25217Y6283D01*
X25167Y6250D01*
X25134Y6200D01*
X25123Y6142D01*
X25134Y6083D01*
X25167Y6034D01*
X25217Y6000D01*
X25276Y5989D01*
X25334Y6000D01*
X25384Y6034D01*
X25417Y6083D01*
X25429Y6142D01*
X25417Y6200D01*
X25384Y6250D01*
X25334Y6283D01*
X25276Y6295D01*
D02*
G37*
G36*
X26220Y6413D02*
X26162Y6401D01*
X26112Y6368D01*
X26079Y6318D01*
X26068Y6260D01*
X26079Y6201D01*
X26112Y6152D01*
X26162Y6119D01*
X26220Y6107D01*
X26261Y6115D01*
X26308Y6074D01*
X26354Y6002D01*
X26343Y5945D01*
X26355Y5886D01*
X26388Y5837D01*
X26438Y5804D01*
X26496Y5792D01*
X26552Y5729D01*
X26585Y5679D01*
X26634Y5646D01*
X26693Y5634D01*
X26751Y5646D01*
X26786Y5669D01*
X26806Y5679D01*
X26934D01*
X26954Y5669D01*
X26989Y5646D01*
X27047Y5634D01*
X27106Y5646D01*
X27155Y5679D01*
X27189Y5729D01*
X27244Y5792D01*
X27303Y5804D01*
X27351Y5836D01*
X27379Y5834D01*
X27456Y5806D01*
X27499Y5755D01*
X27530Y5719D01*
X27550Y5705D01*
X27579Y5685D01*
X27638Y5674D01*
X27696Y5685D01*
X27746Y5719D01*
X27779Y5768D01*
X27791Y5827D01*
X27779Y5885D01*
X27746Y5935D01*
X27696Y5968D01*
X27638Y5980D01*
X27579Y5968D01*
X27531Y5936D01*
X27502Y5938D01*
X27426Y5966D01*
X27383Y6017D01*
X27352Y6053D01*
X27332Y6067D01*
X27303Y6086D01*
X27244Y6098D01*
X27186Y6086D01*
X27136Y6053D01*
X27103Y6003D01*
X27047Y5940D01*
X26989Y5929D01*
X26954Y5906D01*
X26934Y5896D01*
X26806D01*
X26786Y5906D01*
X26751Y5929D01*
X26693Y5940D01*
X26637Y6003D01*
X26604Y6053D01*
X26555Y6086D01*
X26496Y6098D01*
X26456Y6090D01*
X26409Y6131D01*
X26362Y6203D01*
X26373Y6260D01*
X26362Y6318D01*
X26329Y6368D01*
X26279Y6401D01*
X26220Y6413D01*
D02*
G37*
G36*
X20571Y9943D02*
X20217D01*
X20189Y9938D01*
X20166Y9923D01*
X20151Y9899D01*
X20145Y9872D01*
Y9616D01*
X20151Y9589D01*
X20166Y9566D01*
X20189Y9550D01*
X20217Y9545D01*
X20227D01*
X20241Y9528D01*
X20252Y9469D01*
X20286Y9419D01*
X20335Y9386D01*
X20394Y9375D01*
X20452Y9386D01*
X20490Y9411D01*
X20506Y9419D01*
X20636D01*
X20652Y9411D01*
X20689Y9386D01*
X20748Y9375D01*
X20807Y9386D01*
X20866Y9415D01*
X20926Y9386D01*
X20984Y9375D01*
X21043Y9386D01*
X21092Y9419D01*
X21126Y9469D01*
X21137Y9528D01*
X21126Y9586D01*
X21092Y9636D01*
X21043Y9669D01*
X20984Y9681D01*
X20926Y9669D01*
X20866Y9640D01*
X20807Y9669D01*
X20748Y9681D01*
X20642Y9793D01*
Y9872D01*
X20637Y9899D01*
X20621Y9923D01*
X20598Y9938D01*
X20571Y9943D01*
D02*
G37*
G36*
X24606Y10321D02*
X24544Y10308D01*
X24491Y10273D01*
X24456Y10220D01*
X24443Y10157D01*
X24456Y10095D01*
X24491Y10042D01*
X24544Y10007D01*
X24606Y9994D01*
X24669Y10007D01*
X24722Y10042D01*
X24757Y10095D01*
X24769Y10157D01*
X24757Y10220D01*
X24722Y10273D01*
X24669Y10308D01*
X24606Y10321D01*
D02*
G37*
G36*
X26480Y10833D02*
X26276D01*
X26248Y10828D01*
X26225Y10812D01*
X26210Y10789D01*
X26204Y10762D01*
Y10565D01*
X26210Y10538D01*
X26225Y10514D01*
X26248Y10499D01*
X26276Y10494D01*
X26400D01*
X26456Y10438D01*
X26490Y10415D01*
X26530Y10407D01*
X26582D01*
Y10354D01*
X26588Y10327D01*
X26603Y10304D01*
X26626Y10288D01*
X26654Y10283D01*
X26969D01*
X26996Y10288D01*
X27019Y10304D01*
X27034Y10327D01*
X27040Y10354D01*
Y10669D01*
X27034Y10697D01*
X27019Y10720D01*
X26996Y10735D01*
X26969Y10741D01*
X26654D01*
X26602Y10751D01*
X26552Y10785D01*
X26531Y10812D01*
X26531Y10812D01*
X26525Y10816D01*
X26508Y10828D01*
X26480Y10833D01*
D02*
G37*
G36*
X21496Y9691D02*
X21434Y9678D01*
X21381Y9643D01*
X21345Y9590D01*
X21333Y9528D01*
X21345Y9465D01*
X21381Y9412D01*
X21434Y9377D01*
X21496Y9364D01*
X21558Y9377D01*
X21611Y9412D01*
X21647Y9465D01*
X21659Y9528D01*
X21647Y9590D01*
X21611Y9643D01*
X21558Y9678D01*
X21496Y9691D01*
D02*
G37*
G36*
X27465Y10833D02*
X27260D01*
X27233Y10828D01*
X27209Y10812D01*
X27194Y10789D01*
X27188Y10762D01*
Y10565D01*
X27194Y10538D01*
X27209Y10514D01*
X27233Y10499D01*
X27260Y10494D01*
X27384D01*
X27440Y10438D01*
X27474Y10415D01*
X27514Y10407D01*
X27566D01*
Y10354D01*
X27572Y10327D01*
X27587Y10304D01*
X27610Y10288D01*
X27638Y10283D01*
X27953D01*
X27980Y10288D01*
X28003Y10304D01*
X28019Y10327D01*
X28024Y10354D01*
Y10669D01*
X28019Y10697D01*
X28003Y10720D01*
X27980Y10735D01*
X27953Y10741D01*
X27638D01*
X27587Y10751D01*
X27536Y10785D01*
X27515Y10812D01*
X27515Y10812D01*
X27509Y10816D01*
X27492Y10828D01*
X27465Y10833D01*
D02*
G37*
G36*
X30512Y11620D02*
X30449Y11607D01*
X30396Y11572D01*
X30361Y11519D01*
X30349Y11457D01*
X30357Y11412D01*
X30344Y11391D01*
X30338Y11364D01*
Y11167D01*
X30344Y11140D01*
X30355Y11102D01*
X30344Y11065D01*
X30338Y11037D01*
Y10841D01*
X30344Y10813D01*
X30359Y10790D01*
X30382Y10775D01*
X30409Y10769D01*
X30604D01*
X30632Y10752D01*
X30688Y10697D01*
X30690Y10632D01*
X30667Y10534D01*
X30581Y10485D01*
X30443D01*
X30421Y10480D01*
X30413Y10486D01*
X30354Y10497D01*
X30329Y10492D01*
X30225Y10550D01*
X30189Y10583D01*
Y10669D01*
X30184Y10697D01*
X30169Y10720D01*
X30145Y10735D01*
X30118Y10741D01*
X30020D01*
X29940Y10848D01*
X29939Y10881D01*
X29979Y10913D01*
X30118D01*
X30145Y10918D01*
X30169Y10934D01*
X30184Y10957D01*
X30189Y10984D01*
Y11299D01*
X30184Y11327D01*
X30169Y11350D01*
X30145Y11365D01*
X30118Y11371D01*
X29810D01*
X29797Y11375D01*
X29721Y11433D01*
X29718Y11436D01*
X29687Y11474D01*
X29678Y11519D01*
X29643Y11572D01*
X29590Y11607D01*
X29528Y11620D01*
X29465Y11607D01*
X29412Y11572D01*
X29377Y11519D01*
X29364Y11457D01*
X29373Y11412D01*
X29359Y11391D01*
X29354Y11364D01*
Y11167D01*
X29359Y11140D01*
X29370Y11102D01*
X29359Y11065D01*
X29354Y11037D01*
Y10841D01*
X29359Y10813D01*
X29375Y10790D01*
X29398Y10775D01*
X29425Y10769D01*
X29620D01*
X29648Y10752D01*
X29704Y10697D01*
X29706Y10632D01*
X29682Y10534D01*
X29596Y10485D01*
X29459D01*
X29437Y10480D01*
X29429Y10486D01*
X29370Y10497D01*
X29345Y10492D01*
X29241Y10550D01*
X29205Y10583D01*
Y10669D01*
X29200Y10697D01*
X29184Y10720D01*
X29161Y10735D01*
X29134Y10741D01*
X29035D01*
X28956Y10848D01*
X28954Y10881D01*
X28995Y10913D01*
X29134D01*
X29161Y10918D01*
X29184Y10934D01*
X29200Y10957D01*
X29205Y10984D01*
Y11299D01*
X29200Y11327D01*
X29184Y11350D01*
X29161Y11365D01*
X29134Y11371D01*
X28825D01*
X28813Y11375D01*
X28737Y11433D01*
X28734Y11436D01*
X28703Y11474D01*
X28694Y11519D01*
X28659Y11572D01*
X28606Y11607D01*
X28543Y11620D01*
X28481Y11607D01*
X28428Y11572D01*
X28393Y11519D01*
X28380Y11457D01*
X28389Y11412D01*
X28375Y11391D01*
X28370Y11364D01*
Y11167D01*
X28375Y11140D01*
X28386Y11102D01*
X28375Y11065D01*
X28370Y11037D01*
Y10841D01*
X28375Y10813D01*
X28390Y10790D01*
X28414Y10775D01*
X28441Y10769D01*
X28636D01*
X28664Y10752D01*
X28720Y10697D01*
X28722Y10632D01*
X28698Y10534D01*
X28612Y10485D01*
X28474D01*
X28452Y10480D01*
X28444Y10486D01*
X28386Y10497D01*
X28327Y10486D01*
X28278Y10453D01*
X28245Y10403D01*
X28233Y10344D01*
X28245Y10286D01*
X28278Y10236D01*
X28327Y10203D01*
X28386Y10192D01*
X28444Y10203D01*
X28452Y10209D01*
X28474Y10204D01*
X28612D01*
X28640Y10210D01*
X28663Y10225D01*
X28671Y10237D01*
X28809D01*
X28850Y10246D01*
X28885Y10269D01*
X28899Y10283D01*
X29087D01*
X29134Y10283D01*
X29183Y10267D01*
X29246Y10242D01*
X29280Y10224D01*
X29312Y10203D01*
X29370Y10192D01*
X29429Y10203D01*
X29437Y10209D01*
X29459Y10204D01*
X29596D01*
X29624Y10210D01*
X29647Y10225D01*
X29655Y10237D01*
X29793D01*
X29834Y10246D01*
X29869Y10269D01*
X29883Y10283D01*
X30071D01*
X30118Y10283D01*
X30167Y10267D01*
X30230Y10242D01*
X30265Y10224D01*
X30296Y10203D01*
X30354Y10192D01*
X30413Y10203D01*
X30421Y10209D01*
X30443Y10204D01*
X30581D01*
X30608Y10210D01*
X30631Y10225D01*
X30639Y10237D01*
X30778D01*
X30819Y10246D01*
X30853Y10269D01*
X30867Y10283D01*
X31102D01*
X31130Y10288D01*
X31153Y10304D01*
X31168Y10327D01*
X31174Y10354D01*
Y10669D01*
X31168Y10697D01*
X31153Y10720D01*
X31130Y10735D01*
X31102Y10741D01*
X31004D01*
X30924Y10848D01*
X30923Y10881D01*
X30964Y10913D01*
X31102D01*
X31130Y10918D01*
X31153Y10934D01*
X31168Y10957D01*
X31174Y10984D01*
Y11299D01*
X31168Y11327D01*
X31153Y11350D01*
X31130Y11365D01*
X31102Y11371D01*
X30794D01*
X30781Y11375D01*
X30705Y11433D01*
X30702Y11436D01*
X30671Y11474D01*
X30663Y11519D01*
X30627Y11572D01*
X30574Y11607D01*
X30512Y11620D01*
D02*
G37*
G36*
X19370Y2515D02*
X19312Y2503D01*
X19262Y2470D01*
X19229Y2421D01*
X19228Y2416D01*
X19197D01*
X19196Y2421D01*
X19163Y2470D01*
X19114Y2503D01*
X19055Y2515D01*
X18997Y2503D01*
X18947Y2470D01*
X18914Y2421D01*
X18913Y2416D01*
X18882D01*
X18881Y2421D01*
X18848Y2470D01*
X18799Y2503D01*
X18740Y2515D01*
X18682Y2503D01*
X18632Y2470D01*
X18599Y2421D01*
X18598Y2416D01*
X18567D01*
X18566Y2421D01*
X18533Y2470D01*
X18484Y2503D01*
X18425Y2515D01*
X18367Y2503D01*
X18317Y2470D01*
X18284Y2421D01*
X18283Y2416D01*
X18252D01*
X18252Y2421D01*
X18218Y2470D01*
X18169Y2503D01*
X18110Y2515D01*
X18052Y2503D01*
X18002Y2470D01*
X17969Y2421D01*
X17968Y2416D01*
X17937D01*
X17937Y2421D01*
X17903Y2470D01*
X17854Y2503D01*
X17795Y2515D01*
X17737Y2503D01*
X17687Y2470D01*
X17654Y2421D01*
X17642Y2362D01*
X17654Y2304D01*
X17687Y2254D01*
X17737Y2221D01*
X17795Y2209D01*
X17854Y2221D01*
X17903Y2254D01*
X17937Y2304D01*
X17937Y2308D01*
X17968D01*
X17969Y2304D01*
X18002Y2254D01*
X18052Y2221D01*
X18110Y2209D01*
X18169Y2221D01*
X18218Y2254D01*
X18252Y2304D01*
X18252Y2308D01*
X18283D01*
X18284Y2304D01*
X18317Y2254D01*
X18367Y2221D01*
X18425Y2209D01*
X18484Y2221D01*
X18533Y2254D01*
X18566Y2304D01*
X18567Y2308D01*
X18598D01*
X18599Y2304D01*
X18632Y2254D01*
X18682Y2221D01*
X18740Y2209D01*
X18799Y2221D01*
X18848Y2254D01*
X18881Y2304D01*
X18882Y2308D01*
X18913D01*
X18914Y2304D01*
X18947Y2254D01*
X18997Y2221D01*
X19055Y2209D01*
X19114Y2221D01*
X19163Y2254D01*
X19196Y2304D01*
X19197Y2308D01*
X19228D01*
X19229Y2304D01*
X19262Y2254D01*
X19312Y2221D01*
X19370Y2209D01*
X19429Y2221D01*
X19478Y2254D01*
X19511Y2304D01*
X19523Y2362D01*
X19511Y2421D01*
X19478Y2470D01*
X19429Y2503D01*
X19370Y2515D01*
D02*
G37*
G36*
X18976Y1462D02*
X18914Y1450D01*
X18861Y1415D01*
X18826Y1362D01*
X18813Y1299D01*
X18826Y1237D01*
X18861Y1184D01*
X18914Y1148D01*
X18976Y1136D01*
X19039Y1148D01*
X19092Y1184D01*
X19127Y1237D01*
X19140Y1299D01*
X19127Y1362D01*
X19092Y1415D01*
X19039Y1450D01*
X18976Y1462D01*
D02*
G37*
G36*
X18268D02*
X18205Y1450D01*
X18152Y1415D01*
X18117Y1362D01*
X18105Y1299D01*
X18117Y1237D01*
X18152Y1184D01*
X18205Y1148D01*
X18268Y1136D01*
X18330Y1148D01*
X18383Y1184D01*
X18418Y1237D01*
X18431Y1299D01*
X18418Y1362D01*
X18383Y1415D01*
X18330Y1450D01*
X18268Y1462D01*
D02*
G37*
G36*
X19685D02*
X19623Y1450D01*
X19570Y1415D01*
X19534Y1362D01*
X19522Y1299D01*
X19534Y1237D01*
X19570Y1184D01*
X19623Y1148D01*
X19685Y1136D01*
X19747Y1148D01*
X19800Y1184D01*
X19836Y1237D01*
X19848Y1299D01*
X19836Y1362D01*
X19800Y1415D01*
X19747Y1450D01*
X19685Y1462D01*
D02*
G37*
G36*
X1457Y4769D02*
X1394Y4757D01*
X1341Y4722D01*
X1306Y4669D01*
X1294Y4606D01*
X1306Y4544D01*
X1341Y4491D01*
X1394Y4456D01*
X1457Y4443D01*
X1519Y4456D01*
X1572Y4491D01*
X1607Y4544D01*
X1620Y4606D01*
X1607Y4669D01*
X1572Y4722D01*
X1519Y4757D01*
X1457Y4769D01*
D02*
G37*
G36*
X2247Y8661D02*
X2241D01*
X2184Y8650D01*
X2132Y8616D01*
X2098Y8564D01*
X2086Y8504D01*
X2098Y8443D01*
X2132Y8392D01*
X2184Y8358D01*
X2244Y8346D01*
X2305Y8358D01*
X2356Y8392D01*
X2390Y8443D01*
X2402Y8504D01*
X2390Y8564D01*
X2356Y8616D01*
X2305Y8650D01*
X2247Y8661D01*
D02*
G37*
G36*
X2126Y5951D02*
X2064Y5938D01*
X2011Y5903D01*
X1966D01*
X1913Y5938D01*
X1850Y5951D01*
X1788Y5938D01*
X1735Y5903D01*
X1690D01*
X1637Y5938D01*
X1575Y5951D01*
X1512Y5938D01*
X1459Y5903D01*
X1424Y5850D01*
X1412Y5787D01*
X1424Y5725D01*
X1459Y5672D01*
Y5627D01*
X1424Y5574D01*
X1412Y5512D01*
X1424Y5449D01*
X1459Y5396D01*
X1512Y5361D01*
X1575Y5349D01*
X1637Y5361D01*
X1690Y5396D01*
X1735D01*
X1788Y5361D01*
X1850Y5349D01*
X1913Y5361D01*
X1966Y5396D01*
X2011D01*
X2064Y5361D01*
X2126Y5349D01*
X2188Y5361D01*
X2241Y5396D01*
X2277Y5449D01*
X2289Y5512D01*
X2277Y5574D01*
X2241Y5627D01*
Y5672D01*
X2277Y5725D01*
X2289Y5787D01*
X2277Y5850D01*
X2241Y5903D01*
X2188Y5938D01*
X2126Y5951D01*
D02*
G37*
G36*
X10472Y11147D02*
X10410Y11135D01*
X10357Y11100D01*
X10322Y11047D01*
X10309Y10984D01*
X10322Y10922D01*
X10357Y10869D01*
X10410Y10834D01*
X10472Y10821D01*
X10535Y10834D01*
X10588Y10869D01*
X10623Y10922D01*
X10636Y10984D01*
X10623Y11047D01*
X10588Y11100D01*
X10535Y11135D01*
X10472Y11147D01*
D02*
G37*
G36*
X6811Y4993D02*
X6776Y4993D01*
X6496D01*
X6469Y4987D01*
X6446Y4972D01*
X6446Y4972D01*
X6425Y4945D01*
X6374Y4911D01*
X6323Y4900D01*
X6118D01*
X6091Y4895D01*
X6068Y4879D01*
X5977Y4833D01*
X5910Y4837D01*
X5906Y4838D01*
X5847Y4826D01*
X5797Y4793D01*
X5764Y4744D01*
X5753Y4685D01*
X5764Y4627D01*
X5797Y4577D01*
X5847Y4544D01*
X5906Y4532D01*
X5907Y4532D01*
X6047Y4392D01*
Y4305D01*
X6052Y4278D01*
X6068Y4255D01*
X6091Y4239D01*
X6118Y4234D01*
X6285D01*
X6323Y4234D01*
X6405Y4152D01*
X6425Y4122D01*
Y3976D01*
X6430Y3949D01*
X6441Y3933D01*
Y3858D01*
X6454Y3792D01*
X6459Y3704D01*
X6424Y3651D01*
X6412Y3589D01*
X6424Y3526D01*
X6459Y3473D01*
X6512Y3438D01*
X6575Y3425D01*
X6637Y3438D01*
X6690Y3473D01*
X6726Y3526D01*
X6737Y3582D01*
X6738Y3589D01*
X6738Y3589D01*
X6726Y3651D01*
X6737Y3736D01*
X6774Y3792D01*
X6774Y3792D01*
X6796Y3812D01*
X6827Y3826D01*
X6966Y3792D01*
X7003Y3736D01*
X7060Y3698D01*
X7126Y3685D01*
X7192Y3698D01*
X7249Y3736D01*
X7286Y3792D01*
X7299Y3858D01*
Y3908D01*
X7311Y3910D01*
X7334Y3926D01*
X7349Y3949D01*
X7355Y3976D01*
Y4122D01*
X7374Y4152D01*
X7457Y4234D01*
X7495Y4234D01*
X7661D01*
X7689Y4239D01*
X7712Y4255D01*
X7727Y4278D01*
X7733Y4305D01*
Y4392D01*
X7873Y4532D01*
X7874Y4532D01*
X7933Y4544D01*
X7982Y4577D01*
X8015Y4627D01*
X8027Y4685D01*
X8015Y4744D01*
X7982Y4793D01*
X7933Y4826D01*
X7874Y4838D01*
X7869Y4837D01*
X7802Y4833D01*
X7712Y4879D01*
X7689Y4895D01*
X7661Y4900D01*
X7457D01*
X7406Y4911D01*
X7355Y4945D01*
X7334Y4972D01*
X7311Y4987D01*
X7283Y4993D01*
X7003D01*
X6969Y4993D01*
X6890Y4990D01*
X6811Y4993D01*
D02*
G37*
G36*
X3110Y7914D02*
X3050Y7902D01*
X2998Y7868D01*
X2964Y7816D01*
X2952Y7756D01*
X2964Y7695D01*
X2998Y7644D01*
X3050Y7610D01*
X3110Y7598D01*
X3171Y7610D01*
X3222Y7644D01*
X3256Y7695D01*
X3268Y7756D01*
X3256Y7816D01*
X3222Y7868D01*
X3171Y7902D01*
X3110Y7914D01*
D02*
G37*
G36*
X4685Y10670D02*
X4625Y10658D01*
X4573Y10624D01*
X4539Y10572D01*
X4527Y10512D01*
X4539Y10451D01*
X4573Y10400D01*
X4625Y10366D01*
X4666Y10358D01*
X4696Y10328D01*
X4702Y10296D01*
X4735Y10247D01*
X4784Y10214D01*
X4843Y10203D01*
X4901Y10214D01*
X4950Y10247D01*
X4983Y10296D01*
X4994Y10354D01*
X4983Y10412D01*
X4950Y10462D01*
X4901Y10494D01*
X4869Y10501D01*
X4839Y10531D01*
X4831Y10572D01*
X4797Y10624D01*
X4746Y10658D01*
X4685Y10670D01*
D02*
G37*
%LPD*%
D10*
X24555Y8130D02*
D03*
Y8268D02*
D03*
Y8406D02*
D03*
Y8543D02*
D03*
X24291Y8130D02*
D03*
Y8268D02*
D03*
Y8406D02*
D03*
Y8543D02*
D03*
D11*
X18563Y4429D02*
D03*
Y4665D02*
D03*
Y4902D02*
D03*
X2106Y8917D02*
D03*
Y9154D02*
D03*
Y9390D02*
D03*
D12*
X19094Y4961D02*
D03*
Y4764D02*
D03*
Y4567D02*
D03*
X1575Y9252D02*
D03*
Y9055D02*
D03*
Y8858D02*
D03*
D13*
X19094Y4370D02*
D03*
X1575Y9449D02*
D03*
D14*
X22677Y9803D02*
D03*
D15*
X23427Y10874D02*
D03*
X22927D02*
D03*
X22427D02*
D03*
X21927D02*
D03*
X23427Y8732D02*
D03*
X22927D02*
D03*
X22427D02*
D03*
X21927D02*
D03*
D16*
X20394Y9744D02*
D03*
Y10118D02*
D03*
Y10492D02*
D03*
X19449D02*
D03*
Y10118D02*
D03*
Y9744D02*
D03*
D17*
X20039Y7695D02*
D03*
X20413Y6793D02*
D03*
X19665D02*
D03*
D18*
X17014Y8622D02*
D03*
X16687D02*
D03*
X11563Y11299D02*
D03*
X11890D02*
D03*
X22354Y11346D02*
D03*
X22028D02*
D03*
X23392Y8307D02*
D03*
X23065D02*
D03*
X22435D02*
D03*
X22762D02*
D03*
X13864Y11181D02*
D03*
X13537D02*
D03*
X16687Y9921D02*
D03*
X17014D02*
D03*
X16687Y9606D02*
D03*
X17014D02*
D03*
Y9291D02*
D03*
X16687D02*
D03*
X23262Y6299D02*
D03*
X23589D02*
D03*
X2998Y4803D02*
D03*
X2671D02*
D03*
X22132Y8307D02*
D03*
X21805D02*
D03*
X17041Y10709D02*
D03*
X17368D02*
D03*
X20596Y6339D02*
D03*
X20270D02*
D03*
X24679Y9016D02*
D03*
X25006D02*
D03*
X2474Y1850D02*
D03*
X2801D02*
D03*
X3431D02*
D03*
X3104D02*
D03*
X1863Y3800D02*
D03*
X1537D02*
D03*
X22722Y7953D02*
D03*
X22396D02*
D03*
X25360Y11457D02*
D03*
X25033D02*
D03*
D19*
X1260Y551D02*
D03*
X1496D02*
D03*
X1732D02*
D03*
X1969D02*
D03*
X2205D02*
D03*
X2441D02*
D03*
X2677D02*
D03*
X2913D02*
D03*
X3150D02*
D03*
X3386D02*
D03*
X3622D02*
D03*
X3858D02*
D03*
X4094D02*
D03*
X4331D02*
D03*
X4567D02*
D03*
X4803D02*
D03*
X5039D02*
D03*
X5276D02*
D03*
X5512D02*
D03*
X5748D02*
D03*
X5984D02*
D03*
X6220D02*
D03*
X6457D02*
D03*
X6693D02*
D03*
X6929D02*
D03*
X7165D02*
D03*
X7402D02*
D03*
X7638D02*
D03*
X7874D02*
D03*
X8110D02*
D03*
X8346D02*
D03*
X8583D02*
D03*
X8819D02*
D03*
X9055D02*
D03*
X9291D02*
D03*
X9528D02*
D03*
X9764D02*
D03*
X10000D02*
D03*
X10236D02*
D03*
X10472D02*
D03*
X10709D02*
D03*
X10945D02*
D03*
X11181D02*
D03*
X11417D02*
D03*
X11654D02*
D03*
X11890D02*
D03*
X12126D02*
D03*
X12362D02*
D03*
X12598D02*
D03*
X12835D02*
D03*
X13071D02*
D03*
X13307D02*
D03*
X13543D02*
D03*
X13780D02*
D03*
X14016D02*
D03*
X14252D02*
D03*
X14488D02*
D03*
X14724D02*
D03*
X14961D02*
D03*
X15197D02*
D03*
X15433D02*
D03*
X15669D02*
D03*
X15906D02*
D03*
X16142D02*
D03*
X16378D02*
D03*
X17795Y551D02*
D03*
X18032D02*
D03*
X18268D02*
D03*
X18504D02*
D03*
X18740D02*
D03*
X18976D02*
D03*
X19213D02*
D03*
X19449D02*
D03*
X19685D02*
D03*
X19921D02*
D03*
X20157D02*
D03*
X20394D02*
D03*
X20630D02*
D03*
X20866D02*
D03*
X21102D02*
D03*
X21339D02*
D03*
X21575D02*
D03*
X21811D02*
D03*
X22047D02*
D03*
X22283D02*
D03*
X22520D02*
D03*
X22756D02*
D03*
X22992D02*
D03*
X23228D02*
D03*
X23465D02*
D03*
X23701D02*
D03*
X23937D02*
D03*
X24173D02*
D03*
X24409D02*
D03*
X24646D02*
D03*
X24882D02*
D03*
X25118D02*
D03*
X25354D02*
D03*
X25591D02*
D03*
X25827D02*
D03*
X26063D02*
D03*
X26299D02*
D03*
X26535D02*
D03*
X26772D02*
D03*
X27008D02*
D03*
X27244D02*
D03*
X27480D02*
D03*
X27717D02*
D03*
X27953D02*
D03*
X28189D02*
D03*
X28425D02*
D03*
X28661D02*
D03*
X28898D02*
D03*
X29134D02*
D03*
X29370D02*
D03*
X29606D02*
D03*
X29843D02*
D03*
X30079D02*
D03*
X30315D02*
D03*
X30551D02*
D03*
X30787D02*
D03*
X31024D02*
D03*
D20*
X7362Y5945D02*
D03*
X7047D02*
D03*
X6732D02*
D03*
X5472D02*
D03*
X5157D02*
D03*
X4843D02*
D03*
X7362Y6260D02*
D03*
X7047D02*
D03*
X6732D02*
D03*
X5472D02*
D03*
X5157D02*
D03*
X4843D02*
D03*
X7362Y6575D02*
D03*
X7047D02*
D03*
X6732D02*
D03*
X5472D02*
D03*
X5157D02*
D03*
X4843D02*
D03*
X7362Y6890D02*
D03*
X7047D02*
D03*
X6732D02*
D03*
X5472D02*
D03*
X5157D02*
D03*
X4843D02*
D03*
X7362Y7205D02*
D03*
X7047D02*
D03*
X6732D02*
D03*
X5472D02*
D03*
X5157D02*
D03*
X4843D02*
D03*
X7362Y7520D02*
D03*
X7047D02*
D03*
X6732D02*
D03*
X5472D02*
D03*
X5157D02*
D03*
X4843D02*
D03*
X7362Y7835D02*
D03*
X7047D02*
D03*
X6732D02*
D03*
X5472D02*
D03*
X5157D02*
D03*
X4843D02*
D03*
X7362Y8150D02*
D03*
X7047D02*
D03*
X6732D02*
D03*
X5472D02*
D03*
X5157D02*
D03*
X4843D02*
D03*
X7362Y8465D02*
D03*
X7047D02*
D03*
X6732D02*
D03*
X5472D02*
D03*
X5157D02*
D03*
X4843D02*
D03*
X7362Y8780D02*
D03*
X7047D02*
D03*
X6732D02*
D03*
X5472D02*
D03*
X5157D02*
D03*
X4843D02*
D03*
X7362Y9094D02*
D03*
X7047D02*
D03*
X6732D02*
D03*
X5472D02*
D03*
X5157D02*
D03*
X4843D02*
D03*
X7362Y9409D02*
D03*
X7047D02*
D03*
X6732D02*
D03*
X5472D02*
D03*
X5157D02*
D03*
X4843D02*
D03*
X7362Y9724D02*
D03*
X7047D02*
D03*
X6732D02*
D03*
X5472D02*
D03*
X5157D02*
D03*
X4843D02*
D03*
X7362Y10039D02*
D03*
X7047D02*
D03*
X6732D02*
D03*
X5472D02*
D03*
X5157D02*
D03*
X4843D02*
D03*
X7362Y10354D02*
D03*
X7047D02*
D03*
X6732D02*
D03*
X5472D02*
D03*
X5157D02*
D03*
X4843D02*
D03*
X7362Y10669D02*
D03*
X7047D02*
D03*
X6732D02*
D03*
X5472D02*
D03*
X5157D02*
D03*
X4843D02*
D03*
D21*
X27795Y11142D02*
D03*
Y10512D02*
D03*
X6654Y4134D02*
D03*
Y4764D02*
D03*
X7126D02*
D03*
Y4134D02*
D03*
X29961Y11142D02*
D03*
Y10512D02*
D03*
X28976D02*
D03*
Y11142D02*
D03*
X30945D02*
D03*
Y10512D02*
D03*
X26811D02*
D03*
Y11142D02*
D03*
D22*
X12205Y11437D02*
D03*
Y11083D02*
D03*
D23*
X25886Y4797D02*
D03*
X26280D02*
D03*
X26673D02*
D03*
X27067D02*
D03*
X27461D02*
D03*
X27854D02*
D03*
X28248D02*
D03*
X28642D02*
D03*
X29035D02*
D03*
X29429D02*
D03*
X29823D02*
D03*
X30217D02*
D03*
X25886Y9297D02*
D03*
X26280D02*
D03*
X26673D02*
D03*
X27067D02*
D03*
X27461D02*
D03*
X27854D02*
D03*
X28248D02*
D03*
X28642D02*
D03*
X29035D02*
D03*
X29429D02*
D03*
X29823D02*
D03*
X30217D02*
D03*
D24*
X2956Y2632D02*
D03*
X3153D02*
D03*
X3350D02*
D03*
X3547D02*
D03*
X3744D02*
D03*
Y4168D02*
D03*
X3547D02*
D03*
X3350D02*
D03*
X3153D02*
D03*
X2956D02*
D03*
D25*
X4118Y3006D02*
D03*
Y3203D02*
D03*
Y3400D02*
D03*
Y3597D02*
D03*
Y3794D02*
D03*
X2582D02*
D03*
Y3597D02*
D03*
Y3400D02*
D03*
Y3203D02*
D03*
Y3006D02*
D03*
D26*
X3350Y3400D02*
D03*
D27*
X22608Y4360D02*
D03*
X22864D02*
D03*
X23120D02*
D03*
X23376D02*
D03*
Y5797D02*
D03*
X23120D02*
D03*
X22864D02*
D03*
X22608D02*
D03*
D28*
X23711Y4695D02*
D03*
Y4951D02*
D03*
Y5207D02*
D03*
Y5463D02*
D03*
X22274D02*
D03*
Y5207D02*
D03*
Y4951D02*
D03*
Y4695D02*
D03*
D29*
X22992Y5079D02*
D03*
D30*
X10000Y10354D02*
D03*
X10315D02*
D03*
X10630D02*
D03*
X10945D02*
D03*
X11260D02*
D03*
X11575D02*
D03*
X11890D02*
D03*
X12205D02*
D03*
X12520D02*
D03*
X12835D02*
D03*
X13150D02*
D03*
X13465D02*
D03*
X13780D02*
D03*
X14094D02*
D03*
X14409D02*
D03*
X14724D02*
D03*
X15039D02*
D03*
X15354D02*
D03*
X15669D02*
D03*
X15984D02*
D03*
X10000Y10039D02*
D03*
X10315D02*
D03*
X10630D02*
D03*
X10945D02*
D03*
X11260D02*
D03*
X11575D02*
D03*
X11890D02*
D03*
X12205D02*
D03*
X12520D02*
D03*
X12835D02*
D03*
X13150D02*
D03*
X13465D02*
D03*
X13780D02*
D03*
X14094D02*
D03*
X14409D02*
D03*
X14724D02*
D03*
X15039D02*
D03*
X15354D02*
D03*
X15669D02*
D03*
X15984D02*
D03*
X10000Y9724D02*
D03*
X10315D02*
D03*
X10630D02*
D03*
X10945D02*
D03*
X11260D02*
D03*
X11575D02*
D03*
X11890D02*
D03*
X12205D02*
D03*
X12520D02*
D03*
X12835D02*
D03*
X13150D02*
D03*
X13465D02*
D03*
X13780D02*
D03*
X14094D02*
D03*
X14409D02*
D03*
X14724D02*
D03*
X15039D02*
D03*
X15354D02*
D03*
X15669D02*
D03*
X15984D02*
D03*
X10000Y9409D02*
D03*
X10315D02*
D03*
X10630D02*
D03*
X10945D02*
D03*
X11260D02*
D03*
X11575D02*
D03*
X11890D02*
D03*
X12205D02*
D03*
X12520D02*
D03*
X12835D02*
D03*
X13150D02*
D03*
X13465D02*
D03*
X13780D02*
D03*
X14094D02*
D03*
X14409D02*
D03*
X14724D02*
D03*
X15039D02*
D03*
X15354D02*
D03*
X15669D02*
D03*
X15984D02*
D03*
X10000Y9094D02*
D03*
X10315D02*
D03*
X10630D02*
D03*
X10945D02*
D03*
X11260D02*
D03*
X11575D02*
D03*
X11890D02*
D03*
X12205D02*
D03*
X12520D02*
D03*
X12835D02*
D03*
X13150D02*
D03*
X13465D02*
D03*
X13780D02*
D03*
X14094D02*
D03*
X14409D02*
D03*
X14724D02*
D03*
X15039D02*
D03*
X15354D02*
D03*
X15669D02*
D03*
X15984D02*
D03*
X10000Y8780D02*
D03*
X10315D02*
D03*
X10630D02*
D03*
X10945D02*
D03*
X11260D02*
D03*
X11575D02*
D03*
X11890D02*
D03*
X12205D02*
D03*
X12520D02*
D03*
X12835D02*
D03*
X13150D02*
D03*
X13465D02*
D03*
X13780D02*
D03*
X14094D02*
D03*
X14409D02*
D03*
X14724D02*
D03*
X15039D02*
D03*
X15354D02*
D03*
X15669D02*
D03*
X15984D02*
D03*
X10000Y8465D02*
D03*
X10315D02*
D03*
X10630D02*
D03*
X10945D02*
D03*
X11260D02*
D03*
X11575D02*
D03*
X11890D02*
D03*
X12205D02*
D03*
X12520D02*
D03*
X12835D02*
D03*
X13150D02*
D03*
X13465D02*
D03*
X13780D02*
D03*
X14094D02*
D03*
X14409D02*
D03*
X14724D02*
D03*
X15039D02*
D03*
X15354D02*
D03*
X15669D02*
D03*
X15984D02*
D03*
X10000Y8150D02*
D03*
X10315D02*
D03*
X10630D02*
D03*
X10945D02*
D03*
X11260D02*
D03*
X11575D02*
D03*
X11890D02*
D03*
X12205D02*
D03*
X12520D02*
D03*
X12835D02*
D03*
X13150D02*
D03*
X13465D02*
D03*
X13780D02*
D03*
X14094D02*
D03*
X14409D02*
D03*
X14724D02*
D03*
X15039D02*
D03*
X15354D02*
D03*
X15669D02*
D03*
X15984D02*
D03*
X10000Y7835D02*
D03*
X10315D02*
D03*
X10630D02*
D03*
X10945D02*
D03*
X11260D02*
D03*
X11575D02*
D03*
X11890D02*
D03*
X12205D02*
D03*
X12520D02*
D03*
X12835D02*
D03*
X13150D02*
D03*
X13465D02*
D03*
X13780D02*
D03*
X14094D02*
D03*
X14409D02*
D03*
X14724D02*
D03*
X15039D02*
D03*
X15354D02*
D03*
X15669D02*
D03*
X15984D02*
D03*
X10000Y7520D02*
D03*
X10315D02*
D03*
X10630D02*
D03*
X10945D02*
D03*
X11260D02*
D03*
X11575D02*
D03*
X11890D02*
D03*
X12205D02*
D03*
X12520D02*
D03*
X12835D02*
D03*
X13150D02*
D03*
X13465D02*
D03*
X13780D02*
D03*
X14094D02*
D03*
X14409D02*
D03*
X14724D02*
D03*
X15039D02*
D03*
X15354D02*
D03*
X15669D02*
D03*
X15984D02*
D03*
X10000Y7205D02*
D03*
X10315D02*
D03*
X10630D02*
D03*
X10945D02*
D03*
X11260D02*
D03*
X11575D02*
D03*
X11890D02*
D03*
X12205D02*
D03*
X12520D02*
D03*
X12835D02*
D03*
X13150D02*
D03*
X13465D02*
D03*
X13780D02*
D03*
X14094D02*
D03*
X14409D02*
D03*
X14724D02*
D03*
X15039D02*
D03*
X15354D02*
D03*
X15669D02*
D03*
X15984D02*
D03*
X10000Y6890D02*
D03*
X10315D02*
D03*
X10630D02*
D03*
X10945D02*
D03*
X11260D02*
D03*
X11575D02*
D03*
X11890D02*
D03*
X12205D02*
D03*
X12520D02*
D03*
X12835D02*
D03*
X13150D02*
D03*
X13465D02*
D03*
X13780D02*
D03*
X14094D02*
D03*
X14409D02*
D03*
X14724D02*
D03*
X15039D02*
D03*
X15354D02*
D03*
X15669D02*
D03*
X15984D02*
D03*
X10000Y6575D02*
D03*
X10315D02*
D03*
X10630D02*
D03*
X10945D02*
D03*
X11260D02*
D03*
X11575D02*
D03*
X11890D02*
D03*
X12205D02*
D03*
X12520D02*
D03*
X12835D02*
D03*
X13150D02*
D03*
X13465D02*
D03*
X13780D02*
D03*
X14094D02*
D03*
X14409D02*
D03*
X14724D02*
D03*
X15039D02*
D03*
X15354D02*
D03*
X15669D02*
D03*
X15984D02*
D03*
X10000Y6260D02*
D03*
X10315D02*
D03*
X10630D02*
D03*
X10945D02*
D03*
X11260D02*
D03*
X11575D02*
D03*
X11890D02*
D03*
X12205D02*
D03*
X12520D02*
D03*
X12835D02*
D03*
X13150D02*
D03*
X13465D02*
D03*
X13780D02*
D03*
X14094D02*
D03*
X14409D02*
D03*
X14724D02*
D03*
X15039D02*
D03*
X15354D02*
D03*
X15669D02*
D03*
X15984D02*
D03*
X10000Y5945D02*
D03*
X10315D02*
D03*
X10630D02*
D03*
X10945D02*
D03*
X11260D02*
D03*
X11575D02*
D03*
X11890D02*
D03*
X12205D02*
D03*
X12520D02*
D03*
X12835D02*
D03*
X13150D02*
D03*
X13465D02*
D03*
X13780D02*
D03*
X14094D02*
D03*
X14409D02*
D03*
X14724D02*
D03*
X15039D02*
D03*
X15354D02*
D03*
X15669D02*
D03*
X15984D02*
D03*
X10000Y5630D02*
D03*
X10315D02*
D03*
X10630D02*
D03*
X10945D02*
D03*
X11260D02*
D03*
X11575D02*
D03*
X11890D02*
D03*
X12205D02*
D03*
X12520D02*
D03*
X12835D02*
D03*
X13150D02*
D03*
X13465D02*
D03*
X13780D02*
D03*
X14094D02*
D03*
X14409D02*
D03*
X14724D02*
D03*
X15039D02*
D03*
X15354D02*
D03*
X15669D02*
D03*
X15984D02*
D03*
X10000Y5315D02*
D03*
X10315D02*
D03*
X10630D02*
D03*
X10945D02*
D03*
X11260D02*
D03*
X11575D02*
D03*
X11890D02*
D03*
X12205D02*
D03*
X12520D02*
D03*
X12835D02*
D03*
X13150D02*
D03*
X13465D02*
D03*
X13780D02*
D03*
X14094D02*
D03*
X14409D02*
D03*
X14724D02*
D03*
X15039D02*
D03*
X15354D02*
D03*
X15669D02*
D03*
X15984D02*
D03*
X10000Y5000D02*
D03*
X10315D02*
D03*
X10630D02*
D03*
X10945D02*
D03*
X11260D02*
D03*
X11575D02*
D03*
X11890D02*
D03*
X12205D02*
D03*
X12520D02*
D03*
X12835D02*
D03*
X13150D02*
D03*
X13465D02*
D03*
X13780D02*
D03*
X14094D02*
D03*
X14409D02*
D03*
X14724D02*
D03*
X15039D02*
D03*
X15354D02*
D03*
X15669D02*
D03*
X15984D02*
D03*
X10000Y4685D02*
D03*
X10315D02*
D03*
X10630D02*
D03*
X10945D02*
D03*
X11260D02*
D03*
X11575D02*
D03*
X11890D02*
D03*
X12205D02*
D03*
X12520D02*
D03*
X12835D02*
D03*
X13150D02*
D03*
X13465D02*
D03*
X13780D02*
D03*
X14094D02*
D03*
X14409D02*
D03*
X14724D02*
D03*
X15039D02*
D03*
X15354D02*
D03*
X15669D02*
D03*
X15984D02*
D03*
X10000Y4370D02*
D03*
X10315D02*
D03*
X10630D02*
D03*
X10945D02*
D03*
X11260D02*
D03*
X11575D02*
D03*
X11890D02*
D03*
X12205D02*
D03*
X12520D02*
D03*
X12835D02*
D03*
X13150D02*
D03*
X13465D02*
D03*
X13780D02*
D03*
X14094D02*
D03*
X14409D02*
D03*
X14724D02*
D03*
X15039D02*
D03*
X15354D02*
D03*
X15669D02*
D03*
X15984D02*
D03*
D31*
X22077Y7165D02*
D03*
X23041D02*
D03*
X9144Y10512D02*
D03*
X8179D02*
D03*
X17510Y8150D02*
D03*
X18474D02*
D03*
D32*
X3484Y10866D02*
D03*
X2736D02*
D03*
X16083Y11220D02*
D03*
X15335D02*
D03*
D33*
X1614Y11033D02*
D03*
Y10069D02*
D03*
X20866Y4321D02*
D03*
Y5285D02*
D03*
X17480Y6289D02*
D03*
Y7254D02*
D03*
X18740Y6624D02*
D03*
Y5659D02*
D03*
D34*
X28543Y10600D02*
D03*
Y10344D02*
D03*
X1024Y9242D02*
D03*
Y9498D02*
D03*
X19685Y4281D02*
D03*
Y4537D02*
D03*
X24134Y4616D02*
D03*
Y4360D02*
D03*
X30512Y10344D02*
D03*
Y10600D02*
D03*
X29528D02*
D03*
Y10344D02*
D03*
X5354Y2234D02*
D03*
Y2490D02*
D03*
D35*
X24970Y9606D02*
D03*
X24715D02*
D03*
X30325Y2047D02*
D03*
X30069D02*
D03*
X30128Y2323D02*
D03*
X29872D02*
D03*
X29321D02*
D03*
X29577D02*
D03*
X29124Y2047D02*
D03*
X29380D02*
D03*
X30325Y1772D02*
D03*
X30069D02*
D03*
X30128Y2598D02*
D03*
X29872D02*
D03*
X29321D02*
D03*
X29577D02*
D03*
X29124Y1772D02*
D03*
X29380D02*
D03*
X18770Y10118D02*
D03*
X19026D02*
D03*
X24970Y9331D02*
D03*
X24715D02*
D03*
X24281Y7835D02*
D03*
X24537D02*
D03*
X25659Y9882D02*
D03*
X25915D02*
D03*
X27037Y9882D02*
D03*
X27293D02*
D03*
X28022Y9882D02*
D03*
X28278D02*
D03*
X29459D02*
D03*
X29203D02*
D03*
X2077Y4803D02*
D03*
X2333D02*
D03*
X2878Y2200D02*
D03*
X2622D02*
D03*
X3372Y2200D02*
D03*
X3628D02*
D03*
D36*
X18071Y10348D02*
D03*
Y10675D02*
D03*
X25000Y8628D02*
D03*
Y8301D02*
D03*
X23937Y8195D02*
D03*
Y7868D02*
D03*
Y8825D02*
D03*
Y8498D02*
D03*
X20039Y10978D02*
D03*
Y11305D02*
D03*
X18465D02*
D03*
Y10978D02*
D03*
X30787Y2907D02*
D03*
Y3234D02*
D03*
X30315D02*
D03*
Y2907D02*
D03*
X25354Y2132D02*
D03*
Y1805D02*
D03*
X25039Y2132D02*
D03*
Y1805D02*
D03*
X24724Y2132D02*
D03*
Y1805D02*
D03*
X24409Y2132D02*
D03*
Y1805D02*
D03*
X24094Y2132D02*
D03*
Y1805D02*
D03*
X23780Y2132D02*
D03*
Y1805D02*
D03*
X23465Y2132D02*
D03*
Y1805D02*
D03*
X23150Y2132D02*
D03*
Y1805D02*
D03*
X22835Y2132D02*
D03*
Y1805D02*
D03*
X22520Y2132D02*
D03*
Y1805D02*
D03*
X22205Y2132D02*
D03*
Y1805D02*
D03*
X21890Y2132D02*
D03*
Y1805D02*
D03*
X21575Y2132D02*
D03*
Y1805D02*
D03*
X21260Y2132D02*
D03*
Y1805D02*
D03*
X20945Y2132D02*
D03*
Y1805D02*
D03*
X20630Y2132D02*
D03*
Y1805D02*
D03*
X27362D02*
D03*
Y2132D02*
D03*
X27047D02*
D03*
Y1805D02*
D03*
X26732D02*
D03*
Y2132D02*
D03*
X26417Y1805D02*
D03*
Y2132D02*
D03*
X25669D02*
D03*
Y1805D02*
D03*
X16378Y2132D02*
D03*
Y1805D02*
D03*
X16063D02*
D03*
Y2132D02*
D03*
X10354Y2159D02*
D03*
Y2486D02*
D03*
X10039D02*
D03*
Y2159D02*
D03*
X9724D02*
D03*
Y2486D02*
D03*
X9409D02*
D03*
Y2159D02*
D03*
X8071D02*
D03*
Y2486D02*
D03*
X7756D02*
D03*
Y2159D02*
D03*
X7441D02*
D03*
Y2486D02*
D03*
X7126D02*
D03*
Y2159D02*
D03*
X6811D02*
D03*
Y2486D02*
D03*
X6220Y4730D02*
D03*
Y4404D02*
D03*
X7559D02*
D03*
Y4730D02*
D03*
X20906Y7722D02*
D03*
Y7396D02*
D03*
X24213Y6069D02*
D03*
Y5742D02*
D03*
X20906Y7093D02*
D03*
Y6766D02*
D03*
X29528Y11266D02*
D03*
Y10939D02*
D03*
X28543D02*
D03*
Y11266D02*
D03*
X30512D02*
D03*
Y10939D02*
D03*
X25000Y7671D02*
D03*
Y7998D02*
D03*
X5354Y3852D02*
D03*
Y4179D02*
D03*
X1500Y2937D02*
D03*
Y3263D02*
D03*
X1496Y2250D02*
D03*
Y1923D02*
D03*
X28780Y3116D02*
D03*
Y2789D02*
D03*
X24331Y9219D02*
D03*
Y8892D02*
D03*
X2559Y9876D02*
D03*
Y10203D02*
D03*
X24134Y4915D02*
D03*
Y5242D02*
D03*
X21220Y6766D02*
D03*
Y7093D02*
D03*
X19094Y7081D02*
D03*
Y7407D02*
D03*
X24488Y4730D02*
D03*
Y4404D02*
D03*
X12835Y11423D02*
D03*
Y11096D02*
D03*
X18386Y7407D02*
D03*
Y7081D02*
D03*
X18740D02*
D03*
Y7407D02*
D03*
X26378Y10663D02*
D03*
Y10990D02*
D03*
X27362D02*
D03*
Y10663D02*
D03*
X13150Y2571D02*
D03*
Y2244D02*
D03*
X12835D02*
D03*
Y2571D02*
D03*
X12520D02*
D03*
Y2244D02*
D03*
X12205D02*
D03*
Y2571D02*
D03*
X11890D02*
D03*
Y2244D02*
D03*
X10669Y2159D02*
D03*
Y2486D02*
D03*
X28819Y1923D02*
D03*
Y2250D02*
D03*
X24764Y7041D02*
D03*
Y7368D02*
D03*
X24409Y7041D02*
D03*
Y7368D02*
D03*
D37*
X3386Y9173D02*
D03*
Y9961D02*
D03*
X17480Y5433D02*
D03*
Y4646D02*
D03*
D38*
X5315Y1850D02*
D03*
X4961D02*
D03*
D39*
X21142Y11181D02*
D03*
X20512D02*
D03*
X18937D02*
D03*
X19567D02*
D03*
D40*
X17441Y3976D02*
D03*
Y3228D02*
D03*
X19803Y6240D02*
D03*
Y5492D02*
D03*
D41*
X22677Y9803D02*
X23427Y9053D01*
X24606Y7368D02*
X24764D01*
X24409D02*
X24606D01*
X24409Y7041D02*
X24764D01*
X11563Y11299D02*
Y11575D01*
X24882Y11299D02*
X25033Y11451D01*
Y11457D01*
X25512D02*
X25551Y11496D01*
X25360Y11457D02*
X25512D01*
X12835Y10866D02*
Y11096D01*
X19449Y9528D02*
Y9744D01*
X13104Y11423D02*
X13110Y11417D01*
X20118Y10118D02*
X20394D01*
X6614Y3858D02*
Y4016D01*
X7126Y3858D02*
Y4016D01*
X1458Y3819D02*
X1500Y3777D01*
X1339Y3819D02*
X1458D01*
X2795Y1654D02*
Y1844D01*
X2474Y1699D02*
Y1850D01*
Y1699D02*
X2520Y1654D01*
X6102Y5433D02*
Y7205D01*
Y8150D01*
X12835Y11423D02*
X13104D01*
X13982Y11195D02*
Y11530D01*
Y11195D02*
X13996Y11181D01*
X24331Y9219D02*
X24522D01*
X24528Y9213D01*
X24679Y9061D01*
Y9016D02*
Y9061D01*
X24528Y9213D02*
X24596D01*
X24715Y9331D01*
X24004Y8892D02*
X24331D01*
X23937Y8825D02*
X24004Y8892D01*
X27480Y9882D02*
X27835D01*
X27835Y9882D01*
X23427Y8732D02*
Y9053D01*
X19567Y11181D02*
X19567Y11181D01*
X19567Y10866D02*
Y11181D01*
X21142Y10866D02*
Y11181D01*
X21142Y10866D02*
X21142Y10866D01*
X23937Y8825D02*
Y9055D01*
X18071Y10157D02*
Y10348D01*
X13346Y10866D02*
Y10990D01*
X13537Y11181D01*
D42*
X23120Y4951D02*
X23711D01*
X3567Y3183D02*
X3744Y3006D01*
X3350Y3400D02*
X3744Y3794D01*
X3547Y2632D02*
Y3183D01*
X2474Y2052D02*
X2573Y2151D01*
X2446Y2200D02*
X2474Y2171D01*
X2559Y2983D02*
X2559Y2983D01*
X16887Y10863D02*
X17041Y10709D01*
X16884Y10866D02*
X16887Y10863D01*
X20048Y7686D02*
X20669Y8307D01*
X20039Y7677D02*
X20048Y7686D01*
X24337Y7441D02*
X24409Y7368D01*
X24173Y7441D02*
X24337D01*
X11654Y394D02*
Y551D01*
X22677Y9370D02*
Y9803D01*
Y8392D02*
Y9370D01*
X2617Y2205D02*
X2617D01*
X2617D02*
X2622Y2200D01*
X2480Y2205D02*
X2617D01*
X2474Y2052D02*
Y2171D01*
Y1850D02*
Y2052D01*
X29370Y10600D02*
X29528D01*
X11732Y6102D02*
X11890Y6260D01*
X11890D01*
X11575Y5630D02*
Y5630D01*
X11732Y5787D01*
X11732D02*
X11732D01*
X11575Y5945D02*
X11732Y5787D01*
X11417Y6102D02*
X11417D01*
X11575Y6260D01*
Y6260D01*
X11102Y8622D02*
Y8628D01*
Y8622D02*
X11260Y8465D01*
X11102Y9252D02*
Y9252D01*
Y9252D02*
X11260Y9094D01*
X22677Y8392D02*
X22762Y8307D01*
X16884Y10866D02*
X16890D01*
X2450Y2205D02*
X2480D01*
X2446Y2200D02*
X2450Y2205D01*
X15354Y7205D02*
X15512Y7362D01*
X15354Y7205D02*
Y7205D01*
X13622Y8307D02*
X13622D01*
X13780Y8465D01*
X21102Y984D02*
X21142Y1024D01*
Y1102D01*
X21220Y1181D01*
X21811Y984D02*
X21850Y1024D01*
Y1102D01*
X22559D02*
X22638Y1181D01*
X22559Y1024D02*
Y1102D01*
X22520Y984D02*
X22559Y1024D01*
X22520Y551D02*
Y984D01*
X14567Y8622D02*
X14724Y8465D01*
X15354Y8780D02*
X15512Y8622D01*
X27362Y10990D02*
Y11417D01*
X30354Y10600D02*
X30512D01*
X14567Y6102D02*
Y6102D01*
X14409Y5945D02*
X14567Y6102D01*
X14882Y6102D02*
X15039Y6260D01*
X11654Y551D02*
Y945D01*
X10787Y5157D02*
X10945Y5000D01*
Y5000D02*
Y5000D01*
X10157Y4528D02*
X10157D01*
X10315Y4685D01*
X11102Y4213D02*
X11102D01*
X11260Y4370D01*
X11417Y5157D02*
X11575Y5315D01*
X5354Y2490D02*
Y2677D01*
X2617Y2205D02*
X2622Y2200D01*
X2795Y1844D02*
X2801Y1850D01*
X13307Y6417D02*
X13465Y6575D01*
X13307Y6417D02*
X13307D01*
X13150Y6260D02*
X13307Y6417D01*
X15197Y10512D02*
X15354Y10354D01*
X13150Y10039D02*
X13307Y10197D01*
X10000Y5315D02*
X10157Y5157D01*
X6890Y7047D02*
Y7047D01*
X5315Y7677D02*
X5315D01*
X5157Y7835D02*
X5315Y7677D01*
Y7992D02*
X5315D01*
X5157Y8150D02*
X5315Y7992D01*
X10472Y5787D02*
Y5787D01*
Y5787D02*
X10630Y5630D01*
X11102Y5787D02*
X11260Y5945D01*
X11260D01*
X7362Y7205D02*
X7520Y7362D01*
X10315Y7835D02*
X10472Y7677D01*
Y7362D02*
Y7362D01*
Y7362D02*
X10630Y7205D01*
X9843Y6732D02*
X10000Y6890D01*
X7047Y7835D02*
X7047D01*
X11732Y6417D02*
X11890Y6575D01*
X10315Y6260D02*
X10472Y6417D01*
X11417Y9882D02*
X11575Y10039D01*
X11575D01*
X11890Y7205D02*
X12047Y7362D01*
X11575Y7520D02*
X11732Y7362D01*
X11575Y6890D02*
X11732Y6732D01*
X12992Y5472D02*
X13150Y5315D01*
X13307Y5472D01*
X12835Y6260D02*
X12835D01*
X12205Y6890D02*
Y6890D01*
X12520Y6575D02*
X12520D01*
X12362Y5787D02*
X12362D01*
X12205Y5630D02*
X12362Y5787D01*
X12205Y6260D02*
Y6260D01*
X14567Y7047D02*
X14724Y6890D01*
X12835Y6260D02*
X12992Y6417D01*
X13150Y6575D01*
X13307Y7047D02*
Y7047D01*
X13150Y7205D02*
X13307Y7047D01*
X13780Y5945D02*
X13937Y6102D01*
X13780Y6575D02*
X13937Y6732D01*
X13465Y6260D02*
X13622Y6417D01*
X13780Y6575D01*
X13780D01*
Y7205D02*
X13937Y7362D01*
X13622Y7677D02*
X13780Y7835D01*
X13465Y7520D02*
X13622Y7677D01*
X5315Y1850D02*
X5354Y1890D01*
X2717Y2638D02*
X2951D01*
X2559Y2795D02*
X2717Y2638D01*
X2559Y2795D02*
Y2795D01*
X2951Y2638D02*
X2956Y2632D01*
X2559Y2795D02*
Y2983D01*
X2559Y2983D02*
X2582Y3006D01*
X1496Y551D02*
Y1791D01*
X1496Y1791D02*
X1496Y1791D01*
X2801Y1850D02*
X2878Y1927D01*
X10630Y7205D02*
Y7205D01*
X10315Y9409D02*
X10472Y9567D01*
X10630Y10354D02*
Y10354D01*
X10472Y10197D02*
X10630Y10354D01*
X12677Y4528D02*
X12835Y4370D01*
X12677Y4528D02*
X12677D01*
X13150Y5315D02*
X13307Y5157D01*
Y5157D02*
Y5157D01*
X13937Y5157D02*
X14094Y5000D01*
X15039Y4685D02*
X15039D01*
X14882Y4843D02*
X15039Y4685D01*
X15354Y5630D02*
X15512Y5787D01*
X15512D01*
Y6732D02*
X15669Y6575D01*
X15984Y7520D02*
X15984D01*
X15827Y7362D02*
X15984Y7520D01*
X15039Y7835D02*
X15197Y7992D01*
X15984Y4370D02*
X15984D01*
X15827Y4528D02*
X15984Y4370D01*
X15669Y9724D02*
X15827Y9567D01*
Y9567D02*
Y9567D01*
X14409Y9094D02*
X14567Y9252D01*
Y9882D02*
X14724Y10039D01*
X14094Y8150D02*
X14252Y8307D01*
X13465Y8150D02*
X13622Y8307D01*
X13150Y8465D02*
X13307Y8622D01*
X11890Y7835D02*
Y7835D01*
Y7835D02*
X12047Y7677D01*
X11890Y8465D02*
X12047Y8307D01*
X12205Y8150D02*
X12362Y8307D01*
X12362D01*
X12520Y8465D01*
X12205Y8780D02*
X12362Y8937D01*
X12205Y8465D02*
X12362Y8622D01*
X12835Y8150D02*
X12992Y8307D01*
X13150Y8465D01*
X11575Y8150D02*
X11732Y8307D01*
X11890Y9409D02*
X12047Y9567D01*
X11575Y10039D02*
X11732Y10197D01*
X11575Y5630D02*
X11732Y5472D01*
X10787Y6417D02*
Y6417D01*
X3969Y2316D02*
X3976Y2323D01*
X3744Y2316D02*
X3969D01*
X3628Y2200D02*
X3744Y2316D01*
X11890Y8150D02*
Y8150D01*
X11890Y7520D02*
X11890D01*
X12362Y7362D02*
X12520Y7520D01*
X12362Y7362D02*
X12520Y7205D01*
X11890Y6890D02*
X12047Y6732D01*
X12677Y6732D02*
X12835Y6575D01*
X11890Y5630D02*
Y5630D01*
X12205Y5945D02*
Y5945D01*
X12362Y4843D02*
X12362D01*
X12520Y5000D01*
X14409Y7520D02*
X14567Y7362D01*
X12835Y6575D02*
X12992Y6732D01*
X13150Y6890D01*
Y6890D01*
X13937Y6417D02*
X14094Y6575D01*
X13780Y6260D02*
X13937Y6417D01*
X13465Y5945D02*
X13622Y6102D01*
X13780Y6260D01*
X13780Y6890D02*
X13780D01*
X13622Y6732D02*
X13780Y6890D01*
X13465Y6575D02*
X13622Y6732D01*
X13465Y7205D02*
X13622Y7047D01*
X13780Y6890D01*
Y7520D02*
X13780D01*
X13622Y7362D02*
X13780Y7520D01*
X13465Y7205D02*
X13622Y7362D01*
X13780Y7520D02*
X13937Y7677D01*
X3628Y2047D02*
Y2200D01*
X3431Y1850D02*
X3628Y2047D01*
X3744Y2316D02*
Y2632D01*
X1500Y3263D02*
Y3777D01*
X3744Y3794D02*
X4118D01*
X3744Y2632D02*
Y3006D01*
X3350Y3400D02*
X3567Y3183D01*
X10787Y6417D02*
X10945Y6575D01*
X10630Y8780D02*
Y8780D01*
X10472Y8622D02*
X10630Y8780D01*
X10787Y9567D02*
X10945Y9724D01*
X10000Y10039D02*
X10157Y10197D01*
X12520Y5000D02*
X12677Y4843D01*
X13465Y4685D02*
X13465D01*
X13307Y4843D02*
X13465Y4685D01*
X13780Y5630D02*
Y5630D01*
Y5630D02*
X13937Y5472D01*
X14724Y5315D02*
Y5315D01*
Y5315D02*
X14882Y5157D01*
X15669Y8150D02*
Y8150D01*
X15512Y7992D02*
X15669Y8150D01*
Y5000D02*
X15827Y4843D01*
X15827Y9252D02*
X15984Y9094D01*
X15827Y9252D02*
X15827D01*
X14882D02*
X15039Y9409D01*
X14094Y9724D02*
X14252Y9882D01*
X13780Y8150D02*
X13937Y8307D01*
X13465Y8465D02*
X13622Y8622D01*
X13150Y8780D02*
X13307Y8937D01*
X11890Y8780D02*
X12047Y8622D01*
X12835Y8465D02*
X12992Y8622D01*
X12677Y8307D02*
X12835Y8465D01*
X12677Y8307D02*
X12677D01*
X12520Y8150D02*
X12677Y8307D01*
X11732Y8622D02*
X11890Y8780D01*
Y8780D01*
X12362Y9567D02*
X12520Y9724D01*
X12362Y9567D02*
Y9567D01*
X12205Y10354D02*
Y10354D01*
X12047Y10197D02*
X12205Y10354D01*
X12835Y9094D02*
X12992Y8937D01*
X12835Y8780D02*
Y8780D01*
X12992Y8622D02*
X13150Y8780D01*
X12992Y8937D02*
X13150Y8780D01*
X11890Y5630D02*
X12047Y5472D01*
X12677Y6417D02*
X12835Y6260D01*
X12520Y6575D02*
X12677Y6417D01*
Y6732D02*
X12677D01*
X12205Y6890D02*
X12362Y6732D01*
X12520Y6575D01*
X12047Y6732D02*
Y6732D01*
Y6732D02*
X12205Y6575D01*
Y6260D02*
X12362Y6417D01*
X12677Y6102D02*
X12835Y6260D01*
X12520Y5945D02*
X12677Y6102D01*
X11890Y4685D02*
X12047Y4843D01*
X11890Y6260D02*
X12047Y6417D01*
X12205Y6575D01*
X11732Y5472D02*
Y5472D01*
X12205Y7520D02*
X12362Y7677D01*
X12520Y7520D02*
X12677Y7362D01*
X12362D02*
X12362D01*
X12205Y7205D02*
X12362Y7362D01*
X11575Y6575D02*
X11732Y6732D01*
Y6732D01*
Y6417D02*
X11732D01*
Y7992D02*
X11890Y7835D01*
X11732Y7992D02*
X11732D01*
X11890Y8150D02*
X12047Y7992D01*
X12205Y7835D01*
Y5945D02*
X12362Y6102D01*
X12520Y6260D01*
X12047Y6102D02*
X12205Y6260D01*
X11890Y5945D02*
X12047Y6102D01*
X11890Y5630D02*
X12047Y5787D01*
X12047D02*
X12205Y5945D01*
X12047Y5787D02*
X12047D01*
X11102Y7677D02*
X11260Y7520D01*
X11732Y7677D02*
X11890Y7520D01*
X4843Y8465D02*
X5000Y8307D01*
X5157Y8150D02*
X5315Y8307D01*
X4685Y10827D02*
X4843Y10669D01*
X4685Y10827D02*
Y10827D01*
X4843Y10354D02*
Y10354D01*
X4685Y10512D02*
X4843Y10354D01*
X4685Y10197D02*
X4843Y10039D01*
Y9724D02*
Y9724D01*
X4685Y9882D02*
X4843Y9724D01*
X5315Y10197D02*
X5472Y10354D01*
X5315Y10197D02*
Y10197D01*
X5000Y10197D02*
X5157Y10354D01*
X4685Y9567D02*
X4843Y9409D01*
X4685Y9567D02*
Y9567D01*
Y9252D02*
X4843Y9094D01*
X4685Y9252D02*
Y9252D01*
X5000Y9882D02*
X5157Y9724D01*
X5000Y9882D02*
Y9882D01*
X4843Y10039D02*
X5000Y9882D01*
X4843Y10039D02*
X4843D01*
X5000Y9567D02*
X5157Y9409D01*
X5000Y9567D02*
Y9567D01*
X5000D02*
X5000D01*
X4843Y9724D02*
X5000Y9567D01*
X4685Y8622D02*
X4843Y8780D01*
X5000Y8622D02*
X5157Y8465D01*
X4685Y7047D02*
X4843Y7205D01*
X4685Y6732D02*
X4843Y6890D01*
X4685Y6417D02*
X4843Y6575D01*
X4685Y6102D02*
X4843Y6260D01*
X4685Y5787D02*
X4843Y5945D01*
X7047Y10669D02*
X7205Y10827D01*
X7362Y10669D02*
X7520Y10827D01*
X7362Y10354D02*
X7520Y10512D01*
X7362Y10039D02*
X7520Y10197D01*
X7362Y9724D02*
X7520Y9882D01*
X7362Y10039D02*
X7520Y9882D01*
X7362Y10039D02*
X7362D01*
X7362Y9409D02*
X7520Y9567D01*
X7362Y9724D02*
X7520Y9567D01*
X7362Y9724D02*
X7362D01*
X7047D02*
X7205Y9882D01*
X7047Y9409D02*
X7205Y9567D01*
X7205D02*
X7205D01*
X7047Y9724D02*
X7205Y9567D01*
X7205Y9252D02*
X7362Y9094D01*
X7205Y9252D02*
Y9252D01*
X7047Y9409D02*
X7205Y9252D01*
X7047Y9409D02*
X7047D01*
X6732Y8780D02*
X6732D01*
X6890Y8622D01*
X7047Y8780D02*
X7205Y8622D01*
X7205D01*
X7362Y8780D01*
X7520Y8937D01*
X7520D02*
X7520D01*
X7362Y9094D02*
X7520Y8937D01*
X7362Y8465D02*
X7520Y8622D01*
X7520D01*
X7047Y8150D02*
X7205Y8307D01*
X7047Y7835D02*
X7205Y7992D01*
X7362Y6890D02*
X7520Y6732D01*
X7520D01*
X7362Y6575D02*
X7362D01*
X7520Y6417D01*
X7362Y6260D02*
X7362D01*
X7520Y6102D01*
X7362Y5945D02*
X7362D01*
X7520Y5787D01*
X10945Y8150D02*
X11102Y8307D01*
Y8307D01*
X10000Y8465D02*
X10157Y8622D01*
X2671Y4770D02*
X2956Y4485D01*
X2671Y4770D02*
Y4803D01*
X2956Y4168D02*
Y4485D01*
X5354Y3661D02*
Y3852D01*
X2333Y4803D02*
X2671D01*
X2077Y4990D02*
X2087Y5000D01*
Y4813D02*
Y5000D01*
X2077Y4803D02*
X2087Y4813D01*
X2677Y4809D02*
Y5000D01*
X2671Y4803D02*
X2677Y4809D01*
X13150Y8150D02*
X13307Y8307D01*
X13150Y9094D02*
X13307Y9252D01*
Y9252D01*
X9404Y2480D02*
X9409Y2486D01*
X14252Y4213D02*
X14409Y4370D01*
X12835Y8780D02*
X12992Y8622D01*
Y8622D02*
Y8622D01*
X25915Y9327D02*
Y9882D01*
X25472D02*
X25659D01*
X27037Y9327D02*
Y9882D01*
Y9327D02*
X27067Y9297D01*
X27293Y9882D02*
X27480D01*
X28278Y9327D02*
Y9882D01*
X28248Y9297D02*
X28278Y9327D01*
X27835Y9882D02*
X28022D01*
X27835Y9882D02*
X27835Y9882D01*
X29459Y9327D02*
Y9882D01*
X29429Y9297D02*
X29459Y9327D01*
X29016Y9882D02*
X29203D01*
X29016Y9882D02*
X29016Y9882D01*
X23392Y8307D02*
Y8697D01*
X23427Y8732D01*
X28386Y10600D02*
X28543D01*
X17368Y10709D02*
X17402D01*
X17559Y10866D01*
X21850Y1102D02*
X21929Y1181D01*
Y1417D01*
X21890Y1457D02*
X21929Y1417D01*
X22638Y1181D02*
Y1417D01*
X22598Y1457D02*
X22638Y1417D01*
X21220Y1181D02*
Y1417D01*
X21181Y1457D02*
X21220Y1417D01*
X15984Y5945D02*
X16142Y6102D01*
Y6102D01*
X18110Y10118D02*
X18770D01*
X22992Y5079D02*
X23120Y4951D01*
X23711D02*
X24098D01*
X24134Y4915D01*
X24303D02*
X24488Y4730D01*
X24134Y4915D02*
X24303D01*
X13307Y6732D02*
X13465Y6890D01*
X11417Y6732D02*
X11575Y6575D01*
X11417Y6732D02*
Y6732D01*
X11575Y6890D01*
X11260Y7520D02*
X11417Y7362D01*
X11417D01*
X11575Y6890D02*
Y6890D01*
X11417Y7047D02*
X11575Y6890D01*
X20669Y8307D02*
X21805D01*
X13465Y9409D02*
Y9409D01*
X13622Y9567D01*
X18071Y10157D02*
X18110Y10118D01*
X12992Y7992D02*
X13150Y8150D01*
X12992Y7992D02*
Y7992D01*
X12835Y7835D02*
X12992Y7992D01*
X12677Y7677D02*
X12835Y7835D01*
X12677Y7677D02*
X12677D01*
X12520Y7520D02*
X12677Y7677D01*
X12520Y7520D02*
Y7520D01*
Y7205D02*
X12677Y7362D01*
X12677D02*
X12835Y7205D01*
X12677Y7362D02*
X12677D01*
X12835Y7520D01*
X13465Y7835D02*
Y7835D01*
X13622Y7992D01*
X13780Y8150D01*
X13780D01*
X12992Y7677D02*
Y7677D01*
X12835Y7835D02*
X12992Y7677D01*
X12835Y7520D02*
X12992Y7677D01*
X13307Y7992D02*
Y7992D01*
X13307D02*
X13307D01*
X13150Y8150D02*
X13307Y7992D01*
X13307Y7992D02*
X13465Y7835D01*
X13150Y7520D02*
X13307Y7362D01*
X13307D01*
X13465Y7205D01*
Y7205D02*
Y7205D01*
Y7205D01*
X12835Y7205D02*
X12992Y7047D01*
X13150Y6890D01*
Y6890D02*
Y6890D01*
X12047Y7047D02*
X12205Y7205D01*
X11890Y6890D02*
X12047Y7047D01*
X11890Y6890D02*
Y6890D01*
X12205Y7205D02*
X12362Y7047D01*
X12362D01*
X12520Y7205D01*
X12677Y7047D01*
X12677D01*
X12835Y7205D01*
X12992Y7362D01*
Y7362D01*
X13150Y7520D01*
X12992Y7677D02*
X13150Y7520D01*
X13150D01*
X12205Y7835D02*
X12362Y7992D01*
X12520Y8150D01*
X13661Y10472D02*
Y10512D01*
Y10472D02*
X13780Y10354D01*
X2878Y1927D02*
Y2200D01*
Y2200D01*
X2956Y2278D02*
Y2632D01*
X2878Y2200D02*
X2956Y2278D01*
X1500Y3263D02*
X1500Y3263D01*
X1496Y1791D02*
Y1923D01*
X1496Y1923D01*
D43*
X1877Y3294D02*
Y3800D01*
X1500Y2933D02*
X1515D01*
X1496D02*
X1500D01*
X28898Y551D02*
Y1299D01*
X27559Y8819D02*
X28346Y8031D01*
X27461Y9297D02*
X27559Y9199D01*
Y8819D02*
Y9199D01*
X29252Y6772D02*
X29823Y7343D01*
X29284Y6567D02*
X30217Y7500D01*
X29823Y7343D02*
Y9297D01*
X28701Y6567D02*
X29284D01*
X30217Y7500D02*
Y9297D01*
X27953Y551D02*
Y2598D01*
X27402D02*
X27756Y2244D01*
X26378Y4094D02*
Y4274D01*
X22427Y8732D02*
X22435Y8724D01*
X22427Y10801D02*
Y10874D01*
X27520Y4094D02*
Y4314D01*
X12677Y9567D02*
Y9567D01*
X30039Y3937D02*
X30217Y4114D01*
X29882Y4094D02*
Y4314D01*
X14409Y10354D02*
X14567Y10512D01*
X14409Y10354D02*
Y10354D01*
X15984Y9724D02*
Y9724D01*
X14567Y8937D02*
Y8937D01*
X7047Y7520D02*
X7205Y7362D01*
X7047Y7520D02*
X7047D01*
X11417Y9567D02*
Y9567D01*
X4118Y3006D02*
X4238D01*
X4038D02*
X4118D01*
X4030Y2998D02*
X4038Y3006D01*
X11575Y8465D02*
X11575D01*
X2998Y4803D02*
Y4994D01*
X2992Y5000D02*
X2998Y4994D01*
X5545Y4179D02*
X5551Y4173D01*
X12362Y5472D02*
X12520Y5630D01*
X11732Y5157D02*
X11890Y5315D01*
X11890D01*
X11732Y4843D02*
X11732D01*
X11890Y5000D01*
X12677Y5157D02*
X12835Y5315D01*
X12835D01*
X12205Y4370D02*
X12362Y4213D01*
X12205Y4370D02*
X12205D01*
X12520D02*
X12677Y4213D01*
X11732Y4528D02*
X11890Y4370D01*
X11417Y4213D02*
X11575Y4370D01*
X11890Y9094D02*
Y9094D01*
X11732Y9252D02*
X11890Y9094D01*
X12205Y10039D02*
X12362Y10197D01*
X11575Y9409D02*
X11575D01*
X11417Y9252D02*
X11575Y9409D01*
X11890Y10039D02*
X11890D01*
X11732Y9882D02*
X11890Y10039D01*
X11890Y10354D02*
X12047Y10512D01*
Y10512D01*
X11260Y10354D02*
X11417Y10512D01*
Y10512D01*
X11575Y10354D02*
X11732Y10512D01*
Y10512D01*
X15039Y10354D02*
X15197Y10197D01*
X15354Y10039D02*
X15512Y9882D01*
X12835Y9409D02*
X12992Y9567D01*
X14094Y9094D02*
X14252Y9252D01*
Y9252D01*
X14094Y8780D02*
X14252Y8937D01*
X13780Y9409D02*
X13937Y9252D01*
X13937D01*
X12992D02*
X13150Y9409D01*
X14724Y10354D02*
X14882Y10197D01*
X15512Y10512D02*
X15669Y10354D01*
X14882Y9882D02*
X15039Y10039D01*
X26280Y4373D02*
X26378Y4274D01*
X26280Y4373D02*
Y4797D01*
X27461Y4373D02*
X27520Y4314D01*
X27461Y4373D02*
Y4797D01*
X27675Y3939D02*
X27854Y4118D01*
Y4797D01*
X28701Y4094D02*
Y4314D01*
X28642Y4373D02*
X28701Y4314D01*
X28642Y4373D02*
Y4797D01*
X28858Y3937D02*
X29035Y4114D01*
Y4797D01*
X29823Y4373D02*
X29882Y4314D01*
X29823Y4373D02*
Y4797D01*
X30217Y4114D02*
Y4797D01*
X28642Y8873D02*
Y9297D01*
X27854Y8839D02*
Y9297D01*
X26260Y9317D02*
Y9882D01*
Y9317D02*
X26280Y9297D01*
X26654Y9317D02*
Y9882D01*
Y9317D02*
X26673Y9297D01*
X28346Y7835D02*
Y8031D01*
X30512Y10939D02*
X30742D01*
X30945Y11142D01*
X29528Y10939D02*
X29758D01*
X29961Y11142D01*
X28543Y10939D02*
X28774D01*
X28976Y11142D01*
X27362Y10663D02*
X27514Y10512D01*
X27795D01*
X18465Y10978D02*
X18734D01*
X18937Y11181D01*
X20039Y10978D02*
X20309D01*
X20512Y11181D01*
X26530Y10512D02*
X26811D01*
X26378Y10663D02*
X26530Y10512D01*
X30787Y551D02*
Y2907D01*
X31024Y3144D01*
X30315Y2907D02*
X30551Y2671D01*
Y551D02*
Y2671D01*
X12520Y8780D02*
X12677Y8937D01*
Y8937D01*
X28622Y591D02*
X28661Y551D01*
X26673Y4079D02*
Y4797D01*
X23711Y5207D02*
X24098D01*
X24134Y5242D01*
X30315Y2907D02*
X30551Y3144D01*
Y5433D01*
X3622Y551D02*
X3671Y600D01*
Y1072D01*
X4921Y2323D01*
Y3189D01*
X4513Y3597D02*
X4921Y3189D01*
X4118Y3597D02*
X4513D01*
X4118Y3400D02*
X4356D01*
X4764Y2992D01*
Y2402D02*
Y2992D01*
X3583Y1220D02*
X4764Y2402D01*
X3465Y1220D02*
X3583D01*
X3386Y1142D02*
X3465Y1220D01*
X3386Y551D02*
Y1142D01*
X4118Y3203D02*
X4317D01*
X4606Y2913D01*
Y2480D02*
Y2913D01*
X3526Y1400D02*
X4606Y2480D01*
X3150Y1400D02*
X3526D01*
X2913Y1163D02*
X3150Y1400D01*
X2913Y551D02*
Y1163D01*
X2677Y551D02*
Y1177D01*
X3050Y1550D01*
X3479D01*
X4449Y2520D01*
Y2795D01*
X4238Y3006D02*
X4449Y2795D01*
X3350Y2222D02*
X3372Y2200D01*
X3350Y2222D02*
Y2632D01*
X3104Y1850D02*
X3153Y1899D01*
Y2632D01*
X2441Y551D02*
Y1457D01*
X2250Y1648D02*
X2441Y1457D01*
X2250Y1648D02*
Y3037D01*
X2205Y551D02*
Y1142D01*
X2050Y1296D02*
X2205Y1142D01*
X2050Y1296D02*
Y3074D01*
X2376Y3400D01*
X2582D01*
X2250Y3037D02*
X2416Y3203D01*
X2582D01*
X2376Y3597D02*
X2582D01*
X1850Y3070D02*
X2376Y3597D01*
X1515Y2933D02*
X1877Y3294D01*
X1863Y3800D02*
X1877D01*
X2576D01*
X2582Y3794D01*
X3153Y4168D02*
Y4648D01*
X2998Y4803D02*
X3153Y4648D01*
X3350Y4168D02*
Y4610D01*
X3465Y4724D01*
X4252D01*
X4370Y4606D01*
Y4528D02*
Y4606D01*
X3622Y4528D02*
X4055D01*
X3547Y4452D02*
X3622Y4528D01*
X3547Y4168D02*
Y4452D01*
X3744Y4168D02*
X5343D01*
X5354Y4179D01*
X5545D01*
X6620Y4730D02*
X6654Y4764D01*
X6220Y4730D02*
X6620D01*
X7126Y4764D02*
X7526D01*
X7559Y4730D01*
X27717Y551D02*
X27756Y591D01*
Y2244D01*
X28189Y551D02*
Y984D01*
X28150Y1024D02*
X28189Y984D01*
X28150Y1024D02*
Y2717D01*
X28465Y3031D01*
X28661Y551D02*
Y1142D01*
X28307Y1496D02*
Y2317D01*
X28780Y2789D01*
X28307Y1496D02*
X28661Y1142D01*
X28720Y1398D02*
X28819Y1299D01*
X28720Y1824D02*
X28819Y1923D01*
X28720Y1398D02*
Y1824D01*
X28819Y1299D02*
X28898D01*
X31024Y3144D02*
Y5433D01*
X31299Y5709D01*
X28543Y6732D02*
X28583Y6772D01*
X29252D01*
X28346Y6575D02*
X28386D01*
X28425Y6535D01*
X28669D01*
X28701Y6567D01*
X28896Y7207D02*
X29094Y7405D01*
Y9238D01*
X29035Y9297D02*
X29094Y9238D01*
X28701Y8071D02*
X28740Y8031D01*
X28701Y8071D02*
Y8268D01*
X28740Y7362D02*
Y8031D01*
X28701Y8268D02*
X28780Y8346D01*
Y8735D01*
X28642Y8873D02*
X28780Y8735D01*
X28502Y7679D02*
X28543Y7720D01*
Y8150D01*
X27854Y8839D02*
X28543Y8150D01*
X15827Y9882D02*
X15827D01*
X15669Y10039D02*
X15827Y9882D01*
X15984Y9724D02*
X16417Y9291D01*
X16687D01*
X16417Y9606D02*
X16687D01*
X15984Y10039D02*
X16417Y9606D01*
Y9921D02*
X16687D01*
X15984Y10354D02*
X16417Y9921D01*
X17014D02*
X17480D01*
X18032Y9370D01*
X19016D01*
X19252Y9134D01*
X18110Y9567D02*
X19094D01*
X19331Y9331D01*
X19724D01*
X20433Y8622D01*
X19606Y9134D02*
X20118Y8622D01*
X19252Y9134D02*
X19606D01*
X19468Y8957D02*
X19803Y8622D01*
X19154Y8957D02*
X19468D01*
X18937Y9173D02*
X19154Y8957D01*
X17953Y9173D02*
X18937D01*
X19232Y8799D02*
X19409Y8622D01*
X19075Y8799D02*
X19232D01*
X18898Y8976D02*
X19075Y8799D01*
X17874Y8976D02*
X18898D01*
X17520Y9606D02*
X17953Y9173D01*
X17014Y9606D02*
X17520D01*
X17559Y9291D02*
X17874Y8976D01*
X17014Y9291D02*
X17559D01*
X22126Y8071D02*
Y8301D01*
X22132Y8307D01*
X21969Y8470D02*
X22132Y8307D01*
X21927Y8732D02*
X21969Y8691D01*
Y8470D02*
Y8691D01*
X22435Y8307D02*
Y8724D01*
X23065Y8307D02*
Y8510D01*
X22927Y8648D02*
Y8732D01*
Y8648D02*
X23065Y8510D01*
X22927Y8732D02*
Y9041D01*
X22913Y9055D02*
X22927Y9041D01*
X22427Y8732D02*
X22480Y8785D01*
Y9055D01*
X22427Y10801D02*
X22638Y10591D01*
X22427Y10874D02*
Y11274D01*
X22354Y11346D02*
X22427Y11274D01*
X22927Y10874D02*
Y10998D01*
X23228Y11299D01*
Y10984D02*
X23317D01*
X23427Y10874D01*
X28661Y3234D02*
Y3465D01*
Y3234D02*
X28780Y3116D01*
X11260Y9409D02*
X11417Y9567D01*
X12047Y9252D02*
Y9252D01*
X12205Y9409D01*
X11575Y8780D02*
X11732Y8937D01*
X11417Y8307D02*
X11575Y8465D01*
X11417Y7992D02*
X11575Y7835D01*
X14409Y8780D02*
X14567Y8937D01*
X15039Y9094D02*
X15197Y8937D01*
X26534Y3939D02*
X26673Y4079D01*
X12835Y5945D02*
X12992Y5787D01*
Y6102D02*
X13150Y5945D01*
X11575Y7205D02*
X11732Y7047D01*
X12047Y8937D02*
X12205Y9094D01*
X12520Y9094D02*
X12677Y9252D01*
X12520Y9409D02*
X12677Y9567D01*
X11575Y9724D02*
X11732Y9567D01*
X1496Y2250D02*
X1496Y2250D01*
X1496Y2250D02*
Y2933D01*
X1732Y551D02*
Y1181D01*
X1850Y1299D01*
Y3070D01*
D44*
X29843Y2648D02*
X29882Y2608D01*
X23376Y4449D02*
X23543D01*
X23346D02*
X23376D01*
X24134Y4606D02*
X24163D01*
X23937D02*
X24134D01*
X17182Y2070D02*
X17283Y1969D01*
X17182Y2070D02*
Y2425D01*
X16811Y2795D02*
X17182Y2425D01*
X25354Y2132D02*
Y2913D01*
X24803Y3465D02*
X25354Y2913D01*
X23031Y3465D02*
X24803D01*
X16350Y1311D02*
Y1787D01*
X16142Y551D02*
Y1102D01*
X16350Y1311D01*
X9803Y2008D02*
X9843Y1969D01*
X9724Y2159D02*
X9803Y2081D01*
Y2008D02*
Y2081D01*
X7205Y2008D02*
Y2087D01*
Y2008D02*
X7244Y1969D01*
X6890Y2008D02*
Y2087D01*
Y2008D02*
X7047Y1850D01*
X30118Y1102D02*
X30315Y1299D01*
X30118Y984D02*
Y1102D01*
X30079Y945D02*
X30118Y984D01*
X30079Y551D02*
Y945D01*
X16457Y2165D02*
Y3189D01*
X24016Y10118D02*
X24528Y9606D01*
X24016Y10118D02*
Y11339D01*
X24528Y9606D02*
X24715D01*
X9488Y2008D02*
X9646Y1850D01*
X9488Y2008D02*
Y2087D01*
X1024Y9242D02*
X1033Y9252D01*
X1575D01*
X1339Y9449D02*
X1339Y9449D01*
X1575D01*
X16024Y2717D02*
X16220Y2913D01*
Y3189D01*
X14724Y1732D02*
X15157Y2165D01*
X15276Y2480D02*
X16654Y3858D01*
X25591Y2211D02*
Y2520D01*
Y2211D02*
X25669Y2132D01*
X25118Y2520D02*
X25157D01*
X25079Y2480D02*
X25118Y2520D01*
X24764Y2205D02*
Y2402D01*
X24685Y2480D02*
X24764Y2402D01*
X24685Y2480D02*
Y3307D01*
X24134Y2165D02*
Y2402D01*
X24055Y2480D02*
X24134Y2402D01*
X24055Y2480D02*
Y3307D01*
X23819Y2480D02*
Y3307D01*
X23425Y2480D02*
Y3307D01*
Y2480D02*
X23504Y2402D01*
Y2165D02*
Y2402D01*
X22992Y3425D02*
X23031Y3465D01*
X20669Y2480D02*
Y3307D01*
X21299Y2480D02*
Y3307D01*
X20906Y2480D02*
Y3307D01*
X21929Y2480D02*
Y3307D01*
X21535Y2480D02*
Y3307D01*
X22559Y2480D02*
Y3307D01*
X22165Y2480D02*
Y3307D01*
X23189Y2480D02*
Y3307D01*
X22795Y2480D02*
Y3307D01*
X24449Y2480D02*
Y3307D01*
X22795Y2480D02*
X22874Y2402D01*
X22480D02*
X22559Y2480D01*
X13032Y2126D02*
X13150Y2244D01*
X13032Y2047D02*
Y2126D01*
X12992Y1260D02*
Y2008D01*
X12835Y551D02*
Y1181D01*
X12756Y1260D02*
X12835Y1181D01*
X12756Y1260D02*
Y1772D01*
X12717Y1811D02*
X12756Y1772D01*
X12717Y1811D02*
Y1969D01*
Y2126D02*
X12835Y2244D01*
X12717Y1969D02*
Y2126D01*
X12598Y551D02*
Y1693D01*
X12520Y1772D02*
X12598Y1693D01*
X12520Y1772D02*
Y2244D01*
X14528Y1102D02*
X14724Y1299D01*
X14528Y984D02*
Y1102D01*
X14488Y945D02*
X14528Y984D01*
X14488Y551D02*
Y945D01*
X14724Y1299D02*
Y1732D01*
X15236Y1102D02*
X15394Y1260D01*
X15236Y1024D02*
Y1102D01*
X15197Y984D02*
X15236Y1024D01*
X15197Y551D02*
Y984D01*
X19094Y4567D02*
X19488D01*
X19528Y4528D01*
X19636D01*
X19646Y4537D01*
X16811Y2795D02*
Y5079D01*
X15984Y6890D02*
X16339Y6535D01*
Y5551D02*
X16811Y5079D01*
X16339Y5551D02*
Y6535D01*
X18898Y8780D02*
X19055Y8622D01*
X17835Y8780D02*
X18898D01*
X17559Y9055D02*
X17835Y8780D01*
X16142Y8622D02*
X16457D01*
X15984Y8780D02*
X16142Y8622D01*
X15354Y9094D02*
X15512Y8937D01*
X15354Y9094D02*
X15354D01*
X15669D02*
X15827Y8937D01*
X15669Y9094D02*
X15669D01*
X14567Y8307D02*
Y8307D01*
X14409Y8150D02*
X14567Y8307D01*
X24724Y2165D02*
X24764Y2205D01*
X24724Y2132D02*
Y2165D01*
X16024Y2171D02*
Y2717D01*
X15157Y2165D02*
X15197D01*
X24370Y2171D02*
X24409Y2132D01*
X14252Y8622D02*
X14409Y8465D01*
X14567Y7992D02*
X14724Y8150D01*
X14882Y8307D02*
X15039Y8465D01*
X15039D01*
X14724Y7835D02*
X14882Y7677D01*
Y7992D02*
X15039Y8150D01*
X15197Y8307D02*
X15197D01*
X15354Y8465D01*
Y8150D02*
X15512Y8307D01*
X15354Y8150D02*
Y8150D01*
X15669Y8465D02*
X15827Y8307D01*
X15669Y8465D02*
X15669D01*
X15197Y7677D02*
X15354Y7835D01*
X15354D01*
X24100Y2132D02*
X24134Y2165D01*
X24094Y2132D02*
X24100D01*
X15984Y8150D02*
X16142Y7992D01*
X16299Y7835D02*
X16457Y7677D01*
X15984Y7835D02*
X16299D01*
Y7205D02*
X16457Y7047D01*
X15984Y7205D02*
X16299D01*
X23740Y2205D02*
X23780Y2165D01*
Y2132D02*
Y2165D01*
X14724Y7835D02*
Y7835D01*
X14252Y7992D02*
Y7992D01*
Y7992D02*
X14409Y7835D01*
X23498Y2165D02*
X23504D01*
X23465Y2132D02*
X23498Y2165D01*
X15669Y7520D02*
X15827Y7677D01*
X15669Y7835D02*
X15827Y7992D01*
X23110Y2171D02*
X23150Y2132D01*
X15354Y7520D02*
X15512Y7677D01*
X15354Y7520D02*
Y7520D01*
X13937Y8622D02*
Y8622D01*
Y8622D02*
X14094Y8465D01*
X22835Y2132D02*
X22874Y2171D01*
X14567Y7677D02*
Y7677D01*
Y7677D02*
X14724Y7520D01*
X22520Y1805D02*
X22835Y1490D01*
X15197Y7362D02*
X15197D01*
X15039Y7520D02*
X15197Y7362D01*
X22480Y2171D02*
X22520Y2132D01*
X13937Y7992D02*
Y7992D01*
Y7992D02*
X14094Y7835D01*
Y7520D02*
X14252Y7677D01*
X15827Y7047D02*
X15827D01*
X15669Y7205D02*
X15827Y7047D01*
X22205Y2132D02*
X22244Y2171D01*
X21850Y2171D02*
X21890Y2132D01*
X14724Y7205D02*
X14882Y7362D01*
Y7047D02*
X15039Y7205D01*
X15984Y8465D02*
X15984D01*
X15669Y8780D02*
X15827Y8622D01*
X15669Y8780D02*
X15669D01*
X16378Y9055D02*
X17559D01*
X16024Y9409D02*
X16378Y9055D01*
X15984Y9409D02*
X16024D01*
X29843Y2648D02*
Y3465D01*
X29872Y2598D02*
X29882Y2608D01*
X29016Y3189D02*
Y3583D01*
Y3189D02*
X29577Y2628D01*
Y2598D02*
Y2628D01*
X13937Y9567D02*
Y9567D01*
Y9567D02*
X14094Y9409D01*
X13780Y10039D02*
X13937Y10197D01*
X13780Y10039D02*
Y10039D01*
X14094Y10039D02*
X14252Y10197D01*
X29380Y1772D02*
Y2047D01*
X15197Y9882D02*
X15354Y9724D01*
X15039D02*
X15197Y9567D01*
X14409Y10039D02*
X14567Y10197D01*
X14409Y10039D02*
Y10039D01*
X13465Y9724D02*
X13622Y9882D01*
X13465Y9724D02*
Y9724D01*
X13622Y10197D02*
Y10197D01*
X13465Y10039D02*
X13622Y10197D01*
X14252Y9567D02*
Y9567D01*
Y9567D02*
X14409Y9409D01*
X14882Y8937D02*
X14882D01*
X14724Y9094D02*
X14882Y8937D01*
X14724Y9724D02*
X14882Y9567D01*
X14724Y9724D02*
X14724D01*
X19026Y10118D02*
X19449D01*
X20394Y9528D02*
Y9744D01*
X14409Y9724D02*
X14567Y9567D01*
X13937Y9882D02*
Y9882D01*
X13780Y9724D02*
X13937Y9882D01*
X11890Y9724D02*
Y9724D01*
X12047Y9882D01*
X13696Y1186D02*
Y1492D01*
X14055Y591D02*
Y1811D01*
X8346Y3740D02*
X13937D01*
X7638Y3031D02*
X8346Y3740D01*
X11102Y2756D02*
X11457Y3110D01*
X11102Y2165D02*
Y2756D01*
X11063Y2126D02*
X11102Y2165D01*
X11929Y2953D02*
X15039D01*
X11496Y2520D02*
X11929Y2953D01*
X11496Y1732D02*
Y2520D01*
X11890Y1850D02*
Y2244D01*
X12205D02*
X12283Y2165D01*
X13696Y1492D02*
X13819Y1614D01*
X13696Y1186D02*
X13780Y1102D01*
X13543Y1575D02*
X13661Y1693D01*
X13543Y551D02*
Y1575D01*
X13661Y1693D02*
Y1969D01*
X14488Y2795D01*
X14055Y1811D02*
X14724Y2480D01*
X14016Y551D02*
X14055Y591D01*
X13386Y1260D02*
Y1693D01*
X12165Y1732D02*
X12283Y1850D01*
X14606Y2638D02*
X15197D01*
X13819Y1850D02*
X14606Y2638D01*
X13819Y1614D02*
Y1850D01*
X14488Y2795D02*
X15118D01*
X13819Y1614D02*
X13819D01*
X14724Y2480D02*
X15276D01*
X16654Y3858D02*
Y4961D01*
X15984Y5630D02*
X16654Y4961D01*
X15197Y2638D02*
X16496Y3937D01*
Y4803D01*
X15984Y5315D02*
X16496Y4803D01*
X15118Y2795D02*
X16339Y4016D01*
Y4646D01*
X15984Y5000D02*
X16339Y4646D01*
X15669Y5315D02*
X15827Y5157D01*
X15669Y5315D02*
X15669D01*
X15354D02*
X15512Y5157D01*
X15827Y6102D02*
X15984Y6260D01*
X15827Y6417D02*
X15827D01*
X15984Y6575D01*
X15512Y6102D02*
X15669Y6260D01*
X15197Y6417D02*
X15197D01*
X15354Y6575D01*
X14409Y5315D02*
X14567Y5157D01*
X13307Y1181D02*
X13386Y1260D01*
X13780Y551D02*
Y1102D01*
X13307Y551D02*
Y1181D01*
X11693Y1339D02*
X11890Y1142D01*
Y551D02*
Y1142D01*
X12126Y551D02*
Y1220D01*
X11890Y1457D02*
X12126Y1220D01*
X11890Y1457D02*
Y1850D01*
X12165Y1457D02*
Y1732D01*
Y1457D02*
X12362Y1260D01*
Y551D02*
Y1260D01*
X12992D02*
X13071Y1181D01*
Y551D02*
Y1181D01*
X10000Y2717D02*
Y3071D01*
X9291Y3031D02*
X9299Y3039D01*
Y3236D01*
X15512Y3937D02*
Y4213D01*
X14843Y3268D02*
X15512Y3937D01*
X10945Y3268D02*
X14843D01*
X15669Y3819D02*
Y4370D01*
X14961Y3110D02*
X15669Y3819D01*
X11457Y3110D02*
X14961D01*
X15039Y2953D02*
X16181Y4094D01*
Y4488D01*
X15984Y4685D02*
X16181Y4488D01*
X10709Y3031D02*
X10945Y3268D01*
X10000Y3071D02*
X10354Y3425D01*
X14764D01*
X9646Y3583D02*
X14567D01*
X9299Y3236D02*
X9646Y3583D01*
X14764Y3425D02*
X15354Y4016D01*
X14567Y3583D02*
X15197Y4213D01*
X15354Y4016D02*
Y4370D01*
X15512Y4843D02*
X15512D01*
X15354Y5000D02*
X15512Y4843D01*
X15512Y4528D02*
X15669Y4685D01*
X15197Y4528D02*
X15197D01*
X15354Y4685D01*
X15197Y4843D02*
X15197D01*
X15039Y5000D02*
X15197Y4843D01*
X14567Y4528D02*
X14724Y4685D01*
X14567Y4843D02*
X14724Y5000D01*
X14724D01*
X14882Y5787D02*
Y5787D01*
Y5787D02*
X15039Y5630D01*
X14252Y4843D02*
X14252D01*
X14409Y5000D01*
X14252Y4528D02*
X14409Y4685D01*
X8268Y3898D02*
X13622D01*
X7402Y3031D02*
X8268Y3898D01*
X7165Y3031D02*
X8189Y4055D01*
X7402Y2717D02*
Y3031D01*
X13465Y4370D02*
X13622Y4213D01*
X12992Y4843D02*
X13150Y5000D01*
X12992Y5157D02*
Y5157D01*
X12835Y5000D02*
X12992Y5157D01*
Y4213D02*
X13150Y4370D01*
X13307Y4528D02*
X13307D01*
X13150Y4685D02*
X13307Y4528D01*
X12835Y4685D02*
X12992Y4528D01*
X12362D02*
X12520Y4685D01*
X12047Y4528D02*
X12205Y4685D01*
X12677Y5472D02*
Y5472D01*
X12520Y5315D02*
X12677Y5472D01*
X11417Y4843D02*
X11417D01*
X11575Y5000D01*
X11417Y4528D02*
X11575Y4685D01*
X12205Y5315D02*
X12362Y5157D01*
X12205Y5315D02*
X12205D01*
X14252Y5472D02*
X14409Y5630D01*
X13937Y5787D02*
X14094Y5630D01*
Y5630D02*
Y5630D01*
X13937Y4843D02*
X13937D01*
X13780Y5000D02*
X13937Y4843D01*
X13465Y5000D02*
X13622Y4843D01*
X13465Y5000D02*
X13465D01*
X13465Y5315D02*
X13622Y5472D01*
X13465Y5315D02*
Y5315D01*
X19449Y10118D02*
X19724D01*
X20138Y10492D02*
X20394D01*
X19705D02*
X19724Y10512D01*
X19449Y10492D02*
X19705D01*
X14094Y6260D02*
X14252Y6102D01*
X14094Y6260D02*
X14094D01*
X13622Y4528D02*
X13780Y4685D01*
X13780D01*
X13465Y5630D02*
X13622Y5787D01*
X13465Y5630D02*
Y5630D01*
X13150Y5630D02*
X13307Y5787D01*
X12677D02*
X12835Y5630D01*
X9291Y551D02*
Y1142D01*
X9173Y1260D02*
X9291Y1142D01*
X10000Y551D02*
Y1142D01*
X9882Y1260D02*
X10000Y1142D01*
X9764Y551D02*
Y1102D01*
X9685Y1181D02*
X9764Y1102D01*
X9528Y551D02*
Y1417D01*
X9449Y1496D02*
X9528Y1417D01*
X9449Y1496D02*
Y1654D01*
X9646Y1850D01*
X9685Y1181D02*
Y1535D01*
X9646Y1575D02*
X9685Y1535D01*
X9646Y1575D02*
X9803Y1732D01*
Y1732D01*
X9843Y1772D01*
X9882Y1260D02*
Y1299D01*
X10000Y1417D01*
X10472Y551D02*
Y1102D01*
X10394Y1181D02*
X10472Y1102D01*
X10394Y1181D02*
Y1535D01*
X10354Y1575D02*
X10394Y1535D01*
X10236Y551D02*
Y1417D01*
X10157Y1496D02*
X10236Y1417D01*
X10157Y1496D02*
Y1654D01*
X10354Y1850D01*
X10709Y551D02*
Y1142D01*
X10591Y1260D02*
X10709Y1142D01*
X9843Y1772D02*
Y1969D01*
X10000Y1417D02*
Y2120D01*
X10039Y2159D01*
X10354Y1850D02*
Y2159D01*
X10354Y2159D02*
X10354Y2159D01*
Y1575D02*
Y1575D01*
X10591Y1811D01*
Y2081D01*
X10669Y2159D01*
X10945Y551D02*
Y1417D01*
X10866Y1496D02*
X10945Y1417D01*
X10866Y1496D02*
Y1654D01*
X11063Y1850D01*
X11181Y551D02*
Y1102D01*
X11102Y1181D02*
X11181Y1102D01*
X11102Y1181D02*
Y1535D01*
X11063Y1575D02*
X11102Y1535D01*
X11417Y551D02*
Y1142D01*
X11299Y1260D02*
X11417Y1142D01*
X8701Y1260D02*
X8819Y1142D01*
Y551D02*
Y1142D01*
X8465Y1575D02*
X8504Y1535D01*
Y1181D02*
Y1535D01*
Y1181D02*
X8583Y1102D01*
Y551D02*
Y1102D01*
X8268Y1654D02*
X8465Y1850D01*
X8268Y1496D02*
Y1654D01*
Y1496D02*
X8346Y1417D01*
Y551D02*
Y1417D01*
X7756Y1575D02*
Y1575D01*
X7756Y2159D02*
X7756Y2159D01*
Y1850D02*
Y2159D01*
X7402Y2120D02*
X7441Y2159D01*
X7402Y1417D02*
Y2120D01*
X7992Y1260D02*
X8110Y1142D01*
Y551D02*
Y1142D01*
X7559Y1654D02*
X7756Y1850D01*
X7559Y1496D02*
Y1654D01*
Y1496D02*
X7638Y1417D01*
Y551D02*
Y1417D01*
X7756Y1575D02*
X7795Y1535D01*
Y1181D02*
Y1535D01*
Y1181D02*
X7874Y1102D01*
Y551D02*
Y1102D01*
X7283Y1299D02*
X7402Y1417D01*
X7283Y1260D02*
Y1299D01*
X7205Y1732D02*
X7244Y1772D01*
X7205Y1732D02*
Y1732D01*
X7047Y1575D02*
X7205Y1732D01*
X7047Y1575D02*
X7087Y1535D01*
Y1181D02*
Y1535D01*
X6850Y1654D02*
X7047Y1850D01*
X6850Y1496D02*
Y1654D01*
Y1496D02*
X6929Y1417D01*
Y551D02*
Y1417D01*
X7087Y1181D02*
X7165Y1102D01*
Y551D02*
Y1102D01*
X7283Y1260D02*
X7402Y1142D01*
Y551D02*
Y1142D01*
X6575Y1260D02*
X6693Y1142D01*
Y551D02*
Y1142D01*
X11102Y5157D02*
X11260Y5315D01*
X11260D01*
Y5630D02*
X11417Y5472D01*
X15953Y598D02*
Y1726D01*
X16000Y1773D01*
X15906Y551D02*
X15953Y598D01*
X12205Y9724D02*
X12362Y9882D01*
X11102D02*
X11260Y9724D01*
X7992Y2081D02*
X8071Y2159D01*
X7756Y1575D02*
X7992Y1811D01*
Y2081D01*
X7244Y1772D02*
Y1969D01*
X13780Y4134D02*
Y4370D01*
Y4134D02*
X13898Y4016D01*
X14134D01*
X13150Y4055D02*
X13307Y4213D01*
X8189Y4055D02*
X13150D01*
X14094Y5945D02*
X14094D01*
X14252Y5787D01*
X14567Y5472D02*
X14724Y5630D01*
X14882Y5472D02*
X15039Y5315D01*
X14882Y5472D02*
Y5472D01*
X13937Y4213D02*
X14094Y4370D01*
X13937Y4528D02*
X14094Y4685D01*
Y5315D02*
X14094D01*
X14252Y5157D01*
X14567Y4213D02*
X14724Y4370D01*
X14882Y4213D02*
X15039Y4370D01*
X14409Y5000D02*
X14409D01*
X14134Y4016D02*
X14252Y3898D01*
X25787Y8110D02*
X25787D01*
X25709Y8189D02*
X25787Y8110D01*
X25315Y8189D02*
X25709D01*
X25197Y8071D02*
X25315Y8189D01*
X25073Y8071D02*
X25197D01*
X25000Y7998D02*
X25073Y8071D01*
X25945Y8346D02*
X26181Y8110D01*
X25945Y8346D02*
Y8346D01*
X25045D02*
X25945D01*
X25000Y8301D02*
X25045Y8346D01*
X24555Y8268D02*
X24685D01*
X24955Y7998D01*
X25000D01*
X24555Y8406D02*
X24896D01*
X25000Y8301D01*
X24030Y8406D02*
X24291D01*
X23937Y8498D02*
X24030Y8406D01*
X24010Y8268D02*
X24291D01*
X23937Y8195D02*
X24010Y8268D01*
X11260Y10039D02*
Y10039D01*
X11417Y10197D01*
X12835Y9724D02*
X12992Y9882D01*
Y9882D01*
X13150Y9724D02*
X13307Y9567D01*
X13307D01*
X23661Y8189D02*
X23931D01*
X23937Y8195D01*
X23661Y8504D02*
X23931D01*
X23937Y8498D01*
X12835Y10039D02*
Y10039D01*
X12992Y10197D01*
X30069Y1772D02*
X30079Y1762D01*
X30069Y1772D02*
Y2047D01*
X30079Y1535D02*
X30315Y1299D01*
X30079Y1535D02*
Y1762D01*
X29843Y551D02*
Y2293D01*
X29872Y2323D01*
Y2598D01*
X29577Y2323D02*
Y2598D01*
X29606Y551D02*
Y2293D01*
X29577Y2323D02*
X29606Y2293D01*
X29213Y1299D02*
X29370Y1142D01*
Y551D02*
Y1142D01*
X29213Y1299D02*
X29380Y1467D01*
Y1772D01*
X25591Y1726D02*
X25669Y1805D01*
X25591Y1339D02*
Y1726D01*
X25354Y551D02*
Y1805D01*
X24882Y551D02*
Y1535D01*
X24961Y1614D01*
Y1726D01*
X25039Y1805D01*
X24646Y551D02*
Y1726D01*
X24724Y1805D01*
X24409Y551D02*
Y1805D01*
X24173Y551D02*
Y1726D01*
X24094Y1805D02*
X24173Y1726D01*
X23937Y551D02*
Y1535D01*
X23858Y1614D02*
X23937Y1535D01*
X23858Y1614D02*
Y1726D01*
X23780Y1805D02*
X23858Y1726D01*
X23701Y551D02*
Y1457D01*
X23543Y1614D02*
X23701Y1457D01*
X23543Y1614D02*
Y1726D01*
X23465Y1805D02*
X23543Y1726D01*
X23465Y551D02*
Y1339D01*
X23228Y1575D02*
X23465Y1339D01*
X23228Y1575D02*
Y1726D01*
X23150Y1805D02*
X23228Y1726D01*
X22756Y551D02*
Y984D01*
X22795Y1024D01*
Y1142D01*
X22992Y551D02*
Y984D01*
X23031Y1024D01*
Y1535D01*
X22913Y1654D02*
X23031Y1535D01*
X22913Y1654D02*
Y1732D01*
X22795Y1142D02*
X22835Y1181D01*
Y1490D01*
X22283Y551D02*
Y984D01*
X22244Y1024D02*
X22283Y984D01*
X22244Y1024D02*
Y1766D01*
X22205Y1805D02*
X22244Y1766D01*
X22047Y551D02*
Y984D01*
X22087Y1024D01*
Y1575D01*
X21890Y1772D02*
X22087Y1575D01*
X21890Y1772D02*
Y1805D01*
X21575Y551D02*
Y984D01*
X21535Y1024D02*
X21575Y984D01*
X21535Y1024D02*
Y1766D01*
X21575Y1805D01*
X21339Y551D02*
Y984D01*
X21378Y1024D01*
Y1575D01*
X21339Y1614D02*
X21378Y1575D01*
X21339Y1614D02*
Y1726D01*
X21260Y1805D02*
X21339Y1726D01*
X20866Y551D02*
Y984D01*
X20827Y1024D02*
X20866Y984D01*
X20827Y1024D02*
Y1102D01*
X20787Y1142D02*
X20827Y1102D01*
X20787Y1142D02*
Y1575D01*
X20866Y1654D01*
Y1732D01*
X20630Y551D02*
Y1805D01*
X20630Y1805D02*
X20630Y1805D01*
X15669Y5630D02*
X15827Y5472D01*
X15827D01*
X15039Y5945D02*
X15197Y5787D01*
X16024Y2171D02*
X16063Y2132D01*
X15197Y6102D02*
X15354Y5945D01*
X14724D02*
X14724D01*
X14567Y5787D02*
X14724Y5945D01*
X15354Y6260D02*
Y6260D01*
X15512Y6417D01*
X14409Y6260D02*
Y6260D01*
X14252Y6417D02*
X14409Y6260D01*
X14724Y6260D02*
Y6260D01*
X14567Y6417D02*
X14724Y6260D01*
X14882Y6417D02*
X15039Y6575D01*
X14882Y6417D02*
X14882D01*
X15669Y5945D02*
X15827Y5787D01*
X15827D01*
X14409Y6575D02*
Y6575D01*
X14567Y6732D01*
X14724Y6575D02*
X14882Y6732D01*
X14094Y6890D02*
X14094D01*
X14252Y6732D01*
Y7047D02*
X14409Y6890D01*
X14252Y7047D02*
Y7047D01*
X15039Y6890D02*
X15197Y6732D01*
Y7047D02*
X15354Y6890D01*
X15669D02*
X15827Y6732D01*
X15827D01*
X20945Y2132D02*
X20984Y2171D01*
X20591Y2171D02*
X20630Y2132D01*
X20591Y2171D02*
Y2402D01*
X20669Y2480D01*
X21220Y2171D02*
X21260Y2132D01*
X13937Y7047D02*
X14094Y7205D01*
X14409D02*
Y7205D01*
X14252Y7362D02*
X14409Y7205D01*
X21575Y2132D02*
X21608Y2165D01*
X21614D01*
X25039Y2132D02*
X25079Y2171D01*
Y2480D01*
X15984Y8465D02*
X16142Y8307D01*
X16693D01*
X23711Y4695D02*
X23848D01*
X23937Y4606D01*
X24163D02*
X24173Y4616D01*
X12283Y1969D02*
Y2165D01*
Y1850D02*
Y1969D01*
X24370Y2171D02*
Y2402D01*
X24449Y2480D01*
X23740Y2205D02*
Y2402D01*
X23819Y2480D01*
X23110Y2171D02*
Y2402D01*
X23189Y2480D01*
X22874Y2171D02*
Y2402D01*
X22480Y2171D02*
Y2402D01*
X22244Y2171D02*
Y2402D01*
X22165Y2480D02*
X22244Y2402D01*
X21850Y2171D02*
Y2402D01*
X21929Y2480D01*
X21614Y2165D02*
Y2402D01*
X21535Y2480D02*
X21614Y2402D01*
X21220Y2171D02*
Y2402D01*
X21299Y2480D01*
X20906D02*
X20984Y2402D01*
Y2171D02*
Y2402D01*
X15394Y1260D02*
Y2362D01*
X16457Y8622D02*
X16687D01*
X16726D01*
D45*
X7559Y4443D02*
X7559D01*
X27244Y2520D02*
X27362Y2402D01*
X26142Y4016D02*
Y4213D01*
X25669Y3661D02*
X26417Y2913D01*
X26890Y2289D02*
X27047Y2132D01*
X27362D02*
Y2402D01*
X14882Y8622D02*
X14882D01*
X14724Y8780D02*
X14882Y8622D01*
X15039Y8780D02*
X15197Y8622D01*
Y9252D02*
X15354Y9409D01*
X15354D01*
X15512Y9252D02*
X15669Y9409D01*
X15669D01*
X26654Y1260D02*
Y1378D01*
X26535Y1142D02*
X26654Y1260D01*
X26535Y551D02*
Y1142D01*
X26417Y1614D02*
Y1805D01*
Y1614D02*
X26654Y1378D01*
X26732Y1772D02*
X26890Y1614D01*
Y1457D02*
Y1614D01*
X26772Y1339D02*
X26890Y1457D01*
X26772Y551D02*
Y1339D01*
X26732Y1772D02*
Y1805D01*
X27126Y1142D02*
Y1726D01*
X27008Y1024D02*
X27126Y1142D01*
X27008Y551D02*
Y1024D01*
X27047Y1805D02*
X27126Y1726D01*
X27283D02*
X27362Y1805D01*
X27283Y591D02*
Y1726D01*
X27244Y551D02*
X27283Y591D01*
X27008Y1766D02*
X27047Y1805D01*
X13622Y5157D02*
X13780Y5315D01*
X11102Y7992D02*
X11260Y8150D01*
X12205Y5000D02*
Y5000D01*
X12520Y7835D02*
X12677Y7992D01*
X30512Y10344D02*
X30778D01*
X30945Y10512D01*
X29528Y10344D02*
X29793D01*
X29961Y10512D01*
X28543Y10344D02*
X28809D01*
X28976Y10512D01*
X30354Y10344D02*
X30512D01*
X29370D02*
X29528D01*
X28386D02*
X28543D01*
X14094Y10354D02*
X14409Y10669D01*
X19809Y11535D02*
X20039Y11305D01*
X14409Y10669D02*
X16417D01*
X17053Y11305D01*
X18465D01*
X16339Y10827D02*
X17047Y11535D01*
X19809D01*
X27244Y2520D02*
Y2913D01*
X26732Y2132D02*
Y2913D01*
X26142Y4016D02*
X27244Y2913D01*
X26417Y2132D02*
Y2913D01*
X26890Y2289D02*
Y3031D01*
X25827Y4094D02*
X26890Y3031D01*
X25748Y3898D02*
X25748D01*
X26732Y2913D01*
X25236Y4331D02*
X25472Y4094D01*
X25827D01*
X20557Y7722D02*
X20906D01*
X20551Y7717D02*
X20557Y7722D01*
X13465Y10354D02*
Y10669D01*
X13622Y10827D01*
X16339D01*
X7559Y4404D02*
X7593D01*
X7874Y4685D01*
X5906D02*
X6187Y4404D01*
X6220D01*
X11102Y4843D02*
X11102D01*
X11260Y5000D01*
X12047Y5157D02*
X12205Y5000D01*
X19665Y6793D02*
X19965Y7093D01*
X20906D01*
X19094Y4764D02*
X19528D01*
D46*
X20394Y551D02*
Y1063D01*
X20157D02*
X20157Y1063D01*
Y551D02*
Y1063D01*
X19921Y551D02*
Y1063D01*
X19685D02*
X19685Y1063D01*
Y551D02*
Y1063D01*
X19449Y551D02*
Y1063D01*
X19213D02*
X19213Y1063D01*
Y551D02*
Y1063D01*
X18976Y551D02*
Y1063D01*
X18740Y1142D02*
X18740Y1142D01*
Y551D02*
Y1142D01*
X18504Y551D02*
Y1142D01*
X18268Y551D02*
Y1063D01*
X18032Y1142D02*
X18032Y1142D01*
Y551D02*
Y1142D01*
X17795Y551D02*
Y1181D01*
X16378Y1063D02*
X16535Y1220D01*
X16378Y551D02*
Y1063D01*
D47*
X24537Y7437D02*
X24606Y7368D01*
X24537Y7437D02*
Y7496D01*
X24409Y7368D02*
X24537Y7496D01*
Y7835D01*
X26496Y8425D02*
Y8504D01*
Y8110D02*
Y8425D01*
X26575Y8504D01*
X25787Y7835D02*
X26220D01*
X26496Y8110D01*
X6890Y7047D02*
X7047Y7205D01*
X1575Y9055D02*
X1575Y9055D01*
X1339Y9055D02*
X1575D01*
X1142Y8858D02*
X1575D01*
X1142Y8858D02*
X1142Y8858D01*
X25886Y9297D02*
X25915Y9327D01*
X24555Y7852D02*
Y8130D01*
Y8543D02*
X24915D01*
X25000Y8628D01*
X24291Y8543D02*
Y8852D01*
X24331Y8892D01*
X24264Y8825D02*
X24291Y8852D01*
X25000Y7671D02*
X25152Y7520D01*
X25472D01*
X25787Y7835D01*
X24537Y7835D02*
X24555Y7852D01*
X24291Y7844D02*
Y8130D01*
X24281Y7835D02*
X24291Y7844D01*
X24281Y7677D02*
Y7835D01*
X23937Y7677D02*
X24173Y7441D01*
X23937Y7677D02*
Y7868D01*
X13150Y7835D02*
X13150D01*
X13307Y7677D01*
D48*
X1260Y394D02*
Y551D01*
X1260Y551D02*
X1260Y551D01*
X1969Y394D02*
Y551D01*
X3150Y394D02*
Y551D01*
X3858Y394D02*
Y551D01*
X15118Y1299D02*
X15197D01*
X14961Y1142D02*
X15118Y1299D01*
X26575Y8504D02*
X27559D01*
X26496D02*
X26575D01*
X27559D02*
X27953Y8110D01*
Y6496D02*
Y8110D01*
X25886Y4291D02*
Y4797D01*
X17480Y4646D02*
X17500Y4665D01*
X18563D01*
X8071Y2486D02*
X8268D01*
X27480Y551D02*
Y1535D01*
X26378Y10990D02*
Y11417D01*
X28819Y2250D02*
Y2402D01*
X29016Y2598D01*
X29134D01*
X12835Y2571D02*
Y2756D01*
X14409Y1299D02*
X14488D01*
X7756Y2486D02*
X8071D01*
X10675Y2480D02*
X10906D01*
X10669Y2486D02*
X10675Y2480D01*
X9173D02*
X9404D01*
X10354Y2486D02*
X10669D01*
X9724D02*
X10039D01*
X9409D02*
X9724D01*
X12520Y2571D02*
Y2756D01*
X12205Y2571D02*
X12520D01*
X11890D02*
X12205D01*
X12835D02*
X13150D01*
X3150Y551D02*
Y945D01*
X1969Y551D02*
Y945D01*
X1260Y551D02*
Y945D01*
X1260Y551D02*
X1260Y551D01*
X14961Y551D02*
Y1142D01*
X14252Y551D02*
X14252Y551D01*
X15669Y551D02*
Y1535D01*
X14252Y551D02*
Y1142D01*
X14409Y1299D01*
X27067Y4291D02*
Y4797D01*
X28248Y4291D02*
Y4797D01*
X29429Y4291D02*
Y4797D01*
X26372Y8628D02*
X26496Y8504D01*
X25000Y8628D02*
X26372D01*
X25000D02*
Y9010D01*
X25006Y9016D01*
X24970Y9051D02*
Y9331D01*
Y9051D02*
X25006Y9016D01*
X27953Y6496D02*
X28740Y5709D01*
X28976D01*
X24970Y9606D02*
X25394D01*
X28543Y11266D02*
Y11457D01*
X29528Y11266D02*
Y11457D01*
X30512Y11266D02*
Y11457D01*
X27795Y11142D02*
Y11417D01*
X18071Y10675D02*
Y10866D01*
X26811Y11142D02*
Y11417D01*
X29124Y1614D02*
Y1772D01*
X30325Y1614D02*
Y1772D01*
X29124Y2047D02*
Y2313D01*
X29134Y2323D01*
X29321D01*
X30325Y2047D02*
Y2313D01*
X30315Y2323D02*
X30325Y2313D01*
X30128Y2323D02*
X30315D01*
X29134Y2598D02*
X29321D01*
X30128D02*
X30315D01*
X26299Y551D02*
Y1142D01*
X25827Y1339D02*
X26102D01*
X26299Y1142D01*
X21919Y10866D02*
X21927Y10874D01*
X21693Y10866D02*
X21919D01*
X21496D02*
X21693D01*
X21927Y10874D02*
Y11246D01*
X22028Y11346D01*
X7126Y2486D02*
X7441D01*
X6811D02*
X7126D01*
X6496D02*
X6811D01*
X23720Y6299D02*
X23819Y6201D01*
X24213D01*
X30787Y3234D02*
Y3465D01*
X30315Y3234D02*
Y3465D01*
D49*
X9055Y394D02*
Y551D01*
Y945D01*
D50*
X9843Y9882D02*
X10000Y9724D01*
X9843Y9882D02*
Y9882D01*
X9978Y9724D02*
X10000D01*
X10945Y10039D02*
Y10039D01*
X11102Y10197D01*
X5000Y5787D02*
X5157Y5945D01*
X6575Y9567D02*
X6732Y9724D01*
X7913Y9213D02*
X8071D01*
X7835Y9134D02*
X7913Y9213D01*
X7835Y6417D02*
Y9134D01*
X8150Y7362D02*
Y9134D01*
X8071Y9213D02*
X8150Y9134D01*
X5472Y6575D02*
X5630Y6417D01*
X5472Y6575D02*
X5472D01*
X5157Y6890D02*
X5315Y6732D01*
X11260Y8780D02*
X11260D01*
X6575Y7677D02*
X6732Y7520D01*
X5630Y6732D02*
X5630D01*
X5472Y6890D02*
X5630Y6732D01*
X10630Y7520D02*
X10787Y7362D01*
X10630Y7520D02*
X10630D01*
X10787Y7047D02*
Y7047D01*
X10945Y7205D01*
X10472Y7047D02*
X10630Y6890D01*
Y6890D02*
Y6890D01*
X10157Y6417D02*
X10157D01*
X10315Y6575D01*
X10945Y7520D02*
Y7520D01*
X10787Y7677D02*
X10945Y7520D01*
X11102Y6732D02*
X11260Y6575D01*
X5315Y6102D02*
X5315D01*
X5157Y6260D02*
X5315Y6102D01*
X10787Y7992D02*
Y7992D01*
Y7992D02*
X10945Y7835D01*
X10315Y7520D02*
X10315D01*
X10157Y7362D02*
X10315Y7520D01*
X6575Y6732D02*
X6732Y6575D01*
X6575Y7047D02*
Y7047D01*
Y7047D02*
X6732Y6890D01*
X9843Y7047D02*
X10000Y7205D01*
X5315Y6417D02*
X5315D01*
X5157Y6575D02*
X5315Y6417D01*
X11102Y7362D02*
X11260Y7205D01*
X5315Y7047D02*
X5315D01*
X5157Y7205D02*
X5315Y7047D01*
X11260Y6260D02*
Y6260D01*
X11417Y6417D01*
X5630Y7677D02*
X5630D01*
X5472Y7835D02*
X5630Y7677D01*
X10000Y7520D02*
X10000D01*
X9843Y7362D02*
X10000Y7520D01*
X7205Y5787D02*
X7205D01*
X7047Y5945D02*
X7205Y5787D01*
X7047Y6260D02*
X7205Y6102D01*
X10315Y6890D02*
X10315D01*
X10157Y6732D02*
X10315Y6890D01*
Y7205D02*
X10315D01*
Y7205D01*
X6575Y7992D02*
Y7992D01*
Y7992D02*
X6732Y7835D01*
X6575Y8307D02*
Y8307D01*
Y8307D02*
X6732Y8150D01*
X7205Y7677D02*
X7362Y7835D01*
X10472Y6732D02*
X10630Y6575D01*
Y6575D02*
Y6575D01*
X5472Y7520D02*
X5472D01*
X5630Y7362D01*
X11102Y7047D02*
X11260Y6890D01*
X10157Y7047D02*
X10315Y7205D01*
X5472Y5945D02*
X5630Y5787D01*
X10787Y9252D02*
X10945Y9409D01*
X5472Y8150D02*
X5630Y7992D01*
X10945Y6260D02*
X11102Y6417D01*
X5157Y7520D02*
X5157D01*
X5315Y7362D01*
X4843Y7835D02*
X5000Y7677D01*
X9882Y6457D02*
X10000Y6575D01*
X9803Y6457D02*
X9882D01*
X9528Y6732D02*
X9803Y6457D01*
X9528Y6732D02*
X9528D01*
X7047Y6890D02*
X7205Y6732D01*
X10945Y5945D02*
X11102Y6102D01*
X7047Y6575D02*
X7205Y6417D01*
X7205D01*
X10787Y6732D02*
X10945Y6890D01*
X5472Y6260D02*
X5472D01*
X5630Y6102D01*
X6575D02*
X6732Y6260D01*
X10787Y8307D02*
X10945Y8465D01*
X10945D01*
X10787Y8937D02*
X10945Y9094D01*
X10945D01*
X5472Y7205D02*
X5630Y7047D01*
X5630D01*
X11260Y7835D02*
X11417Y7677D01*
X7047Y9094D02*
X7205Y8937D01*
X7205D01*
X10630Y8465D02*
X10787Y8622D01*
X5472Y9094D02*
Y9094D01*
X5315Y8937D02*
X5472Y9094D01*
Y8780D02*
X5630Y8937D01*
X10157Y8307D02*
X10315Y8465D01*
X10315D01*
X10472Y8307D02*
X10630Y8150D01*
X10472Y8307D02*
Y8307D01*
X10630Y7835D02*
Y7835D01*
X10472Y7992D02*
X10630Y7835D01*
X10157Y7992D02*
X10315Y8150D01*
X10157Y7992D02*
X10157D01*
X5000Y8937D02*
X5157Y9094D01*
X5472Y8465D02*
X5472D01*
X5630Y8307D01*
X9843Y7992D02*
X10000Y7835D01*
Y7835D02*
Y7835D01*
X9843Y8307D02*
X10000Y8150D01*
X9843Y8307D02*
Y8307D01*
X6575Y8622D02*
X6732Y8465D01*
X5472Y9409D02*
X5630Y9252D01*
X5630D01*
X10157D02*
X10315Y9094D01*
Y9094D02*
Y9094D01*
X5157Y8780D02*
X5315Y8622D01*
X5315D01*
X6732Y9409D02*
X6890Y9252D01*
X6890D01*
X9843Y8937D02*
X10000Y8780D01*
Y8780D02*
Y8780D01*
X6575Y8937D02*
X6732Y9094D01*
X10157Y8937D02*
Y8937D01*
Y8937D02*
X10315Y8780D01*
X10472Y8937D02*
X10630Y9094D01*
X10630D01*
X11102Y8937D02*
X11260Y8780D01*
X11102Y8937D02*
Y8937D01*
X7047Y8465D02*
Y8465D01*
X6890Y8307D02*
X7047Y8465D01*
X5472Y9724D02*
X5630Y9882D01*
X9843Y10197D02*
X10000Y10354D01*
X10157Y9882D02*
X10315Y10039D01*
X10315D01*
X10157Y9567D02*
X10315Y9724D01*
X10315D01*
X10472Y9252D02*
X10630Y9409D01*
X10630D01*
X6732Y10669D02*
X6890Y10827D01*
X10630Y10039D02*
X10787Y10197D01*
X5472Y10669D02*
X5630Y10512D01*
X5630D01*
X10157D02*
X10315Y10354D01*
X6575Y10197D02*
X6732Y10354D01*
X6575Y9882D02*
X6732Y10039D01*
X7047Y10039D02*
Y10039D01*
X6890Y9882D02*
X7047Y10039D01*
X10630Y9724D02*
X10787Y9882D01*
X5472Y10039D02*
X5472D01*
X5630Y10197D01*
X9843Y9567D02*
X10000Y9409D01*
Y9409D02*
Y9409D01*
X5157Y10669D02*
X5315Y10512D01*
X5315D01*
X10787D02*
X10945Y10354D01*
Y10354D02*
Y10354D01*
X5157Y10039D02*
X5157D01*
X5315Y9882D01*
X9843Y9252D02*
X10000Y9094D01*
Y9094D02*
Y9094D01*
X7047Y10354D02*
X7205Y10197D01*
X7205D01*
X8465Y5787D02*
Y6496D01*
X8504Y6535D01*
X8740D01*
X8780Y6575D01*
Y6693D01*
X8740Y6732D02*
X8780Y6693D01*
X8189Y6732D02*
X8740D01*
X8150Y6772D02*
X8189Y6732D01*
X8150Y6772D02*
Y6929D01*
X8189Y6969D01*
X8425D01*
X8465Y7008D01*
Y7677D01*
X5315Y6732D02*
X5315D01*
D51*
X3465Y5433D02*
X6102D01*
X2992Y5906D02*
X3465Y5433D01*
X2992Y5906D02*
Y6142D01*
X6102Y5433D02*
X9606D01*
D52*
X3366Y9154D02*
X3386Y9173D01*
X2106Y9154D02*
X3366D01*
D53*
X-30400Y10400D02*
Y9800D01*
X-30000D01*
X-29700Y10200D02*
X-29500D01*
X-29400Y10100D01*
Y9800D01*
X-29700D01*
X-29800Y9900D01*
X-29700Y10000D01*
X-29400D01*
X-29200Y10200D02*
Y9900D01*
X-29100Y9800D01*
X-28801D01*
Y9700D01*
X-28900Y9600D01*
X-29000D01*
X-28801Y9800D02*
Y10200D01*
X-28301Y9800D02*
X-28501D01*
X-28601Y9900D01*
Y10100D01*
X-28501Y10200D01*
X-28301D01*
X-28201Y10100D01*
Y10000D01*
X-28601D01*
X-28001Y10200D02*
Y9800D01*
Y10000D01*
X-27901Y10100D01*
X-27801Y10200D01*
X-27701D01*
X-26801Y9800D02*
X-26601D01*
X-26701D01*
Y10400D01*
X-26801Y10300D01*
X-25702Y10100D02*
X-25302D01*
X-24102Y10300D02*
X-24202Y10400D01*
X-24402D01*
X-24502Y10300D01*
Y10200D01*
X-24402Y10100D01*
X-24202D01*
X-24102Y10000D01*
Y9900D01*
X-24202Y9800D01*
X-24402D01*
X-24502Y9900D01*
X-23902Y9800D02*
X-23702D01*
X-23802D01*
Y10200D01*
X-23902D01*
X-23202Y9600D02*
X-23102D01*
X-23002Y9700D01*
Y10200D01*
X-23302D01*
X-23402Y10100D01*
Y9900D01*
X-23302Y9800D01*
X-23002D01*
X-22802D02*
Y10200D01*
X-22503D01*
X-22403Y10100D01*
Y9800D01*
X-22103Y10200D02*
X-21903D01*
X-21803Y10100D01*
Y9800D01*
X-22103D01*
X-22203Y9900D01*
X-22103Y10000D01*
X-21803D01*
X-21603Y9800D02*
X-21403D01*
X-21503D01*
Y10400D01*
X-21603D01*
X-20303Y9800D02*
X-20503Y10000D01*
Y10200D01*
X-20303Y10400D01*
X-19603Y10300D02*
X-19703Y10400D01*
X-19903D01*
X-20003Y10300D01*
Y9900D01*
X-19903Y9800D01*
X-19703D01*
X-19603Y9900D01*
X-19304Y9800D02*
X-19104D01*
X-19004Y9900D01*
Y10100D01*
X-19104Y10200D01*
X-19304D01*
X-19404Y10100D01*
Y9900D01*
X-19304Y9800D01*
X-18804Y9600D02*
Y10200D01*
X-18504D01*
X-18404Y10100D01*
Y9900D01*
X-18504Y9800D01*
X-18804D01*
X-18204Y9600D02*
Y10200D01*
X-17904D01*
X-17804Y10100D01*
Y9900D01*
X-17904Y9800D01*
X-18204D01*
X-17304D02*
X-17504D01*
X-17604Y9900D01*
Y10100D01*
X-17504Y10200D01*
X-17304D01*
X-17204Y10100D01*
Y10000D01*
X-17604D01*
X-17004Y10200D02*
Y9800D01*
Y10000D01*
X-16904Y10100D01*
X-16804Y10200D01*
X-16704D01*
X-16405Y9800D02*
X-16205Y10000D01*
Y10200D01*
X-16405Y10400D01*
D54*
X18465Y5059D02*
D03*
D55*
X16024Y11358D02*
D03*
D56*
X12362Y11535D02*
D03*
D57*
X19685Y1535D02*
D03*
X20394Y1299D02*
D03*
X19685D02*
D03*
X18976D02*
D03*
X18268D02*
D03*
X16850Y1181D02*
D03*
X11563Y11575D02*
D03*
X24882Y11299D02*
D03*
X14449Y11575D02*
D03*
X14724D02*
D03*
X11850D02*
D03*
X12520D02*
D03*
Y11339D02*
D03*
X12205Y11614D02*
D03*
X29370Y10600D02*
D03*
X29587Y8701D02*
D03*
X29646Y7441D02*
D03*
X30394Y8628D02*
D03*
X19685Y2323D02*
D03*
X17717Y4291D02*
D03*
X17441D02*
D03*
X2598Y5748D02*
D03*
X2126Y5512D02*
D03*
Y5787D02*
D03*
X1575D02*
D03*
Y5512D02*
D03*
X1850D02*
D03*
X31299Y9528D02*
D03*
Y8976D02*
D03*
X31575Y10079D02*
D03*
X31299D02*
D03*
X31575Y8976D02*
D03*
Y9528D02*
D03*
X31850D02*
D03*
Y8976D02*
D03*
Y10079D02*
D03*
Y2953D02*
D03*
Y1260D02*
D03*
Y2402D02*
D03*
X31575D02*
D03*
Y1260D02*
D03*
X31299Y2953D02*
D03*
X31575D02*
D03*
X31299Y1260D02*
D03*
Y2402D02*
D03*
X433D02*
D03*
Y2953D02*
D03*
X474Y1500D02*
D03*
X750D02*
D03*
X984Y2953D02*
D03*
X709Y2402D02*
D03*
X984D02*
D03*
X709Y2953D02*
D03*
X1026Y1500D02*
D03*
X20197Y6142D02*
D03*
X18819Y6260D02*
D03*
X18543D02*
D03*
X18268D02*
D03*
X17717Y6850D02*
D03*
X17992D02*
D03*
X17913Y8268D02*
D03*
Y8543D02*
D03*
X18622Y5197D02*
D03*
X18425D02*
D03*
X18228D02*
D03*
X23465Y7165D02*
D03*
Y6772D02*
D03*
Y7520D02*
D03*
X21693D02*
D03*
Y7165D02*
D03*
Y6772D02*
D03*
X24606Y10157D02*
D03*
X16890Y10866D02*
D03*
X1457Y7244D02*
D03*
Y6929D02*
D03*
Y6614D02*
D03*
Y6299D02*
D03*
X1142D02*
D03*
Y6614D02*
D03*
Y6929D02*
D03*
Y7244D02*
D03*
Y7559D02*
D03*
Y7874D02*
D03*
Y8189D02*
D03*
Y8504D02*
D03*
X3386Y8701D02*
D03*
X3071D02*
D03*
X1417Y8504D02*
D03*
X591Y10787D02*
D03*
Y11102D02*
D03*
Y11417D02*
D03*
Y9449D02*
D03*
Y9764D02*
D03*
Y10065D02*
D03*
Y10394D02*
D03*
X2047Y10433D02*
D03*
X1260Y11417D02*
D03*
X1614D02*
D03*
X1969D02*
D03*
X2638D02*
D03*
X2323D02*
D03*
Y11102D02*
D03*
Y10787D02*
D03*
X906Y11417D02*
D03*
Y11102D02*
D03*
Y10787D02*
D03*
X4291Y9488D02*
D03*
X3976Y11063D02*
D03*
X9252Y11260D02*
D03*
X21496Y4488D02*
D03*
Y4764D02*
D03*
X21220D02*
D03*
X25886Y4291D02*
D03*
X20394Y1535D02*
D03*
X18976D02*
D03*
X18268D02*
D03*
X19685Y1890D02*
D03*
X17559Y1969D02*
D03*
Y1693D02*
D03*
X17244D02*
D03*
X20984Y1299D02*
D03*
X8268Y2486D02*
D03*
X25827Y1339D02*
D03*
X27480Y1535D02*
D03*
X25512Y5354D02*
D03*
X25787Y11417D02*
D03*
X26378D02*
D03*
X27362D02*
D03*
X30354Y10600D02*
D03*
X19449Y9528D02*
D03*
X25394Y9606D02*
D03*
Y9370D02*
D03*
X29449Y7795D02*
D03*
X13110Y11417D02*
D03*
X12835Y2756D02*
D03*
X13858Y1339D02*
D03*
X13189Y1457D02*
D03*
X6575Y3589D02*
D03*
X9213Y3543D02*
D03*
X10906Y2480D02*
D03*
X9173D02*
D03*
X12520Y2756D02*
D03*
X11614Y2913D02*
D03*
X12362Y1575D02*
D03*
X20118Y10118D02*
D03*
X6614Y3858D02*
D03*
X7126D02*
D03*
X5354Y2677D02*
D03*
X1339Y3819D02*
D03*
X2520Y1654D02*
D03*
X2795D02*
D03*
X1929Y8504D02*
D03*
X1850Y5787D02*
D03*
X2638Y6142D02*
D03*
X9606Y5433D02*
D03*
X6102Y7205D02*
D03*
X4843Y1339D02*
D03*
X4961Y1535D02*
D03*
X4724D02*
D03*
X5512Y1732D02*
D03*
Y1969D02*
D03*
Y2205D02*
D03*
X2717Y2638D02*
D03*
X2559Y2795D02*
D03*
X4118Y2772D02*
D03*
X3971Y2632D02*
D03*
X3976Y2323D02*
D03*
X2992Y6142D02*
D03*
Y5906D02*
D03*
X6102Y8150D02*
D03*
X5354Y3661D02*
D03*
X4803Y4803D02*
D03*
X2677Y5000D02*
D03*
X2087D02*
D03*
X1457Y4606D02*
D03*
X4370Y5157D02*
D03*
X9803Y11535D02*
D03*
X10630Y11496D02*
D03*
X2756Y8701D02*
D03*
X1339Y9055D02*
D03*
X2559Y9606D02*
D03*
X906Y10394D02*
D03*
Y10079D02*
D03*
Y9764D02*
D03*
X1890Y9606D02*
D03*
X1142Y8858D02*
D03*
X3346Y10433D02*
D03*
X3661D02*
D03*
X3976D02*
D03*
Y10748D02*
D03*
Y10118D02*
D03*
X2835Y10315D02*
D03*
X12047Y10866D02*
D03*
X12362D02*
D03*
X11732D02*
D03*
X12835D02*
D03*
X13982Y11530D02*
D03*
X27559Y8504D02*
D03*
X27244Y8740D02*
D03*
X28189D02*
D03*
X26654Y9882D02*
D03*
X26260D02*
D03*
X28898Y8189D02*
D03*
X29587Y8504D02*
D03*
X29646Y7638D02*
D03*
X27067Y4291D02*
D03*
X28248D02*
D03*
X29429D02*
D03*
X25551D02*
D03*
X28937Y6378D02*
D03*
Y6142D02*
D03*
X26870Y5354D02*
D03*
X25472Y9882D02*
D03*
X27480Y9882D02*
D03*
X27835Y9882D02*
D03*
X29016D02*
D03*
X30394Y8425D02*
D03*
X28071Y5394D02*
D03*
X24528Y9213D02*
D03*
X25276Y9882D02*
D03*
X28543Y11457D02*
D03*
X29528D02*
D03*
X30512D02*
D03*
X28386Y10600D02*
D03*
X27795Y11417D02*
D03*
X17559Y10866D02*
D03*
X18071D02*
D03*
X19567D02*
D03*
X21142D02*
D03*
X26811Y11417D02*
D03*
X30315Y3465D02*
D03*
X30787D02*
D03*
X30325Y1614D02*
D03*
X30315Y2323D02*
D03*
X29134Y2598D02*
D03*
X30315D02*
D03*
X29134Y2323D02*
D03*
X29124Y1614D02*
D03*
X22441Y1260D02*
D03*
X21732D02*
D03*
X21890Y1457D02*
D03*
X22598D02*
D03*
X21181D02*
D03*
X21496Y9528D02*
D03*
X25787Y5348D02*
D03*
X25984D02*
D03*
X23937Y9055D02*
D03*
X24567Y5354D02*
D03*
X20945Y4764D02*
D03*
X20669D02*
D03*
X20394D02*
D03*
X8346Y11260D02*
D03*
X8031D02*
D03*
X7717D02*
D03*
X7402D02*
D03*
X3976Y9803D02*
D03*
X4291D02*
D03*
Y10118D02*
D03*
Y10433D02*
D03*
Y10748D02*
D03*
Y11063D02*
D03*
X8937Y11260D02*
D03*
X21693Y10866D02*
D03*
X21496D02*
D03*
X13346D02*
D03*
X18071Y10157D02*
D03*
X24961Y6811D02*
D03*
X24685D02*
D03*
X24724Y5197D02*
D03*
X3701Y8701D02*
D03*
X10472Y10984D02*
D03*
X19094Y7992D02*
D03*
Y7717D02*
D03*
X19370D02*
D03*
X17992Y4291D02*
D03*
D58*
X3600Y3150D02*
D03*
Y3650D02*
D03*
X3100D02*
D03*
Y3150D02*
D03*
X3600Y3150D02*
D03*
Y3650D02*
D03*
X3100D02*
D03*
Y3150D02*
D03*
X31024Y394D02*
D03*
X30315D02*
D03*
X29134D02*
D03*
X28425D02*
D03*
X25118D02*
D03*
X23228D02*
D03*
X1260D02*
D03*
X1969D02*
D03*
X3150D02*
D03*
X3858D02*
D03*
X6457D02*
D03*
X9055D02*
D03*
X11654D02*
D03*
X16142Y11575D02*
D03*
X15197D02*
D03*
X15472D02*
D03*
Y11339D02*
D03*
X15197D02*
D03*
X14724D02*
D03*
X14449D02*
D03*
X15866Y11575D02*
D03*
Y11339D02*
D03*
X9843Y6102D02*
D03*
X25197Y5551D02*
D03*
X25000Y5748D02*
D03*
X28189Y11457D02*
D03*
X27087D02*
D03*
X25551Y11496D02*
D03*
X5906Y5157D02*
D03*
X5512D02*
D03*
X5118D02*
D03*
X4724D02*
D03*
X8268D02*
D03*
X7874D02*
D03*
X7520D02*
D03*
X26693Y7638D02*
D03*
Y7205D02*
D03*
Y6772D02*
D03*
X27126D02*
D03*
Y7638D02*
D03*
X27559D02*
D03*
Y7205D02*
D03*
Y6772D02*
D03*
X27126Y7205D02*
D03*
X22992Y5079D02*
D03*
X22756Y5315D02*
D03*
Y4843D02*
D03*
X23228D02*
D03*
Y5315D02*
D03*
X22283Y9370D02*
D03*
Y10197D02*
D03*
Y9803D02*
D03*
X22677D02*
D03*
X23071D02*
D03*
Y9370D02*
D03*
X22677D02*
D03*
X23071Y10197D02*
D03*
X22677D02*
D03*
X2205Y6890D02*
D03*
Y7244D02*
D03*
X2835Y6850D02*
D03*
Y7244D02*
D03*
X2520Y7047D02*
D03*
X5984Y2008D02*
D03*
Y2598D02*
D03*
Y3189D02*
D03*
Y9252D02*
D03*
X6299D02*
D03*
X21220Y4488D02*
D03*
X20945D02*
D03*
X20669D02*
D03*
X20394D02*
D03*
X11732Y6102D02*
D03*
X11417D02*
D03*
X11102Y8628D02*
D03*
X18543Y6575D02*
D03*
X17717Y7402D02*
D03*
X17992Y7126D02*
D03*
X17717D02*
D03*
X18268Y6850D02*
D03*
Y6575D02*
D03*
X17638Y8543D02*
D03*
X17913Y6457D02*
D03*
X18622Y5000D02*
D03*
X18425D02*
D03*
X18228D02*
D03*
X18898Y5472D02*
D03*
Y5748D02*
D03*
X18622D02*
D03*
X18346Y5472D02*
D03*
X18071Y5748D02*
D03*
Y5472D02*
D03*
X17795D02*
D03*
Y5748D02*
D03*
Y6024D02*
D03*
X17520Y5472D02*
D03*
Y5748D02*
D03*
Y6024D02*
D03*
Y6299D02*
D03*
X23189Y6772D02*
D03*
X22913D02*
D03*
Y7520D02*
D03*
X23189D02*
D03*
Y7165D02*
D03*
X22913D02*
D03*
X22244Y7520D02*
D03*
X21969D02*
D03*
Y6772D02*
D03*
X22244Y7165D02*
D03*
X21969D02*
D03*
X22244Y6772D02*
D03*
X2480Y2205D02*
D03*
X1220Y9764D02*
D03*
Y10079D02*
D03*
X1850Y10236D02*
D03*
X8937Y10945D02*
D03*
X9252D02*
D03*
X12205Y11378D02*
D03*
X21260Y5315D02*
D03*
X20433D02*
D03*
X20709D02*
D03*
X20984D02*
D03*
X15512Y7362D02*
D03*
X23228Y945D02*
D03*
X25118D02*
D03*
X14567Y6102D02*
D03*
X14882D02*
D03*
X12992D02*
D03*
X11654Y945D02*
D03*
X9055D02*
D03*
X6457D02*
D03*
X3150D02*
D03*
X1969D02*
D03*
X1260D02*
D03*
X3110Y7756D02*
D03*
X5984Y8937D02*
D03*
X5000Y5787D02*
D03*
X6299Y8937D02*
D03*
X5630Y6417D02*
D03*
X6575Y7677D02*
D03*
X5630Y6732D02*
D03*
X6575D02*
D03*
Y7047D02*
D03*
X6890Y7047D02*
D03*
X5630Y7677D02*
D03*
X7205Y5787D02*
D03*
Y6102D02*
D03*
X5315Y7677D02*
D03*
Y7992D02*
D03*
X7520Y7362D02*
D03*
X7205D02*
D03*
X10472Y7677D02*
D03*
Y7362D02*
D03*
X6575Y7992D02*
D03*
Y8307D02*
D03*
X10472Y6417D02*
D03*
X11417Y9567D02*
D03*
Y9882D02*
D03*
X12047Y7362D02*
D03*
X11732D02*
D03*
X12992Y5787D02*
D03*
Y5472D02*
D03*
X12362Y5787D02*
D03*
X14567Y7047D02*
D03*
X12992Y6417D02*
D03*
X13307Y7047D02*
D03*
X13937Y6102D02*
D03*
Y6732D02*
D03*
X13622Y6417D02*
D03*
X13937Y7362D02*
D03*
X13622Y7677D02*
D03*
X10472Y9567D02*
D03*
Y10197D02*
D03*
X12677Y4528D02*
D03*
X13307Y5157D02*
D03*
X13937D02*
D03*
X14882Y4843D02*
D03*
X15512Y5787D02*
D03*
X15827Y7362D02*
D03*
X15197Y7992D02*
D03*
X15827Y4528D02*
D03*
Y9567D02*
D03*
X14567Y9252D02*
D03*
Y9882D02*
D03*
X14252Y8307D02*
D03*
X13622D02*
D03*
X13307Y8622D02*
D03*
X12047Y7677D02*
D03*
X12362Y8307D02*
D03*
Y8622D02*
D03*
X12992Y8307D02*
D03*
X11732D02*
D03*
Y7047D02*
D03*
X12047Y9252D02*
D03*
Y9567D02*
D03*
X11732Y10197D02*
D03*
X10787Y6417D02*
D03*
X12362Y4843D02*
D03*
X14567Y7362D02*
D03*
X12992Y6732D02*
D03*
X13937Y6417D02*
D03*
X13622Y6102D02*
D03*
Y6732D02*
D03*
Y7047D02*
D03*
Y7362D02*
D03*
X13937Y7677D02*
D03*
X3425Y1772D02*
D03*
X3858Y945D02*
D03*
X3350Y3400D02*
D03*
X10472Y8622D02*
D03*
X10787Y9567D02*
D03*
X10157Y10197D02*
D03*
X12677Y4843D02*
D03*
X13307D02*
D03*
X13937Y5472D02*
D03*
X14882Y5157D02*
D03*
X15512Y7992D02*
D03*
X15827Y4843D02*
D03*
Y9252D02*
D03*
X14882D02*
D03*
X14252Y9882D02*
D03*
X13937Y8307D02*
D03*
X13622Y8622D02*
D03*
X13307Y8937D02*
D03*
X12047Y8622D02*
D03*
X12992D02*
D03*
X12677Y8307D02*
D03*
X11732Y8622D02*
D03*
X12362Y9567D02*
D03*
Y9252D02*
D03*
X12047Y10197D02*
D03*
Y5472D02*
D03*
X12677Y6732D02*
D03*
X12362D02*
D03*
X12047D02*
D03*
Y4843D02*
D03*
X11732Y5472D02*
D03*
X12362Y7362D02*
D03*
X11732Y6732D02*
D03*
X11102Y7992D02*
D03*
X11732Y7992D02*
D03*
X12047D02*
D03*
X12362Y6102D02*
D03*
X12047D02*
D03*
Y5787D02*
D03*
X11102Y7677D02*
D03*
X11732Y7677D02*
D03*
X5000Y8307D02*
D03*
X5315D02*
D03*
X4685Y10827D02*
D03*
Y10512D02*
D03*
Y10197D02*
D03*
Y9882D02*
D03*
X5315Y10197D02*
D03*
X5000D02*
D03*
X4685Y9567D02*
D03*
Y9252D02*
D03*
Y8622D02*
D03*
X5000D02*
D03*
X4685Y7047D02*
D03*
Y6732D02*
D03*
Y6417D02*
D03*
Y6102D02*
D03*
Y5787D02*
D03*
X7205Y10827D02*
D03*
X7520D02*
D03*
Y10512D02*
D03*
Y10197D02*
D03*
Y9882D02*
D03*
Y9567D02*
D03*
X7205Y9882D02*
D03*
Y9567D02*
D03*
X6890Y8622D02*
D03*
X7205D02*
D03*
Y8307D02*
D03*
Y7992D02*
D03*
X7520Y6732D02*
D03*
Y6417D02*
D03*
Y6102D02*
D03*
Y5787D02*
D03*
X7205Y7677D02*
D03*
X5630Y7362D02*
D03*
Y5787D02*
D03*
Y7992D02*
D03*
X7205Y6732D02*
D03*
Y6417D02*
D03*
X5630Y6102D02*
D03*
X6575D02*
D03*
X5630Y7047D02*
D03*
X11102Y8307D02*
D03*
X10157Y8622D02*
D03*
X10787Y9882D02*
D03*
X7205Y7047D02*
D03*
X4016Y5157D02*
D03*
X6299D02*
D03*
X2244Y8504D02*
D03*
X12677Y7992D02*
D03*
X13307Y8307D02*
D03*
Y9252D02*
D03*
X25394Y7953D02*
D03*
Y7756D02*
D03*
X31024Y945D02*
D03*
X30315D02*
D03*
X29134D02*
D03*
X28425D02*
D03*
X25984Y2165D02*
D03*
X15512Y5472D02*
D03*
X13307Y6102D02*
D03*
X18268Y8543D02*
D03*
X18543D02*
D03*
X18268Y8268D02*
D03*
X18543D02*
D03*
X18819D02*
D03*
Y7992D02*
D03*
X18543D02*
D03*
X18268D02*
D03*
X18543Y7717D02*
D03*
X18819D02*
D03*
D59*
X24528Y9606D02*
D03*
X16220Y3189D02*
D03*
X16457D02*
D03*
X20000Y2362D02*
D03*
X18425D02*
D03*
X19055D02*
D03*
X16693Y2323D02*
D03*
X19370Y2362D02*
D03*
X18740D02*
D03*
X18110D02*
D03*
X17795D02*
D03*
X17008Y2323D02*
D03*
X16220Y2362D02*
D03*
X14961Y1693D02*
D03*
Y1457D02*
D03*
X25591Y2520D02*
D03*
X25906D02*
D03*
X25157D02*
D03*
X24882D02*
D03*
X24252D02*
D03*
X23622D02*
D03*
X22992D02*
D03*
X22362D02*
D03*
X21732D02*
D03*
X21102D02*
D03*
X20472D02*
D03*
X27953Y2598D02*
D03*
X27402D02*
D03*
X27677D02*
D03*
X26378Y4094D02*
D03*
X26142Y4213D02*
D03*
X23819Y3307D02*
D03*
X23307Y2362D02*
D03*
X23425Y3307D02*
D03*
X22992Y3425D02*
D03*
X20669Y3307D02*
D03*
X21299D02*
D03*
X20906D02*
D03*
X21929D02*
D03*
X21535D02*
D03*
X22559D02*
D03*
X22165D02*
D03*
X23189D02*
D03*
X22795D02*
D03*
X24449D02*
D03*
X24055D02*
D03*
X24685D02*
D03*
X20787Y2362D02*
D03*
X13032Y2047D02*
D03*
X12717Y1969D02*
D03*
X12520Y1772D02*
D03*
X9843Y9882D02*
D03*
X11732Y5787D02*
D03*
X19528Y4764D02*
D03*
Y4528D02*
D03*
X11102Y9252D02*
D03*
X22480Y9055D02*
D03*
X22913D02*
D03*
X22126Y8071D02*
D03*
X23228Y10984D02*
D03*
Y11299D02*
D03*
X22638Y10591D02*
D03*
X24016Y11339D02*
D03*
X26063Y11417D02*
D03*
X19409Y8622D02*
D03*
X19803D02*
D03*
X20118D02*
D03*
X20433D02*
D03*
X19055D02*
D03*
X17283Y1969D02*
D03*
X25669Y3661D02*
D03*
X28661Y3465D02*
D03*
X16457Y8622D02*
D03*
X15512Y8937D02*
D03*
X15827D02*
D03*
X14567Y8307D02*
D03*
X14882Y7992D02*
D03*
X15197Y2165D02*
D03*
X15787Y2008D02*
D03*
X24567Y2362D02*
D03*
X14567Y7992D02*
D03*
X14882Y8307D02*
D03*
Y7677D02*
D03*
X15197Y8307D02*
D03*
X15512D02*
D03*
X15827D02*
D03*
X15197Y7677D02*
D03*
X23937Y2362D02*
D03*
X16457Y7677D02*
D03*
X16142Y7992D02*
D03*
X16457Y7047D02*
D03*
X14252Y7992D02*
D03*
X15827Y7677D02*
D03*
Y7992D02*
D03*
X15512Y7677D02*
D03*
X13937Y8622D02*
D03*
X14567Y7677D02*
D03*
X15197Y7362D02*
D03*
X13937Y7992D02*
D03*
X14252Y7677D02*
D03*
X22047Y2362D02*
D03*
X15827Y7047D02*
D03*
X14882Y7362D02*
D03*
Y7047D02*
D03*
X27047Y2441D02*
D03*
X15827Y8622D02*
D03*
X14882D02*
D03*
X15197D02*
D03*
X14567D02*
D03*
X15197Y9252D02*
D03*
X15512D02*
D03*
Y8622D02*
D03*
X26457Y1339D02*
D03*
X26732Y1535D02*
D03*
X26969Y1299D02*
D03*
X27598Y1850D02*
D03*
X27520Y4094D02*
D03*
X28465Y3031D02*
D03*
Y3307D02*
D03*
X28504Y1732D02*
D03*
X31299Y5709D02*
D03*
X30709Y6063D02*
D03*
Y5709D02*
D03*
X11732Y9567D02*
D03*
X12047Y8937D02*
D03*
X12677Y9567D02*
D03*
Y9252D02*
D03*
X29843Y3465D02*
D03*
X30039Y3937D02*
D03*
X29488Y3031D02*
D03*
X29882Y4094D02*
D03*
X29016Y3583D02*
D03*
X13937Y9567D02*
D03*
Y10197D02*
D03*
X14252D02*
D03*
X14567Y10512D02*
D03*
X30039Y3031D02*
D03*
X20748Y9528D02*
D03*
X15197Y9882D02*
D03*
Y9567D02*
D03*
X14567Y10197D02*
D03*
X13622Y9882D02*
D03*
Y10197D02*
D03*
X14252Y9567D02*
D03*
X14882Y8937D02*
D03*
X15197D02*
D03*
X15827Y9882D02*
D03*
X18110Y9567D02*
D03*
X14882D02*
D03*
X20394Y9528D02*
D03*
X14567Y9567D02*
D03*
X13937Y9882D02*
D03*
X12047D02*
D03*
X13543Y2559D02*
D03*
X13740Y2756D02*
D03*
X14488Y1693D02*
D03*
Y1299D02*
D03*
X14252Y1693D02*
D03*
X13386D02*
D03*
X15827Y5157D02*
D03*
X15512D02*
D03*
X15827Y6102D02*
D03*
Y6417D02*
D03*
X15512Y6102D02*
D03*
X15197Y6417D02*
D03*
X14567Y5157D02*
D03*
X11693Y1339D02*
D03*
X11496Y1732D02*
D03*
X11890Y1850D02*
D03*
X15512Y4213D02*
D03*
X15197D02*
D03*
X15512Y4843D02*
D03*
Y4528D02*
D03*
X15197D02*
D03*
Y4843D02*
D03*
X14567Y4528D02*
D03*
Y4843D02*
D03*
X14882Y5787D02*
D03*
X14252Y4843D02*
D03*
Y4528D02*
D03*
X13937Y3740D02*
D03*
X13622Y5157D02*
D03*
Y3898D02*
D03*
Y4213D02*
D03*
X12992Y4843D02*
D03*
X12992Y5157D02*
D03*
X8937Y2126D02*
D03*
X12992Y4213D02*
D03*
X13307Y4528D02*
D03*
X12992D02*
D03*
X12362D02*
D03*
X12047D02*
D03*
X12677Y5472D02*
D03*
X11417Y4843D02*
D03*
Y4528D02*
D03*
X12362Y5157D02*
D03*
X7874Y2717D02*
D03*
X7402D02*
D03*
X6929D02*
D03*
X8110Y3031D02*
D03*
X7638D02*
D03*
X7165D02*
D03*
X6693D02*
D03*
X14252Y5472D02*
D03*
X13937Y5787D02*
D03*
Y4843D02*
D03*
X13622D02*
D03*
Y5472D02*
D03*
X16575Y10197D02*
D03*
X25276Y6142D02*
D03*
X14567Y8937D02*
D03*
X19724Y10118D02*
D03*
X20118Y10512D02*
D03*
X19724D02*
D03*
X14252Y6102D02*
D03*
X13622Y4528D02*
D03*
Y5787D02*
D03*
X13307D02*
D03*
X12677D02*
D03*
X8465Y2126D02*
D03*
X8701Y1575D02*
D03*
X11417Y5472D02*
D03*
X11102Y5157D02*
D03*
X9173Y1260D02*
D03*
X9882D02*
D03*
X9646Y1575D02*
D03*
Y1850D02*
D03*
X10354Y1575D02*
D03*
Y1850D02*
D03*
X10591Y1260D02*
D03*
X11063Y1850D02*
D03*
Y1575D02*
D03*
X11299Y1260D02*
D03*
X8701D02*
D03*
X8465Y1575D02*
D03*
Y1850D02*
D03*
X7992Y1260D02*
D03*
X7756Y1850D02*
D03*
Y1575D02*
D03*
X7047Y1850D02*
D03*
Y1575D02*
D03*
X7283Y1260D02*
D03*
X6575D02*
D03*
X10787Y5157D02*
D03*
X10157Y4528D02*
D03*
X11102Y4213D02*
D03*
X11417Y5157D02*
D03*
X13307Y6417D02*
D03*
X15197Y10512D02*
D03*
X13307Y10197D02*
D03*
X10157Y5157D02*
D03*
X4331Y7520D02*
D03*
Y7205D02*
D03*
Y6890D02*
D03*
Y6575D02*
D03*
Y6260D02*
D03*
Y5945D02*
D03*
X11102Y10197D02*
D03*
X6575Y9567D02*
D03*
X5315Y6732D02*
D03*
X10787Y7362D02*
D03*
Y7047D02*
D03*
X10472D02*
D03*
X10157Y6417D02*
D03*
X10787Y7677D02*
D03*
X11102Y6732D02*
D03*
X8465Y7677D02*
D03*
X5315Y6102D02*
D03*
X10787Y7992D02*
D03*
X10157Y7362D02*
D03*
X9843Y7047D02*
D03*
X5315Y6417D02*
D03*
X11102Y7362D02*
D03*
X5315Y7047D02*
D03*
X11417Y6417D02*
D03*
X8465Y5787D02*
D03*
X10472D02*
D03*
X11102D02*
D03*
X9843Y6732D02*
D03*
X10157D02*
D03*
X13307Y5472D02*
D03*
X15512Y6732D02*
D03*
X12047Y8307D02*
D03*
X12362Y8937D02*
D03*
X11732D02*
D03*
X15669Y1535D02*
D03*
X16142Y1339D02*
D03*
X15197Y1299D02*
D03*
X12992Y8937D02*
D03*
X12677Y6417D02*
D03*
X12362D02*
D03*
X12677Y6102D02*
D03*
X12047Y6417D02*
D03*
X12362Y7677D02*
D03*
X12677Y7362D02*
D03*
X11732Y6417D02*
D03*
X5000Y9882D02*
D03*
Y9567D02*
D03*
X7205Y9252D02*
D03*
X7520Y8937D02*
D03*
Y8622D02*
D03*
X10472Y6732D02*
D03*
X11102Y7047D02*
D03*
X10157D02*
D03*
X10787Y9252D02*
D03*
X7835Y5787D02*
D03*
X11102Y6417D02*
D03*
X5315Y7362D02*
D03*
X5000Y7677D02*
D03*
X9528Y6732D02*
D03*
X11102Y6102D02*
D03*
X10787Y6732D02*
D03*
X8150Y7362D02*
D03*
X10787Y8307D02*
D03*
Y8937D02*
D03*
X11417Y8307D02*
D03*
Y7992D02*
D03*
Y7677D02*
D03*
X7205Y8937D02*
D03*
X10787Y8622D02*
D03*
X5315Y8937D02*
D03*
X5630D02*
D03*
X10157Y8307D02*
D03*
X10472D02*
D03*
Y7992D02*
D03*
X10157D02*
D03*
X5000Y8937D02*
D03*
X5630Y8307D02*
D03*
X9843Y7992D02*
D03*
Y8307D02*
D03*
X6575Y8622D02*
D03*
X5630Y9252D02*
D03*
X10157D02*
D03*
X5315Y8622D02*
D03*
X6890Y9252D02*
D03*
X9843Y8937D02*
D03*
X9528D02*
D03*
X6575D02*
D03*
X10157Y8937D02*
D03*
X10472Y8937D02*
D03*
X11102D02*
D03*
X6890Y8307D02*
D03*
X5630Y9882D02*
D03*
X9843Y10197D02*
D03*
X10157Y9882D02*
D03*
Y9567D02*
D03*
X10472Y9252D02*
D03*
X6890Y10827D02*
D03*
X10787Y10197D02*
D03*
X5630Y10512D02*
D03*
X10157D02*
D03*
X6575Y10197D02*
D03*
Y9882D02*
D03*
X6890D02*
D03*
X5630Y10197D02*
D03*
X9843Y9567D02*
D03*
X5315Y10512D02*
D03*
X10787D02*
D03*
X5315Y9882D02*
D03*
X9843Y9252D02*
D03*
X7205Y10197D02*
D03*
X7835Y6417D02*
D03*
X9843Y7362D02*
D03*
X4055Y4528D02*
D03*
X4370D02*
D03*
X2992Y5000D02*
D03*
X5551Y4173D02*
D03*
X12362Y5472D02*
D03*
X11732Y5157D02*
D03*
Y4843D02*
D03*
X12677Y5157D02*
D03*
X2598Y4528D02*
D03*
X3268Y4803D02*
D03*
X2323Y4528D02*
D03*
X12362Y4213D02*
D03*
X12677D02*
D03*
X11732Y4528D02*
D03*
X11417Y4213D02*
D03*
X11102Y4843D02*
D03*
X7874Y4685D02*
D03*
X12047Y5157D02*
D03*
X5906Y4685D02*
D03*
X3701Y5157D02*
D03*
X11732Y9252D02*
D03*
X11260Y10787D02*
D03*
X1339Y9449D02*
D03*
X12362Y10197D02*
D03*
X11417Y9252D02*
D03*
X11732Y9882D02*
D03*
X12047Y10512D02*
D03*
X11417D02*
D03*
X11732D02*
D03*
X15197Y10197D02*
D03*
X15512Y9882D02*
D03*
X12992Y9567D02*
D03*
X25709Y7520D02*
D03*
X25591Y7323D02*
D03*
X25709Y6732D02*
D03*
X25827Y6535D02*
D03*
X25591Y6929D02*
D03*
X26220Y6260D02*
D03*
X14252Y9252D02*
D03*
Y8937D02*
D03*
X27244Y5945D02*
D03*
X27047Y5787D02*
D03*
X26693D02*
D03*
X26496Y5945D02*
D03*
X13937Y9252D02*
D03*
X12362Y9882D02*
D03*
X11102D02*
D03*
X12992Y9252D02*
D03*
X14882Y10197D02*
D03*
X15512Y10512D02*
D03*
X25472Y7126D02*
D03*
X14882Y9882D02*
D03*
X9291Y3031D02*
D03*
X9764D02*
D03*
X10236D02*
D03*
X10709D02*
D03*
X9528Y2717D02*
D03*
X10000D02*
D03*
X13307Y4213D02*
D03*
X14252D02*
D03*
X27675Y3939D02*
D03*
X28858Y3937D02*
D03*
X28701Y4094D02*
D03*
X28346Y6575D02*
D03*
X28543Y6732D02*
D03*
X28346Y7835D02*
D03*
X11063Y2126D02*
D03*
X11299Y1575D02*
D03*
X14252Y5787D02*
D03*
X14567Y5472D02*
D03*
X14882D02*
D03*
X13937Y4213D02*
D03*
Y4528D02*
D03*
X14252Y5157D02*
D03*
X14567Y4213D02*
D03*
X14882D02*
D03*
X10472Y2717D02*
D03*
X14252Y3898D02*
D03*
X26260Y8386D02*
D03*
X26181Y8110D02*
D03*
X25787D02*
D03*
X27638Y5827D02*
D03*
X28307Y5551D02*
D03*
Y5827D02*
D03*
X28976Y5709D02*
D03*
X11417Y10197D02*
D03*
X12992Y9882D02*
D03*
X13307Y9567D02*
D03*
X23661Y8504D02*
D03*
Y8189D02*
D03*
X30354Y10344D02*
D03*
X29370D02*
D03*
X28386D02*
D03*
Y8583D02*
D03*
X28583Y8425D02*
D03*
X28502Y7679D02*
D03*
X28740Y7362D02*
D03*
X28896Y7207D02*
D03*
X12992Y10197D02*
D03*
X30315Y1299D02*
D03*
X30079D02*
D03*
X12677Y8937D02*
D03*
X28898Y1535D02*
D03*
X29449Y1299D02*
D03*
X29213D02*
D03*
X28976D02*
D03*
X25591Y1339D02*
D03*
X26063Y1575D02*
D03*
X15827Y5472D02*
D03*
X15197Y5787D02*
D03*
Y6102D02*
D03*
X14567Y5787D02*
D03*
X15512Y6417D02*
D03*
X14252D02*
D03*
X14567D02*
D03*
X14882D02*
D03*
X15827Y5787D02*
D03*
X16142Y6102D02*
D03*
X14567Y6732D02*
D03*
X14882D02*
D03*
X20315Y2362D02*
D03*
X14252Y6732D02*
D03*
Y7047D02*
D03*
X15197Y6732D02*
D03*
Y7047D02*
D03*
X15827Y6732D02*
D03*
X13937Y7047D02*
D03*
X14252Y7362D02*
D03*
X21417Y2362D02*
D03*
X14252Y8622D02*
D03*
X26260Y1496D02*
D03*
X25748Y3898D02*
D03*
X16693Y8307D02*
D03*
X25236Y4331D02*
D03*
X20984Y9528D02*
D03*
X20118Y6732D02*
D03*
X20551Y7717D02*
D03*
X23937Y4606D02*
D03*
X13307Y6732D02*
D03*
X11417D02*
D03*
Y7362D02*
D03*
Y7047D02*
D03*
X6496Y2486D02*
D03*
X13622Y9567D02*
D03*
X24281Y7677D02*
D03*
X24173Y7441D02*
D03*
X12992Y7992D02*
D03*
X12677Y7677D02*
D03*
X13622Y7992D02*
D03*
X12992Y7677D02*
D03*
X13307Y7992D02*
D03*
Y7677D02*
D03*
Y7362D02*
D03*
X12992Y7047D02*
D03*
X12047D02*
D03*
X12362D02*
D03*
X12677D02*
D03*
X12992Y7362D02*
D03*
X12362Y7992D02*
D03*
X30551Y5433D02*
D03*
X13661Y10512D02*
D03*
X12283Y1969D02*
D03*
X26534Y3939D02*
D03*
X22677Y2362D02*
D03*
X15394D02*
D03*
D60*
X23543Y4449D02*
D03*
X23465Y11339D02*
D03*
%TF.MD5,98ff4fc2a33379f0d2ea97770e5e17e0*%
M02*
