G04 Layer_Color=128*
%FSLAX24Y24*%
%MOIN*%
%TF.FileFunction,Paste,Bot*%
%TF.Part,Single*%
G01*
G75*
%TA.AperFunction,SMDPad,CuDef*%
%ADD17R,0.0295X0.0295*%
%ADD18R,0.0197X0.0205*%
%ADD22R,0.0217X0.0217*%
%ADD24O,0.0098X0.0354*%
%ADD25O,0.0354X0.0098*%
%ADD31R,0.0531X0.1024*%
%ADD32R,0.0394X0.0571*%
%ADD33R,0.1024X0.0531*%
%ADD34R,0.0138X0.0138*%
%ADD35R,0.0138X0.0138*%
%ADD36R,0.0205X0.0197*%
%ADD37R,0.0906X0.0335*%
%ADD38R,0.0217X0.0217*%
%TA.AperFunction,NonConductor*%
%ADD53C,0.0100*%
%TA.AperFunction,SMDPad,CuDef*%
%ADD70O,0.0551X0.0138*%
%ADD72O,0.0295X0.0079*%
%ADD73O,0.0079X0.0295*%
%ADD76R,0.0256X0.0335*%
%ADD77R,0.0295X0.0295*%
%TA.AperFunction,NonConductor*%
%ADD82R,0.0400X0.0400*%
%ADD92R,0.0394X0.0394*%
%ADD93R,0.0354X0.0354*%
%ADD94R,0.0394X0.0354*%
%ADD95R,0.0394X0.0354*%
%ADD96R,0.0354X0.0394*%
%ADD97R,0.0413X0.0268*%
%ADD98R,0.0197X0.0102*%
%TA.AperFunction,SMDPad,SMDef*%
%ADD99R,0.0240X0.0220*%
%TA.AperFunction,SMDPad,CuDef*%
G04:AMPARAMS|DCode=100|XSize=9.1mil|YSize=31.5mil|CornerRadius=1mil|HoleSize=0mil|Usage=FLASHONLY|Rotation=180.000|XOffset=0mil|YOffset=0mil|HoleType=Round|Shape=RoundedRectangle|*
%AMROUNDEDRECTD100*
21,1,0.0091,0.0295,0,0,180.0*
21,1,0.0071,0.0315,0,0,180.0*
1,1,0.0020,-0.0035,0.0147*
1,1,0.0020,0.0035,0.0147*
1,1,0.0020,0.0035,-0.0147*
1,1,0.0020,-0.0035,-0.0147*
%
%ADD100ROUNDEDRECTD100*%
D17*
X17244Y11278D02*
D03*
X16870Y10376D02*
D03*
X17618D02*
D03*
X20413Y6793D02*
D03*
X19665D02*
D03*
X20039Y7695D02*
D03*
D18*
X12041Y9252D02*
D03*
X12368D02*
D03*
X13537Y11181D02*
D03*
X13864D02*
D03*
X17014Y9606D02*
D03*
X16687D02*
D03*
X1896Y9882D02*
D03*
X1569D02*
D03*
X27919Y8780D02*
D03*
X27593D02*
D03*
X28419Y6142D02*
D03*
X28746D02*
D03*
X1648Y4606D02*
D03*
X1974D02*
D03*
X3695Y4803D02*
D03*
X4022D02*
D03*
X12986Y6102D02*
D03*
X13313D02*
D03*
X2250Y7992D02*
D03*
X1923D02*
D03*
X4679Y5787D02*
D03*
X5006D02*
D03*
X7199Y7362D02*
D03*
X7526D02*
D03*
X27841Y5236D02*
D03*
X27514D02*
D03*
X29049Y7480D02*
D03*
X29376D02*
D03*
X29573Y7165D02*
D03*
X29246D02*
D03*
X25618Y9370D02*
D03*
X25945D02*
D03*
Y9055D02*
D03*
X25618D02*
D03*
X25006Y7441D02*
D03*
X24679D02*
D03*
Y7126D02*
D03*
X25006D02*
D03*
X2801Y1850D02*
D03*
X2474D02*
D03*
X12053Y7677D02*
D03*
X11726D02*
D03*
X12368Y7362D02*
D03*
X12041D02*
D03*
X11726Y7992D02*
D03*
X12053D02*
D03*
X13943Y7677D02*
D03*
X13616D02*
D03*
X13943Y6732D02*
D03*
X13616D02*
D03*
X13943Y6102D02*
D03*
X13616D02*
D03*
X13943Y6417D02*
D03*
X13616D02*
D03*
X13943Y7362D02*
D03*
X13616D02*
D03*
X12683Y7992D02*
D03*
X12356D02*
D03*
X12368Y6102D02*
D03*
X12041D02*
D03*
X12368Y8622D02*
D03*
X12041D02*
D03*
X10152Y10197D02*
D03*
X10478D02*
D03*
X10467Y9567D02*
D03*
X10793D02*
D03*
X10467Y6417D02*
D03*
X10793D02*
D03*
X10478Y8622D02*
D03*
X10152D02*
D03*
X15230Y7953D02*
D03*
X15557D02*
D03*
X14848Y6102D02*
D03*
X14522D02*
D03*
X15833Y7402D02*
D03*
X15506D02*
D03*
X12053Y5472D02*
D03*
X11726D02*
D03*
X13628Y7047D02*
D03*
X13301D02*
D03*
X14533Y9843D02*
D03*
X14207D02*
D03*
X14888Y9213D02*
D03*
X14561D02*
D03*
X13931Y8268D02*
D03*
X14258D02*
D03*
X11687Y10197D02*
D03*
X12014D02*
D03*
X12683Y8307D02*
D03*
X12356D02*
D03*
Y6732D02*
D03*
X12683D02*
D03*
X12368Y9567D02*
D03*
X12041D02*
D03*
X12329Y4843D02*
D03*
X12002D02*
D03*
X12362Y5787D02*
D03*
X12035D02*
D03*
X11726Y6732D02*
D03*
X12053D02*
D03*
X1923Y8307D02*
D03*
X2250D02*
D03*
X2093Y6063D02*
D03*
X1766D02*
D03*
X11411Y6102D02*
D03*
X11738D02*
D03*
X27514Y5551D02*
D03*
X27841D02*
D03*
D22*
X12835Y11437D02*
D03*
Y11083D02*
D03*
X12205D02*
D03*
Y11437D02*
D03*
D24*
X3744Y4168D02*
D03*
X3547D02*
D03*
X3350D02*
D03*
X3153D02*
D03*
X2956D02*
D03*
Y2632D02*
D03*
X3153D02*
D03*
X3350D02*
D03*
X3547D02*
D03*
X3744D02*
D03*
D25*
X4118Y3006D02*
D03*
Y3203D02*
D03*
Y3400D02*
D03*
Y3597D02*
D03*
Y3794D02*
D03*
X2582D02*
D03*
Y3597D02*
D03*
Y3400D02*
D03*
Y3203D02*
D03*
Y3006D02*
D03*
D31*
X18474Y8150D02*
D03*
X17510D02*
D03*
X23041Y7165D02*
D03*
X22077D02*
D03*
D32*
X15335Y11220D02*
D03*
X14587D02*
D03*
D33*
X17480Y6289D02*
D03*
Y7254D02*
D03*
X18740Y6624D02*
D03*
Y5659D02*
D03*
X17480Y5610D02*
D03*
Y4646D02*
D03*
D34*
X7520Y5817D02*
D03*
Y6073D02*
D03*
X27559Y9390D02*
D03*
Y9134D02*
D03*
X26299Y9341D02*
D03*
Y9085D02*
D03*
X3740Y2175D02*
D03*
Y1919D02*
D03*
X3150Y1880D02*
D03*
Y2136D02*
D03*
X1575Y8474D02*
D03*
Y8219D02*
D03*
X7520Y6447D02*
D03*
Y6703D02*
D03*
X7205Y8022D02*
D03*
Y8278D02*
D03*
X7520Y10226D02*
D03*
Y10482D02*
D03*
X4685Y6132D02*
D03*
Y6388D02*
D03*
Y7018D02*
D03*
Y6762D02*
D03*
X5315Y7707D02*
D03*
Y7963D02*
D03*
X4685Y9281D02*
D03*
Y9537D02*
D03*
X4685Y9911D02*
D03*
Y10167D02*
D03*
Y10541D02*
D03*
Y10797D02*
D03*
D35*
X7165Y7677D02*
D03*
X6909D02*
D03*
X5020Y8307D02*
D03*
X5276D02*
D03*
X25541Y6220D02*
D03*
X25797D02*
D03*
X4144Y7205D02*
D03*
X3888D02*
D03*
X30069Y2047D02*
D03*
X30325D02*
D03*
X29872Y2323D02*
D03*
X30128D02*
D03*
X29577D02*
D03*
X29321D02*
D03*
X29380Y2047D02*
D03*
X29124D02*
D03*
X30069Y1772D02*
D03*
X30325D02*
D03*
X29872Y2598D02*
D03*
X30128D02*
D03*
X29577D02*
D03*
X29321D02*
D03*
X29380Y1772D02*
D03*
X29124D02*
D03*
X15797Y10512D02*
D03*
X15541D02*
D03*
X28789Y5827D02*
D03*
X28533D02*
D03*
Y5551D02*
D03*
X28789D02*
D03*
X18652Y9331D02*
D03*
X18907D02*
D03*
X5906Y6732D02*
D03*
X5650D02*
D03*
X6545D02*
D03*
X6289D02*
D03*
X5906Y6417D02*
D03*
X5650D02*
D03*
X4144Y6575D02*
D03*
X3888D02*
D03*
X6909Y6417D02*
D03*
X7165D02*
D03*
X4144Y6260D02*
D03*
X3888D02*
D03*
X6909Y6102D02*
D03*
X7165D02*
D03*
X4144Y5945D02*
D03*
X3888D02*
D03*
X6909Y5787D02*
D03*
X7165D02*
D03*
X5650Y6102D02*
D03*
X5906D02*
D03*
X6289Y7677D02*
D03*
X6545D02*
D03*
X6535Y6102D02*
D03*
X6280D02*
D03*
X6289Y7047D02*
D03*
X6545D02*
D03*
X5650Y5787D02*
D03*
X5906D02*
D03*
Y7047D02*
D03*
X5650D02*
D03*
X7165Y6732D02*
D03*
X6909D02*
D03*
X3888Y6890D02*
D03*
X4144D02*
D03*
X5650Y7362D02*
D03*
X5906D02*
D03*
Y7677D02*
D03*
X5650D02*
D03*
Y7992D02*
D03*
X5906D02*
D03*
X3888Y7520D02*
D03*
X4144D02*
D03*
X4616Y4803D02*
D03*
X4360D02*
D03*
X3120Y7992D02*
D03*
X2864D02*
D03*
X2589Y5906D02*
D03*
X2844D02*
D03*
X7175Y8622D02*
D03*
X6919D02*
D03*
X7490Y9567D02*
D03*
X7234D02*
D03*
Y9882D02*
D03*
X7490D02*
D03*
Y10827D02*
D03*
X7234D02*
D03*
X4715Y8622D02*
D03*
X4970D02*
D03*
X5030Y10197D02*
D03*
X5285D02*
D03*
X7175Y7047D02*
D03*
X6919D02*
D03*
D36*
X5984Y8943D02*
D03*
Y8616D02*
D03*
X29409Y4809D02*
D03*
Y4482D02*
D03*
X24134Y10951D02*
D03*
Y10624D02*
D03*
X30787Y2907D02*
D03*
Y3234D02*
D03*
X30315D02*
D03*
Y2907D02*
D03*
X11417Y9888D02*
D03*
Y9561D02*
D03*
X22939Y10661D02*
D03*
Y10988D02*
D03*
X23451Y10661D02*
D03*
Y10988D02*
D03*
X25787Y10663D02*
D03*
Y10990D02*
D03*
X11299Y11018D02*
D03*
Y11344D02*
D03*
X16417Y11266D02*
D03*
Y10939D02*
D03*
X25354Y1805D02*
D03*
Y2132D02*
D03*
X25039Y1805D02*
D03*
Y2132D02*
D03*
X24724Y1805D02*
D03*
Y2132D02*
D03*
X24409Y1805D02*
D03*
Y2132D02*
D03*
X24094Y1805D02*
D03*
Y2132D02*
D03*
X23780Y1805D02*
D03*
Y2132D02*
D03*
X23465Y1805D02*
D03*
Y2132D02*
D03*
X23150Y1805D02*
D03*
Y2132D02*
D03*
X22835Y1805D02*
D03*
Y2132D02*
D03*
X22520Y1805D02*
D03*
Y2132D02*
D03*
X22205Y1805D02*
D03*
Y2132D02*
D03*
X21890Y1805D02*
D03*
Y2132D02*
D03*
X21575Y1805D02*
D03*
Y2132D02*
D03*
X21260Y1805D02*
D03*
Y2132D02*
D03*
X20945Y1805D02*
D03*
Y2132D02*
D03*
X20630Y1805D02*
D03*
Y2132D02*
D03*
X20315Y1805D02*
D03*
Y2132D02*
D03*
X20000D02*
D03*
Y1805D02*
D03*
X26417Y2132D02*
D03*
Y1805D02*
D03*
X19055D02*
D03*
Y2132D02*
D03*
X18740D02*
D03*
Y1805D02*
D03*
X18425D02*
D03*
Y2132D02*
D03*
X18110D02*
D03*
Y1805D02*
D03*
X17795D02*
D03*
Y2132D02*
D03*
X17008D02*
D03*
Y1805D02*
D03*
X16693D02*
D03*
Y2132D02*
D03*
X16378D02*
D03*
Y1805D02*
D03*
X16063D02*
D03*
Y2132D02*
D03*
X10354Y3262D02*
D03*
Y3589D02*
D03*
X10039D02*
D03*
Y3262D02*
D03*
X9724D02*
D03*
Y3589D02*
D03*
X9409D02*
D03*
Y3262D02*
D03*
X19370Y2132D02*
D03*
Y1805D02*
D03*
X8071Y3589D02*
D03*
Y3262D02*
D03*
X7756D02*
D03*
Y3589D02*
D03*
X7441D02*
D03*
Y3262D02*
D03*
X7126D02*
D03*
Y3589D02*
D03*
X6811D02*
D03*
Y3262D02*
D03*
X1496Y10467D02*
D03*
Y10793D02*
D03*
X18425Y4522D02*
D03*
Y4848D02*
D03*
X19094D02*
D03*
Y4522D02*
D03*
X28228Y4482D02*
D03*
Y4809D02*
D03*
X27047D02*
D03*
Y4482D02*
D03*
X25866D02*
D03*
Y4809D02*
D03*
X25512Y5911D02*
D03*
Y5585D02*
D03*
X27205Y5230D02*
D03*
Y5557D02*
D03*
X12992Y5467D02*
D03*
Y5793D02*
D03*
X11732Y7041D02*
D03*
Y7368D02*
D03*
X1575Y7593D02*
D03*
Y7919D02*
D03*
X11102Y8301D02*
D03*
Y8628D02*
D03*
Y7998D02*
D03*
Y7671D02*
D03*
X6565Y7986D02*
D03*
Y8313D02*
D03*
X25984Y2132D02*
D03*
Y1805D02*
D03*
X25669D02*
D03*
Y2132D02*
D03*
X13307Y9219D02*
D03*
Y8892D02*
D03*
X9803Y11344D02*
D03*
Y11018D02*
D03*
X29213Y8982D02*
D03*
Y8656D02*
D03*
X28937Y6896D02*
D03*
Y6569D02*
D03*
X28898Y8785D02*
D03*
Y8459D02*
D03*
X29921Y8301D02*
D03*
Y8628D02*
D03*
X25551Y4482D02*
D03*
Y4809D02*
D03*
X3425Y2171D02*
D03*
Y1844D02*
D03*
X13622Y8628D02*
D03*
Y8301D02*
D03*
X13307Y8628D02*
D03*
Y8301D02*
D03*
X12992Y8628D02*
D03*
Y8301D02*
D03*
X14567Y7002D02*
D03*
Y7329D02*
D03*
X11850Y11423D02*
D03*
Y11096D02*
D03*
X10472Y7683D02*
D03*
Y7356D02*
D03*
X15827Y9207D02*
D03*
Y9533D02*
D03*
X12992Y6411D02*
D03*
Y6738D02*
D03*
X14843Y4837D02*
D03*
Y5163D02*
D03*
X13898Y5478D02*
D03*
Y5152D02*
D03*
X15551Y5793D02*
D03*
Y5467D02*
D03*
X15787Y4522D02*
D03*
Y4848D02*
D03*
X13346Y5163D02*
D03*
Y4837D02*
D03*
X12638Y4848D02*
D03*
Y4522D02*
D03*
X21299Y10085D02*
D03*
Y9758D02*
D03*
X21614D02*
D03*
Y10085D02*
D03*
X18071Y10675D02*
D03*
Y10348D02*
D03*
X22309Y10965D02*
D03*
Y10638D02*
D03*
X21955Y10632D02*
D03*
Y10959D02*
D03*
X6299Y5309D02*
D03*
Y5636D02*
D03*
X6299Y8616D02*
D03*
Y8943D02*
D03*
X4016Y5309D02*
D03*
Y5636D02*
D03*
X2559Y8380D02*
D03*
Y8707D02*
D03*
X11732Y8628D02*
D03*
Y8301D02*
D03*
X25906Y5585D02*
D03*
Y5911D02*
D03*
X26220Y5675D02*
D03*
Y5348D02*
D03*
X26535Y5230D02*
D03*
Y5557D02*
D03*
X11890Y2571D02*
D03*
Y2244D02*
D03*
X12205D02*
D03*
Y2571D02*
D03*
X12520Y2244D02*
D03*
Y2571D02*
D03*
X11575D02*
D03*
Y2244D02*
D03*
X10669Y3589D02*
D03*
Y3262D02*
D03*
X28819Y1923D02*
D03*
Y2250D02*
D03*
X28504D02*
D03*
Y1923D02*
D03*
D37*
X25039Y7835D02*
D03*
Y8622D02*
D03*
D38*
X29587Y8307D02*
D03*
X29232D02*
D03*
X29232Y7795D02*
D03*
X28878D02*
D03*
D53*
X-30400Y-2600D02*
Y-3200D01*
X-30100D01*
X-30000Y-3100D01*
Y-3000D01*
X-30100Y-2900D01*
X-30400D01*
X-30100D01*
X-30000Y-2800D01*
Y-2700D01*
X-30100Y-2600D01*
X-30400D01*
X-29700Y-3200D02*
X-29500D01*
X-29400Y-3100D01*
Y-2900D01*
X-29500Y-2800D01*
X-29700D01*
X-29800Y-2900D01*
Y-3100D01*
X-29700Y-3200D01*
X-29100Y-2700D02*
Y-2800D01*
X-29200D01*
X-29000D01*
X-29100D01*
Y-3100D01*
X-29000Y-3200D01*
X-28601Y-2700D02*
Y-2800D01*
X-28701D01*
X-28501D01*
X-28601D01*
Y-3100D01*
X-28501Y-3200D01*
X-28101D02*
X-27901D01*
X-27801Y-3100D01*
Y-2900D01*
X-27901Y-2800D01*
X-28101D01*
X-28201Y-2900D01*
Y-3100D01*
X-28101Y-3200D01*
X-27601D02*
Y-2800D01*
X-27501D01*
X-27401Y-2900D01*
Y-3200D01*
Y-2900D01*
X-27301Y-2800D01*
X-27201Y-2900D01*
Y-3200D01*
X-26401D02*
Y-2600D01*
X-26101D01*
X-26001Y-2700D01*
Y-2900D01*
X-26101Y-3000D01*
X-26401D01*
X-25702Y-2800D02*
X-25502D01*
X-25402Y-2900D01*
Y-3200D01*
X-25702D01*
X-25801Y-3100D01*
X-25702Y-3000D01*
X-25402D01*
X-25202Y-3200D02*
X-24902D01*
X-24802Y-3100D01*
X-24902Y-3000D01*
X-25102D01*
X-25202Y-2900D01*
X-25102Y-2800D01*
X-24802D01*
X-24502Y-2700D02*
Y-2800D01*
X-24602D01*
X-24402D01*
X-24502D01*
Y-3100D01*
X-24402Y-3200D01*
X-23802D02*
X-24002D01*
X-24102Y-3100D01*
Y-2900D01*
X-24002Y-2800D01*
X-23802D01*
X-23702Y-2900D01*
Y-3000D01*
X-24102D01*
X-22702Y-3200D02*
X-22902Y-3000D01*
Y-2800D01*
X-22702Y-2600D01*
X-22403Y-3200D02*
Y-2600D01*
X-22103D01*
X-22003Y-2700D01*
Y-2900D01*
X-22103Y-3000D01*
X-22403D01*
X-21703Y-2800D02*
X-21503D01*
X-21403Y-2900D01*
Y-3200D01*
X-21703D01*
X-21803Y-3100D01*
X-21703Y-3000D01*
X-21403D01*
X-21203Y-3200D02*
X-20903D01*
X-20803Y-3100D01*
X-20903Y-3000D01*
X-21103D01*
X-21203Y-2900D01*
X-21103Y-2800D01*
X-20803D01*
X-20503Y-2700D02*
Y-2800D01*
X-20603D01*
X-20403D01*
X-20503D01*
Y-3100D01*
X-20403Y-3200D01*
X-19803D02*
X-20003D01*
X-20103Y-3100D01*
Y-2900D01*
X-20003Y-2800D01*
X-19803D01*
X-19703Y-2900D01*
Y-3000D01*
X-20103D01*
X-19504Y-3200D02*
X-19304Y-3000D01*
Y-2800D01*
X-19504Y-2600D01*
D70*
X20787Y10502D02*
D03*
Y10246D02*
D03*
Y9990D02*
D03*
Y9734D02*
D03*
X18583Y10502D02*
D03*
Y10246D02*
D03*
Y9990D02*
D03*
Y9734D02*
D03*
D72*
X26171Y7913D02*
D03*
Y7756D02*
D03*
Y7598D02*
D03*
Y7441D02*
D03*
Y7283D02*
D03*
Y7126D02*
D03*
Y6969D02*
D03*
Y6811D02*
D03*
Y6654D02*
D03*
Y6496D02*
D03*
X28041D02*
D03*
Y6654D02*
D03*
Y6811D02*
D03*
Y6969D02*
D03*
Y7126D02*
D03*
Y7283D02*
D03*
Y7441D02*
D03*
Y7598D02*
D03*
Y7756D02*
D03*
Y7913D02*
D03*
D73*
X26398Y6270D02*
D03*
X26555D02*
D03*
X26713D02*
D03*
X26870D02*
D03*
X27028D02*
D03*
X27185D02*
D03*
X27343D02*
D03*
X27500D02*
D03*
X27657D02*
D03*
X27815D02*
D03*
Y8140D02*
D03*
X27657D02*
D03*
X27500D02*
D03*
X27343D02*
D03*
X27185D02*
D03*
X27028D02*
D03*
X26870D02*
D03*
X26713D02*
D03*
X26555D02*
D03*
X26398D02*
D03*
D76*
X10876Y11486D02*
D03*
X10226D02*
D03*
Y10876D02*
D03*
X10876D02*
D03*
D77*
X24510Y10413D02*
D03*
Y11161D02*
D03*
X25411Y10787D02*
D03*
D82*
X3600Y3150D02*
D03*
Y3650D02*
D03*
X3100Y3150D02*
D03*
Y3650D02*
D03*
D92*
X27106Y7205D02*
D03*
D93*
X27559Y6752D02*
D03*
X27559Y7657D02*
D03*
X26654Y6752D02*
D03*
X26654Y7657D02*
D03*
D94*
X27106Y7657D02*
D03*
D95*
X27106Y6752D02*
D03*
D96*
X27559Y7205D02*
D03*
X26654Y7205D02*
D03*
D97*
X2270Y7224D02*
D03*
X2270Y6870D02*
D03*
X2769Y6870D02*
D03*
X2769Y7224D02*
D03*
D98*
X1878Y7146D02*
D03*
X1878Y6949D02*
D03*
X3161Y6949D02*
D03*
X3161Y7145D02*
D03*
D99*
X26673Y9065D02*
D03*
Y9459D02*
D03*
X27205D02*
D03*
Y9065D02*
D03*
D100*
X2126Y7628D02*
D03*
X2323D02*
D03*
X2520D02*
D03*
X2717D02*
D03*
X2913D02*
D03*
Y6467D02*
D03*
X2717D02*
D03*
X2520D02*
D03*
X2323D02*
D03*
X2126D02*
D03*
%TF.MD5,ab7a1d0f50273a3bb53bfd29e1868cdc*%
M02*
