G04 Layer_Physical_Order=9*
G04 Layer_Color=8421376*
%FSLAX24Y24*%
%MOIN*%
%TF.FileFunction,Copper,L9,Inr,Plane*%
%TF.Part,Single*%
G01*
G75*
%TA.AperFunction,NonConductor*%
%ADD53C,0.0100*%
%TA.AperFunction,ViaPad*%
%ADD61C,0.0240*%
%ADD62C,0.0230*%
%ADD63C,0.0220*%
%TA.AperFunction,TestPad*%
%ADD64C,0.0220*%
%TA.AperFunction,NonConductor*%
%ADD68C,0.0120*%
D53*
X394Y3543D02*
G03*
X787Y3937I0J394D01*
G01*
D02*
G03*
X394Y4331I-394J0D01*
G01*
X0Y7087D02*
G03*
X787Y7874I0J787D01*
G01*
D02*
G03*
X0Y8661I-787J0D01*
G01*
X32283D02*
G03*
X31496Y7874I0J-787D01*
G01*
D02*
G03*
X32283Y7087I787J0D01*
G01*
X31890Y4331D02*
G03*
X31496Y3937I0J-394D01*
G01*
D02*
G03*
X31890Y3543I394J0D01*
G01*
X17480Y1299D02*
G03*
X17283Y1496I-197J0D01*
G01*
X17283D02*
G03*
X17087Y1299I0J-197D01*
G01*
X-0Y-0D02*
X0Y0D01*
X17087D01*
Y1299D01*
X17283Y1496D02*
X17283D01*
X17480Y0D02*
Y1299D01*
Y0D02*
X32283D01*
Y3150D01*
Y3543D01*
X31890D02*
X32283D01*
X31890Y4331D02*
X32283D01*
Y7087D01*
X32283Y8661D02*
X32283D01*
Y11811D01*
X0D02*
X32283D01*
X0Y8661D02*
Y11811D01*
Y8661D02*
X0D01*
X0Y4331D02*
Y7087D01*
Y4331D02*
X394D01*
X0Y3543D02*
X394D01*
X0Y-0D02*
Y3543D01*
X-0Y-0D02*
X0Y-0D01*
X16535Y5630D02*
X17165Y6260D01*
X23465D01*
X24843Y9724D02*
X25079Y9961D01*
X26732D01*
X26929Y10157D01*
Y11811D01*
X24488Y6260D02*
X24606Y6378D01*
Y9488D01*
X24843Y9724D01*
X23465Y6260D02*
X24488D01*
X-30400Y2400D02*
Y1800D01*
X-30000D01*
X-29700Y2200D02*
X-29500D01*
X-29400Y2100D01*
Y1800D01*
X-29700D01*
X-29800Y1900D01*
X-29700Y2000D01*
X-29400D01*
X-29200Y2200D02*
Y1900D01*
X-29100Y1800D01*
X-28801D01*
Y1700D01*
X-28900Y1600D01*
X-29000D01*
X-28801Y1800D02*
Y2200D01*
X-28301Y1800D02*
X-28501D01*
X-28601Y1900D01*
Y2100D01*
X-28501Y2200D01*
X-28301D01*
X-28201Y2100D01*
Y2000D01*
X-28601D01*
X-28001Y2200D02*
Y1800D01*
Y2000D01*
X-27901Y2100D01*
X-27801Y2200D01*
X-27701D01*
X-26801Y1900D02*
X-26701Y1800D01*
X-26501D01*
X-26401Y1900D01*
Y2300D01*
X-26501Y2400D01*
X-26701D01*
X-26801Y2300D01*
Y2200D01*
X-26701Y2100D01*
X-26401D01*
X-25602D02*
X-25202D01*
X-24402Y1800D02*
Y2400D01*
X-24102D01*
X-24002Y2300D01*
Y2100D01*
X-24102Y2000D01*
X-24402D01*
X-23702Y1800D02*
X-23502D01*
X-23402Y1900D01*
Y2100D01*
X-23502Y2200D01*
X-23702D01*
X-23802Y2100D01*
Y1900D01*
X-23702Y1800D01*
X-23202Y2200D02*
Y1900D01*
X-23102Y1800D01*
X-23002Y1900D01*
X-22902Y1800D01*
X-22802Y1900D01*
Y2200D01*
X-22303Y1800D02*
X-22503D01*
X-22603Y1900D01*
Y2100D01*
X-22503Y2200D01*
X-22303D01*
X-22203Y2100D01*
Y2000D01*
X-22603D01*
X-22003Y2200D02*
Y1800D01*
Y2000D01*
X-21903Y2100D01*
X-21803Y2200D01*
X-21703D01*
X-20803Y1800D02*
Y2400D01*
X-20503D01*
X-20403Y2300D01*
Y2100D01*
X-20503Y2000D01*
X-20803D01*
X-20203Y1800D02*
X-20003D01*
X-20103D01*
Y2400D01*
X-20203D01*
X-19603Y2200D02*
X-19404D01*
X-19304Y2100D01*
Y1800D01*
X-19603D01*
X-19703Y1900D01*
X-19603Y2000D01*
X-19304D01*
X-19104Y1800D02*
Y2200D01*
X-18804D01*
X-18704Y2100D01*
Y1800D01*
X-18204D02*
X-18404D01*
X-18504Y1900D01*
Y2100D01*
X-18404Y2200D01*
X-18204D01*
X-18104Y2100D01*
Y2000D01*
X-18504D01*
X-17104Y1800D02*
X-17304Y2000D01*
Y2200D01*
X-17104Y2400D01*
X-16405Y2300D02*
X-16504Y2400D01*
X-16704D01*
X-16804Y2300D01*
Y1900D01*
X-16704Y1800D01*
X-16504D01*
X-16405Y1900D01*
X-16105Y1800D02*
X-15905D01*
X-15805Y1900D01*
Y2100D01*
X-15905Y2200D01*
X-16105D01*
X-16205Y2100D01*
Y1900D01*
X-16105Y1800D01*
X-15605Y1600D02*
Y2200D01*
X-15305D01*
X-15205Y2100D01*
Y1900D01*
X-15305Y1800D01*
X-15605D01*
X-15005Y1600D02*
Y2200D01*
X-14705D01*
X-14605Y2100D01*
Y1900D01*
X-14705Y1800D01*
X-15005D01*
X-14105D02*
X-14305D01*
X-14405Y1900D01*
Y2100D01*
X-14305Y2200D01*
X-14105D01*
X-14005Y2100D01*
Y2000D01*
X-14405D01*
X-13805Y2200D02*
Y1800D01*
Y2000D01*
X-13705Y2100D01*
X-13605Y2200D01*
X-13505D01*
X-13106Y1700D02*
X-13006Y1800D01*
Y1900D01*
X-13106D01*
Y1800D01*
X-13006D01*
X-13106Y1700D01*
X-13206Y1600D01*
X-12006Y1800D02*
Y2400D01*
X-11806Y2200D01*
X-11606Y2400D01*
Y1800D01*
X-11306Y2200D02*
X-11106D01*
X-11006Y2100D01*
Y1800D01*
X-11306D01*
X-11406Y1900D01*
X-11306Y2000D01*
X-11006D01*
X-10806Y1800D02*
X-10506D01*
X-10406Y1900D01*
X-10506Y2000D01*
X-10706D01*
X-10806Y2100D01*
X-10706Y2200D01*
X-10406D01*
X-10207Y1800D02*
Y2400D01*
Y2000D02*
X-9907Y2200D01*
X-10207Y2000D02*
X-9907Y1800D01*
X-9607D02*
X-9407Y2000D01*
Y2200D01*
X-9607Y2400D01*
D61*
X19685Y1535D02*
D03*
X16850Y1181D02*
D03*
X24882Y11299D02*
D03*
X11850Y11575D02*
D03*
X29587Y8701D02*
D03*
X19685Y2323D02*
D03*
X2126Y5512D02*
D03*
Y5787D02*
D03*
X1575D02*
D03*
Y5512D02*
D03*
X1850D02*
D03*
X18819Y6260D02*
D03*
X18543D02*
D03*
X18268D02*
D03*
X17717Y6850D02*
D03*
X17992D02*
D03*
X17913Y8268D02*
D03*
Y8543D02*
D03*
X23465Y7165D02*
D03*
Y6772D02*
D03*
Y7520D02*
D03*
X16890Y10866D02*
D03*
X591Y9449D02*
D03*
Y9764D02*
D03*
Y10065D02*
D03*
Y10394D02*
D03*
X2047Y10433D02*
D03*
X4291Y9488D02*
D03*
X3976Y11063D02*
D03*
X21496Y4488D02*
D03*
Y4764D02*
D03*
X21220D02*
D03*
X25886Y4291D02*
D03*
X20394Y1535D02*
D03*
X18976D02*
D03*
X18268D02*
D03*
X19685Y1890D02*
D03*
X17559Y1969D02*
D03*
Y1693D02*
D03*
X17244D02*
D03*
X25512Y5354D02*
D03*
X25787Y11417D02*
D03*
X26378D02*
D03*
X25394Y9606D02*
D03*
Y9370D02*
D03*
X29449Y7795D02*
D03*
X13110Y11417D02*
D03*
X6575Y3589D02*
D03*
X9213Y3543D02*
D03*
X9173Y2480D02*
D03*
X12520Y2756D02*
D03*
X11614Y2913D02*
D03*
X20118Y10118D02*
D03*
X6614Y3858D02*
D03*
X7126D02*
D03*
X2795Y1654D02*
D03*
X1850Y5787D02*
D03*
X2638Y6142D02*
D03*
X9606Y5433D02*
D03*
X6102Y7205D02*
D03*
X4843Y1339D02*
D03*
X4961Y1535D02*
D03*
X4724D02*
D03*
X5512Y1732D02*
D03*
Y1969D02*
D03*
Y2205D02*
D03*
X2717Y2638D02*
D03*
X2559Y2795D02*
D03*
X4118Y2772D02*
D03*
X3971Y2632D02*
D03*
X2992Y6142D02*
D03*
Y5906D02*
D03*
X6102Y8150D02*
D03*
X5354Y3661D02*
D03*
X2677Y5000D02*
D03*
X1457Y4606D02*
D03*
X4370Y5157D02*
D03*
X1339Y9055D02*
D03*
X2559Y9606D02*
D03*
X906Y10394D02*
D03*
Y10079D02*
D03*
Y9764D02*
D03*
X1890Y9606D02*
D03*
X1142Y8858D02*
D03*
X3346Y10433D02*
D03*
X3661D02*
D03*
X3976D02*
D03*
Y10748D02*
D03*
Y10118D02*
D03*
X12047Y10866D02*
D03*
X12362D02*
D03*
X11732D02*
D03*
X12835D02*
D03*
X13982Y11530D02*
D03*
X27559Y8504D02*
D03*
X27244Y8740D02*
D03*
X26654Y9882D02*
D03*
X26260D02*
D03*
X28898Y8189D02*
D03*
X29587Y8504D02*
D03*
X27067Y4291D02*
D03*
X28248D02*
D03*
X29429D02*
D03*
X28937Y6142D02*
D03*
X26870Y5354D02*
D03*
X28071Y5394D02*
D03*
X24528Y9213D02*
D03*
X28543Y11457D02*
D03*
X29528D02*
D03*
X30512D02*
D03*
X27795Y11417D02*
D03*
X17559Y10866D02*
D03*
X18071D02*
D03*
X26811Y11417D02*
D03*
X30315Y3465D02*
D03*
X30787D02*
D03*
X30325Y1614D02*
D03*
X29134Y2598D02*
D03*
X30315D02*
D03*
X29124Y1614D02*
D03*
X21890Y1457D02*
D03*
X22598D02*
D03*
X21181D02*
D03*
X20945Y4764D02*
D03*
X20669D02*
D03*
X20394D02*
D03*
X8346Y11260D02*
D03*
X8031D02*
D03*
X7717D02*
D03*
X7402D02*
D03*
X3976Y9803D02*
D03*
X4291D02*
D03*
Y10118D02*
D03*
Y10433D02*
D03*
Y10748D02*
D03*
Y11063D02*
D03*
X21693Y10866D02*
D03*
X21496D02*
D03*
X13346D02*
D03*
X10472Y10984D02*
D03*
X19094Y7992D02*
D03*
Y7717D02*
D03*
X19370D02*
D03*
D62*
X16142Y11575D02*
D03*
X15197D02*
D03*
X15472D02*
D03*
Y11339D02*
D03*
X15197D02*
D03*
X15866Y11575D02*
D03*
Y11339D02*
D03*
X25551Y11496D02*
D03*
X22283Y9370D02*
D03*
Y10197D02*
D03*
Y9803D02*
D03*
X22677D02*
D03*
X23071D02*
D03*
Y9370D02*
D03*
X22677D02*
D03*
X23071Y10197D02*
D03*
X22677D02*
D03*
X21220Y4488D02*
D03*
X20945D02*
D03*
X20669D02*
D03*
X20394D02*
D03*
X11417Y6102D02*
D03*
X11102Y8628D02*
D03*
X18543Y6575D02*
D03*
X17717Y7402D02*
D03*
X17992Y7126D02*
D03*
X17717D02*
D03*
X18268Y6850D02*
D03*
Y6575D02*
D03*
X17638Y8543D02*
D03*
X17913Y6457D02*
D03*
X18898Y5472D02*
D03*
Y5748D02*
D03*
X18622D02*
D03*
X18346Y5472D02*
D03*
X18071Y5748D02*
D03*
Y5472D02*
D03*
X17795D02*
D03*
Y5748D02*
D03*
Y6024D02*
D03*
X17520Y5472D02*
D03*
Y5748D02*
D03*
Y6024D02*
D03*
Y6299D02*
D03*
X23189Y6772D02*
D03*
X22913D02*
D03*
Y7520D02*
D03*
X23189D02*
D03*
Y7165D02*
D03*
X22913D02*
D03*
X1220Y9764D02*
D03*
Y10079D02*
D03*
X1850Y10236D02*
D03*
X15512Y7362D02*
D03*
X14567Y6102D02*
D03*
X14882D02*
D03*
X12992D02*
D03*
X3110Y7756D02*
D03*
X5984Y8937D02*
D03*
X5000Y5787D02*
D03*
X5630Y6417D02*
D03*
X6575Y7677D02*
D03*
X5630Y6732D02*
D03*
X6575D02*
D03*
Y7047D02*
D03*
X6890Y7047D02*
D03*
X5630Y7677D02*
D03*
X7205Y5787D02*
D03*
Y6102D02*
D03*
X5315Y7677D02*
D03*
X7205Y7362D02*
D03*
X10472D02*
D03*
X6575Y7992D02*
D03*
Y8307D02*
D03*
X10472Y6417D02*
D03*
X11417Y9567D02*
D03*
Y9882D02*
D03*
X12047Y7362D02*
D03*
X11732D02*
D03*
X12992Y5787D02*
D03*
Y5472D02*
D03*
X12362Y5787D02*
D03*
X14567Y7047D02*
D03*
X13937Y6102D02*
D03*
Y6732D02*
D03*
X13622Y6417D02*
D03*
X13937Y7362D02*
D03*
X13622Y7677D02*
D03*
X10472Y9567D02*
D03*
Y10197D02*
D03*
X12677Y4528D02*
D03*
X13307Y5157D02*
D03*
X13937D02*
D03*
X14882Y4843D02*
D03*
X15512Y5787D02*
D03*
X15827Y7362D02*
D03*
X15197Y7992D02*
D03*
X15827Y4528D02*
D03*
Y9567D02*
D03*
X14252Y8307D02*
D03*
X13622D02*
D03*
X13307Y8622D02*
D03*
X12047Y7677D02*
D03*
X12362Y8622D02*
D03*
X12992Y8307D02*
D03*
X11732D02*
D03*
Y7047D02*
D03*
X12047Y9252D02*
D03*
Y9567D02*
D03*
X11732Y10197D02*
D03*
X14567Y7362D02*
D03*
X12992Y6732D02*
D03*
X13937Y6417D02*
D03*
X13622Y6102D02*
D03*
Y6732D02*
D03*
Y7047D02*
D03*
Y7362D02*
D03*
X13937Y7677D02*
D03*
X15512Y7992D02*
D03*
X15827Y9252D02*
D03*
X14882D02*
D03*
X14252Y9882D02*
D03*
X13937Y8307D02*
D03*
X13622Y8622D02*
D03*
X13307Y8937D02*
D03*
X12047Y8622D02*
D03*
X12992D02*
D03*
X12677Y8307D02*
D03*
X12362Y9567D02*
D03*
Y9252D02*
D03*
X12047Y10197D02*
D03*
X12677Y6732D02*
D03*
X12047D02*
D03*
Y4843D02*
D03*
X11732Y5472D02*
D03*
X12362Y7362D02*
D03*
X11732Y6732D02*
D03*
X11102Y7992D02*
D03*
X11732Y7992D02*
D03*
X12047D02*
D03*
X12362Y6102D02*
D03*
X12047D02*
D03*
X5000Y8307D02*
D03*
X4685Y10827D02*
D03*
Y10197D02*
D03*
X5000D02*
D03*
X4685Y9252D02*
D03*
X5000Y8622D02*
D03*
X4685Y6732D02*
D03*
Y6102D02*
D03*
X7205Y10827D02*
D03*
X7520Y10197D02*
D03*
Y9882D02*
D03*
Y9567D02*
D03*
X6890Y8622D02*
D03*
X7205Y7992D02*
D03*
X7520Y6732D02*
D03*
Y6102D02*
D03*
X7205Y7677D02*
D03*
X5630Y7362D02*
D03*
Y5787D02*
D03*
Y7992D02*
D03*
X7205Y6732D02*
D03*
Y6417D02*
D03*
X5630Y6102D02*
D03*
X6575D02*
D03*
X5630Y7047D02*
D03*
X11102Y8307D02*
D03*
X10157Y8622D02*
D03*
X10787Y9882D02*
D03*
X2244Y8504D02*
D03*
X12677Y7992D02*
D03*
X13307Y8307D02*
D03*
Y9252D02*
D03*
X25394Y7953D02*
D03*
Y7756D02*
D03*
X25984Y2165D02*
D03*
X13307Y6102D02*
D03*
X18268Y8543D02*
D03*
X18543D02*
D03*
X18268Y8268D02*
D03*
X18543D02*
D03*
X18819D02*
D03*
Y7992D02*
D03*
X18543D02*
D03*
X18268D02*
D03*
X18543Y7717D02*
D03*
X18819D02*
D03*
D63*
X24528Y9606D02*
D03*
X16220Y3189D02*
D03*
X16457D02*
D03*
X20000Y2362D02*
D03*
X18425D02*
D03*
X19055D02*
D03*
X16693Y2323D02*
D03*
X19370Y2362D02*
D03*
X18740D02*
D03*
X18110D02*
D03*
X17795D02*
D03*
X17008Y2323D02*
D03*
X16220Y2362D02*
D03*
X14961Y1693D02*
D03*
Y1457D02*
D03*
X25591Y2520D02*
D03*
X25906D02*
D03*
X25157D02*
D03*
X24882D02*
D03*
X24252D02*
D03*
X23622D02*
D03*
X22992D02*
D03*
X22362D02*
D03*
X21732D02*
D03*
X21102D02*
D03*
X20472D02*
D03*
X27953Y2598D02*
D03*
X27402D02*
D03*
X27677D02*
D03*
X26378Y4094D02*
D03*
X26142Y4213D02*
D03*
X23819Y3307D02*
D03*
X23307Y2362D02*
D03*
X23425Y3307D02*
D03*
X22992Y3425D02*
D03*
X20669Y3307D02*
D03*
X21299D02*
D03*
X20906D02*
D03*
X21929D02*
D03*
X21535D02*
D03*
X22559D02*
D03*
X22165D02*
D03*
X23189D02*
D03*
X22795D02*
D03*
X24449D02*
D03*
X24055D02*
D03*
X24685D02*
D03*
X20787Y2362D02*
D03*
X13032Y2047D02*
D03*
X12717Y1969D02*
D03*
X12520Y1772D02*
D03*
X9843Y9882D02*
D03*
X11732Y5787D02*
D03*
X19528Y4764D02*
D03*
Y4528D02*
D03*
X11102Y9252D02*
D03*
X22480Y9055D02*
D03*
X22913D02*
D03*
X22126Y8071D02*
D03*
X23228Y10984D02*
D03*
Y11299D02*
D03*
X22638Y10591D02*
D03*
X24016Y11339D02*
D03*
X26063Y11417D02*
D03*
X19409Y8622D02*
D03*
X19803D02*
D03*
X20118D02*
D03*
X20433D02*
D03*
X19055D02*
D03*
X17283Y1969D02*
D03*
X25669Y3661D02*
D03*
X28661Y3465D02*
D03*
X16457Y8622D02*
D03*
X15512Y8937D02*
D03*
X15827D02*
D03*
X14567Y8307D02*
D03*
X14882Y7992D02*
D03*
X15197Y2165D02*
D03*
X15787Y2008D02*
D03*
X24567Y2362D02*
D03*
X14567Y7992D02*
D03*
X14882Y8307D02*
D03*
Y7677D02*
D03*
X15197Y8307D02*
D03*
X15512D02*
D03*
X15827D02*
D03*
X15197Y7677D02*
D03*
X23937Y2362D02*
D03*
X16457Y7677D02*
D03*
X16142Y7992D02*
D03*
X16457Y7047D02*
D03*
X14252Y7992D02*
D03*
X15827Y7677D02*
D03*
Y7992D02*
D03*
X15512Y7677D02*
D03*
X13937Y8622D02*
D03*
X14567Y7677D02*
D03*
X15197Y7362D02*
D03*
X13937Y7992D02*
D03*
X14252Y7677D02*
D03*
X22047Y2362D02*
D03*
X15827Y7047D02*
D03*
X14882Y7362D02*
D03*
Y7047D02*
D03*
X27047Y2441D02*
D03*
X15827Y8622D02*
D03*
X14882D02*
D03*
X15197D02*
D03*
X14567D02*
D03*
X15197Y9252D02*
D03*
X15512D02*
D03*
Y8622D02*
D03*
X26457Y1339D02*
D03*
X26732Y1535D02*
D03*
X26969Y1299D02*
D03*
X27598Y1850D02*
D03*
X27520Y4094D02*
D03*
X28465Y3031D02*
D03*
Y3307D02*
D03*
X28504Y1732D02*
D03*
X31299Y5709D02*
D03*
X30709Y6063D02*
D03*
Y5709D02*
D03*
X11732Y9567D02*
D03*
X12047Y8937D02*
D03*
X12677Y9567D02*
D03*
Y9252D02*
D03*
X29843Y3465D02*
D03*
X30039Y3937D02*
D03*
X29488Y3031D02*
D03*
X29882Y4094D02*
D03*
X29016Y3583D02*
D03*
X13937Y9567D02*
D03*
Y10197D02*
D03*
X14252D02*
D03*
X14567Y10512D02*
D03*
X30039Y3031D02*
D03*
X20748Y9528D02*
D03*
X15197Y9882D02*
D03*
Y9567D02*
D03*
X14567Y10197D02*
D03*
X13622Y9882D02*
D03*
Y10197D02*
D03*
X14252Y9567D02*
D03*
X14882Y8937D02*
D03*
X15197D02*
D03*
X15827Y9882D02*
D03*
X18110Y9567D02*
D03*
X14882D02*
D03*
X20394Y9528D02*
D03*
X14567Y9567D02*
D03*
X13937Y9882D02*
D03*
X12047D02*
D03*
X13543Y2559D02*
D03*
X13740Y2756D02*
D03*
X14488Y1693D02*
D03*
X14252D02*
D03*
X13386D02*
D03*
X15827Y5157D02*
D03*
X15512D02*
D03*
X15827Y6102D02*
D03*
Y6417D02*
D03*
X15512Y6102D02*
D03*
X15197Y6417D02*
D03*
X14567Y5157D02*
D03*
X11693Y1339D02*
D03*
X11496Y1732D02*
D03*
X11890Y1850D02*
D03*
X15512Y4213D02*
D03*
X15197D02*
D03*
X15512Y4843D02*
D03*
Y4528D02*
D03*
X15197D02*
D03*
Y4843D02*
D03*
X14567Y4528D02*
D03*
Y4843D02*
D03*
X14882Y5787D02*
D03*
X14252Y4843D02*
D03*
Y4528D02*
D03*
X13937Y3740D02*
D03*
X13622Y5157D02*
D03*
Y3898D02*
D03*
Y4213D02*
D03*
X12992Y4843D02*
D03*
X12992Y5157D02*
D03*
X8937Y2126D02*
D03*
X12992Y4213D02*
D03*
X13307Y4528D02*
D03*
X12992D02*
D03*
X12362D02*
D03*
X12047D02*
D03*
X12677Y5472D02*
D03*
X11417Y4843D02*
D03*
Y4528D02*
D03*
X12362Y5157D02*
D03*
X7874Y2717D02*
D03*
X7402D02*
D03*
X6929D02*
D03*
X8110Y3031D02*
D03*
X7638D02*
D03*
X7165D02*
D03*
X6693D02*
D03*
X14252Y5472D02*
D03*
X13937Y5787D02*
D03*
Y4843D02*
D03*
X13622D02*
D03*
Y5472D02*
D03*
X16575Y10197D02*
D03*
X25276Y6142D02*
D03*
X14567Y8937D02*
D03*
X19724Y10118D02*
D03*
X20118Y10512D02*
D03*
X19724D02*
D03*
X14252Y6102D02*
D03*
X13622Y4528D02*
D03*
Y5787D02*
D03*
X13307D02*
D03*
X12677D02*
D03*
X8465Y2126D02*
D03*
X8701Y1575D02*
D03*
X11417Y5472D02*
D03*
X11102Y5157D02*
D03*
X9173Y1260D02*
D03*
X9882D02*
D03*
X9646Y1575D02*
D03*
Y1850D02*
D03*
X10354Y1575D02*
D03*
Y1850D02*
D03*
X10591Y1260D02*
D03*
X11063Y1850D02*
D03*
Y1575D02*
D03*
X11299Y1260D02*
D03*
X8701D02*
D03*
X8465Y1575D02*
D03*
Y1850D02*
D03*
X7992Y1260D02*
D03*
X7756Y1850D02*
D03*
Y1575D02*
D03*
X7047Y1850D02*
D03*
Y1575D02*
D03*
X7283Y1260D02*
D03*
X6575D02*
D03*
X10787Y5157D02*
D03*
X13307Y6417D02*
D03*
X15197Y10512D02*
D03*
X13307Y10197D02*
D03*
X10157Y5157D02*
D03*
X4331Y7520D02*
D03*
Y7205D02*
D03*
Y6890D02*
D03*
Y6575D02*
D03*
Y6260D02*
D03*
Y5945D02*
D03*
X11102Y10197D02*
D03*
X6575Y9567D02*
D03*
X5315Y6732D02*
D03*
X10787Y7362D02*
D03*
Y7047D02*
D03*
X10472D02*
D03*
X10157Y6417D02*
D03*
X10787Y7677D02*
D03*
X11102Y6732D02*
D03*
X8465Y7677D02*
D03*
X5315Y6102D02*
D03*
X10787Y7992D02*
D03*
X10157Y7362D02*
D03*
X9843Y7047D02*
D03*
X5315Y6417D02*
D03*
X11102Y7362D02*
D03*
X5315Y7047D02*
D03*
X11417Y6417D02*
D03*
X8465Y5787D02*
D03*
X11102D02*
D03*
X10157Y6732D02*
D03*
X13307Y5472D02*
D03*
X15512Y6732D02*
D03*
X12047Y8307D02*
D03*
X11732Y8937D02*
D03*
X12992D02*
D03*
X12362Y6417D02*
D03*
X12047D02*
D03*
X12677Y7362D02*
D03*
X11732Y6417D02*
D03*
X5000Y9882D02*
D03*
X7520Y8622D02*
D03*
X10472Y6732D02*
D03*
X11102Y7047D02*
D03*
X10157D02*
D03*
X10787Y9252D02*
D03*
X7835Y5787D02*
D03*
X11102Y6417D02*
D03*
X5315Y7362D02*
D03*
X5000Y7677D02*
D03*
X9528Y6732D02*
D03*
X11102Y6102D02*
D03*
X10787Y6732D02*
D03*
X8150Y7362D02*
D03*
X10787Y8307D02*
D03*
Y8937D02*
D03*
X11417Y8307D02*
D03*
Y7992D02*
D03*
Y7677D02*
D03*
X7205Y8937D02*
D03*
X10787Y8622D02*
D03*
X5315Y8937D02*
D03*
X5630D02*
D03*
X10157Y8307D02*
D03*
X10472D02*
D03*
Y7992D02*
D03*
X10157D02*
D03*
X5000Y8937D02*
D03*
X5630Y8307D02*
D03*
X9843Y7992D02*
D03*
Y8307D02*
D03*
X6575Y8622D02*
D03*
X5630Y9252D02*
D03*
X10157D02*
D03*
X5315Y8622D02*
D03*
X6890Y9252D02*
D03*
X9843Y8937D02*
D03*
X9528D02*
D03*
X6575D02*
D03*
X10157Y8937D02*
D03*
X10472Y8937D02*
D03*
X11102D02*
D03*
X6890Y8307D02*
D03*
X5630Y9882D02*
D03*
X9843Y10197D02*
D03*
X10157Y9882D02*
D03*
Y9567D02*
D03*
X10472Y9252D02*
D03*
X6890Y10827D02*
D03*
X10787Y10197D02*
D03*
X5630Y10512D02*
D03*
X10157D02*
D03*
X6575Y10197D02*
D03*
Y9882D02*
D03*
X6890D02*
D03*
X5630Y10197D02*
D03*
X9843Y9567D02*
D03*
X5315Y10512D02*
D03*
X10787D02*
D03*
X5315Y9882D02*
D03*
X9843Y9252D02*
D03*
X7205Y10197D02*
D03*
X7835Y6417D02*
D03*
X9843Y7362D02*
D03*
X4055Y4528D02*
D03*
X4370D02*
D03*
X2992Y5000D02*
D03*
X5551Y4173D02*
D03*
X12362Y5472D02*
D03*
X11732Y5157D02*
D03*
Y4843D02*
D03*
X12677Y5157D02*
D03*
X2598Y4528D02*
D03*
X3268Y4803D02*
D03*
X2323Y4528D02*
D03*
X12362Y4213D02*
D03*
X12677D02*
D03*
X11732Y4528D02*
D03*
X11417Y4213D02*
D03*
X11102Y4843D02*
D03*
X7874Y4685D02*
D03*
X12047Y5157D02*
D03*
X5906Y4685D02*
D03*
X3701Y5157D02*
D03*
X11732Y9252D02*
D03*
X11260Y10787D02*
D03*
X1339Y9449D02*
D03*
X12362Y10197D02*
D03*
X11417Y9252D02*
D03*
X11732Y9882D02*
D03*
X12047Y10512D02*
D03*
X11417D02*
D03*
X11732D02*
D03*
X15197Y10197D02*
D03*
X15512Y9882D02*
D03*
X12992Y9567D02*
D03*
X25709Y7520D02*
D03*
X25591Y7323D02*
D03*
X25709Y6732D02*
D03*
X25827Y6535D02*
D03*
X25591Y6929D02*
D03*
X26220Y6260D02*
D03*
X14252Y9252D02*
D03*
Y8937D02*
D03*
X27244Y5945D02*
D03*
X27047Y5787D02*
D03*
X26693D02*
D03*
X26496Y5945D02*
D03*
X13937Y9252D02*
D03*
X12362Y9882D02*
D03*
X11102D02*
D03*
X12992Y9252D02*
D03*
X14882Y10197D02*
D03*
X15512Y10512D02*
D03*
X25472Y7126D02*
D03*
X14882Y9882D02*
D03*
X9291Y3031D02*
D03*
X9764D02*
D03*
X10236D02*
D03*
X10709D02*
D03*
X9528Y2717D02*
D03*
X10000D02*
D03*
X13307Y4213D02*
D03*
X27675Y3939D02*
D03*
X28858Y3937D02*
D03*
X28701Y4094D02*
D03*
X28346Y6575D02*
D03*
X28543Y6732D02*
D03*
X28346Y7835D02*
D03*
X11063Y2126D02*
D03*
X11299Y1575D02*
D03*
X14252Y5787D02*
D03*
X14567Y5472D02*
D03*
X14882D02*
D03*
X13937Y4213D02*
D03*
Y4528D02*
D03*
X14252Y5157D02*
D03*
X14567Y4213D02*
D03*
X14882D02*
D03*
X10472Y2717D02*
D03*
X14252Y3898D02*
D03*
X26260Y8386D02*
D03*
X26181Y8110D02*
D03*
X25787D02*
D03*
X27638Y5827D02*
D03*
X28307Y5551D02*
D03*
Y5827D02*
D03*
X28976Y5709D02*
D03*
X11417Y10197D02*
D03*
X12992Y9882D02*
D03*
X13307Y9567D02*
D03*
X23661Y8504D02*
D03*
Y8189D02*
D03*
X30354Y10344D02*
D03*
X29370D02*
D03*
X28386D02*
D03*
Y8583D02*
D03*
X28583Y8425D02*
D03*
X28502Y7679D02*
D03*
X28740Y7362D02*
D03*
X28896Y7207D02*
D03*
X12992Y10197D02*
D03*
X30315Y1299D02*
D03*
X30079D02*
D03*
X12677Y8937D02*
D03*
X28898Y1535D02*
D03*
X29449Y1299D02*
D03*
X29213D02*
D03*
X28976D02*
D03*
X25591Y1339D02*
D03*
X26063Y1575D02*
D03*
X15827Y5472D02*
D03*
X15197Y5787D02*
D03*
Y6102D02*
D03*
X14567Y5787D02*
D03*
X15512Y6417D02*
D03*
X14252D02*
D03*
X14567D02*
D03*
X14882D02*
D03*
X15827Y5787D02*
D03*
X16142Y6102D02*
D03*
X14567Y6732D02*
D03*
X14882D02*
D03*
X20315Y2362D02*
D03*
X14252Y6732D02*
D03*
Y7047D02*
D03*
X15197Y6732D02*
D03*
Y7047D02*
D03*
X15827Y6732D02*
D03*
X13937Y7047D02*
D03*
X14252Y7362D02*
D03*
X21417Y2362D02*
D03*
X14252Y8622D02*
D03*
X26260Y1496D02*
D03*
X25748Y3898D02*
D03*
X16693Y8307D02*
D03*
X25236Y4331D02*
D03*
X20984Y9528D02*
D03*
X20118Y6732D02*
D03*
X20551Y7717D02*
D03*
X23937Y4606D02*
D03*
X13307Y6732D02*
D03*
X11417D02*
D03*
Y7047D02*
D03*
X6496Y2486D02*
D03*
X24281Y7677D02*
D03*
X12992Y7992D02*
D03*
X12677Y7677D02*
D03*
X13622Y7992D02*
D03*
X12992Y7677D02*
D03*
X13307Y7992D02*
D03*
Y7362D02*
D03*
X12992Y7047D02*
D03*
X12047D02*
D03*
X12362D02*
D03*
X12677D02*
D03*
X12992Y7362D02*
D03*
X12362Y7992D02*
D03*
X30551Y5433D02*
D03*
X12283Y1969D02*
D03*
X26534Y3939D02*
D03*
X22677Y2362D02*
D03*
X15394D02*
D03*
D64*
X23543Y4449D02*
D03*
X23465Y11339D02*
D03*
D68*
X12362Y5630D02*
X16535D01*
X11890Y6102D02*
Y11811D01*
Y6102D02*
X12362Y5630D01*
%TF.MD5,8b93e24ae6f28d55bc5b801edbfdce04*%
M02*
