G04 Layer_Color=8388736*
%FSLAX24Y24*%
%MOIN*%
%TF.FileFunction,Soldermask,Top*%
%TF.Part,Single*%
G01*
G75*
%TA.AperFunction,NonConductor*%
%ADD53C,0.0100*%
%ADD101R,3.2283X0.1024*%
%TA.AperFunction,SMDPad,CuDef*%
%ADD103R,0.0178X0.0178*%
%ADD107R,0.0273X0.1100*%
%ADD108R,0.0946X0.0375*%
%ADD112R,0.0245X0.0237*%
%ADD113R,0.0178X0.0178*%
%ADD115R,0.0335X0.0335*%
%ADD116R,0.1024X0.1024*%
%ADD117O,0.0394X0.0138*%
%ADD118O,0.0138X0.0394*%
%ADD119R,0.0237X0.0245*%
%ADD120R,0.0257X0.0257*%
%ADD121R,0.0257X0.0257*%
%ADD122R,0.0571X0.1064*%
%ADD123R,0.1064X0.0571*%
%ADD124R,0.0434X0.0611*%
%TA.AperFunction,ViaPad*%
%ADD126C,0.0210*%
%TA.AperFunction,TestPad*%
%ADD127C,0.0200*%
%TA.AperFunction,SMDPad,CuDef*%
%ADD129R,0.0249X0.0109*%
%TA.AperFunction,SMDPad,SMDef*%
%ADD130R,0.0591X0.0118*%
%TA.AperFunction,SMDPad,CuDef*%
%ADD131O,0.0291X0.0154*%
%ADD132R,0.0291X0.0154*%
%ADD133R,0.1221X0.1221*%
%ADD134R,0.0217X0.0453*%
%ADD135R,0.0394X0.0296*%
%TA.AperFunction,BGAPad,CuDef*%
%ADD136C,0.0197*%
%TA.AperFunction,SMDPad,CuDef*%
%ADD137R,0.0355X0.0355*%
%ADD138R,0.0288X0.0839*%
%ADD139O,0.0158X0.0375*%
%ADD140O,0.0375X0.0158*%
%ADD141R,0.0867X0.0867*%
%TA.AperFunction,BGAPad,CuDef*%
%ADD142C,0.0217*%
%TA.AperFunction,SMDPad,CuDef*%
%ADD143R,0.0355X0.0355*%
%ADD144R,0.0611X0.0434*%
D53*
X-30400Y-3600D02*
X-30000D01*
X-30200D01*
Y-4200D01*
X-29700D02*
X-29500D01*
X-29400Y-4100D01*
Y-3900D01*
X-29500Y-3800D01*
X-29700D01*
X-29800Y-3900D01*
Y-4100D01*
X-29700Y-4200D01*
X-29200Y-4400D02*
Y-3800D01*
X-28900D01*
X-28801Y-3900D01*
Y-4100D01*
X-28900Y-4200D01*
X-29200D01*
X-27601Y-3700D02*
X-27701Y-3600D01*
X-27901D01*
X-28001Y-3700D01*
Y-3800D01*
X-27901Y-3900D01*
X-27701D01*
X-27601Y-4000D01*
Y-4100D01*
X-27701Y-4200D01*
X-27901D01*
X-28001Y-4100D01*
X-27301Y-4200D02*
X-27101D01*
X-27001Y-4100D01*
Y-3900D01*
X-27101Y-3800D01*
X-27301D01*
X-27401Y-3900D01*
Y-4100D01*
X-27301Y-4200D01*
X-26801D02*
X-26601D01*
X-26701D01*
Y-3600D01*
X-26801D01*
X-25901D02*
Y-4200D01*
X-26201D01*
X-26301Y-4100D01*
Y-3900D01*
X-26201Y-3800D01*
X-25901D01*
X-25402Y-4200D02*
X-25602D01*
X-25702Y-4100D01*
Y-3900D01*
X-25602Y-3800D01*
X-25402D01*
X-25302Y-3900D01*
Y-4000D01*
X-25702D01*
X-25102Y-3800D02*
Y-4200D01*
Y-4000D01*
X-25002Y-3900D01*
X-24902Y-3800D01*
X-24802D01*
X-23702Y-4200D02*
X-23902Y-4000D01*
Y-3800D01*
X-23702Y-3600D01*
X-23402Y-4200D02*
Y-3600D01*
X-23202Y-3800D01*
X-23002Y-3600D01*
Y-4200D01*
X-22702Y-3800D02*
X-22503D01*
X-22403Y-3900D01*
Y-4200D01*
X-22702D01*
X-22802Y-4100D01*
X-22702Y-4000D01*
X-22403D01*
X-22203Y-4200D02*
X-21903D01*
X-21803Y-4100D01*
X-21903Y-4000D01*
X-22103D01*
X-22203Y-3900D01*
X-22103Y-3800D01*
X-21803D01*
X-21603Y-4200D02*
Y-3600D01*
Y-4000D02*
X-21303Y-3800D01*
X-21603Y-4000D02*
X-21303Y-4200D01*
X-21003D02*
X-20803Y-4000D01*
Y-3800D01*
X-21003Y-3600D01*
D101*
X16142Y512D02*
D03*
D103*
X24970Y9606D02*
D03*
X24715D02*
D03*
X30325Y2047D02*
D03*
X30069D02*
D03*
X30128Y2323D02*
D03*
X29872D02*
D03*
X29321D02*
D03*
X29577D02*
D03*
X29124Y2047D02*
D03*
X29380D02*
D03*
X30325Y1772D02*
D03*
X30069D02*
D03*
X30128Y2598D02*
D03*
X29872D02*
D03*
X29321D02*
D03*
X29577D02*
D03*
X29124Y1772D02*
D03*
X29380D02*
D03*
X18770Y10118D02*
D03*
X19026D02*
D03*
X24970Y9331D02*
D03*
X24715D02*
D03*
X24281Y7835D02*
D03*
X24537D02*
D03*
X25659Y9882D02*
D03*
X25915D02*
D03*
X27037Y9882D02*
D03*
X27293D02*
D03*
X28022Y9882D02*
D03*
X28278D02*
D03*
X29459D02*
D03*
X29203D02*
D03*
X2077Y4803D02*
D03*
X2333D02*
D03*
X2878Y2200D02*
D03*
X2622D02*
D03*
X3372Y2200D02*
D03*
X3628D02*
D03*
D107*
X1260Y551D02*
D03*
X1496D02*
D03*
X1732D02*
D03*
X1969D02*
D03*
X2205D02*
D03*
X2441D02*
D03*
X2677D02*
D03*
X2913D02*
D03*
X3150D02*
D03*
X3386D02*
D03*
X3622D02*
D03*
X3858D02*
D03*
X4094D02*
D03*
X4331D02*
D03*
X4567D02*
D03*
X4803D02*
D03*
X5039D02*
D03*
X5276D02*
D03*
X5512D02*
D03*
X5748D02*
D03*
X5984D02*
D03*
X6220D02*
D03*
X6457D02*
D03*
X6693D02*
D03*
X6929D02*
D03*
X7165D02*
D03*
X7402D02*
D03*
X7638D02*
D03*
X7874D02*
D03*
X8110D02*
D03*
X8346D02*
D03*
X8583D02*
D03*
X8819D02*
D03*
X9055D02*
D03*
X9291D02*
D03*
X9528D02*
D03*
X9764D02*
D03*
X10000D02*
D03*
X10236D02*
D03*
X10472D02*
D03*
X10709D02*
D03*
X10945D02*
D03*
X11181D02*
D03*
X11417D02*
D03*
X11654D02*
D03*
X11890D02*
D03*
X12126D02*
D03*
X12362D02*
D03*
X12598D02*
D03*
X12835D02*
D03*
X13071D02*
D03*
X13307D02*
D03*
X13543D02*
D03*
X13780D02*
D03*
X14016D02*
D03*
X14252D02*
D03*
X14488D02*
D03*
X14724D02*
D03*
X14961D02*
D03*
X15197D02*
D03*
X15433D02*
D03*
X15669D02*
D03*
X15906D02*
D03*
X16142D02*
D03*
X16378D02*
D03*
X17795Y551D02*
D03*
X18032D02*
D03*
X18268D02*
D03*
X18504D02*
D03*
X18740D02*
D03*
X18976D02*
D03*
X19213D02*
D03*
X19449D02*
D03*
X19685D02*
D03*
X19921D02*
D03*
X20157D02*
D03*
X20394D02*
D03*
X20630D02*
D03*
X20866D02*
D03*
X21102D02*
D03*
X21339D02*
D03*
X21575D02*
D03*
X21811D02*
D03*
X22047D02*
D03*
X22283D02*
D03*
X22520D02*
D03*
X22756D02*
D03*
X22992D02*
D03*
X23228D02*
D03*
X23465D02*
D03*
X23701D02*
D03*
X23937D02*
D03*
X24173D02*
D03*
X24409D02*
D03*
X24646D02*
D03*
X24882D02*
D03*
X25118D02*
D03*
X25354D02*
D03*
X25591D02*
D03*
X25827D02*
D03*
X26063D02*
D03*
X26299D02*
D03*
X26535D02*
D03*
X26772D02*
D03*
X27008D02*
D03*
X27244D02*
D03*
X27480D02*
D03*
X27717D02*
D03*
X27953D02*
D03*
X28189D02*
D03*
X28425D02*
D03*
X28661D02*
D03*
X28898D02*
D03*
X29134D02*
D03*
X29370D02*
D03*
X29606D02*
D03*
X29843D02*
D03*
X30079D02*
D03*
X30315D02*
D03*
X30551D02*
D03*
X30787D02*
D03*
X31024D02*
D03*
D108*
X3386Y9173D02*
D03*
Y9961D02*
D03*
X17480Y5433D02*
D03*
Y4646D02*
D03*
D112*
X18071Y10348D02*
D03*
Y10675D02*
D03*
X25000Y8628D02*
D03*
Y8301D02*
D03*
X23937Y8195D02*
D03*
Y7868D02*
D03*
Y8825D02*
D03*
Y8498D02*
D03*
X20039Y10978D02*
D03*
Y11305D02*
D03*
X18465D02*
D03*
Y10978D02*
D03*
X30787Y2907D02*
D03*
Y3234D02*
D03*
X30315D02*
D03*
Y2907D02*
D03*
X25354Y2132D02*
D03*
Y1805D02*
D03*
X25039Y2132D02*
D03*
Y1805D02*
D03*
X24724Y2132D02*
D03*
Y1805D02*
D03*
X24409Y2132D02*
D03*
Y1805D02*
D03*
X24094Y2132D02*
D03*
Y1805D02*
D03*
X23780Y2132D02*
D03*
Y1805D02*
D03*
X23465Y2132D02*
D03*
Y1805D02*
D03*
X23150Y2132D02*
D03*
Y1805D02*
D03*
X22835Y2132D02*
D03*
Y1805D02*
D03*
X22520Y2132D02*
D03*
Y1805D02*
D03*
X22205Y2132D02*
D03*
Y1805D02*
D03*
X21890Y2132D02*
D03*
Y1805D02*
D03*
X21575Y2132D02*
D03*
Y1805D02*
D03*
X21260Y2132D02*
D03*
Y1805D02*
D03*
X20945Y2132D02*
D03*
Y1805D02*
D03*
X20630Y2132D02*
D03*
Y1805D02*
D03*
X27362D02*
D03*
Y2132D02*
D03*
X27047D02*
D03*
Y1805D02*
D03*
X26732D02*
D03*
Y2132D02*
D03*
X26417Y1805D02*
D03*
Y2132D02*
D03*
X25669D02*
D03*
Y1805D02*
D03*
X16378Y2132D02*
D03*
Y1805D02*
D03*
X16063D02*
D03*
Y2132D02*
D03*
X10354Y2159D02*
D03*
Y2486D02*
D03*
X10039D02*
D03*
Y2159D02*
D03*
X9724D02*
D03*
Y2486D02*
D03*
X9409D02*
D03*
Y2159D02*
D03*
X8071D02*
D03*
Y2486D02*
D03*
X7756D02*
D03*
Y2159D02*
D03*
X7441D02*
D03*
Y2486D02*
D03*
X7126D02*
D03*
Y2159D02*
D03*
X6811D02*
D03*
Y2486D02*
D03*
X6220Y4730D02*
D03*
Y4404D02*
D03*
X7559D02*
D03*
Y4730D02*
D03*
X20906Y7722D02*
D03*
Y7396D02*
D03*
X24213Y6069D02*
D03*
Y5742D02*
D03*
X20906Y7093D02*
D03*
Y6766D02*
D03*
X29528Y11266D02*
D03*
Y10939D02*
D03*
X28543D02*
D03*
Y11266D02*
D03*
X30512D02*
D03*
Y10939D02*
D03*
X25000Y7671D02*
D03*
Y7998D02*
D03*
X5354Y3852D02*
D03*
Y4179D02*
D03*
X1500Y2937D02*
D03*
Y3263D02*
D03*
X1496Y2250D02*
D03*
Y1923D02*
D03*
X28780Y3116D02*
D03*
Y2789D02*
D03*
X24331Y9219D02*
D03*
Y8892D02*
D03*
X2559Y9876D02*
D03*
Y10203D02*
D03*
X24134Y4915D02*
D03*
Y5242D02*
D03*
X21220Y6766D02*
D03*
Y7093D02*
D03*
X19094Y7081D02*
D03*
Y7407D02*
D03*
X24488Y4730D02*
D03*
Y4404D02*
D03*
X12835Y11423D02*
D03*
Y11096D02*
D03*
X18386Y7407D02*
D03*
Y7081D02*
D03*
X18740D02*
D03*
Y7407D02*
D03*
X26378Y10663D02*
D03*
Y10990D02*
D03*
X27362D02*
D03*
Y10663D02*
D03*
X13150Y2571D02*
D03*
Y2244D02*
D03*
X12835D02*
D03*
Y2571D02*
D03*
X12520D02*
D03*
Y2244D02*
D03*
X12205D02*
D03*
Y2571D02*
D03*
X11890D02*
D03*
Y2244D02*
D03*
X10669Y2159D02*
D03*
Y2486D02*
D03*
X28819Y1923D02*
D03*
Y2250D02*
D03*
X24764Y7041D02*
D03*
Y7368D02*
D03*
X24409Y7041D02*
D03*
Y7368D02*
D03*
D113*
X28543Y10600D02*
D03*
Y10344D02*
D03*
X1024Y9242D02*
D03*
Y9498D02*
D03*
X19685Y4281D02*
D03*
Y4537D02*
D03*
X24134Y4616D02*
D03*
Y4360D02*
D03*
X30512Y10344D02*
D03*
Y10600D02*
D03*
X29528D02*
D03*
Y10344D02*
D03*
X5354Y2234D02*
D03*
Y2490D02*
D03*
D115*
X20039Y7695D02*
D03*
X20413Y6793D02*
D03*
X19665D02*
D03*
D116*
X3350Y3400D02*
D03*
D117*
X4118Y3006D02*
D03*
Y3203D02*
D03*
Y3400D02*
D03*
Y3597D02*
D03*
Y3794D02*
D03*
X2582D02*
D03*
Y3597D02*
D03*
Y3400D02*
D03*
Y3203D02*
D03*
Y3006D02*
D03*
D118*
X2956Y2632D02*
D03*
X3153D02*
D03*
X3350D02*
D03*
X3547D02*
D03*
X3744D02*
D03*
Y4168D02*
D03*
X3547D02*
D03*
X3350D02*
D03*
X3153D02*
D03*
X2956D02*
D03*
D119*
X17014Y8622D02*
D03*
X16687D02*
D03*
X11563Y11299D02*
D03*
X11890D02*
D03*
X22354Y11346D02*
D03*
X22028D02*
D03*
X23392Y8307D02*
D03*
X23065D02*
D03*
X22435D02*
D03*
X22762D02*
D03*
X13864Y11181D02*
D03*
X13537D02*
D03*
X16687Y9921D02*
D03*
X17014D02*
D03*
X16687Y9606D02*
D03*
X17014D02*
D03*
Y9291D02*
D03*
X16687D02*
D03*
X23262Y6299D02*
D03*
X23589D02*
D03*
X2998Y4803D02*
D03*
X2671D02*
D03*
X22132Y8307D02*
D03*
X21805D02*
D03*
X17041Y10709D02*
D03*
X17368D02*
D03*
X20596Y6339D02*
D03*
X20270D02*
D03*
X24679Y9016D02*
D03*
X25006D02*
D03*
X2474Y1850D02*
D03*
X2801D02*
D03*
X3431D02*
D03*
X3104D02*
D03*
X1863Y3800D02*
D03*
X1537D02*
D03*
X22722Y7953D02*
D03*
X22396D02*
D03*
X25360Y11457D02*
D03*
X25033D02*
D03*
D120*
X5315Y1850D02*
D03*
X4961D02*
D03*
D121*
X12205Y11437D02*
D03*
Y11083D02*
D03*
D122*
X22077Y7165D02*
D03*
X23041D02*
D03*
X9144Y10512D02*
D03*
X8179D02*
D03*
X17510Y8150D02*
D03*
X18474D02*
D03*
D123*
X1614Y11033D02*
D03*
Y10069D02*
D03*
X20866Y4321D02*
D03*
Y5285D02*
D03*
X17480Y6289D02*
D03*
Y7254D02*
D03*
X18740Y6624D02*
D03*
Y5659D02*
D03*
D124*
X3484Y10866D02*
D03*
X2736D02*
D03*
X16083Y11220D02*
D03*
X15335D02*
D03*
D126*
X3600Y3150D02*
D03*
Y3650D02*
D03*
X3100D02*
D03*
Y3150D02*
D03*
X3600Y3150D02*
D03*
Y3650D02*
D03*
X3100D02*
D03*
Y3150D02*
D03*
X31024Y394D02*
D03*
X30315D02*
D03*
X29134D02*
D03*
X28425D02*
D03*
X25118D02*
D03*
X23228D02*
D03*
X1260D02*
D03*
X1969D02*
D03*
X3150D02*
D03*
X3858D02*
D03*
X6457D02*
D03*
X9055D02*
D03*
X11654D02*
D03*
X15472Y11339D02*
D03*
X15866D02*
D03*
X22992Y5079D02*
D03*
X22756Y5315D02*
D03*
Y4843D02*
D03*
X23228D02*
D03*
Y5315D02*
D03*
X22283Y9370D02*
D03*
Y10197D02*
D03*
Y9803D02*
D03*
X22677D02*
D03*
X23071D02*
D03*
Y9370D02*
D03*
X22677D02*
D03*
X23071Y10197D02*
D03*
X22677D02*
D03*
X21220Y4488D02*
D03*
X20945D02*
D03*
X20669D02*
D03*
X20394D02*
D03*
X18543Y6575D02*
D03*
X17717Y7402D02*
D03*
X17992Y7126D02*
D03*
X17717D02*
D03*
X18268Y6850D02*
D03*
Y6575D02*
D03*
X17638Y8543D02*
D03*
X17913Y6457D02*
D03*
X18898Y5472D02*
D03*
Y5748D02*
D03*
X18622D02*
D03*
X18346Y5472D02*
D03*
X17520Y6299D02*
D03*
X23189Y6772D02*
D03*
X22913D02*
D03*
Y7520D02*
D03*
X23189D02*
D03*
Y7165D02*
D03*
X22913D02*
D03*
X22244Y7520D02*
D03*
X21969D02*
D03*
Y6772D02*
D03*
X22244Y7165D02*
D03*
X21969D02*
D03*
X22244Y6772D02*
D03*
X1220Y10079D02*
D03*
X1850Y10236D02*
D03*
X8937Y10945D02*
D03*
X9252D02*
D03*
X12205Y11378D02*
D03*
X21260Y5315D02*
D03*
X20433D02*
D03*
X20709D02*
D03*
X20984D02*
D03*
X23228Y945D02*
D03*
X25118D02*
D03*
X11654D02*
D03*
X9055D02*
D03*
X6457D02*
D03*
X3150D02*
D03*
X1969D02*
D03*
X1260D02*
D03*
X3425Y1772D02*
D03*
X3858Y945D02*
D03*
X3350Y3400D02*
D03*
X25394Y7953D02*
D03*
Y7756D02*
D03*
X31024Y945D02*
D03*
X30315D02*
D03*
X29134D02*
D03*
X28425D02*
D03*
X18268Y8543D02*
D03*
X18543D02*
D03*
X18268Y8268D02*
D03*
X18543D02*
D03*
Y7992D02*
D03*
X18268D02*
D03*
X18543Y7717D02*
D03*
D127*
X23465Y11339D02*
D03*
D129*
X24555Y8130D02*
D03*
Y8268D02*
D03*
Y8406D02*
D03*
Y8543D02*
D03*
X24291Y8130D02*
D03*
Y8268D02*
D03*
Y8406D02*
D03*
Y8543D02*
D03*
D130*
X18563Y4429D02*
D03*
Y4665D02*
D03*
Y4902D02*
D03*
X2106Y8917D02*
D03*
Y9154D02*
D03*
Y9390D02*
D03*
D131*
X19094Y4961D02*
D03*
Y4764D02*
D03*
Y4567D02*
D03*
X1575Y9252D02*
D03*
Y9055D02*
D03*
Y8858D02*
D03*
D132*
X19094Y4370D02*
D03*
X1575Y9449D02*
D03*
D133*
X22677Y9803D02*
D03*
D134*
X23427Y10874D02*
D03*
X22927D02*
D03*
X22427D02*
D03*
X21927D02*
D03*
X23427Y8732D02*
D03*
X22927D02*
D03*
X22427D02*
D03*
X21927D02*
D03*
D135*
X20394Y9744D02*
D03*
Y10118D02*
D03*
Y10492D02*
D03*
X19449D02*
D03*
Y10118D02*
D03*
Y9744D02*
D03*
D136*
X7362Y5945D02*
D03*
X7047D02*
D03*
X6732D02*
D03*
X5472D02*
D03*
X5157D02*
D03*
X4843D02*
D03*
X7362Y6260D02*
D03*
X7047D02*
D03*
X6732D02*
D03*
X5472D02*
D03*
X5157D02*
D03*
X4843D02*
D03*
X7362Y6575D02*
D03*
X7047D02*
D03*
X6732D02*
D03*
X5472D02*
D03*
X5157D02*
D03*
X4843D02*
D03*
X7362Y6890D02*
D03*
X7047D02*
D03*
X6732D02*
D03*
X5472D02*
D03*
X5157D02*
D03*
X4843D02*
D03*
X7362Y7205D02*
D03*
X7047D02*
D03*
X6732D02*
D03*
X5472D02*
D03*
X5157D02*
D03*
X4843D02*
D03*
X7362Y7520D02*
D03*
X7047D02*
D03*
X6732D02*
D03*
X5472D02*
D03*
X5157D02*
D03*
X4843D02*
D03*
X7362Y7835D02*
D03*
X7047D02*
D03*
X6732D02*
D03*
X5472D02*
D03*
X5157D02*
D03*
X4843D02*
D03*
X7362Y8150D02*
D03*
X7047D02*
D03*
X6732D02*
D03*
X5472D02*
D03*
X5157D02*
D03*
X4843D02*
D03*
X7362Y8465D02*
D03*
X7047D02*
D03*
X6732D02*
D03*
X5472D02*
D03*
X5157D02*
D03*
X4843D02*
D03*
X7362Y8780D02*
D03*
X7047D02*
D03*
X6732D02*
D03*
X5472D02*
D03*
X5157D02*
D03*
X4843D02*
D03*
X7362Y9094D02*
D03*
X7047D02*
D03*
X6732D02*
D03*
X5472D02*
D03*
X5157D02*
D03*
X4843D02*
D03*
X7362Y9409D02*
D03*
X7047D02*
D03*
X6732D02*
D03*
X5472D02*
D03*
X5157D02*
D03*
X4843D02*
D03*
X7362Y9724D02*
D03*
X7047D02*
D03*
X6732D02*
D03*
X5472D02*
D03*
X5157D02*
D03*
X4843D02*
D03*
X7362Y10039D02*
D03*
X7047D02*
D03*
X6732D02*
D03*
X5472D02*
D03*
X5157D02*
D03*
X4843D02*
D03*
X7362Y10354D02*
D03*
X7047D02*
D03*
X6732D02*
D03*
X5472D02*
D03*
X5157D02*
D03*
X4843D02*
D03*
X7362Y10669D02*
D03*
X7047D02*
D03*
X6732D02*
D03*
X5472D02*
D03*
X5157D02*
D03*
X4843D02*
D03*
D137*
X27795Y11142D02*
D03*
Y10512D02*
D03*
X6654Y4134D02*
D03*
Y4764D02*
D03*
X7126D02*
D03*
Y4134D02*
D03*
X29961Y11142D02*
D03*
Y10512D02*
D03*
X28976D02*
D03*
Y11142D02*
D03*
X30945D02*
D03*
Y10512D02*
D03*
X26811D02*
D03*
Y11142D02*
D03*
D138*
X25886Y4797D02*
D03*
X26280D02*
D03*
X26673D02*
D03*
X27067D02*
D03*
X27461D02*
D03*
X27854D02*
D03*
X28248D02*
D03*
X28642D02*
D03*
X29035D02*
D03*
X29429D02*
D03*
X29823D02*
D03*
X30217D02*
D03*
X25886Y9297D02*
D03*
X26280D02*
D03*
X26673D02*
D03*
X27067D02*
D03*
X27461D02*
D03*
X27854D02*
D03*
X28248D02*
D03*
X28642D02*
D03*
X29035D02*
D03*
X29429D02*
D03*
X29823D02*
D03*
X30217D02*
D03*
D139*
X22608Y4360D02*
D03*
X22864D02*
D03*
X23120D02*
D03*
X23376D02*
D03*
Y5797D02*
D03*
X23120D02*
D03*
X22864D02*
D03*
X22608D02*
D03*
D140*
X23711Y4695D02*
D03*
Y4951D02*
D03*
Y5207D02*
D03*
Y5463D02*
D03*
X22274D02*
D03*
Y5207D02*
D03*
Y4951D02*
D03*
Y4695D02*
D03*
D141*
X22992Y5079D02*
D03*
D142*
X10000Y10354D02*
D03*
X10315D02*
D03*
X10630D02*
D03*
X10945D02*
D03*
X11260D02*
D03*
X11575D02*
D03*
X11890D02*
D03*
X12205D02*
D03*
X12520D02*
D03*
X12835D02*
D03*
X13150D02*
D03*
X13465D02*
D03*
X13780D02*
D03*
X14094D02*
D03*
X14409D02*
D03*
X14724D02*
D03*
X15039D02*
D03*
X15354D02*
D03*
X15669D02*
D03*
X15984D02*
D03*
X10000Y10039D02*
D03*
X10315D02*
D03*
X10630D02*
D03*
X10945D02*
D03*
X11260D02*
D03*
X11575D02*
D03*
X11890D02*
D03*
X12205D02*
D03*
X12520D02*
D03*
X12835D02*
D03*
X13150D02*
D03*
X13465D02*
D03*
X13780D02*
D03*
X14094D02*
D03*
X14409D02*
D03*
X14724D02*
D03*
X15039D02*
D03*
X15354D02*
D03*
X15669D02*
D03*
X15984D02*
D03*
X10000Y9724D02*
D03*
X10315D02*
D03*
X10630D02*
D03*
X10945D02*
D03*
X11260D02*
D03*
X11575D02*
D03*
X11890D02*
D03*
X12205D02*
D03*
X12520D02*
D03*
X12835D02*
D03*
X13150D02*
D03*
X13465D02*
D03*
X13780D02*
D03*
X14094D02*
D03*
X14409D02*
D03*
X14724D02*
D03*
X15039D02*
D03*
X15354D02*
D03*
X15669D02*
D03*
X15984D02*
D03*
X10000Y9409D02*
D03*
X10315D02*
D03*
X10630D02*
D03*
X10945D02*
D03*
X11260D02*
D03*
X11575D02*
D03*
X11890D02*
D03*
X12205D02*
D03*
X12520D02*
D03*
X12835D02*
D03*
X13150D02*
D03*
X13465D02*
D03*
X13780D02*
D03*
X14094D02*
D03*
X14409D02*
D03*
X14724D02*
D03*
X15039D02*
D03*
X15354D02*
D03*
X15669D02*
D03*
X15984D02*
D03*
X10000Y9094D02*
D03*
X10315D02*
D03*
X10630D02*
D03*
X10945D02*
D03*
X11260D02*
D03*
X11575D02*
D03*
X11890D02*
D03*
X12205D02*
D03*
X12520D02*
D03*
X12835D02*
D03*
X13150D02*
D03*
X13465D02*
D03*
X13780D02*
D03*
X14094D02*
D03*
X14409D02*
D03*
X14724D02*
D03*
X15039D02*
D03*
X15354D02*
D03*
X15669D02*
D03*
X15984D02*
D03*
X10000Y8780D02*
D03*
X10315D02*
D03*
X10630D02*
D03*
X10945D02*
D03*
X11260D02*
D03*
X11575D02*
D03*
X11890D02*
D03*
X12205D02*
D03*
X12520D02*
D03*
X12835D02*
D03*
X13150D02*
D03*
X13465D02*
D03*
X13780D02*
D03*
X14094D02*
D03*
X14409D02*
D03*
X14724D02*
D03*
X15039D02*
D03*
X15354D02*
D03*
X15669D02*
D03*
X15984D02*
D03*
X10000Y8465D02*
D03*
X10315D02*
D03*
X10630D02*
D03*
X10945D02*
D03*
X11260D02*
D03*
X11575D02*
D03*
X11890D02*
D03*
X12205D02*
D03*
X12520D02*
D03*
X12835D02*
D03*
X13150D02*
D03*
X13465D02*
D03*
X13780D02*
D03*
X14094D02*
D03*
X14409D02*
D03*
X14724D02*
D03*
X15039D02*
D03*
X15354D02*
D03*
X15669D02*
D03*
X15984D02*
D03*
X10000Y8150D02*
D03*
X10315D02*
D03*
X10630D02*
D03*
X10945D02*
D03*
X11260D02*
D03*
X11575D02*
D03*
X11890D02*
D03*
X12205D02*
D03*
X12520D02*
D03*
X12835D02*
D03*
X13150D02*
D03*
X13465D02*
D03*
X13780D02*
D03*
X14094D02*
D03*
X14409D02*
D03*
X14724D02*
D03*
X15039D02*
D03*
X15354D02*
D03*
X15669D02*
D03*
X15984D02*
D03*
X10000Y7835D02*
D03*
X10315D02*
D03*
X10630D02*
D03*
X10945D02*
D03*
X11260D02*
D03*
X11575D02*
D03*
X11890D02*
D03*
X12205D02*
D03*
X12520D02*
D03*
X12835D02*
D03*
X13150D02*
D03*
X13465D02*
D03*
X13780D02*
D03*
X14094D02*
D03*
X14409D02*
D03*
X14724D02*
D03*
X15039D02*
D03*
X15354D02*
D03*
X15669D02*
D03*
X15984D02*
D03*
X10000Y7520D02*
D03*
X10315D02*
D03*
X10630D02*
D03*
X10945D02*
D03*
X11260D02*
D03*
X11575D02*
D03*
X11890D02*
D03*
X12205D02*
D03*
X12520D02*
D03*
X12835D02*
D03*
X13150D02*
D03*
X13465D02*
D03*
X13780D02*
D03*
X14094D02*
D03*
X14409D02*
D03*
X14724D02*
D03*
X15039D02*
D03*
X15354D02*
D03*
X15669D02*
D03*
X15984D02*
D03*
X10000Y7205D02*
D03*
X10315D02*
D03*
X10630D02*
D03*
X10945D02*
D03*
X11260D02*
D03*
X11575D02*
D03*
X11890D02*
D03*
X12205D02*
D03*
X12520D02*
D03*
X12835D02*
D03*
X13150D02*
D03*
X13465D02*
D03*
X13780D02*
D03*
X14094D02*
D03*
X14409D02*
D03*
X14724D02*
D03*
X15039D02*
D03*
X15354D02*
D03*
X15669D02*
D03*
X15984D02*
D03*
X10000Y6890D02*
D03*
X10315D02*
D03*
X10630D02*
D03*
X10945D02*
D03*
X11260D02*
D03*
X11575D02*
D03*
X11890D02*
D03*
X12205D02*
D03*
X12520D02*
D03*
X12835D02*
D03*
X13150D02*
D03*
X13465D02*
D03*
X13780D02*
D03*
X14094D02*
D03*
X14409D02*
D03*
X14724D02*
D03*
X15039D02*
D03*
X15354D02*
D03*
X15669D02*
D03*
X15984D02*
D03*
X10000Y6575D02*
D03*
X10315D02*
D03*
X10630D02*
D03*
X10945D02*
D03*
X11260D02*
D03*
X11575D02*
D03*
X11890D02*
D03*
X12205D02*
D03*
X12520D02*
D03*
X12835D02*
D03*
X13150D02*
D03*
X13465D02*
D03*
X13780D02*
D03*
X14094D02*
D03*
X14409D02*
D03*
X14724D02*
D03*
X15039D02*
D03*
X15354D02*
D03*
X15669D02*
D03*
X15984D02*
D03*
X10000Y6260D02*
D03*
X10315D02*
D03*
X10630D02*
D03*
X10945D02*
D03*
X11260D02*
D03*
X11575D02*
D03*
X11890D02*
D03*
X12205D02*
D03*
X12520D02*
D03*
X12835D02*
D03*
X13150D02*
D03*
X13465D02*
D03*
X13780D02*
D03*
X14094D02*
D03*
X14409D02*
D03*
X14724D02*
D03*
X15039D02*
D03*
X15354D02*
D03*
X15669D02*
D03*
X15984D02*
D03*
X10000Y5945D02*
D03*
X10315D02*
D03*
X10630D02*
D03*
X10945D02*
D03*
X11260D02*
D03*
X11575D02*
D03*
X11890D02*
D03*
X12205D02*
D03*
X12520D02*
D03*
X12835D02*
D03*
X13150D02*
D03*
X13465D02*
D03*
X13780D02*
D03*
X14094D02*
D03*
X14409D02*
D03*
X14724D02*
D03*
X15039D02*
D03*
X15354D02*
D03*
X15669D02*
D03*
X15984D02*
D03*
X10000Y5630D02*
D03*
X10315D02*
D03*
X10630D02*
D03*
X10945D02*
D03*
X11260D02*
D03*
X11575D02*
D03*
X11890D02*
D03*
X12205D02*
D03*
X12520D02*
D03*
X12835D02*
D03*
X13150D02*
D03*
X13465D02*
D03*
X13780D02*
D03*
X14094D02*
D03*
X14409D02*
D03*
X14724D02*
D03*
X15039D02*
D03*
X15354D02*
D03*
X15669D02*
D03*
X15984D02*
D03*
X10000Y5315D02*
D03*
X10315D02*
D03*
X10630D02*
D03*
X10945D02*
D03*
X11260D02*
D03*
X11575D02*
D03*
X11890D02*
D03*
X12205D02*
D03*
X12520D02*
D03*
X12835D02*
D03*
X13150D02*
D03*
X13465D02*
D03*
X13780D02*
D03*
X14094D02*
D03*
X14409D02*
D03*
X14724D02*
D03*
X15039D02*
D03*
X15354D02*
D03*
X15669D02*
D03*
X15984D02*
D03*
X10000Y5000D02*
D03*
X10315D02*
D03*
X10630D02*
D03*
X10945D02*
D03*
X11260D02*
D03*
X11575D02*
D03*
X11890D02*
D03*
X12205D02*
D03*
X12520D02*
D03*
X12835D02*
D03*
X13150D02*
D03*
X13465D02*
D03*
X13780D02*
D03*
X14094D02*
D03*
X14409D02*
D03*
X14724D02*
D03*
X15039D02*
D03*
X15354D02*
D03*
X15669D02*
D03*
X15984D02*
D03*
X10000Y4685D02*
D03*
X10315D02*
D03*
X10630D02*
D03*
X10945D02*
D03*
X11260D02*
D03*
X11575D02*
D03*
X11890D02*
D03*
X12205D02*
D03*
X12520D02*
D03*
X12835D02*
D03*
X13150D02*
D03*
X13465D02*
D03*
X13780D02*
D03*
X14094D02*
D03*
X14409D02*
D03*
X14724D02*
D03*
X15039D02*
D03*
X15354D02*
D03*
X15669D02*
D03*
X15984D02*
D03*
X10000Y4370D02*
D03*
X10315D02*
D03*
X10630D02*
D03*
X10945D02*
D03*
X11260D02*
D03*
X11575D02*
D03*
X11890D02*
D03*
X12205D02*
D03*
X12520D02*
D03*
X12835D02*
D03*
X13150D02*
D03*
X13465D02*
D03*
X13780D02*
D03*
X14094D02*
D03*
X14409D02*
D03*
X14724D02*
D03*
X15039D02*
D03*
X15354D02*
D03*
X15669D02*
D03*
X15984D02*
D03*
D143*
X21142Y11181D02*
D03*
X20512D02*
D03*
X18937D02*
D03*
X19567D02*
D03*
D144*
X17441Y3976D02*
D03*
Y3228D02*
D03*
X19803Y6240D02*
D03*
Y5492D02*
D03*
%TF.MD5,0ba2cfe53c1418bd505c7e6b9e9bf775*%
M02*
