G04 Layer_Physical_Order=3*
G04 Layer_Color=36540*
%FSLAX24Y24*%
%MOIN*%
%TF.FileFunction,Copper,L3,Inr,Signal*%
%TF.Part,Single*%
G01*
G75*
%TA.AperFunction,Conductor*%
%ADD41C,0.0200*%
%ADD42C,0.0100*%
%ADD44C,0.0060*%
%ADD48C,0.0150*%
%TA.AperFunction,NonConductor*%
%ADD53C,0.0100*%
%TA.AperFunction,ViaPad*%
%ADD57C,0.0180*%
%ADD58C,0.0170*%
%ADD59C,0.0160*%
%TA.AperFunction,TestPad*%
%ADD60C,0.0160*%
%TA.AperFunction,Conductor*%
%ADD65C,0.0040*%
%ADD66C,0.0064*%
%ADD67C,0.0045*%
D41*
X28346Y8189D02*
X28898D01*
X27795Y8740D02*
X28346Y8189D01*
X27244Y8740D02*
X27795D01*
D42*
X25512Y5354D02*
X25709Y5157D01*
X26673D01*
X26870Y5354D01*
D44*
X7362Y7795D02*
X8228D01*
X7323Y7835D02*
X7362Y7795D01*
X7047Y7835D02*
X7323D01*
X6297Y7045D02*
X6417Y7165D01*
X5748Y7205D02*
X5908Y7045D01*
X6297D01*
X4882Y6890D02*
X8543D01*
X4843Y6929D02*
X4882Y6890D01*
X9449Y7874D02*
X9488Y7913D01*
X9331Y7874D02*
X9449D01*
X9291Y7913D02*
X9331Y7874D01*
X10197Y7677D02*
X10352Y7832D01*
X8465Y7677D02*
X10197D01*
X9291Y7913D02*
Y8268D01*
X9055Y7874D02*
X9094Y7913D01*
X8937Y7874D02*
X9055D01*
X8898Y7913D02*
X8937Y7874D01*
X8661D02*
X8701Y7913D01*
X8543Y7874D02*
X8661D01*
X8504Y7913D02*
X8543Y7874D01*
X11260Y8189D02*
Y8780D01*
X11102Y8937D02*
X11260Y8780D01*
X9449Y5630D02*
X9764D01*
X9331Y5512D02*
X9449Y5630D01*
X5630Y5512D02*
X9331D01*
X5630D02*
Y5512D01*
X5315Y5827D02*
X5630Y5512D01*
X10079Y5945D02*
X11220D01*
X9764Y5630D02*
X10079Y5945D01*
X9882Y6299D02*
X9921Y6260D01*
X9882Y6299D02*
Y6378D01*
X9843Y6417D02*
X9882Y6378D01*
X9724Y6417D02*
X9843D01*
X9685Y6378D02*
X9724Y6417D01*
X9685Y5827D02*
Y6378D01*
X9646Y5787D02*
X9685Y5827D01*
X9528Y5787D02*
X9646D01*
X9488Y5827D02*
X9528Y5787D01*
X9488Y5827D02*
Y6378D01*
X9449Y6417D02*
X9488Y6378D01*
X9331Y6417D02*
X9449D01*
X9291Y6378D02*
X9331Y6417D01*
X9291Y5827D02*
Y6378D01*
X9252Y5787D02*
X9291Y5827D01*
X9134Y5787D02*
X9252D01*
X9094Y5827D02*
X9134Y5787D01*
X9094Y5827D02*
Y6378D01*
X9055Y6417D02*
X9094Y6378D01*
X8937Y6417D02*
X9055D01*
X8898Y6378D02*
X8937Y6417D01*
X8898Y5827D02*
Y6378D01*
X8858Y5787D02*
X8898Y5827D01*
X8740Y5787D02*
X8858D01*
X8701Y5827D02*
X8740Y5787D01*
X8701Y5827D02*
Y6260D01*
X9921D02*
X10945D01*
X10352Y7832D02*
X10627D01*
X10787Y7992D01*
X9843Y8307D02*
X10000Y8465D01*
Y8583D01*
X9961Y8622D02*
X10000Y8583D01*
X9488Y8622D02*
X9961D01*
X9449Y8583D02*
X9488Y8622D01*
X9449Y8504D02*
Y8583D01*
X9409Y8465D02*
X9449Y8504D01*
X8386Y8465D02*
X9409D01*
X8346Y8504D02*
X8386Y8465D01*
X9370Y8780D02*
X10630D01*
X9331Y8740D02*
X9370Y8780D01*
X9331Y8661D02*
Y8740D01*
X9291Y8622D02*
X9331Y8661D01*
X9173Y8622D02*
X9291D01*
X9134Y8661D02*
X9173Y8622D01*
X9134Y8661D02*
Y8898D01*
X9094Y8937D02*
X9134Y8898D01*
X8976Y8937D02*
X9094D01*
X8937Y8898D02*
X8976Y8937D01*
X8937Y8661D02*
Y8898D01*
X8898Y8622D02*
X8937Y8661D01*
X8780Y8622D02*
X8898D01*
X8740Y8661D02*
X8780Y8622D01*
X8740Y8661D02*
Y8898D01*
X8701Y8937D02*
X8740Y8898D01*
X8583Y8937D02*
X8701D01*
X8543Y8898D02*
X8583Y8937D01*
X8543Y8819D02*
Y8898D01*
X8504Y8780D02*
X8543Y8819D01*
X8386Y8780D02*
X8504D01*
X8346Y8819D02*
X8386Y8780D01*
X8346Y8819D02*
Y8898D01*
X8307Y8937D02*
X8346Y8898D01*
X8189Y8937D02*
X8307D01*
X8150Y8898D02*
X8189Y8937D01*
X8150Y8819D02*
Y8898D01*
X8110Y8780D02*
X8150Y8819D01*
X7992Y8780D02*
X8110D01*
X7953Y8819D02*
X7992Y8780D01*
X7953Y8819D02*
Y8898D01*
X7913Y8937D02*
X7953Y8898D01*
X7795Y8937D02*
X7913D01*
X7756Y8898D02*
X7795Y8937D01*
X7756Y8819D02*
Y8898D01*
X7717Y8780D02*
X7756Y8819D01*
X7362Y8780D02*
X7717D01*
X9724Y9409D02*
X10000D01*
X9606Y9528D02*
X9724Y9409D01*
X8780Y9528D02*
X9606D01*
X8740Y9488D02*
X8780Y9528D01*
X8740Y9488D02*
X8740D01*
X8740Y9291D02*
Y9488D01*
X8701Y9252D02*
X8740Y9291D01*
X8583Y9252D02*
X8701D01*
X8543Y9291D02*
X8583Y9252D01*
X8543Y9291D02*
Y9528D01*
X8504Y9567D02*
X8543Y9528D01*
X8386Y9567D02*
X8504D01*
X8346Y9528D02*
X8386Y9567D01*
X8346Y9291D02*
Y9528D01*
X8307Y9252D02*
X8346Y9291D01*
X8189Y9252D02*
X8307D01*
X8150Y9291D02*
X8189Y9252D01*
X8150Y9291D02*
Y9528D01*
X8110Y9567D02*
X8150Y9528D01*
X7992Y9567D02*
X8110D01*
X7953Y9528D02*
X7992Y9567D01*
X7953Y9291D02*
Y9528D01*
X7913Y9252D02*
X7953Y9291D01*
X7795Y9252D02*
X7913D01*
X7756Y9291D02*
X7795Y9252D01*
X7756Y9291D02*
Y9370D01*
X7717Y9409D02*
X7756Y9370D01*
X5787Y9409D02*
X7717D01*
X5787Y7520D02*
X9134D01*
X5630Y7362D02*
X5787Y7520D01*
X9134D02*
X9449Y7205D01*
X10787Y7677D02*
X10945Y7520D01*
X11220D01*
X11260Y7480D01*
Y5984D02*
Y7480D01*
X11220Y5945D02*
X11260Y5984D01*
X5315Y5827D02*
Y6102D01*
X10945Y6575D02*
X11102Y6732D01*
X8858Y6575D02*
X10945D01*
X5315Y7362D02*
X5472Y7205D01*
Y7205D02*
X5748D01*
X7205Y6732D02*
X7362Y6575D01*
X10945Y6260D02*
X11102Y6102D01*
X7205Y6417D02*
X7205D01*
X7362Y6260D01*
X10630Y6890D02*
X10787Y6732D01*
X8543Y6890D02*
X8858Y6575D01*
X8150Y7362D02*
X8898D01*
X9370Y6890D01*
X10630D01*
X5630Y6102D02*
X5630D01*
X5787Y5945D01*
X10945Y7205D02*
X11102Y7047D01*
X9449Y7205D02*
X10945D01*
X7205Y8937D02*
X7362Y8780D01*
X10630D02*
X10787Y8622D01*
X5630Y9252D02*
X5787Y9409D01*
X10000D02*
X10157Y9252D01*
X6890Y8307D02*
X7047Y8150D01*
Y8150D02*
Y8150D01*
Y8150D02*
X7323D01*
X7362Y8189D01*
Y8425D01*
X7402Y8465D01*
X7520D01*
X7559Y8425D01*
Y7992D02*
Y8425D01*
X8150Y7992D02*
Y8622D01*
X8189Y8661D01*
X8307D01*
X8346Y8622D01*
Y8504D02*
Y8622D01*
X5630Y9882D02*
X5787Y10039D01*
X9685D01*
X9843Y10197D01*
X5630Y10512D02*
X5787Y10354D01*
X10000D01*
X10157Y10512D01*
X5472Y10039D02*
X5630Y10197D01*
X5472Y9764D02*
Y10039D01*
Y9764D02*
X5512Y9724D01*
X9685D01*
X9843Y9567D01*
X5315Y10512D02*
X5472Y10669D01*
X10630D01*
X10787Y10512D01*
X5315Y9252D02*
Y9882D01*
Y9252D02*
X5472Y9094D01*
X9291D01*
X9449Y9252D01*
X9843D01*
X5787Y5945D02*
X8307D01*
X8465Y5787D01*
X7362Y6575D02*
X8386D01*
X8701Y6260D01*
X11220Y8150D02*
X11260Y8189D01*
X11260D01*
X9724Y8150D02*
X11220D01*
X8307Y7874D02*
Y8268D01*
X8346Y8307D01*
X8465D01*
X8504Y8268D01*
Y7913D02*
Y8268D01*
X8701Y7913D02*
Y8268D01*
X8740Y8307D01*
X8858D01*
X8898Y8268D01*
Y7913D02*
Y8268D01*
X9094Y7913D02*
Y8268D01*
X9134Y8307D01*
X9252D01*
X9291Y8268D01*
X9488Y7913D02*
Y8268D01*
X9528Y8307D01*
X9646D01*
X9685Y8268D01*
Y8189D02*
Y8268D01*
Y8189D02*
X9724Y8150D01*
X7559Y7992D02*
X7598Y7953D01*
X7717D01*
X7756Y7992D01*
X7756D01*
Y8622D01*
X7795Y8661D01*
X7913D01*
X7953Y8622D01*
Y7992D02*
Y8622D01*
Y7992D02*
X7992Y7953D01*
X8110D01*
X8150Y7992D01*
X8228Y7795D02*
X8307Y7874D01*
X6575Y7677D02*
X6772Y7874D01*
Y7992D01*
X6811Y8031D01*
X6969D01*
X7008Y7992D01*
Y7874D02*
Y7992D01*
Y7874D02*
X7047Y7835D01*
X7362Y6260D02*
X7677D01*
X7835Y6417D01*
X6417Y7165D02*
Y7323D01*
X6457Y7362D01*
X6575D01*
X6614Y7323D01*
Y7244D02*
Y7323D01*
Y7244D02*
X6654Y7205D01*
X6772D01*
X6811Y7244D01*
Y7323D01*
X6850Y7362D01*
X6969D01*
X7008Y7323D01*
Y7244D02*
Y7323D01*
Y7244D02*
X7047Y7205D01*
X7638D01*
X7677Y7165D01*
Y7087D02*
Y7165D01*
Y7087D02*
X7717Y7047D01*
X7835D01*
X7874Y7087D01*
Y7165D01*
X7913Y7205D01*
X8031D01*
X8071Y7165D01*
Y7087D02*
Y7165D01*
Y7087D02*
X8110Y7047D01*
X8228D01*
X8268Y7087D01*
X8268D01*
Y7165D01*
X8307Y7205D01*
X8425D01*
X8465Y7165D01*
Y7087D02*
Y7165D01*
Y7087D02*
X8504Y7047D01*
X9134Y6732D02*
X9528D01*
X8504Y7047D02*
X8622D01*
X8661Y7087D01*
Y7165D01*
X8701Y7205D01*
X8819D01*
X8858Y7165D01*
Y7008D02*
Y7165D01*
X8780Y6929D02*
X8858Y7008D01*
X8780Y6890D02*
Y6929D01*
Y6890D02*
X8858Y6811D01*
X9055D01*
X9134Y6732D01*
X5000Y7677D02*
X5157Y7520D01*
Y7402D02*
Y7520D01*
X5118Y7362D02*
X5157Y7402D01*
X4882Y7362D02*
X5118D01*
X4843Y7323D02*
X4882Y7362D01*
X4843Y7244D02*
Y7323D01*
Y7244D02*
X4882Y7205D01*
X5118D01*
X5157Y7165D01*
Y7087D02*
Y7165D01*
X5118Y7047D02*
X5157Y7087D01*
X4882Y7047D02*
X5118D01*
X4843Y7008D02*
X4882Y7047D01*
X4843Y6929D02*
Y7008D01*
D48*
X28031Y5354D02*
X28071Y5394D01*
X26870Y5354D02*
X28031D01*
D53*
X-30400Y8400D02*
Y7800D01*
X-30000D01*
X-29700Y8200D02*
X-29500D01*
X-29400Y8100D01*
Y7800D01*
X-29700D01*
X-29800Y7900D01*
X-29700Y8000D01*
X-29400D01*
X-29200Y8200D02*
Y7900D01*
X-29100Y7800D01*
X-28801D01*
Y7700D01*
X-28900Y7600D01*
X-29000D01*
X-28801Y7800D02*
Y8200D01*
X-28301Y7800D02*
X-28501D01*
X-28601Y7900D01*
Y8100D01*
X-28501Y8200D01*
X-28301D01*
X-28201Y8100D01*
Y8000D01*
X-28601D01*
X-28001Y8200D02*
Y7800D01*
Y8000D01*
X-27901Y8100D01*
X-27801Y8200D01*
X-27701D01*
X-26801Y8300D02*
X-26701Y8400D01*
X-26501D01*
X-26401Y8300D01*
Y8200D01*
X-26501Y8100D01*
X-26601D01*
X-26501D01*
X-26401Y8000D01*
Y7900D01*
X-26501Y7800D01*
X-26701D01*
X-26801Y7900D01*
X-25602Y8100D02*
X-25202D01*
X-24002Y8300D02*
X-24102Y8400D01*
X-24302D01*
X-24402Y8300D01*
Y8200D01*
X-24302Y8100D01*
X-24102D01*
X-24002Y8000D01*
Y7900D01*
X-24102Y7800D01*
X-24302D01*
X-24402Y7900D01*
X-23802Y7800D02*
X-23602D01*
X-23702D01*
Y8200D01*
X-23802D01*
X-23102Y7600D02*
X-23002D01*
X-22902Y7700D01*
Y8200D01*
X-23202D01*
X-23302Y8100D01*
Y7900D01*
X-23202Y7800D01*
X-22902D01*
X-22702D02*
Y8200D01*
X-22403D01*
X-22303Y8100D01*
Y7800D01*
X-22003Y8200D02*
X-21803D01*
X-21703Y8100D01*
Y7800D01*
X-22003D01*
X-22103Y7900D01*
X-22003Y8000D01*
X-21703D01*
X-21503Y7800D02*
X-21303D01*
X-21403D01*
Y8400D01*
X-21503D01*
X-20203Y7800D02*
X-20403Y8000D01*
Y8200D01*
X-20203Y8400D01*
X-19504Y8300D02*
X-19603Y8400D01*
X-19803D01*
X-19903Y8300D01*
Y7900D01*
X-19803Y7800D01*
X-19603D01*
X-19504Y7900D01*
X-19204Y7800D02*
X-19004D01*
X-18904Y7900D01*
Y8100D01*
X-19004Y8200D01*
X-19204D01*
X-19304Y8100D01*
Y7900D01*
X-19204Y7800D01*
X-18704Y7600D02*
Y8200D01*
X-18404D01*
X-18304Y8100D01*
Y7900D01*
X-18404Y7800D01*
X-18704D01*
X-18104Y7600D02*
Y8200D01*
X-17804D01*
X-17704Y8100D01*
Y7900D01*
X-17804Y7800D01*
X-18104D01*
X-17204D02*
X-17404D01*
X-17504Y7900D01*
Y8100D01*
X-17404Y8200D01*
X-17204D01*
X-17104Y8100D01*
Y8000D01*
X-17504D01*
X-16904Y8200D02*
Y7800D01*
Y8000D01*
X-16804Y8100D01*
X-16704Y8200D01*
X-16604D01*
X-16305Y7800D02*
X-16105Y8000D01*
Y8200D01*
X-16305Y8400D01*
D57*
X19685Y1535D02*
D03*
X20394Y1299D02*
D03*
X19685D02*
D03*
X18976D02*
D03*
X18268D02*
D03*
X16850Y1181D02*
D03*
X11563Y11575D02*
D03*
X24882Y11299D02*
D03*
X14449Y11575D02*
D03*
X14724D02*
D03*
X11850D02*
D03*
X12520D02*
D03*
Y11339D02*
D03*
X12205Y11614D02*
D03*
X29370Y10600D02*
D03*
X29587Y8701D02*
D03*
X29646Y7441D02*
D03*
X30394Y8628D02*
D03*
X19685Y2323D02*
D03*
X17717Y4291D02*
D03*
X17441D02*
D03*
X2598Y5748D02*
D03*
X2126Y5512D02*
D03*
Y5787D02*
D03*
X1575D02*
D03*
Y5512D02*
D03*
X1850D02*
D03*
X31299Y9528D02*
D03*
Y8976D02*
D03*
X31575Y10079D02*
D03*
X31299D02*
D03*
X31575Y8976D02*
D03*
Y9528D02*
D03*
X31850D02*
D03*
Y8976D02*
D03*
Y10079D02*
D03*
Y2953D02*
D03*
Y1260D02*
D03*
Y2402D02*
D03*
X31575D02*
D03*
Y1260D02*
D03*
X31299Y2953D02*
D03*
X31575D02*
D03*
X31299Y1260D02*
D03*
Y2402D02*
D03*
X433D02*
D03*
Y2953D02*
D03*
X474Y1500D02*
D03*
X750D02*
D03*
X984Y2953D02*
D03*
X709Y2402D02*
D03*
X984D02*
D03*
X709Y2953D02*
D03*
X1026Y1500D02*
D03*
X20197Y6142D02*
D03*
X18819Y6260D02*
D03*
X18543D02*
D03*
X18268D02*
D03*
X17717Y6850D02*
D03*
X17992D02*
D03*
X17913Y8268D02*
D03*
Y8543D02*
D03*
X18622Y5197D02*
D03*
X18425D02*
D03*
X18228D02*
D03*
X23465Y7165D02*
D03*
Y6772D02*
D03*
Y7520D02*
D03*
X21693D02*
D03*
Y7165D02*
D03*
Y6772D02*
D03*
X24606Y10157D02*
D03*
X16890Y10866D02*
D03*
X1457Y7244D02*
D03*
Y6929D02*
D03*
Y6614D02*
D03*
Y6299D02*
D03*
X1142D02*
D03*
Y6614D02*
D03*
Y6929D02*
D03*
Y7244D02*
D03*
Y7559D02*
D03*
Y7874D02*
D03*
Y8189D02*
D03*
Y8504D02*
D03*
X3386Y8701D02*
D03*
X3071D02*
D03*
X1417Y8504D02*
D03*
X591Y10787D02*
D03*
Y11102D02*
D03*
Y11417D02*
D03*
Y9449D02*
D03*
Y9764D02*
D03*
Y10065D02*
D03*
Y10394D02*
D03*
X2047Y10433D02*
D03*
X1260Y11417D02*
D03*
X1614D02*
D03*
X1969D02*
D03*
X2638D02*
D03*
X2323D02*
D03*
Y11102D02*
D03*
Y10787D02*
D03*
X906Y11417D02*
D03*
Y11102D02*
D03*
Y10787D02*
D03*
X4291Y9488D02*
D03*
X3976Y11063D02*
D03*
X9252Y11260D02*
D03*
X21496Y4488D02*
D03*
Y4764D02*
D03*
X21220D02*
D03*
X25886Y4291D02*
D03*
X20394Y1535D02*
D03*
X18976D02*
D03*
X18268D02*
D03*
X19685Y1890D02*
D03*
X17559Y1969D02*
D03*
Y1693D02*
D03*
X17244D02*
D03*
X20984Y1299D02*
D03*
X8268Y2486D02*
D03*
X25827Y1339D02*
D03*
X27480Y1535D02*
D03*
X25512Y5354D02*
D03*
X25787Y11417D02*
D03*
X26378D02*
D03*
X27362D02*
D03*
X30354Y10600D02*
D03*
X19449Y9528D02*
D03*
X25394Y9606D02*
D03*
Y9370D02*
D03*
X29449Y7795D02*
D03*
X13110Y11417D02*
D03*
X12835Y2756D02*
D03*
X13858Y1339D02*
D03*
X13189Y1457D02*
D03*
X6575Y3589D02*
D03*
X9213Y3543D02*
D03*
X10906Y2480D02*
D03*
X9173D02*
D03*
X12520Y2756D02*
D03*
X11614Y2913D02*
D03*
X12362Y1575D02*
D03*
X20118Y10118D02*
D03*
X6614Y3858D02*
D03*
X7126D02*
D03*
X5354Y2677D02*
D03*
X1339Y3819D02*
D03*
X2520Y1654D02*
D03*
X2795D02*
D03*
X1929Y8504D02*
D03*
X1850Y5787D02*
D03*
X2638Y6142D02*
D03*
X9606Y5433D02*
D03*
X6102Y7205D02*
D03*
X4843Y1339D02*
D03*
X4961Y1535D02*
D03*
X4724D02*
D03*
X5512Y1732D02*
D03*
Y1969D02*
D03*
Y2205D02*
D03*
X2717Y2638D02*
D03*
X2559Y2795D02*
D03*
X4118Y2772D02*
D03*
X3971Y2632D02*
D03*
X3976Y2323D02*
D03*
X2992Y6142D02*
D03*
Y5906D02*
D03*
X6102Y8150D02*
D03*
X5354Y3661D02*
D03*
X4803Y4803D02*
D03*
X2677Y5000D02*
D03*
X2087D02*
D03*
X1457Y4606D02*
D03*
X4370Y5157D02*
D03*
X9803Y11535D02*
D03*
X10630Y11496D02*
D03*
X2756Y8701D02*
D03*
X1339Y9055D02*
D03*
X2559Y9606D02*
D03*
X906Y10394D02*
D03*
Y10079D02*
D03*
Y9764D02*
D03*
X1890Y9606D02*
D03*
X1142Y8858D02*
D03*
X3346Y10433D02*
D03*
X3661D02*
D03*
X3976D02*
D03*
Y10748D02*
D03*
Y10118D02*
D03*
X2835Y10315D02*
D03*
X12047Y10866D02*
D03*
X12362D02*
D03*
X11732D02*
D03*
X12835D02*
D03*
X13982Y11530D02*
D03*
X27559Y8504D02*
D03*
X27244Y8740D02*
D03*
X28189D02*
D03*
X26654Y9882D02*
D03*
X26260D02*
D03*
X28898Y8189D02*
D03*
X29587Y8504D02*
D03*
X29646Y7638D02*
D03*
X27067Y4291D02*
D03*
X28248D02*
D03*
X29429D02*
D03*
X25551D02*
D03*
X28937Y6378D02*
D03*
Y6142D02*
D03*
X26870Y5354D02*
D03*
X25472Y9882D02*
D03*
X27480Y9882D02*
D03*
X27835Y9882D02*
D03*
X29016D02*
D03*
X30394Y8425D02*
D03*
X28071Y5394D02*
D03*
X24528Y9213D02*
D03*
X25276Y9882D02*
D03*
X28543Y11457D02*
D03*
X29528D02*
D03*
X30512D02*
D03*
X28386Y10600D02*
D03*
X27795Y11417D02*
D03*
X17559Y10866D02*
D03*
X18071D02*
D03*
X19567D02*
D03*
X21142D02*
D03*
X26811Y11417D02*
D03*
X30315Y3465D02*
D03*
X30787D02*
D03*
X30325Y1614D02*
D03*
X30315Y2323D02*
D03*
X29134Y2598D02*
D03*
X30315D02*
D03*
X29134Y2323D02*
D03*
X29124Y1614D02*
D03*
X22441Y1260D02*
D03*
X21732D02*
D03*
X21890Y1457D02*
D03*
X22598D02*
D03*
X21181D02*
D03*
X21496Y9528D02*
D03*
X25787Y5348D02*
D03*
X25984D02*
D03*
X23937Y9055D02*
D03*
X24567Y5354D02*
D03*
X20945Y4764D02*
D03*
X20669D02*
D03*
X20394D02*
D03*
X8346Y11260D02*
D03*
X8031D02*
D03*
X7717D02*
D03*
X7402D02*
D03*
X3976Y9803D02*
D03*
X4291D02*
D03*
Y10118D02*
D03*
Y10433D02*
D03*
Y10748D02*
D03*
Y11063D02*
D03*
X8937Y11260D02*
D03*
X21693Y10866D02*
D03*
X21496D02*
D03*
X13346D02*
D03*
X18071Y10157D02*
D03*
X24961Y6811D02*
D03*
X24685D02*
D03*
X24724Y5197D02*
D03*
X3701Y8701D02*
D03*
X10472Y10984D02*
D03*
X19094Y7992D02*
D03*
Y7717D02*
D03*
X19370D02*
D03*
X17992Y4291D02*
D03*
D58*
X3600Y3150D02*
D03*
Y3650D02*
D03*
X3100D02*
D03*
Y3150D02*
D03*
X3600Y3150D02*
D03*
Y3650D02*
D03*
X3100D02*
D03*
Y3150D02*
D03*
X31024Y394D02*
D03*
X30315D02*
D03*
X29134D02*
D03*
X28425D02*
D03*
X25118D02*
D03*
X23228D02*
D03*
X1260D02*
D03*
X1969D02*
D03*
X3150D02*
D03*
X3858D02*
D03*
X6457D02*
D03*
X9055D02*
D03*
X11654D02*
D03*
X16142Y11575D02*
D03*
X15197D02*
D03*
X15472D02*
D03*
Y11339D02*
D03*
X15197D02*
D03*
X14724D02*
D03*
X14449D02*
D03*
X15866Y11575D02*
D03*
Y11339D02*
D03*
X9843Y6102D02*
D03*
X25197Y5551D02*
D03*
X25000Y5748D02*
D03*
X28189Y11457D02*
D03*
X27087D02*
D03*
X25551Y11496D02*
D03*
X5906Y5157D02*
D03*
X5512D02*
D03*
X5118D02*
D03*
X4724D02*
D03*
X8268D02*
D03*
X7874D02*
D03*
X7520D02*
D03*
X26693Y7638D02*
D03*
Y7205D02*
D03*
Y6772D02*
D03*
X27126D02*
D03*
Y7638D02*
D03*
X27559D02*
D03*
Y7205D02*
D03*
Y6772D02*
D03*
X27126Y7205D02*
D03*
X22992Y5079D02*
D03*
X22756Y5315D02*
D03*
Y4843D02*
D03*
X23228D02*
D03*
Y5315D02*
D03*
X22283Y9370D02*
D03*
Y10197D02*
D03*
Y9803D02*
D03*
X22677D02*
D03*
X23071D02*
D03*
Y9370D02*
D03*
X22677D02*
D03*
X23071Y10197D02*
D03*
X22677D02*
D03*
X2205Y6890D02*
D03*
Y7244D02*
D03*
X2835Y6850D02*
D03*
Y7244D02*
D03*
X2520Y7047D02*
D03*
X5984Y2008D02*
D03*
Y2598D02*
D03*
Y3189D02*
D03*
Y9252D02*
D03*
X6299D02*
D03*
X21220Y4488D02*
D03*
X20945D02*
D03*
X20669D02*
D03*
X20394D02*
D03*
X11732Y6102D02*
D03*
X11417D02*
D03*
X11102Y8628D02*
D03*
X18543Y6575D02*
D03*
X17717Y7402D02*
D03*
X17992Y7126D02*
D03*
X17717D02*
D03*
X18268Y6850D02*
D03*
Y6575D02*
D03*
X17638Y8543D02*
D03*
X17913Y6457D02*
D03*
X18622Y5000D02*
D03*
X18425D02*
D03*
X18228D02*
D03*
X18898Y5472D02*
D03*
Y5748D02*
D03*
X18622D02*
D03*
X18346Y5472D02*
D03*
X18071Y5748D02*
D03*
Y5472D02*
D03*
X17795D02*
D03*
Y5748D02*
D03*
Y6024D02*
D03*
X17520Y5472D02*
D03*
Y5748D02*
D03*
Y6024D02*
D03*
Y6299D02*
D03*
X23189Y6772D02*
D03*
X22913D02*
D03*
Y7520D02*
D03*
X23189D02*
D03*
Y7165D02*
D03*
X22913D02*
D03*
X22244Y7520D02*
D03*
X21969D02*
D03*
Y6772D02*
D03*
X22244Y7165D02*
D03*
X21969D02*
D03*
X22244Y6772D02*
D03*
X2480Y2205D02*
D03*
X1220Y9764D02*
D03*
Y10079D02*
D03*
X1850Y10236D02*
D03*
X8937Y10945D02*
D03*
X9252D02*
D03*
X12205Y11378D02*
D03*
X21260Y5315D02*
D03*
X20433D02*
D03*
X20709D02*
D03*
X20984D02*
D03*
X15512Y7362D02*
D03*
X23228Y945D02*
D03*
X25118D02*
D03*
X14567Y6102D02*
D03*
X14882D02*
D03*
X12992D02*
D03*
X11654Y945D02*
D03*
X9055D02*
D03*
X6457D02*
D03*
X3150D02*
D03*
X1969D02*
D03*
X1260D02*
D03*
X3110Y7756D02*
D03*
X5984Y8937D02*
D03*
X5000Y5787D02*
D03*
X6299Y8937D02*
D03*
X5630Y6417D02*
D03*
X6575Y7677D02*
D03*
X5630Y6732D02*
D03*
X6575D02*
D03*
Y7047D02*
D03*
X6890Y7047D02*
D03*
X5630Y7677D02*
D03*
X7205Y5787D02*
D03*
Y6102D02*
D03*
X5315Y7677D02*
D03*
Y7992D02*
D03*
X7520Y7362D02*
D03*
X7205D02*
D03*
X10472Y7677D02*
D03*
Y7362D02*
D03*
X6575Y7992D02*
D03*
Y8307D02*
D03*
X10472Y6417D02*
D03*
X11417Y9567D02*
D03*
Y9882D02*
D03*
X12047Y7362D02*
D03*
X11732D02*
D03*
X12992Y5787D02*
D03*
Y5472D02*
D03*
X12362Y5787D02*
D03*
X14567Y7047D02*
D03*
X12992Y6417D02*
D03*
X13307Y7047D02*
D03*
X13937Y6102D02*
D03*
Y6732D02*
D03*
X13622Y6417D02*
D03*
X13937Y7362D02*
D03*
X13622Y7677D02*
D03*
X10472Y9567D02*
D03*
Y10197D02*
D03*
X12677Y4528D02*
D03*
X13307Y5157D02*
D03*
X13937D02*
D03*
X14882Y4843D02*
D03*
X15512Y5787D02*
D03*
X15827Y7362D02*
D03*
X15197Y7992D02*
D03*
X15827Y4528D02*
D03*
Y9567D02*
D03*
X14567Y9252D02*
D03*
Y9882D02*
D03*
X14252Y8307D02*
D03*
X13622D02*
D03*
X13307Y8622D02*
D03*
X12047Y7677D02*
D03*
X12362Y8307D02*
D03*
Y8622D02*
D03*
X12992Y8307D02*
D03*
X11732D02*
D03*
Y7047D02*
D03*
X12047Y9252D02*
D03*
Y9567D02*
D03*
X11732Y10197D02*
D03*
X10787Y6417D02*
D03*
X12362Y4843D02*
D03*
X14567Y7362D02*
D03*
X12992Y6732D02*
D03*
X13937Y6417D02*
D03*
X13622Y6102D02*
D03*
Y6732D02*
D03*
Y7047D02*
D03*
Y7362D02*
D03*
X13937Y7677D02*
D03*
X3425Y1772D02*
D03*
X3858Y945D02*
D03*
X3350Y3400D02*
D03*
X10472Y8622D02*
D03*
X10787Y9567D02*
D03*
X10157Y10197D02*
D03*
X12677Y4843D02*
D03*
X13307D02*
D03*
X13937Y5472D02*
D03*
X14882Y5157D02*
D03*
X15512Y7992D02*
D03*
X15827Y4843D02*
D03*
Y9252D02*
D03*
X14882D02*
D03*
X14252Y9882D02*
D03*
X13937Y8307D02*
D03*
X13622Y8622D02*
D03*
X13307Y8937D02*
D03*
X12047Y8622D02*
D03*
X12992D02*
D03*
X12677Y8307D02*
D03*
X11732Y8622D02*
D03*
X12362Y9567D02*
D03*
Y9252D02*
D03*
X12047Y10197D02*
D03*
Y5472D02*
D03*
X12677Y6732D02*
D03*
X12362D02*
D03*
X12047D02*
D03*
Y4843D02*
D03*
X11732Y5472D02*
D03*
X12362Y7362D02*
D03*
X11732Y6732D02*
D03*
X11102Y7992D02*
D03*
X11732Y7992D02*
D03*
X12047D02*
D03*
X12362Y6102D02*
D03*
X12047D02*
D03*
Y5787D02*
D03*
X11102Y7677D02*
D03*
X11732Y7677D02*
D03*
X5000Y8307D02*
D03*
X5315D02*
D03*
X4685Y10827D02*
D03*
Y10512D02*
D03*
Y10197D02*
D03*
Y9882D02*
D03*
X5315Y10197D02*
D03*
X5000D02*
D03*
X4685Y9567D02*
D03*
Y9252D02*
D03*
Y8622D02*
D03*
X5000D02*
D03*
X4685Y7047D02*
D03*
Y6732D02*
D03*
Y6417D02*
D03*
Y6102D02*
D03*
Y5787D02*
D03*
X7205Y10827D02*
D03*
X7520D02*
D03*
Y10512D02*
D03*
Y10197D02*
D03*
Y9882D02*
D03*
Y9567D02*
D03*
X7205Y9882D02*
D03*
Y9567D02*
D03*
X6890Y8622D02*
D03*
X7205D02*
D03*
Y8307D02*
D03*
Y7992D02*
D03*
X7520Y6732D02*
D03*
Y6417D02*
D03*
Y6102D02*
D03*
Y5787D02*
D03*
X7205Y7677D02*
D03*
X5630Y7362D02*
D03*
Y5787D02*
D03*
Y7992D02*
D03*
X7205Y6732D02*
D03*
Y6417D02*
D03*
X5630Y6102D02*
D03*
X6575D02*
D03*
X5630Y7047D02*
D03*
X11102Y8307D02*
D03*
X10157Y8622D02*
D03*
X10787Y9882D02*
D03*
X7205Y7047D02*
D03*
X4016Y5157D02*
D03*
X6299D02*
D03*
X2244Y8504D02*
D03*
X12677Y7992D02*
D03*
X13307Y8307D02*
D03*
Y9252D02*
D03*
X25394Y7953D02*
D03*
Y7756D02*
D03*
X31024Y945D02*
D03*
X30315D02*
D03*
X29134D02*
D03*
X28425D02*
D03*
X25984Y2165D02*
D03*
X15512Y5472D02*
D03*
X13307Y6102D02*
D03*
X18268Y8543D02*
D03*
X18543D02*
D03*
X18268Y8268D02*
D03*
X18543D02*
D03*
X18819D02*
D03*
Y7992D02*
D03*
X18543D02*
D03*
X18268D02*
D03*
X18543Y7717D02*
D03*
X18819D02*
D03*
D59*
X24528Y9606D02*
D03*
X16220Y3189D02*
D03*
X16457D02*
D03*
X20000Y2362D02*
D03*
X18425D02*
D03*
X19055D02*
D03*
X16693Y2323D02*
D03*
X19370Y2362D02*
D03*
X18740D02*
D03*
X18110D02*
D03*
X17795D02*
D03*
X17008Y2323D02*
D03*
X16220Y2362D02*
D03*
X14961Y1693D02*
D03*
Y1457D02*
D03*
X25591Y2520D02*
D03*
X25906D02*
D03*
X25157D02*
D03*
X24882D02*
D03*
X24252D02*
D03*
X23622D02*
D03*
X22992D02*
D03*
X22362D02*
D03*
X21732D02*
D03*
X21102D02*
D03*
X20472D02*
D03*
X27953Y2598D02*
D03*
X27402D02*
D03*
X27677D02*
D03*
X26378Y4094D02*
D03*
X26142Y4213D02*
D03*
X23819Y3307D02*
D03*
X23307Y2362D02*
D03*
X23425Y3307D02*
D03*
X22992Y3425D02*
D03*
X20669Y3307D02*
D03*
X21299D02*
D03*
X20906D02*
D03*
X21929D02*
D03*
X21535D02*
D03*
X22559D02*
D03*
X22165D02*
D03*
X23189D02*
D03*
X22795D02*
D03*
X24449D02*
D03*
X24055D02*
D03*
X24685D02*
D03*
X20787Y2362D02*
D03*
X13032Y2047D02*
D03*
X12717Y1969D02*
D03*
X12520Y1772D02*
D03*
X9843Y9882D02*
D03*
X11732Y5787D02*
D03*
X19528Y4764D02*
D03*
Y4528D02*
D03*
X11102Y9252D02*
D03*
X22480Y9055D02*
D03*
X22913D02*
D03*
X22126Y8071D02*
D03*
X23228Y10984D02*
D03*
Y11299D02*
D03*
X22638Y10591D02*
D03*
X24016Y11339D02*
D03*
X26063Y11417D02*
D03*
X19409Y8622D02*
D03*
X19803D02*
D03*
X20118D02*
D03*
X20433D02*
D03*
X19055D02*
D03*
X17283Y1969D02*
D03*
X25669Y3661D02*
D03*
X28661Y3465D02*
D03*
X16457Y8622D02*
D03*
X15512Y8937D02*
D03*
X15827D02*
D03*
X14567Y8307D02*
D03*
X14882Y7992D02*
D03*
X15197Y2165D02*
D03*
X15787Y2008D02*
D03*
X24567Y2362D02*
D03*
X14567Y7992D02*
D03*
X14882Y8307D02*
D03*
Y7677D02*
D03*
X15197Y8307D02*
D03*
X15512D02*
D03*
X15827D02*
D03*
X15197Y7677D02*
D03*
X23937Y2362D02*
D03*
X16457Y7677D02*
D03*
X16142Y7992D02*
D03*
X16457Y7047D02*
D03*
X14252Y7992D02*
D03*
X15827Y7677D02*
D03*
Y7992D02*
D03*
X15512Y7677D02*
D03*
X13937Y8622D02*
D03*
X14567Y7677D02*
D03*
X15197Y7362D02*
D03*
X13937Y7992D02*
D03*
X14252Y7677D02*
D03*
X22047Y2362D02*
D03*
X15827Y7047D02*
D03*
X14882Y7362D02*
D03*
Y7047D02*
D03*
X27047Y2441D02*
D03*
X15827Y8622D02*
D03*
X14882D02*
D03*
X15197D02*
D03*
X14567D02*
D03*
X15197Y9252D02*
D03*
X15512D02*
D03*
Y8622D02*
D03*
X26457Y1339D02*
D03*
X26732Y1535D02*
D03*
X26969Y1299D02*
D03*
X27598Y1850D02*
D03*
X27520Y4094D02*
D03*
X28465Y3031D02*
D03*
Y3307D02*
D03*
X28504Y1732D02*
D03*
X31299Y5709D02*
D03*
X30709Y6063D02*
D03*
Y5709D02*
D03*
X11732Y9567D02*
D03*
X12047Y8937D02*
D03*
X12677Y9567D02*
D03*
Y9252D02*
D03*
X29843Y3465D02*
D03*
X30039Y3937D02*
D03*
X29488Y3031D02*
D03*
X29882Y4094D02*
D03*
X29016Y3583D02*
D03*
X13937Y9567D02*
D03*
Y10197D02*
D03*
X14252D02*
D03*
X14567Y10512D02*
D03*
X30039Y3031D02*
D03*
X20748Y9528D02*
D03*
X15197Y9882D02*
D03*
Y9567D02*
D03*
X14567Y10197D02*
D03*
X13622Y9882D02*
D03*
Y10197D02*
D03*
X14252Y9567D02*
D03*
X14882Y8937D02*
D03*
X15197D02*
D03*
X15827Y9882D02*
D03*
X18110Y9567D02*
D03*
X14882D02*
D03*
X20394Y9528D02*
D03*
X14567Y9567D02*
D03*
X13937Y9882D02*
D03*
X12047D02*
D03*
X13543Y2559D02*
D03*
X13740Y2756D02*
D03*
X14488Y1693D02*
D03*
Y1299D02*
D03*
X14252Y1693D02*
D03*
X13386D02*
D03*
X15827Y5157D02*
D03*
X15512D02*
D03*
X15827Y6102D02*
D03*
Y6417D02*
D03*
X15512Y6102D02*
D03*
X15197Y6417D02*
D03*
X14567Y5157D02*
D03*
X11693Y1339D02*
D03*
X11496Y1732D02*
D03*
X11890Y1850D02*
D03*
X15512Y4213D02*
D03*
X15197D02*
D03*
X15512Y4843D02*
D03*
Y4528D02*
D03*
X15197D02*
D03*
Y4843D02*
D03*
X14567Y4528D02*
D03*
Y4843D02*
D03*
X14882Y5787D02*
D03*
X14252Y4843D02*
D03*
Y4528D02*
D03*
X13937Y3740D02*
D03*
X13622Y5157D02*
D03*
Y3898D02*
D03*
Y4213D02*
D03*
X12992Y4843D02*
D03*
X12992Y5157D02*
D03*
X8937Y2126D02*
D03*
X12992Y4213D02*
D03*
X13307Y4528D02*
D03*
X12992D02*
D03*
X12362D02*
D03*
X12047D02*
D03*
X12677Y5472D02*
D03*
X11417Y4843D02*
D03*
Y4528D02*
D03*
X12362Y5157D02*
D03*
X7874Y2717D02*
D03*
X7402D02*
D03*
X6929D02*
D03*
X8110Y3031D02*
D03*
X7638D02*
D03*
X7165D02*
D03*
X6693D02*
D03*
X14252Y5472D02*
D03*
X13937Y5787D02*
D03*
Y4843D02*
D03*
X13622D02*
D03*
Y5472D02*
D03*
X16575Y10197D02*
D03*
X25276Y6142D02*
D03*
X14567Y8937D02*
D03*
X19724Y10118D02*
D03*
X20118Y10512D02*
D03*
X19724D02*
D03*
X14252Y6102D02*
D03*
X13622Y4528D02*
D03*
Y5787D02*
D03*
X13307D02*
D03*
X12677D02*
D03*
X8465Y2126D02*
D03*
X8701Y1575D02*
D03*
X11417Y5472D02*
D03*
X11102Y5157D02*
D03*
X9173Y1260D02*
D03*
X9882D02*
D03*
X9646Y1575D02*
D03*
Y1850D02*
D03*
X10354Y1575D02*
D03*
Y1850D02*
D03*
X10591Y1260D02*
D03*
X11063Y1850D02*
D03*
Y1575D02*
D03*
X11299Y1260D02*
D03*
X8701D02*
D03*
X8465Y1575D02*
D03*
Y1850D02*
D03*
X7992Y1260D02*
D03*
X7756Y1850D02*
D03*
Y1575D02*
D03*
X7047Y1850D02*
D03*
Y1575D02*
D03*
X7283Y1260D02*
D03*
X6575D02*
D03*
X10787Y5157D02*
D03*
X10157Y4528D02*
D03*
X11102Y4213D02*
D03*
X11417Y5157D02*
D03*
X13307Y6417D02*
D03*
X15197Y10512D02*
D03*
X13307Y10197D02*
D03*
X10157Y5157D02*
D03*
X4331Y7520D02*
D03*
Y7205D02*
D03*
Y6890D02*
D03*
Y6575D02*
D03*
Y6260D02*
D03*
Y5945D02*
D03*
X11102Y10197D02*
D03*
X6575Y9567D02*
D03*
X5315Y6732D02*
D03*
X10787Y7362D02*
D03*
Y7047D02*
D03*
X10472D02*
D03*
X10157Y6417D02*
D03*
X10787Y7677D02*
D03*
X11102Y6732D02*
D03*
X8465Y7677D02*
D03*
X5315Y6102D02*
D03*
X10787Y7992D02*
D03*
X10157Y7362D02*
D03*
X9843Y7047D02*
D03*
X5315Y6417D02*
D03*
X11102Y7362D02*
D03*
X5315Y7047D02*
D03*
X11417Y6417D02*
D03*
X8465Y5787D02*
D03*
X10472D02*
D03*
X11102D02*
D03*
X9843Y6732D02*
D03*
X10157D02*
D03*
X13307Y5472D02*
D03*
X15512Y6732D02*
D03*
X12047Y8307D02*
D03*
X12362Y8937D02*
D03*
X11732D02*
D03*
X15669Y1535D02*
D03*
X16142Y1339D02*
D03*
X15197Y1299D02*
D03*
X12992Y8937D02*
D03*
X12677Y6417D02*
D03*
X12362D02*
D03*
X12677Y6102D02*
D03*
X12047Y6417D02*
D03*
X12362Y7677D02*
D03*
X12677Y7362D02*
D03*
X11732Y6417D02*
D03*
X5000Y9882D02*
D03*
Y9567D02*
D03*
X7205Y9252D02*
D03*
X7520Y8937D02*
D03*
Y8622D02*
D03*
X10472Y6732D02*
D03*
X11102Y7047D02*
D03*
X10157D02*
D03*
X10787Y9252D02*
D03*
X7835Y5787D02*
D03*
X11102Y6417D02*
D03*
X5315Y7362D02*
D03*
X5000Y7677D02*
D03*
X9528Y6732D02*
D03*
X11102Y6102D02*
D03*
X10787Y6732D02*
D03*
X8150Y7362D02*
D03*
X10787Y8307D02*
D03*
Y8937D02*
D03*
X11417Y8307D02*
D03*
Y7992D02*
D03*
Y7677D02*
D03*
X7205Y8937D02*
D03*
X10787Y8622D02*
D03*
X5315Y8937D02*
D03*
X5630D02*
D03*
X10157Y8307D02*
D03*
X10472D02*
D03*
Y7992D02*
D03*
X10157D02*
D03*
X5000Y8937D02*
D03*
X5630Y8307D02*
D03*
X9843Y7992D02*
D03*
Y8307D02*
D03*
X6575Y8622D02*
D03*
X5630Y9252D02*
D03*
X10157D02*
D03*
X5315Y8622D02*
D03*
X6890Y9252D02*
D03*
X9843Y8937D02*
D03*
X9528D02*
D03*
X6575D02*
D03*
X10157Y8937D02*
D03*
X10472Y8937D02*
D03*
X11102D02*
D03*
X6890Y8307D02*
D03*
X5630Y9882D02*
D03*
X9843Y10197D02*
D03*
X10157Y9882D02*
D03*
Y9567D02*
D03*
X10472Y9252D02*
D03*
X6890Y10827D02*
D03*
X10787Y10197D02*
D03*
X5630Y10512D02*
D03*
X10157D02*
D03*
X6575Y10197D02*
D03*
Y9882D02*
D03*
X6890D02*
D03*
X5630Y10197D02*
D03*
X9843Y9567D02*
D03*
X5315Y10512D02*
D03*
X10787D02*
D03*
X5315Y9882D02*
D03*
X9843Y9252D02*
D03*
X7205Y10197D02*
D03*
X7835Y6417D02*
D03*
X9843Y7362D02*
D03*
X4055Y4528D02*
D03*
X4370D02*
D03*
X2992Y5000D02*
D03*
X5551Y4173D02*
D03*
X12362Y5472D02*
D03*
X11732Y5157D02*
D03*
Y4843D02*
D03*
X12677Y5157D02*
D03*
X2598Y4528D02*
D03*
X3268Y4803D02*
D03*
X2323Y4528D02*
D03*
X12362Y4213D02*
D03*
X12677D02*
D03*
X11732Y4528D02*
D03*
X11417Y4213D02*
D03*
X11102Y4843D02*
D03*
X7874Y4685D02*
D03*
X12047Y5157D02*
D03*
X5906Y4685D02*
D03*
X3701Y5157D02*
D03*
X11732Y9252D02*
D03*
X11260Y10787D02*
D03*
X1339Y9449D02*
D03*
X12362Y10197D02*
D03*
X11417Y9252D02*
D03*
X11732Y9882D02*
D03*
X12047Y10512D02*
D03*
X11417D02*
D03*
X11732D02*
D03*
X15197Y10197D02*
D03*
X15512Y9882D02*
D03*
X12992Y9567D02*
D03*
X25709Y7520D02*
D03*
X25591Y7323D02*
D03*
X25709Y6732D02*
D03*
X25827Y6535D02*
D03*
X25591Y6929D02*
D03*
X26220Y6260D02*
D03*
X14252Y9252D02*
D03*
Y8937D02*
D03*
X27244Y5945D02*
D03*
X27047Y5787D02*
D03*
X26693D02*
D03*
X26496Y5945D02*
D03*
X13937Y9252D02*
D03*
X12362Y9882D02*
D03*
X11102D02*
D03*
X12992Y9252D02*
D03*
X14882Y10197D02*
D03*
X15512Y10512D02*
D03*
X25472Y7126D02*
D03*
X14882Y9882D02*
D03*
X9291Y3031D02*
D03*
X9764D02*
D03*
X10236D02*
D03*
X10709D02*
D03*
X9528Y2717D02*
D03*
X10000D02*
D03*
X13307Y4213D02*
D03*
X14252D02*
D03*
X27675Y3939D02*
D03*
X28858Y3937D02*
D03*
X28701Y4094D02*
D03*
X28346Y6575D02*
D03*
X28543Y6732D02*
D03*
X28346Y7835D02*
D03*
X11063Y2126D02*
D03*
X11299Y1575D02*
D03*
X14252Y5787D02*
D03*
X14567Y5472D02*
D03*
X14882D02*
D03*
X13937Y4213D02*
D03*
Y4528D02*
D03*
X14252Y5157D02*
D03*
X14567Y4213D02*
D03*
X14882D02*
D03*
X10472Y2717D02*
D03*
X14252Y3898D02*
D03*
X26260Y8386D02*
D03*
X26181Y8110D02*
D03*
X25787D02*
D03*
X27638Y5827D02*
D03*
X28307Y5551D02*
D03*
Y5827D02*
D03*
X28976Y5709D02*
D03*
X11417Y10197D02*
D03*
X12992Y9882D02*
D03*
X13307Y9567D02*
D03*
X23661Y8504D02*
D03*
Y8189D02*
D03*
X30354Y10344D02*
D03*
X29370D02*
D03*
X28386D02*
D03*
Y8583D02*
D03*
X28583Y8425D02*
D03*
X28502Y7679D02*
D03*
X28740Y7362D02*
D03*
X28896Y7207D02*
D03*
X12992Y10197D02*
D03*
X30315Y1299D02*
D03*
X30079D02*
D03*
X12677Y8937D02*
D03*
X28898Y1535D02*
D03*
X29449Y1299D02*
D03*
X29213D02*
D03*
X28976D02*
D03*
X25591Y1339D02*
D03*
X26063Y1575D02*
D03*
X15827Y5472D02*
D03*
X15197Y5787D02*
D03*
Y6102D02*
D03*
X14567Y5787D02*
D03*
X15512Y6417D02*
D03*
X14252D02*
D03*
X14567D02*
D03*
X14882D02*
D03*
X15827Y5787D02*
D03*
X16142Y6102D02*
D03*
X14567Y6732D02*
D03*
X14882D02*
D03*
X20315Y2362D02*
D03*
X14252Y6732D02*
D03*
Y7047D02*
D03*
X15197Y6732D02*
D03*
Y7047D02*
D03*
X15827Y6732D02*
D03*
X13937Y7047D02*
D03*
X14252Y7362D02*
D03*
X21417Y2362D02*
D03*
X14252Y8622D02*
D03*
X26260Y1496D02*
D03*
X25748Y3898D02*
D03*
X16693Y8307D02*
D03*
X25236Y4331D02*
D03*
X20984Y9528D02*
D03*
X20118Y6732D02*
D03*
X20551Y7717D02*
D03*
X23937Y4606D02*
D03*
X13307Y6732D02*
D03*
X11417D02*
D03*
Y7362D02*
D03*
Y7047D02*
D03*
X6496Y2486D02*
D03*
X13622Y9567D02*
D03*
X24281Y7677D02*
D03*
X24173Y7441D02*
D03*
X12992Y7992D02*
D03*
X12677Y7677D02*
D03*
X13622Y7992D02*
D03*
X12992Y7677D02*
D03*
X13307Y7992D02*
D03*
Y7677D02*
D03*
Y7362D02*
D03*
X12992Y7047D02*
D03*
X12047D02*
D03*
X12362D02*
D03*
X12677D02*
D03*
X12992Y7362D02*
D03*
X12362Y7992D02*
D03*
X30551Y5433D02*
D03*
X13661Y10512D02*
D03*
X12283Y1969D02*
D03*
X26534Y3939D02*
D03*
X22677Y2362D02*
D03*
X15394D02*
D03*
D60*
X23543Y4449D02*
D03*
X23465Y11339D02*
D03*
D65*
X22756Y11457D02*
X22835Y11535D01*
X16654Y11457D02*
X22756D01*
X16339Y11142D02*
X16654Y11457D01*
X22638Y11299D02*
X22810Y11127D01*
X16772Y11299D02*
X22638D01*
X16457Y10984D02*
X16772Y11299D01*
X22835Y10669D02*
X25157D01*
X22717Y10787D02*
X22835Y10669D01*
X25157D02*
X25472Y10354D01*
X30354Y10866D02*
X30591Y10630D01*
X26772Y10866D02*
X30354D01*
X26260Y10354D02*
X26772Y10866D01*
X30433Y10984D02*
X30748Y10669D01*
X26614Y10984D02*
X30433D01*
X26142Y10512D02*
X26614Y10984D01*
X30591Y6496D02*
Y10630D01*
X30551Y6457D02*
X30591Y6496D01*
X30748Y6102D02*
Y10669D01*
X30709Y6063D02*
X30748Y6102D01*
X30906Y5906D02*
Y10709D01*
X30709Y5709D02*
X30906Y5906D01*
X30487Y11127D02*
X30906Y10709D01*
X18661Y8740D02*
X21496Y5906D01*
X17205Y8740D02*
X18661D01*
X16693Y9252D02*
X17205Y8740D01*
X14961Y1465D02*
X16016Y2520D01*
X14961Y1693D02*
X15906Y2638D01*
X14961Y1457D02*
Y1465D01*
X15906Y2638D02*
X20093D01*
X20157Y2520D02*
X20394Y2756D01*
X16016Y2520D02*
X20157D01*
X20315Y2860D02*
X28647D01*
X20093Y2638D02*
X20315Y2860D01*
X20394Y2756D02*
X28858D01*
X22816Y8465D02*
X24706Y6575D01*
X22047Y8465D02*
X22816D01*
X24706Y6575D02*
X25512D01*
X20945Y10354D02*
X22087Y9213D01*
X23543D01*
X14724Y10354D02*
X20945D01*
X25276Y11535D02*
X25551Y11260D01*
X22835Y11535D02*
X25276D01*
X22992Y10827D02*
X25236D01*
X22795Y11024D02*
X22992Y10827D01*
X16772Y11024D02*
X22795D01*
X22480Y10787D02*
X22717D01*
X22362Y10669D02*
X22480Y10787D01*
X25551Y10512D02*
X26142D01*
X25236Y10827D02*
X25551Y10512D01*
X25472Y10354D02*
X26260D01*
X14260Y1693D02*
X15441Y2874D01*
X19857D02*
X20079Y3096D01*
X15441Y2874D02*
X19857D01*
X14488Y1693D02*
X15551Y2756D01*
X19961D02*
X20197Y2992D01*
X15551Y2756D02*
X19961D01*
X31063Y5945D02*
Y10748D01*
Y5945D02*
X31299Y5709D01*
X22810Y11127D02*
X30487D01*
X14409Y10984D02*
X16457D01*
X30551Y11260D02*
X31063Y10748D01*
X25551Y11260D02*
X30551D01*
X11890Y10315D02*
X11929Y10354D01*
X11890Y9724D02*
Y10315D01*
X11890Y9724D02*
X11890D01*
X11732Y9567D02*
X11890Y9724D01*
X13780Y10354D02*
X14409Y10984D01*
X13780Y10079D02*
Y10354D01*
X13740Y10039D02*
X13780Y10079D01*
X12244Y10039D02*
X13740D01*
X12205Y10000D02*
X12244Y10039D01*
X12205Y9094D02*
Y10000D01*
X12047Y8937D02*
X12205Y9094D01*
X16575Y10827D02*
X16772Y11024D01*
X14449Y10827D02*
X16575D01*
X14094Y10472D02*
X14449Y10827D01*
X14094Y9764D02*
Y10472D01*
X14055Y9724D02*
X14094Y9764D01*
X12835Y9724D02*
X14055D01*
X12677Y9567D02*
X12835Y9724D01*
X14488Y10669D02*
X22362D01*
X14409Y10591D02*
X14488Y10669D01*
X14409Y9449D02*
Y10591D01*
X14370Y9409D02*
X14409Y9449D01*
X12835Y9409D02*
X14370D01*
X12677Y9252D02*
X12835Y9409D01*
X12677Y9252D02*
X12677D01*
X28858Y2756D02*
X30039Y3937D01*
X28647Y2860D02*
X29882Y4094D01*
X26969Y5945D02*
X27244D01*
X26378Y6535D02*
X26969Y5945D01*
X26378Y6535D02*
Y7205D01*
X25866Y7717D02*
X26378Y7205D01*
X25669Y7717D02*
X25866D01*
X25551Y7598D02*
X25669Y7717D01*
X14567Y10512D02*
X14724Y10354D01*
X16260Y10039D02*
X16417Y9882D01*
X15039Y10039D02*
X16260D01*
X14252Y1693D02*
X14260D01*
X24921Y6142D02*
X25276D01*
X24843Y6063D02*
X24921Y6142D01*
X24724Y6063D02*
X24843D01*
X24685Y6102D02*
X24724Y6063D01*
X24685Y6102D02*
Y6220D01*
X24646Y6260D02*
X24685Y6220D01*
X24646Y6260D02*
Y6260D01*
X24528D02*
X24646D01*
X24528Y6260D02*
Y6260D01*
X24488Y6220D02*
X24528Y6260D01*
X24488Y6102D02*
Y6220D01*
X24449Y6063D02*
X24488Y6102D01*
X24370Y6063D02*
X24449D01*
X24331Y6102D02*
X24370Y6063D01*
X24331Y6102D02*
Y6378D01*
X24291Y6417D02*
X24331Y6378D01*
X16181Y9409D02*
X16339Y9252D01*
X14764Y9409D02*
X16181D01*
X16181Y9724D02*
X16339Y9567D01*
X15039Y9724D02*
X16181D01*
X14724Y9370D02*
X14764Y9409D01*
X14724Y9094D02*
Y9370D01*
X14567Y8937D02*
X14724Y9094D01*
X14882Y9882D02*
X15039Y9724D01*
X11260Y4685D02*
X11575D01*
X11102Y4528D02*
X11260Y4685D01*
X10472Y4528D02*
X11102D01*
X10669Y5315D02*
X12205D01*
X10354Y5000D02*
X10669Y5315D01*
X2992Y5000D02*
X10354D01*
X6102Y4370D02*
X9685D01*
X9843Y4213D01*
X10472D01*
Y4213D01*
X10630Y4370D01*
X11850D01*
X5906Y4528D02*
X9843D01*
X10000Y4370D01*
X10315D01*
X10472Y4528D01*
X12205Y5315D02*
X12362Y5472D01*
X11575Y5000D02*
X11732Y5157D01*
X11575Y4685D02*
X11732Y4843D01*
X4055Y4528D02*
X4567Y4016D01*
X5748D01*
X5945Y4213D01*
X5945D01*
X6102Y4370D01*
X11850D02*
X11890Y4409D01*
Y4961D01*
X11929Y5000D01*
X12520D01*
X12677Y5157D01*
X4370Y4528D02*
X5276D01*
X5591Y4843D01*
X10787D01*
X11575Y4685D02*
Y4685D01*
X5551Y4173D02*
X5906Y4528D01*
X10787Y4843D02*
X10945Y5000D01*
X11575D01*
X11260Y9449D02*
Y10787D01*
Y9449D02*
X11299Y9409D01*
X11575D01*
X11732Y9252D01*
X14882Y10197D02*
X15039Y10039D01*
X26890Y5630D02*
X27047Y5787D01*
X27702Y3096D02*
X28701Y4094D01*
X27913Y2992D02*
X28858Y3937D01*
X28110Y9094D02*
X28386Y8819D01*
X26339Y9094D02*
X28110D01*
X26260Y9173D02*
X26339Y9094D01*
X28150Y9252D02*
X28583Y8819D01*
X26732Y9252D02*
X28150D01*
X26654Y9331D02*
X26732Y9252D01*
X26654Y9331D02*
Y9882D01*
X26260Y9173D02*
Y9882D01*
X25827Y5630D02*
X26890D01*
X26299Y5787D02*
X26693D01*
X25394Y6732D02*
X25709D01*
X25276Y6850D02*
X25394Y6732D01*
X25276Y6850D02*
X25276D01*
X25512Y6575D02*
X26299Y5787D01*
X25236Y6890D02*
X25276Y6850D01*
X28386Y8583D02*
Y8819D01*
X28583Y8425D02*
Y8819D01*
X16339Y9252D02*
X16693D01*
X16339Y9567D02*
X17205D01*
X16575Y10197D02*
X17677D01*
X17913Y9961D01*
X20787D01*
X16417Y9882D02*
X17087D01*
X17244Y9724D01*
X17205Y9567D02*
X17441Y9331D01*
X20197Y2992D02*
X27913D01*
X20079Y3096D02*
X27702D01*
X25551Y5906D02*
X25827Y5630D01*
X20787Y9961D02*
X22087Y8661D01*
X23858D01*
X25236Y7283D01*
Y6890D02*
Y7283D01*
X25157Y7598D02*
X25551D01*
X17244Y9724D02*
X19961D01*
X20433Y9252D02*
X21260D01*
X19961Y9724D02*
X20433Y9252D01*
X23543Y9213D02*
X25157Y7598D01*
X21260Y9252D02*
X22047Y8465D01*
X21496Y5906D02*
X25551D01*
X21339Y6417D02*
X24291D01*
X17441Y9331D02*
X20000D01*
X20866Y6890D02*
Y8465D01*
Y6890D02*
X21339Y6417D01*
X20000Y9331D02*
X20866Y8465D01*
X11929Y10354D02*
X13150D01*
X13937Y11142D01*
X16339D01*
X30551Y5433D02*
Y6457D01*
D66*
X29961Y9951D02*
X30354Y10344D01*
X29961Y6614D02*
Y9951D01*
X29252Y5906D02*
X29961Y6614D01*
X28386Y5906D02*
X29252D01*
X26142Y4213D02*
Y4265D01*
X19173Y4291D02*
X23701D01*
X23661Y4606D02*
X24370Y3898D01*
X22677Y4606D02*
X23661D01*
X23701Y4291D02*
X24331Y3661D01*
X18701Y4764D02*
X19173Y4291D01*
X5157Y8150D02*
X6102D01*
X5010Y8297D02*
X5157Y8150D01*
X17520Y4764D02*
X18701D01*
X17323Y4961D02*
X17520Y4764D01*
X15039Y8189D02*
X15079Y8150D01*
X15039Y8189D02*
Y8465D01*
X14882Y8622D02*
X15039Y8465D01*
X15197Y8622D02*
X15354Y8465D01*
X15354Y8819D02*
X15394Y8780D01*
X15354Y8819D02*
Y9094D01*
X15197Y9252D02*
X15354Y9094D01*
X15669D02*
Y9094D01*
X15512Y9252D02*
X15669Y9094D01*
X10945Y4685D02*
X11102Y4843D01*
X10945Y4685D02*
Y4685D01*
X7874Y4685D02*
X10945D01*
X28386Y10039D02*
X29134Y9291D01*
X28386Y10039D02*
Y10344D01*
X27638Y5827D02*
Y6535D01*
X29134Y8031D01*
Y9291D01*
X28110Y5748D02*
X28307Y5551D01*
X28110Y5748D02*
Y5984D01*
X29213Y7087D01*
Y7874D01*
X29370Y8031D01*
Y10344D01*
X28307Y5827D02*
X28386Y5906D01*
X17323Y4961D02*
Y7441D01*
X15079Y8150D02*
X16614D01*
X17323Y7441D01*
X15394Y8780D02*
X16693D01*
X15354Y8465D02*
X16772D01*
X17480Y7756D01*
Y6614D02*
Y7756D01*
X15669Y9094D02*
X16614D01*
X24528Y5000D02*
X25406D01*
X26142Y4265D01*
X17480Y6614D02*
X19016Y5079D01*
X16614Y9094D02*
X19961Y5748D01*
X23780D01*
X24528Y5000D01*
X16693Y8780D02*
X19921Y5551D01*
X23622D01*
X24724Y4449D01*
X24843Y4331D01*
X25236D01*
X22205Y5079D02*
X22677Y4606D01*
X19016Y5079D02*
X22205D01*
X24331Y3661D02*
X25669D01*
X24370Y3898D02*
X25748D01*
D67*
X20906Y2126D02*
X21102Y2323D01*
X17402Y2126D02*
X20906D01*
X17283Y2008D02*
X17402Y2126D01*
X21102Y2323D02*
Y2520D01*
X22756Y3937D02*
X23189Y3504D01*
Y3307D02*
Y3504D01*
X22598Y3819D02*
X22992Y3425D01*
X23307Y4055D02*
X24055Y3307D01*
X17087Y4055D02*
X23307D01*
X18937Y4173D02*
X23583D01*
X24449Y3307D01*
X16378Y3465D02*
X21378D01*
X21535Y3307D01*
X21654Y3583D02*
X21929Y3307D01*
X21772Y3701D02*
X22165Y3307D01*
X16535Y3583D02*
X21654D01*
X16654Y3701D02*
X21772D01*
X15984Y3858D02*
X16378Y3465D01*
X16339Y3780D02*
X16535Y3583D01*
X16496Y3858D02*
X16654Y3701D01*
X16772Y3819D02*
X22598D01*
X16693Y3898D02*
X16772Y3819D01*
X16890Y3937D02*
X22756D01*
X16850Y3976D02*
X16890Y3937D01*
X17008Y4134D02*
X17087Y4055D01*
X18622Y4488D02*
X18937Y4173D01*
X13858Y2283D02*
X15669Y4094D01*
X12874Y2283D02*
X13858D01*
X12717Y2126D02*
X12874Y2283D01*
X12717Y1969D02*
Y2126D01*
X17520Y4488D02*
X18622D01*
X17165Y4843D02*
X17520Y4488D01*
X16496Y7677D02*
X17008Y7165D01*
Y4134D02*
Y7165D01*
X16457Y7520D02*
X16850Y7126D01*
Y3976D02*
Y7126D01*
X16575Y7205D02*
X16693Y7087D01*
Y3898D02*
Y7087D01*
X16457Y7047D02*
X16496Y7008D01*
Y3858D02*
Y7008D01*
X16181Y6890D02*
X16339Y6732D01*
Y3780D02*
Y6732D01*
X15984Y3858D02*
Y6535D01*
X17283Y1969D02*
Y2008D01*
X15079Y6890D02*
X16181D01*
X16457Y7677D02*
X16496D01*
X15669Y7520D02*
X16457D01*
X15512Y7677D02*
X15669Y7520D01*
X15197Y7677D02*
X15354Y7835D01*
X15039Y6929D02*
X15079Y6890D01*
X15039Y6929D02*
Y7205D01*
X14882Y7362D02*
X15039Y7205D01*
X14882Y7362D02*
Y7362D01*
X12441Y2953D02*
X14291D01*
X12283Y2795D02*
X12441Y2953D01*
X8819Y3740D02*
X12795D01*
X8110Y3031D02*
X8819Y3740D01*
X15669Y4094D02*
Y6260D01*
X15669D01*
X15827Y6417D01*
X14291Y2953D02*
X15354Y4016D01*
Y5945D01*
X15512Y6102D01*
X14252Y4528D02*
X14409Y4370D01*
Y3740D02*
Y4370D01*
X13150Y4961D02*
X13189Y5000D01*
X13740D01*
X13780Y5039D01*
Y5276D01*
X13819Y5315D01*
X14094D01*
X14252Y5472D01*
X13465Y5315D02*
X13622Y5472D01*
X12638Y3898D02*
X12835Y4094D01*
X8504Y3898D02*
X12638D01*
X12874Y5315D02*
X13465D01*
X12835Y5276D02*
X12874Y5315D01*
X12835Y4094D02*
Y5276D01*
X7559Y1772D02*
X7756Y1575D01*
X7559Y1772D02*
Y1969D01*
X7638Y2047D01*
Y2756D01*
X7441Y2953D02*
X7638Y2756D01*
X7441Y2953D02*
Y3071D01*
X8425Y4055D01*
X11890D02*
X12362Y4528D01*
X8425Y4055D02*
X11890D01*
X12795Y3740D02*
X13150Y4094D01*
Y4961D01*
X7874Y3268D02*
X8504Y3898D01*
X7874Y2717D02*
Y3268D01*
X14252Y5787D02*
Y5787D01*
Y5787D02*
X14409Y5630D01*
Y5039D02*
Y5630D01*
X14370Y5000D02*
X14409Y5039D01*
X14134Y5000D02*
X14370D01*
X14094Y4961D02*
X14134Y5000D01*
X14094Y4134D02*
Y4961D01*
X13543Y3583D02*
X14094Y4134D01*
X14882Y5472D02*
X15039Y5315D01*
X14567Y5472D02*
X14724Y5315D01*
X10000Y3583D02*
X13543D01*
X9528Y3110D02*
X10000Y3583D01*
X9528Y2992D02*
Y3110D01*
X9370Y2835D02*
X9528Y2992D01*
X9370Y1457D02*
Y2835D01*
X9173Y1260D02*
X9370Y1457D01*
X10000Y3071D02*
X10354Y3425D01*
X10276Y2835D02*
X10709Y3268D01*
X10276Y2520D02*
Y2835D01*
X9961Y2205D02*
X10276Y2520D01*
X9961Y1890D02*
Y2205D01*
X10138Y2067D02*
X11181Y3110D01*
X9646Y1575D02*
X9961Y1890D01*
X10138Y1516D02*
Y2067D01*
X9882Y1260D02*
X10138Y1516D01*
X9646Y1850D02*
X9724Y1929D01*
X10000Y2953D02*
Y3071D01*
X9724Y1929D02*
Y2677D01*
X10000Y2953D01*
X11181Y3110D02*
X14252D01*
X15039Y3898D01*
Y5315D01*
X10354Y3425D02*
X14094D01*
X14409Y3740D01*
X10709Y3268D02*
X14173D01*
X14724Y3819D01*
Y5315D01*
X13937Y7047D02*
X14094Y6890D01*
Y6614D02*
Y6890D01*
Y6614D02*
X14134Y6575D01*
X15945D01*
X15984Y6535D01*
X14724Y8150D02*
X14882Y8307D01*
X14724Y7559D02*
Y8150D01*
Y7559D02*
X14764Y7520D01*
X15315D01*
X15354Y7480D01*
Y7244D02*
Y7480D01*
Y7244D02*
X15394Y7205D01*
X16575D01*
X15354Y7835D02*
X16614D01*
X17165Y7283D01*
Y4843D02*
Y7283D01*
X12283Y1969D02*
Y2795D01*
%TF.MD5,e9dd9daa61f687575d23bc249fef4a0c*%
M02*
