G04 Layer_Color=65535*
%FSLAX24Y24*%
%MOIN*%
%TF.FileFunction,Legend,Top*%
%TF.Part,Single*%
G01*
G75*
%TA.AperFunction,NonConductor*%
%ADD53C,0.0100*%
%ADD85C,0.0118*%
%ADD86C,0.0236*%
%ADD87C,0.0098*%
%ADD88C,0.0039*%
%ADD89C,0.0079*%
%ADD90C,0.0040*%
%ADD91C,0.0030*%
%ADD145C,0.0010*%
%ADD146C,0.0020*%
%ADD147C,0.0050*%
G36*
X25651Y4447D02*
X25251D01*
Y4847D01*
X25651Y4447D01*
D02*
G37*
G36*
X9646Y10348D02*
Y10709D01*
X10006D01*
X9646Y10348D01*
D02*
G37*
G36*
X4528Y10688D02*
Y11063D01*
X4902D01*
X4528Y10688D01*
D02*
G37*
D53*
X-30400Y400D02*
X-30000D01*
X-30200D01*
Y-200D01*
X-29700D02*
X-29500D01*
X-29400Y-100D01*
Y100D01*
X-29500Y200D01*
X-29700D01*
X-29800Y100D01*
Y-100D01*
X-29700Y-200D01*
X-29200Y-400D02*
Y200D01*
X-28900D01*
X-28801Y100D01*
Y-100D01*
X-28900Y-200D01*
X-29200D01*
X-27701Y400D02*
X-27901D01*
X-28001Y300D01*
Y-100D01*
X-27901Y-200D01*
X-27701D01*
X-27601Y-100D01*
Y300D01*
X-27701Y400D01*
X-27401Y200D02*
X-27201Y-200D01*
X-27001Y200D01*
X-26501Y-200D02*
X-26701D01*
X-26801Y-100D01*
Y100D01*
X-26701Y200D01*
X-26501D01*
X-26401Y100D01*
Y-0D01*
X-26801D01*
X-26201Y200D02*
Y-200D01*
Y-0D01*
X-26101Y100D01*
X-26001Y200D01*
X-25901D01*
X-25602Y-200D02*
X-25402D01*
X-25502D01*
Y400D01*
X-25602D01*
X-25002Y200D02*
X-24802D01*
X-24702Y100D01*
Y-200D01*
X-25002D01*
X-25102Y-100D01*
X-25002Y-0D01*
X-24702D01*
X-24502Y200D02*
Y-100D01*
X-24402Y-200D01*
X-24102D01*
Y-300D01*
X-24202Y-400D01*
X-24302D01*
X-24102Y-200D02*
Y200D01*
X-23102Y-200D02*
X-23302Y-0D01*
Y200D01*
X-23102Y400D01*
X-22802D02*
X-22603D01*
X-22702D01*
Y-200D01*
X-22802D01*
X-22603D01*
X-22303D02*
Y200D01*
X-22003D01*
X-21903Y100D01*
Y-200D01*
X-21703D02*
Y400D01*
Y-0D02*
X-21403Y200D01*
X-21703Y-0D02*
X-21403Y-200D01*
X-21103D02*
X-20903Y-0D01*
Y200D01*
X-21103Y400D01*
D85*
X21673Y8346D02*
G03*
X21673Y8346I-20J0D01*
G01*
D86*
X25569Y4047D02*
G03*
X25569Y4047I-118J0D01*
G01*
D87*
X19419Y4173D02*
G03*
X19419Y4173I-49J0D01*
G01*
X20482Y9419D02*
G03*
X20482Y9419I-49J0D01*
G01*
X19439Y6794D02*
G03*
X19439Y6794I-49J0D01*
G01*
X4321Y11004D02*
G03*
X4321Y11004I-49J0D01*
G01*
X2592Y2278D02*
G03*
X2592Y2278I-49J0D01*
G01*
X22254Y3976D02*
G03*
X22254Y3976I-49J0D01*
G01*
X9439Y10650D02*
G03*
X9439Y10650I-49J0D01*
G01*
X1348Y9646D02*
G03*
X1348Y9646I-49J0D01*
G01*
D88*
X24123Y8666D02*
G03*
X24123Y8666I-20J0D01*
G01*
X17638Y1609D02*
Y1890D01*
X20512Y1609D02*
Y1890D01*
X15315Y1609D02*
Y1890D01*
X14370Y1609D02*
Y1890D01*
X11772Y1609D02*
Y1890D01*
X14134Y1609D02*
Y1890D01*
X9173Y1609D02*
Y1890D01*
X11535Y1614D02*
Y1890D01*
X8937Y1609D02*
Y1890D01*
X6575Y1609D02*
Y1890D01*
X50Y1609D02*
X32230D01*
X30433D02*
Y1890D01*
X31142Y1609D02*
Y1890D01*
X27598Y1609D02*
Y1890D01*
X29016Y1609D02*
Y1890D01*
X28307Y1609D02*
Y1890D01*
D89*
X23740Y10707D02*
Y11063D01*
Y8543D02*
Y8900D01*
X21614Y10707D02*
Y11063D01*
Y8543D02*
Y8900D01*
X23673Y11063D02*
X23740D01*
X21614D02*
X21681D01*
X23673Y8543D02*
X23740D01*
X21614D02*
X21681D01*
X23150Y11063D02*
X23209D01*
X22638D02*
X22697D01*
X22146D02*
X22205D01*
X22146Y8543D02*
X22205D01*
X22638D02*
X22697D01*
X23150D02*
X23209D01*
X23740Y8900D02*
Y10707D01*
X21614Y8900D02*
Y10707D01*
X19567Y9508D02*
X20266D01*
X19567Y10728D02*
X20276D01*
X20639Y6944D02*
Y7544D01*
X20239D02*
X20639D01*
X19439D02*
X19839D01*
X19439Y6944D02*
Y7544D01*
X19889Y6944D02*
X20189D01*
X4528Y10688D02*
X4902Y11063D01*
X4528Y5551D02*
Y11063D01*
X7677Y5551D02*
Y11063D01*
X4528D02*
X7677D01*
X4528Y5551D02*
X7677D01*
X27677Y11417D02*
X27913D01*
X25251Y4447D02*
Y9647D01*
X30851Y4447D02*
Y9647D01*
X25251Y4447D02*
X25651D01*
X30451D02*
X30851D01*
X25251Y9647D02*
X25651D01*
X30451D02*
X30851D01*
X2484Y4000D02*
Y4266D01*
X2750D01*
X4216Y4000D02*
Y4266D01*
X3950D02*
X4216D01*
Y2534D02*
Y2800D01*
X3950Y2534D02*
X4216D01*
X2484D02*
Y2800D01*
Y2534D02*
X2750D01*
X23839Y4232D02*
Y4478D01*
X23593Y4232D02*
X23839D01*
Y5679D02*
Y5925D01*
X23593D02*
X23839D01*
X22146D02*
X22392D01*
X22146Y5679D02*
Y5925D01*
Y4232D02*
Y4478D01*
Y4232D02*
X22392D01*
X9646Y10348D02*
X10006Y10709D01*
X9646Y4016D02*
Y10709D01*
X16339Y4016D02*
Y10709D01*
X9646D02*
X16339D01*
X9646Y4016D02*
X16339D01*
X22500Y7638D02*
X22618D01*
X22500Y6693D02*
X22618D01*
X2087Y10492D02*
Y10610D01*
X1142Y10492D02*
Y10610D01*
X20394Y4744D02*
Y4862D01*
X21339Y4744D02*
Y4862D01*
X3031Y9528D02*
Y9606D01*
X3740Y9528D02*
Y9606D01*
X17835Y5000D02*
Y5079D01*
X17126Y5000D02*
Y5079D01*
X21417Y11063D02*
Y11299D01*
X19843Y11063D02*
Y11299D01*
X6535Y3858D02*
X6772D01*
X7008D02*
X7244D01*
X29843Y11417D02*
X30079D01*
X28858D02*
X29094D01*
X30827D02*
X31063D01*
X8602Y10039D02*
X8720D01*
X8602Y10984D02*
X8720D01*
X17008Y6713D02*
Y6831D01*
X17953Y6713D02*
Y6831D01*
X19213Y6083D02*
Y6201D01*
X18268Y6083D02*
Y6201D01*
X17933Y8622D02*
X18051D01*
X17933Y7677D02*
X18051D01*
X26693Y11417D02*
X26929D01*
D90*
X20197Y3898D02*
Y4016D01*
X20079D02*
X20197D01*
X19921Y3740D02*
X20197Y4016D01*
X19921Y3740D02*
Y3740D01*
X21339Y7756D02*
X21457D01*
Y7874D01*
X21063Y8150D02*
X21457Y7756D01*
X21024Y8150D02*
X21063D01*
X18858D02*
X18937Y8071D01*
X18858Y8150D02*
X18937Y8228D01*
X19213Y8150D02*
X19488Y8425D01*
X18858Y8150D02*
X19213D01*
X20197Y5551D02*
X20315D01*
X20197D02*
Y5669D01*
Y5551D02*
X20394Y5748D01*
X20512D01*
X827Y9213D02*
X866Y9252D01*
X827Y9213D02*
Y9291D01*
X866Y9252D01*
X787D02*
X866D01*
X31595Y5300D02*
X31728D01*
X31661D01*
X31628Y5333D01*
X31595Y5367D01*
Y5400D01*
X31728Y5600D02*
Y5533D01*
X31695Y5500D01*
X31628D01*
X31595Y5533D01*
Y5600D01*
X31628Y5633D01*
X31661D01*
Y5500D01*
X31595Y5700D02*
X31728Y5767D01*
X31595Y5833D01*
X31728Y5900D02*
X31595D01*
X31528Y5966D01*
X31595Y6033D01*
X31728D01*
X31628D01*
Y5900D01*
X32064Y4750D02*
Y4617D01*
X31931Y4750D01*
X31897D01*
X31864Y4717D01*
Y4650D01*
X31897Y4617D01*
X32064Y4917D02*
X31864D01*
X31964Y4817D01*
Y4950D01*
X32064Y5017D02*
X31931Y5150D01*
X31864Y5350D02*
Y5217D01*
X31964D01*
Y5283D01*
Y5217D01*
X32064D01*
Y5517D02*
Y5450D01*
X32031Y5417D01*
X31964D01*
X31931Y5450D01*
Y5517D01*
X31964Y5550D01*
X31997D01*
Y5417D01*
X31864Y5617D02*
X32064D01*
Y5717D01*
X32031Y5750D01*
X31997D01*
X31964D01*
X31931Y5717D01*
Y5617D01*
X32064Y5817D02*
X31931Y5950D01*
X32064Y6150D02*
Y6016D01*
X31931Y6150D01*
X31897D01*
X31864Y6116D01*
Y6050D01*
X31897Y6016D01*
Y6216D02*
X31864Y6250D01*
Y6316D01*
X31897Y6350D01*
X32031D01*
X32064Y6316D01*
Y6250D01*
X32031Y6216D01*
X31897D01*
X32064Y6416D02*
Y6483D01*
Y6450D01*
X31864D01*
X31897Y6416D01*
X31864Y6583D02*
Y6716D01*
X31897D01*
X32031Y6583D01*
X32064D01*
X19173Y3733D02*
X19203Y3763D01*
X19263D01*
X19293Y3733D01*
Y3703D01*
X19263Y3673D01*
X19233D01*
X19263D01*
X19293Y3643D01*
Y3613D01*
X19263Y3583D01*
X19203D01*
X19173Y3613D01*
X19353Y3583D02*
Y3613D01*
X19383D01*
Y3583D01*
X19353D01*
X19503Y3733D02*
X19533Y3763D01*
X19593D01*
X19623Y3733D01*
Y3703D01*
X19593Y3673D01*
X19563D01*
X19593D01*
X19623Y3643D01*
Y3613D01*
X19593Y3583D01*
X19533D01*
X19503Y3613D01*
X19683Y3763D02*
Y3643D01*
X19743Y3583D01*
X19803Y3643D01*
Y3763D01*
X20315Y8071D02*
X20375D01*
X20345D01*
Y8251D01*
X20315Y8221D01*
X20465Y8071D02*
Y8101D01*
X20495D01*
Y8071D01*
X20465D01*
X20615Y8221D02*
X20645Y8251D01*
X20705D01*
X20735Y8221D01*
Y8191D01*
X20705Y8161D01*
X20735Y8131D01*
Y8101D01*
X20705Y8071D01*
X20645D01*
X20615Y8101D01*
Y8131D01*
X20645Y8161D01*
X20615Y8191D01*
Y8221D01*
X20645Y8161D02*
X20705D01*
X20795Y8251D02*
Y8131D01*
X20855Y8071D01*
X20915Y8131D01*
Y8251D01*
X19331Y8693D02*
X19361Y8723D01*
X19421D01*
X19451Y8693D01*
Y8663D01*
X19421Y8633D01*
X19391D01*
X19421D01*
X19451Y8603D01*
Y8573D01*
X19421Y8543D01*
X19361D01*
X19331Y8573D01*
X19511Y8543D02*
Y8573D01*
X19541D01*
Y8543D01*
X19511D01*
X19661Y8693D02*
X19691Y8723D01*
X19751D01*
X19781Y8693D01*
Y8663D01*
X19751Y8633D01*
X19721D01*
X19751D01*
X19781Y8603D01*
Y8573D01*
X19751Y8543D01*
X19691D01*
X19661Y8573D01*
X19841Y8723D02*
Y8603D01*
X19901Y8543D01*
X19961Y8603D01*
Y8723D01*
X20260Y8543D02*
X20200Y8603D01*
Y8663D01*
X20260Y8723D01*
X20350D02*
X20410D01*
X20380D01*
Y8543D01*
X20350D01*
X20410D01*
X20590Y8723D02*
X20530D01*
X20500Y8693D01*
Y8573D01*
X20530Y8543D01*
X20590D01*
X20620Y8573D01*
Y8693D01*
X20590Y8723D01*
X20680Y8543D02*
X20740Y8603D01*
Y8663D01*
X20680Y8723D01*
X20630Y5669D02*
X20690D01*
X20660D01*
Y5849D01*
X20630Y5819D01*
X20780Y5669D02*
Y5699D01*
X20810D01*
Y5669D01*
X20780D01*
X20930Y5819D02*
X20960Y5849D01*
X21020D01*
X21050Y5819D01*
Y5699D01*
X21020Y5669D01*
X20960D01*
X20930Y5699D01*
Y5819D01*
X21110Y5849D02*
Y5729D01*
X21170Y5669D01*
X21230Y5729D01*
Y5849D01*
X709Y8780D02*
X529D01*
Y8870D01*
X559Y8899D01*
X619D01*
X649Y8870D01*
Y8780D01*
X559Y9079D02*
X529Y9049D01*
Y8989D01*
X559Y8959D01*
X679D01*
X709Y8989D01*
Y9049D01*
X679Y9079D01*
X619D01*
Y9019D01*
X709Y9139D02*
Y9199D01*
Y9169D01*
X529D01*
X559Y9139D01*
X709Y9289D02*
X679D01*
Y9319D01*
X709D01*
Y9289D01*
X529Y9559D02*
Y9439D01*
X619D01*
X589Y9499D01*
Y9529D01*
X619Y9559D01*
X679D01*
X709Y9529D01*
Y9469D01*
X679Y9439D01*
X529Y9619D02*
X649D01*
X709Y9679D01*
X649Y9739D01*
X529D01*
X22992Y11496D02*
Y11676D01*
X23082D01*
X23112Y11646D01*
Y11586D01*
X23082Y11556D01*
X22992D01*
X23292Y11646D02*
X23262Y11676D01*
X23202D01*
X23172Y11646D01*
Y11526D01*
X23202Y11496D01*
X23262D01*
X23292Y11526D01*
Y11586D01*
X23232D01*
X23352Y11496D02*
X23412D01*
X23382D01*
Y11676D01*
X23352Y11646D01*
X23502Y11496D02*
Y11526D01*
X23532D01*
Y11496D01*
X23502D01*
X23652Y11646D02*
X23682Y11676D01*
X23742D01*
X23772Y11646D01*
Y11616D01*
X23742Y11586D01*
X23772Y11556D01*
Y11526D01*
X23742Y11496D01*
X23682D01*
X23652Y11526D01*
Y11556D01*
X23682Y11586D01*
X23652Y11616D01*
Y11646D01*
X23682Y11586D02*
X23742D01*
X23832Y11676D02*
Y11556D01*
X23892Y11496D01*
X23952Y11556D01*
Y11676D01*
X20000Y3231D02*
Y3065D01*
X20033Y3031D01*
X20100D01*
X20133Y3065D01*
Y3231D01*
X20200Y3031D02*
Y3165D01*
X20300D01*
X20333Y3131D01*
Y3031D01*
X20400D02*
X20467D01*
X20433D01*
Y3165D01*
X20400D01*
X20566D02*
X20633Y3031D01*
X20700Y3165D01*
X20866Y3031D02*
X20800D01*
X20766Y3065D01*
Y3131D01*
X20800Y3165D01*
X20866D01*
X20900Y3131D01*
Y3098D01*
X20766D01*
X20966Y3165D02*
Y3031D01*
Y3098D01*
X21000Y3131D01*
X21033Y3165D01*
X21066D01*
X21166Y3031D02*
X21266D01*
X21300Y3065D01*
X21266Y3098D01*
X21200D01*
X21166Y3131D01*
X21200Y3165D01*
X21300D01*
X21366Y3031D02*
X21433D01*
X21400D01*
Y3165D01*
X21366D01*
X21566Y3198D02*
Y3165D01*
X21533D01*
X21599D01*
X21566D01*
Y3065D01*
X21599Y3031D01*
X21699Y3165D02*
Y3065D01*
X21733Y3031D01*
X21833D01*
Y2998D01*
X21799Y2965D01*
X21766D01*
X21833Y3031D02*
Y3165D01*
X22133Y3031D02*
X22199D01*
X22233Y3065D01*
Y3131D01*
X22199Y3165D01*
X22133D01*
X22099Y3131D01*
Y3065D01*
X22133Y3031D01*
X22333D02*
Y3198D01*
Y3131D01*
X22299D01*
X22366D01*
X22333D01*
Y3198D01*
X22366Y3231D01*
X22666D02*
Y3031D01*
X22732Y3098D01*
X22799Y3031D01*
Y3231D01*
X22866Y3031D02*
X22932D01*
X22899D01*
Y3165D01*
X22866D01*
X23032Y3031D02*
X23132D01*
X23166Y3065D01*
X23132Y3098D01*
X23066D01*
X23032Y3131D01*
X23066Y3165D01*
X23166D01*
X23366D02*
X23266D01*
X23232Y3131D01*
Y3065D01*
X23266Y3031D01*
X23366D01*
X23466D02*
X23532D01*
X23566Y3065D01*
Y3131D01*
X23532Y3165D01*
X23466D01*
X23432Y3131D01*
Y3065D01*
X23466Y3031D01*
X23632D02*
Y3165D01*
X23732D01*
X23765Y3131D01*
Y3031D01*
X23832D02*
X23932D01*
X23965Y3065D01*
X23932Y3098D01*
X23865D01*
X23832Y3131D01*
X23865Y3165D01*
X23965D01*
X24032Y3031D02*
X24099D01*
X24065D01*
Y3165D01*
X24032D01*
X24199Y3031D02*
Y3165D01*
X24299D01*
X24332Y3131D01*
Y3031D01*
X24399Y3131D02*
X24532D01*
X24599Y3031D02*
Y3231D01*
X24665Y3165D01*
X24732Y3231D01*
Y3031D01*
X24832Y3165D02*
X24898D01*
X24932Y3131D01*
Y3031D01*
X24832D01*
X24798Y3065D01*
X24832Y3098D01*
X24932D01*
X25132Y3231D02*
Y3031D01*
X25032D01*
X24998Y3065D01*
Y3131D01*
X25032Y3165D01*
X25132D01*
X25198Y3031D02*
X25265D01*
X25232D01*
Y3165D01*
X25198D01*
X25365Y3031D02*
X25465D01*
X25498Y3065D01*
X25465Y3098D01*
X25398D01*
X25365Y3131D01*
X25398Y3165D01*
X25498D01*
X25598Y3031D02*
X25665D01*
X25698Y3065D01*
Y3131D01*
X25665Y3165D01*
X25598D01*
X25565Y3131D01*
Y3065D01*
X25598Y3031D01*
X25765D02*
Y3165D01*
X25865D01*
X25898Y3131D01*
Y3031D01*
D91*
X24528Y8821D02*
Y8688D01*
X24554Y8661D01*
X24608D01*
X24634Y8688D01*
Y8821D01*
X24688Y8688D02*
X24714Y8661D01*
X24767D01*
X24794Y8688D01*
Y8795D01*
X24767Y8821D01*
X24714D01*
X24688Y8795D01*
Y8768D01*
X24714Y8741D01*
X24794D01*
X18189Y4097D02*
Y3964D01*
X18216Y3937D01*
X18269D01*
X18296Y3964D01*
Y4097D01*
X18456D02*
X18349D01*
Y4017D01*
X18402Y4044D01*
X18429D01*
X18456Y4017D01*
Y3964D01*
X18429Y3937D01*
X18376D01*
X18349Y3964D01*
X23858Y11026D02*
Y10893D01*
X23885Y10866D01*
X23938D01*
X23965Y10893D01*
Y11026D01*
X24018D02*
X24125D01*
Y10999D01*
X24018Y10893D01*
Y10866D01*
X19764Y9412D02*
Y9279D01*
X19790Y9252D01*
X19844D01*
X19870Y9279D01*
Y9412D01*
X20030D02*
X19977Y9385D01*
X19924Y9332D01*
Y9279D01*
X19950Y9252D01*
X20004D01*
X20030Y9279D01*
Y9305D01*
X20004Y9332D01*
X19924D01*
X19674Y7704D02*
Y7810D01*
X19647Y7837D01*
X19594D01*
X19567Y7810D01*
Y7704D01*
X19594Y7677D01*
X19647D01*
X19620Y7730D02*
X19674Y7677D01*
X19647D02*
X19674Y7704D01*
X19727Y7677D02*
X19780D01*
X19754D01*
Y7837D01*
X19727Y7810D01*
X16614Y8858D02*
Y9018D01*
X16694D01*
X16721Y8992D01*
Y8938D01*
X16694Y8912D01*
X16614D01*
X16667D02*
X16721Y8858D01*
X16881D02*
X16774D01*
X16881Y8965D01*
Y8992D01*
X16854Y9018D01*
X16801D01*
X16774Y8992D01*
X16934Y8885D02*
X16961Y8858D01*
X17014D01*
X17041Y8885D01*
Y8992D01*
X17014Y9018D01*
X16961D01*
X16934Y8992D01*
Y8965D01*
X16961Y8938D01*
X17041D01*
X4567Y11341D02*
Y11208D01*
X4594Y11181D01*
X4647D01*
X4674Y11208D01*
Y11341D01*
X4727Y11314D02*
X4754Y11341D01*
X4807D01*
X4834Y11314D01*
Y11288D01*
X4807Y11261D01*
X4780D01*
X4807D01*
X4834Y11234D01*
Y11208D01*
X4807Y11181D01*
X4754D01*
X4727Y11208D01*
X27677Y11695D02*
Y11535D01*
X27757D01*
X27784Y11562D01*
Y11669D01*
X27757Y11695D01*
X27677D01*
X27944D02*
X27890Y11669D01*
X27837Y11615D01*
Y11562D01*
X27864Y11535D01*
X27917D01*
X27944Y11562D01*
Y11589D01*
X27917Y11615D01*
X27837D01*
X11732Y11026D02*
Y10866D01*
X11839D01*
X11892Y10999D02*
X11919Y11026D01*
X11972D01*
X11999Y10999D01*
Y10973D01*
X11972Y10946D01*
X11946D01*
X11972D01*
X11999Y10919D01*
Y10893D01*
X11972Y10866D01*
X11919D01*
X11892Y10893D01*
X30472Y4333D02*
Y4200D01*
X30499Y4173D01*
X30552D01*
X30579Y4200D01*
Y4333D01*
X30632Y4173D02*
X30686D01*
X30659D01*
Y4333D01*
X30632Y4307D01*
X30766D02*
X30792Y4333D01*
X30846D01*
X30872Y4307D01*
Y4200D01*
X30846Y4173D01*
X30792D01*
X30766Y4200D01*
Y4307D01*
X2202Y4016D02*
X2336D01*
X2362Y4042D01*
Y4096D01*
X2336Y4122D01*
X2202D01*
X2362Y4282D02*
Y4176D01*
X2256Y4282D01*
X2229D01*
X2202Y4256D01*
Y4202D01*
X2229Y4176D01*
X22126Y6184D02*
Y6050D01*
X22153Y6024D01*
X22206D01*
X22233Y6050D01*
Y6184D01*
X22286Y6157D02*
X22313Y6184D01*
X22366D01*
X22393Y6157D01*
Y6130D01*
X22366Y6104D01*
X22393Y6077D01*
Y6050D01*
X22366Y6024D01*
X22313D01*
X22286Y6050D01*
Y6077D01*
X22313Y6104D01*
X22286Y6130D01*
Y6157D01*
X22313Y6104D02*
X22366D01*
X9646Y10987D02*
Y10853D01*
X9672Y10827D01*
X9726D01*
X9752Y10853D01*
Y10987D01*
X9886Y10827D02*
Y10987D01*
X9806Y10907D01*
X9912D01*
X21918Y6511D02*
X21891Y6538D01*
X21838D01*
X21811Y6511D01*
Y6405D01*
X21838Y6378D01*
X21891D01*
X21918Y6405D01*
X22078Y6378D02*
X21971D01*
X22078Y6485D01*
Y6511D01*
X22051Y6538D01*
X21998D01*
X21971Y6511D01*
X22131D02*
X22158Y6538D01*
X22211D01*
X22238Y6511D01*
Y6485D01*
X22211Y6458D01*
X22238Y6431D01*
Y6405D01*
X22211Y6378D01*
X22158D01*
X22131Y6405D01*
Y6431D01*
X22158Y6458D01*
X22131Y6485D01*
Y6511D01*
X22158Y6458D02*
X22211D01*
X2587Y11472D02*
X2560Y11499D01*
X2507D01*
X2480Y11472D01*
Y11365D01*
X2507Y11339D01*
X2560D01*
X2587Y11365D01*
X2747Y11499D02*
X2694Y11472D01*
X2640Y11419D01*
Y11365D01*
X2667Y11339D01*
X2720D01*
X2747Y11365D01*
Y11392D01*
X2720Y11419D01*
X2640D01*
X11681Y11629D02*
X11655Y11656D01*
X11601D01*
X11575Y11629D01*
Y11523D01*
X11601Y11496D01*
X11655D01*
X11681Y11523D01*
X11735Y11496D02*
X11788D01*
X11761D01*
Y11656D01*
X11735Y11629D01*
X11975Y11496D02*
X11868D01*
X11975Y11603D01*
Y11629D01*
X11948Y11656D01*
X11895D01*
X11868Y11629D01*
X1170Y11551D02*
X1143Y11577D01*
X1090D01*
X1063Y11551D01*
Y11444D01*
X1090Y11417D01*
X1143D01*
X1170Y11444D01*
X1223Y11417D02*
X1276D01*
X1250D01*
Y11577D01*
X1223Y11551D01*
X28213Y10382D02*
X28187Y10356D01*
Y10302D01*
X28213Y10276D01*
X28320D01*
X28346Y10302D01*
Y10356D01*
X28320Y10382D01*
X28346Y10516D02*
X28187D01*
X28266Y10436D01*
Y10542D01*
X28346Y10595D02*
Y10649D01*
Y10622D01*
X28187D01*
X28213Y10595D01*
X21520Y4201D02*
X21494Y4174D01*
Y4121D01*
X21520Y4094D01*
X21627D01*
X21654Y4121D01*
Y4174D01*
X21627Y4201D01*
X21654Y4361D02*
Y4254D01*
X21547Y4361D01*
X21520D01*
X21494Y4334D01*
Y4281D01*
X21520Y4254D01*
X21494Y4521D02*
X21520Y4468D01*
X21574Y4414D01*
X21627D01*
X21654Y4441D01*
Y4494D01*
X21627Y4521D01*
X21600D01*
X21574Y4494D01*
Y4414D01*
X24646Y9803D02*
Y9963D01*
X24726D01*
X24752Y9936D01*
Y9883D01*
X24726Y9856D01*
X24646D01*
X24699D02*
X24752Y9803D01*
X24912Y9963D02*
X24859Y9936D01*
X24806Y9883D01*
Y9830D01*
X24832Y9803D01*
X24886D01*
X24912Y9830D01*
Y9856D01*
X24886Y9883D01*
X24806D01*
X24966Y9936D02*
X24992Y9963D01*
X25046D01*
X25072Y9936D01*
Y9830D01*
X25046Y9803D01*
X24992D01*
X24966Y9830D01*
Y9936D01*
X17701Y10303D02*
X17675Y10277D01*
Y10224D01*
X17701Y10197D01*
X17808D01*
X17835Y10224D01*
Y10277D01*
X17808Y10303D01*
X17835Y10357D02*
Y10410D01*
Y10383D01*
X17675D01*
X17701Y10357D01*
X17808Y10490D02*
X17835Y10517D01*
Y10570D01*
X17808Y10597D01*
X17701D01*
X17675Y10570D01*
Y10517D01*
X17701Y10490D01*
X17728D01*
X17755Y10517D01*
Y10597D01*
X25512Y8307D02*
X25352D01*
Y8387D01*
X25379Y8414D01*
X25432D01*
X25458Y8387D01*
Y8307D01*
Y8360D02*
X25512Y8414D01*
X25352Y8574D02*
X25379Y8520D01*
X25432Y8467D01*
X25485D01*
X25512Y8494D01*
Y8547D01*
X25485Y8574D01*
X25458D01*
X25432Y8547D01*
Y8467D01*
X25512Y8734D02*
Y8627D01*
X25405Y8734D01*
X25379D01*
X25352Y8707D01*
Y8654D01*
X25379Y8627D01*
X23701Y7756D02*
X23541D01*
Y7836D01*
X23568Y7863D01*
X23621D01*
X23647Y7836D01*
Y7756D01*
Y7809D02*
X23701Y7863D01*
X23541Y8022D02*
Y7916D01*
X23621D01*
X23594Y7969D01*
Y7996D01*
X23621Y8022D01*
X23674D01*
X23701Y7996D01*
Y7943D01*
X23674Y7916D01*
X23701Y8182D02*
Y8076D01*
X23594Y8182D01*
X23568D01*
X23541Y8156D01*
Y8102D01*
X23568Y8076D01*
X24016Y9055D02*
X23856D01*
Y9135D01*
X23882Y9162D01*
X23936D01*
X23962Y9135D01*
Y9055D01*
Y9108D02*
X24016Y9162D01*
X23856Y9322D02*
Y9215D01*
X23936D01*
X23909Y9268D01*
Y9295D01*
X23936Y9322D01*
X23989D01*
X24016Y9295D01*
Y9242D01*
X23989Y9215D01*
X23882Y9375D02*
X23856Y9402D01*
Y9455D01*
X23882Y9482D01*
X23909D01*
X23936Y9455D01*
Y9428D01*
Y9455D01*
X23962Y9482D01*
X23989D01*
X24016Y9455D01*
Y9402D01*
X23989Y9375D01*
X1693Y9806D02*
Y9672D01*
X1720Y9646D01*
X1773D01*
X1800Y9672D01*
Y9806D01*
X1853Y9646D02*
X1906D01*
X1880D01*
Y9806D01*
X1853Y9779D01*
X19843Y11535D02*
Y11695D01*
X19922D01*
X19949Y11669D01*
Y11615D01*
X19922Y11589D01*
X19843D01*
X19896D02*
X19949Y11535D01*
X20002Y11669D02*
X20029Y11695D01*
X20082D01*
X20109Y11669D01*
Y11642D01*
X20082Y11615D01*
X20056D01*
X20082D01*
X20109Y11589D01*
Y11562D01*
X20082Y11535D01*
X20029D01*
X20002Y11562D01*
X20162Y11669D02*
X20189Y11695D01*
X20242D01*
X20269Y11669D01*
Y11642D01*
X20242Y11615D01*
X20216D01*
X20242D01*
X20269Y11589D01*
Y11562D01*
X20242Y11535D01*
X20189D01*
X20162Y11562D01*
X18228Y10906D02*
X18068D01*
Y10985D01*
X18095Y11012D01*
X18148D01*
X18175Y10985D01*
Y10906D01*
Y10959D02*
X18228Y11012D01*
X18095Y11065D02*
X18068Y11092D01*
Y11145D01*
X18095Y11172D01*
X18122D01*
X18148Y11145D01*
Y11119D01*
Y11145D01*
X18175Y11172D01*
X18202D01*
X18228Y11145D01*
Y11092D01*
X18202Y11065D01*
X18095Y11225D02*
X18068Y11252D01*
Y11305D01*
X18095Y11332D01*
X18202D01*
X18228Y11305D01*
Y11252D01*
X18202Y11225D01*
X18095D01*
X30512Y1969D02*
Y2128D01*
X30592D01*
X30618Y2102D01*
Y2048D01*
X30592Y2022D01*
X30512D01*
X30565D02*
X30618Y1969D01*
X30672Y2102D02*
X30698Y2128D01*
X30752D01*
X30778Y2102D01*
Y2075D01*
X30752Y2048D01*
X30778Y2022D01*
Y1995D01*
X30752Y1969D01*
X30698D01*
X30672Y1995D01*
Y2022D01*
X30698Y2048D01*
X30672Y2075D01*
Y2102D01*
X30698Y2048D02*
X30752D01*
X30832Y2102D02*
X30858Y2128D01*
X30912D01*
X30938Y2102D01*
Y2075D01*
X30912Y2048D01*
X30885D01*
X30912D01*
X30938Y2022D01*
Y1995D01*
X30912Y1969D01*
X30858D01*
X30832Y1995D01*
X30354Y2244D02*
Y2404D01*
X30434D01*
X30461Y2377D01*
Y2324D01*
X30434Y2297D01*
X30354D01*
X30408D02*
X30461Y2244D01*
X30514Y2377D02*
X30541Y2404D01*
X30594D01*
X30621Y2377D01*
Y2351D01*
X30594Y2324D01*
X30621Y2297D01*
Y2271D01*
X30594Y2244D01*
X30541D01*
X30514Y2271D01*
Y2297D01*
X30541Y2324D01*
X30514Y2351D01*
Y2377D01*
X30541Y2324D02*
X30594D01*
X30674Y2377D02*
X30701Y2404D01*
X30754D01*
X30781Y2377D01*
Y2271D01*
X30754Y2244D01*
X30701D01*
X30674Y2271D01*
Y2377D01*
X29134Y2244D02*
X28974D01*
Y2324D01*
X29001Y2351D01*
X29054D01*
X29081Y2324D01*
Y2244D01*
Y2297D02*
X29134Y2351D01*
X28974Y2404D02*
Y2511D01*
X29001D01*
X29107Y2404D01*
X29134D01*
X28974Y2564D02*
Y2671D01*
X29001D01*
X29107Y2564D01*
X29134D01*
X29724Y1693D02*
X29564D01*
Y1773D01*
X29591Y1800D01*
X29644D01*
X29671Y1773D01*
Y1693D01*
Y1746D02*
X29724Y1800D01*
X29564Y1853D02*
Y1959D01*
X29591D01*
X29698Y1853D01*
X29724D01*
X29564Y2119D02*
X29591Y2066D01*
X29644Y2013D01*
X29698D01*
X29724Y2039D01*
Y2093D01*
X29698Y2119D01*
X29671D01*
X29644Y2093D01*
Y2013D01*
X30354Y2520D02*
Y2680D01*
X30434D01*
X30461Y2653D01*
Y2600D01*
X30434Y2573D01*
X30354D01*
X30408D02*
X30461Y2520D01*
X30514Y2653D02*
X30541Y2680D01*
X30594D01*
X30621Y2653D01*
Y2626D01*
X30594Y2600D01*
X30621Y2573D01*
Y2546D01*
X30594Y2520D01*
X30541D01*
X30514Y2546D01*
Y2573D01*
X30541Y2600D01*
X30514Y2626D01*
Y2653D01*
X30541Y2600D02*
X30594D01*
X30674Y2520D02*
X30728D01*
X30701D01*
Y2680D01*
X30674Y2653D01*
X29252Y2795D02*
Y2955D01*
X29332D01*
X29359Y2929D01*
Y2875D01*
X29332Y2849D01*
X29252D01*
X29305D02*
X29359Y2795D01*
X29412Y2955D02*
X29519D01*
Y2929D01*
X29412Y2822D01*
Y2795D01*
X29572Y2929D02*
X29599Y2955D01*
X29652D01*
X29678Y2929D01*
Y2902D01*
X29652Y2875D01*
X29678Y2849D01*
Y2822D01*
X29652Y2795D01*
X29599D01*
X29572Y2822D01*
Y2849D01*
X29599Y2875D01*
X29572Y2902D01*
Y2929D01*
X29599Y2875D02*
X29652D01*
X30866Y3465D02*
X30706D01*
Y3545D01*
X30733Y3571D01*
X30786D01*
X30813Y3545D01*
Y3465D01*
Y3518D02*
X30866Y3571D01*
X30733Y3625D02*
X30706Y3651D01*
Y3704D01*
X30733Y3731D01*
X30760D01*
X30786Y3704D01*
X30813Y3731D01*
X30839D01*
X30866Y3704D01*
Y3651D01*
X30839Y3625D01*
X30813D01*
X30786Y3651D01*
X30760Y3625D01*
X30733D01*
X30786Y3651D02*
Y3704D01*
X30706Y3891D02*
X30733Y3838D01*
X30786Y3784D01*
X30839D01*
X30866Y3811D01*
Y3864D01*
X30839Y3891D01*
X30813D01*
X30786Y3864D01*
Y3784D01*
X30394Y3465D02*
X30234D01*
Y3545D01*
X30260Y3571D01*
X30314D01*
X30340Y3545D01*
Y3465D01*
Y3518D02*
X30394Y3571D01*
X30260Y3625D02*
X30234Y3651D01*
Y3704D01*
X30260Y3731D01*
X30287D01*
X30314Y3704D01*
X30340Y3731D01*
X30367D01*
X30394Y3704D01*
Y3651D01*
X30367Y3625D01*
X30340D01*
X30314Y3651D01*
X30287Y3625D01*
X30260D01*
X30314Y3651D02*
Y3704D01*
X30394Y3864D02*
X30234D01*
X30314Y3784D01*
Y3891D01*
X21811Y11220D02*
X21651D01*
Y11300D01*
X21678Y11327D01*
X21731D01*
X21758Y11300D01*
Y11220D01*
Y11274D02*
X21811Y11327D01*
Y11460D02*
X21651D01*
X21731Y11380D01*
Y11487D01*
X21811Y11647D02*
Y11540D01*
X21704Y11647D01*
X21678D01*
X21651Y11620D01*
Y11567D01*
X21678Y11540D01*
X23031Y7953D02*
Y8113D01*
X23111D01*
X23138Y8086D01*
Y8033D01*
X23111Y8006D01*
X23031D01*
X23085D02*
X23138Y7953D01*
X23271D02*
Y8113D01*
X23191Y8033D01*
X23298D01*
X23351Y8113D02*
X23458D01*
Y8086D01*
X23351Y7979D01*
Y7953D01*
X13346Y11417D02*
Y11577D01*
X13426D01*
X13453Y11551D01*
Y11497D01*
X13426Y11471D01*
X13346D01*
X13400D02*
X13453Y11417D01*
X13613D02*
X13506D01*
X13613Y11524D01*
Y11551D01*
X13586Y11577D01*
X13533D01*
X13506Y11551D01*
X13666D02*
X13693Y11577D01*
X13746D01*
X13773Y11551D01*
Y11524D01*
X13746Y11497D01*
X13720D01*
X13746D01*
X13773Y11471D01*
Y11444D01*
X13746Y11417D01*
X13693D01*
X13666Y11444D01*
X25157Y2598D02*
Y2758D01*
X25237D01*
X25264Y2732D01*
Y2678D01*
X25237Y2652D01*
X25157D01*
X25211D02*
X25264Y2598D01*
X25424Y2758D02*
X25371Y2732D01*
X25317Y2678D01*
Y2625D01*
X25344Y2598D01*
X25397D01*
X25424Y2625D01*
Y2652D01*
X25397Y2678D01*
X25317D01*
X25557Y2598D02*
Y2758D01*
X25477Y2678D01*
X25584D01*
X24843Y2362D02*
Y2522D01*
X24922D01*
X24949Y2495D01*
Y2442D01*
X24922Y2416D01*
X24843D01*
X24896D02*
X24949Y2362D01*
X25109Y2522D02*
X25056Y2495D01*
X25002Y2442D01*
Y2389D01*
X25029Y2362D01*
X25082D01*
X25109Y2389D01*
Y2416D01*
X25082Y2442D01*
X25002D01*
X25162Y2495D02*
X25189Y2522D01*
X25242D01*
X25269Y2495D01*
Y2469D01*
X25242Y2442D01*
X25216D01*
X25242D01*
X25269Y2416D01*
Y2389D01*
X25242Y2362D01*
X25189D01*
X25162Y2389D01*
X24528Y2598D02*
Y2758D01*
X24608D01*
X24634Y2732D01*
Y2678D01*
X24608Y2652D01*
X24528D01*
X24581D02*
X24634Y2598D01*
X24794Y2758D02*
X24688D01*
Y2678D01*
X24741Y2705D01*
X24767D01*
X24794Y2678D01*
Y2625D01*
X24767Y2598D01*
X24714D01*
X24688Y2625D01*
X24847D02*
X24874Y2598D01*
X24927D01*
X24954Y2625D01*
Y2732D01*
X24927Y2758D01*
X24874D01*
X24847Y2732D01*
Y2705D01*
X24874Y2678D01*
X24954D01*
X24213Y2362D02*
Y2522D01*
X24293D01*
X24319Y2495D01*
Y2442D01*
X24293Y2416D01*
X24213D01*
X24266D02*
X24319Y2362D01*
X24479Y2522D02*
X24373D01*
Y2442D01*
X24426Y2469D01*
X24453D01*
X24479Y2442D01*
Y2389D01*
X24453Y2362D01*
X24399D01*
X24373Y2389D01*
X24532Y2495D02*
X24559Y2522D01*
X24612D01*
X24639Y2495D01*
Y2469D01*
X24612Y2442D01*
X24639Y2416D01*
Y2389D01*
X24612Y2362D01*
X24559D01*
X24532Y2389D01*
Y2416D01*
X24559Y2442D01*
X24532Y2469D01*
Y2495D01*
X24559Y2442D02*
X24612D01*
X23898Y2598D02*
Y2758D01*
X23978D01*
X24004Y2732D01*
Y2678D01*
X23978Y2652D01*
X23898D01*
X23951D02*
X24004Y2598D01*
X24164Y2758D02*
X24058D01*
Y2678D01*
X24111Y2705D01*
X24138D01*
X24164Y2678D01*
Y2625D01*
X24138Y2598D01*
X24084D01*
X24058Y2625D01*
X24298Y2598D02*
Y2758D01*
X24218Y2678D01*
X24324D01*
X23583Y2362D02*
Y2522D01*
X23663D01*
X23689Y2495D01*
Y2442D01*
X23663Y2416D01*
X23583D01*
X23636D02*
X23689Y2362D01*
X23849Y2522D02*
X23743D01*
Y2442D01*
X23796Y2469D01*
X23823D01*
X23849Y2442D01*
Y2389D01*
X23823Y2362D01*
X23769D01*
X23743Y2389D01*
X23903Y2362D02*
X23956D01*
X23929D01*
Y2522D01*
X23903Y2495D01*
X23268Y2598D02*
Y2758D01*
X23348D01*
X23374Y2732D01*
Y2678D01*
X23348Y2652D01*
X23268D01*
X23321D02*
X23374Y2598D01*
X23534Y2758D02*
X23428D01*
Y2678D01*
X23481Y2705D01*
X23508D01*
X23534Y2678D01*
Y2625D01*
X23508Y2598D01*
X23454D01*
X23428Y2625D01*
X23588Y2732D02*
X23614Y2758D01*
X23668D01*
X23694Y2732D01*
Y2625D01*
X23668Y2598D01*
X23614D01*
X23588Y2625D01*
Y2732D01*
X22953Y2362D02*
Y2522D01*
X23033D01*
X23059Y2495D01*
Y2442D01*
X23033Y2416D01*
X22953D01*
X23006D02*
X23059Y2362D01*
X23193D02*
Y2522D01*
X23113Y2442D01*
X23219D01*
X23273Y2495D02*
X23299Y2522D01*
X23353D01*
X23379Y2495D01*
Y2469D01*
X23353Y2442D01*
X23379Y2416D01*
Y2389D01*
X23353Y2362D01*
X23299D01*
X23273Y2389D01*
Y2416D01*
X23299Y2442D01*
X23273Y2469D01*
Y2495D01*
X23299Y2442D02*
X23353D01*
X22638Y2598D02*
Y2758D01*
X22718D01*
X22744Y2732D01*
Y2678D01*
X22718Y2652D01*
X22638D01*
X22691D02*
X22744Y2598D01*
X22878D02*
Y2758D01*
X22798Y2678D01*
X22904D01*
X23064Y2758D02*
X23011Y2732D01*
X22958Y2678D01*
Y2625D01*
X22984Y2598D01*
X23038D01*
X23064Y2625D01*
Y2652D01*
X23038Y2678D01*
X22958D01*
X22323Y2362D02*
Y2522D01*
X22403D01*
X22429Y2495D01*
Y2442D01*
X22403Y2416D01*
X22323D01*
X22376D02*
X22429Y2362D01*
X22563D02*
Y2522D01*
X22483Y2442D01*
X22589D01*
X22749Y2522D02*
X22643D01*
Y2442D01*
X22696Y2469D01*
X22723D01*
X22749Y2442D01*
Y2389D01*
X22723Y2362D01*
X22669D01*
X22643Y2389D01*
X22008Y2598D02*
Y2758D01*
X22088D01*
X22115Y2732D01*
Y2678D01*
X22088Y2652D01*
X22008D01*
X22061D02*
X22115Y2598D01*
X22248D02*
Y2758D01*
X22168Y2678D01*
X22274D01*
X22328Y2732D02*
X22354Y2758D01*
X22408D01*
X22434Y2732D01*
Y2705D01*
X22408Y2678D01*
X22381D01*
X22408D01*
X22434Y2652D01*
Y2625D01*
X22408Y2598D01*
X22354D01*
X22328Y2625D01*
X21693Y2362D02*
Y2522D01*
X21773D01*
X21800Y2495D01*
Y2442D01*
X21773Y2416D01*
X21693D01*
X21746D02*
X21800Y2362D01*
X21933D02*
Y2522D01*
X21853Y2442D01*
X21959D01*
X22013Y2362D02*
X22066D01*
X22039D01*
Y2522D01*
X22013Y2495D01*
X21339Y2598D02*
Y2758D01*
X21419D01*
X21445Y2732D01*
Y2678D01*
X21419Y2652D01*
X21339D01*
X21392D02*
X21445Y2598D01*
X21499Y2732D02*
X21525Y2758D01*
X21579D01*
X21605Y2732D01*
Y2705D01*
X21579Y2678D01*
X21552D01*
X21579D01*
X21605Y2652D01*
Y2625D01*
X21579Y2598D01*
X21525D01*
X21499Y2625D01*
X21658D02*
X21685Y2598D01*
X21738D01*
X21765Y2625D01*
Y2732D01*
X21738Y2758D01*
X21685D01*
X21658Y2732D01*
Y2705D01*
X21685Y2678D01*
X21765D01*
X21063Y2362D02*
Y2522D01*
X21143D01*
X21170Y2495D01*
Y2442D01*
X21143Y2416D01*
X21063D01*
X21116D02*
X21170Y2362D01*
X21223Y2495D02*
X21250Y2522D01*
X21303D01*
X21330Y2495D01*
Y2469D01*
X21303Y2442D01*
X21276D01*
X21303D01*
X21330Y2416D01*
Y2389D01*
X21303Y2362D01*
X21250D01*
X21223Y2389D01*
X21383Y2495D02*
X21410Y2522D01*
X21463D01*
X21490Y2495D01*
Y2469D01*
X21463Y2442D01*
X21490Y2416D01*
Y2389D01*
X21463Y2362D01*
X21410D01*
X21383Y2389D01*
Y2416D01*
X21410Y2442D01*
X21383Y2469D01*
Y2495D01*
X21410Y2442D02*
X21463D01*
X20748Y2598D02*
Y2758D01*
X20828D01*
X20855Y2732D01*
Y2678D01*
X20828Y2652D01*
X20748D01*
X20801D02*
X20855Y2598D01*
X20908Y2732D02*
X20935Y2758D01*
X20988D01*
X21015Y2732D01*
Y2705D01*
X20988Y2678D01*
X20961D01*
X20988D01*
X21015Y2652D01*
Y2625D01*
X20988Y2598D01*
X20935D01*
X20908Y2625D01*
X21068Y2758D02*
X21175D01*
Y2732D01*
X21068Y2625D01*
Y2598D01*
X20394Y2362D02*
Y2522D01*
X20474D01*
X20500Y2495D01*
Y2442D01*
X20474Y2416D01*
X20394D01*
X20447D02*
X20500Y2362D01*
X20554Y2495D02*
X20580Y2522D01*
X20634D01*
X20660Y2495D01*
Y2469D01*
X20634Y2442D01*
X20607D01*
X20634D01*
X20660Y2416D01*
Y2389D01*
X20634Y2362D01*
X20580D01*
X20554Y2389D01*
X20794Y2362D02*
Y2522D01*
X20714Y2442D01*
X20820D01*
X27165Y2598D02*
Y2758D01*
X27245D01*
X27272Y2732D01*
Y2678D01*
X27245Y2652D01*
X27165D01*
X27219D02*
X27272Y2598D01*
X27325Y2758D02*
X27432D01*
Y2732D01*
X27325Y2625D01*
Y2598D01*
X27485Y2732D02*
X27512Y2758D01*
X27565D01*
X27592Y2732D01*
Y2625D01*
X27565Y2598D01*
X27512D01*
X27485Y2625D01*
Y2732D01*
X26850Y2362D02*
Y2522D01*
X26930D01*
X26957Y2495D01*
Y2442D01*
X26930Y2416D01*
X26850D01*
X26904D02*
X26957Y2362D01*
X27117Y2522D02*
X27064Y2495D01*
X27010Y2442D01*
Y2389D01*
X27037Y2362D01*
X27090D01*
X27117Y2389D01*
Y2416D01*
X27090Y2442D01*
X27010D01*
X27170Y2389D02*
X27197Y2362D01*
X27250D01*
X27277Y2389D01*
Y2495D01*
X27250Y2522D01*
X27197D01*
X27170Y2495D01*
Y2469D01*
X27197Y2442D01*
X27277D01*
X26535Y2598D02*
Y2758D01*
X26615D01*
X26642Y2732D01*
Y2678D01*
X26615Y2652D01*
X26535D01*
X26589D02*
X26642Y2598D01*
X26802Y2758D02*
X26749Y2732D01*
X26695Y2678D01*
Y2625D01*
X26722Y2598D01*
X26775D01*
X26802Y2625D01*
Y2652D01*
X26775Y2678D01*
X26695D01*
X26855Y2732D02*
X26882Y2758D01*
X26935D01*
X26962Y2732D01*
Y2705D01*
X26935Y2678D01*
X26962Y2652D01*
Y2625D01*
X26935Y2598D01*
X26882D01*
X26855Y2625D01*
Y2652D01*
X26882Y2678D01*
X26855Y2705D01*
Y2732D01*
X26882Y2678D02*
X26935D01*
X26220Y2362D02*
Y2522D01*
X26300D01*
X26327Y2495D01*
Y2442D01*
X26300Y2416D01*
X26220D01*
X26274D02*
X26327Y2362D01*
X26487Y2522D02*
X26434Y2495D01*
X26380Y2442D01*
Y2389D01*
X26407Y2362D01*
X26460D01*
X26487Y2389D01*
Y2416D01*
X26460Y2442D01*
X26380D01*
X26540Y2522D02*
X26647D01*
Y2495D01*
X26540Y2389D01*
Y2362D01*
X17244Y9843D02*
Y10002D01*
X17324D01*
X17351Y9976D01*
Y9922D01*
X17324Y9896D01*
X17244D01*
X17297D02*
X17351Y9843D01*
X17511D02*
X17404D01*
X17511Y9949D01*
Y9976D01*
X17484Y10002D01*
X17431D01*
X17404Y9976D01*
X17564D02*
X17591Y10002D01*
X17644D01*
X17671Y9976D01*
Y9949D01*
X17644Y9922D01*
X17671Y9896D01*
Y9869D01*
X17644Y9843D01*
X17591D01*
X17564Y9869D01*
Y9896D01*
X17591Y9922D01*
X17564Y9949D01*
Y9976D01*
X17591Y9922D02*
X17644D01*
X17244Y9528D02*
Y9688D01*
X17324D01*
X17351Y9661D01*
Y9608D01*
X17324Y9581D01*
X17244D01*
X17297D02*
X17351Y9528D01*
X17511D02*
X17404D01*
X17511Y9634D01*
Y9661D01*
X17484Y9688D01*
X17431D01*
X17404Y9661D01*
X17564Y9688D02*
X17671D01*
Y9661D01*
X17564Y9554D01*
Y9528D01*
X17244Y9213D02*
Y9373D01*
X17324D01*
X17351Y9346D01*
Y9293D01*
X17324Y9266D01*
X17244D01*
X17297D02*
X17351Y9213D01*
X17511D02*
X17404D01*
X17511Y9319D01*
Y9346D01*
X17484Y9373D01*
X17431D01*
X17404Y9346D01*
X17671Y9373D02*
X17617Y9346D01*
X17564Y9293D01*
Y9239D01*
X17591Y9213D01*
X17644D01*
X17671Y9239D01*
Y9266D01*
X17644Y9293D01*
X17564D01*
X25433Y2362D02*
Y2522D01*
X25513D01*
X25540Y2495D01*
Y2442D01*
X25513Y2416D01*
X25433D01*
X25486D02*
X25540Y2362D01*
X25700Y2522D02*
X25646Y2495D01*
X25593Y2442D01*
Y2389D01*
X25620Y2362D01*
X25673D01*
X25700Y2389D01*
Y2416D01*
X25673Y2442D01*
X25593D01*
X25860Y2522D02*
X25753D01*
Y2442D01*
X25806Y2469D01*
X25833D01*
X25860Y2442D01*
Y2389D01*
X25833Y2362D01*
X25780D01*
X25753Y2389D01*
X16772Y1732D02*
X16612D01*
Y1812D01*
X16638Y1839D01*
X16692D01*
X16718Y1812D01*
Y1732D01*
Y1786D02*
X16772Y1839D01*
Y1999D02*
Y1892D01*
X16665Y1999D01*
X16638D01*
X16612Y1972D01*
Y1919D01*
X16638Y1892D01*
X16612Y2159D02*
Y2052D01*
X16692D01*
X16665Y2105D01*
Y2132D01*
X16692Y2159D01*
X16745D01*
X16772Y2132D01*
Y2079D01*
X16745Y2052D01*
X15827Y1732D02*
X15667D01*
Y1812D01*
X15693Y1839D01*
X15747D01*
X15773Y1812D01*
Y1732D01*
Y1786D02*
X15827Y1839D01*
Y1999D02*
Y1892D01*
X15720Y1999D01*
X15693D01*
X15667Y1972D01*
Y1919D01*
X15693Y1892D01*
X15827Y2132D02*
X15667D01*
X15747Y2052D01*
Y2159D01*
X10197Y2953D02*
Y3113D01*
X10277D01*
X10303Y3086D01*
Y3033D01*
X10277Y3006D01*
X10197D01*
X10250D02*
X10303Y2953D01*
X10357D02*
X10410D01*
X10383D01*
Y3113D01*
X10357Y3086D01*
X10597Y3113D02*
X10543Y3086D01*
X10490Y3033D01*
Y2979D01*
X10517Y2953D01*
X10570D01*
X10597Y2979D01*
Y3006D01*
X10570Y3033D01*
X10490D01*
X9843Y2717D02*
Y2876D01*
X9922D01*
X9949Y2850D01*
Y2797D01*
X9922Y2770D01*
X9843D01*
X9896D02*
X9949Y2717D01*
X10002D02*
X10056D01*
X10029D01*
Y2876D01*
X10002Y2850D01*
X10242Y2876D02*
X10136D01*
Y2797D01*
X10189Y2823D01*
X10216D01*
X10242Y2797D01*
Y2743D01*
X10216Y2717D01*
X10162D01*
X10136Y2743D01*
X9528Y2953D02*
Y3113D01*
X9608D01*
X9634Y3086D01*
Y3033D01*
X9608Y3006D01*
X9528D01*
X9581D02*
X9634Y2953D01*
X9688D02*
X9741D01*
X9714D01*
Y3113D01*
X9688Y3086D01*
X9901Y2953D02*
Y3113D01*
X9821Y3033D01*
X9927D01*
X9213Y2717D02*
Y2876D01*
X9293D01*
X9319Y2850D01*
Y2797D01*
X9293Y2770D01*
X9213D01*
X9266D02*
X9319Y2717D01*
X9373D02*
X9426D01*
X9399D01*
Y2876D01*
X9373Y2850D01*
X9506D02*
X9532Y2876D01*
X9586D01*
X9612Y2850D01*
Y2823D01*
X9586Y2797D01*
X9559D01*
X9586D01*
X9612Y2770D01*
Y2743D01*
X9586Y2717D01*
X9532D01*
X9506Y2743D01*
X7874Y2717D02*
Y2876D01*
X7954D01*
X7981Y2850D01*
Y2797D01*
X7954Y2770D01*
X7874D01*
X7927D02*
X7981Y2717D01*
X8034D02*
X8087D01*
X8061D01*
Y2876D01*
X8034Y2850D01*
X8274Y2717D02*
X8167D01*
X8274Y2823D01*
Y2850D01*
X8247Y2876D01*
X8194D01*
X8167Y2850D01*
X7598Y2953D02*
Y3113D01*
X7678D01*
X7705Y3086D01*
Y3033D01*
X7678Y3006D01*
X7598D01*
X7652D02*
X7705Y2953D01*
X7758D02*
X7812D01*
X7785D01*
Y3113D01*
X7758Y3086D01*
X7892Y2953D02*
X7945D01*
X7918D01*
Y3113D01*
X7892Y3086D01*
X7323Y2717D02*
Y2876D01*
X7403D01*
X7429Y2850D01*
Y2797D01*
X7403Y2770D01*
X7323D01*
X7376D02*
X7429Y2717D01*
X7483Y2743D02*
X7509Y2717D01*
X7563D01*
X7589Y2743D01*
Y2850D01*
X7563Y2876D01*
X7509D01*
X7483Y2850D01*
Y2823D01*
X7509Y2797D01*
X7589D01*
X6969Y2953D02*
Y3113D01*
X7048D01*
X7075Y3086D01*
Y3033D01*
X7048Y3006D01*
X6969D01*
X7022D02*
X7075Y2953D01*
X7128Y3086D02*
X7155Y3113D01*
X7208D01*
X7235Y3086D01*
Y3059D01*
X7208Y3033D01*
X7235Y3006D01*
Y2979D01*
X7208Y2953D01*
X7155D01*
X7128Y2979D01*
Y3006D01*
X7155Y3033D01*
X7128Y3059D01*
Y3086D01*
X7155Y3033D02*
X7208D01*
X6693Y2717D02*
Y2876D01*
X6773D01*
X6800Y2850D01*
Y2797D01*
X6773Y2770D01*
X6693D01*
X6746D02*
X6800Y2717D01*
X6853Y2876D02*
X6959D01*
Y2850D01*
X6853Y2743D01*
Y2717D01*
X6024Y4488D02*
X5864D01*
Y4568D01*
X5890Y4595D01*
X5944D01*
X5970Y4568D01*
Y4488D01*
Y4542D02*
X6024Y4595D01*
X5864Y4755D02*
X5890Y4701D01*
X5944Y4648D01*
X5997D01*
X6024Y4675D01*
Y4728D01*
X5997Y4755D01*
X5970D01*
X5944Y4728D01*
Y4648D01*
X7953Y4370D02*
X7793D01*
Y4450D01*
X7819Y4477D01*
X7873D01*
X7899Y4450D01*
Y4370D01*
Y4423D02*
X7953Y4477D01*
Y4530D02*
Y4583D01*
Y4557D01*
X7793D01*
X7819Y4530D01*
Y4663D02*
X7793Y4690D01*
Y4743D01*
X7819Y4770D01*
X7926D01*
X7953Y4743D01*
Y4690D01*
X7926Y4663D01*
X7819D01*
X1063Y9724D02*
X903D01*
Y9804D01*
X930Y9831D01*
X983D01*
X1010Y9804D01*
Y9724D01*
Y9778D02*
X1063Y9831D01*
Y9884D02*
Y9938D01*
Y9911D01*
X903D01*
X930Y9884D01*
X21102Y7756D02*
X21262D01*
Y7676D01*
X21236Y7649D01*
X21182D01*
X21156Y7676D01*
Y7756D01*
Y7703D02*
X21102Y7649D01*
X21236Y7596D02*
X21262Y7569D01*
Y7516D01*
X21236Y7489D01*
X21209D01*
X21182Y7516D01*
Y7543D01*
Y7516D01*
X21156Y7489D01*
X21129D01*
X21102Y7516D01*
Y7569D01*
X21129Y7596D01*
X21262Y7329D02*
Y7436D01*
X21182D01*
X21209Y7383D01*
Y7356D01*
X21182Y7329D01*
X21129D01*
X21102Y7356D01*
Y7409D01*
X21129Y7436D01*
X20039Y4173D02*
X19879D01*
Y4253D01*
X19906Y4280D01*
X19959D01*
X19986Y4253D01*
Y4173D01*
Y4227D02*
X20039Y4280D01*
X19906Y4333D02*
X19879Y4360D01*
Y4413D01*
X19906Y4440D01*
X19933D01*
X19959Y4413D01*
Y4386D01*
Y4413D01*
X19986Y4440D01*
X20013D01*
X20039Y4413D01*
Y4360D01*
X20013Y4333D01*
X20039Y4600D02*
Y4493D01*
X19933Y4600D01*
X19906D01*
X19879Y4573D01*
Y4520D01*
X19906Y4493D01*
X24685Y5984D02*
X24525D01*
Y6064D01*
X24552Y6091D01*
X24605D01*
X24632Y6064D01*
Y5984D01*
Y6038D02*
X24685Y6091D01*
X24525Y6251D02*
Y6144D01*
X24605D01*
X24578Y6198D01*
Y6224D01*
X24605Y6251D01*
X24658D01*
X24685Y6224D01*
Y6171D01*
X24658Y6144D01*
X24525Y6411D02*
X24552Y6357D01*
X24605Y6304D01*
X24658D01*
X24685Y6331D01*
Y6384D01*
X24658Y6411D01*
X24632D01*
X24605Y6384D01*
Y6304D01*
X23937Y3976D02*
Y4136D01*
X24017D01*
X24044Y4110D01*
Y4056D01*
X24017Y4030D01*
X23937D01*
X23990D02*
X24044Y3976D01*
X24204Y4136D02*
X24097D01*
Y4056D01*
X24150Y4083D01*
X24177D01*
X24204Y4056D01*
Y4003D01*
X24177Y3976D01*
X24124D01*
X24097Y4003D01*
X24364Y4136D02*
X24257D01*
Y4056D01*
X24310Y4083D01*
X24337D01*
X24364Y4056D01*
Y4003D01*
X24337Y3976D01*
X24284D01*
X24257Y4003D01*
X23031Y6102D02*
X22872D01*
Y6182D01*
X22898Y6209D01*
X22952D01*
X22978Y6182D01*
Y6102D01*
Y6156D02*
X23031Y6209D01*
Y6342D02*
X22872D01*
X22952Y6262D01*
Y6369D01*
X23005Y6422D02*
X23031Y6449D01*
Y6502D01*
X23005Y6529D01*
X22898D01*
X22872Y6502D01*
Y6449D01*
X22898Y6422D01*
X22925D01*
X22952Y6449D01*
Y6529D01*
X20827Y6378D02*
Y6538D01*
X20907D01*
X20933Y6511D01*
Y6458D01*
X20907Y6431D01*
X20827D01*
X20880D02*
X20933Y6378D01*
X20987Y6511D02*
X21013Y6538D01*
X21067D01*
X21093Y6511D01*
Y6485D01*
X21067Y6458D01*
X21040D01*
X21067D01*
X21093Y6431D01*
Y6405D01*
X21067Y6378D01*
X21013D01*
X20987Y6405D01*
X21253Y6538D02*
X21200Y6511D01*
X21147Y6458D01*
Y6405D01*
X21173Y6378D01*
X21227D01*
X21253Y6405D01*
Y6431D01*
X21227Y6458D01*
X21147D01*
X29331Y11496D02*
Y11656D01*
X29411D01*
X29437Y11629D01*
Y11576D01*
X29411Y11549D01*
X29331D01*
X29384D02*
X29437Y11496D01*
X29491Y11656D02*
X29597D01*
Y11629D01*
X29491Y11523D01*
Y11496D01*
X29651Y11523D02*
X29677Y11496D01*
X29731D01*
X29757Y11523D01*
Y11629D01*
X29731Y11656D01*
X29677D01*
X29651Y11629D01*
Y11603D01*
X29677Y11576D01*
X29757D01*
X28386Y11496D02*
Y11656D01*
X28466D01*
X28492Y11629D01*
Y11576D01*
X28466Y11549D01*
X28386D01*
X28439D02*
X28492Y11496D01*
X28546Y11656D02*
X28652D01*
Y11629D01*
X28546Y11523D01*
Y11496D01*
X28812D02*
X28706D01*
X28812Y11603D01*
Y11629D01*
X28786Y11656D01*
X28732D01*
X28706Y11629D01*
X30276Y11496D02*
Y11656D01*
X30356D01*
X30382Y11629D01*
Y11576D01*
X30356Y11549D01*
X30276D01*
X30329D02*
X30382Y11496D01*
X30436Y11629D02*
X30462Y11656D01*
X30516D01*
X30542Y11629D01*
Y11603D01*
X30516Y11576D01*
X30542Y11549D01*
Y11523D01*
X30516Y11496D01*
X30462D01*
X30436Y11523D01*
Y11549D01*
X30462Y11576D01*
X30436Y11603D01*
Y11629D01*
X30462Y11576D02*
X30516D01*
X30702Y11656D02*
X30595D01*
Y11576D01*
X30649Y11603D01*
X30675D01*
X30702Y11576D01*
Y11523D01*
X30675Y11496D01*
X30622D01*
X30595Y11523D01*
X25118Y7087D02*
X24958D01*
Y7167D01*
X24985Y7193D01*
X25038D01*
X25065Y7167D01*
Y7087D01*
Y7140D02*
X25118Y7193D01*
X24958Y7353D02*
X24985Y7300D01*
X25038Y7247D01*
X25091D01*
X25118Y7273D01*
Y7327D01*
X25091Y7353D01*
X25065D01*
X25038Y7327D01*
Y7247D01*
X25118Y7407D02*
Y7460D01*
Y7433D01*
X24958D01*
X24985Y7407D01*
X5118Y3858D02*
X4958D01*
Y3938D01*
X4985Y3965D01*
X5038D01*
X5065Y3938D01*
Y3858D01*
Y3912D02*
X5118Y3965D01*
X4958Y4125D02*
Y4018D01*
X5038D01*
X5011Y4072D01*
Y4098D01*
X5038Y4125D01*
X5091D01*
X5118Y4098D01*
Y4045D01*
X5091Y4018D01*
X2756Y4449D02*
Y4609D01*
X2836D01*
X2863Y4582D01*
Y4529D01*
X2836Y4502D01*
X2756D01*
X2809D02*
X2863Y4449D01*
X2996D02*
Y4609D01*
X2916Y4529D01*
X3022D01*
X1260Y2795D02*
X1100D01*
Y2875D01*
X1127Y2902D01*
X1180D01*
X1207Y2875D01*
Y2795D01*
Y2849D02*
X1260Y2902D01*
X1127Y2955D02*
X1100Y2982D01*
Y3035D01*
X1127Y3062D01*
X1153D01*
X1180Y3035D01*
Y3009D01*
Y3035D01*
X1207Y3062D01*
X1233D01*
X1260Y3035D01*
Y2982D01*
X1233Y2955D01*
X1260Y1811D02*
X1100D01*
Y1891D01*
X1127Y1918D01*
X1180D01*
X1207Y1891D01*
Y1811D01*
Y1864D02*
X1260Y1918D01*
Y2078D02*
Y1971D01*
X1153Y2078D01*
X1127D01*
X1100Y2051D01*
Y1998D01*
X1127Y1971D01*
X28543Y2756D02*
X28383D01*
Y2836D01*
X28410Y2863D01*
X28463D01*
X28490Y2836D01*
Y2756D01*
Y2809D02*
X28543Y2863D01*
X28383Y2916D02*
Y3022D01*
X28410D01*
X28517Y2916D01*
X28543D01*
X28410Y3076D02*
X28383Y3102D01*
Y3156D01*
X28410Y3182D01*
X28437D01*
X28463Y3156D01*
Y3129D01*
Y3156D01*
X28490Y3182D01*
X28517D01*
X28543Y3156D01*
Y3102D01*
X28517Y3076D01*
X21575Y8031D02*
X21415D01*
Y8111D01*
X21442Y8138D01*
X21495D01*
X21521Y8111D01*
Y8031D01*
Y8085D02*
X21575Y8138D01*
Y8271D02*
X21415D01*
X21495Y8191D01*
Y8298D01*
X21442Y8351D02*
X21415Y8378D01*
Y8431D01*
X21442Y8458D01*
X21548D01*
X21575Y8431D01*
Y8378D01*
X21548Y8351D01*
X21442D01*
X18661Y10315D02*
Y10475D01*
X18741D01*
X18768Y10448D01*
Y10395D01*
X18741Y10368D01*
X18661D01*
X18715D02*
X18768Y10315D01*
X18821Y10448D02*
X18848Y10475D01*
X18901D01*
X18928Y10448D01*
Y10422D01*
X18901Y10395D01*
X18875D01*
X18901D01*
X18928Y10368D01*
Y10342D01*
X18901Y10315D01*
X18848D01*
X18821Y10342D01*
X18981Y10315D02*
X19035D01*
X19008D01*
Y10475D01*
X18981Y10448D01*
X24094Y9409D02*
Y9569D01*
X24174D01*
X24201Y9543D01*
Y9489D01*
X24174Y9463D01*
X24094D01*
X24148D02*
X24201Y9409D01*
X24361Y9569D02*
X24254D01*
Y9489D01*
X24308Y9516D01*
X24334D01*
X24361Y9489D01*
Y9436D01*
X24334Y9409D01*
X24281D01*
X24254Y9436D01*
X24414Y9569D02*
X24521D01*
Y9543D01*
X24414Y9436D01*
Y9409D01*
X3701Y8861D02*
Y8701D01*
X3807D01*
X3861D02*
X3914D01*
X3887D01*
Y8861D01*
X3861Y8834D01*
X16730Y4409D02*
X16890D01*
Y4516D01*
Y4649D02*
X16730D01*
X16810Y4569D01*
Y4676D01*
X4803Y2247D02*
Y2087D01*
X4910D01*
X5070D02*
X4963D01*
X5070Y2193D01*
Y2220D01*
X5043Y2247D01*
X4990D01*
X4963Y2220D01*
X21063Y11656D02*
Y11496D01*
X21143D01*
X21170Y11523D01*
Y11629D01*
X21143Y11656D01*
X21063D01*
X21303Y11496D02*
Y11656D01*
X21223Y11576D01*
X21330D01*
X18701Y11656D02*
Y11496D01*
X18781D01*
X18807Y11523D01*
Y11629D01*
X18781Y11656D01*
X18701D01*
X18861Y11629D02*
X18887Y11656D01*
X18941D01*
X18967Y11629D01*
Y11603D01*
X18941Y11576D01*
X18914D01*
X18941D01*
X18967Y11549D01*
Y11523D01*
X18941Y11496D01*
X18887D01*
X18861Y11523D01*
X6535Y5278D02*
Y5118D01*
X6615D01*
X6642Y5145D01*
Y5251D01*
X6615Y5278D01*
X6535D01*
X6695Y5118D02*
X6749D01*
X6722D01*
Y5278D01*
X6695Y5251D01*
X7008Y5278D02*
Y5118D01*
X7088D01*
X7115Y5145D01*
Y5251D01*
X7088Y5278D01*
X7008D01*
X7274Y5118D02*
X7168D01*
X7274Y5225D01*
Y5251D01*
X7248Y5278D01*
X7194D01*
X7168Y5251D01*
X29843Y11695D02*
Y11535D01*
X29922D01*
X29949Y11562D01*
Y11669D01*
X29922Y11695D01*
X29843D01*
X30002Y11669D02*
X30029Y11695D01*
X30082D01*
X30109Y11669D01*
Y11642D01*
X30082Y11615D01*
X30109Y11589D01*
Y11562D01*
X30082Y11535D01*
X30029D01*
X30002Y11562D01*
Y11589D01*
X30029Y11615D01*
X30002Y11642D01*
Y11669D01*
X30029Y11615D02*
X30082D01*
X28858Y11695D02*
Y11535D01*
X28938D01*
X28965Y11562D01*
Y11669D01*
X28938Y11695D01*
X28858D01*
X29018D02*
X29125D01*
Y11669D01*
X29018Y11562D01*
Y11535D01*
X30827Y11695D02*
Y11535D01*
X30907D01*
X30933Y11562D01*
Y11669D01*
X30907Y11695D01*
X30827D01*
X30987Y11562D02*
X31013Y11535D01*
X31067D01*
X31093Y11562D01*
Y11669D01*
X31067Y11695D01*
X31013D01*
X30987Y11669D01*
Y11642D01*
X31013Y11615D01*
X31093D01*
X16996Y11078D02*
X16970Y11105D01*
X16916D01*
X16890Y11078D01*
Y10972D01*
X16916Y10945D01*
X16970D01*
X16996Y10972D01*
X17050Y10945D02*
X17103D01*
X17076D01*
Y11105D01*
X17050Y11078D01*
X17290Y11105D02*
X17183D01*
Y11025D01*
X17236Y11052D01*
X17263D01*
X17290Y11025D01*
Y10972D01*
X17263Y10945D01*
X17210D01*
X17183Y10972D01*
X8020Y11314D02*
X7993Y11341D01*
X7940D01*
X7913Y11314D01*
Y11208D01*
X7940Y11181D01*
X7993D01*
X8020Y11208D01*
X8073Y11181D02*
X8127D01*
X8100D01*
Y11341D01*
X8073Y11314D01*
X8207Y11181D02*
X8260D01*
X8233D01*
Y11341D01*
X8207Y11314D01*
X2229Y9910D02*
X2202Y9883D01*
Y9830D01*
X2229Y9803D01*
X2336D01*
X2362Y9830D01*
Y9883D01*
X2336Y9910D01*
X2202Y10070D02*
Y9963D01*
X2282D01*
X2256Y10016D01*
Y10043D01*
X2282Y10070D01*
X2336D01*
X2362Y10043D01*
Y9990D01*
X2336Y9963D01*
X24394Y5067D02*
X24368Y5041D01*
Y4987D01*
X24394Y4961D01*
X24501D01*
X24528Y4987D01*
Y5041D01*
X24501Y5067D01*
X24394Y5121D02*
X24368Y5147D01*
Y5201D01*
X24394Y5227D01*
X24421D01*
X24448Y5201D01*
Y5174D01*
Y5201D01*
X24474Y5227D01*
X24501D01*
X24528Y5201D01*
Y5147D01*
X24501Y5121D01*
X24394Y5281D02*
X24368Y5307D01*
Y5361D01*
X24394Y5387D01*
X24501D01*
X24528Y5361D01*
Y5307D01*
X24501Y5281D01*
X24394D01*
X21481Y6721D02*
X21454Y6694D01*
Y6641D01*
X21481Y6614D01*
X21588D01*
X21614Y6641D01*
Y6694D01*
X21588Y6721D01*
X21614Y6881D02*
Y6774D01*
X21508Y6881D01*
X21481D01*
X21454Y6854D01*
Y6801D01*
X21481Y6774D01*
X21454Y6934D02*
Y7041D01*
X21481D01*
X21588Y6934D01*
X21614D01*
X19158Y7744D02*
X19131Y7718D01*
Y7664D01*
X19158Y7638D01*
X19265D01*
X19291Y7664D01*
Y7718D01*
X19265Y7744D01*
X19291Y7904D02*
Y7798D01*
X19185Y7904D01*
X19158D01*
X19131Y7878D01*
Y7824D01*
X19158Y7798D01*
Y7958D02*
X19131Y7984D01*
Y8038D01*
X19158Y8064D01*
X19185D01*
X19211Y8038D01*
Y8011D01*
Y8038D01*
X19238Y8064D01*
X19265D01*
X19291Y8038D01*
Y7984D01*
X19265Y7958D01*
X20422Y6078D02*
X20395Y6105D01*
X20342D01*
X20315Y6078D01*
Y5972D01*
X20342Y5945D01*
X20395D01*
X20422Y5972D01*
X20582Y5945D02*
X20475D01*
X20582Y6052D01*
Y6078D01*
X20555Y6105D01*
X20502D01*
X20475Y6078D01*
X20741Y6105D02*
X20635D01*
Y6025D01*
X20688Y6052D01*
X20715D01*
X20741Y6025D01*
Y5972D01*
X20715Y5945D01*
X20662D01*
X20635Y5972D01*
X16717Y6091D02*
X16690Y6064D01*
Y6011D01*
X16717Y5984D01*
X16824D01*
X16850Y6011D01*
Y6064D01*
X16824Y6091D01*
X16850Y6144D02*
Y6198D01*
Y6171D01*
X16690D01*
X16717Y6144D01*
X16690Y6384D02*
X16717Y6331D01*
X16770Y6277D01*
X16824D01*
X16850Y6304D01*
Y6357D01*
X16824Y6384D01*
X16797D01*
X16770Y6357D01*
Y6277D01*
X16835Y3059D02*
X16809Y3033D01*
Y2979D01*
X16835Y2953D01*
X16942D01*
X16968Y2979D01*
Y3033D01*
X16942Y3059D01*
X16968Y3113D02*
Y3166D01*
Y3139D01*
X16809D01*
X16835Y3113D01*
X16809Y3246D02*
Y3353D01*
X16835D01*
X16942Y3246D01*
X16968D01*
X24749Y4359D02*
X24722Y4332D01*
Y4279D01*
X24749Y4252D01*
X24855D01*
X24882Y4279D01*
Y4332D01*
X24855Y4359D01*
X24749Y4412D02*
X24722Y4439D01*
Y4492D01*
X24749Y4519D01*
X24775D01*
X24802Y4492D01*
Y4465D01*
Y4492D01*
X24829Y4519D01*
X24855D01*
X24882Y4492D01*
Y4439D01*
X24855Y4412D01*
X24749Y4572D02*
X24722Y4599D01*
Y4652D01*
X24749Y4678D01*
X24775D01*
X24802Y4652D01*
Y4625D01*
Y4652D01*
X24829Y4678D01*
X24855D01*
X24882Y4652D01*
Y4599D01*
X24855Y4572D01*
X25379Y8886D02*
X25352Y8860D01*
Y8806D01*
X25379Y8780D01*
X25485D01*
X25512Y8806D01*
Y8860D01*
X25485Y8886D01*
X25379Y8939D02*
X25352Y8966D01*
Y9019D01*
X25379Y9046D01*
X25405D01*
X25432Y9019D01*
Y8993D01*
Y9019D01*
X25458Y9046D01*
X25485D01*
X25512Y9019D01*
Y8966D01*
X25485Y8939D01*
X25512Y9179D02*
X25352D01*
X25432Y9099D01*
Y9206D01*
X30422Y10173D02*
X30395Y10199D01*
X30342D01*
X30315Y10173D01*
Y10066D01*
X30342Y10039D01*
X30395D01*
X30422Y10066D01*
X30555Y10039D02*
Y10199D01*
X30475Y10119D01*
X30582D01*
X30715Y10039D02*
Y10199D01*
X30635Y10119D01*
X30741D01*
X29437Y10173D02*
X29411Y10199D01*
X29357D01*
X29331Y10173D01*
Y10066D01*
X29357Y10039D01*
X29411D01*
X29437Y10066D01*
X29571Y10039D02*
Y10199D01*
X29491Y10119D01*
X29597D01*
X29651Y10173D02*
X29677Y10199D01*
X29731D01*
X29757Y10173D01*
Y10146D01*
X29731Y10119D01*
X29704D01*
X29731D01*
X29757Y10093D01*
Y10066D01*
X29731Y10039D01*
X29677D01*
X29651Y10066D01*
X24359Y7653D02*
X24332Y7680D01*
X24279D01*
X24252Y7653D01*
Y7546D01*
X24279Y7520D01*
X24332D01*
X24359Y7546D01*
X24412Y7653D02*
X24439Y7680D01*
X24492D01*
X24519Y7653D01*
Y7626D01*
X24492Y7600D01*
X24465D01*
X24492D01*
X24519Y7573D01*
Y7546D01*
X24492Y7520D01*
X24439D01*
X24412Y7546D01*
X24572Y7520D02*
X24625D01*
X24599D01*
Y7680D01*
X24572Y7653D01*
X25697Y10212D02*
X25671Y10239D01*
X25617D01*
X25591Y10212D01*
Y10105D01*
X25617Y10079D01*
X25671D01*
X25697Y10105D01*
X25751Y10212D02*
X25777Y10239D01*
X25830D01*
X25857Y10212D01*
Y10185D01*
X25830Y10159D01*
X25804D01*
X25830D01*
X25857Y10132D01*
Y10105D01*
X25830Y10079D01*
X25777D01*
X25751Y10105D01*
X25910Y10212D02*
X25937Y10239D01*
X25990D01*
X26017Y10212D01*
Y10185D01*
X25990Y10159D01*
X26017Y10132D01*
Y10105D01*
X25990Y10079D01*
X25937D01*
X25910Y10105D01*
Y10132D01*
X25937Y10159D01*
X25910Y10185D01*
Y10212D01*
X25937Y10159D02*
X25990D01*
X26524Y9936D02*
X26497Y9963D01*
X26444D01*
X26417Y9936D01*
Y9830D01*
X26444Y9803D01*
X26497D01*
X26524Y9830D01*
X26577Y9936D02*
X26604Y9963D01*
X26657D01*
X26684Y9936D01*
Y9910D01*
X26657Y9883D01*
X26631D01*
X26657D01*
X26684Y9856D01*
Y9830D01*
X26657Y9803D01*
X26604D01*
X26577Y9830D01*
X26737D02*
X26764Y9803D01*
X26817D01*
X26844Y9830D01*
Y9936D01*
X26817Y9963D01*
X26764D01*
X26737Y9936D01*
Y9910D01*
X26764Y9883D01*
X26844D01*
X28571Y9936D02*
X28545Y9963D01*
X28491D01*
X28465Y9936D01*
Y9830D01*
X28491Y9803D01*
X28545D01*
X28571Y9830D01*
X28704Y9803D02*
Y9963D01*
X28625Y9883D01*
X28731D01*
X28784Y9936D02*
X28811Y9963D01*
X28864D01*
X28891Y9936D01*
Y9830D01*
X28864Y9803D01*
X28811D01*
X28784Y9830D01*
Y9936D01*
X29752D02*
X29726Y9963D01*
X29672D01*
X29646Y9936D01*
Y9830D01*
X29672Y9803D01*
X29726D01*
X29752Y9830D01*
X29886Y9803D02*
Y9963D01*
X29806Y9883D01*
X29912D01*
X30072Y9803D02*
X29966D01*
X30072Y9910D01*
Y9936D01*
X30046Y9963D01*
X29992D01*
X29966Y9936D01*
X5575Y2272D02*
X5549Y2245D01*
Y2192D01*
X5575Y2165D01*
X5682D01*
X5709Y2192D01*
Y2245D01*
X5682Y2272D01*
X5709Y2325D02*
Y2379D01*
Y2352D01*
X5549D01*
X5575Y2325D01*
Y2459D02*
X5549Y2485D01*
Y2539D01*
X5575Y2565D01*
X5682D01*
X5709Y2539D01*
Y2485D01*
X5682Y2459D01*
X5575D01*
X2193Y4582D02*
X2167Y4609D01*
X2113D01*
X2087Y4582D01*
Y4475D01*
X2113Y4449D01*
X2167D01*
X2193Y4475D01*
X2247Y4582D02*
X2273Y4609D01*
X2327D01*
X2353Y4582D01*
Y4555D01*
X2327Y4529D01*
X2300D01*
X2327D01*
X2353Y4502D01*
Y4475D01*
X2327Y4449D01*
X2273D01*
X2247Y4475D01*
X2150Y1839D02*
X2124Y1812D01*
Y1759D01*
X2150Y1732D01*
X2257D01*
X2283Y1759D01*
Y1812D01*
X2257Y1839D01*
X2283Y1972D02*
X2124D01*
X2203Y1892D01*
Y1999D01*
X2150Y2193D02*
X2124Y2167D01*
Y2113D01*
X2150Y2087D01*
X2257D01*
X2283Y2113D01*
Y2167D01*
X2257Y2193D01*
X2124Y2247D02*
Y2353D01*
X2150D01*
X2257Y2247D01*
X2283D01*
X3843Y2193D02*
X3816Y2167D01*
Y2113D01*
X3843Y2087D01*
X3950D01*
X3976Y2113D01*
Y2167D01*
X3950Y2193D01*
Y2247D02*
X3976Y2273D01*
Y2327D01*
X3950Y2353D01*
X3843D01*
X3816Y2327D01*
Y2273D01*
X3843Y2247D01*
X3870D01*
X3896Y2273D01*
Y2353D01*
X3646Y1839D02*
X3620Y1812D01*
Y1759D01*
X3646Y1732D01*
X3753D01*
X3780Y1759D01*
Y1812D01*
X3753Y1839D01*
X3646Y1892D02*
X3620Y1919D01*
Y1972D01*
X3646Y1999D01*
X3673D01*
X3700Y1972D01*
X3726Y1999D01*
X3753D01*
X3780Y1972D01*
Y1919D01*
X3753Y1892D01*
X3726D01*
X3700Y1919D01*
X3673Y1892D01*
X3646D01*
X3700Y1919D02*
Y1972D01*
X1524Y4149D02*
X1497Y4176D01*
X1444D01*
X1417Y4149D01*
Y4042D01*
X1444Y4016D01*
X1497D01*
X1524Y4042D01*
X1684Y4016D02*
X1577D01*
X1684Y4122D01*
Y4149D01*
X1657Y4176D01*
X1604D01*
X1577Y4149D01*
X18650Y6157D02*
X18623Y6184D01*
X18570D01*
X18543Y6157D01*
Y6050D01*
X18570Y6024D01*
X18623D01*
X18650Y6050D01*
X18810Y6024D02*
X18703D01*
X18810Y6130D01*
Y6157D01*
X18783Y6184D01*
X18730D01*
X18703Y6157D01*
X18863D02*
X18890Y6184D01*
X18943D01*
X18970Y6157D01*
Y6050D01*
X18943Y6024D01*
X18890D01*
X18863Y6050D01*
Y6157D01*
X12505Y11052D02*
X12478Y11025D01*
Y10972D01*
X12505Y10945D01*
X12611D01*
X12638Y10972D01*
Y11025D01*
X12611Y11052D01*
X12638Y11105D02*
Y11158D01*
Y11131D01*
X12478D01*
X12505Y11105D01*
Y11238D02*
X12478Y11265D01*
Y11318D01*
X12505Y11345D01*
X12531D01*
X12558Y11318D01*
Y11291D01*
Y11318D01*
X12584Y11345D01*
X12611D01*
X12638Y11318D01*
Y11265D01*
X12611Y11238D01*
X14827Y10973D02*
X14801Y10946D01*
Y10893D01*
X14827Y10866D01*
X14934D01*
X14961Y10893D01*
Y10946D01*
X14934Y10973D01*
X14961Y11026D02*
Y11079D01*
Y11053D01*
X14801D01*
X14827Y11026D01*
X14961Y11239D02*
X14801D01*
X14881Y11159D01*
Y11266D01*
X17351Y8913D02*
X17324Y8939D01*
X17271D01*
X17244Y8913D01*
Y8806D01*
X17271Y8780D01*
X17324D01*
X17351Y8806D01*
X17404Y8780D02*
X17457D01*
X17431D01*
Y8939D01*
X17404Y8913D01*
X17537D02*
X17564Y8939D01*
X17617D01*
X17644Y8913D01*
Y8886D01*
X17617Y8860D01*
X17644Y8833D01*
Y8806D01*
X17617Y8780D01*
X17564D01*
X17537Y8806D01*
Y8833D01*
X17564Y8860D01*
X17537Y8886D01*
Y8913D01*
X17564Y8860D02*
X17617D01*
X18882Y7744D02*
X18856Y7718D01*
Y7664D01*
X18882Y7638D01*
X18989D01*
X19016Y7664D01*
Y7718D01*
X18989Y7744D01*
X19016Y7904D02*
Y7798D01*
X18909Y7904D01*
X18882D01*
X18856Y7878D01*
Y7824D01*
X18882Y7798D01*
X19016Y8064D02*
Y7958D01*
X18909Y8064D01*
X18882D01*
X18856Y8038D01*
Y7984D01*
X18882Y7958D01*
X26693Y11695D02*
Y11535D01*
X26773D01*
X26800Y11562D01*
Y11669D01*
X26773Y11695D01*
X26693D01*
X26959D02*
X26853D01*
Y11615D01*
X26906Y11642D01*
X26933D01*
X26959Y11615D01*
Y11562D01*
X26933Y11535D01*
X26880D01*
X26853Y11562D01*
X26142Y10591D02*
X25982D01*
Y10671D01*
X26008Y10697D01*
X26062D01*
X26088Y10671D01*
Y10591D01*
Y10644D02*
X26142Y10697D01*
X25982Y10857D02*
X26008Y10804D01*
X26062Y10750D01*
X26115D01*
X26142Y10777D01*
Y10830D01*
X26115Y10857D01*
X26088D01*
X26062Y10830D01*
Y10750D01*
X25982Y11017D02*
X26008Y10964D01*
X26062Y10910D01*
X26115D01*
X26142Y10937D01*
Y10990D01*
X26115Y11017D01*
X26088D01*
X26062Y10990D01*
Y10910D01*
X27441Y11220D02*
X27281D01*
Y11300D01*
X27308Y11327D01*
X27361D01*
X27388Y11300D01*
Y11220D01*
Y11274D02*
X27441Y11327D01*
X27281Y11380D02*
Y11487D01*
X27308D01*
X27414Y11380D01*
X27441D01*
Y11540D02*
Y11594D01*
Y11567D01*
X27281D01*
X27308Y11540D01*
X19713Y5094D02*
X19686Y5121D01*
X19633D01*
X19606Y5094D01*
Y4987D01*
X19633Y4961D01*
X19686D01*
X19713Y4987D01*
X19873Y4961D02*
X19766D01*
X19873Y5067D01*
Y5094D01*
X19846Y5121D01*
X19793D01*
X19766Y5094D01*
X20006Y4961D02*
Y5121D01*
X19926Y5041D01*
X20033D01*
X21839Y8007D02*
X21812Y8034D01*
X21759D01*
X21732Y8007D01*
Y7901D01*
X21759Y7874D01*
X21812D01*
X21839Y7901D01*
X21999Y7874D02*
X21892D01*
X21999Y7981D01*
Y8007D01*
X21972Y8034D01*
X21919D01*
X21892Y8007D01*
X22052Y7901D02*
X22079Y7874D01*
X22132D01*
X22159Y7901D01*
Y8007D01*
X22132Y8034D01*
X22079D01*
X22052Y8007D01*
Y7981D01*
X22079Y7954D01*
X22159D01*
X12953Y2835D02*
Y2995D01*
X13033D01*
X13059Y2968D01*
Y2915D01*
X13033Y2888D01*
X12953D01*
X13006D02*
X13059Y2835D01*
X13219D02*
X13113D01*
X13219Y2941D01*
Y2968D01*
X13193Y2995D01*
X13139D01*
X13113Y2968D01*
X13379Y2835D02*
X13273D01*
X13379Y2941D01*
Y2968D01*
X13353Y2995D01*
X13299D01*
X13273Y2968D01*
X12677Y3071D02*
Y3231D01*
X12757D01*
X12784Y3204D01*
Y3151D01*
X12757Y3124D01*
X12677D01*
X12730D02*
X12784Y3071D01*
X12944D02*
X12837D01*
X12944Y3178D01*
Y3204D01*
X12917Y3231D01*
X12864D01*
X12837Y3204D01*
X12997Y3071D02*
X13050D01*
X13024D01*
Y3231D01*
X12997Y3204D01*
X12323Y2835D02*
Y2995D01*
X12403D01*
X12429Y2968D01*
Y2915D01*
X12403Y2888D01*
X12323D01*
X12376D02*
X12429Y2835D01*
X12589D02*
X12483D01*
X12589Y2941D01*
Y2968D01*
X12563Y2995D01*
X12509D01*
X12483Y2968D01*
X12643D02*
X12669Y2995D01*
X12723D01*
X12749Y2968D01*
Y2861D01*
X12723Y2835D01*
X12669D01*
X12643Y2861D01*
Y2968D01*
X12008Y3071D02*
Y3231D01*
X12088D01*
X12115Y3204D01*
Y3151D01*
X12088Y3124D01*
X12008D01*
X12061D02*
X12115Y3071D01*
X12168D02*
X12221D01*
X12194D01*
Y3231D01*
X12168Y3204D01*
X12301Y3098D02*
X12328Y3071D01*
X12381D01*
X12408Y3098D01*
Y3204D01*
X12381Y3231D01*
X12328D01*
X12301Y3204D01*
Y3178D01*
X12328Y3151D01*
X12408D01*
X11693Y2835D02*
Y2995D01*
X11773D01*
X11800Y2968D01*
Y2915D01*
X11773Y2888D01*
X11693D01*
X11746D02*
X11800Y2835D01*
X11853D02*
X11906D01*
X11880D01*
Y2995D01*
X11853Y2968D01*
X11986D02*
X12013Y2995D01*
X12066D01*
X12093Y2968D01*
Y2941D01*
X12066Y2915D01*
X12093Y2888D01*
Y2861D01*
X12066Y2835D01*
X12013D01*
X11986Y2861D01*
Y2888D01*
X12013Y2915D01*
X11986Y2941D01*
Y2968D01*
X12013Y2915D02*
X12066D01*
X10472Y2717D02*
Y2876D01*
X10552D01*
X10579Y2850D01*
Y2797D01*
X10552Y2770D01*
X10472D01*
X10526D02*
X10579Y2717D01*
X10632D02*
X10686D01*
X10659D01*
Y2876D01*
X10632Y2850D01*
X10766Y2876D02*
X10872D01*
Y2850D01*
X10766Y2743D01*
Y2717D01*
X28465Y2441D02*
Y2601D01*
X28545D01*
X28571Y2574D01*
Y2521D01*
X28545Y2494D01*
X28465D01*
X28518D02*
X28571Y2441D01*
X28625Y2601D02*
X28731D01*
Y2574D01*
X28625Y2468D01*
Y2441D01*
X28864D02*
Y2601D01*
X28784Y2521D01*
X28891D01*
X24634Y6826D02*
X24608Y6853D01*
X24554D01*
X24528Y6826D01*
Y6720D01*
X24554Y6693D01*
X24608D01*
X24634Y6720D01*
X24688Y6826D02*
X24714Y6853D01*
X24767D01*
X24794Y6826D01*
Y6800D01*
X24767Y6773D01*
X24741D01*
X24767D01*
X24794Y6746D01*
Y6720D01*
X24767Y6693D01*
X24714D01*
X24688Y6720D01*
X24954Y6853D02*
X24901Y6826D01*
X24847Y6773D01*
Y6720D01*
X24874Y6693D01*
X24927D01*
X24954Y6720D01*
Y6746D01*
X24927Y6773D01*
X24847D01*
X24079Y7115D02*
X24053Y7088D01*
Y7035D01*
X24079Y7008D01*
X24186D01*
X24213Y7035D01*
Y7088D01*
X24186Y7115D01*
X24079Y7168D02*
X24053Y7194D01*
Y7248D01*
X24079Y7274D01*
X24106D01*
X24133Y7248D01*
Y7221D01*
Y7248D01*
X24159Y7274D01*
X24186D01*
X24213Y7248D01*
Y7194D01*
X24186Y7168D01*
X24213Y7434D02*
Y7328D01*
X24106Y7434D01*
X24079D01*
X24053Y7408D01*
Y7354D01*
X24079Y7328D01*
X25067Y11236D02*
X25041Y11262D01*
X24987D01*
X24961Y11236D01*
Y11129D01*
X24987Y11102D01*
X25041D01*
X25067Y11129D01*
X25121Y11236D02*
X25147Y11262D01*
X25201D01*
X25227Y11236D01*
Y11209D01*
X25201Y11182D01*
X25174D01*
X25201D01*
X25227Y11156D01*
Y11129D01*
X25201Y11102D01*
X25147D01*
X25121Y11129D01*
X25281Y11262D02*
X25387D01*
Y11236D01*
X25281Y11129D01*
Y11102D01*
X18386Y1654D02*
Y1794D01*
X18456D01*
X18479Y1770D01*
Y1724D01*
X18456Y1700D01*
X18386D01*
X18596Y1794D02*
X18549D01*
X18526Y1770D01*
Y1677D01*
X18549Y1654D01*
X18596D01*
X18619Y1677D01*
Y1770D01*
X18596Y1794D01*
X18666D02*
Y1654D01*
X18712Y1700D01*
X18759Y1654D01*
Y1794D01*
X18899D02*
X18806D01*
Y1654D01*
X18899D01*
X18806Y1724D02*
X18852D01*
X18946Y1654D02*
Y1794D01*
X19016D01*
X19039Y1770D01*
Y1724D01*
X19016Y1700D01*
X18946D01*
X18992D02*
X19039Y1654D01*
X19272D02*
X19226Y1700D01*
Y1747D01*
X19272Y1794D01*
X19342Y1770D02*
X19366Y1794D01*
X19412D01*
X19435Y1770D01*
Y1747D01*
X19412Y1724D01*
X19389D01*
X19412D01*
X19435Y1700D01*
Y1677D01*
X19412Y1654D01*
X19366D01*
X19342Y1677D01*
X19482Y1654D02*
Y1677D01*
X19505D01*
Y1654D01*
X19482D01*
X19599Y1770D02*
X19622Y1794D01*
X19669D01*
X19692Y1770D01*
Y1747D01*
X19669Y1724D01*
X19645D01*
X19669D01*
X19692Y1700D01*
Y1677D01*
X19669Y1654D01*
X19622D01*
X19599Y1677D01*
X19739Y1794D02*
Y1700D01*
X19785Y1654D01*
X19832Y1700D01*
Y1794D01*
X19879Y1654D02*
X19925Y1700D01*
Y1747D01*
X19879Y1794D01*
X22482Y1142D02*
X22458Y1165D01*
Y1212D01*
X22482Y1235D01*
X22505D01*
X22528Y1212D01*
Y1188D01*
Y1212D01*
X22552Y1235D01*
X22575D01*
X22598Y1212D01*
Y1165D01*
X22575Y1142D01*
X22598Y1282D02*
X22575D01*
Y1305D01*
X22598D01*
Y1282D01*
X22482Y1398D02*
X22458Y1422D01*
Y1468D01*
X22482Y1492D01*
X22505D01*
X22528Y1468D01*
Y1445D01*
Y1468D01*
X22552Y1492D01*
X22575D01*
X22598Y1468D01*
Y1422D01*
X22575Y1398D01*
X21773Y1142D02*
X21750Y1165D01*
Y1212D01*
X21773Y1235D01*
X21796D01*
X21820Y1212D01*
Y1188D01*
Y1212D01*
X21843Y1235D01*
X21866D01*
X21890Y1212D01*
Y1165D01*
X21866Y1142D01*
X21890Y1282D02*
X21866D01*
Y1305D01*
X21890D01*
Y1282D01*
X21773Y1398D02*
X21750Y1422D01*
Y1468D01*
X21773Y1492D01*
X21796D01*
X21820Y1468D01*
Y1445D01*
Y1468D01*
X21843Y1492D01*
X21866D01*
X21890Y1468D01*
Y1422D01*
X21866Y1398D01*
X21064Y1142D02*
X21041Y1165D01*
Y1212D01*
X21064Y1235D01*
X21088D01*
X21111Y1212D01*
Y1188D01*
Y1212D01*
X21134Y1235D01*
X21158D01*
X21181Y1212D01*
Y1165D01*
X21158Y1142D01*
X21181Y1282D02*
X21158D01*
Y1305D01*
X21181D01*
Y1282D01*
X21064Y1398D02*
X21041Y1422D01*
Y1468D01*
X21064Y1492D01*
X21088D01*
X21111Y1468D01*
Y1445D01*
Y1468D01*
X21134Y1492D01*
X21158D01*
X21181Y1468D01*
Y1422D01*
X21158Y1398D01*
X30986Y1235D02*
X30962Y1212D01*
Y1165D01*
X30986Y1142D01*
X31079D01*
X31102Y1165D01*
Y1212D01*
X31079Y1235D01*
X31032D01*
Y1188D01*
X31102Y1282D02*
X30962D01*
X31102Y1375D01*
X30962D01*
Y1422D02*
X31102D01*
Y1492D01*
X31079Y1515D01*
X30986D01*
X30962Y1492D01*
Y1422D01*
X30277Y1235D02*
X30254Y1212D01*
Y1165D01*
X30277Y1142D01*
X30370D01*
X30394Y1165D01*
Y1212D01*
X30370Y1235D01*
X30324D01*
Y1188D01*
X30394Y1282D02*
X30254D01*
X30394Y1375D01*
X30254D01*
Y1422D02*
X30394D01*
Y1492D01*
X30370Y1515D01*
X30277D01*
X30254Y1492D01*
Y1422D01*
X29096Y1235D02*
X29073Y1212D01*
Y1165D01*
X29096Y1142D01*
X29189D01*
X29213Y1165D01*
Y1212D01*
X29189Y1235D01*
X29143D01*
Y1188D01*
X29213Y1282D02*
X29073D01*
X29213Y1375D01*
X29073D01*
Y1422D02*
X29213D01*
Y1492D01*
X29189Y1515D01*
X29096D01*
X29073Y1492D01*
Y1422D01*
X27442Y1235D02*
X27419Y1212D01*
Y1165D01*
X27442Y1142D01*
X27536D01*
X27559Y1165D01*
Y1212D01*
X27536Y1235D01*
X27489D01*
Y1188D01*
X27559Y1282D02*
X27419D01*
X27559Y1375D01*
X27419D01*
Y1422D02*
X27559D01*
Y1492D01*
X27536Y1515D01*
X27442D01*
X27419Y1492D01*
Y1422D01*
X26261Y1235D02*
X26238Y1212D01*
Y1165D01*
X26261Y1142D01*
X26355D01*
X26378Y1165D01*
Y1212D01*
X26355Y1235D01*
X26308D01*
Y1188D01*
X26378Y1282D02*
X26238D01*
X26378Y1375D01*
X26238D01*
Y1422D02*
X26378D01*
Y1492D01*
X26355Y1515D01*
X26261D01*
X26238Y1492D01*
Y1422D01*
X25080Y1235D02*
X25057Y1212D01*
Y1165D01*
X25080Y1142D01*
X25174D01*
X25197Y1165D01*
Y1212D01*
X25174Y1235D01*
X25127D01*
Y1188D01*
X25197Y1282D02*
X25057D01*
X25197Y1375D01*
X25057D01*
Y1422D02*
X25197D01*
Y1492D01*
X25174Y1515D01*
X25080D01*
X25057Y1492D01*
Y1422D01*
X23190Y1235D02*
X23167Y1212D01*
Y1165D01*
X23190Y1142D01*
X23284D01*
X23307Y1165D01*
Y1212D01*
X23284Y1235D01*
X23237D01*
Y1188D01*
X23307Y1282D02*
X23167D01*
X23307Y1375D01*
X23167D01*
Y1422D02*
X23307D01*
Y1492D01*
X23284Y1515D01*
X23190D01*
X23167Y1492D01*
Y1422D01*
X1222Y1235D02*
X1199Y1212D01*
Y1165D01*
X1222Y1142D01*
X1315D01*
X1339Y1165D01*
Y1212D01*
X1315Y1235D01*
X1269D01*
Y1188D01*
X1339Y1282D02*
X1199D01*
X1339Y1375D01*
X1199D01*
Y1422D02*
X1339D01*
Y1492D01*
X1315Y1515D01*
X1222D01*
X1199Y1492D01*
Y1422D01*
X1931Y1235D02*
X1907Y1212D01*
Y1165D01*
X1931Y1142D01*
X2024D01*
X2047Y1165D01*
Y1212D01*
X2024Y1235D01*
X1977D01*
Y1188D01*
X2047Y1282D02*
X1907D01*
X2047Y1375D01*
X1907D01*
Y1422D02*
X2047D01*
Y1492D01*
X2024Y1515D01*
X1931D01*
X1907Y1492D01*
Y1422D01*
X3112Y1235D02*
X3088Y1212D01*
Y1165D01*
X3112Y1142D01*
X3205D01*
X3228Y1165D01*
Y1212D01*
X3205Y1235D01*
X3158D01*
Y1188D01*
X3228Y1282D02*
X3088D01*
X3228Y1375D01*
X3088D01*
Y1422D02*
X3228D01*
Y1492D01*
X3205Y1515D01*
X3112D01*
X3088Y1492D01*
Y1422D01*
X3820Y1235D02*
X3797Y1212D01*
Y1165D01*
X3820Y1142D01*
X3914D01*
X3937Y1165D01*
Y1212D01*
X3914Y1235D01*
X3867D01*
Y1188D01*
X3937Y1282D02*
X3797D01*
X3937Y1375D01*
X3797D01*
Y1422D02*
X3937D01*
Y1492D01*
X3914Y1515D01*
X3820D01*
X3797Y1492D01*
Y1422D01*
X6419Y1235D02*
X6395Y1212D01*
Y1165D01*
X6419Y1142D01*
X6512D01*
X6535Y1165D01*
Y1212D01*
X6512Y1235D01*
X6465D01*
Y1188D01*
X6535Y1282D02*
X6395D01*
X6535Y1375D01*
X6395D01*
Y1422D02*
X6535D01*
Y1492D01*
X6512Y1515D01*
X6419D01*
X6395Y1492D01*
Y1422D01*
X9017Y1235D02*
X8994Y1212D01*
Y1165D01*
X9017Y1142D01*
X9111D01*
X9134Y1165D01*
Y1212D01*
X9111Y1235D01*
X9064D01*
Y1188D01*
X9134Y1282D02*
X8994D01*
X9134Y1375D01*
X8994D01*
Y1422D02*
X9134D01*
Y1492D01*
X9111Y1515D01*
X9017D01*
X8994Y1492D01*
Y1422D01*
X11616Y1235D02*
X11592Y1212D01*
Y1165D01*
X11616Y1142D01*
X11709D01*
X11732Y1165D01*
Y1212D01*
X11709Y1235D01*
X11662D01*
Y1188D01*
X11732Y1282D02*
X11592D01*
X11732Y1375D01*
X11592D01*
Y1422D02*
X11732D01*
Y1492D01*
X11709Y1515D01*
X11616D01*
X11592Y1492D01*
Y1422D01*
X14214Y1235D02*
X14191Y1212D01*
Y1165D01*
X14214Y1142D01*
X14307D01*
X14331Y1165D01*
Y1212D01*
X14307Y1235D01*
X14261D01*
Y1188D01*
X14331Y1282D02*
X14191D01*
X14331Y1375D01*
X14191D01*
Y1422D02*
X14331D01*
Y1492D01*
X14307Y1515D01*
X14214D01*
X14191Y1492D01*
Y1422D01*
X14923Y1235D02*
X14899Y1212D01*
Y1165D01*
X14923Y1142D01*
X15016D01*
X15039Y1165D01*
Y1212D01*
X15016Y1235D01*
X14969D01*
Y1188D01*
X15039Y1282D02*
X14899D01*
X15039Y1375D01*
X14899D01*
Y1422D02*
X15039D01*
Y1492D01*
X15016Y1515D01*
X14923D01*
X14899Y1492D01*
Y1422D01*
X15631Y1235D02*
X15608Y1212D01*
Y1165D01*
X15631Y1142D01*
X15725D01*
X15748Y1165D01*
Y1212D01*
X15725Y1235D01*
X15678D01*
Y1188D01*
X15748Y1282D02*
X15608D01*
X15748Y1375D01*
X15608D01*
Y1422D02*
X15748D01*
Y1492D01*
X15725Y1515D01*
X15631D01*
X15608Y1492D01*
Y1422D01*
X16340Y1142D02*
X16317Y1165D01*
Y1212D01*
X16340Y1235D01*
X16363D01*
X16387Y1212D01*
Y1188D01*
Y1212D01*
X16410Y1235D01*
X16433D01*
X16457Y1212D01*
Y1165D01*
X16433Y1142D01*
X16457Y1282D02*
X16433D01*
Y1305D01*
X16457D01*
Y1282D01*
X16340Y1398D02*
X16317Y1422D01*
Y1468D01*
X16340Y1492D01*
X16363D01*
X16387Y1468D01*
Y1445D01*
Y1468D01*
X16410Y1492D01*
X16433D01*
X16457Y1468D01*
Y1422D01*
X16433Y1398D01*
X14606Y1794D02*
Y1677D01*
X14630Y1654D01*
X14676D01*
X14700Y1677D01*
Y1794D01*
X14746Y1654D02*
Y1747D01*
X14793Y1794D01*
X14840Y1747D01*
Y1654D01*
Y1724D01*
X14746D01*
X14886Y1654D02*
Y1794D01*
X14956D01*
X14980Y1770D01*
Y1724D01*
X14956Y1700D01*
X14886D01*
X14933D02*
X14980Y1654D01*
X15026Y1794D02*
X15119D01*
X15073D01*
Y1654D01*
X15276Y1181D02*
X15136D01*
Y1251D01*
X15159Y1274D01*
X15206D01*
X15229Y1251D01*
Y1181D01*
Y1228D02*
X15276Y1274D01*
X15136Y1321D02*
X15276Y1414D01*
X15136D02*
X15276Y1321D01*
X14427Y1181D02*
Y1274D01*
Y1228D01*
X14567D01*
X14427Y1321D02*
X14567Y1414D01*
X14427D02*
X14567Y1321D01*
X16081Y1353D02*
Y1260D01*
X16150D01*
X16127Y1306D01*
Y1330D01*
X16150Y1353D01*
X16197D01*
X16220Y1330D01*
Y1283D01*
X16197Y1260D01*
X15984Y1330D02*
X15844D01*
X15914Y1260D01*
Y1353D01*
X31417Y157D02*
X31237D01*
Y247D01*
X31267Y277D01*
X31327D01*
X31357Y247D01*
Y157D01*
X31237Y337D02*
Y397D01*
Y367D01*
X31417D01*
Y337D01*
Y397D01*
Y487D02*
X31237D01*
X31417Y607D01*
X31237D01*
X31417Y847D02*
Y907D01*
Y877D01*
X31237D01*
X31267Y847D01*
X31417Y1117D02*
Y997D01*
X31297Y1117D01*
X31267D01*
X31237Y1087D01*
Y1027D01*
X31267Y997D01*
X31417Y1297D02*
Y1177D01*
X31297Y1297D01*
X31267D01*
X31237Y1267D01*
Y1207D01*
X31267Y1177D01*
X1063Y157D02*
X883D01*
Y247D01*
X913Y277D01*
X973D01*
X1003Y247D01*
Y157D01*
X883Y337D02*
Y397D01*
Y367D01*
X1063D01*
Y337D01*
Y397D01*
Y487D02*
X883D01*
X1063Y607D01*
X883D01*
X1063Y847D02*
Y907D01*
Y877D01*
X883D01*
X913Y847D01*
X12598Y1654D02*
Y1833D01*
X12658Y1773D01*
X12718Y1833D01*
Y1654D01*
X12778D02*
Y1833D01*
X12838Y1773D01*
X12898Y1833D01*
Y1654D01*
X13078Y1804D02*
X13048Y1833D01*
X12988D01*
X12958Y1804D01*
Y1684D01*
X12988Y1654D01*
X13048D01*
X13078Y1684D01*
X13228Y1654D02*
Y1833D01*
X13138Y1744D01*
X13258D01*
X10000Y1654D02*
Y1833D01*
X10060Y1773D01*
X10120Y1833D01*
Y1654D01*
X10180D02*
Y1833D01*
X10240Y1773D01*
X10300Y1833D01*
Y1654D01*
X10480Y1804D02*
X10450Y1833D01*
X10390D01*
X10360Y1804D01*
Y1684D01*
X10390Y1654D01*
X10450D01*
X10480Y1684D01*
X10660Y1654D02*
X10540D01*
X10660Y1773D01*
Y1804D01*
X10630Y1833D01*
X10570D01*
X10540Y1804D01*
X7402Y1654D02*
Y1833D01*
X7462Y1773D01*
X7522Y1833D01*
Y1654D01*
X7582D02*
Y1833D01*
X7642Y1773D01*
X7701Y1833D01*
Y1654D01*
X7881Y1804D02*
X7851Y1833D01*
X7791D01*
X7761Y1804D01*
Y1684D01*
X7791Y1654D01*
X7851D01*
X7881Y1684D01*
X7941Y1804D02*
X7971Y1833D01*
X8031D01*
X8061Y1804D01*
Y1684D01*
X8031Y1654D01*
X7971D01*
X7941Y1684D01*
Y1804D01*
X135Y1813D02*
Y1693D01*
X225D01*
Y1753D01*
Y1693D01*
X315D01*
Y1873D02*
X135D01*
Y1963D01*
X165Y1993D01*
X225D01*
X255Y1963D01*
Y1873D01*
Y1933D02*
X315Y1993D01*
X135Y2143D02*
Y2083D01*
X165Y2053D01*
X285D01*
X315Y2083D01*
Y2143D01*
X285Y2173D01*
X165D01*
X135Y2143D01*
X315Y2233D02*
X135D01*
X315Y2353D01*
X135D01*
Y2413D02*
Y2533D01*
Y2473D01*
X315D01*
X1575Y1142D02*
Y1188D01*
Y1165D01*
X1435D01*
X1458Y1142D01*
X1575Y1352D02*
Y1258D01*
X1481Y1352D01*
X1458D01*
X1435Y1328D01*
Y1282D01*
X1458Y1258D01*
X1435Y1398D02*
X1528D01*
X1575Y1445D01*
X1528Y1492D01*
X1435D01*
X1811Y1220D02*
X1718D01*
X1671Y1267D01*
X1718Y1314D01*
X1811D01*
X1741D01*
Y1220D01*
X1811Y1360D02*
Y1407D01*
Y1384D01*
X1671D01*
X1694Y1360D01*
X2283Y1181D02*
X2190D01*
X2144Y1228D01*
X2190Y1274D01*
X2283D01*
X2213D01*
Y1181D01*
X2283Y1414D02*
Y1321D01*
X2190Y1414D01*
X2167D01*
X2144Y1391D01*
Y1344D01*
X2167Y1321D01*
X2520Y1181D02*
X2426D01*
X2380Y1228D01*
X2426Y1274D01*
X2520D01*
X2450D01*
Y1181D01*
X2403Y1321D02*
X2380Y1344D01*
Y1391D01*
X2403Y1414D01*
X2426D01*
X2450Y1391D01*
Y1368D01*
Y1391D01*
X2473Y1414D01*
X2496D01*
X2520Y1391D01*
Y1344D01*
X2496Y1321D01*
X2756Y1181D02*
X2663D01*
X2616Y1228D01*
X2663Y1274D01*
X2756D01*
X2686D01*
Y1181D01*
X2756Y1391D02*
X2616D01*
X2686Y1321D01*
Y1414D01*
X2992Y1181D02*
X2899D01*
X2852Y1228D01*
X2899Y1274D01*
X2992D01*
X2922D01*
Y1181D01*
X2852Y1414D02*
Y1321D01*
X2922D01*
X2899Y1368D01*
Y1391D01*
X2922Y1414D01*
X2969D01*
X2992Y1391D01*
Y1344D01*
X2969Y1321D01*
X3465Y1181D02*
X3371D01*
X3325Y1228D01*
X3371Y1274D01*
X3465D01*
X3395D01*
Y1181D01*
X3325Y1414D02*
X3348Y1368D01*
X3395Y1321D01*
X3441D01*
X3465Y1344D01*
Y1391D01*
X3441Y1414D01*
X3418D01*
X3395Y1391D01*
Y1321D01*
X3701Y1181D02*
X3607D01*
X3561Y1228D01*
X3607Y1274D01*
X3701D01*
X3631D01*
Y1181D01*
X3561Y1321D02*
Y1414D01*
X3584D01*
X3677Y1321D01*
X3701D01*
X20709Y1220D02*
Y1267D01*
Y1244D01*
X20569D01*
X20592Y1220D01*
X20569Y1430D02*
X20592Y1384D01*
X20639Y1337D01*
X20685D01*
X20709Y1360D01*
Y1407D01*
X20685Y1430D01*
X20662D01*
X20639Y1407D01*
Y1337D01*
X20945Y1220D02*
Y1267D01*
Y1244D01*
X20805D01*
X20828Y1220D01*
Y1337D02*
X20805Y1360D01*
Y1407D01*
X20828Y1430D01*
X20852D01*
X20875Y1407D01*
X20898Y1430D01*
X20922D01*
X20945Y1407D01*
Y1360D01*
X20922Y1337D01*
X20898D01*
X20875Y1360D01*
X20852Y1337D01*
X20828D01*
X20875Y1360D02*
Y1407D01*
X21417Y1274D02*
Y1181D01*
X21324Y1274D01*
X21301D01*
X21277Y1251D01*
Y1204D01*
X21301Y1181D01*
Y1321D02*
X21277Y1344D01*
Y1391D01*
X21301Y1414D01*
X21394D01*
X21417Y1391D01*
Y1344D01*
X21394Y1321D01*
X21301D01*
X21654Y1274D02*
Y1181D01*
X21560Y1274D01*
X21537D01*
X21514Y1251D01*
Y1204D01*
X21537Y1181D01*
X21654Y1414D02*
Y1321D01*
X21560Y1414D01*
X21537D01*
X21514Y1391D01*
Y1344D01*
X21537Y1321D01*
X22126Y1274D02*
Y1181D01*
X22033Y1274D01*
X22009D01*
X21986Y1251D01*
Y1204D01*
X22009Y1181D01*
X22126Y1391D02*
X21986D01*
X22056Y1321D01*
Y1414D01*
X22362Y1274D02*
Y1181D01*
X22269Y1274D01*
X22246D01*
X22222Y1251D01*
Y1204D01*
X22246Y1181D01*
X22222Y1414D02*
X22246Y1368D01*
X22292Y1321D01*
X22339D01*
X22362Y1344D01*
Y1391D01*
X22339Y1414D01*
X22316D01*
X22292Y1391D01*
Y1321D01*
X22835Y1274D02*
Y1181D01*
X22741Y1274D01*
X22718D01*
X22695Y1251D01*
Y1204D01*
X22718Y1181D01*
Y1321D02*
X22695Y1344D01*
Y1391D01*
X22718Y1414D01*
X22741D01*
X22765Y1391D01*
X22788Y1414D01*
X22811D01*
X22835Y1391D01*
Y1344D01*
X22811Y1321D01*
X22788D01*
X22765Y1344D01*
X22741Y1321D01*
X22718D01*
X22765Y1344D02*
Y1391D01*
X22954Y1181D02*
X22931Y1204D01*
Y1251D01*
X22954Y1274D01*
X22978D01*
X23001Y1251D01*
Y1228D01*
Y1251D01*
X23024Y1274D01*
X23048D01*
X23071Y1251D01*
Y1204D01*
X23048Y1181D01*
X22954Y1321D02*
X22931Y1344D01*
Y1391D01*
X22954Y1414D01*
X23048D01*
X23071Y1391D01*
Y1344D01*
X23048Y1321D01*
X22954D01*
X23427Y1181D02*
X23403Y1204D01*
Y1251D01*
X23427Y1274D01*
X23450D01*
X23473Y1251D01*
Y1228D01*
Y1251D01*
X23497Y1274D01*
X23520D01*
X23543Y1251D01*
Y1204D01*
X23520Y1181D01*
X23543Y1414D02*
Y1321D01*
X23450Y1414D01*
X23427D01*
X23403Y1391D01*
Y1344D01*
X23427Y1321D01*
X23663Y1181D02*
X23640Y1204D01*
Y1251D01*
X23663Y1274D01*
X23686D01*
X23710Y1251D01*
Y1228D01*
Y1251D01*
X23733Y1274D01*
X23756D01*
X23780Y1251D01*
Y1204D01*
X23756Y1181D01*
X23780Y1391D02*
X23640D01*
X23710Y1321D01*
Y1414D01*
X23899Y1181D02*
X23876Y1204D01*
Y1251D01*
X23899Y1274D01*
X23922D01*
X23946Y1251D01*
Y1228D01*
Y1251D01*
X23969Y1274D01*
X23992D01*
X24016Y1251D01*
Y1204D01*
X23992Y1181D01*
X23876Y1414D02*
X23899Y1368D01*
X23946Y1321D01*
X23992D01*
X24016Y1344D01*
Y1391D01*
X23992Y1414D01*
X23969D01*
X23946Y1391D01*
Y1321D01*
X24135Y1181D02*
X24112Y1204D01*
Y1251D01*
X24135Y1274D01*
X24159D01*
X24182Y1251D01*
Y1228D01*
Y1251D01*
X24205Y1274D01*
X24229D01*
X24252Y1251D01*
Y1204D01*
X24229Y1181D01*
X24135Y1321D02*
X24112Y1344D01*
Y1391D01*
X24135Y1414D01*
X24159D01*
X24182Y1391D01*
X24205Y1414D01*
X24229D01*
X24252Y1391D01*
Y1344D01*
X24229Y1321D01*
X24205D01*
X24182Y1344D01*
X24159Y1321D01*
X24135D01*
X24182Y1344D02*
Y1391D01*
X24488Y1251D02*
X24348D01*
X24418Y1181D01*
Y1274D01*
X24372Y1321D02*
X24348Y1344D01*
Y1391D01*
X24372Y1414D01*
X24465D01*
X24488Y1391D01*
Y1344D01*
X24465Y1321D01*
X24372D01*
X24724Y1251D02*
X24584D01*
X24654Y1181D01*
Y1274D01*
X24724Y1414D02*
Y1321D01*
X24631Y1414D01*
X24608D01*
X24584Y1391D01*
Y1344D01*
X24608Y1321D01*
X24961Y1251D02*
X24821D01*
X24891Y1181D01*
Y1274D01*
X24961Y1391D02*
X24821D01*
X24891Y1321D01*
Y1414D01*
X25433Y1251D02*
X25293D01*
X25363Y1181D01*
Y1274D01*
X25293Y1414D02*
X25316Y1368D01*
X25363Y1321D01*
X25410D01*
X25433Y1344D01*
Y1391D01*
X25410Y1414D01*
X25386D01*
X25363Y1391D01*
Y1321D01*
X26474Y1142D02*
X26614D01*
Y1235D01*
X26474Y1282D02*
X26614D01*
Y1352D01*
X26591Y1375D01*
X26498D01*
X26474Y1352D01*
Y1282D01*
Y1422D02*
X26614D01*
Y1492D01*
X26591Y1515D01*
X26568D01*
X26544Y1492D01*
Y1422D01*
Y1492D01*
X26521Y1515D01*
X26498D01*
X26474Y1492D01*
Y1422D01*
X26710Y1142D02*
X26850D01*
Y1235D01*
X26710Y1282D02*
X26850D01*
Y1352D01*
X26827Y1375D01*
X26734D01*
X26710Y1352D01*
Y1282D01*
X26850Y1422D02*
Y1468D01*
Y1445D01*
X26710D01*
X26734Y1422D01*
X26947Y1142D02*
X27087D01*
Y1235D01*
X26947Y1282D02*
X27087D01*
Y1352D01*
X27063Y1375D01*
X26970D01*
X26947Y1352D01*
Y1282D01*
X27087Y1515D02*
Y1422D01*
X26993Y1515D01*
X26970D01*
X26947Y1492D01*
Y1445D01*
X26970Y1422D01*
X27183Y1142D02*
X27323D01*
Y1235D01*
X27183Y1282D02*
X27323D01*
Y1352D01*
X27300Y1375D01*
X27206D01*
X27183Y1352D01*
Y1282D01*
X27206Y1422D02*
X27183Y1445D01*
Y1492D01*
X27206Y1515D01*
X27230D01*
X27253Y1492D01*
Y1468D01*
Y1492D01*
X27276Y1515D01*
X27300D01*
X27323Y1492D01*
Y1445D01*
X27300Y1422D01*
X29309Y1142D02*
X29449D01*
X29379D01*
Y1235D01*
X29309D01*
X29449D01*
Y1282D02*
X29356D01*
X29309Y1328D01*
X29356Y1375D01*
X29449D01*
X29379D01*
Y1282D01*
X29332Y1422D02*
X29309Y1445D01*
Y1492D01*
X29332Y1515D01*
X29425D01*
X29449Y1492D01*
Y1445D01*
X29425Y1422D01*
X29332D01*
X29545Y1142D02*
X29685D01*
X29615D01*
Y1235D01*
X29545D01*
X29685D01*
Y1282D02*
X29592D01*
X29545Y1328D01*
X29592Y1375D01*
X29685D01*
X29615D01*
Y1282D01*
X29685Y1515D02*
Y1422D01*
X29592Y1515D01*
X29568D01*
X29545Y1492D01*
Y1445D01*
X29568Y1422D01*
X29781Y1142D02*
X29921D01*
X29851D01*
Y1235D01*
X29781D01*
X29921D01*
Y1282D02*
X29828D01*
X29781Y1328D01*
X29828Y1375D01*
X29921D01*
X29851D01*
Y1282D01*
X29921Y1492D02*
X29781D01*
X29851Y1422D01*
Y1515D01*
X30018Y1142D02*
X30157D01*
X30087D01*
Y1235D01*
X30018D01*
X30157D01*
Y1282D02*
X30064D01*
X30018Y1328D01*
X30064Y1375D01*
X30157D01*
X30087D01*
Y1282D01*
X30018Y1515D02*
X30041Y1468D01*
X30087Y1422D01*
X30134D01*
X30157Y1445D01*
Y1492D01*
X30134Y1515D01*
X30111D01*
X30087Y1492D01*
Y1422D01*
X30472Y1833D02*
X30519D01*
X30496D01*
Y1693D01*
X30472D01*
X30519D01*
X30589D02*
Y1833D01*
X30659D01*
X30682Y1810D01*
Y1763D01*
X30659Y1740D01*
X30589D01*
X30729Y1693D02*
Y1833D01*
X30776Y1786D01*
X30822Y1833D01*
Y1693D01*
X30869Y1833D02*
Y1693D01*
X30939D01*
X30962Y1716D01*
Y1740D01*
X30939Y1763D01*
X30869D01*
X30939D01*
X30962Y1786D01*
Y1810D01*
X30939Y1833D01*
X30869D01*
X31009Y1693D02*
Y1786D01*
X31056Y1833D01*
X31102Y1786D01*
Y1693D01*
Y1763D01*
X31009D01*
X30513Y1235D02*
X30490Y1212D01*
Y1165D01*
X30513Y1142D01*
X30537D01*
X30560Y1165D01*
Y1212D01*
X30583Y1235D01*
X30607D01*
X30630Y1212D01*
Y1165D01*
X30607Y1142D01*
X30513Y1375D02*
X30490Y1352D01*
Y1305D01*
X30513Y1282D01*
X30607D01*
X30630Y1305D01*
Y1352D01*
X30607Y1375D01*
X30490Y1422D02*
X30630D01*
Y1515D01*
X30750Y1235D02*
X30726Y1212D01*
Y1165D01*
X30750Y1142D01*
X30773D01*
X30796Y1165D01*
Y1212D01*
X30819Y1235D01*
X30843D01*
X30866Y1212D01*
Y1165D01*
X30843Y1142D01*
X30726Y1282D02*
X30866D01*
Y1352D01*
X30843Y1375D01*
X30750D01*
X30726Y1352D01*
Y1282D01*
X30866Y1422D02*
X30773D01*
X30726Y1468D01*
X30773Y1515D01*
X30866D01*
X30796D01*
Y1422D01*
X27810Y1833D02*
X27763D01*
X27787D01*
Y1716D01*
X27763Y1693D01*
X27740D01*
X27717Y1716D01*
X27856Y1833D02*
X27950D01*
X27903D01*
Y1693D01*
X27996D02*
Y1786D01*
X28043Y1833D01*
X28090Y1786D01*
Y1693D01*
Y1763D01*
X27996D01*
X28230Y1810D02*
X28206Y1833D01*
X28160D01*
X28136Y1810D01*
Y1716D01*
X28160Y1693D01*
X28206D01*
X28230Y1716D01*
Y1763D01*
X28183D01*
X27795Y1142D02*
X27655D01*
Y1212D01*
X27679Y1235D01*
X27725D01*
X27749Y1212D01*
Y1142D01*
Y1188D02*
X27795Y1235D01*
X27679Y1375D02*
X27655Y1352D01*
Y1305D01*
X27679Y1282D01*
X27702D01*
X27725Y1305D01*
Y1352D01*
X27749Y1375D01*
X27772D01*
X27795Y1352D01*
Y1305D01*
X27772Y1282D01*
X27655Y1422D02*
Y1515D01*
Y1468D01*
X27795D01*
X27892Y1142D02*
Y1235D01*
Y1188D01*
X28031D01*
X27892Y1282D02*
X28031D01*
Y1352D01*
X28008Y1375D01*
X27915D01*
X27892Y1352D01*
Y1282D01*
Y1492D02*
Y1445D01*
X27915Y1422D01*
X28008D01*
X28031Y1445D01*
Y1492D01*
X28008Y1515D01*
X27915D01*
X27892Y1492D01*
X28128Y1142D02*
Y1235D01*
Y1188D01*
X28268D01*
Y1282D02*
X28128D01*
X28174Y1328D01*
X28128Y1375D01*
X28268D01*
X28151Y1515D02*
X28128Y1492D01*
Y1445D01*
X28151Y1422D01*
X28174D01*
X28198Y1445D01*
Y1492D01*
X28221Y1515D01*
X28244D01*
X28268Y1492D01*
Y1445D01*
X28244Y1422D01*
X28387Y1235D02*
X28364Y1212D01*
Y1165D01*
X28387Y1142D01*
X28481D01*
X28504Y1165D01*
Y1212D01*
X28481Y1235D01*
X28434D01*
Y1188D01*
X28504Y1282D02*
X28364D01*
X28504Y1375D01*
X28364D01*
Y1422D02*
X28504D01*
Y1492D01*
X28481Y1515D01*
X28387D01*
X28364Y1492D01*
Y1422D01*
X28600Y1142D02*
Y1235D01*
Y1188D01*
X28740D01*
X28600Y1282D02*
X28740D01*
Y1352D01*
X28717Y1375D01*
X28624D01*
X28600Y1352D01*
Y1282D01*
Y1492D02*
Y1445D01*
X28624Y1422D01*
X28717D01*
X28740Y1445D01*
Y1492D01*
X28717Y1515D01*
X28624D01*
X28600Y1492D01*
X28836Y1142D02*
Y1235D01*
Y1188D01*
X28976D01*
Y1282D02*
X28836D01*
X28883Y1328D01*
X28836Y1375D01*
X28976D01*
X28860Y1515D02*
X28836Y1492D01*
Y1445D01*
X28860Y1422D01*
X28883D01*
X28906Y1445D01*
Y1492D01*
X28930Y1515D01*
X28953D01*
X28976Y1492D01*
Y1445D01*
X28953Y1422D01*
X27717Y2069D02*
X27810D01*
Y2046D01*
X27717Y1952D01*
Y1929D01*
X27810D01*
X27856Y2069D02*
Y2046D01*
X27903Y1999D01*
X27950Y2046D01*
Y2069D01*
X27903Y1999D02*
Y1929D01*
X27996D02*
Y2069D01*
X28090Y1929D01*
Y2069D01*
X28230Y1952D02*
Y2046D01*
X28206Y2069D01*
X28160D01*
X28136Y2046D01*
Y1952D01*
X28160Y1929D01*
X28206D01*
X28183Y1976D02*
X28230Y1929D01*
X28206D02*
X28230Y1952D01*
D145*
X2642Y8263D02*
X2762D01*
X2622Y8253D02*
X2782D01*
X2602Y8243D02*
X2802D01*
X2592Y8233D02*
X2692D01*
X2712D02*
X2812D01*
X2582Y8223D02*
X2642D01*
X2762D02*
X2822D01*
X2572Y8213D02*
X2622D01*
X2782D02*
X2832D01*
X2562Y8203D02*
X2612D01*
X2792D02*
X2842D01*
X2552Y8193D02*
X2602D01*
X2802D02*
X2852D01*
X2552Y8183D02*
X2592D01*
X2812D02*
X2852D01*
X2542Y8173D02*
X2582D01*
X2822D02*
X2862D01*
X2542Y8163D02*
X2582D01*
X2822D02*
X2862D01*
X2532Y8153D02*
X2572D01*
X2832D02*
X2872D01*
X2532Y8143D02*
X2582D01*
X2822D02*
X2872D01*
X2502Y8133D02*
X2612D01*
X2792D02*
X2902D01*
X2472Y8123D02*
X2632D01*
X2772D02*
X2932D01*
X2462Y8113D02*
X2652D01*
X2752D02*
X2942D01*
X2442Y8103D02*
X2522D01*
X2592D02*
X2662D01*
X2742D02*
X2812D01*
X2882D02*
X2962D01*
X2432Y8093D02*
X2492D01*
X2622D02*
X2672D01*
X2732D02*
X2782D01*
X2912D02*
X2972D01*
X2422Y8083D02*
X2472D01*
X2642D02*
X2682D01*
X2722D02*
X2762D01*
X2932D02*
X2982D01*
X2412Y8073D02*
X2462D01*
X2652D02*
X2692D01*
X2712D02*
X2752D01*
X2942D02*
X2992D01*
X2402Y8063D02*
X2452D01*
X2662D02*
X2742D01*
X2952D02*
X3002D01*
X2392Y8053D02*
X2442D01*
X2672D02*
X2732D01*
X2962D02*
X3012D01*
X2392Y8043D02*
X2432D01*
X2672D02*
X2732D01*
X2972D02*
X3012D01*
X2312Y8033D02*
X2442D01*
X2682D02*
X2722D01*
X2962D02*
X3092D01*
X2262Y8023D02*
X2482D01*
X2682D02*
X2722D01*
X2922D02*
X3142D01*
X2232Y8013D02*
X2512D01*
X2692D02*
X2712D01*
X2892D02*
X3172D01*
X2202Y8003D02*
X2532D01*
X2692D02*
X2712D01*
X2872D02*
X3202D01*
X2182Y7993D02*
X2312D01*
X2452D02*
X2542D01*
X2862D02*
X2952D01*
X3092D02*
X3222D01*
X2162Y7983D02*
X2262D01*
X2492D02*
X2562D01*
X2842D02*
X2912D01*
X3142D02*
X3242D01*
X2142Y7973D02*
X2232D01*
X2512D02*
X2572D01*
X2832D02*
X2892D01*
X3172D02*
X3262D01*
X2132Y7963D02*
X2212D01*
X2532D02*
X2582D01*
X2822D02*
X2872D01*
X3192D02*
X3272D01*
X2112Y7953D02*
X2182D01*
X2542D02*
X2592D01*
X2812D02*
X2862D01*
X3222D02*
X3292D01*
X2102Y7943D02*
X2172D01*
X2552D02*
X2602D01*
X2802D02*
X2852D01*
X3232D02*
X3302D01*
X2082Y7933D02*
X2152D01*
X2562D02*
X2612D01*
X2792D02*
X2842D01*
X3252D02*
X3322D01*
X2072Y7923D02*
X2132D01*
X2572D02*
X2612D01*
X2792D02*
X2832D01*
X3272D02*
X3332D01*
X2062Y7913D02*
X2122D01*
X2582D02*
X2622D01*
X2782D02*
X2822D01*
X3282D02*
X3342D01*
X2052Y7903D02*
X2102D01*
X2332D02*
X2402D01*
X2592D02*
X2632D01*
X2772D02*
X2812D01*
X3002D02*
X3072D01*
X3302D02*
X3352D01*
X2042Y7893D02*
X2092D01*
X2282D02*
X2432D01*
X2592D02*
X2632D01*
X2772D02*
X2812D01*
X2972D02*
X3122D01*
X3312D02*
X3362D01*
X2022Y7883D02*
X2082D01*
X2252D02*
X2442D01*
X2602D02*
X2642D01*
X2762D02*
X2802D01*
X2962D02*
X3152D01*
X3322D02*
X3382D01*
X2012Y7873D02*
X2072D01*
X2222D02*
X2462D01*
X2612D02*
X2642D01*
X2762D02*
X2792D01*
X2942D02*
X3182D01*
X3332D02*
X3392D01*
X2012Y7863D02*
X2052D01*
X2202D02*
X2322D01*
X2412D02*
X2472D01*
X2612D02*
X2652D01*
X2752D02*
X2792D01*
X2932D02*
X2992D01*
X3082D02*
X3202D01*
X3352D02*
X3392D01*
X2002Y7853D02*
X2042D01*
X2192D02*
X2282D01*
X2432D02*
X2482D01*
X2622D02*
X2652D01*
X2752D02*
X2782D01*
X2922D02*
X2972D01*
X3122D02*
X3212D01*
X3362D02*
X3402D01*
X1992Y7843D02*
X2032D01*
X2172D02*
X2252D01*
X2442D02*
X2482D01*
X2622D02*
X2662D01*
X2742D02*
X2782D01*
X2922D02*
X2962D01*
X3152D02*
X3232D01*
X3372D02*
X3412D01*
X1982Y7833D02*
X2022D01*
X2162D02*
X2232D01*
X2452D02*
X2492D01*
X2622D02*
X2662D01*
X2742D02*
X2782D01*
X2912D02*
X2952D01*
X3172D02*
X3242D01*
X3382D02*
X3422D01*
X1972Y7823D02*
X2022D01*
X2142D02*
X2212D01*
X2372D02*
X2402D01*
X2462D02*
X2502D01*
X2632D02*
X2662D01*
X2742D02*
X2772D01*
X2902D02*
X2942D01*
X3002D02*
X3032D01*
X3192D02*
X3262D01*
X3382D02*
X3432D01*
X1962Y7813D02*
X2012D01*
X2132D02*
X2192D01*
X2362D02*
X2422D01*
X2462D02*
X2502D01*
X2632D02*
X2672D01*
X2732D02*
X2772D01*
X2902D02*
X2942D01*
X2982D02*
X3042D01*
X3212D02*
X3272D01*
X3392D02*
X3442D01*
X1952Y7803D02*
X2002D01*
X2122D02*
X2182D01*
X2352D02*
X2432D01*
X2472D02*
X2512D01*
X2632D02*
X2672D01*
X2732D02*
X2772D01*
X2892D02*
X2932D01*
X2972D02*
X3052D01*
X3222D02*
X3282D01*
X3402D02*
X3452D01*
X1952Y7793D02*
X1992D01*
X2112D02*
X2162D01*
X2342D02*
X2442D01*
X2472D02*
X2512D01*
X2632D02*
X2672D01*
X2732D02*
X2772D01*
X2892D02*
X2932D01*
X2962D02*
X3062D01*
X3242D02*
X3292D01*
X3412D02*
X3452D01*
X1942Y7783D02*
X1982D01*
X2102D02*
X2152D01*
X2342D02*
X2382D01*
X2402D02*
X2452D01*
X2472D02*
X2512D01*
X2642D02*
X2672D01*
X2732D02*
X2762D01*
X2892D02*
X2932D01*
X2952D02*
X3002D01*
X3022D02*
X3062D01*
X3252D02*
X3302D01*
X3422D02*
X3462D01*
X1932Y7773D02*
X1972D01*
X2092D02*
X2142D01*
X2332D02*
X2372D01*
X2412D02*
X2452D01*
X2482D02*
X2512D01*
X2642D02*
X2672D01*
X2732D02*
X2762D01*
X2892D02*
X2922D01*
X2952D02*
X2992D01*
X3032D02*
X3072D01*
X3262D02*
X3312D01*
X3432D02*
X3472D01*
X1932Y7763D02*
X1972D01*
X2082D02*
X2132D01*
X2332D02*
X2362D01*
X2412D02*
X2452D01*
X2482D02*
X2522D01*
X2642D02*
X2682D01*
X2722D02*
X2762D01*
X2882D02*
X2922D01*
X2952D02*
X2992D01*
X3042D02*
X3072D01*
X3272D02*
X3322D01*
X3432D02*
X3472D01*
X1922Y7753D02*
X1962D01*
X2072D02*
X2122D01*
X2332D02*
X2362D01*
X2422D02*
X2452D01*
X2482D02*
X2522D01*
X2642D02*
X2682D01*
X2722D02*
X2762D01*
X2882D02*
X2922D01*
X2952D02*
X2982D01*
X3042D02*
X3072D01*
X3282D02*
X3332D01*
X3442D02*
X3482D01*
X1912Y7743D02*
X1952D01*
X2062D02*
X2112D01*
X2322D02*
X2362D01*
X2382D02*
X2392D01*
X2422D02*
X2462D01*
X2482D02*
X2522D01*
X2642D02*
X2682D01*
X2722D02*
X2762D01*
X2882D02*
X2922D01*
X2942D02*
X2982D01*
X3012D02*
X3022D01*
X3042D02*
X3082D01*
X3292D02*
X3342D01*
X3452D02*
X3492D01*
X1912Y7733D02*
X1952D01*
X2052D02*
X2102D01*
X2322D02*
X2352D01*
X2372D02*
X2402D01*
X2422D02*
X2462D01*
X2482D02*
X2522D01*
X2642D02*
X2682D01*
X2722D02*
X2762D01*
X2882D02*
X2922D01*
X2942D02*
X2982D01*
X3002D02*
X3032D01*
X3052D02*
X3082D01*
X3302D02*
X3352D01*
X3452D02*
X3492D01*
X1902Y7723D02*
X1942D01*
X2052D02*
X2092D01*
X2322D02*
X2352D01*
X2362D02*
X2402D01*
X2422D02*
X2462D01*
X2482D02*
X2522D01*
X2642D02*
X2682D01*
X2722D02*
X2762D01*
X2882D02*
X2922D01*
X2942D02*
X2982D01*
X3002D02*
X3042D01*
X3052D02*
X3082D01*
X3312D02*
X3352D01*
X3462D02*
X3502D01*
X1902Y7713D02*
X1942D01*
X2042D02*
X2082D01*
X2322D02*
X2352D01*
X2362D02*
X2402D01*
X2422D02*
X2462D01*
X2482D02*
X2522D01*
X2642D02*
X2682D01*
X2722D02*
X2762D01*
X2882D02*
X2922D01*
X2942D02*
X2982D01*
X3002D02*
X3042D01*
X3052D02*
X3082D01*
X3322D02*
X3362D01*
X3462D02*
X3502D01*
X1892Y7703D02*
X1932D01*
X2032D02*
X2072D01*
X2322D02*
X2352D01*
X2362D02*
X2392D01*
X2422D02*
X2462D01*
X2482D02*
X2522D01*
X2642D02*
X2682D01*
X2722D02*
X2762D01*
X2882D02*
X2922D01*
X2942D02*
X2982D01*
X3012D02*
X3042D01*
X3052D02*
X3082D01*
X3332D02*
X3372D01*
X3472D02*
X3512D01*
X1882Y7693D02*
X1922D01*
X2022D02*
X2082D01*
X2322D02*
X2352D01*
X2362D02*
X2392D01*
X2422D02*
X2452D01*
X2482D02*
X2522D01*
X2632D02*
X2672D01*
X2732D02*
X2772D01*
X2882D02*
X2922D01*
X2952D02*
X2982D01*
X3012D02*
X3042D01*
X3052D02*
X3082D01*
X3322D02*
X3382D01*
X3482D02*
X3522D01*
X1882Y7683D02*
X1922D01*
X2022D02*
X2082D01*
X2322D02*
X2352D01*
X2362D02*
X2392D01*
X2422D02*
X2452D01*
X2482D02*
X2522D01*
X2632D02*
X2672D01*
X2732D02*
X2772D01*
X2882D02*
X2922D01*
X2952D02*
X2982D01*
X3012D02*
X3042D01*
X3052D02*
X3082D01*
X3322D02*
X3382D01*
X3482D02*
X3522D01*
X1872Y7673D02*
X1912D01*
X2012D02*
X2052D01*
X2062D02*
X2092D01*
X2322D02*
X2352D01*
X2362D02*
X2392D01*
X2412D02*
X2452D01*
X2482D02*
X2512D01*
X2632D02*
X2672D01*
X2732D02*
X2772D01*
X2892D02*
X2922D01*
X2952D02*
X2992D01*
X3012D02*
X3042D01*
X3052D02*
X3082D01*
X3312D02*
X3342D01*
X3352D02*
X3392D01*
X3492D02*
X3532D01*
X1872Y7663D02*
X1912D01*
X2012D02*
X2052D01*
X2062D02*
X2092D01*
X2322D02*
X2352D01*
X2362D02*
X2452D01*
X2472D02*
X2512D01*
X2622D02*
X2672D01*
X2732D02*
X2782D01*
X2892D02*
X2932D01*
X2952D02*
X3042D01*
X3052D02*
X3082D01*
X3312D02*
X3342D01*
X3352D02*
X3392D01*
X3492D02*
X3532D01*
X1862Y7653D02*
X1902D01*
X2002D02*
X2042D01*
X2072D02*
X2102D01*
X2322D02*
X2352D01*
X2362D02*
X2442D01*
X2472D02*
X2512D01*
X2622D02*
X2662D01*
X2742D02*
X2782D01*
X2892D02*
X2932D01*
X2962D02*
X3042D01*
X3052D02*
X3082D01*
X3302D02*
X3332D01*
X3362D02*
X3402D01*
X3502D02*
X3542D01*
X1862Y7643D02*
X1902D01*
X1992D02*
X2032D01*
X2072D02*
X2102D01*
X2322D02*
X2352D01*
X2372D02*
X2442D01*
X2472D02*
X2502D01*
X2612D02*
X2662D01*
X2742D02*
X2792D01*
X2902D02*
X2932D01*
X2962D02*
X3032D01*
X3052D02*
X3082D01*
X3302D02*
X3332D01*
X3372D02*
X3412D01*
X3502D02*
X3542D01*
X1852Y7633D02*
X1892D01*
X1992D02*
X2032D01*
X2082D02*
X2112D01*
X2322D02*
X2352D01*
X2372D02*
X2432D01*
X2462D02*
X2502D01*
X2602D02*
X2652D01*
X2752D02*
X2802D01*
X2902D02*
X2942D01*
X2972D02*
X3032D01*
X3052D02*
X3082D01*
X3292D02*
X3322D01*
X3372D02*
X3412D01*
X3512D02*
X3552D01*
X1852Y7623D02*
X1892D01*
X1982D02*
X2022D01*
X2092D02*
X2122D01*
X2322D02*
X2362D01*
X2382D02*
X2422D01*
X2452D02*
X2502D01*
X2592D02*
X2652D01*
X2752D02*
X2812D01*
X2902D02*
X2952D01*
X2982D02*
X3022D01*
X3042D02*
X3082D01*
X3282D02*
X3312D01*
X3382D02*
X3422D01*
X3512D02*
X3552D01*
X1852Y7613D02*
X1882D01*
X1982D02*
X2022D01*
X2092D02*
X2132D01*
X2322D02*
X2362D01*
X2392D02*
X2412D01*
X2452D02*
X2492D01*
X2582D02*
X2642D01*
X2762D02*
X2822D01*
X2912D02*
X2952D01*
X2992D02*
X3012D01*
X3042D02*
X3082D01*
X3272D02*
X3312D01*
X3382D02*
X3422D01*
X3522D02*
X3552D01*
X1842Y7603D02*
X1882D01*
X1972D02*
X2012D01*
X2102D02*
X2142D01*
X2332D02*
X2372D01*
X2442D02*
X2482D01*
X2562D02*
X2632D01*
X2772D02*
X2842D01*
X2922D02*
X2962D01*
X3032D02*
X3072D01*
X3262D02*
X3302D01*
X3392D02*
X3432D01*
X3522D02*
X3562D01*
X1842Y7593D02*
X1882D01*
X1972D02*
X2012D01*
X2112D02*
X2142D01*
X2332D02*
X2382D01*
X2432D02*
X2482D01*
X2542D02*
X2622D01*
X2782D02*
X2862D01*
X2922D02*
X2972D01*
X3022D02*
X3072D01*
X3262D02*
X3292D01*
X3392D02*
X3432D01*
X3522D02*
X3562D01*
X1832Y7583D02*
X1872D01*
X1962D02*
X2002D01*
X2122D02*
X2152D01*
X2342D02*
X2472D01*
X2502D02*
X2612D01*
X2792D02*
X2902D01*
X2932D02*
X3062D01*
X3252D02*
X3282D01*
X3402D02*
X3442D01*
X3532D02*
X3572D01*
X1832Y7573D02*
X1872D01*
X1962D02*
X2002D01*
X2132D02*
X2162D01*
X2342D02*
X2592D01*
X2812D02*
X3062D01*
X3242D02*
X3272D01*
X3402D02*
X3442D01*
X3532D02*
X3572D01*
X1832Y7563D02*
X1862D01*
X1952D02*
X1992D01*
X2142D02*
X2172D01*
X2352D02*
X2582D01*
X2822D02*
X3052D01*
X3232D02*
X3262D01*
X3412D02*
X3452D01*
X3542D02*
X3572D01*
X1822Y7553D02*
X1862D01*
X1952D02*
X1992D01*
X2152D02*
X2182D01*
X2362D02*
X2552D01*
X2852D02*
X3042D01*
X3222D02*
X3252D01*
X3412D02*
X3452D01*
X3542D02*
X3582D01*
X1822Y7543D02*
X1862D01*
X1952D02*
X1982D01*
X2162D02*
X2202D01*
X2372D02*
X2512D01*
X2892D02*
X3032D01*
X3202D02*
X3242D01*
X3422D02*
X3452D01*
X3542D02*
X3582D01*
X1812Y7533D02*
X1852D01*
X1942D02*
X1982D01*
X2172D02*
X2212D01*
X3192D02*
X3232D01*
X3422D02*
X3462D01*
X3552D02*
X3592D01*
X1812Y7523D02*
X1852D01*
X1942D02*
X1972D01*
X2182D02*
X2222D01*
X3182D02*
X3222D01*
X3432D02*
X3462D01*
X3552D02*
X3592D01*
X1812Y7513D02*
X1842D01*
X1932D02*
X1972D01*
X2192D02*
X2232D01*
X3172D02*
X3212D01*
X3432D02*
X3472D01*
X3562D02*
X3592D01*
X1802Y7503D02*
X1842D01*
X1932D02*
X1972D01*
X2202D02*
X2252D01*
X3152D02*
X3202D01*
X3432D02*
X3472D01*
X3562D02*
X3602D01*
X1802Y7493D02*
X1842D01*
X1932D02*
X1962D01*
X2222D02*
X2262D01*
X3142D02*
X3182D01*
X3442D02*
X3472D01*
X3562D02*
X3602D01*
X1802Y7483D02*
X1832D01*
X1922D02*
X1962D01*
X2232D02*
X2282D01*
X3122D02*
X3172D01*
X3442D02*
X3482D01*
X3572D02*
X3602D01*
X1792Y7473D02*
X1832D01*
X1922D02*
X1962D01*
X2242D02*
X2292D01*
X2412D02*
X2592D01*
X2812D02*
X2992D01*
X3112D02*
X3162D01*
X3442D02*
X3482D01*
X3572D02*
X3612D01*
X1792Y7463D02*
X1832D01*
X1922D02*
X1952D01*
X2262D02*
X2312D01*
X2372D02*
X2642D01*
X2762D02*
X3032D01*
X3092D02*
X3142D01*
X3452D02*
X3482D01*
X3572D02*
X3612D01*
X1792Y7453D02*
X1832D01*
X1912D02*
X1952D01*
X2272D02*
X2322D01*
X2352D02*
X2682D01*
X2722D02*
X3052D01*
X3082D02*
X3132D01*
X3452D02*
X3492D01*
X3572D02*
X3612D01*
X1792Y7443D02*
X1822D01*
X1912D02*
X1952D01*
X2292D02*
X3112D01*
X3452D02*
X3492D01*
X3582D02*
X3612D01*
X1782Y7433D02*
X1822D01*
X1912D02*
X1942D01*
X2312D02*
X3092D01*
X3462D02*
X3492D01*
X3582D02*
X3622D01*
X1782Y7423D02*
X1822D01*
X1902D02*
X1942D01*
X2292D02*
X3112D01*
X3462D02*
X3502D01*
X3582D02*
X3622D01*
X1782Y7413D02*
X1822D01*
X1902D02*
X1942D01*
X2282D02*
X3122D01*
X3462D02*
X3502D01*
X3582D02*
X3622D01*
X1782Y7403D02*
X1812D01*
X1902D02*
X1932D01*
X2272D02*
X3132D01*
X3472D02*
X3502D01*
X3592D02*
X3622D01*
X1772Y7393D02*
X1812D01*
X1902D02*
X1932D01*
X2262D02*
X3142D01*
X3472D02*
X3502D01*
X3592D02*
X3632D01*
X1772Y7383D02*
X1812D01*
X1892D02*
X1932D01*
X2242D02*
X3152D01*
X3472D02*
X3512D01*
X3592D02*
X3632D01*
X1772Y7373D02*
X1812D01*
X1892D02*
X1932D01*
X2232D02*
X3162D01*
X3472D02*
X3512D01*
X3592D02*
X3632D01*
X1772Y7363D02*
X1802D01*
X1892D02*
X1922D01*
X2222D02*
X3172D01*
X3482D02*
X3512D01*
X3602D02*
X3632D01*
X1762Y7353D02*
X1802D01*
X1892D02*
X1922D01*
X2222D02*
X3182D01*
X3482D02*
X3512D01*
X3602D02*
X3642D01*
X1762Y7343D02*
X1802D01*
X1882D02*
X1922D01*
X2212D02*
X3192D01*
X3482D02*
X3522D01*
X3602D02*
X3642D01*
X1762Y7333D02*
X1802D01*
X1882D02*
X1922D01*
X2202D02*
X3202D01*
X3482D02*
X3522D01*
X3602D02*
X3642D01*
X1762Y7323D02*
X1802D01*
X1882D02*
X1912D01*
X2192D02*
X3212D01*
X3492D02*
X3522D01*
X3602D02*
X3642D01*
X1762Y7313D02*
X1792D01*
X1882D02*
X1912D01*
X2192D02*
X3212D01*
X3492D02*
X3522D01*
X3612D02*
X3642D01*
X1752Y7303D02*
X1792D01*
X1882D02*
X1912D01*
X2182D02*
X3222D01*
X3492D02*
X3522D01*
X3612D02*
X3652D01*
X1752Y7293D02*
X1792D01*
X1872D02*
X1912D01*
X2172D02*
X3232D01*
X3492D02*
X3532D01*
X3612D02*
X3652D01*
X1752Y7283D02*
X1792D01*
X1872D02*
X1912D01*
X2172D02*
X3232D01*
X3492D02*
X3532D01*
X3612D02*
X3652D01*
X1752Y7273D02*
X1792D01*
X1872D02*
X1912D01*
X2162D02*
X3242D01*
X3492D02*
X3532D01*
X3612D02*
X3652D01*
X1752Y7263D02*
X1792D01*
X1872D02*
X1902D01*
X2162D02*
X3242D01*
X3502D02*
X3532D01*
X3612D02*
X3652D01*
X1752Y7253D02*
X1782D01*
X1872D02*
X1902D01*
X2152D02*
X3252D01*
X3502D02*
X3532D01*
X3622D02*
X3652D01*
X1752Y7243D02*
X1782D01*
X1862D02*
X1902D01*
X2142D02*
X3252D01*
X3502D02*
X3542D01*
X3622D02*
X3652D01*
X1742Y7233D02*
X1782D01*
X1862D02*
X1902D01*
X2142D02*
X3262D01*
X3502D02*
X3542D01*
X3622D02*
X3662D01*
X1742Y7223D02*
X1782D01*
X1862D02*
X1902D01*
X2142D02*
X3262D01*
X3502D02*
X3542D01*
X3622D02*
X3662D01*
X1742Y7213D02*
X1782D01*
X1862D02*
X1902D01*
X2132D02*
X2682D01*
X2702D02*
X3272D01*
X3502D02*
X3542D01*
X3622D02*
X3662D01*
X1742Y7203D02*
X1782D01*
X1862D02*
X1892D01*
X2132D02*
X2682D01*
X2712D02*
X3272D01*
X3512D02*
X3542D01*
X3622D02*
X3662D01*
X1742Y7193D02*
X1782D01*
X1862D02*
X1892D01*
X2122D02*
X2672D01*
X2712D02*
X3282D01*
X3512D02*
X3542D01*
X3622D02*
X3662D01*
X1742Y7183D02*
X1782D01*
X1862D02*
X1892D01*
X2122D02*
X2672D01*
X2712D02*
X3282D01*
X3512D02*
X3542D01*
X3622D02*
X3662D01*
X1742Y7173D02*
X1772D01*
X1862D02*
X1892D01*
X2122D02*
X2672D01*
X2712D02*
X3282D01*
X3512D02*
X3542D01*
X3632D02*
X3662D01*
X1742Y7163D02*
X1772D01*
X1852D02*
X1892D01*
X2112D02*
X2672D01*
X2712D02*
X3292D01*
X3512D02*
X3552D01*
X3632D02*
X3662D01*
X1742Y7153D02*
X1772D01*
X1852D02*
X1892D01*
X2112D02*
X2672D01*
X2722D02*
X3292D01*
X3512D02*
X3552D01*
X3632D02*
X3662D01*
X1732Y7143D02*
X1772D01*
X1852D02*
X1892D01*
X2102D02*
X2672D01*
X2722D02*
X3292D01*
X3512D02*
X3552D01*
X3632D02*
X3672D01*
X1732Y7133D02*
X1772D01*
X1852D02*
X1892D01*
X2102D02*
X2672D01*
X2722D02*
X3302D01*
X3512D02*
X3552D01*
X3632D02*
X3672D01*
X1732Y7123D02*
X1772D01*
X1852D02*
X1892D01*
X2102D02*
X2662D01*
X2722D02*
X3302D01*
X3512D02*
X3552D01*
X3632D02*
X3672D01*
X1732Y7113D02*
X1772D01*
X1852D02*
X1892D01*
X2102D02*
X2222D01*
X2432D02*
X2662D01*
X2722D02*
X2992D01*
X3182D02*
X3302D01*
X3512D02*
X3552D01*
X3632D02*
X3672D01*
X1732Y7103D02*
X1772D01*
X1852D02*
X1892D01*
X2092D02*
X2222D01*
X2432D02*
X2662D01*
X2732D02*
X2992D01*
X3182D02*
X3312D01*
X3512D02*
X3552D01*
X3632D02*
X3672D01*
X1732Y7093D02*
X1772D01*
X1852D02*
X1892D01*
X2092D02*
X2222D01*
X2432D02*
X2662D01*
X2732D02*
X2992D01*
X3182D02*
X3312D01*
X3512D02*
X3552D01*
X3632D02*
X3672D01*
X1732Y7083D02*
X1772D01*
X1852D02*
X1912D01*
X2092D02*
X2222D01*
X2432D02*
X2662D01*
X2732D02*
X2992D01*
X3182D02*
X3312D01*
X3492D02*
X3552D01*
X3632D02*
X3672D01*
X1732Y7073D02*
X1772D01*
X1852D02*
X1942D01*
X2092D02*
X2222D01*
X2432D02*
X2662D01*
X2732D02*
X2992D01*
X3182D02*
X3312D01*
X3462D02*
X3552D01*
X3632D02*
X3672D01*
X1732Y7063D02*
X1772D01*
X1852D02*
X1882D01*
X1892D02*
X1962D01*
X2082D02*
X2222D01*
X2412D02*
X2422D01*
X2432D02*
X2652D01*
X2732D02*
X2992D01*
X3182D02*
X3322D01*
X3442D02*
X3512D01*
X3522D02*
X3552D01*
X3632D02*
X3672D01*
X1732Y7053D02*
X1762D01*
X1852D02*
X1882D01*
X1912D02*
X2002D01*
X2082D02*
X2252D01*
X2392D02*
X2652D01*
X2742D02*
X3042D01*
X3152D02*
X3322D01*
X3402D02*
X3492D01*
X3522D02*
X3552D01*
X3642D02*
X3672D01*
X1732Y7043D02*
X1762D01*
X1852D02*
X1882D01*
X1942D02*
X2052D01*
X2082D02*
X2262D01*
X2382D02*
X2652D01*
X2742D02*
X3052D01*
X3142D02*
X3322D01*
X3352D02*
X3462D01*
X3522D02*
X3552D01*
X3642D02*
X3672D01*
X1732Y7033D02*
X1762D01*
X1852D02*
X1882D01*
X1972D02*
X2262D01*
X2382D02*
X2652D01*
X2742D02*
X3052D01*
X3132D02*
X3432D01*
X3522D02*
X3552D01*
X3642D02*
X3672D01*
X1732Y7023D02*
X1762D01*
X1852D02*
X1882D01*
X2012D02*
X2262D01*
X2382D02*
X2652D01*
X2742D02*
X3052D01*
X3132D02*
X3392D01*
X3522D02*
X3552D01*
X3642D02*
X3672D01*
X1732Y7013D02*
X1762D01*
X1842D02*
X1882D01*
X2082D02*
X2272D01*
X2382D02*
X2652D01*
X2742D02*
X3052D01*
X3132D02*
X3322D01*
X3522D02*
X3562D01*
X3642D02*
X3672D01*
X1732Y7003D02*
X1762D01*
X1842D02*
X1882D01*
X2072D02*
X2272D01*
X2382D02*
X2642D01*
X2752D02*
X3052D01*
X3122D02*
X3332D01*
X3522D02*
X3562D01*
X3642D02*
X3672D01*
X1732Y6993D02*
X1762D01*
X1842D02*
X1882D01*
X2072D02*
X2272D01*
X2382D02*
X2642D01*
X2752D02*
X3052D01*
X3122D02*
X3332D01*
X3522D02*
X3562D01*
X3642D02*
X3672D01*
X1732Y6983D02*
X1762D01*
X1842D02*
X1882D01*
X2072D02*
X2272D01*
X2392D02*
X2642D01*
X2752D02*
X3042D01*
X3122D02*
X3332D01*
X3522D02*
X3562D01*
X3642D02*
X3672D01*
X1732Y6973D02*
X1762D01*
X1842D02*
X1882D01*
X2072D02*
X2272D01*
X2392D02*
X2642D01*
X2752D02*
X3042D01*
X3122D02*
X3332D01*
X3522D02*
X3562D01*
X3642D02*
X3672D01*
X1732Y6963D02*
X1762D01*
X1842D02*
X1882D01*
X2072D02*
X2282D01*
X2392D02*
X2642D01*
X2762D02*
X3042D01*
X3122D02*
X3332D01*
X3522D02*
X3562D01*
X3642D02*
X3672D01*
X1732Y6953D02*
X1762D01*
X1842D02*
X1882D01*
X2072D02*
X2282D01*
X2392D02*
X2642D01*
X2762D02*
X3042D01*
X3112D02*
X3332D01*
X3522D02*
X3562D01*
X3642D02*
X3672D01*
X1732Y6943D02*
X1762D01*
X1842D02*
X1882D01*
X2072D02*
X2282D01*
X2402D02*
X2642D01*
X2762D02*
X3032D01*
X3112D02*
X3332D01*
X3522D02*
X3562D01*
X3642D02*
X3672D01*
X1732Y6933D02*
X1762D01*
X1842D02*
X1882D01*
X2072D02*
X2282D01*
X2402D02*
X2632D01*
X2762D02*
X3032D01*
X3112D02*
X3332D01*
X3522D02*
X3562D01*
X3642D02*
X3672D01*
X1732Y6923D02*
X1762D01*
X1842D02*
X1882D01*
X2072D02*
X2292D01*
X2402D02*
X2632D01*
X2762D02*
X3032D01*
X3112D02*
X3332D01*
X3522D02*
X3562D01*
X3642D02*
X3672D01*
X1732Y6913D02*
X1762D01*
X1842D02*
X1882D01*
X2072D02*
X2292D01*
X2402D02*
X2632D01*
X2772D02*
X3032D01*
X3102D02*
X3332D01*
X3522D02*
X3562D01*
X3642D02*
X3672D01*
X1732Y6903D02*
X1762D01*
X1842D02*
X1882D01*
X2072D02*
X2292D01*
X2412D02*
X2632D01*
X2772D02*
X3022D01*
X3102D02*
X3332D01*
X3522D02*
X3562D01*
X3642D02*
X3672D01*
X1732Y6893D02*
X1762D01*
X1842D02*
X1882D01*
X2062D02*
X2292D01*
X2412D02*
X2632D01*
X2772D02*
X3022D01*
X3102D02*
X3342D01*
X3522D02*
X3562D01*
X3642D02*
X3672D01*
X1732Y6883D02*
X1762D01*
X1852D02*
X1882D01*
X2062D02*
X2302D01*
X2412D02*
X2632D01*
X2772D02*
X3022D01*
X3102D02*
X3342D01*
X3522D02*
X3552D01*
X3642D02*
X3672D01*
X1732Y6873D02*
X1762D01*
X1852D02*
X1882D01*
X2062D02*
X2302D01*
X2412D02*
X2622D01*
X2772D02*
X3022D01*
X3102D02*
X3342D01*
X3522D02*
X3552D01*
X3642D02*
X3672D01*
X1732Y6863D02*
X1762D01*
X1852D02*
X1882D01*
X2062D02*
X2302D01*
X2422D02*
X2622D01*
X2782D02*
X3022D01*
X3092D02*
X3342D01*
X3522D02*
X3552D01*
X3642D02*
X3672D01*
X1732Y6853D02*
X1762D01*
X1852D02*
X1882D01*
X2062D02*
X2302D01*
X2422D02*
X2622D01*
X2782D02*
X3012D01*
X3092D02*
X3342D01*
X3522D02*
X3552D01*
X3642D02*
X3672D01*
X1732Y6843D02*
X1762D01*
X1852D02*
X1882D01*
X2062D02*
X2302D01*
X2422D02*
X2622D01*
X2782D02*
X3012D01*
X3092D02*
X3342D01*
X3522D02*
X3552D01*
X3642D02*
X3672D01*
X1732Y6833D02*
X1762D01*
X1852D02*
X1892D01*
X2062D02*
X2312D01*
X2422D02*
X2622D01*
X2782D02*
X3012D01*
X3092D02*
X3342D01*
X3512D02*
X3552D01*
X3642D02*
X3672D01*
X1732Y6823D02*
X1772D01*
X1852D02*
X1892D01*
X2062D02*
X2312D01*
X2422D02*
X2622D01*
X2782D02*
X3012D01*
X3082D02*
X3342D01*
X3512D02*
X3552D01*
X3632D02*
X3672D01*
X1732Y6813D02*
X1772D01*
X1852D02*
X1892D01*
X2062D02*
X2312D01*
X2432D02*
X2622D01*
X2792D02*
X3002D01*
X3082D02*
X3342D01*
X3512D02*
X3552D01*
X3632D02*
X3672D01*
X1732Y6803D02*
X1772D01*
X1852D02*
X1892D01*
X2062D02*
X2312D01*
X2432D02*
X2612D01*
X2792D02*
X3002D01*
X3082D02*
X3342D01*
X3512D02*
X3552D01*
X3632D02*
X3672D01*
X1732Y6793D02*
X1772D01*
X1852D02*
X1892D01*
X2062D02*
X2322D01*
X2432D02*
X2612D01*
X2792D02*
X3002D01*
X3082D02*
X3342D01*
X3512D02*
X3552D01*
X3632D02*
X3672D01*
X1732Y6783D02*
X1772D01*
X1852D02*
X1892D01*
X2062D02*
X2322D01*
X2432D02*
X2612D01*
X2792D02*
X3002D01*
X3082D02*
X3342D01*
X3512D02*
X3552D01*
X3632D02*
X3672D01*
X1732Y6773D02*
X1772D01*
X1852D02*
X1892D01*
X2072D02*
X2322D01*
X2442D02*
X2612D01*
X2792D02*
X2992D01*
X3072D02*
X3332D01*
X3512D02*
X3552D01*
X3632D02*
X3672D01*
X1732Y6763D02*
X1772D01*
X1852D02*
X1892D01*
X2072D02*
X2322D01*
X2442D02*
X2612D01*
X2802D02*
X2992D01*
X3072D02*
X3332D01*
X3512D02*
X3552D01*
X3632D02*
X3672D01*
X1732Y6753D02*
X1772D01*
X1852D02*
X1892D01*
X2072D02*
X2332D01*
X2442D02*
X2612D01*
X2802D02*
X2992D01*
X3072D02*
X3332D01*
X3512D02*
X3552D01*
X3632D02*
X3672D01*
X1732Y6743D02*
X1772D01*
X1852D02*
X1892D01*
X2072D02*
X2332D01*
X2442D02*
X2602D01*
X2802D02*
X2992D01*
X3072D02*
X3332D01*
X3512D02*
X3552D01*
X3632D02*
X3672D01*
X1742Y6733D02*
X1772D01*
X1862D02*
X1892D01*
X2072D02*
X2332D01*
X2452D02*
X2602D01*
X2802D02*
X2992D01*
X3072D02*
X3332D01*
X3512D02*
X3542D01*
X3632D02*
X3662D01*
X1742Y6723D02*
X1772D01*
X1862D02*
X1892D01*
X2072D02*
X2332D01*
X2452D02*
X2602D01*
X2812D02*
X2982D01*
X3062D02*
X3332D01*
X3512D02*
X3542D01*
X3632D02*
X3662D01*
X1742Y6713D02*
X1772D01*
X1862D02*
X1902D01*
X2072D02*
X2342D01*
X2452D02*
X2602D01*
X2812D02*
X2982D01*
X3062D02*
X3332D01*
X3502D02*
X3542D01*
X3632D02*
X3662D01*
X1742Y6703D02*
X1772D01*
X1862D02*
X1902D01*
X2072D02*
X2342D01*
X2452D02*
X2602D01*
X2812D02*
X2982D01*
X3062D02*
X3332D01*
X3502D02*
X3542D01*
X3632D02*
X3662D01*
X1742Y6693D02*
X1782D01*
X1862D02*
X1902D01*
X2072D02*
X2342D01*
X2452D02*
X2602D01*
X2682D02*
X2692D01*
X2812D02*
X2982D01*
X3062D02*
X3332D01*
X3502D02*
X3542D01*
X3622D02*
X3662D01*
X1742Y6683D02*
X1782D01*
X1862D02*
X1902D01*
X2072D02*
X2342D01*
X2462D02*
X2602D01*
X2682D02*
X2702D01*
X2812D02*
X2972D01*
X3052D02*
X3332D01*
X3502D02*
X3542D01*
X3622D02*
X3662D01*
X1742Y6673D02*
X1782D01*
X1862D02*
X1902D01*
X2072D02*
X2342D01*
X2462D02*
X2592D01*
X2682D02*
X2702D01*
X2822D02*
X2972D01*
X3052D02*
X3332D01*
X3502D02*
X3542D01*
X3622D02*
X3662D01*
X1742Y6663D02*
X1782D01*
X1862D02*
X1902D01*
X2072D02*
X2352D01*
X2462D02*
X2592D01*
X2682D02*
X2702D01*
X2822D02*
X2972D01*
X3052D02*
X3332D01*
X3502D02*
X3542D01*
X3622D02*
X3662D01*
X1742Y6653D02*
X1782D01*
X1862D02*
X1902D01*
X2082D02*
X2352D01*
X2462D02*
X2592D01*
X2682D02*
X2702D01*
X2822D02*
X2972D01*
X3052D02*
X3332D01*
X3502D02*
X3542D01*
X3622D02*
X3662D01*
X1742Y6643D02*
X1782D01*
X1872D02*
X1902D01*
X2082D02*
X2352D01*
X2472D02*
X2592D01*
X2682D02*
X2702D01*
X2822D02*
X2962D01*
X3052D02*
X3322D01*
X3502D02*
X3532D01*
X3622D02*
X3662D01*
X1752Y6633D02*
X1782D01*
X1872D02*
X1912D01*
X2082D02*
X2352D01*
X2472D02*
X2592D01*
X2672D02*
X2712D01*
X2822D02*
X2962D01*
X3042D02*
X3322D01*
X3492D02*
X3532D01*
X3622D02*
X3652D01*
X1752Y6623D02*
X1782D01*
X1872D02*
X1912D01*
X2082D02*
X2362D01*
X2472D02*
X2592D01*
X2672D02*
X2712D01*
X2832D02*
X2962D01*
X3042D02*
X3322D01*
X3492D02*
X3532D01*
X3622D02*
X3652D01*
X1752Y6613D02*
X1782D01*
X1872D02*
X1912D01*
X2082D02*
X2362D01*
X2472D02*
X2582D01*
X2672D02*
X2712D01*
X2832D02*
X2962D01*
X3042D02*
X3322D01*
X3492D02*
X3532D01*
X3622D02*
X3652D01*
X1752Y6603D02*
X1792D01*
X1872D02*
X1912D01*
X2082D02*
X2362D01*
X2482D02*
X2582D01*
X2672D02*
X2712D01*
X2832D02*
X2962D01*
X3042D02*
X3322D01*
X3492D02*
X3532D01*
X3612D02*
X3652D01*
X1752Y6593D02*
X1792D01*
X1872D02*
X1912D01*
X2082D02*
X2362D01*
X2482D02*
X2582D01*
X2672D02*
X2712D01*
X2832D02*
X2952D01*
X3032D02*
X3322D01*
X3492D02*
X3532D01*
X3612D02*
X3652D01*
X1752Y6583D02*
X1792D01*
X1872D02*
X1912D01*
X2092D02*
X2372D01*
X2482D02*
X2582D01*
X2672D02*
X2712D01*
X2832D02*
X2952D01*
X3032D02*
X3312D01*
X3492D02*
X3532D01*
X3612D02*
X3652D01*
X1752Y6573D02*
X1792D01*
X1882D02*
X1922D01*
X2092D02*
X2372D01*
X2482D02*
X2582D01*
X2662D02*
X2722D01*
X2842D02*
X2952D01*
X3032D02*
X3312D01*
X3482D02*
X3522D01*
X3612D02*
X3652D01*
X1762Y6563D02*
X1792D01*
X1882D02*
X1922D01*
X2092D02*
X2372D01*
X2492D02*
X2582D01*
X2662D02*
X2722D01*
X2842D02*
X2952D01*
X3032D02*
X3312D01*
X3482D02*
X3522D01*
X3612D02*
X3642D01*
X1762Y6553D02*
X1792D01*
X1882D02*
X1922D01*
X2092D02*
X2372D01*
X2492D02*
X2572D01*
X2662D02*
X2722D01*
X2842D02*
X2942D01*
X3032D02*
X3312D01*
X3482D02*
X3522D01*
X3612D02*
X3642D01*
X1762Y6543D02*
X1802D01*
X1882D02*
X1922D01*
X2092D02*
X2372D01*
X2492D02*
X2572D01*
X2662D02*
X2722D01*
X2842D02*
X2942D01*
X3022D02*
X3312D01*
X3482D02*
X3522D01*
X3602D02*
X3642D01*
X1762Y6533D02*
X1802D01*
X1882D02*
X1922D01*
X2092D02*
X2382D01*
X2492D02*
X2572D01*
X2662D02*
X2722D01*
X2852D02*
X2942D01*
X3022D02*
X3312D01*
X3482D02*
X3522D01*
X3602D02*
X3642D01*
X1762Y6523D02*
X1802D01*
X1892D02*
X1922D01*
X2102D02*
X2382D01*
X2492D02*
X2572D01*
X2662D02*
X2732D01*
X2852D02*
X2942D01*
X3022D02*
X3302D01*
X3482D02*
X3512D01*
X3602D02*
X3642D01*
X1762Y6513D02*
X1802D01*
X1892D02*
X1932D01*
X2102D02*
X2382D01*
X2502D02*
X2572D01*
X2662D02*
X2732D01*
X2852D02*
X2932D01*
X3022D02*
X3302D01*
X3472D02*
X3512D01*
X3602D02*
X3642D01*
X1772Y6503D02*
X1802D01*
X1892D02*
X1932D01*
X2102D02*
X2382D01*
X2502D02*
X2572D01*
X2652D02*
X2732D01*
X2852D02*
X2932D01*
X3012D02*
X3302D01*
X3472D02*
X3512D01*
X3602D02*
X3632D01*
X1772Y6493D02*
X1802D01*
X1892D02*
X1932D01*
X2102D02*
X2392D01*
X2502D02*
X2572D01*
X2652D02*
X2732D01*
X2852D02*
X2932D01*
X3012D02*
X3302D01*
X3472D02*
X3512D01*
X3602D02*
X3632D01*
X1772Y6483D02*
X1812D01*
X1892D02*
X1932D01*
X2112D02*
X2392D01*
X2502D02*
X2562D01*
X2652D02*
X2732D01*
X2862D02*
X2932D01*
X3012D02*
X3292D01*
X3472D02*
X3512D01*
X3592D02*
X3632D01*
X1772Y6473D02*
X1812D01*
X1902D02*
X1932D01*
X2112D02*
X2392D01*
X2512D02*
X2562D01*
X2652D02*
X2742D01*
X2862D02*
X2932D01*
X3012D02*
X3292D01*
X3472D02*
X3502D01*
X3592D02*
X3632D01*
X1772Y6463D02*
X1812D01*
X1902D02*
X1942D01*
X2112D02*
X2392D01*
X2512D02*
X2562D01*
X2652D02*
X2742D01*
X2862D02*
X2922D01*
X3012D02*
X3292D01*
X3462D02*
X3502D01*
X3592D02*
X3632D01*
X1782Y6453D02*
X1812D01*
X1902D02*
X1942D01*
X2112D02*
X2402D01*
X2512D02*
X2562D01*
X2652D02*
X2742D01*
X2862D02*
X2922D01*
X3002D02*
X3292D01*
X3462D02*
X3502D01*
X3592D02*
X3622D01*
X1782Y6443D02*
X1812D01*
X1902D02*
X1942D01*
X2122D02*
X2402D01*
X2512D02*
X2562D01*
X2642D02*
X2742D01*
X2862D02*
X2922D01*
X3002D02*
X3282D01*
X3462D02*
X3502D01*
X3592D02*
X3622D01*
X1782Y6433D02*
X1822D01*
X1902D02*
X1942D01*
X2122D02*
X2402D01*
X2522D02*
X2562D01*
X2642D02*
X2742D01*
X2872D02*
X2922D01*
X3002D02*
X3282D01*
X3462D02*
X3502D01*
X3582D02*
X3622D01*
X1782Y6423D02*
X1822D01*
X1912D02*
X1952D01*
X2122D02*
X2402D01*
X2522D02*
X2552D01*
X2642D02*
X2752D01*
X2872D02*
X2912D01*
X3002D02*
X3282D01*
X3452D02*
X3492D01*
X3582D02*
X3622D01*
X1782Y6413D02*
X1822D01*
X1912D02*
X1952D01*
X2122D02*
X2412D01*
X2522D02*
X2552D01*
X2642D02*
X2752D01*
X2872D02*
X2912D01*
X2992D02*
X3282D01*
X3452D02*
X3492D01*
X3582D02*
X3622D01*
X1792Y6403D02*
X1822D01*
X1912D02*
X1952D01*
X2132D02*
X2412D01*
X2522D02*
X2552D01*
X2642D02*
X2752D01*
X2872D02*
X2912D01*
X2992D02*
X3272D01*
X3452D02*
X3492D01*
X3582D02*
X3612D01*
X1792Y6393D02*
X1832D01*
X1912D02*
X1952D01*
X2132D02*
X2412D01*
X2522D02*
X2552D01*
X2642D02*
X2752D01*
X2872D02*
X2912D01*
X2992D02*
X3272D01*
X3452D02*
X3492D01*
X3572D02*
X3612D01*
X1792Y6383D02*
X1832D01*
X1922D02*
X1952D01*
X2132D02*
X2412D01*
X2532D02*
X2552D01*
X2642D02*
X2752D01*
X2882D02*
X2902D01*
X2992D02*
X3272D01*
X3452D02*
X3482D01*
X3572D02*
X3612D01*
X1792Y6373D02*
X1832D01*
X1922D02*
X1962D01*
X2142D02*
X2412D01*
X2532D02*
X2552D01*
X2632D02*
X2762D01*
X2882D02*
X2902D01*
X2992D02*
X3262D01*
X3442D02*
X3482D01*
X3572D02*
X3612D01*
X1802Y6363D02*
X1832D01*
X1922D02*
X1962D01*
X2142D02*
X2422D01*
X2532D02*
X2552D01*
X2632D02*
X2762D01*
X2882D02*
X2902D01*
X2982D02*
X3262D01*
X3442D02*
X3482D01*
X3572D02*
X3602D01*
X1802Y6353D02*
X1832D01*
X1922D02*
X1962D01*
X2142D02*
X2422D01*
X2532D02*
X2552D01*
X2632D02*
X2762D01*
X2882D02*
X2902D01*
X2982D02*
X3262D01*
X3442D02*
X3482D01*
X3572D02*
X3602D01*
X1802Y6343D02*
X1842D01*
X1932D02*
X1972D01*
X2152D02*
X2422D01*
X2632D02*
X2762D01*
X2882D02*
X2902D01*
X2982D02*
X3252D01*
X3432D02*
X3472D01*
X3562D02*
X3602D01*
X1802Y6333D02*
X1842D01*
X1932D02*
X1972D01*
X2152D02*
X2422D01*
X2632D02*
X2762D01*
X2982D02*
X3252D01*
X3432D02*
X3472D01*
X3562D02*
X3602D01*
X1812Y6323D02*
X1842D01*
X1932D02*
X1972D01*
X2152D02*
X2432D01*
X2632D02*
X2772D01*
X2972D02*
X3252D01*
X3432D02*
X3472D01*
X3562D02*
X3592D01*
X1812Y6313D02*
X1852D01*
X1942D02*
X1972D01*
X2162D02*
X2432D01*
X2622D02*
X2772D01*
X2972D02*
X3242D01*
X3432D02*
X3462D01*
X3562D02*
X3592D01*
X1812Y6303D02*
X1852D01*
X1942D02*
X1982D01*
X2162D02*
X2432D01*
X2622D02*
X2772D01*
X2972D02*
X3242D01*
X3422D02*
X3462D01*
X3552D02*
X3592D01*
X1812Y6293D02*
X1852D01*
X1942D02*
X1982D01*
X2162D02*
X2432D01*
X2622D02*
X2772D01*
X2972D02*
X3242D01*
X3422D02*
X3462D01*
X3552D02*
X3592D01*
X1822Y6283D02*
X1852D01*
X1942D02*
X1982D01*
X2172D02*
X2442D01*
X2622D02*
X2772D01*
X2972D02*
X3232D01*
X3422D02*
X3462D01*
X3552D02*
X3582D01*
X1822Y6273D02*
X1862D01*
X1952D02*
X1992D01*
X2172D02*
X2442D01*
X2622D02*
X2782D01*
X2962D02*
X3232D01*
X3412D02*
X3452D01*
X3542D02*
X3582D01*
X1822Y6263D02*
X1862D01*
X1952D02*
X1992D01*
X2172D02*
X2442D01*
X2622D02*
X2782D01*
X2962D02*
X3232D01*
X3412D02*
X3452D01*
X3542D02*
X3582D01*
X1822Y6253D02*
X1862D01*
X1952D02*
X1992D01*
X2182D02*
X2442D01*
X2622D02*
X2782D01*
X2962D02*
X3222D01*
X3412D02*
X3452D01*
X3542D02*
X3582D01*
X1832Y6243D02*
X1862D01*
X1962D02*
X2002D01*
X2182D02*
X2442D01*
X2612D02*
X2782D01*
X2962D02*
X3222D01*
X3402D02*
X3442D01*
X3542D02*
X3572D01*
X1832Y6233D02*
X1872D01*
X1962D02*
X2002D01*
X2192D02*
X2452D01*
X2612D02*
X2782D01*
X2952D02*
X3212D01*
X3402D02*
X3442D01*
X3532D02*
X3572D01*
X1832Y6223D02*
X1872D01*
X1962D02*
X2002D01*
X2192D02*
X2452D01*
X2612D02*
X2782D01*
X2952D02*
X3212D01*
X3402D02*
X3442D01*
X3532D02*
X3572D01*
X1842Y6213D02*
X1872D01*
X1972D02*
X2012D01*
X2202D02*
X2452D01*
X2612D02*
X2792D01*
X2952D02*
X3202D01*
X3402D02*
X3432D01*
X3532D02*
X3562D01*
X1842Y6203D02*
X1882D01*
X1972D02*
X2012D01*
X2202D02*
X2452D01*
X2612D02*
X2792D01*
X2952D02*
X3202D01*
X3392D02*
X3432D01*
X3522D02*
X3562D01*
X1842Y6193D02*
X1882D01*
X1972D02*
X2012D01*
X2202D02*
X2462D01*
X2612D02*
X2792D01*
X2952D02*
X3202D01*
X3392D02*
X3432D01*
X3522D02*
X3562D01*
X1852Y6183D02*
X1882D01*
X1982D02*
X2022D01*
X2212D02*
X2462D01*
X2602D02*
X2792D01*
X2942D02*
X3192D01*
X3382D02*
X3422D01*
X3522D02*
X3552D01*
X1852Y6173D02*
X1892D01*
X1982D02*
X2022D01*
X2212D02*
X2462D01*
X2602D02*
X2792D01*
X2942D02*
X3192D01*
X3382D02*
X3422D01*
X3512D02*
X3552D01*
X1852Y6163D02*
X1892D01*
X1982D02*
X2022D01*
X2222D02*
X2462D01*
X2602D02*
X2802D01*
X2942D02*
X3182D01*
X3382D02*
X3422D01*
X3512D02*
X3552D01*
X1862Y6153D02*
X1892D01*
X1992D02*
X2032D01*
X2222D02*
X2472D01*
X2602D02*
X2802D01*
X2942D02*
X3182D01*
X3372D02*
X3412D01*
X3512D02*
X3542D01*
X1862Y6143D02*
X1902D01*
X1992D02*
X2032D01*
X2232D02*
X2472D01*
X2602D02*
X2802D01*
X2932D02*
X3172D01*
X3372D02*
X3412D01*
X3502D02*
X3542D01*
X1862Y6133D02*
X1902D01*
X1992D02*
X2032D01*
X2232D02*
X2472D01*
X2602D02*
X2802D01*
X2932D02*
X3172D01*
X3372D02*
X3412D01*
X3502D02*
X3542D01*
X1872Y6123D02*
X1902D01*
X2002D02*
X2042D01*
X2242D02*
X2472D01*
X2602D02*
X2802D01*
X2932D02*
X3162D01*
X3362D02*
X3402D01*
X3502D02*
X3532D01*
X1872Y6113D02*
X1912D01*
X2002D02*
X2042D01*
X2242D02*
X2482D01*
X2592D02*
X2812D01*
X2932D02*
X3162D01*
X3362D02*
X3402D01*
X3492D02*
X3532D01*
X1872Y6103D02*
X1912D01*
X2012D02*
X2052D01*
X2252D02*
X2482D01*
X2592D02*
X2812D01*
X2932D02*
X3152D01*
X3352D02*
X3392D01*
X3492D02*
X3532D01*
X1882Y6093D02*
X1922D01*
X2012D02*
X2052D01*
X2252D02*
X2482D01*
X2592D02*
X2812D01*
X2922D02*
X3152D01*
X3352D02*
X3392D01*
X3482D02*
X3522D01*
X1882Y6083D02*
X1922D01*
X2012D02*
X2052D01*
X2262D02*
X2482D01*
X2592D02*
X2812D01*
X2922D02*
X3142D01*
X3352D02*
X3392D01*
X3482D02*
X3522D01*
X1892Y6073D02*
X1922D01*
X2022D02*
X2062D01*
X2262D02*
X2482D01*
X2592D02*
X2812D01*
X2922D02*
X3142D01*
X3342D02*
X3382D01*
X3482D02*
X3512D01*
X1892Y6063D02*
X1932D01*
X2022D02*
X2062D01*
X2272D02*
X2492D01*
X2592D02*
X2822D01*
X2922D02*
X3132D01*
X3342D02*
X3382D01*
X3472D02*
X3512D01*
X1892Y6053D02*
X1932D01*
X2032D02*
X2072D01*
X2282D02*
X2492D01*
X2582D02*
X2822D01*
X2912D02*
X3122D01*
X3332D02*
X3372D01*
X3472D02*
X3512D01*
X1902Y6043D02*
X1942D01*
X2032D02*
X2072D01*
X2282D02*
X2492D01*
X2582D02*
X2822D01*
X2912D02*
X3122D01*
X3332D02*
X3372D01*
X3462D02*
X3502D01*
X1902Y6033D02*
X1942D01*
X2042D02*
X2082D01*
X2272D02*
X2492D01*
X2582D02*
X2822D01*
X2912D02*
X3132D01*
X3322D02*
X3362D01*
X3462D02*
X3502D01*
X1912Y6023D02*
X1942D01*
X2042D02*
X2082D01*
X2252D02*
X2502D01*
X2582D02*
X2822D01*
X2912D02*
X3152D01*
X3322D02*
X3362D01*
X3462D02*
X3492D01*
X1912Y6013D02*
X1952D01*
X2042D02*
X2082D01*
X2242D02*
X2292D01*
X2302D02*
X2502D01*
X2582D02*
X2832D01*
X2912D02*
X3102D01*
X3112D02*
X3162D01*
X3322D02*
X3362D01*
X3452D02*
X3492D01*
X1912Y6003D02*
X1952D01*
X2052D02*
X2092D01*
X2222D02*
X2272D01*
X2302D02*
X2502D01*
X2582D02*
X2832D01*
X2902D02*
X3102D01*
X3132D02*
X3182D01*
X3312D02*
X3352D01*
X3452D02*
X3492D01*
X1922Y5993D02*
X1962D01*
X2052D02*
X2092D01*
X2202D02*
X2262D01*
X2312D02*
X2502D01*
X2582D02*
X2832D01*
X2902D02*
X3092D01*
X3142D02*
X3202D01*
X3312D02*
X3352D01*
X3442D02*
X3482D01*
X1922Y5983D02*
X1962D01*
X2062D02*
X2102D01*
X2172D02*
X2242D01*
X2322D02*
X2512D01*
X2572D02*
X2832D01*
X2902D02*
X3082D01*
X3162D02*
X3232D01*
X3302D02*
X3342D01*
X3442D02*
X3482D01*
X1932Y5973D02*
X1972D01*
X2062D02*
X2102D01*
X2142D02*
X2222D01*
X2322D02*
X2512D01*
X2572D02*
X2832D01*
X2902D02*
X3082D01*
X3182D02*
X3262D01*
X3302D02*
X3342D01*
X3432D02*
X3472D01*
X1932Y5963D02*
X1972D01*
X2072D02*
X2202D01*
X2332D02*
X2512D01*
X2572D02*
X2842D01*
X2892D02*
X3072D01*
X3202D02*
X3332D01*
X3432D02*
X3472D01*
X1942Y5953D02*
X1972D01*
X2072D02*
X2172D01*
X2342D02*
X2512D01*
X2572D02*
X2842D01*
X2892D02*
X3062D01*
X3232D02*
X3332D01*
X3432D02*
X3462D01*
X1942Y5943D02*
X1982D01*
X2082D02*
X2132D01*
X2342D02*
X2512D01*
X2572D02*
X2842D01*
X2892D02*
X3062D01*
X3272D02*
X3322D01*
X3422D02*
X3462D01*
X1942Y5933D02*
X1982D01*
X2082D02*
X2122D01*
X2352D02*
X2522D01*
X2572D02*
X2842D01*
X2892D02*
X3052D01*
X3282D02*
X3322D01*
X3422D02*
X3462D01*
X1952Y5923D02*
X1992D01*
X2092D02*
X2132D01*
X2362D02*
X2522D01*
X2572D02*
X2842D01*
X2892D02*
X3042D01*
X3272D02*
X3312D01*
X3412D02*
X3452D01*
X1952Y5913D02*
X1992D01*
X2092D02*
X2132D01*
X2362D02*
X2522D01*
X2562D02*
X2852D01*
X2882D02*
X3042D01*
X3272D02*
X3312D01*
X3412D02*
X3452D01*
X1962Y5903D02*
X2002D01*
X2102D02*
X2142D01*
X2372D02*
X2522D01*
X2562D02*
X2852D01*
X2882D02*
X3032D01*
X3262D02*
X3302D01*
X3402D02*
X3442D01*
X1962Y5893D02*
X2002D01*
X2112D02*
X2152D01*
X2382D02*
X2532D01*
X2562D02*
X2852D01*
X2882D02*
X3022D01*
X3252D02*
X3292D01*
X3402D02*
X3442D01*
X1972Y5883D02*
X2012D01*
X2112D02*
X2152D01*
X2382D02*
X3022D01*
X3252D02*
X3292D01*
X3392D02*
X3432D01*
X1972Y5873D02*
X2012D01*
X2122D02*
X2162D01*
X2392D02*
X3012D01*
X3242D02*
X3282D01*
X3392D02*
X3432D01*
X1982Y5863D02*
X2022D01*
X2122D02*
X2162D01*
X2402D02*
X3002D01*
X3242D02*
X3282D01*
X3382D02*
X3422D01*
X1982Y5853D02*
X2032D01*
X2132D02*
X2172D01*
X2412D02*
X2992D01*
X3232D02*
X3272D01*
X3372D02*
X3422D01*
X1992Y5843D02*
X2032D01*
X2132D02*
X2182D01*
X2412D02*
X2992D01*
X3222D02*
X3272D01*
X3372D02*
X3412D01*
X2002Y5833D02*
X2042D01*
X2142D02*
X2182D01*
X2422D02*
X2982D01*
X3222D02*
X3262D01*
X3362D02*
X3402D01*
X2002Y5823D02*
X2042D01*
X2152D02*
X2192D01*
X2432D02*
X2972D01*
X3212D02*
X3252D01*
X3362D02*
X3402D01*
X2012Y5813D02*
X2052D01*
X2152D02*
X2192D01*
X2442D02*
X2962D01*
X3212D02*
X3252D01*
X3352D02*
X3392D01*
X2012Y5803D02*
X2052D01*
X2162D02*
X2202D01*
X2452D02*
X2952D01*
X3202D02*
X3242D01*
X3352D02*
X3392D01*
X2022Y5793D02*
X2062D01*
X2172D02*
X2212D01*
X2452D02*
X2952D01*
X3192D02*
X3232D01*
X3342D02*
X3382D01*
X2022Y5783D02*
X2072D01*
X2172D02*
X2212D01*
X2462D02*
X2942D01*
X3192D02*
X3232D01*
X3332D02*
X3382D01*
X2032Y5773D02*
X2072D01*
X2182D02*
X2222D01*
X2472D02*
X2932D01*
X3182D02*
X3222D01*
X3332D02*
X3372D01*
X2042Y5763D02*
X2082D01*
X2192D02*
X2232D01*
X2482D02*
X2922D01*
X3172D02*
X3212D01*
X3322D02*
X3362D01*
X2042Y5753D02*
X2092D01*
X2192D02*
X2242D01*
X2492D02*
X2912D01*
X3162D02*
X3212D01*
X3312D02*
X3362D01*
X2052Y5743D02*
X2092D01*
X2202D02*
X2242D01*
X2502D02*
X2902D01*
X3162D02*
X3202D01*
X3312D02*
X3352D01*
X2052Y5733D02*
X2102D01*
X2212D02*
X2252D01*
X2512D02*
X2892D01*
X3152D02*
X3192D01*
X3302D02*
X3352D01*
X2062Y5723D02*
X2102D01*
X2212D02*
X2262D01*
X2522D02*
X2882D01*
X3142D02*
X3192D01*
X3302D02*
X3342D01*
X2072Y5713D02*
X2112D01*
X2222D02*
X2272D01*
X2532D02*
X2872D01*
X3132D02*
X3182D01*
X3292D02*
X3332D01*
X2072Y5703D02*
X2122D01*
X2232D02*
X2272D01*
X2542D02*
X2862D01*
X3132D02*
X3172D01*
X3282D02*
X3332D01*
X2082Y5693D02*
X2132D01*
X2242D02*
X2282D01*
X2562D02*
X2842D01*
X3122D02*
X3162D01*
X3272D02*
X3322D01*
X2092Y5683D02*
X2132D01*
X2252D02*
X2292D01*
X2572D02*
X2832D01*
X3112D02*
X3152D01*
X3272D02*
X3312D01*
X2092Y5673D02*
X2142D01*
X2252D02*
X2302D01*
X2582D02*
X2822D01*
X3102D02*
X3152D01*
X3262D02*
X3312D01*
X2102Y5663D02*
X2152D01*
X2262D02*
X2312D01*
X2582D02*
X2822D01*
X3092D02*
X3142D01*
X3252D02*
X3302D01*
X2112Y5653D02*
X2162D01*
X2272D02*
X2322D01*
X2582D02*
X2822D01*
X3082D02*
X3132D01*
X3242D02*
X3292D01*
X2122Y5643D02*
X2162D01*
X2282D02*
X2332D01*
X2572D02*
X2602D01*
X2632D02*
X2772D01*
X2802D02*
X2832D01*
X3072D02*
X3122D01*
X3242D02*
X3282D01*
X2122Y5633D02*
X2172D01*
X2292D02*
X2342D01*
X2572D02*
X2602D01*
X2642D02*
X2762D01*
X2802D02*
X2832D01*
X3062D02*
X3112D01*
X3232D02*
X3282D01*
X2132Y5623D02*
X2182D01*
X2302D02*
X2352D01*
X2562D02*
X2592D01*
X2662D02*
X2742D01*
X2812D02*
X2842D01*
X3052D02*
X3102D01*
X3222D02*
X3272D01*
X2142Y5613D02*
X2192D01*
X2312D02*
X2362D01*
X2552D02*
X2592D01*
X2682D02*
X2722D01*
X2812D02*
X2852D01*
X3042D02*
X3092D01*
X3212D02*
X3262D01*
X2152Y5603D02*
X2202D01*
X2322D02*
X2372D01*
X2552D02*
X2582D01*
X2822D02*
X2852D01*
X3032D02*
X3082D01*
X3202D02*
X3252D01*
X2162Y5593D02*
X2202D01*
X2332D02*
X2382D01*
X2542D02*
X2572D01*
X2832D02*
X2862D01*
X3022D02*
X3072D01*
X3202D02*
X3242D01*
X2162Y5583D02*
X2212D01*
X2342D02*
X2392D01*
X2532D02*
X2562D01*
X2842D02*
X2872D01*
X3012D02*
X3062D01*
X3192D02*
X3242D01*
X2172Y5573D02*
X2222D01*
X2352D02*
X2402D01*
X2522D02*
X2562D01*
X2842D02*
X2882D01*
X3002D02*
X3052D01*
X3182D02*
X3232D01*
X2182Y5563D02*
X2232D01*
X2362D02*
X2412D01*
X2512D02*
X2552D01*
X2852D02*
X2892D01*
X2992D02*
X3042D01*
X3172D02*
X3222D01*
X2192Y5553D02*
X2242D01*
X2372D02*
X2432D01*
X2502D02*
X2542D01*
X2862D02*
X2902D01*
X2972D02*
X3032D01*
X3162D02*
X3212D01*
X2202Y5543D02*
X2252D01*
X2382D02*
X2442D01*
X2492D02*
X2532D01*
X2872D02*
X2912D01*
X2962D02*
X3022D01*
X3152D02*
X3202D01*
X2212Y5533D02*
X2262D01*
X2402D02*
X2452D01*
X2482D02*
X2522D01*
X2882D02*
X2922D01*
X2952D02*
X3002D01*
X3142D02*
X3192D01*
X2222Y5523D02*
X2272D01*
X2412D02*
X2512D01*
X2892D02*
X2992D01*
X3132D02*
X3182D01*
X2232Y5513D02*
X2282D01*
X2422D02*
X2492D01*
X2912D02*
X2982D01*
X3122D02*
X3172D01*
X2242Y5503D02*
X2292D01*
X2442D02*
X2502D01*
X2662D02*
X2742D01*
X2902D02*
X2962D01*
X3112D02*
X3162D01*
X2252Y5493D02*
X2302D01*
X2452D02*
X2522D01*
X2642D02*
X2762D01*
X2882D02*
X2952D01*
X3102D02*
X3152D01*
X2262Y5483D02*
X2322D01*
X2472D02*
X2532D01*
X2622D02*
X2782D01*
X2872D02*
X2932D01*
X3082D02*
X3142D01*
X2272Y5473D02*
X2332D01*
X2482D02*
X2552D01*
X2612D02*
X2692D01*
X2712D02*
X2792D01*
X2852D02*
X2922D01*
X3072D02*
X3132D01*
X2282Y5463D02*
X2342D01*
X2502D02*
X2582D01*
X2612D02*
X2662D01*
X2742D02*
X2792D01*
X2822D02*
X2902D01*
X3062D02*
X3122D01*
X2292Y5453D02*
X2352D01*
X2522D02*
X2602D01*
X2612D02*
X2642D01*
X2762D02*
X2792D01*
X2802D02*
X2882D01*
X3052D02*
X3112D01*
X2302Y5443D02*
X2372D01*
X2542D02*
X2642D01*
X2762D02*
X2862D01*
X3032D02*
X3102D01*
X2312Y5433D02*
X2382D01*
X2562D02*
X2642D01*
X2762D02*
X2842D01*
X3022D02*
X3092D01*
X2332Y5423D02*
X2392D01*
X2582D02*
X2642D01*
X2762D02*
X2822D01*
X3012D02*
X3072D01*
X2342Y5413D02*
X2412D01*
X2602D02*
X2642D01*
X2762D02*
X2802D01*
X2992D02*
X3062D01*
X2352Y5403D02*
X2432D01*
X2602D02*
X2642D01*
X2762D02*
X2802D01*
X2972D02*
X3052D01*
X2372Y5393D02*
X2442D01*
X2602D02*
X2642D01*
X2762D02*
X2802D01*
X2962D02*
X3032D01*
X2382Y5383D02*
X2462D01*
X2602D02*
X2642D01*
X2762D02*
X2802D01*
X2942D02*
X3022D01*
X2392Y5373D02*
X2482D01*
X2602D02*
X2642D01*
X2762D02*
X2802D01*
X2922D02*
X3012D01*
X2412Y5363D02*
X2502D01*
X2612D02*
X2642D01*
X2762D02*
X2792D01*
X2902D02*
X2992D01*
X2432Y5353D02*
X2522D01*
X2612D02*
X2652D01*
X2752D02*
X2792D01*
X2882D02*
X2972D01*
X2442Y5343D02*
X2542D01*
X2612D02*
X2652D01*
X2752D02*
X2792D01*
X2862D02*
X2962D01*
X2462Y5333D02*
X2572D01*
X2612D02*
X2652D01*
X2752D02*
X2792D01*
X2832D02*
X2942D01*
X2482Y5323D02*
X2602D01*
X2622D02*
X2662D01*
X2742D02*
X2782D01*
X2802D02*
X2922D01*
X2502Y5313D02*
X2662D01*
X2742D02*
X2902D01*
X2522Y5303D02*
X2672D01*
X2732D02*
X2882D01*
X2552Y5293D02*
X2672D01*
X2732D02*
X2852D01*
X2572Y5283D02*
X2682D01*
X2722D02*
X2832D01*
X2602Y5273D02*
X2692D01*
X2712D02*
X2802D01*
X2642Y5263D02*
X2762D01*
X2662Y5253D02*
X2742D01*
X2672Y5243D02*
X2732D01*
X2672Y5233D02*
X2732D01*
X2682Y5223D02*
X2722D01*
D146*
X27638Y1142D02*
Y1535D01*
D147*
X21000Y3750D02*
Y3542D01*
X21042Y3500D01*
X21125D01*
X21167Y3542D01*
Y3750D01*
X21250D02*
Y3500D01*
X21333Y3583D01*
X21417Y3500D01*
Y3750D01*
X21500Y3625D02*
X21666D01*
X21750Y3750D02*
X21833D01*
X21791D01*
Y3500D01*
X21750D01*
X21833D01*
X21958D02*
Y3750D01*
X22083D01*
X22125Y3708D01*
Y3625D01*
X22083Y3583D01*
X21958D01*
X22208Y3500D02*
Y3750D01*
X22291Y3667D01*
X22375Y3750D01*
Y3500D01*
X22624Y3708D02*
X22583Y3750D01*
X22500D01*
X22458Y3708D01*
Y3542D01*
X22500Y3500D01*
X22583D01*
X22624Y3542D01*
X22958Y3500D02*
Y3750D01*
X23041Y3667D01*
X23124Y3750D01*
Y3500D01*
X23374Y3750D02*
X23208D01*
Y3500D01*
X23374D01*
X23208Y3625D02*
X23291D01*
X23458Y3750D02*
X23624D01*
Y3708D01*
X23458Y3542D01*
Y3500D01*
X23624D01*
X23707Y3750D02*
X23874D01*
Y3708D01*
X23707Y3542D01*
Y3500D01*
X23874D01*
X23957D02*
Y3667D01*
X24041Y3750D01*
X24124Y3667D01*
Y3500D01*
Y3625D01*
X23957D01*
X24207Y3500D02*
Y3750D01*
X24374Y3500D01*
Y3750D01*
X24457D02*
X24541D01*
X24499D01*
Y3500D01*
X24457D01*
X24541D01*
X24665D02*
Y3750D01*
X24832Y3500D01*
Y3750D01*
X25082D02*
X24915D01*
Y3500D01*
X25082D01*
X24915Y3625D02*
X24999D01*
%TF.MD5,a7579fbfe7b4772663af578245073cdf*%
M02*
