G04 Layer_Physical_Order=10*
G04 Layer_Color=16711680*
%FSLAX24Y24*%
%MOIN*%
%TF.FileFunction,Copper,L10,Bot,Signal*%
%TF.Part,Single*%
G01*
G75*
%TA.AperFunction,SMDPad,CuDef*%
%ADD17R,0.0295X0.0295*%
%ADD18R,0.0197X0.0205*%
%ADD19R,0.0177X0.1004*%
%ADD22R,0.0217X0.0217*%
%ADD24O,0.0098X0.0354*%
%ADD25O,0.0354X0.0098*%
%ADD26R,0.0984X0.0984*%
%ADD31R,0.0531X0.1024*%
%ADD32R,0.0394X0.0571*%
%ADD33R,0.1024X0.0531*%
%ADD34R,0.0138X0.0138*%
%ADD35R,0.0138X0.0138*%
%ADD36R,0.0205X0.0197*%
%ADD37R,0.0906X0.0335*%
%ADD38R,0.0217X0.0217*%
%TA.AperFunction,Conductor*%
%ADD41C,0.0200*%
%ADD42C,0.0100*%
%ADD43C,0.0065*%
%ADD44C,0.0060*%
%ADD45C,0.0070*%
%ADD47C,0.0080*%
%ADD48C,0.0150*%
%ADD49C,0.0120*%
%ADD50C,0.0095*%
%TA.AperFunction,NonConductor*%
%ADD53C,0.0100*%
%TA.AperFunction,ViaPad*%
%ADD57C,0.0180*%
%ADD58C,0.0170*%
%ADD59C,0.0160*%
%TA.AperFunction,TestPad*%
%ADD60C,0.0160*%
%TA.AperFunction,SMDPad,SMDef*%
%ADD69R,0.0295X0.0276*%
%TA.AperFunction,SMDPad,CuDef*%
%ADD70O,0.0551X0.0138*%
%ADD71R,0.1311X0.1311*%
%ADD72O,0.0295X0.0079*%
%ADD73O,0.0079X0.0295*%
G04:AMPARAMS|DCode=74|XSize=65mil|YSize=94.5mil|CornerRadius=1.9mil|HoleSize=0mil|Usage=FLASHONLY|Rotation=270.000|XOffset=0mil|YOffset=0mil|HoleType=Round|Shape=RoundedRectangle|*
%AMROUNDEDRECTD74*
21,1,0.0650,0.0906,0,0,270.0*
21,1,0.0611,0.0945,0,0,270.0*
1,1,0.0039,-0.0453,-0.0305*
1,1,0.0039,-0.0453,0.0305*
1,1,0.0039,0.0453,0.0305*
1,1,0.0039,0.0453,-0.0305*
%
%ADD74ROUNDEDRECTD74*%
G04:AMPARAMS|DCode=75|XSize=11mil|YSize=33.5mil|CornerRadius=2mil|HoleSize=0mil|Usage=FLASHONLY|Rotation=180.000|XOffset=0mil|YOffset=0mil|HoleType=Round|Shape=RoundedRectangle|*
%AMROUNDEDRECTD75*
21,1,0.0110,0.0295,0,0,180.0*
21,1,0.0071,0.0335,0,0,180.0*
1,1,0.0040,-0.0035,0.0147*
1,1,0.0040,0.0035,0.0147*
1,1,0.0040,0.0035,-0.0147*
1,1,0.0040,-0.0035,-0.0147*
%
%ADD75ROUNDEDRECTD75*%
%ADD76R,0.0256X0.0335*%
%ADD77R,0.0295X0.0295*%
%TA.AperFunction,Conductor*%
%ADD78R,0.0276X0.0110*%
%ADD79R,0.0512X0.0827*%
%ADD80R,0.1181X0.1181*%
G36*
X12839Y9883D02*
X12839Y9882D01*
X12851Y9823D01*
X12884Y9774D01*
X12895Y9766D01*
Y9682D01*
X12884Y9675D01*
X12877Y9664D01*
X12793D01*
X12785Y9675D01*
X12736Y9708D01*
X12677Y9720D01*
X12619Y9708D01*
X12569Y9675D01*
X12536Y9625D01*
X12524Y9567D01*
X12536Y9508D01*
X12569Y9459D01*
X12580Y9452D01*
Y9367D01*
X12569Y9360D01*
X12536Y9311D01*
X12524Y9252D01*
X12536Y9193D01*
X12569Y9144D01*
X12580Y9137D01*
Y9052D01*
X12569Y9045D01*
X12562Y9034D01*
X12478Y9034D01*
X12470Y9045D01*
X12421Y9078D01*
X12362Y9090D01*
X12304Y9078D01*
X12263Y9051D01*
X12218Y9071D01*
X12198Y9085D01*
X12194Y9104D01*
X12206Y9122D01*
X12211Y9150D01*
Y9354D01*
X12206Y9382D01*
X12192Y9409D01*
X12206Y9437D01*
X12211Y9465D01*
Y9669D01*
X12206Y9697D01*
X12194Y9715D01*
X12198Y9733D01*
X12218Y9748D01*
X12263Y9768D01*
X12304Y9741D01*
X12362Y9729D01*
X12421Y9741D01*
X12470Y9774D01*
X12503Y9823D01*
X12515Y9882D01*
X12515Y9883D01*
X12559Y9937D01*
X12795D01*
X12839Y9883D01*
D02*
G37*
G36*
X11309Y9144D02*
X11359Y9111D01*
X11417Y9099D01*
X11476Y9111D01*
X11525Y9144D01*
X11533Y9155D01*
X11617D01*
X11624Y9144D01*
X11635Y9137D01*
Y9052D01*
X11624Y9045D01*
X11591Y8996D01*
X11579Y8937D01*
X11591Y8878D01*
X11624Y8829D01*
X11674Y8796D01*
X11732Y8784D01*
X11791Y8796D01*
X11840Y8829D01*
X11848Y8840D01*
X11932Y8840D01*
X11939Y8829D01*
X11989Y8796D01*
X12047Y8784D01*
X12106Y8796D01*
X12147Y8823D01*
X12192Y8803D01*
X12212Y8789D01*
X12216Y8770D01*
X12204Y8752D01*
X12198Y8724D01*
Y8520D01*
X12204Y8492D01*
X12153Y8443D01*
X12136Y8438D01*
X12121Y8438D01*
X12106Y8448D01*
X12047Y8460D01*
X11989Y8448D01*
X11970Y8436D01*
X11958Y8434D01*
X11885Y8450D01*
X11862Y8466D01*
X11835Y8471D01*
X11630D01*
X11603Y8466D01*
X11579Y8450D01*
X11507Y8434D01*
X11494Y8436D01*
X11476Y8448D01*
X11417Y8460D01*
X11359Y8448D01*
X11340Y8436D01*
X11328Y8434D01*
X11320Y8436D01*
X11271Y8502D01*
X11276Y8530D01*
Y8726D01*
X11271Y8754D01*
X11255Y8777D01*
X11254Y8778D01*
X11252Y8780D01*
X11233Y8848D01*
X11234Y8863D01*
X11244Y8878D01*
X11255Y8937D01*
X11244Y8996D01*
X11211Y9045D01*
X11200Y9052D01*
Y9137D01*
X11211Y9144D01*
X11218Y9155D01*
X11302D01*
X11309Y9144D01*
D02*
G37*
G36*
X18780Y8622D02*
X18780D01*
Y8504D01*
X19488Y7795D01*
Y7638D01*
X19449Y7598D01*
X18228D01*
X18189Y7638D01*
Y8661D01*
X18740D01*
X18780Y8622D01*
D02*
G37*
G36*
X14843Y10945D02*
X13780Y10945D01*
Y11378D01*
X14134Y11378D01*
X14173Y11417D01*
Y11772D01*
X14843D01*
Y10945D01*
D02*
G37*
G36*
X12323Y11063D02*
X12480Y10906D01*
X12480Y10787D01*
X12441Y10748D01*
X11654Y10748D01*
X11614Y10787D01*
X11614Y10945D01*
X11732Y11063D01*
X11732Y11181D01*
X12323D01*
X12323Y11063D01*
D02*
G37*
G36*
X16470Y10469D02*
Y10307D01*
X16467Y10305D01*
X16434Y10255D01*
X16422Y10197D01*
X16429Y10162D01*
X16425Y10155D01*
X16419Y10150D01*
X16349Y10127D01*
X16338Y10134D01*
X16299Y10141D01*
X15394D01*
X15350Y10195D01*
X15350Y10197D01*
X15338Y10255D01*
X15305Y10305D01*
X15255Y10338D01*
X15197Y10350D01*
X15138Y10338D01*
X15089Y10305D01*
X15081Y10294D01*
X14997D01*
X14990Y10305D01*
X14947Y10334D01*
X14939Y10347D01*
X14927Y10412D01*
X15082Y10567D01*
X15315D01*
X15359Y10513D01*
X15359Y10512D01*
X15371Y10453D01*
X15404Y10404D01*
X15453Y10371D01*
X15512Y10359D01*
X15570Y10371D01*
X15572Y10372D01*
X15610D01*
X15638Y10377D01*
X15669Y10389D01*
X15701Y10377D01*
X15728Y10372D01*
X15866D01*
X15893Y10377D01*
X15917Y10392D01*
X15932Y10416D01*
X15938Y10443D01*
Y10504D01*
X16037Y10604D01*
X16335D01*
X16470Y10469D01*
D02*
G37*
G36*
X10973Y7834D02*
X11000Y7828D01*
X11205D01*
X11232Y7834D01*
X11250Y7846D01*
X11269Y7841D01*
X11283Y7821D01*
X11303Y7777D01*
X11276Y7736D01*
X11264Y7677D01*
X11276Y7619D01*
X11309Y7569D01*
X11359Y7536D01*
X11417Y7524D01*
X11476Y7536D01*
X11525Y7569D01*
X11559Y7619D01*
X11570Y7677D01*
X11559Y7736D01*
X11542Y7761D01*
X11562Y7809D01*
X11601Y7824D01*
X11628Y7818D01*
X11820D01*
X11828Y7816D01*
X11844Y7806D01*
X11880Y7770D01*
X11883Y7764D01*
Y7596D01*
X11849Y7555D01*
X11819Y7538D01*
X11630D01*
X11603Y7532D01*
X11579Y7517D01*
X11564Y7494D01*
X11559Y7467D01*
Y7270D01*
X11564Y7242D01*
X11515Y7176D01*
X11507Y7175D01*
X11494Y7176D01*
X11476Y7189D01*
X11417Y7200D01*
X11359Y7189D01*
X11309Y7155D01*
X11240Y7166D01*
X11221Y7185D01*
X11211Y7254D01*
X11244Y7304D01*
X11255Y7362D01*
X11244Y7421D01*
X11211Y7470D01*
X11161Y7503D01*
X11102Y7515D01*
X11044Y7503D01*
X10994Y7470D01*
X10987Y7459D01*
X10903D01*
X10896Y7470D01*
X10885Y7478D01*
Y7562D01*
X10896Y7569D01*
X10929Y7619D01*
X10940Y7677D01*
X10929Y7736D01*
X10901Y7777D01*
X10921Y7821D01*
X10936Y7841D01*
X10955Y7846D01*
X10973Y7834D01*
D02*
G37*
G36*
X18307Y5322D02*
X18346Y5314D01*
X18386Y5322D01*
X18826D01*
Y4843D01*
X18832Y4815D01*
X18847Y4792D01*
X18870Y4777D01*
X18884Y4741D01*
X18839Y4675D01*
X18571D01*
X18555Y4686D01*
X18528Y4691D01*
X18323D01*
X18296Y4686D01*
X18272Y4671D01*
X18257Y4647D01*
X18251Y4620D01*
Y4423D01*
X18257Y4396D01*
X18272Y4373D01*
X18296Y4357D01*
X18323Y4352D01*
X18528D01*
X18555Y4357D01*
X18578Y4373D01*
X18583Y4380D01*
X18937D01*
X18942Y4373D01*
X18965Y4357D01*
X18992Y4352D01*
X19197D01*
X19224Y4357D01*
X19247Y4373D01*
X19263Y4396D01*
X19268Y4423D01*
Y4476D01*
X19278Y4488D01*
X19317Y4519D01*
X19381Y4494D01*
X19386Y4469D01*
X19419Y4419D01*
X19469Y4386D01*
X19528Y4375D01*
X19535Y4376D01*
X19650Y4261D01*
X19623Y4196D01*
X17129D01*
X16913Y4412D01*
Y5149D01*
X16914Y5152D01*
X16969Y5204D01*
X17992D01*
X18019Y5210D01*
X18043Y5225D01*
X18140Y5322D01*
X18307D01*
D02*
G37*
G36*
X16197Y6848D02*
Y4450D01*
X16134Y4422D01*
X16086Y4461D01*
Y6850D01*
X16084Y6862D01*
X16148Y6896D01*
X16197Y6848D01*
D02*
G37*
G36*
X12254Y4419D02*
X12265Y4412D01*
Y4328D01*
X12254Y4321D01*
X12221Y4271D01*
X12209Y4213D01*
X12221Y4154D01*
X12254Y4104D01*
X12304Y4071D01*
X12362Y4060D01*
X12421Y4071D01*
X12470Y4104D01*
X12478Y4115D01*
X12562D01*
X12569Y4104D01*
X12619Y4071D01*
X12677Y4060D01*
X12679Y4060D01*
X12733Y4016D01*
Y3268D01*
X12740Y3229D01*
X12763Y3196D01*
X13392Y2566D01*
X13390Y2559D01*
X13402Y2501D01*
X13435Y2451D01*
X13452Y2439D01*
X13467Y2355D01*
X13235Y2123D01*
X13151Y2138D01*
X13140Y2155D01*
X13090Y2189D01*
X13032Y2200D01*
X12973Y2189D01*
X12923Y2155D01*
X12890Y2106D01*
X12890Y2105D01*
X12861Y2092D01*
X12814Y2084D01*
X12775Y2110D01*
X12758Y2113D01*
X12711Y2137D01*
X12693Y2188D01*
Y2343D01*
X12688Y2370D01*
X12677Y2407D01*
X12688Y2445D01*
X12693Y2472D01*
Y2669D01*
X12688Y2697D01*
X12675Y2716D01*
X12683Y2756D01*
X12670Y2818D01*
X12635Y2871D01*
X12582Y2907D01*
X12520Y2919D01*
X12457Y2907D01*
X12404Y2871D01*
X12377Y2830D01*
X12324Y2835D01*
X12307Y2842D01*
Y3661D01*
X12299Y3700D01*
X12277Y3734D01*
X11992Y4019D01*
Y4330D01*
X12046Y4375D01*
X12047Y4375D01*
X12106Y4386D01*
X12155Y4419D01*
X12163Y4430D01*
X12247D01*
X12254Y4419D01*
D02*
G37*
G36*
X12917Y1893D02*
X12921Y1809D01*
X12550Y1437D01*
X12527Y1404D01*
X12519Y1364D01*
Y1125D01*
X12510D01*
X12483Y1119D01*
X12459Y1104D01*
X12444Y1080D01*
X12438Y1053D01*
Y1024D01*
X12286D01*
Y1053D01*
X12281Y1080D01*
X12265Y1104D01*
X12242Y1119D01*
X12215Y1125D01*
X12189D01*
Y1774D01*
X12259Y1821D01*
X12283Y1816D01*
X12305Y1820D01*
X12365Y1773D01*
X12368Y1766D01*
X12378Y1713D01*
X12412Y1664D01*
X12461Y1630D01*
X12520Y1619D01*
X12578Y1630D01*
X12628Y1664D01*
X12661Y1713D01*
X12673Y1772D01*
X12717Y1816D01*
X12775Y1827D01*
X12825Y1860D01*
X12844Y1889D01*
X12916Y1894D01*
X12917Y1893D01*
D02*
G37*
G36*
X16068Y2362D02*
X16008Y2302D01*
X15961D01*
X15933Y2296D01*
X15910Y2281D01*
X15895Y2258D01*
X15889Y2230D01*
Y2204D01*
X15879Y2192D01*
X15819Y2154D01*
X15787Y2161D01*
X15729Y2149D01*
X15679Y2116D01*
X15646Y2066D01*
X15634Y2008D01*
X15644Y1958D01*
X15644Y1951D01*
X15643Y1944D01*
X15607Y1881D01*
X15606Y1881D01*
X15573Y1859D01*
X15361Y1647D01*
X15339Y1614D01*
X15331Y1575D01*
Y1122D01*
X15317Y1119D01*
X15294Y1104D01*
X15279Y1080D01*
X15273Y1053D01*
Y1024D01*
X15121D01*
Y1053D01*
X15115Y1080D01*
X15100Y1104D01*
X15077Y1119D01*
X15065Y1121D01*
Y1346D01*
X15069Y1349D01*
X15102Y1398D01*
X15114Y1457D01*
X15102Y1515D01*
X15098Y1520D01*
X15073Y1575D01*
X15098Y1629D01*
X15102Y1634D01*
X15114Y1693D01*
X15102Y1751D01*
X15069Y1801D01*
X15019Y1834D01*
X14961Y1846D01*
X14902Y1834D01*
X14852Y1801D01*
X14845Y1790D01*
X14842Y1789D01*
X14808Y1767D01*
X14707Y1666D01*
X14660Y1685D01*
X14640Y1698D01*
X14629Y1751D01*
X14596Y1801D01*
X14547Y1834D01*
X14488Y1846D01*
X14430Y1834D01*
X14424Y1831D01*
X14383Y1812D01*
X14314Y1841D01*
X14307Y1859D01*
X14300Y1908D01*
X14807Y2415D01*
X15179D01*
X15207Y2371D01*
X15181Y2315D01*
X15138Y2307D01*
X15089Y2273D01*
X15056Y2224D01*
X15044Y2165D01*
X15056Y2107D01*
X15089Y2057D01*
X15138Y2024D01*
X15197Y2012D01*
X15255Y2024D01*
X15305Y2057D01*
X15338Y2107D01*
X15350Y2165D01*
X15394Y2209D01*
X15452Y2221D01*
X15502Y2254D01*
X15535Y2304D01*
X15547Y2362D01*
X15590Y2415D01*
X16024D01*
X16068Y2362D01*
D02*
G37*
G36*
X17992Y6181D02*
X18228Y5945D01*
X19291D01*
Y4843D01*
X18898D01*
Y5354D01*
X18858Y5394D01*
X18110Y5394D01*
X17992Y5276D01*
X16968D01*
Y6535D01*
X17992D01*
Y6181D01*
D02*
G37*
G36*
X12015Y11772D02*
Y11320D01*
X12009Y11310D01*
X11973Y11277D01*
X11953Y11266D01*
X11748D01*
X11721Y11261D01*
X11698Y11245D01*
X11694Y11239D01*
X11682Y11232D01*
X11666Y11208D01*
X11661Y11181D01*
X11661Y11093D01*
X11564Y10995D01*
X11548Y10972D01*
X11543Y10945D01*
X11473Y10945D01*
Y11116D01*
X11468Y11143D01*
X11456Y11181D01*
X11468Y11219D01*
X11473Y11246D01*
Y11443D01*
X11468Y11470D01*
X11452Y11493D01*
X11429Y11509D01*
X11402Y11514D01*
X11197D01*
X11170Y11509D01*
X11146Y11493D01*
X11131Y11470D01*
X11125Y11443D01*
Y11352D01*
X10888Y11115D01*
X10748D01*
X10721Y11109D01*
X10698Y11094D01*
X10692Y11085D01*
X10637Y11077D01*
X10613Y11080D01*
X10595Y11107D01*
X10539Y11144D01*
X10472Y11158D01*
X10214D01*
X10194Y11178D01*
X10224Y11248D01*
X10354D01*
X10382Y11253D01*
X10405Y11268D01*
X10420Y11292D01*
X10426Y11319D01*
Y11654D01*
X10420Y11681D01*
X10405Y11704D01*
X10382Y11719D01*
X10354Y11725D01*
X10098D01*
X10071Y11719D01*
X10048Y11704D01*
X10032Y11681D01*
X10027Y11654D01*
Y11319D01*
X10032Y11292D01*
X10048Y11268D01*
X10059Y11261D01*
X10052Y11204D01*
X10047Y11191D01*
X9803D01*
X9785Y11188D01*
X9701D01*
X9673Y11182D01*
X9650Y11167D01*
X9635Y11143D01*
X9629Y11116D01*
Y10919D01*
X9635Y10892D01*
X9650Y10869D01*
X9673Y10853D01*
X9701Y10848D01*
X9785D01*
X9803Y10844D01*
X10013D01*
X10027Y10830D01*
Y10709D01*
X10032Y10681D01*
X10048Y10658D01*
X10028Y10588D01*
X10016Y10570D01*
X10005Y10512D01*
X10016Y10453D01*
X10049Y10404D01*
X10099Y10371D01*
X10157Y10359D01*
X10216Y10371D01*
X10266Y10404D01*
X10299Y10453D01*
X10310Y10512D01*
X10299Y10567D01*
X10299Y10571D01*
X10338Y10637D01*
X10354D01*
X10382Y10643D01*
X10405Y10658D01*
X10420Y10681D01*
X10426Y10709D01*
Y10811D01*
X10472D01*
X10539Y10824D01*
X10595Y10862D01*
X10607Y10879D01*
X10677Y10858D01*
Y10709D01*
X10682Y10681D01*
X10698Y10658D01*
X10664Y10597D01*
X10646Y10570D01*
X10634Y10512D01*
X10646Y10453D01*
X10663Y10428D01*
X10643Y10380D01*
X10604Y10365D01*
X10577Y10371D01*
X10380D01*
X10353Y10365D01*
X10329Y10350D01*
X10314Y10327D01*
X10309Y10299D01*
Y10094D01*
X10314Y10067D01*
X10329Y10044D01*
X10353Y10029D01*
X10380Y10023D01*
X10577D01*
X10604Y10029D01*
X10633Y10014D01*
X10653Y9960D01*
X10641Y9942D01*
X10629Y9882D01*
X10641Y9821D01*
X10676Y9770D01*
X10727Y9736D01*
X10787Y9724D01*
X10848Y9736D01*
X10899Y9770D01*
X10906Y9780D01*
X10990D01*
X10994Y9774D01*
X11044Y9741D01*
X11102Y9729D01*
X11161Y9741D01*
X11179Y9753D01*
X11192Y9755D01*
X11200Y9753D01*
X11249Y9687D01*
X11244Y9659D01*
Y9463D01*
X11249Y9435D01*
X11234Y9396D01*
X11186Y9376D01*
X11161Y9393D01*
X11102Y9405D01*
X11044Y9393D01*
X10994Y9360D01*
X10987Y9349D01*
X10903D01*
X10896Y9360D01*
X10846Y9393D01*
X10787Y9405D01*
X10729Y9393D01*
X10688Y9366D01*
X10643Y9386D01*
X10623Y9400D01*
X10619Y9419D01*
X10631Y9437D01*
X10636Y9465D01*
Y9669D01*
X10631Y9697D01*
X10615Y9720D01*
X10592Y9735D01*
X10565Y9741D01*
X10368D01*
X10341Y9735D01*
X10302Y9750D01*
X10282Y9798D01*
X10299Y9823D01*
X10310Y9882D01*
X10299Y9940D01*
X10266Y9990D01*
X10216Y10023D01*
X10157Y10035D01*
X10099Y10023D01*
X10049Y9990D01*
X9980Y10001D01*
X9962Y10020D01*
X9951Y10089D01*
X9984Y10138D01*
X9995Y10197D01*
X9984Y10255D01*
X9951Y10305D01*
X9901Y10338D01*
X9843Y10350D01*
X9784Y10338D01*
X9734Y10305D01*
X9701Y10255D01*
X9690Y10197D01*
X9701Y10138D01*
X9734Y10089D01*
X9745Y10081D01*
Y9997D01*
X9734Y9990D01*
X9701Y9940D01*
X9690Y9882D01*
X9701Y9823D01*
X9734Y9774D01*
X9745Y9766D01*
Y9682D01*
X9734Y9675D01*
X9701Y9625D01*
X9690Y9567D01*
X9701Y9508D01*
X9734Y9459D01*
X9745Y9452D01*
Y9367D01*
X9734Y9360D01*
X9701Y9311D01*
X9690Y9252D01*
X9701Y9193D01*
X9734Y9144D01*
X9745Y9137D01*
Y9052D01*
X9734Y9045D01*
X9727Y9034D01*
X9643D01*
X9636Y9045D01*
X9586Y9078D01*
X9528Y9090D01*
X9469Y9078D01*
X9419Y9045D01*
X9386Y8996D01*
X9379Y8958D01*
X9089Y8667D01*
X9063Y8629D01*
X9053Y8583D01*
Y7176D01*
X7814Y5936D01*
X7776Y5929D01*
X7727Y5896D01*
X7693Y5846D01*
X7682Y5787D01*
X7693Y5729D01*
X7727Y5679D01*
X7776Y5646D01*
X7835Y5634D01*
X7893Y5646D01*
X7943Y5679D01*
X7976Y5729D01*
X7983Y5767D01*
X9258Y7041D01*
X9284Y7080D01*
X9293Y7126D01*
Y8533D01*
X9548Y8788D01*
X9586Y8796D01*
X9636Y8829D01*
X9643Y8840D01*
X9727D01*
X9734Y8829D01*
X9784Y8796D01*
X9843Y8784D01*
X9901Y8796D01*
X9926Y8812D01*
X9973Y8792D01*
X9987Y8752D01*
X9982Y8724D01*
Y8520D01*
X9987Y8492D01*
X9973Y8452D01*
X9926Y8432D01*
X9901Y8448D01*
X9843Y8460D01*
X9784Y8448D01*
X9734Y8415D01*
X9701Y8366D01*
X9690Y8307D01*
X9701Y8249D01*
X9734Y8199D01*
X9745Y8192D01*
Y8108D01*
X9734Y8100D01*
X9701Y8051D01*
X9690Y7992D01*
X9701Y7934D01*
X9734Y7884D01*
X9784Y7851D01*
X9843Y7839D01*
X9901Y7851D01*
X9951Y7884D01*
X9958Y7895D01*
X10042D01*
X10049Y7884D01*
X10099Y7851D01*
X10157Y7839D01*
X10216Y7851D01*
X10266Y7884D01*
X10273Y7895D01*
X10357D01*
X10364Y7884D01*
X10414Y7851D01*
X10472Y7839D01*
X10531Y7851D01*
X10581Y7884D01*
X10588Y7895D01*
X10672D01*
X10679Y7884D01*
X10690Y7877D01*
Y7793D01*
X10679Y7785D01*
X10646Y7736D01*
X10634Y7677D01*
X10646Y7619D01*
X10674Y7578D01*
X10653Y7533D01*
X10639Y7513D01*
X10620Y7509D01*
X10602Y7521D01*
X10575Y7526D01*
X10370D01*
X10343Y7521D01*
X10320Y7505D01*
X10247Y7490D01*
X10235Y7491D01*
X10216Y7503D01*
X10157Y7515D01*
X10099Y7503D01*
X10049Y7470D01*
X10042Y7459D01*
X9958D01*
X9951Y7470D01*
X9901Y7503D01*
X9843Y7515D01*
X9784Y7503D01*
X9734Y7470D01*
X9701Y7421D01*
X9690Y7362D01*
X9701Y7304D01*
X9734Y7254D01*
X9745Y7247D01*
Y7163D01*
X9734Y7155D01*
X9701Y7106D01*
X9690Y7047D01*
X9701Y6989D01*
X9734Y6939D01*
X9784Y6906D01*
X9843Y6894D01*
X9901Y6906D01*
X9951Y6939D01*
X9958Y6950D01*
X10042D01*
X10049Y6939D01*
X10060Y6932D01*
Y6848D01*
X10049Y6840D01*
X10016Y6791D01*
X10005Y6732D01*
X10016Y6674D01*
X10049Y6624D01*
X10060Y6617D01*
Y6533D01*
X10049Y6525D01*
X10016Y6476D01*
X10005Y6417D01*
X10016Y6359D01*
X10049Y6309D01*
X10099Y6276D01*
X10157Y6264D01*
X10216Y6276D01*
X10231Y6286D01*
X10246Y6286D01*
X10314Y6268D01*
X10317Y6266D01*
X10318Y6264D01*
X10341Y6249D01*
X10368Y6244D01*
X10565D01*
X10592Y6249D01*
X10615Y6264D01*
X10631Y6288D01*
X10636Y6315D01*
Y6520D01*
X10631Y6547D01*
X10619Y6565D01*
X10623Y6584D01*
X10643Y6598D01*
X10688Y6618D01*
X10729Y6591D01*
X10787Y6579D01*
X10846Y6591D01*
X10896Y6624D01*
X10964Y6613D01*
X10983Y6594D01*
X10994Y6525D01*
X10961Y6476D01*
X10949Y6417D01*
X10961Y6359D01*
X10994Y6309D01*
X11005Y6302D01*
Y6218D01*
X10994Y6211D01*
X10961Y6161D01*
X10949Y6102D01*
X10961Y6044D01*
X10994Y5994D01*
X11005Y5987D01*
Y5903D01*
X10994Y5896D01*
X10961Y5846D01*
X10949Y5787D01*
X10961Y5729D01*
X10994Y5679D01*
X11044Y5646D01*
X11102Y5634D01*
X11161Y5646D01*
X11211Y5679D01*
X11244Y5729D01*
X11255Y5787D01*
X11244Y5846D01*
X11227Y5871D01*
X11247Y5919D01*
X11286Y5934D01*
X11313Y5929D01*
X11510D01*
X11537Y5934D01*
X11560Y5950D01*
X11576Y5973D01*
X11581Y6000D01*
Y6205D01*
X11576Y6232D01*
X11564Y6250D01*
X11568Y6269D01*
X11588Y6283D01*
X11633Y6303D01*
X11674Y6276D01*
X11732Y6264D01*
X11791Y6276D01*
X11840Y6309D01*
X11874Y6359D01*
X11885Y6417D01*
X11874Y6476D01*
X11861Y6494D01*
X11860Y6507D01*
X11875Y6579D01*
X11891Y6603D01*
X11896Y6630D01*
Y6835D01*
X11891Y6862D01*
X11885Y6892D01*
X11901Y6916D01*
X11906Y6943D01*
Y7124D01*
X11923Y7154D01*
X11964Y7188D01*
X12140D01*
X12167Y7194D01*
X12190Y7209D01*
X12206Y7233D01*
X12211Y7260D01*
Y7465D01*
X12206Y7492D01*
X12257Y7542D01*
X12273Y7546D01*
X12289Y7546D01*
X12304Y7536D01*
X12362Y7524D01*
X12421Y7536D01*
X12470Y7569D01*
X12503Y7619D01*
X12515Y7677D01*
X12503Y7736D01*
X12470Y7785D01*
X12421Y7818D01*
X12362Y7830D01*
X12304Y7818D01*
X12289Y7808D01*
X12273Y7808D01*
X12206Y7827D01*
X12203Y7829D01*
X12202Y7830D01*
X12179Y7845D01*
X12152Y7851D01*
X11960D01*
X11952Y7853D01*
X11936Y7863D01*
X11899Y7899D01*
X11896Y7905D01*
Y8094D01*
X11891Y8122D01*
X11941Y8173D01*
X11955Y8176D01*
X11972Y8177D01*
X11989Y8166D01*
X12047Y8154D01*
X12106Y8166D01*
X12121Y8176D01*
X12136Y8176D01*
X12204Y8158D01*
X12207Y8155D01*
X12207Y8154D01*
X12231Y8139D01*
X12258Y8133D01*
X12450D01*
X12458Y8131D01*
X12474Y8121D01*
X12510Y8085D01*
X12513Y8079D01*
Y7890D01*
X12519Y7862D01*
X12534Y7839D01*
X12557Y7824D01*
X12585Y7818D01*
X12781D01*
X12809Y7824D01*
X12832Y7839D01*
X12847Y7862D01*
X12853Y7890D01*
Y8067D01*
X12876Y8108D01*
X12917Y8131D01*
X13094D01*
X13122Y8137D01*
X13145Y8152D01*
X13160Y8175D01*
X13166Y8203D01*
Y8395D01*
X13168Y8403D01*
X13178Y8418D01*
X13214Y8455D01*
X13220Y8458D01*
X13394D01*
X13400Y8455D01*
X13436Y8418D01*
X13446Y8403D01*
X13448Y8395D01*
Y8203D01*
X13454Y8175D01*
X13469Y8152D01*
X13492Y8137D01*
X13520Y8131D01*
X13724D01*
X13752Y8137D01*
X13775Y8152D01*
X13790Y8175D01*
X13796Y8203D01*
Y8400D01*
X13790Y8427D01*
X13775Y8450D01*
X13752Y8466D01*
X13724Y8471D01*
X13535D01*
X13529Y8474D01*
X13493Y8511D01*
X13483Y8526D01*
X13481Y8535D01*
Y8726D01*
X13475Y8754D01*
X13460Y8777D01*
X13437Y8792D01*
X13409Y8798D01*
X13205D01*
X13177Y8792D01*
X13154Y8777D01*
X13139Y8754D01*
X13133Y8726D01*
Y8535D01*
X13131Y8526D01*
X13121Y8511D01*
X13085Y8474D01*
X13079Y8471D01*
X12890D01*
X12862Y8466D01*
X12839Y8450D01*
X12824Y8427D01*
X12818Y8400D01*
Y8230D01*
X12795Y8189D01*
X12754Y8166D01*
X12590D01*
X12581Y8168D01*
X12566Y8178D01*
X12529Y8214D01*
X12526Y8220D01*
Y8409D01*
X12521Y8437D01*
X12517Y8469D01*
X12532Y8492D01*
X12538Y8520D01*
Y8724D01*
X12532Y8752D01*
X12547Y8792D01*
X12594Y8812D01*
X12619Y8796D01*
X12677Y8784D01*
X12736Y8796D01*
X12785Y8829D01*
X12818Y8878D01*
X12830Y8937D01*
X12818Y8996D01*
X12785Y9045D01*
X12774Y9052D01*
Y9137D01*
X12785Y9144D01*
X12793Y9155D01*
X12877D01*
X12884Y9144D01*
X12934Y9111D01*
X12992Y9099D01*
X13051Y9111D01*
X13064Y9119D01*
X13074Y9119D01*
X13136Y9094D01*
X13141Y9089D01*
X13154Y9070D01*
X13177Y9054D01*
X13205Y9049D01*
X13409D01*
X13437Y9054D01*
X13460Y9070D01*
X13475Y9093D01*
X13481Y9120D01*
Y9158D01*
X13545Y9184D01*
X13707Y9022D01*
X13741Y9000D01*
X13780Y8993D01*
X13993D01*
Y8819D01*
X13938Y8775D01*
X13937Y8775D01*
X13878Y8763D01*
X13829Y8730D01*
X13796Y8681D01*
X13784Y8622D01*
X13796Y8564D01*
X13829Y8514D01*
X13878Y8481D01*
X13937Y8469D01*
X14000Y8465D01*
X14022Y8432D01*
X14062Y8392D01*
X14089Y8374D01*
X14088Y8370D01*
Y8165D01*
X14092Y8147D01*
X14055Y8119D01*
X14034Y8108D01*
X13996Y8133D01*
X13937Y8145D01*
X13878Y8133D01*
X13829Y8100D01*
X13796Y8051D01*
X13784Y7992D01*
X13796Y7934D01*
X13829Y7884D01*
X13878Y7851D01*
X13937Y7839D01*
X13996Y7851D01*
X14045Y7884D01*
X14052Y7895D01*
X14137D01*
X14144Y7884D01*
X14155Y7877D01*
Y7793D01*
X14144Y7785D01*
X14111Y7736D01*
X14099Y7677D01*
X14111Y7619D01*
X14127Y7593D01*
X14108Y7546D01*
X14069Y7531D01*
X14041Y7536D01*
X13850D01*
X13841Y7538D01*
X13826Y7548D01*
X13789Y7584D01*
X13786Y7590D01*
Y7780D01*
X13780Y7807D01*
X13765Y7830D01*
X13742Y7845D01*
X13715Y7851D01*
X13518D01*
X13490Y7845D01*
X13467Y7830D01*
X13466Y7829D01*
X13464Y7827D01*
X13396Y7808D01*
X13381Y7808D01*
X13366Y7818D01*
X13307Y7830D01*
X13249Y7818D01*
X13199Y7785D01*
X13166Y7736D01*
X13154Y7677D01*
X13166Y7619D01*
X13199Y7569D01*
X13249Y7536D01*
X13307Y7524D01*
X13366Y7536D01*
X13381Y7546D01*
X13396Y7546D01*
X13464Y7528D01*
X13466Y7525D01*
X13467Y7524D01*
X13490Y7509D01*
X13518Y7503D01*
X13709D01*
X13718Y7501D01*
X13733Y7491D01*
X13770Y7455D01*
X13773Y7449D01*
Y7260D01*
X13779Y7233D01*
X13794Y7209D01*
X13810Y7137D01*
X13808Y7124D01*
X13796Y7106D01*
X13784Y7047D01*
X13796Y6989D01*
X13808Y6970D01*
X13810Y6958D01*
X13794Y6885D01*
X13779Y6862D01*
X13773Y6835D01*
Y6645D01*
X13770Y6640D01*
X13733Y6604D01*
X13718Y6593D01*
X13709Y6591D01*
X13518D01*
X13490Y6586D01*
X13467Y6570D01*
X13452Y6547D01*
X13446Y6520D01*
Y6341D01*
X13426Y6302D01*
X13383Y6276D01*
X13230D01*
X13200Y6293D01*
X13166Y6334D01*
Y6510D01*
X13160Y6537D01*
X13145Y6560D01*
X13122Y6576D01*
X13094Y6581D01*
X12890D01*
X12862Y6576D01*
X12839Y6560D01*
X12767Y6545D01*
X12754Y6546D01*
X12736Y6559D01*
X12677Y6570D01*
X12619Y6559D01*
X12578Y6531D01*
X12533Y6551D01*
X12513Y6566D01*
X12509Y6585D01*
X12521Y6603D01*
X12526Y6630D01*
Y6835D01*
X12521Y6862D01*
X12505Y6885D01*
X12482Y6901D01*
X12455Y6906D01*
X12258D01*
X12231Y6901D01*
X12207Y6885D01*
X12192Y6862D01*
X12186Y6835D01*
Y6630D01*
X12192Y6603D01*
X12207Y6579D01*
X12211Y6577D01*
X12213Y6574D01*
X12232Y6510D01*
X12232Y6492D01*
X12221Y6476D01*
X12209Y6417D01*
X12221Y6359D01*
X12254Y6309D01*
X12304Y6276D01*
X12362Y6264D01*
X12421Y6276D01*
X12470Y6309D01*
X12478Y6320D01*
X12562D01*
X12569Y6309D01*
X12580Y6302D01*
Y6218D01*
X12569Y6211D01*
X12536Y6161D01*
X12524Y6102D01*
X12536Y6044D01*
X12562Y6004D01*
X12536Y5952D01*
X12527Y5941D01*
X12523Y5939D01*
X12511Y5940D01*
X12488Y5956D01*
X12461Y5961D01*
X12275D01*
X12249Y5977D01*
X12211Y6017D01*
X12211Y6017D01*
Y6205D01*
X12206Y6232D01*
X12190Y6255D01*
X12167Y6271D01*
X12140Y6276D01*
X11943D01*
X11916Y6271D01*
X11892Y6255D01*
X11877Y6232D01*
X11872Y6205D01*
Y6000D01*
X11877Y5973D01*
X11892Y5950D01*
X11916Y5934D01*
X11943Y5929D01*
X12129D01*
X12155Y5913D01*
X12192Y5873D01*
X12192Y5873D01*
Y5685D01*
X12198Y5658D01*
X12213Y5635D01*
X12217Y5630D01*
X12233Y5563D01*
X12233Y5548D01*
X12221Y5531D01*
X12209Y5472D01*
X12221Y5414D01*
X12254Y5364D01*
X12243Y5295D01*
X12224Y5277D01*
X12155Y5266D01*
X12106Y5299D01*
X12047Y5310D01*
X11989Y5299D01*
X11948Y5271D01*
X11903Y5292D01*
X11883Y5306D01*
X11879Y5325D01*
X11891Y5343D01*
X11896Y5370D01*
Y5575D01*
X11891Y5602D01*
X11875Y5625D01*
X11860Y5698D01*
X11861Y5710D01*
X11874Y5729D01*
X11885Y5787D01*
X11874Y5846D01*
X11840Y5896D01*
X11791Y5929D01*
X11732Y5940D01*
X11674Y5929D01*
X11624Y5896D01*
X11591Y5846D01*
X11579Y5787D01*
X11591Y5729D01*
X11602Y5712D01*
X11602Y5695D01*
X11583Y5631D01*
X11581Y5628D01*
X11577Y5625D01*
X11577Y5624D01*
X11574Y5622D01*
X11506Y5603D01*
X11491Y5604D01*
X11476Y5614D01*
X11417Y5625D01*
X11359Y5614D01*
X11309Y5581D01*
X11276Y5531D01*
X11264Y5472D01*
X11276Y5414D01*
X11309Y5364D01*
X11359Y5331D01*
X11417Y5319D01*
X11476Y5331D01*
X11491Y5341D01*
X11506Y5342D01*
X11574Y5323D01*
X11577Y5321D01*
X11577Y5320D01*
X11581Y5317D01*
X11583Y5314D01*
X11602Y5250D01*
X11602Y5232D01*
X11591Y5216D01*
X11579Y5157D01*
X11591Y5099D01*
X11624Y5049D01*
X11635Y5042D01*
Y4958D01*
X11624Y4951D01*
X11617Y4940D01*
X11533D01*
X11525Y4951D01*
X11476Y4984D01*
X11417Y4995D01*
X11359Y4984D01*
X11309Y4951D01*
X11240Y4962D01*
X11221Y4980D01*
X11211Y5049D01*
X11244Y5099D01*
X11255Y5157D01*
X11244Y5216D01*
X11211Y5266D01*
X11161Y5299D01*
X11102Y5310D01*
X11044Y5299D01*
X10994Y5266D01*
X10987Y5255D01*
X10903D01*
X10896Y5266D01*
X10846Y5299D01*
X10787Y5310D01*
X10729Y5299D01*
X10679Y5266D01*
X10646Y5216D01*
X10634Y5157D01*
X10646Y5099D01*
X10679Y5049D01*
X10729Y5016D01*
X10787Y5005D01*
X10846Y5016D01*
X10896Y5049D01*
X10903Y5060D01*
X10987D01*
X10994Y5049D01*
X11005Y5042D01*
Y4958D01*
X10994Y4951D01*
X10961Y4901D01*
X10949Y4843D01*
X10961Y4784D01*
X10994Y4734D01*
X11044Y4701D01*
X11102Y4690D01*
X11161Y4701D01*
X11211Y4734D01*
X11218Y4745D01*
X11302D01*
X11309Y4734D01*
X11320Y4727D01*
Y4643D01*
X11309Y4636D01*
X11276Y4586D01*
X11264Y4528D01*
X11276Y4469D01*
X11309Y4419D01*
X11320Y4412D01*
Y4328D01*
X11309Y4321D01*
X11276Y4271D01*
X11264Y4213D01*
X11276Y4154D01*
X11309Y4104D01*
X11359Y4071D01*
X11417Y4060D01*
X11419Y4060D01*
X11473Y4016D01*
Y3976D01*
X11481Y3937D01*
X11503Y3904D01*
X11788Y3619D01*
Y3068D01*
X11761Y3050D01*
X11718Y3037D01*
X11677Y3064D01*
X11614Y3077D01*
X11552Y3064D01*
X11499Y3029D01*
X11463Y2976D01*
X11461Y2965D01*
X11438Y2931D01*
X11427Y2874D01*
Y2723D01*
X11422Y2720D01*
X11407Y2697D01*
X11401Y2669D01*
Y2472D01*
X11407Y2445D01*
X11418Y2407D01*
X11407Y2370D01*
X11401Y2343D01*
Y2146D01*
X11407Y2118D01*
X11422Y2095D01*
X11445Y2080D01*
X11472Y2074D01*
X11569D01*
X11591Y2047D01*
Y1927D01*
X11521Y1880D01*
X11496Y1885D01*
X11438Y1874D01*
X11388Y1840D01*
X11355Y1791D01*
X11354Y1785D01*
X11299Y1728D01*
X11297Y1727D01*
X11241Y1716D01*
X11238Y1714D01*
X11235Y1713D01*
X11185Y1763D01*
X11204Y1792D01*
X11216Y1850D01*
X11204Y1909D01*
X11183Y1941D01*
X11176Y1988D01*
X11183Y2035D01*
X11204Y2067D01*
X11216Y2126D01*
X11204Y2185D01*
X11171Y2234D01*
X11122Y2267D01*
X11063Y2279D01*
X11004Y2267D01*
X10955Y2234D01*
X10922Y2185D01*
X10912Y2137D01*
X10881Y2114D01*
X10811Y2150D01*
Y2919D01*
X10817Y2923D01*
X10850Y2973D01*
X10862Y3031D01*
X10850Y3090D01*
X10828Y3122D01*
X10838Y3136D01*
X10843Y3163D01*
Y3360D01*
X10838Y3388D01*
X10822Y3411D01*
X10799Y3426D01*
X10772Y3432D01*
X10567D01*
X10540Y3426D01*
X10512Y3413D01*
X10484Y3426D01*
X10457Y3432D01*
X10267D01*
X10262Y3435D01*
X10226Y3471D01*
X10215Y3487D01*
X10213Y3495D01*
Y3687D01*
X10208Y3714D01*
X10192Y3737D01*
X10169Y3753D01*
X10142Y3758D01*
X9937D01*
X9910Y3753D01*
X9887Y3737D01*
X9877D01*
X9854Y3753D01*
X9827Y3758D01*
X9622D01*
X9595Y3753D01*
X9572Y3737D01*
X9562D01*
X9539Y3753D01*
X9512Y3758D01*
X9307D01*
X9280Y3753D01*
X9257Y3737D01*
X9241Y3714D01*
X9239Y3701D01*
X9213Y3706D01*
X9150Y3694D01*
X9097Y3659D01*
X9062Y3606D01*
X9049Y3543D01*
X9062Y3481D01*
X9097Y3428D01*
X9150Y3393D01*
X9170Y3389D01*
X9217Y3368D01*
X9236Y3313D01*
Y3173D01*
X9233Y3173D01*
X9183Y3140D01*
X9150Y3090D01*
X9138Y3031D01*
X9150Y2973D01*
X9183Y2923D01*
X9189Y2919D01*
Y2712D01*
X9173Y2643D01*
X9111Y2631D01*
X9058Y2596D01*
X9023Y2543D01*
X9010Y2480D01*
X9023Y2418D01*
X9058Y2365D01*
X9111Y2330D01*
X9173Y2317D01*
X9189Y2249D01*
Y1481D01*
X9173Y1413D01*
X9115Y1401D01*
X9109Y1397D01*
X9039Y1435D01*
Y2014D01*
X9045Y2018D01*
X9078Y2067D01*
X9090Y2126D01*
X9078Y2185D01*
X9045Y2234D01*
X8996Y2267D01*
X8937Y2279D01*
X8878Y2267D01*
X8829Y2234D01*
X8796Y2185D01*
X8784Y2126D01*
X8796Y2067D01*
X8829Y2018D01*
X8835Y2014D01*
Y1750D01*
X8765Y1712D01*
X8759Y1716D01*
X8701Y1728D01*
X8642Y1716D01*
X8637Y1713D01*
X8587Y1763D01*
X8606Y1792D01*
X8618Y1850D01*
X8606Y1909D01*
X8584Y1941D01*
X8577Y1988D01*
X8584Y2035D01*
X8606Y2067D01*
X8618Y2126D01*
X8606Y2185D01*
X8573Y2234D01*
X8523Y2267D01*
X8465Y2279D01*
X8406Y2267D01*
X8356Y2234D01*
X8323Y2185D01*
X8314Y2137D01*
X8282Y2114D01*
X8212Y2150D01*
Y2323D01*
X8204Y2362D01*
X8182Y2395D01*
X8173Y2404D01*
Y2893D01*
X8218Y2923D01*
X8252Y2973D01*
X8263Y3031D01*
X8252Y3090D01*
X8230Y3122D01*
X8239Y3136D01*
X8245Y3163D01*
Y3360D01*
X8239Y3388D01*
X8224Y3411D01*
X8201Y3426D01*
X8173Y3432D01*
X7969D01*
X7941Y3426D01*
X7918Y3411D01*
X7909D01*
X7886Y3426D01*
X7858Y3432D01*
X7669D01*
X7663Y3435D01*
X7627Y3471D01*
X7617Y3487D01*
X7615Y3495D01*
Y3687D01*
X7609Y3714D01*
X7594Y3737D01*
X7571Y3753D01*
X7543Y3758D01*
X7339D01*
X7335Y3758D01*
X7314Y3771D01*
X7285Y3803D01*
X7280Y3813D01*
X7289Y3858D01*
X7277Y3921D01*
X7241Y3974D01*
X7188Y4009D01*
X7126Y4021D01*
X7064Y4009D01*
X7011Y3974D01*
X6975Y3921D01*
X6963Y3858D01*
X6972Y3813D01*
X6967Y3803D01*
X6938Y3771D01*
X6917Y3758D01*
X6913Y3758D01*
X6818D01*
X6771Y3828D01*
X6777Y3858D01*
X6765Y3921D01*
X6730Y3974D01*
X6677Y4009D01*
X6614Y4021D01*
X6552Y4009D01*
X6499Y3974D01*
X6463Y3921D01*
X6451Y3858D01*
X6463Y3796D01*
X6499Y3743D01*
X6466Y3709D01*
X6459Y3704D01*
X6424Y3651D01*
X6412Y3589D01*
X6424Y3526D01*
X6459Y3473D01*
X6512Y3438D01*
X6575Y3425D01*
X6585Y3428D01*
X6603Y3415D01*
X6639Y3367D01*
X6637Y3360D01*
Y3173D01*
X6634Y3173D01*
X6585Y3140D01*
X6552Y3090D01*
X6540Y3031D01*
X6552Y2973D01*
X6585Y2923D01*
X6591Y2919D01*
Y2681D01*
X6521Y2634D01*
X6496Y2639D01*
X6438Y2628D01*
X6388Y2594D01*
X6355Y2545D01*
X6343Y2486D01*
X6355Y2428D01*
X6388Y2378D01*
X6438Y2345D01*
X6496Y2333D01*
X6521Y2338D01*
X6591Y2291D01*
Y1481D01*
X6575Y1413D01*
X6516Y1401D01*
X6467Y1368D01*
X6434Y1318D01*
X6422Y1260D01*
X6434Y1201D01*
X6467Y1152D01*
X6480Y1143D01*
X6497Y1056D01*
X6474Y1024D01*
X6380D01*
Y1053D01*
X6375Y1080D01*
X6360Y1104D01*
X6336Y1119D01*
X6309Y1125D01*
X6132D01*
X6105Y1119D01*
X6102Y1118D01*
X6100Y1119D01*
X6073Y1125D01*
X5896D01*
X5868Y1119D01*
X5866Y1118D01*
X5864Y1119D01*
X5837Y1125D01*
X5659D01*
X5632Y1119D01*
X5630Y1118D01*
X5628Y1119D01*
X5600Y1125D01*
X5423D01*
X5396Y1119D01*
X5394Y1118D01*
X5391Y1119D01*
X5364Y1125D01*
X5187D01*
X5160Y1119D01*
X5157Y1118D01*
X5155Y1119D01*
X5128Y1125D01*
X4959D01*
X4950Y1134D01*
X4948Y1217D01*
X4958Y1223D01*
X4993Y1276D01*
X5006Y1339D01*
X4997Y1380D01*
X5023Y1385D01*
X5076Y1420D01*
X5111Y1473D01*
X5124Y1535D01*
X5111Y1598D01*
X5076Y1651D01*
X5023Y1686D01*
X4961Y1699D01*
X4898Y1686D01*
X4890Y1681D01*
X4856Y1697D01*
X4842Y1780D01*
X4995Y1934D01*
X5018Y1968D01*
X5026Y2008D01*
Y3425D01*
X5018Y3465D01*
X4995Y3499D01*
X4627Y3868D01*
X4593Y3890D01*
X4553Y3898D01*
X4304D01*
X4292Y3906D01*
X4246Y3915D01*
X3990D01*
X3943Y3906D01*
X3904Y3880D01*
X3877Y3840D01*
X3868Y3794D01*
X3877Y3747D01*
X3899Y3695D01*
X3877Y3643D01*
X3868Y3597D01*
X3877Y3550D01*
X3899Y3498D01*
X3877Y3447D01*
X3868Y3400D01*
X3877Y3353D01*
X3899Y3302D01*
X3877Y3250D01*
X3868Y3203D01*
X3877Y3157D01*
X3899Y3105D01*
X3877Y3053D01*
X3868Y3006D01*
X3877Y2960D01*
X3904Y2920D01*
X3928Y2904D01*
X3934Y2830D01*
X3920Y2816D01*
X3845Y2823D01*
X3830Y2846D01*
X3790Y2873D01*
X3744Y2882D01*
X3697Y2873D01*
X3658Y2846D01*
X3633D01*
X3593Y2873D01*
X3547Y2882D01*
X3500Y2873D01*
X3461Y2846D01*
X3436D01*
X3397Y2873D01*
X3350Y2882D01*
X3303Y2873D01*
X3264Y2846D01*
X3238Y2807D01*
X3228Y2760D01*
Y2504D01*
X3234Y2476D01*
X3076Y2318D01*
X3053Y2284D01*
X3050Y2268D01*
X3030Y2255D01*
X3015Y2232D01*
X3009Y2205D01*
Y2067D01*
X3015Y2040D01*
X3030Y2016D01*
X3053Y2001D01*
X3081Y1996D01*
X3219D01*
X3246Y2001D01*
X3269Y2016D01*
X3273Y2022D01*
X3296Y2007D01*
X3323Y2001D01*
X3528D01*
X3555Y2007D01*
X3574Y2019D01*
X3578Y2022D01*
Y2022D01*
X3606Y2044D01*
X3644Y2040D01*
X3671Y2035D01*
X3809D01*
X3836Y2040D01*
X3860Y2056D01*
X3875Y2079D01*
X3880Y2106D01*
Y2244D01*
X3875Y2271D01*
X3866Y2285D01*
Y2432D01*
X3936Y2476D01*
X3971Y2469D01*
X4033Y2482D01*
X4086Y2517D01*
X4122Y2570D01*
X4130Y2611D01*
X4130Y2611D01*
X4180Y2621D01*
X4233Y2657D01*
X4268Y2710D01*
X4274Y2739D01*
X4344Y2732D01*
Y2287D01*
X3815Y1758D01*
X3583D01*
X3543Y1750D01*
X3509Y1727D01*
X3436Y1655D01*
X3050D01*
X3038Y1652D01*
X2977Y1691D01*
X2969Y1703D01*
Y1736D01*
X2971Y1748D01*
Y1833D01*
X2975Y1850D01*
X2971Y1868D01*
Y1953D01*
X2966Y1980D01*
X2950Y2003D01*
X2927Y2019D01*
X2900Y2024D01*
X2703D01*
X2675Y2019D01*
X2652Y2003D01*
X2637Y1980D01*
X2631Y1953D01*
Y1892D01*
X2622Y1844D01*
Y1654D01*
X2635Y1587D01*
X2673Y1531D01*
X2729Y1493D01*
X2744Y1490D01*
X2767Y1415D01*
X2615Y1263D01*
X2568Y1275D01*
X2545Y1290D01*
Y1457D01*
X2537Y1497D01*
X2515Y1531D01*
X2305Y1741D01*
Y2653D01*
X2357Y2701D01*
X2436Y2691D01*
X2444Y2680D01*
X2497Y2645D01*
X2554Y2633D01*
X2566Y2575D01*
X2601Y2522D01*
X2654Y2487D01*
X2717Y2475D01*
X2779Y2487D01*
X2832Y2522D01*
X2867Y2575D01*
X2880Y2638D01*
X2867Y2700D01*
X2832Y2753D01*
X2779Y2789D01*
X2743Y2867D01*
X2757Y2894D01*
X2796Y2920D01*
X2823Y2960D01*
X2832Y3006D01*
X2823Y3053D01*
X2801Y3105D01*
X2823Y3157D01*
X2832Y3203D01*
X2823Y3250D01*
X2801Y3302D01*
X2823Y3353D01*
X2832Y3400D01*
X2823Y3447D01*
X2801Y3498D01*
X2823Y3550D01*
X2832Y3597D01*
X2823Y3643D01*
X2796Y3683D01*
X2757Y3709D01*
X2710Y3718D01*
X2454D01*
X2408Y3709D01*
X2396Y3701D01*
X2258D01*
X2218Y3693D01*
X2184Y3671D01*
X1422Y2909D01*
X1400Y2875D01*
X1392Y2835D01*
Y1121D01*
X1380Y1119D01*
X1357Y1104D01*
X1342Y1080D01*
X1336Y1053D01*
Y1024D01*
X0D01*
Y3543D01*
X432D01*
X509Y3558D01*
X580Y3588D01*
X645Y3631D01*
X700Y3686D01*
X743Y3751D01*
X772Y3822D01*
X787Y3898D01*
Y3976D01*
X772Y4052D01*
X743Y4123D01*
X700Y4188D01*
X645Y4243D01*
X580Y4286D01*
X509Y4316D01*
X432Y4331D01*
X0D01*
Y7045D01*
X41Y7084D01*
X199Y7108D01*
X349Y7164D01*
X485Y7248D01*
X601Y7359D01*
X692Y7490D01*
X755Y7637D01*
X787Y7794D01*
X787Y7874D01*
X787Y7954D01*
X755Y8111D01*
X692Y8258D01*
X601Y8389D01*
X485Y8500D01*
X349Y8584D01*
X199Y8640D01*
X41Y8664D01*
X0Y8703D01*
Y11811D01*
X11952D01*
X12015Y11772D01*
D02*
G37*
G36*
X32283Y8703D02*
X32243Y8664D01*
X32085Y8640D01*
X31935Y8584D01*
X31799Y8500D01*
X31683Y8389D01*
X31591Y8258D01*
X31528Y8111D01*
X31496Y7954D01*
X31496Y7874D01*
X31496Y7794D01*
X31528Y7637D01*
X31591Y7490D01*
X31683Y7359D01*
X31799Y7248D01*
X31935Y7164D01*
X32085Y7108D01*
X32243Y7084D01*
X32283Y7045D01*
Y4331D01*
X31851D01*
X31775Y4316D01*
X31703Y4286D01*
X31639Y4243D01*
X31584Y4188D01*
X31541Y4123D01*
X31511Y4052D01*
X31496Y3976D01*
Y3898D01*
X31511Y3822D01*
X31541Y3751D01*
X31584Y3686D01*
X31639Y3631D01*
X31703Y3588D01*
X31775Y3558D01*
X31851Y3543D01*
X32283D01*
Y1024D01*
X30947D01*
Y1053D01*
X30942Y1080D01*
X30926Y1104D01*
X30903Y1119D01*
X30892Y1121D01*
Y2738D01*
X30917Y2743D01*
X30940Y2759D01*
X30956Y2782D01*
X30961Y2809D01*
Y2933D01*
X31098Y3070D01*
X31120Y3104D01*
X31128Y3144D01*
Y5394D01*
X31120Y5434D01*
X31098Y5468D01*
X30861Y5704D01*
X30862Y5709D01*
X30850Y5767D01*
X30817Y5817D01*
X30767Y5850D01*
X30766Y5850D01*
Y5922D01*
X30767Y5922D01*
X30817Y5955D01*
X30850Y6004D01*
X30862Y6063D01*
X30850Y6122D01*
X30817Y6171D01*
X30767Y6204D01*
X30709Y6216D01*
X30650Y6204D01*
X30601Y6171D01*
X30567Y6122D01*
X30556Y6063D01*
X30557Y6059D01*
X30241Y5743D01*
X30218Y5709D01*
X30210Y5669D01*
Y4077D01*
X30173Y4058D01*
X30140Y4050D01*
X30098Y4078D01*
X30035Y4094D01*
X30023Y4153D01*
X29990Y4203D01*
X29940Y4236D01*
X29882Y4247D01*
X29823Y4236D01*
X29774Y4203D01*
X29741Y4153D01*
X29729Y4094D01*
X29741Y4036D01*
X29774Y3986D01*
X29823Y3953D01*
X29886Y3937D01*
X29898Y3878D01*
X29931Y3829D01*
X29981Y3796D01*
X30039Y3784D01*
X30098Y3796D01*
X30140Y3824D01*
X30163Y3822D01*
X30214Y3802D01*
X30218Y3779D01*
X30241Y3745D01*
X30292Y3694D01*
X30269Y3618D01*
X30253Y3615D01*
X30200Y3580D01*
X30164Y3527D01*
X30152Y3465D01*
X30164Y3402D01*
X30162Y3383D01*
X30147Y3360D01*
X30141Y3333D01*
Y3222D01*
X30071Y3178D01*
X30039Y3184D01*
X29981Y3173D01*
X29931Y3140D01*
X29898Y3090D01*
X29886Y3031D01*
X29898Y2973D01*
X29931Y2923D01*
X29937Y2919D01*
Y2808D01*
X29868Y2739D01*
X29803D01*
X29776Y2733D01*
X29767Y2728D01*
X29751Y2718D01*
X29744D01*
X29679Y2780D01*
Y2943D01*
X29671Y2982D01*
X29649Y3015D01*
X29640Y3024D01*
X29641Y3031D01*
X29629Y3090D01*
X29596Y3140D01*
X29547Y3173D01*
X29488Y3184D01*
X29430Y3173D01*
X29380Y3140D01*
X29347Y3090D01*
X29335Y3031D01*
X29347Y2973D01*
X29380Y2923D01*
X29430Y2890D01*
X29475Y2881D01*
Y2779D01*
X29451Y2760D01*
X29405Y2736D01*
X29390Y2739D01*
X29359D01*
X29321Y2746D01*
X29201D01*
X29196Y2749D01*
X29134Y2762D01*
X29071Y2749D01*
X29067Y2746D01*
X29016D01*
X28959Y2735D01*
X28911Y2703D01*
X28714Y2506D01*
X28682Y2458D01*
X28606Y2420D01*
X28402D01*
X28364Y2484D01*
Y2841D01*
X28434Y2885D01*
X28465Y2879D01*
X28523Y2890D01*
X28573Y2923D01*
X28606Y2973D01*
X28618Y3031D01*
X28606Y3090D01*
X28573Y3140D01*
Y3199D01*
X28606Y3249D01*
X28607Y3255D01*
X28661Y3312D01*
X28720Y3323D01*
X28770Y3356D01*
X28803Y3406D01*
X28814Y3465D01*
X28803Y3523D01*
X28770Y3573D01*
X28720Y3606D01*
X28661Y3618D01*
X28603Y3606D01*
X28553Y3573D01*
X28520Y3523D01*
X28519Y3517D01*
X28465Y3460D01*
X28406Y3448D01*
X28356Y3415D01*
X28323Y3366D01*
X28312Y3307D01*
X28312Y3303D01*
X28185Y3176D01*
X28163Y3142D01*
X28155Y3102D01*
Y2684D01*
X28085Y2671D01*
X28061Y2707D01*
X28011Y2740D01*
X27953Y2751D01*
X27894Y2740D01*
X27845Y2707D01*
X27785D01*
X27736Y2740D01*
X27677Y2751D01*
X27619Y2740D01*
X27569Y2707D01*
X27510D01*
X27460Y2740D01*
X27402Y2751D01*
X27343Y2740D01*
X27293Y2707D01*
X27260Y2657D01*
X27249Y2598D01*
X27260Y2540D01*
X27293Y2490D01*
X27343Y2457D01*
X27402Y2445D01*
X27460Y2457D01*
X27493Y2479D01*
X27539Y2486D01*
X27586Y2479D01*
X27619Y2457D01*
X27677Y2445D01*
X27681Y2446D01*
X27848Y2280D01*
Y1121D01*
X27837Y1119D01*
X27814Y1104D01*
X27798Y1080D01*
X27793Y1053D01*
Y1024D01*
X27640D01*
Y1053D01*
X27635Y1080D01*
X27619Y1104D01*
X27596Y1119D01*
X27582Y1122D01*
Y1220D01*
X27575Y1259D01*
X27552Y1293D01*
X27385Y1460D01*
Y1651D01*
X27436Y1701D01*
X27490Y1742D01*
X27540Y1709D01*
X27598Y1697D01*
X27657Y1709D01*
X27707Y1742D01*
X27740Y1792D01*
X27751Y1850D01*
X27740Y1909D01*
X27707Y1959D01*
X27657Y1992D01*
X27598Y2003D01*
X27540Y1992D01*
X27490Y1959D01*
X27486Y1952D01*
X27441D01*
X27402Y1945D01*
X27369Y1922D01*
X27219Y1773D01*
X27187Y1778D01*
X27149Y1798D01*
Y2329D01*
X27155Y2333D01*
X27189Y2382D01*
X27200Y2441D01*
X27189Y2499D01*
X27155Y2549D01*
X27106Y2582D01*
X27052Y2593D01*
X27041Y2605D01*
X27014Y2659D01*
X27026Y2677D01*
X27034Y2717D01*
Y2748D01*
X27040Y2763D01*
X27080Y2802D01*
X27094Y2809D01*
X27126D01*
X27166Y2817D01*
X27200Y2839D01*
X27318Y2958D01*
X27341Y2991D01*
X27349Y3031D01*
Y3063D01*
X27355Y3078D01*
X27395Y3117D01*
X27409Y3124D01*
X27441D01*
X27481Y3132D01*
X27515Y3154D01*
X27633Y3273D01*
X27656Y3306D01*
X27664Y3346D01*
Y3378D01*
X27670Y3393D01*
X27710Y3432D01*
X27724Y3439D01*
X27756D01*
X27796Y3447D01*
X27830Y3469D01*
X27948Y3588D01*
X27971Y3621D01*
X27979Y3661D01*
Y3701D01*
X27971Y3741D01*
X27948Y3775D01*
X27821Y3902D01*
X27828Y3939D01*
X27817Y3997D01*
X27783Y4047D01*
X27734Y4080D01*
X27675Y4092D01*
X27661Y4153D01*
X27628Y4203D01*
X27578Y4236D01*
X27520Y4247D01*
X27483Y4240D01*
X27397Y4326D01*
X27363Y4349D01*
X27323Y4356D01*
X27287D01*
X27282Y4357D01*
X27274Y4361D01*
X27221Y4411D01*
Y4581D01*
X27219Y4591D01*
X27248Y4643D01*
X27264Y4661D01*
X28011D01*
X28028Y4643D01*
X28057Y4591D01*
X28055Y4581D01*
Y4384D01*
X28060Y4357D01*
X28076Y4333D01*
X28091Y4323D01*
X28085Y4291D01*
X28097Y4229D01*
X28133Y4176D01*
X28186Y4141D01*
X28248Y4128D01*
X28310Y4141D01*
X28363Y4176D01*
X28399Y4229D01*
X28411Y4291D01*
X28399Y4354D01*
X28397Y4357D01*
X28402Y4384D01*
Y4581D01*
X28400Y4591D01*
X28429Y4643D01*
X28445Y4661D01*
X29193D01*
X29209Y4643D01*
X29238Y4591D01*
X29236Y4581D01*
Y4384D01*
X29241Y4357D01*
X29257Y4333D01*
X29272Y4323D01*
X29266Y4291D01*
X29278Y4229D01*
X29314Y4176D01*
X29367Y4141D01*
X29429Y4128D01*
X29492Y4141D01*
X29544Y4176D01*
X29580Y4229D01*
X29592Y4291D01*
X29580Y4354D01*
X29578Y4357D01*
X29583Y4384D01*
Y4581D01*
X29578Y4608D01*
X29567Y4646D01*
X29578Y4683D01*
X29583Y4711D01*
Y4907D01*
X29578Y4935D01*
X29562Y4958D01*
X29539Y4973D01*
X29512Y4979D01*
X29307D01*
X29280Y4973D01*
X29257Y4958D01*
X29256Y4957D01*
X28382D01*
X28381Y4958D01*
X28358Y4973D01*
X28331Y4979D01*
X28126D01*
X28099Y4973D01*
X28076Y4958D01*
X28075Y4957D01*
X27201D01*
X27200Y4958D01*
X27177Y4973D01*
X27150Y4979D01*
X26945D01*
X26918Y4973D01*
X26894Y4958D01*
X26894Y4957D01*
X26020D01*
X26019Y4958D01*
X25996Y4973D01*
X25968Y4979D01*
X25764D01*
X25736Y4973D01*
X25713Y4958D01*
X25704D01*
X25681Y4973D01*
X25654Y4979D01*
X25449D01*
X25422Y4973D01*
X25398Y4958D01*
X25383Y4935D01*
X25377Y4907D01*
Y4711D01*
X25383Y4683D01*
X25398Y4660D01*
X25422Y4645D01*
X25449Y4639D01*
X25638D01*
X25644Y4636D01*
X25680Y4600D01*
X25690Y4584D01*
X25692Y4576D01*
Y4384D01*
X25698Y4357D01*
X25713Y4333D01*
X25729Y4323D01*
X25723Y4291D01*
X25735Y4229D01*
X25770Y4176D01*
X25823Y4141D01*
X25886Y4128D01*
X25948Y4141D01*
X25981Y4162D01*
X26000Y4154D01*
X26034Y4104D01*
X26083Y4071D01*
X26104Y4067D01*
X26127Y3991D01*
X25952Y3816D01*
X25893Y3856D01*
X25901Y3898D01*
X25889Y3956D01*
X25856Y4006D01*
X25807Y4039D01*
X25748Y4051D01*
X25689Y4039D01*
X25640Y4006D01*
X25607Y3956D01*
X25595Y3898D01*
X25607Y3839D01*
X25567Y3773D01*
X25561Y3770D01*
X25528Y3720D01*
X25516Y3661D01*
X25528Y3603D01*
X25561Y3553D01*
X25578Y3542D01*
X25593Y3458D01*
X25390Y3254D01*
X24881D01*
X24838Y3307D01*
X24826Y3366D01*
X24793Y3415D01*
X24744Y3448D01*
X24685Y3460D01*
X24627Y3448D01*
X24621Y3445D01*
X24567Y3420D01*
X24513Y3445D01*
X24507Y3448D01*
X24449Y3460D01*
X24390Y3448D01*
X24341Y3415D01*
X24308Y3366D01*
X24296Y3310D01*
X24292Y3307D01*
X24212D01*
X24208Y3310D01*
X24196Y3366D01*
X24163Y3415D01*
X24114Y3448D01*
X24055Y3460D01*
X23997Y3448D01*
X23991Y3445D01*
X23937Y3420D01*
X23883Y3445D01*
X23877Y3448D01*
X23819Y3460D01*
X23812Y3459D01*
X23185Y4085D01*
X23212Y4150D01*
X23346D01*
X23385Y4158D01*
X23419Y4180D01*
X23536Y4297D01*
X23543Y4296D01*
X23602Y4308D01*
X23651Y4341D01*
X23685Y4390D01*
X23696Y4449D01*
X23685Y4507D01*
X23651Y4557D01*
X23602Y4590D01*
X23543Y4602D01*
X23485Y4590D01*
X23435Y4557D01*
X23402Y4507D01*
X23390Y4449D01*
X23392Y4442D01*
X23304Y4354D01*
X21683D01*
X21646Y4424D01*
X21647Y4426D01*
X21659Y4488D01*
X21647Y4551D01*
X21611Y4604D01*
Y4648D01*
X21647Y4701D01*
X21659Y4764D01*
X21647Y4826D01*
X21611Y4879D01*
X21558Y4915D01*
X21496Y4927D01*
X21434Y4915D01*
X21381Y4879D01*
X21336D01*
X21283Y4915D01*
X21220Y4927D01*
X21158Y4915D01*
X21105Y4879D01*
X21060D01*
X21007Y4915D01*
X20945Y4927D01*
X20882Y4915D01*
X20830Y4879D01*
X20785D01*
X20732Y4915D01*
X20669Y4927D01*
X20607Y4915D01*
X20554Y4879D01*
X20509D01*
X20456Y4915D01*
X20394Y4927D01*
X20331Y4915D01*
X20278Y4879D01*
X20243Y4826D01*
X20231Y4764D01*
X20243Y4701D01*
X20278Y4648D01*
X20264Y4574D01*
X20248Y4549D01*
X20236Y4488D01*
X20248Y4428D01*
X20250Y4424D01*
X20213Y4354D01*
X19845D01*
X19679Y4520D01*
X19681Y4528D01*
X19669Y4586D01*
X19636Y4636D01*
Y4656D01*
X19669Y4705D01*
X19681Y4764D01*
X19669Y4822D01*
X19636Y4872D01*
X19586Y4905D01*
X19528Y4917D01*
X19469Y4905D01*
X19441Y4886D01*
X19370D01*
X19363Y4892D01*
Y5945D01*
X19357Y5972D01*
X19342Y5995D01*
X19319Y6011D01*
X19291Y6016D01*
X18258D01*
X18063Y6211D01*
Y6417D01*
X18071Y6457D01*
X18063Y6497D01*
Y6555D01*
X18058Y6582D01*
X18043Y6606D01*
X18019Y6621D01*
X17992Y6626D01*
X16969D01*
X16914Y6679D01*
X16913Y6681D01*
Y7756D01*
X16905Y7795D01*
X16883Y7828D01*
X16606Y8106D01*
X16617Y8130D01*
X16647Y8163D01*
X16693Y8154D01*
X16751Y8166D01*
X16801Y8199D01*
X16834Y8249D01*
X16846Y8307D01*
X16834Y8366D01*
X16811Y8400D01*
X17129Y8717D01*
X18063D01*
X18065Y8716D01*
X18118Y8661D01*
Y8583D01*
X18110Y8543D01*
X18118Y8503D01*
Y8308D01*
X18110Y8268D01*
X18118Y8228D01*
Y8032D01*
X18110Y7992D01*
X18118Y7952D01*
Y7638D01*
X18123Y7610D01*
X18139Y7587D01*
X18178Y7548D01*
X18201Y7532D01*
X18228Y7527D01*
X19449D01*
X19476Y7532D01*
X19499Y7548D01*
X19539Y7587D01*
X19554Y7610D01*
X19560Y7638D01*
Y7795D01*
X19554Y7823D01*
X19539Y7846D01*
X18987Y8397D01*
X18990Y8411D01*
X19055Y8469D01*
X19114Y8481D01*
X19163Y8514D01*
X19196Y8564D01*
X19197Y8564D01*
X19268D01*
X19268Y8564D01*
X19301Y8514D01*
X19351Y8481D01*
X19409Y8469D01*
X19468Y8481D01*
X19518Y8514D01*
X19551Y8564D01*
X19562Y8622D01*
X19606Y8646D01*
X19650Y8622D01*
X19662Y8564D01*
X19695Y8514D01*
X19745Y8481D01*
X19803Y8469D01*
X19862Y8481D01*
X19911Y8514D01*
X19919Y8525D01*
X20003D01*
X20010Y8514D01*
X20060Y8481D01*
X20118Y8469D01*
X20177Y8481D01*
X20226Y8514D01*
X20234Y8525D01*
X20318D01*
X20325Y8514D01*
X20375Y8481D01*
X20433Y8469D01*
X20492Y8481D01*
X20541Y8514D01*
X20574Y8564D01*
X20586Y8622D01*
X20581Y8647D01*
X20628Y8717D01*
X21572D01*
X21700Y8589D01*
X21733Y8567D01*
X21772Y8559D01*
X23147D01*
X23510Y8196D01*
X23508Y8189D01*
X23520Y8130D01*
X23553Y8081D01*
X23603Y8048D01*
X23661Y8036D01*
X23720Y8048D01*
X23765Y8078D01*
X23789Y8073D01*
X23835Y8053D01*
Y6341D01*
X23580Y6086D01*
X21265D01*
X20632Y6718D01*
Y6941D01*
X20627Y6968D01*
X20611Y6991D01*
X20588Y7007D01*
X20561Y7012D01*
X20266D01*
X20238Y7007D01*
X20215Y6991D01*
X20200Y6968D01*
X20194Y6941D01*
Y6940D01*
X20124Y6884D01*
X20118Y6885D01*
X20060Y6874D01*
X20010Y6840D01*
X19977Y6791D01*
X19965Y6732D01*
X19977Y6674D01*
X20010Y6624D01*
X20060Y6591D01*
X20118Y6579D01*
X20177Y6591D01*
X20190Y6600D01*
X20215Y6595D01*
X20238Y6580D01*
X20266Y6574D01*
X20488D01*
X21150Y5912D01*
X21183Y5890D01*
X21222Y5882D01*
X23580D01*
X23835Y5627D01*
Y4719D01*
X23829Y4714D01*
X23796Y4665D01*
X23784Y4606D01*
X23796Y4548D01*
X23829Y4498D01*
X23878Y4465D01*
X23937Y4453D01*
X23996Y4465D01*
X24045Y4498D01*
X24078Y4548D01*
X24090Y4606D01*
X24078Y4665D01*
X24045Y4714D01*
X24039Y4719D01*
Y5669D01*
X24031Y5708D01*
X24009Y5741D01*
X23766Y5984D01*
X24009Y6227D01*
X24031Y6260D01*
X24039Y6299D01*
Y7266D01*
X24109Y7303D01*
X24115Y7300D01*
X24173Y7288D01*
X24232Y7300D01*
X24281Y7333D01*
X24315Y7382D01*
X24326Y7441D01*
X24315Y7499D01*
X24281Y7549D01*
X24232Y7582D01*
X24173Y7594D01*
X24115Y7582D01*
X24109Y7578D01*
X24039Y7616D01*
Y8661D01*
X24031Y8700D01*
X24009Y8734D01*
X23918Y8824D01*
X23928Y8860D01*
X23948Y8894D01*
X23999Y8904D01*
X24052Y8940D01*
X24088Y8993D01*
X24100Y9055D01*
X24088Y9118D01*
X24052Y9170D01*
X23999Y9206D01*
X23937Y9218D01*
X23875Y9206D01*
X23873Y9205D01*
X23803Y9242D01*
Y11039D01*
X23873Y11068D01*
X23960Y10980D01*
Y10852D01*
X23966Y10825D01*
X23977Y10787D01*
X23966Y10750D01*
X23960Y10722D01*
Y10526D01*
X23966Y10498D01*
X23981Y10475D01*
X24004Y10460D01*
X24032Y10454D01*
X24116D01*
X24134Y10451D01*
X24227D01*
X24291Y10387D01*
Y10266D01*
X24296Y10238D01*
X24312Y10215D01*
X24335Y10200D01*
X24348Y10197D01*
X24350Y10188D01*
X24387Y10131D01*
X24484Y10035D01*
X24540Y9997D01*
X24606Y9984D01*
X24673Y9997D01*
X24729Y10035D01*
X24766Y10091D01*
X24780Y10157D01*
Y10317D01*
X24766Y10383D01*
X24729Y10439D01*
X24729Y10439D01*
Y10561D01*
X24723Y10588D01*
X24708Y10611D01*
X24685Y10627D01*
X24657Y10632D01*
X24536D01*
X24422Y10747D01*
X24366Y10784D01*
X24360Y10785D01*
X24350Y10792D01*
X24308Y10852D01*
Y10922D01*
X24372D01*
X24411Y10929D01*
X24430Y10942D01*
X24657D01*
X24685Y10948D01*
X24708Y10963D01*
X24723Y10986D01*
X24729Y11014D01*
Y11125D01*
X24799Y11162D01*
X24819Y11149D01*
X24882Y11136D01*
X24944Y11149D01*
X24997Y11184D01*
X25033Y11237D01*
X25045Y11299D01*
X25033Y11362D01*
X24997Y11415D01*
X24944Y11450D01*
X24882Y11462D01*
X24819Y11450D01*
X24767Y11415D01*
X24759Y11403D01*
X24716Y11366D01*
X24685Y11375D01*
X24657Y11380D01*
X24362D01*
X24335Y11375D01*
X24312Y11360D01*
X24296Y11336D01*
X24291Y11309D01*
Y11126D01*
X24213D01*
X24187Y11121D01*
X24161D01*
X24129Y11158D01*
X24124Y11230D01*
X24157Y11280D01*
X24169Y11339D01*
X24157Y11397D01*
X24124Y11447D01*
X24074Y11480D01*
X24016Y11492D01*
X23957Y11480D01*
X23908Y11447D01*
X23897Y11431D01*
X23812Y11416D01*
X23621Y11608D01*
X23588Y11630D01*
X23549Y11637D01*
X23470D01*
X23457Y11654D01*
Y11811D01*
X32283D01*
Y8703D01*
D02*
G37*
G36*
X16425Y11654D02*
X16411Y11637D01*
X16339D01*
X16300Y11630D01*
X16255Y11684D01*
X16253Y11687D01*
X16202Y11721D01*
X16142Y11733D01*
X16081Y11721D01*
X16030Y11687D01*
X15978D01*
X15927Y11721D01*
X15866Y11733D01*
X15806Y11721D01*
X15754Y11687D01*
X15720Y11635D01*
X15708Y11575D01*
X15720Y11514D01*
X15754Y11463D01*
Y11450D01*
X15720Y11399D01*
X15708Y11339D01*
X15720Y11278D01*
X15754Y11227D01*
X15774Y11214D01*
X15789Y11130D01*
X15588Y10929D01*
X14927D01*
X14914Y10945D01*
Y11772D01*
X14977Y11811D01*
X16425D01*
Y11654D01*
D02*
G37*
G36*
X12638Y11575D02*
X12677Y11535D01*
X12953D01*
Y11299D01*
X12087D01*
Y11772D01*
X12638D01*
Y11575D01*
D02*
G37*
G36*
X14102Y11772D02*
Y11449D01*
X13780Y11449D01*
X13752Y11444D01*
X13729Y11428D01*
X13714Y11405D01*
X13713Y11401D01*
X13682Y11369D01*
X13638Y11354D01*
X13636Y11355D01*
X13439D01*
X13412Y11349D01*
X13389Y11334D01*
X13373Y11311D01*
X13368Y11283D01*
Y11256D01*
X13224Y11113D01*
X13186Y11056D01*
X13173Y10990D01*
Y10866D01*
X13186Y10800D01*
X13224Y10744D01*
X13267Y10715D01*
X13289Y10638D01*
X12999Y10348D01*
X12992Y10350D01*
X12934Y10338D01*
X12884Y10305D01*
X12851Y10255D01*
X12839Y10197D01*
X12839Y10195D01*
X12795Y10141D01*
X12559D01*
X12515Y10195D01*
X12515Y10197D01*
X12503Y10255D01*
X12470Y10305D01*
X12421Y10338D01*
X12362Y10350D01*
X12304Y10338D01*
X12254Y10305D01*
X12221Y10255D01*
X12209Y10197D01*
X12166Y10134D01*
X12133Y10111D01*
X12055Y10033D01*
X12047Y10035D01*
X11989Y10023D01*
X11939Y9990D01*
X11932Y9979D01*
X11851D01*
X11836Y10044D01*
X11851Y10067D01*
X11857Y10094D01*
Y10104D01*
X11878Y10136D01*
X11890Y10197D01*
X11878Y10257D01*
X11857Y10289D01*
Y10299D01*
X11851Y10327D01*
X11836Y10350D01*
X11851Y10415D01*
X11932D01*
X11939Y10404D01*
X11989Y10371D01*
X12047Y10359D01*
X12106Y10371D01*
X12155Y10404D01*
X12189Y10453D01*
X12200Y10512D01*
X12189Y10570D01*
X12164Y10607D01*
X12180Y10655D01*
X12195Y10677D01*
X12441D01*
X12468Y10682D01*
X12491Y10698D01*
X12531Y10737D01*
X12546Y10760D01*
X12552Y10787D01*
X12552Y10906D01*
X12546Y10933D01*
X12531Y10956D01*
X12405Y11082D01*
X12409Y11144D01*
X12468Y11186D01*
X12520Y11175D01*
X12582Y11188D01*
X12585Y11190D01*
X12655Y11152D01*
Y10974D01*
X12660Y10947D01*
X12661Y10946D01*
Y10866D01*
X12675Y10800D01*
X12712Y10744D01*
X12768Y10706D01*
X12835Y10693D01*
X12901Y10706D01*
X12957Y10744D01*
X12995Y10800D01*
X13008Y10866D01*
Y10946D01*
X13009Y10947D01*
X13014Y10974D01*
Y11191D01*
X13009Y11218D01*
X13003Y11249D01*
X13019Y11272D01*
X13024Y11299D01*
Y11535D01*
X13019Y11563D01*
X13003Y11586D01*
X12997Y11590D01*
X12993Y11596D01*
X12970Y11611D01*
X12943Y11617D01*
X12726D01*
X12709Y11631D01*
Y11772D01*
X12773Y11811D01*
X14038D01*
X14102Y11772D01*
D02*
G37*
G36*
X23091Y11363D02*
X23087Y11358D01*
X23075Y11299D01*
X23076Y11295D01*
X22939Y11158D01*
X22837D01*
X22809Y11153D01*
X22786Y11137D01*
X22771Y11114D01*
X22765Y11087D01*
Y10890D01*
X22771Y10862D01*
X22786Y10839D01*
X22809Y10824D01*
X22837Y10818D01*
X23041D01*
X23069Y10824D01*
X23092Y10839D01*
X23169Y10843D01*
X23170Y10843D01*
X23228Y10831D01*
X23287Y10843D01*
X23297Y10841D01*
X23298Y10839D01*
X23321Y10824D01*
X23348Y10818D01*
X23553D01*
X23599Y10758D01*
Y8898D01*
X23607Y8859D01*
X23629Y8826D01*
X23721Y8733D01*
X23692Y8664D01*
X23645Y8665D01*
X23379Y8930D01*
X23346Y8952D01*
X23307Y8960D01*
X23108D01*
X23061Y9030D01*
X23066Y9055D01*
X23055Y9114D01*
X23022Y9163D01*
X22972Y9196D01*
X22913Y9208D01*
X22855Y9196D01*
X22805Y9163D01*
X22772Y9114D01*
X22760Y9055D01*
X22762Y9045D01*
X22717Y8986D01*
X22677D01*
X22631Y9045D01*
X22633Y9055D01*
X22622Y9114D01*
X22588Y9163D01*
X22539Y9196D01*
X22480Y9208D01*
X22422Y9196D01*
X22372Y9163D01*
X22339Y9114D01*
X22327Y9055D01*
X22332Y9030D01*
X22286Y8960D01*
X21893D01*
X21765Y9088D01*
X21732Y9110D01*
X21693Y9118D01*
X16535D01*
X16496Y9110D01*
X16463Y9088D01*
X16257Y8881D01*
X16024D01*
X15979Y8936D01*
X15980Y8937D01*
X15968Y8996D01*
X15935Y9045D01*
X15885Y9078D01*
X15827Y9090D01*
X15768Y9078D01*
X15719Y9045D01*
X15711Y9034D01*
X15627D01*
X15620Y9045D01*
X15609Y9052D01*
Y9137D01*
X15620Y9144D01*
X15653Y9193D01*
X15665Y9252D01*
X15653Y9311D01*
X15649Y9317D01*
X15694Y9366D01*
X15698Y9369D01*
X15724Y9364D01*
X15929D01*
X15956Y9369D01*
X15980Y9385D01*
X15995Y9408D01*
X16001Y9435D01*
Y9473D01*
X16065Y9499D01*
X16266Y9298D01*
X16300Y9276D01*
X16339Y9268D01*
X18511D01*
Y9262D01*
X18517Y9234D01*
X18532Y9211D01*
X18555Y9196D01*
X18583Y9190D01*
X18720D01*
X18748Y9196D01*
X18771Y9211D01*
X18788D01*
X18811Y9196D01*
X18839Y9190D01*
X18976D01*
X19004Y9196D01*
X19027Y9211D01*
X19035Y9224D01*
X19252D01*
X19293Y9232D01*
X19328Y9255D01*
X19439Y9366D01*
X19449Y9364D01*
X19511Y9377D01*
X19564Y9412D01*
X19600Y9465D01*
X19612Y9528D01*
X19600Y9590D01*
X19564Y9643D01*
X19511Y9678D01*
X19449Y9691D01*
X19386Y9678D01*
X19333Y9643D01*
X19298Y9590D01*
X19286Y9528D01*
X19288Y9518D01*
X19208Y9438D01*
X19035D01*
X19027Y9450D01*
X19004Y9466D01*
X18976Y9471D01*
X18839D01*
X18824Y9468D01*
X18778Y9492D01*
X18754Y9511D01*
Y9593D01*
X18789D01*
X18844Y9603D01*
X18890Y9634D01*
X18920Y9680D01*
X18931Y9734D01*
X18920Y9788D01*
X18900Y9818D01*
X18920Y9874D01*
X18931Y9888D01*
X19203D01*
X19242Y9896D01*
X19275Y9918D01*
X19506Y10150D01*
X19563Y10122D01*
X19572Y10116D01*
X19583Y10060D01*
X19616Y10010D01*
X19666Y9977D01*
X19724Y9965D01*
X19783Y9977D01*
X19833Y10010D01*
X19866Y10060D01*
X19877Y10118D01*
X19866Y10177D01*
X19833Y10226D01*
X19783Y10259D01*
X19773Y10261D01*
X19740Y10339D01*
X19757Y10365D01*
X19783Y10371D01*
X19833Y10404D01*
X19866Y10453D01*
X19877Y10512D01*
X19866Y10570D01*
X19833Y10620D01*
X19783Y10653D01*
X19724Y10665D01*
X19666Y10653D01*
X19616Y10620D01*
X19583Y10570D01*
X19571Y10512D01*
X19573Y10505D01*
X19161Y10092D01*
X18931D01*
X18920Y10106D01*
X18901Y10159D01*
X18903Y10166D01*
X18920Y10192D01*
X18931Y10246D01*
X18920Y10300D01*
X18890Y10346D01*
X18844Y10377D01*
X18789Y10388D01*
X18614D01*
X18583Y10394D01*
X18245D01*
Y10447D01*
X18239Y10474D01*
X18224Y10497D01*
X18201Y10513D01*
X18173Y10518D01*
X18089D01*
X18071Y10522D01*
X18053Y10518D01*
X17968D01*
X17941Y10513D01*
X17918Y10497D01*
X17903Y10474D01*
X17897Y10447D01*
Y10250D01*
X17898Y10248D01*
Y10162D01*
X17898Y10162D01*
X17840Y10092D01*
X17050D01*
X17044Y10162D01*
X17045Y10162D01*
X17068Y10178D01*
X17084Y10201D01*
X17089Y10228D01*
Y10524D01*
X17084Y10551D01*
X17068Y10574D01*
X17045Y10590D01*
X17018Y10595D01*
X16992D01*
Y10742D01*
X17005Y10751D01*
X17040Y10804D01*
X17053Y10866D01*
X17040Y10929D01*
X17005Y10982D01*
X16952Y11017D01*
X16890Y11029D01*
X16865Y11024D01*
X16864Y11025D01*
X16824Y11052D01*
X16778Y11061D01*
X16611D01*
X16595Y11083D01*
X16580Y11121D01*
X16586Y11140D01*
X16591Y11167D01*
Y11203D01*
X17025D01*
Y11130D01*
X17031Y11103D01*
X17046Y11079D01*
X17069Y11064D01*
X17096Y11059D01*
X17392D01*
X17419Y11064D01*
X17442Y11079D01*
X17458Y11103D01*
X17463Y11130D01*
Y11425D01*
X17470Y11433D01*
X23053D01*
X23091Y11363D01*
D02*
G37*
%LPC*%
G36*
X13400Y7221D02*
X13203D01*
X13175Y7216D01*
X13152Y7200D01*
X13137Y7177D01*
X13131Y7150D01*
Y6945D01*
X13137Y6918D01*
X13152Y6894D01*
X13156Y6892D01*
X13158Y6889D01*
X13176Y6825D01*
X13177Y6807D01*
X13166Y6791D01*
X13154Y6732D01*
X13166Y6674D01*
X13199Y6624D01*
X13249Y6591D01*
X13307Y6579D01*
X13366Y6591D01*
X13415Y6624D01*
X13448Y6674D01*
X13460Y6732D01*
X13448Y6791D01*
X13436Y6809D01*
X13434Y6822D01*
X13450Y6894D01*
X13466Y6918D01*
X13471Y6945D01*
Y7150D01*
X13466Y7177D01*
X13450Y7200D01*
X13427Y7216D01*
X13400Y7221D01*
D02*
G37*
G36*
X9528Y6885D02*
X9469Y6874D01*
X9419Y6840D01*
X9386Y6791D01*
X9375Y6732D01*
X9386Y6674D01*
X9419Y6624D01*
X9469Y6591D01*
X9528Y6579D01*
X9586Y6591D01*
X9636Y6624D01*
X9669Y6674D01*
X9681Y6732D01*
X9669Y6791D01*
X9636Y6840D01*
X9586Y6874D01*
X9528Y6885D01*
D02*
G37*
G36*
X7835Y6570D02*
X7776Y6559D01*
X7727Y6525D01*
X7693Y6476D01*
X7682Y6417D01*
X7693Y6359D01*
X7727Y6309D01*
X7776Y6276D01*
X7835Y6264D01*
X7893Y6276D01*
X7943Y6309D01*
X7976Y6359D01*
X7988Y6417D01*
X7976Y6476D01*
X7943Y6525D01*
X7893Y6559D01*
X7835Y6570D01*
D02*
G37*
G36*
X4754Y6902D02*
X4616D01*
X4589Y6897D01*
X4566Y6881D01*
X4550Y6858D01*
X4545Y6831D01*
Y6801D01*
X4539Y6793D01*
X4527Y6732D01*
X4539Y6672D01*
X4573Y6621D01*
X4625Y6586D01*
X4685Y6574D01*
X4746Y6586D01*
X4797Y6621D01*
X4831Y6672D01*
X4843Y6732D01*
X4831Y6793D01*
X4825Y6801D01*
Y6831D01*
X4820Y6858D01*
X4804Y6881D01*
X4781Y6897D01*
X4754Y6902D01*
D02*
G37*
G36*
X8150Y7515D02*
X8091Y7503D01*
X8041Y7470D01*
X8008Y7421D01*
X7997Y7362D01*
X8008Y7304D01*
X8041Y7254D01*
X8091Y7221D01*
X8150Y7209D01*
X8208Y7221D01*
X8258Y7254D01*
X8291Y7304D01*
X8303Y7362D01*
X8291Y7421D01*
X8258Y7470D01*
X8208Y7503D01*
X8150Y7515D01*
D02*
G37*
G36*
X8465Y7830D02*
X8406Y7818D01*
X8356Y7785D01*
X8323Y7736D01*
X8312Y7677D01*
X8323Y7619D01*
X8356Y7569D01*
X8406Y7536D01*
X8465Y7524D01*
X8523Y7536D01*
X8573Y7569D01*
X8606Y7619D01*
X8618Y7677D01*
X8606Y7736D01*
X8573Y7785D01*
X8523Y7818D01*
X8465Y7830D01*
D02*
G37*
G36*
X2358Y6706D02*
X2288D01*
X2253Y6699D01*
X2224Y6680D01*
X2196Y6699D01*
X2161Y6706D01*
X2091D01*
X2056Y6699D01*
X2048Y6693D01*
X2047Y6693D01*
X2047D01*
X2026Y6679D01*
X2006Y6649D01*
X1999Y6614D01*
Y6322D01*
X1999Y6318D01*
X1969Y6252D01*
X1941Y6247D01*
X1918Y6232D01*
X1903Y6208D01*
X1897Y6181D01*
Y5977D01*
X1457D01*
X1429Y5971D01*
X1406Y5956D01*
X1391Y5933D01*
X1385Y5906D01*
Y5354D01*
X1391Y5327D01*
X1406Y5304D01*
X1429Y5288D01*
X1457Y5283D01*
X2244Y5283D01*
X2271Y5288D01*
X2295Y5304D01*
X2310Y5327D01*
X2315Y5354D01*
X2315Y6181D01*
X2373Y6230D01*
X2393Y6234D01*
X2423Y6254D01*
X2443Y6284D01*
X2450Y6319D01*
Y6614D01*
X2443Y6649D01*
X2423Y6679D01*
X2393Y6699D01*
X2358Y6706D01*
D02*
G37*
G36*
X2949D02*
X2878D01*
X2843Y6699D01*
X2815Y6680D01*
X2787Y6699D01*
X2752Y6706D01*
X2681D01*
X2646Y6699D01*
X2616Y6679D01*
X2597Y6649D01*
X2590Y6614D01*
Y6319D01*
X2575Y6292D01*
X2522Y6257D01*
X2487Y6204D01*
X2475Y6142D01*
X2487Y6079D01*
X2522Y6026D01*
X2575Y5991D01*
X2638Y5979D01*
X2704Y5920D01*
Y5837D01*
X2710Y5809D01*
X2724Y5788D01*
Y5787D01*
X2729Y5760D01*
X2745Y5737D01*
X2768Y5721D01*
X2795Y5716D01*
X3110D01*
X3138Y5721D01*
X3161Y5737D01*
X3176Y5760D01*
X3182Y5787D01*
Y6614D01*
X3176Y6641D01*
X3161Y6665D01*
X3138Y6680D01*
X3110Y6686D01*
X3003D01*
X2984Y6699D01*
X2949Y6706D01*
D02*
G37*
G36*
X4754Y6272D02*
X4616D01*
X4589Y6267D01*
X4566Y6251D01*
X4550Y6228D01*
X4545Y6201D01*
Y6171D01*
X4539Y6163D01*
X4527Y6102D01*
X4539Y6042D01*
X4573Y5991D01*
X4625Y5956D01*
X4685Y5944D01*
X4746Y5956D01*
X4797Y5991D01*
X4831Y6042D01*
X4843Y6102D01*
X4831Y6163D01*
X4825Y6171D01*
Y6201D01*
X4820Y6228D01*
X4804Y6251D01*
X4781Y6267D01*
X4754Y6272D01*
D02*
G37*
G36*
X5551Y4326D02*
X5493Y4315D01*
X5443Y4281D01*
X5410Y4232D01*
X5398Y4173D01*
X5410Y4115D01*
X5443Y4065D01*
X5493Y4032D01*
X5551Y4020D01*
X5610Y4032D01*
X5659Y4065D01*
X5692Y4115D01*
X5704Y4173D01*
X5692Y4232D01*
X5659Y4281D01*
X5610Y4315D01*
X5551Y4326D01*
D02*
G37*
G36*
X5354Y3825D02*
X5292Y3812D01*
X5239Y3777D01*
X5204Y3724D01*
X5191Y3661D01*
X5204Y3599D01*
X5239Y3546D01*
X5292Y3511D01*
X5354Y3498D01*
X5417Y3511D01*
X5470Y3546D01*
X5505Y3599D01*
X5517Y3661D01*
X5505Y3724D01*
X5470Y3777D01*
X5417Y3812D01*
X5354Y3825D01*
D02*
G37*
G36*
X8346Y11423D02*
X8284Y11411D01*
X8231Y11375D01*
X8231Y11375D01*
X8147D01*
X8147Y11375D01*
X8094Y11411D01*
X8031Y11423D01*
X7969Y11411D01*
X7916Y11375D01*
X7916Y11375D01*
X7832D01*
X7832Y11375D01*
X7779Y11411D01*
X7717Y11423D01*
X7654Y11411D01*
X7601Y11375D01*
X7601Y11375D01*
X7517D01*
X7517Y11375D01*
X7464Y11411D01*
X7402Y11423D01*
X7339Y11411D01*
X7286Y11375D01*
X7251Y11322D01*
X7238Y11260D01*
X7251Y11197D01*
X7286Y11144D01*
X7339Y11109D01*
X7402Y11097D01*
X7464Y11109D01*
X7517Y11144D01*
X7517Y11145D01*
X7601D01*
X7601Y11144D01*
X7654Y11109D01*
X7717Y11097D01*
X7779Y11109D01*
X7832Y11144D01*
X7832Y11145D01*
X7916D01*
X7916Y11144D01*
X7969Y11109D01*
X8031Y11097D01*
X8094Y11109D01*
X8147Y11144D01*
X8147Y11145D01*
X8231D01*
X8231Y11144D01*
X8284Y11109D01*
X8346Y11097D01*
X8409Y11109D01*
X8462Y11144D01*
X8497Y11197D01*
X8510Y11260D01*
X8497Y11322D01*
X8462Y11375D01*
X8409Y11411D01*
X8346Y11423D01*
D02*
G37*
G36*
X9606Y5596D02*
X9544Y5584D01*
X9491Y5548D01*
X9456Y5495D01*
X9443Y5433D01*
X9456Y5371D01*
X9491Y5318D01*
X9544Y5282D01*
X9606Y5270D01*
X9669Y5282D01*
X9722Y5318D01*
X9757Y5371D01*
X9769Y5433D01*
X9757Y5495D01*
X9722Y5548D01*
X9669Y5584D01*
X9606Y5596D01*
D02*
G37*
G36*
X8465Y5940D02*
X8406Y5929D01*
X8356Y5896D01*
X8323Y5846D01*
X8312Y5787D01*
X8323Y5729D01*
X8356Y5679D01*
X8406Y5646D01*
X8465Y5634D01*
X8523Y5646D01*
X8573Y5679D01*
X8606Y5729D01*
X8618Y5787D01*
X8606Y5846D01*
X8573Y5896D01*
X8523Y5929D01*
X8465Y5940D01*
D02*
G37*
G36*
X5906Y4838D02*
X5847Y4826D01*
X5797Y4793D01*
X5764Y4744D01*
X5753Y4685D01*
X5764Y4627D01*
X5797Y4577D01*
X5847Y4544D01*
X5906Y4532D01*
X5964Y4544D01*
X6014Y4577D01*
X6047Y4627D01*
X6058Y4685D01*
X6047Y4744D01*
X6014Y4793D01*
X5964Y4826D01*
X5906Y4838D01*
D02*
G37*
G36*
X7874D02*
X7815Y4826D01*
X7766Y4793D01*
X7733Y4744D01*
X7721Y4685D01*
X7733Y4627D01*
X7766Y4577D01*
X7815Y4544D01*
X7874Y4532D01*
X7933Y4544D01*
X7982Y4577D01*
X8015Y4627D01*
X8027Y4685D01*
X8015Y4744D01*
X7982Y4793D01*
X7933Y4826D01*
X7874Y4838D01*
D02*
G37*
G36*
X10157Y5310D02*
X10099Y5299D01*
X10049Y5266D01*
X10016Y5216D01*
X10005Y5157D01*
X10016Y5099D01*
X10049Y5049D01*
X10099Y5016D01*
X10157Y5005D01*
X10216Y5016D01*
X10266Y5049D01*
X10299Y5099D01*
X10310Y5157D01*
X10299Y5216D01*
X10266Y5266D01*
X10216Y5299D01*
X10157Y5310D01*
D02*
G37*
G36*
X7589Y10367D02*
X7451D01*
X7423Y10361D01*
X7400Y10346D01*
X7385Y10323D01*
X7313Y10305D01*
X7263Y10338D01*
X7205Y10350D01*
X7146Y10338D01*
X7097Y10305D01*
X7063Y10255D01*
X7052Y10197D01*
X7063Y10138D01*
X7097Y10089D01*
X7146Y10056D01*
X7205Y10044D01*
X7263Y10056D01*
X7297Y10078D01*
X7360Y10063D01*
X7375Y10055D01*
X7392Y10025D01*
X7389Y10013D01*
X7371Y10001D01*
X7355Y9978D01*
X7350Y9951D01*
Y9813D01*
X7355Y9786D01*
X7370Y9764D01*
X7371Y9762D01*
Y9687D01*
X7370Y9685D01*
X7355Y9663D01*
X7350Y9636D01*
Y9498D01*
X7355Y9471D01*
X7371Y9448D01*
X7394Y9432D01*
X7421Y9427D01*
X7451D01*
X7459Y9421D01*
X7520Y9409D01*
X7580Y9421D01*
X7631Y9455D01*
X7666Y9506D01*
X7678Y9567D01*
X7666Y9627D01*
X7631Y9679D01*
X7626Y9682D01*
Y9766D01*
X7631Y9770D01*
X7666Y9821D01*
X7678Y9882D01*
X7666Y9942D01*
X7631Y9994D01*
X7626Y9997D01*
Y10081D01*
X7631Y10085D01*
X7666Y10136D01*
X7678Y10197D01*
X7666Y10257D01*
X7660Y10266D01*
Y10295D01*
X7655Y10323D01*
X7639Y10346D01*
X7616Y10361D01*
X7589Y10367D01*
D02*
G37*
G36*
X5630Y10665D02*
X5571Y10653D01*
X5522Y10620D01*
X5514Y10609D01*
X5430D01*
X5423Y10620D01*
X5373Y10653D01*
X5315Y10665D01*
X5256Y10653D01*
X5207Y10620D01*
X5174Y10570D01*
X5162Y10512D01*
X5174Y10453D01*
X5207Y10404D01*
X5256Y10371D01*
X5315Y10359D01*
X5373Y10371D01*
X5423Y10404D01*
X5430Y10415D01*
X5514D01*
X5522Y10404D01*
X5533Y10396D01*
Y10312D01*
X5522Y10305D01*
X5489Y10255D01*
X5477Y10197D01*
X5489Y10138D01*
X5522Y10089D01*
X5533Y10081D01*
Y9997D01*
X5522Y9990D01*
X5514Y9979D01*
X5430D01*
X5423Y9990D01*
X5373Y10023D01*
X5315Y10035D01*
X5256Y10023D01*
X5207Y9990D01*
X5157Y10015D01*
X5149Y10077D01*
X5164Y10101D01*
X5170Y10128D01*
Y10266D01*
X5164Y10293D01*
X5149Y10316D01*
X5126Y10332D01*
X5098Y10337D01*
X5069D01*
X5060Y10343D01*
X5000Y10355D01*
X4940Y10343D01*
X4888Y10309D01*
X4885Y10303D01*
X4800D01*
X4797Y10309D01*
X4746Y10343D01*
X4685Y10355D01*
X4625Y10343D01*
X4573Y10309D01*
X4539Y10257D01*
X4527Y10197D01*
X4539Y10136D01*
X4545Y10128D01*
Y10098D01*
X4550Y10071D01*
X4566Y10048D01*
X4589Y10032D01*
X4616Y10027D01*
X4754D01*
X4781Y10032D01*
X4804Y10048D01*
X4817Y10066D01*
X4828Y10069D01*
X4858Y10052D01*
X4866Y10037D01*
X4882Y9975D01*
X4859Y9940D01*
X4847Y9882D01*
X4859Y9823D01*
X4892Y9774D01*
X4941Y9741D01*
X5000Y9729D01*
X5059Y9741D01*
X5108Y9774D01*
X5115Y9785D01*
X5200D01*
X5207Y9774D01*
X5256Y9741D01*
X5315Y9729D01*
X5373Y9741D01*
X5423Y9774D01*
X5430Y9785D01*
X5514D01*
X5522Y9774D01*
X5571Y9741D01*
X5630Y9729D01*
X5688Y9741D01*
X5738Y9774D01*
X5771Y9823D01*
X5783Y9882D01*
X5771Y9940D01*
X5738Y9990D01*
X5727Y9997D01*
Y10081D01*
X5738Y10089D01*
X5771Y10138D01*
X5783Y10197D01*
X5771Y10255D01*
X5738Y10305D01*
X5727Y10312D01*
Y10396D01*
X5738Y10404D01*
X5771Y10453D01*
X5783Y10512D01*
X5771Y10570D01*
X5738Y10620D01*
X5688Y10653D01*
X5630Y10665D01*
D02*
G37*
G36*
X4291Y11226D02*
X4229Y11214D01*
X4176Y11178D01*
X4176Y11178D01*
X4092D01*
X4092Y11178D01*
X4039Y11214D01*
X3976Y11226D01*
X3914Y11214D01*
X3861Y11178D01*
X3826Y11125D01*
X3813Y11063D01*
X3826Y11001D01*
X3861Y10948D01*
X3861Y10948D01*
Y10863D01*
X3861Y10863D01*
X3826Y10810D01*
X3813Y10748D01*
X3826Y10686D01*
X3861Y10633D01*
X3861Y10633D01*
Y10548D01*
X3861Y10548D01*
X3861Y10548D01*
X3777D01*
X3777Y10548D01*
X3724Y10584D01*
X3661Y10596D01*
X3599Y10584D01*
X3546Y10548D01*
X3546Y10548D01*
X3462D01*
X3462Y10548D01*
X3409Y10584D01*
X3346Y10596D01*
X3284Y10584D01*
X3231Y10548D01*
X3196Y10496D01*
X3183Y10433D01*
X3195Y10373D01*
X2852Y10030D01*
X2048D01*
X2045Y10035D01*
X2021Y10050D01*
X1994Y10056D01*
X1985D01*
X1962Y10124D01*
X1996Y10176D01*
X2008Y10236D01*
X2072Y10275D01*
X2110Y10282D01*
X2163Y10318D01*
X2198Y10371D01*
X2210Y10433D01*
X2198Y10496D01*
X2163Y10548D01*
X2110Y10584D01*
X2047Y10596D01*
X1985Y10584D01*
X1932Y10548D01*
X1897Y10496D01*
X1889Y10458D01*
X1850Y10394D01*
X1790Y10382D01*
X1773Y10371D01*
X1703Y10407D01*
X1692Y10464D01*
X1670Y10497D01*
Y10565D01*
X1664Y10592D01*
X1649Y10615D01*
X1626Y10631D01*
X1598Y10636D01*
X1394D01*
X1366Y10631D01*
X1343Y10615D01*
X1328Y10592D01*
X1322Y10565D01*
Y10368D01*
X1328Y10341D01*
X1343Y10318D01*
X1366Y10302D01*
X1394Y10297D01*
X1407D01*
Y10204D01*
X1337Y10183D01*
X1332Y10190D01*
X1281Y10225D01*
X1220Y10237D01*
X1160Y10225D01*
X1109Y10190D01*
X1108Y10190D01*
X1024Y10190D01*
X1021Y10194D01*
X1021Y10194D01*
Y10278D01*
X1021Y10278D01*
X1056Y10331D01*
X1069Y10394D01*
X1056Y10456D01*
X1021Y10509D01*
X968Y10544D01*
X906Y10557D01*
X843Y10544D01*
X790Y10509D01*
X790Y10509D01*
X706D01*
X706Y10509D01*
X653Y10544D01*
X591Y10557D01*
X528Y10544D01*
X475Y10509D01*
X440Y10456D01*
X427Y10394D01*
X440Y10331D01*
X475Y10278D01*
X485Y10272D01*
Y10187D01*
X475Y10181D01*
X440Y10128D01*
X427Y10065D01*
X440Y10003D01*
X472Y9955D01*
X475Y9950D01*
X475Y9879D01*
X472Y9874D01*
X440Y9826D01*
X427Y9764D01*
X440Y9701D01*
X475Y9648D01*
X475Y9648D01*
Y9564D01*
X475Y9564D01*
X440Y9511D01*
X427Y9449D01*
X440Y9386D01*
X475Y9333D01*
X528Y9298D01*
X591Y9286D01*
X653Y9298D01*
X706Y9333D01*
X741Y9386D01*
X754Y9449D01*
X741Y9511D01*
X706Y9564D01*
X706Y9564D01*
Y9648D01*
X706Y9648D01*
X706Y9648D01*
X790D01*
X790Y9648D01*
X843Y9613D01*
X906Y9601D01*
X968Y9613D01*
X1021Y9648D01*
X1024Y9653D01*
X1108D01*
X1109Y9652D01*
X1160Y9618D01*
X1189Y9612D01*
X1198Y9600D01*
X1219Y9539D01*
X1197Y9507D01*
X1186Y9449D01*
X1197Y9390D01*
X1230Y9341D01*
X1280Y9308D01*
X1286Y9242D01*
X1276Y9206D01*
X1223Y9170D01*
X1188Y9118D01*
X1175Y9055D01*
X1142Y9021D01*
X1079Y9009D01*
X1026Y8974D01*
X991Y8921D01*
X979Y8858D01*
X991Y8796D01*
X1026Y8743D01*
X1079Y8708D01*
X1142Y8695D01*
X1204Y8708D01*
X1257Y8743D01*
X1292Y8796D01*
X1305Y8858D01*
X1339Y8892D01*
X1401Y8904D01*
X1454Y8940D01*
X1489Y8993D01*
X1490Y8998D01*
X1660Y9167D01*
X1692Y9215D01*
X1703Y9272D01*
Y9472D01*
X1773Y9493D01*
X1774Y9491D01*
X1827Y9456D01*
X1890Y9443D01*
X1952Y9456D01*
X2005Y9491D01*
X2040Y9544D01*
X2053Y9606D01*
X2040Y9669D01*
X2081Y9734D01*
X2368D01*
X2407Y9671D01*
X2407Y9664D01*
X2396Y9606D01*
X2408Y9544D01*
X2444Y9491D01*
X2497Y9456D01*
X2559Y9443D01*
X2621Y9456D01*
X2674Y9491D01*
X2710Y9544D01*
X2722Y9606D01*
X2711Y9664D01*
X2711Y9671D01*
X2750Y9734D01*
X2913D01*
X2970Y9745D01*
X3018Y9777D01*
X3451Y10210D01*
X3483Y10258D01*
X3487Y10280D01*
X3506Y10292D01*
X3562Y10307D01*
X3599Y10282D01*
X3661Y10270D01*
X3724Y10282D01*
X3777Y10318D01*
X3777Y10318D01*
X3861D01*
X3861Y10318D01*
X3861Y10318D01*
Y10234D01*
X3861Y10233D01*
X3826Y10181D01*
X3813Y10118D01*
X3826Y10056D01*
X3861Y10003D01*
X3861Y10003D01*
Y9919D01*
X3861Y9919D01*
X3826Y9866D01*
X3813Y9803D01*
X3826Y9741D01*
X3861Y9688D01*
X3914Y9652D01*
X3976Y9640D01*
X4039Y9652D01*
X4092Y9688D01*
X4092Y9688D01*
X4176D01*
X4176Y9688D01*
X4176Y9688D01*
Y9604D01*
X4176Y9604D01*
X4141Y9551D01*
X4128Y9488D01*
X4141Y9426D01*
X4176Y9373D01*
X4229Y9337D01*
X4291Y9325D01*
X4354Y9337D01*
X4407Y9373D01*
X4442Y9426D01*
X4454Y9488D01*
X4442Y9551D01*
X4407Y9604D01*
X4407Y9604D01*
Y9688D01*
X4407Y9688D01*
X4442Y9741D01*
X4454Y9803D01*
X4442Y9866D01*
X4407Y9919D01*
X4407Y9919D01*
Y10003D01*
X4407Y10003D01*
X4442Y10056D01*
X4454Y10118D01*
X4442Y10181D01*
X4407Y10233D01*
X4407Y10234D01*
Y10318D01*
X4407Y10318D01*
X4442Y10371D01*
X4454Y10433D01*
X4442Y10496D01*
X4407Y10548D01*
X4407Y10548D01*
Y10633D01*
X4407Y10633D01*
X4442Y10686D01*
X4454Y10748D01*
X4442Y10810D01*
X4407Y10863D01*
X4407Y10863D01*
Y10948D01*
X4407Y10948D01*
X4442Y11001D01*
X4454Y11063D01*
X4442Y11125D01*
X4407Y11178D01*
X4354Y11214D01*
X4291Y11226D01*
D02*
G37*
G36*
X6575Y10350D02*
X6516Y10338D01*
X6467Y10305D01*
X6434Y10255D01*
X6422Y10197D01*
X6434Y10138D01*
X6467Y10089D01*
X6478Y10081D01*
Y9997D01*
X6467Y9990D01*
X6434Y9940D01*
X6422Y9882D01*
X6434Y9823D01*
X6467Y9774D01*
X6478Y9766D01*
Y9682D01*
X6467Y9675D01*
X6434Y9625D01*
X6422Y9567D01*
X6434Y9508D01*
X6467Y9459D01*
X6516Y9426D01*
X6575Y9414D01*
X6633Y9426D01*
X6683Y9459D01*
X6716Y9508D01*
X6728Y9567D01*
X6716Y9625D01*
X6683Y9675D01*
X6672Y9682D01*
Y9766D01*
X6683Y9774D01*
X6690Y9785D01*
X6774D01*
X6782Y9774D01*
X6831Y9741D01*
X6890Y9729D01*
X6948Y9741D01*
X6998Y9774D01*
X7031Y9823D01*
X7043Y9882D01*
X7031Y9940D01*
X6998Y9990D01*
X6948Y10023D01*
X6890Y10035D01*
X6831Y10023D01*
X6782Y9990D01*
X6713Y10001D01*
X6694Y10020D01*
X6683Y10089D01*
X6716Y10138D01*
X6728Y10197D01*
X6716Y10255D01*
X6683Y10305D01*
X6633Y10338D01*
X6575Y10350D01*
D02*
G37*
G36*
X4685Y10985D02*
X4625Y10973D01*
X4573Y10939D01*
X4539Y10887D01*
X4527Y10827D01*
X4539Y10766D01*
X4545Y10758D01*
Y10728D01*
X4550Y10701D01*
X4566Y10678D01*
X4589Y10662D01*
X4616Y10657D01*
X4754D01*
X4781Y10662D01*
X4804Y10678D01*
X4820Y10701D01*
X4825Y10728D01*
Y10758D01*
X4831Y10766D01*
X4843Y10827D01*
X4831Y10887D01*
X4797Y10939D01*
X4746Y10973D01*
X4685Y10985D01*
D02*
G37*
G36*
X7205D02*
X7144Y10973D01*
X7093Y10939D01*
X7086Y10929D01*
X7002D01*
X6998Y10935D01*
X6948Y10968D01*
X6890Y10980D01*
X6831Y10968D01*
X6782Y10935D01*
X6748Y10885D01*
X6737Y10827D01*
X6748Y10768D01*
X6782Y10719D01*
X6831Y10685D01*
X6890Y10674D01*
X6948Y10685D01*
X6998Y10719D01*
X7002Y10725D01*
X7086D01*
X7093Y10715D01*
X7144Y10681D01*
X7205Y10669D01*
X7265Y10681D01*
X7274Y10687D01*
X7303D01*
X7330Y10692D01*
X7354Y10707D01*
X7369Y10731D01*
X7375Y10758D01*
Y10896D01*
X7369Y10923D01*
X7354Y10946D01*
X7330Y10962D01*
X7303Y10967D01*
X7274D01*
X7265Y10973D01*
X7205Y10985D01*
D02*
G37*
G36*
X5512Y2368D02*
X5449Y2355D01*
X5396Y2320D01*
X5361Y2267D01*
X5349Y2205D01*
X5361Y2142D01*
X5396Y2089D01*
Y2084D01*
X5361Y2031D01*
X5349Y1969D01*
X5361Y1906D01*
X5395Y1850D01*
X5361Y1795D01*
X5349Y1732D01*
X5361Y1670D01*
X5396Y1617D01*
X5449Y1582D01*
X5512Y1569D01*
X5574Y1582D01*
X5627Y1617D01*
X5663Y1670D01*
X5675Y1732D01*
X5663Y1795D01*
X5629Y1850D01*
X5663Y1906D01*
X5675Y1969D01*
X5663Y2031D01*
X5627Y2084D01*
Y2089D01*
X5663Y2142D01*
X5675Y2205D01*
X5663Y2267D01*
X5627Y2320D01*
X5574Y2355D01*
X5512Y2368D01*
D02*
G37*
G36*
X5630Y9405D02*
X5571Y9393D01*
X5522Y9360D01*
X5489Y9311D01*
X5477Y9252D01*
X5489Y9193D01*
X5522Y9144D01*
X5511Y9075D01*
X5492Y9056D01*
X5423Y9045D01*
X5373Y9078D01*
X5315Y9090D01*
X5256Y9078D01*
X5207Y9045D01*
X5200Y9034D01*
X5115D01*
X5108Y9045D01*
X5059Y9078D01*
X5000Y9090D01*
X4941Y9078D01*
X4892Y9045D01*
X4859Y8996D01*
X4847Y8937D01*
X4859Y8878D01*
X4892Y8829D01*
X4874Y8757D01*
X4851Y8741D01*
X4836Y8718D01*
X4830Y8691D01*
Y8553D01*
X4836Y8526D01*
X4851Y8503D01*
X4869Y8490D01*
X4879Y8454D01*
X4885Y8414D01*
X4854Y8368D01*
X4842Y8307D01*
X4854Y8247D01*
X4888Y8195D01*
X4940Y8161D01*
X5000Y8149D01*
X5060Y8161D01*
X5069Y8167D01*
X5089D01*
X5116Y8172D01*
X5139Y8188D01*
X5155Y8211D01*
X5160Y8238D01*
Y8376D01*
X5155Y8403D01*
X5139Y8426D01*
X5154Y8485D01*
X5207Y8514D01*
X5256Y8481D01*
X5315Y8469D01*
X5373Y8481D01*
X5423Y8514D01*
X5456Y8564D01*
X5468Y8622D01*
X5456Y8681D01*
X5423Y8730D01*
X5434Y8799D01*
X5453Y8818D01*
X5522Y8829D01*
X5571Y8796D01*
X5623Y8785D01*
X5646Y8754D01*
X5665Y8720D01*
X5657Y8701D01*
Y8482D01*
X5630Y8460D01*
X5571Y8448D01*
X5522Y8415D01*
X5489Y8366D01*
X5477Y8307D01*
X5489Y8249D01*
X5522Y8199D01*
X5528Y8195D01*
Y8111D01*
X5518Y8104D01*
X5484Y8053D01*
X5472Y7992D01*
X5484Y7932D01*
X5502Y7904D01*
X5486Y7832D01*
X5480Y7822D01*
X5454Y7806D01*
X5447Y7808D01*
X5434Y7826D01*
X5411Y7842D01*
X5384Y7847D01*
X5246D01*
X5219Y7842D01*
X5196Y7826D01*
X5180Y7803D01*
X5108Y7785D01*
X5059Y7818D01*
X5000Y7830D01*
X4941Y7818D01*
X4892Y7785D01*
X4859Y7736D01*
X4847Y7677D01*
X4859Y7619D01*
X4892Y7569D01*
X4941Y7536D01*
X5000Y7524D01*
X5059Y7536D01*
X5108Y7569D01*
X5112Y7575D01*
X5197D01*
X5203Y7565D01*
X5213Y7559D01*
Y7475D01*
X5207Y7470D01*
X5174Y7421D01*
X5162Y7362D01*
X5174Y7304D01*
X5207Y7254D01*
X5218Y7247D01*
Y7163D01*
X5207Y7155D01*
X5174Y7106D01*
X5162Y7047D01*
X5174Y6989D01*
X5207Y6939D01*
X5218Y6932D01*
Y6848D01*
X5207Y6840D01*
X5174Y6791D01*
X5162Y6732D01*
X5174Y6674D01*
X5207Y6624D01*
X5218Y6617D01*
Y6533D01*
X5207Y6525D01*
X5174Y6476D01*
X5162Y6417D01*
X5174Y6359D01*
X5207Y6309D01*
X5218Y6302D01*
Y6218D01*
X5207Y6211D01*
X5174Y6161D01*
X5162Y6102D01*
X5174Y6044D01*
X5207Y5994D01*
X5256Y5961D01*
X5315Y5949D01*
X5373Y5961D01*
X5423Y5994D01*
X5427Y6001D01*
X5512D01*
X5518Y5991D01*
X5524Y5987D01*
Y5903D01*
X5518Y5899D01*
X5484Y5848D01*
X5472Y5787D01*
X5476Y5765D01*
X5428Y5695D01*
X5176D01*
Y5890D01*
X5170Y5917D01*
X5155Y5940D01*
X5132Y5956D01*
X5104Y5961D01*
X4907D01*
X4880Y5956D01*
X4857Y5940D01*
X4842Y5917D01*
X4836Y5890D01*
Y5695D01*
X4801D01*
X4789Y5690D01*
X4776D01*
X4765Y5685D01*
X4594D01*
X4584Y5689D01*
X4576Y5710D01*
X4567Y5719D01*
X4562Y5731D01*
X4562D01*
X4446Y5847D01*
X4472Y5886D01*
X4484Y5945D01*
X4472Y6003D01*
X4439Y6053D01*
X4428Y6060D01*
Y6144D01*
X4439Y6152D01*
X4472Y6201D01*
X4484Y6260D01*
X4472Y6318D01*
X4439Y6368D01*
X4428Y6375D01*
Y6459D01*
X4439Y6467D01*
X4472Y6516D01*
X4484Y6575D01*
X4472Y6633D01*
X4439Y6683D01*
X4428Y6690D01*
Y6774D01*
X4439Y6782D01*
X4472Y6831D01*
X4484Y6890D01*
X4472Y6948D01*
X4439Y6998D01*
X4428Y7005D01*
Y7089D01*
X4439Y7097D01*
X4472Y7146D01*
X4484Y7205D01*
X4472Y7263D01*
X4439Y7313D01*
X4428Y7320D01*
Y7404D01*
X4439Y7412D01*
X4472Y7461D01*
X4484Y7520D01*
X4472Y7578D01*
X4439Y7628D01*
X4389Y7661D01*
X4331Y7673D01*
X4272Y7661D01*
X4251Y7647D01*
X4240Y7655D01*
X4213Y7660D01*
X4094D01*
Y8451D01*
X4075Y8497D01*
X4022Y8550D01*
X3976Y8569D01*
X2441Y8569D01*
X2419Y8560D01*
X2410Y8564D01*
X2373Y8621D01*
X2367Y8626D01*
X2310Y8664D01*
X2244Y8677D01*
X2178Y8664D01*
X2122Y8626D01*
X2084Y8570D01*
X2071Y8504D01*
X2077Y8474D01*
Y8247D01*
X2047Y8182D01*
X1801D01*
X1725Y8258D01*
X1725Y8307D01*
X1719Y8334D01*
X1704Y8358D01*
X1681Y8373D01*
X1654Y8378D01*
X1496D01*
X1469Y8373D01*
X1446Y8358D01*
X1430Y8334D01*
X1425Y8307D01*
Y8100D01*
X1406Y8082D01*
X1391Y8059D01*
X1385Y8031D01*
Y7795D01*
X1391Y7768D01*
X1406Y7745D01*
X1429Y7729D01*
X1457Y7724D01*
X1703D01*
X1997Y7430D01*
X2020Y7414D01*
X2031Y7412D01*
X2047Y7402D01*
X2047D01*
X2048Y7401D01*
X2056Y7396D01*
X2091Y7389D01*
X2161D01*
X2196Y7396D01*
X2224Y7415D01*
X2253Y7396D01*
X2288Y7389D01*
X2358D01*
X2393Y7396D01*
X2421Y7415D01*
X2449Y7396D01*
X2484Y7389D01*
X2555D01*
X2590Y7396D01*
X2620Y7416D01*
X2640Y7445D01*
X2647Y7480D01*
Y7485D01*
X2652Y7498D01*
X2662Y7511D01*
X2661Y7520D01*
X2665Y7529D01*
Y7769D01*
X2668Y7786D01*
X2667Y7792D01*
X2669Y7798D01*
Y7838D01*
X2674Y7862D01*
X2688Y7882D01*
X2776Y7971D01*
X2795Y8017D01*
Y8048D01*
X2799Y8057D01*
X2808Y8061D01*
X2927D01*
X2960Y8055D01*
Y7906D01*
X2913D01*
X2886Y7901D01*
X2863Y7885D01*
X2827Y7850D01*
X2813Y7840D01*
X2793Y7810D01*
X2787Y7775D01*
Y7480D01*
X2793Y7445D01*
X2813Y7416D01*
X2843Y7396D01*
X2878Y7389D01*
X2949D01*
X2984Y7396D01*
X3003Y7409D01*
X3268D01*
X3293Y7414D01*
X3301Y7395D01*
X3478Y7217D01*
X3478Y5748D01*
X3497Y5702D01*
X3797Y5403D01*
X3803Y5400D01*
X3807Y5395D01*
X3825Y5391D01*
X3843Y5384D01*
X3849Y5386D01*
X3856Y5385D01*
X3880Y5390D01*
X3886Y5393D01*
X3892D01*
X3926Y5407D01*
X4105D01*
X4114Y5404D01*
X4118Y5395D01*
Y5354D01*
X4137Y5308D01*
X4183Y5289D01*
X4219Y5220D01*
X4207Y5157D01*
X4219Y5095D01*
X4248Y5053D01*
Y4957D01*
X4237Y4953D01*
X4178Y4945D01*
X4171Y4956D01*
X4147Y4971D01*
X4120Y4977D01*
X3923D01*
X3896Y4971D01*
X3864Y4962D01*
X3825Y4982D01*
X3825Y4984D01*
X3816Y5059D01*
X3842Y5099D01*
X3854Y5157D01*
X3842Y5216D01*
X3809Y5266D01*
X3759Y5299D01*
X3701Y5310D01*
X3642Y5299D01*
X3593Y5266D01*
X3559Y5216D01*
X3548Y5157D01*
X3559Y5099D01*
X3590Y5053D01*
Y4976D01*
X3569Y4971D01*
X3546Y4956D01*
X3531Y4933D01*
X3525Y4906D01*
Y4832D01*
X3492Y4807D01*
X3482Y4805D01*
X3414Y4836D01*
X3409Y4862D01*
X3376Y4911D01*
X3326Y4944D01*
X3268Y4956D01*
X3209Y4944D01*
X3205Y4942D01*
X3142Y4984D01*
X3145Y5000D01*
X3133Y5059D01*
X3100Y5108D01*
X3051Y5141D01*
X2992Y5153D01*
X2934Y5141D01*
X2884Y5108D01*
X2883Y5106D01*
X2799D01*
X2793Y5115D01*
X2740Y5151D01*
X2677Y5163D01*
X2615Y5151D01*
X2562Y5115D01*
X2526Y5062D01*
X2514Y5000D01*
X2526Y4938D01*
X2562Y4885D01*
X2615Y4849D01*
X2677Y4837D01*
X2740Y4849D01*
X2793Y4885D01*
X2799Y4894D01*
X2883D01*
X2884Y4892D01*
X2934Y4859D01*
X2992Y4847D01*
X3051Y4859D01*
X3055Y4862D01*
X3118Y4820D01*
X3115Y4803D01*
X3126Y4745D01*
X3160Y4695D01*
X3209Y4662D01*
X3211Y4661D01*
X3214Y4631D01*
X3147Y4599D01*
X3145Y4601D01*
X3111Y4624D01*
X3071Y4632D01*
X2709D01*
X2707Y4636D01*
X2657Y4669D01*
X2598Y4681D01*
X2540Y4669D01*
X2507Y4647D01*
X2461Y4640D01*
X2414Y4647D01*
X2381Y4669D01*
X2323Y4681D01*
X2319Y4680D01*
X2318Y4680D01*
X2284Y4703D01*
X2244Y4711D01*
X2144D01*
X2139Y4736D01*
X2123Y4759D01*
X2100Y4775D01*
X2073Y4780D01*
X1876D01*
X1849Y4775D01*
X1811Y4763D01*
X1773Y4775D01*
X1746Y4780D01*
X1549D01*
X1522Y4775D01*
X1501Y4761D01*
X1457Y4769D01*
X1394Y4757D01*
X1341Y4722D01*
X1306Y4669D01*
X1294Y4606D01*
X1306Y4544D01*
X1341Y4491D01*
X1394Y4456D01*
X1457Y4443D01*
X1501Y4452D01*
X1522Y4438D01*
X1549Y4433D01*
X1746D01*
X1773Y4438D01*
X1811Y4449D01*
X1849Y4438D01*
X1876Y4433D01*
X2073D01*
X2100Y4438D01*
X2117Y4449D01*
X2129Y4453D01*
X2198Y4444D01*
X2215Y4419D01*
X2264Y4386D01*
X2323Y4375D01*
X2327Y4375D01*
X2609Y4094D01*
X2643Y4071D01*
X2683Y4063D01*
X2835D01*
Y4040D01*
X2844Y3993D01*
X2870Y3954D01*
X2910Y3927D01*
X2956Y3918D01*
X3003Y3927D01*
X3055Y3949D01*
X3107Y3927D01*
X3153Y3918D01*
X3200Y3927D01*
X3252Y3949D01*
X3303Y3927D01*
X3350Y3918D01*
X3397Y3927D01*
X3436Y3954D01*
X3461D01*
X3500Y3927D01*
X3547Y3918D01*
X3593Y3927D01*
X3645Y3949D01*
X3697Y3927D01*
X3744Y3918D01*
X3790Y3927D01*
X3830Y3954D01*
X3856Y3993D01*
X3865Y4040D01*
Y4164D01*
X3866Y4168D01*
Y4384D01*
X3932Y4425D01*
X3946Y4422D01*
X3947Y4419D01*
X3997Y4386D01*
X4055Y4375D01*
X4114Y4386D01*
X4163Y4419D01*
X4171Y4430D01*
X4255D01*
X4262Y4419D01*
X4312Y4386D01*
X4370Y4375D01*
X4429Y4386D01*
X4478Y4419D01*
X4511Y4469D01*
X4523Y4528D01*
X4511Y4586D01*
X4495Y4610D01*
X4480Y4684D01*
X4495Y4707D01*
X4500Y4734D01*
Y4872D01*
X4495Y4899D01*
X4492Y4903D01*
Y5053D01*
X4521Y5095D01*
X4533Y5157D01*
X4521Y5220D01*
X4559Y5289D01*
X6132Y5289D01*
X6178Y5308D01*
X6197Y5354D01*
Y5395D01*
X6201Y5404D01*
X6210Y5407D01*
X6389D01*
X6398Y5404D01*
X6402Y5395D01*
Y5354D01*
X6421Y5308D01*
X6467Y5289D01*
X6969D01*
X7014Y5308D01*
X7033Y5354D01*
Y5594D01*
X7039Y5603D01*
X7093Y5645D01*
X7103Y5647D01*
X7136D01*
X7144Y5641D01*
X7205Y5629D01*
X7265Y5641D01*
X7316Y5676D01*
X7351Y5727D01*
X7363Y5787D01*
X7351Y5848D01*
X7332Y5875D01*
X7348Y5948D01*
X7355Y5958D01*
X7381Y5974D01*
X7388Y5972D01*
X7400Y5953D01*
X7423Y5938D01*
X7451Y5933D01*
X7589D01*
X7616Y5938D01*
X7639Y5953D01*
X7655Y5977D01*
X7660Y6004D01*
Y6033D01*
X7666Y6042D01*
X7678Y6102D01*
X7666Y6163D01*
X7631Y6214D01*
X7580Y6248D01*
X7520Y6260D01*
X7459Y6248D01*
X7408Y6214D01*
X7404Y6209D01*
X7320D01*
X7316Y6214D01*
X7311Y6218D01*
Y6302D01*
X7316Y6306D01*
X7351Y6357D01*
X7363Y6417D01*
X7351Y6478D01*
X7332Y6505D01*
X7348Y6578D01*
X7355Y6588D01*
X7381Y6604D01*
X7388Y6602D01*
X7400Y6583D01*
X7423Y6568D01*
X7451Y6562D01*
X7589D01*
X7616Y6568D01*
X7639Y6583D01*
X7655Y6607D01*
X7660Y6634D01*
Y6663D01*
X7666Y6672D01*
X7678Y6732D01*
X7666Y6793D01*
X7631Y6844D01*
X7580Y6878D01*
X7520Y6890D01*
X7459Y6878D01*
X7408Y6844D01*
X7404Y6839D01*
X7320D01*
X7316Y6844D01*
X7265Y6878D01*
X7205Y6890D01*
X7144Y6878D01*
X7136Y6873D01*
X7096D01*
X7069Y6867D01*
X7038Y6925D01*
X7039Y6928D01*
X7054Y6951D01*
X7060Y6978D01*
Y7116D01*
X7057Y7127D01*
X7090Y7173D01*
X7108Y7188D01*
X7297D01*
X7325Y7194D01*
X7348Y7209D01*
X7363Y7233D01*
X7369Y7260D01*
Y7465D01*
X7363Y7492D01*
X7348Y7515D01*
X7337Y7588D01*
X7339Y7599D01*
X7351Y7617D01*
X7363Y7677D01*
X7351Y7738D01*
X7316Y7789D01*
X7311Y7793D01*
Y7877D01*
X7316Y7880D01*
X7351Y7932D01*
X7363Y7992D01*
X7351Y8053D01*
X7345Y8061D01*
Y8091D01*
X7340Y8118D01*
X7324Y8141D01*
X7301Y8156D01*
X7274Y8162D01*
X7136D01*
X7109Y8156D01*
X7085Y8141D01*
X7025Y8169D01*
X7001Y8194D01*
X6999Y8201D01*
X7031Y8249D01*
X7043Y8307D01*
X7031Y8366D01*
X6998Y8415D01*
X7016Y8487D01*
X7039Y8503D01*
X7054Y8526D01*
X7060Y8553D01*
Y8691D01*
X7054Y8718D01*
X7039Y8741D01*
X7016Y8757D01*
X6988Y8762D01*
X6959D01*
X6950Y8768D01*
X6890Y8780D01*
X6829Y8768D01*
X6778Y8734D01*
X6711Y8749D01*
X6699Y8761D01*
X6683Y8829D01*
X6716Y8878D01*
X6728Y8937D01*
X6716Y8996D01*
X6683Y9045D01*
X6633Y9078D01*
X6575Y9090D01*
X6516Y9078D01*
X6467Y9045D01*
X6434Y8996D01*
X6422Y8937D01*
X6434Y8878D01*
X6459Y8840D01*
X6448Y8819D01*
X6420Y8782D01*
X6402Y8786D01*
X6212D01*
X6206Y8789D01*
X6170Y8826D01*
X6160Y8841D01*
X6158Y8850D01*
Y9041D01*
X6153Y9069D01*
X6137Y9092D01*
X6114Y9107D01*
X6087Y9113D01*
X5882D01*
X5855Y9107D01*
X5831Y9092D01*
X5816Y9069D01*
X5753Y9079D01*
X5753Y9079D01*
X5745Y9154D01*
X5771Y9193D01*
X5783Y9252D01*
X5771Y9311D01*
X5738Y9360D01*
X5688Y9393D01*
X5630Y9405D01*
D02*
G37*
G36*
X4754Y9422D02*
X4616D01*
X4589Y9416D01*
X4566Y9401D01*
X4550Y9378D01*
X4545Y9350D01*
Y9321D01*
X4539Y9312D01*
X4527Y9252D01*
X4539Y9191D01*
X4573Y9140D01*
X4625Y9106D01*
X4685Y9094D01*
X4746Y9106D01*
X4797Y9140D01*
X4831Y9191D01*
X4843Y9252D01*
X4831Y9312D01*
X4825Y9321D01*
Y9350D01*
X4820Y9378D01*
X4804Y9401D01*
X4781Y9416D01*
X4754Y9422D01*
D02*
G37*
G36*
X6890Y9405D02*
X6831Y9393D01*
X6782Y9360D01*
X6748Y9311D01*
X6737Y9252D01*
X6748Y9193D01*
X6782Y9144D01*
X6831Y9111D01*
X6890Y9099D01*
X6948Y9111D01*
X6998Y9144D01*
X7031Y9193D01*
X7043Y9252D01*
X7031Y9311D01*
X6998Y9360D01*
X6948Y9393D01*
X6890Y9405D01*
D02*
G37*
G36*
X7520Y8775D02*
X7461Y8763D01*
X7412Y8730D01*
X7378Y8681D01*
X7367Y8622D01*
X7378Y8564D01*
X7412Y8514D01*
X7461Y8481D01*
X7520Y8469D01*
X7578Y8481D01*
X7628Y8514D01*
X7661Y8564D01*
X7673Y8622D01*
X7661Y8681D01*
X7628Y8730D01*
X7578Y8763D01*
X7520Y8775D01*
D02*
G37*
G36*
X7205Y9090D02*
X7146Y9078D01*
X7097Y9045D01*
X7063Y8996D01*
X7052Y8937D01*
X7063Y8878D01*
X7097Y8829D01*
X7146Y8796D01*
X7205Y8784D01*
X7263Y8796D01*
X7313Y8829D01*
X7346Y8878D01*
X7358Y8937D01*
X7346Y8996D01*
X7313Y9045D01*
X7263Y9078D01*
X7205Y9090D01*
D02*
G37*
%LPD*%
G36*
X2244Y6181D02*
X2244Y5354D01*
X1457Y5354D01*
Y5906D01*
X1929D01*
X1969Y5945D01*
Y6181D01*
X2244Y6181D01*
D02*
G37*
G36*
X3110Y5787D02*
X2795D01*
Y6102D01*
X2874Y6181D01*
X2874Y6614D01*
X3110D01*
Y5787D01*
D02*
G37*
G36*
X1654Y8228D02*
X1772Y8110D01*
X2047D01*
Y7874D01*
X2165Y7756D01*
Y7480D01*
X2047D01*
X1732Y7795D01*
X1457D01*
Y8031D01*
X1496Y8071D01*
Y8307D01*
X1654D01*
X1654Y8228D01*
D02*
G37*
G36*
X3268Y7480D02*
X2874D01*
Y7795D01*
X2913Y7835D01*
X2992D01*
X3031Y7874D01*
Y8071D01*
X3268D01*
Y7480D01*
D02*
G37*
G36*
X6432Y8622D02*
X6443Y8569D01*
X6443Y8567D01*
X6417Y8457D01*
X6412Y8447D01*
X6398Y8411D01*
Y8231D01*
X6398Y8215D01*
X6408Y8150D01*
X6398Y8085D01*
X6398Y8068D01*
Y7888D01*
X6417Y7842D01*
X6430Y7792D01*
X6411Y7746D01*
Y7608D01*
X6430Y7562D01*
X6476Y7543D01*
X6514D01*
X6518Y7541D01*
X6575Y7529D01*
X6631Y7541D01*
X6679Y7573D01*
X6711Y7621D01*
X6723Y7677D01*
X6711Y7734D01*
X6713Y7842D01*
X6718Y7853D01*
X6732Y7888D01*
Y8068D01*
X6732Y8085D01*
X6793Y8159D01*
X6900Y8154D01*
X6969Y8080D01*
Y7280D01*
X6890Y7195D01*
X6833Y7184D01*
X6795Y7158D01*
X6789Y7154D01*
X6732Y7153D01*
X6676Y7154D01*
X6670Y7158D01*
X6631Y7184D01*
X6575Y7195D01*
X6518Y7184D01*
X6514Y7181D01*
X6476D01*
X6430Y7162D01*
X6411Y7116D01*
Y6978D01*
X6430Y6932D01*
Y6847D01*
X6422Y6828D01*
X6411Y6801D01*
Y6663D01*
X6430Y6617D01*
X6476Y6598D01*
X6514D01*
X6518Y6596D01*
X6575Y6584D01*
X6631Y6596D01*
X6679Y6628D01*
X6711Y6676D01*
X6723Y6732D01*
X6711Y6789D01*
X6686Y6827D01*
X6682Y6833D01*
X6681Y6843D01*
X6682Y6849D01*
X6773Y6940D01*
X6779Y6941D01*
X6789Y6940D01*
X6795Y6936D01*
X6833Y6911D01*
X6890Y6899D01*
X6969Y6814D01*
X6969Y5354D01*
X6467D01*
Y5407D01*
X6447Y5453D01*
X6402Y5472D01*
X6197D01*
X6151Y5453D01*
X6132Y5407D01*
Y5354D01*
X4183Y5354D01*
Y5407D01*
X4164Y5453D01*
X4118Y5472D01*
X3913D01*
X3867Y5453D01*
X3843Y5448D01*
X3543Y5748D01*
X3543Y7244D01*
X3346Y7441D01*
X3333Y7541D01*
Y8071D01*
X3314Y8117D01*
X3268Y8136D01*
X3031D01*
X2986Y8117D01*
X2933Y8126D01*
X2795D01*
X2749Y8107D01*
X2730Y8061D01*
Y8017D01*
X2637Y7924D01*
X2613Y7887D01*
X2604Y7844D01*
X2604Y7844D01*
Y7798D01*
X2600Y7775D01*
Y7529D01*
X2502Y7476D01*
X2441Y7507D01*
X2441Y8504D01*
X3976Y8504D01*
X4029Y8451D01*
Y7635D01*
X4010Y7589D01*
Y7451D01*
X4029Y7405D01*
Y7320D01*
X4010Y7274D01*
Y7136D01*
X4029Y7090D01*
Y7005D01*
X4010Y6959D01*
Y6821D01*
X4029Y6775D01*
Y6690D01*
X4010Y6644D01*
Y6506D01*
X4029Y6460D01*
Y6375D01*
X4010Y6329D01*
Y6191D01*
X4029Y6145D01*
Y6060D01*
X4010Y6014D01*
Y5876D01*
X4029Y5830D01*
X4075Y5811D01*
X4213D01*
X4254Y5828D01*
X4276Y5813D01*
X4331Y5802D01*
X4385Y5813D01*
X4387Y5814D01*
X4516Y5685D01*
X4516Y5685D01*
X4535Y5639D01*
X4581Y5620D01*
X4778D01*
X4801Y5630D01*
X4884D01*
X4907Y5620D01*
X5104D01*
X5128Y5630D01*
X5722D01*
Y5655D01*
X5764Y5673D01*
X5783Y5719D01*
Y5856D01*
X5764Y5902D01*
X5764Y5988D01*
X5783Y6033D01*
Y6171D01*
X5764Y6217D01*
X5764Y6302D01*
X5783Y6348D01*
Y6486D01*
X5764Y6532D01*
X5764Y6617D01*
X5783Y6663D01*
Y6801D01*
X5764Y6847D01*
X5764Y6932D01*
X5783Y6978D01*
Y7116D01*
X5764Y7162D01*
X5764Y7247D01*
X5783Y7293D01*
Y7431D01*
X5764Y7477D01*
X5764Y7562D01*
X5783Y7608D01*
Y7746D01*
X5764Y7792D01*
X5764Y7877D01*
X5783Y7923D01*
Y8061D01*
X5764Y8107D01*
X5755Y8111D01*
X5738Y8217D01*
X5762Y8252D01*
X5773Y8307D01*
X5762Y8362D01*
X5731Y8408D01*
X5722Y8414D01*
Y8701D01*
X6348D01*
X6432Y8622D01*
D02*
G37*
%LPC*%
G36*
X6102Y8303D02*
X6044Y8291D01*
X5994Y8258D01*
X5961Y8208D01*
X5949Y8150D01*
X5961Y8091D01*
X5994Y8041D01*
X6044Y8008D01*
X6102Y7997D01*
X6161Y8008D01*
X6211Y8041D01*
X6244Y8091D01*
X6255Y8150D01*
X6244Y8208D01*
X6211Y8258D01*
X6161Y8291D01*
X6102Y8303D01*
D02*
G37*
G36*
Y7358D02*
X6044Y7346D01*
X5994Y7313D01*
X5961Y7263D01*
X5949Y7205D01*
X5961Y7146D01*
X5994Y7097D01*
X6044Y7063D01*
X6102Y7052D01*
X6161Y7063D01*
X6211Y7097D01*
X6244Y7146D01*
X6255Y7205D01*
X6244Y7263D01*
X6211Y7313D01*
X6161Y7346D01*
X6102Y7358D01*
D02*
G37*
G36*
X6575Y6250D02*
X6518Y6239D01*
X6514Y6236D01*
X6467D01*
X6421Y6217D01*
X6402Y6171D01*
Y6033D01*
X6421Y5988D01*
X6467Y5969D01*
X6514D01*
X6518Y5966D01*
X6575Y5955D01*
X6631Y5966D01*
X6679Y5998D01*
X6711Y6046D01*
X6723Y6102D01*
X6711Y6159D01*
X6679Y6207D01*
X6631Y6239D01*
X6575Y6250D01*
D02*
G37*
G36*
X27795Y11580D02*
X27733Y11568D01*
X27680Y11533D01*
X27645Y11480D01*
X27632Y11417D01*
X27645Y11355D01*
X27680Y11302D01*
X27733Y11267D01*
X27795Y11254D01*
X27858Y11267D01*
X27911Y11302D01*
X27946Y11355D01*
X27958Y11417D01*
X27946Y11480D01*
X27911Y11533D01*
X27858Y11568D01*
X27795Y11580D01*
D02*
G37*
G36*
X30512Y11620D02*
X30449Y11607D01*
X30396Y11572D01*
X30361Y11519D01*
X30349Y11457D01*
X30361Y11394D01*
X30396Y11341D01*
X30449Y11306D01*
X30512Y11294D01*
X30574Y11306D01*
X30627Y11341D01*
X30663Y11394D01*
X30675Y11457D01*
X30663Y11519D01*
X30627Y11572D01*
X30574Y11607D01*
X30512Y11620D01*
D02*
G37*
G36*
X29528D02*
X29465Y11607D01*
X29412Y11572D01*
X29377Y11519D01*
X29364Y11457D01*
X29377Y11394D01*
X29412Y11341D01*
X29465Y11306D01*
X29528Y11294D01*
X29590Y11306D01*
X29643Y11341D01*
X29678Y11394D01*
X29691Y11457D01*
X29678Y11519D01*
X29643Y11572D01*
X29590Y11607D01*
X29528Y11620D01*
D02*
G37*
G36*
X28543D02*
X28481Y11607D01*
X28428Y11572D01*
X28393Y11519D01*
X28380Y11457D01*
X28393Y11394D01*
X28428Y11341D01*
X28481Y11306D01*
X28543Y11294D01*
X28606Y11306D01*
X28659Y11341D01*
X28694Y11394D01*
X28706Y11457D01*
X28694Y11519D01*
X28659Y11572D01*
X28606Y11607D01*
X28543Y11620D01*
D02*
G37*
G36*
X20187Y7914D02*
X19892D01*
X19864Y7908D01*
X19841Y7893D01*
X19826Y7870D01*
X19820Y7843D01*
Y7547D01*
X19826Y7520D01*
X19841Y7497D01*
X19864Y7481D01*
X19892Y7476D01*
X20187D01*
X20214Y7481D01*
X20237Y7497D01*
X20253Y7520D01*
X20258Y7547D01*
Y7609D01*
X20442D01*
X20443Y7608D01*
X20493Y7575D01*
X20551Y7564D01*
X20610Y7575D01*
X20659Y7608D01*
X20692Y7658D01*
X20704Y7717D01*
X20692Y7775D01*
X20659Y7825D01*
X20610Y7858D01*
X20551Y7869D01*
X20493Y7858D01*
X20443Y7825D01*
X20442Y7824D01*
X20258D01*
Y7843D01*
X20253Y7870D01*
X20237Y7893D01*
X20214Y7908D01*
X20187Y7914D01*
D02*
G37*
G36*
X28701Y4247D02*
X28642Y4236D01*
X28593Y4203D01*
X28559Y4153D01*
X28548Y4094D01*
X28559Y4036D01*
X28593Y3986D01*
X28642Y3953D01*
X28701Y3942D01*
X28717Y3878D01*
X28750Y3829D01*
X28800Y3796D01*
X28858Y3784D01*
X28917Y3796D01*
X28966Y3829D01*
X29000Y3878D01*
X29011Y3937D01*
X29000Y3996D01*
X28966Y4045D01*
X28917Y4078D01*
X28858Y4090D01*
X28842Y4153D01*
X28809Y4203D01*
X28759Y4236D01*
X28701Y4247D01*
D02*
G37*
G36*
X25236Y4484D02*
X25178Y4472D01*
X25128Y4439D01*
X25095Y4389D01*
X25083Y4331D01*
X25095Y4272D01*
X25128Y4223D01*
X25178Y4189D01*
X25236Y4178D01*
X25295Y4189D01*
X25344Y4223D01*
X25378Y4272D01*
X25389Y4331D01*
X25378Y4389D01*
X25344Y4439D01*
X25295Y4472D01*
X25236Y4484D01*
D02*
G37*
G36*
X29843Y3618D02*
X29784Y3606D01*
X29734Y3573D01*
X29701Y3523D01*
X29690Y3465D01*
X29701Y3406D01*
X29734Y3356D01*
X29784Y3323D01*
X29843Y3312D01*
X29901Y3323D01*
X29951Y3356D01*
X29984Y3406D01*
X29995Y3465D01*
X29984Y3523D01*
X29951Y3573D01*
X29901Y3606D01*
X29843Y3618D01*
D02*
G37*
G36*
X29016Y3736D02*
X28957Y3724D01*
X28908Y3691D01*
X28874Y3641D01*
X28863Y3583D01*
X28874Y3524D01*
X28908Y3475D01*
X28957Y3441D01*
X29016Y3430D01*
X29074Y3441D01*
X29124Y3475D01*
X29157Y3524D01*
X29169Y3583D01*
X29157Y3641D01*
X29124Y3691D01*
X29074Y3724D01*
X29016Y3736D01*
D02*
G37*
G36*
X31299Y5862D02*
X31241Y5850D01*
X31191Y5817D01*
X31158Y5767D01*
X31146Y5709D01*
X31158Y5650D01*
X31191Y5601D01*
X31241Y5567D01*
X31299Y5556D01*
X31358Y5567D01*
X31407Y5601D01*
X31441Y5650D01*
X31452Y5709D01*
X31441Y5767D01*
X31407Y5817D01*
X31358Y5850D01*
X31299Y5862D01*
D02*
G37*
G36*
X25787Y11580D02*
X25725Y11568D01*
X25672Y11533D01*
X25637Y11480D01*
X25624Y11417D01*
X25637Y11355D01*
X25640Y11351D01*
Y11142D01*
X25635Y11139D01*
X25619Y11116D01*
X25614Y11089D01*
Y11061D01*
X25613Y11060D01*
X25559Y11006D01*
X25264D01*
X25236Y11001D01*
X25213Y10986D01*
X25198Y10962D01*
X25192Y10935D01*
Y10640D01*
X25198Y10612D01*
X25213Y10589D01*
X25236Y10574D01*
X25264Y10568D01*
X25421D01*
X25431Y10559D01*
X25479Y10527D01*
X25535Y10516D01*
X25634D01*
X25635Y10514D01*
X25658Y10499D01*
X25685Y10494D01*
X25890D01*
X25917Y10499D01*
X25940Y10514D01*
X25956Y10538D01*
X25961Y10565D01*
Y10591D01*
X26150Y10780D01*
X26176Y10819D01*
X26185Y10866D01*
Y11330D01*
X26204Y11359D01*
X26216Y11417D01*
X26204Y11476D01*
X26171Y11525D01*
X26122Y11559D01*
X26063Y11570D01*
X26004Y11559D01*
X25980Y11543D01*
X25903Y11533D01*
X25850Y11568D01*
X25787Y11580D01*
D02*
G37*
G36*
X26654Y10045D02*
X26591Y10033D01*
X26538Y9997D01*
X26503Y9944D01*
X26490Y9882D01*
X26503Y9819D01*
X26538Y9767D01*
X26581Y9738D01*
X26579Y9697D01*
X26570Y9668D01*
X26526D01*
X26498Y9662D01*
X26475Y9647D01*
X26460Y9624D01*
X26454Y9596D01*
Y9321D01*
X26460Y9294D01*
X26461Y9292D01*
X26427Y9225D01*
X26395Y9219D01*
X26368Y9225D01*
X26230D01*
X26203Y9219D01*
X26180Y9204D01*
X26164Y9181D01*
X26159Y9154D01*
Y9016D01*
X26164Y8988D01*
X26180Y8965D01*
X26193Y8957D01*
X26191Y8914D01*
X26181Y8887D01*
X25938D01*
X25788Y9037D01*
Y9157D01*
X25782Y9185D01*
X25767Y9208D01*
Y9217D01*
X25782Y9240D01*
X25788Y9268D01*
Y9472D01*
X25782Y9500D01*
X25767Y9523D01*
X25744Y9538D01*
X25717Y9544D01*
X25653D01*
X25548Y9649D01*
X25544Y9669D01*
X25509Y9722D01*
X25456Y9757D01*
X25394Y9769D01*
X25331Y9757D01*
X25278Y9722D01*
X25243Y9669D01*
X25231Y9606D01*
X25243Y9544D01*
X25278Y9491D01*
Y9485D01*
X25243Y9433D01*
X25231Y9370D01*
X25243Y9308D01*
X25278Y9255D01*
X25331Y9219D01*
X25391Y9207D01*
X25395Y9205D01*
X25426Y9178D01*
X25448Y9146D01*
Y8953D01*
X25453Y8931D01*
X25452Y8923D01*
X25415Y8861D01*
X24587D01*
X24559Y8855D01*
X24536Y8840D01*
X24521Y8817D01*
X24515Y8789D01*
Y8455D01*
X24521Y8427D01*
X24536Y8404D01*
X24559Y8389D01*
X24587Y8383D01*
X25492D01*
X25519Y8389D01*
X25543Y8404D01*
X25558Y8427D01*
X25563Y8455D01*
Y8478D01*
X26063D01*
X26111Y8408D01*
X26107Y8386D01*
X26119Y8327D01*
X26122Y8323D01*
X26123Y8254D01*
X26101Y8237D01*
X26073Y8218D01*
X26040Y8169D01*
X26028Y8110D01*
X26032Y8090D01*
X26024Y8039D01*
X26014Y8033D01*
X25938Y8039D01*
X25932Y8048D01*
X25930Y8058D01*
X25940Y8110D01*
X25929Y8169D01*
X25896Y8218D01*
X25846Y8252D01*
X25787Y8263D01*
X25729Y8252D01*
X25679Y8218D01*
X25646Y8169D01*
X25634Y8110D01*
X25646Y8052D01*
X25679Y8002D01*
X25685Y7998D01*
Y7953D01*
X25688Y7938D01*
X25653Y7879D01*
X25640Y7868D01*
X25563D01*
Y8002D01*
X25558Y8029D01*
X25543Y8052D01*
X25519Y8068D01*
X25492Y8073D01*
X25454Y8099D01*
X25394Y8111D01*
X25333Y8099D01*
X25295Y8073D01*
X24587D01*
X24559Y8068D01*
X24536Y8052D01*
X24521Y8029D01*
X24515Y8002D01*
Y7667D01*
X24521Y7640D01*
X24536Y7617D01*
X24559Y7601D01*
X24587Y7596D01*
X24833D01*
Y7126D01*
X24836Y7108D01*
Y7024D01*
X24842Y6996D01*
X24857Y6973D01*
X24880Y6958D01*
X24907Y6952D01*
X25104D01*
X25132Y6958D01*
X25155Y6973D01*
X25170Y6996D01*
X25176Y7024D01*
Y7108D01*
X25179Y7126D01*
Y7596D01*
X25492D01*
X25503Y7598D01*
X25546Y7564D01*
X25561Y7545D01*
X25556Y7520D01*
X25565Y7471D01*
X25532Y7464D01*
X25482Y7431D01*
X25449Y7381D01*
X25438Y7323D01*
X25447Y7274D01*
X25414Y7267D01*
X25364Y7234D01*
X25331Y7185D01*
X25319Y7126D01*
X25331Y7067D01*
X25364Y7018D01*
X25414Y6985D01*
X25447Y6978D01*
X25438Y6929D01*
X25449Y6871D01*
X25482Y6821D01*
X25532Y6788D01*
X25565Y6781D01*
X25556Y6732D01*
X25567Y6674D01*
X25601Y6624D01*
X25650Y6591D01*
X25684Y6584D01*
X25674Y6535D01*
X25685Y6477D01*
X25699Y6457D01*
X25678Y6377D01*
X25638Y6355D01*
X25610Y6361D01*
X25472D01*
X25445Y6355D01*
X25422Y6340D01*
X25412Y6325D01*
X25354D01*
X25314Y6317D01*
X25280Y6294D01*
X25280Y6294D01*
X25276Y6295D01*
X25217Y6283D01*
X25167Y6250D01*
X25134Y6200D01*
X25123Y6142D01*
X25134Y6083D01*
X25167Y6034D01*
X25171Y6031D01*
Y6024D01*
X25179Y5984D01*
X25202Y5950D01*
X25241Y5910D01*
X25275Y5888D01*
X25315Y5880D01*
X25338D01*
Y5813D01*
X25344Y5786D01*
X25355Y5748D01*
X25344Y5710D01*
X25338Y5683D01*
Y5486D01*
X25338Y5484D01*
Y5354D01*
X25352Y5288D01*
X25389Y5232D01*
X25445Y5194D01*
X25512Y5181D01*
X25578Y5194D01*
X25634Y5232D01*
X25672Y5288D01*
X25685Y5354D01*
Y5484D01*
X25686Y5486D01*
Y5683D01*
X25680Y5710D01*
X25680Y5711D01*
X25692Y5728D01*
X25753Y5763D01*
X25776Y5747D01*
X25803Y5742D01*
X26008D01*
X26047Y5678D01*
Y5577D01*
X26052Y5549D01*
X26068Y5526D01*
X26091Y5511D01*
X26118Y5505D01*
X26323D01*
X26361Y5459D01*
X26364Y5448D01*
X26367Y5431D01*
X26383Y5408D01*
X26406Y5393D01*
X26433Y5387D01*
X26638D01*
X26642Y5388D01*
X26667Y5375D01*
X26700Y5351D01*
X26710Y5339D01*
X26719Y5292D01*
X26755Y5239D01*
X26808Y5204D01*
X26870Y5191D01*
X26933Y5204D01*
X26985Y5239D01*
X27021Y5292D01*
X27030Y5339D01*
X27040Y5351D01*
X27073Y5375D01*
X27098Y5388D01*
X27102Y5387D01*
X27307D01*
X27334Y5393D01*
X27358Y5408D01*
X27358D01*
X27365Y5398D01*
X27388Y5383D01*
X27415Y5377D01*
X27612D01*
X27666Y5325D01*
X27667Y5322D01*
Y5236D01*
X27671Y5218D01*
Y5134D01*
X27676Y5107D01*
X27692Y5083D01*
X27715Y5068D01*
X27742Y5062D01*
X27939D01*
X27966Y5068D01*
X27989Y5083D01*
X28005Y5107D01*
X28010Y5134D01*
Y5171D01*
X28071Y5231D01*
X28133Y5243D01*
X28186Y5278D01*
X28222Y5331D01*
X28225Y5348D01*
X28298Y5399D01*
X28301Y5399D01*
X28307Y5398D01*
X28366Y5410D01*
X28402Y5434D01*
X28414Y5432D01*
X28437Y5416D01*
X28465Y5411D01*
X28602D01*
X28630Y5416D01*
X28653Y5432D01*
X28670D01*
X28693Y5416D01*
X28720Y5411D01*
X28751D01*
X28789Y5403D01*
X28827Y5411D01*
X28858D01*
X28886Y5416D01*
X28909Y5432D01*
X28924Y5455D01*
X28930Y5482D01*
Y5497D01*
X28976Y5556D01*
X29035Y5567D01*
X29085Y5601D01*
X29118Y5650D01*
X29129Y5709D01*
X29118Y5767D01*
X29085Y5817D01*
X29035Y5850D01*
X28977Y5861D01*
X28930Y5909D01*
X28961Y5982D01*
X28962Y5982D01*
X28965Y5984D01*
X28999Y5991D01*
X29052Y6026D01*
X29088Y6079D01*
X29100Y6142D01*
X29088Y6204D01*
X29052Y6257D01*
X28999Y6292D01*
X28965Y6299D01*
X28961Y6302D01*
X28895Y6315D01*
X28847D01*
X28844Y6315D01*
X28648D01*
X28620Y6310D01*
X28583Y6299D01*
X28545Y6310D01*
X28518Y6315D01*
X28448D01*
X28443Y6339D01*
X28424Y6368D01*
X28421Y6377D01*
X28437Y6455D01*
X28455Y6467D01*
X28488Y6516D01*
X28489Y6522D01*
X28543Y6579D01*
X28602Y6591D01*
X28651Y6624D01*
X28685Y6674D01*
X28696Y6732D01*
X28696Y6734D01*
X28724Y6775D01*
X28756Y6793D01*
X28765Y6788D01*
X28769Y6770D01*
X28784Y6747D01*
X28807Y6731D01*
X28835Y6726D01*
X29039D01*
X29067Y6731D01*
X29090Y6747D01*
X29105Y6770D01*
X29106Y6773D01*
X29809D01*
X29856Y6783D01*
X29896Y6809D01*
X30047Y6961D01*
X30074Y7000D01*
X30083Y7047D01*
Y7913D01*
X30074Y7960D01*
X30047Y8000D01*
X29986Y8061D01*
X30015Y8131D01*
X30024D01*
X30051Y8137D01*
X30074Y8152D01*
X30090Y8175D01*
X30095Y8203D01*
Y8400D01*
X30090Y8427D01*
X30074Y8450D01*
X30051Y8466D01*
X30024Y8471D01*
X29939D01*
X29921Y8475D01*
X29760D01*
Y8701D01*
X29747Y8767D01*
X29709Y8823D01*
X29653Y8861D01*
X29587Y8874D01*
X29520Y8861D01*
X29464Y8823D01*
X29447Y8798D01*
X29434Y8795D01*
X29367Y8801D01*
X29365Y8804D01*
X29342Y8820D01*
X29315Y8825D01*
X29230D01*
X29213Y8829D01*
X29195Y8825D01*
X29110D01*
X29083Y8820D01*
X29060Y8804D01*
X29044Y8781D01*
X29039Y8754D01*
Y8692D01*
X29000Y8628D01*
X28915D01*
X28898Y8632D01*
X28880Y8628D01*
X28795D01*
X28768Y8623D01*
X28745Y8608D01*
X28732Y8588D01*
X28727Y8583D01*
X28665Y8558D01*
X28654Y8558D01*
X28641Y8566D01*
X28583Y8578D01*
X28528Y8635D01*
X28527Y8641D01*
X28494Y8691D01*
X28444Y8724D01*
X28386Y8736D01*
X28327Y8724D01*
X28278Y8691D01*
X28275Y8687D01*
X28268D01*
X28228Y8679D01*
X28194Y8657D01*
X28185Y8648D01*
X27874D01*
X27834Y8640D01*
X27823Y8633D01*
X27762Y8676D01*
X27762Y8677D01*
Y8882D01*
X27757Y8909D01*
X27741Y8932D01*
X27718Y8948D01*
X27691Y8953D01*
X27494D01*
X27494Y8953D01*
X27433Y8991D01*
X27424Y9003D01*
Y9197D01*
X27434Y9212D01*
X27482Y9251D01*
X27490Y9250D01*
X27628D01*
X27655Y9255D01*
X27678Y9270D01*
X27694Y9294D01*
X27699Y9321D01*
Y9459D01*
X27694Y9486D01*
X27678Y9509D01*
X27655Y9525D01*
X27628Y9530D01*
X27490D01*
X27432Y9571D01*
X27424Y9583D01*
Y9596D01*
X27418Y9624D01*
X27403Y9647D01*
X27380Y9662D01*
X27352Y9668D01*
X27057D01*
X27030Y9662D01*
X27007Y9647D01*
X26991Y9624D01*
X26986Y9596D01*
Y9471D01*
X26962Y9453D01*
X26892Y9488D01*
Y9596D01*
X26887Y9624D01*
X26871Y9647D01*
X26848Y9662D01*
X26821Y9668D01*
X26738D01*
X26728Y9697D01*
X26726Y9738D01*
X26769Y9767D01*
X26804Y9819D01*
X26817Y9882D01*
X26804Y9944D01*
X26769Y9997D01*
X26716Y10033D01*
X26654Y10045D01*
D02*
G37*
G36*
X24528Y9759D02*
X24469Y9748D01*
X24419Y9714D01*
X24386Y9665D01*
X24375Y9606D01*
X24386Y9548D01*
X24419Y9498D01*
X24469Y9465D01*
X24528Y9453D01*
X24586Y9465D01*
X24636Y9498D01*
X24669Y9548D01*
X24681Y9606D01*
X24669Y9665D01*
X24636Y9714D01*
X24586Y9748D01*
X24528Y9759D01*
D02*
G37*
G36*
X28386Y10497D02*
X28327Y10486D01*
X28278Y10453D01*
X28245Y10403D01*
X28233Y10344D01*
X28245Y10286D01*
X28278Y10236D01*
X28327Y10203D01*
X28386Y10192D01*
X28444Y10203D01*
X28494Y10236D01*
X28527Y10286D01*
X28539Y10344D01*
X28527Y10403D01*
X28494Y10453D01*
X28444Y10486D01*
X28386Y10497D01*
D02*
G37*
G36*
X29370D02*
X29312Y10486D01*
X29262Y10453D01*
X29229Y10403D01*
X29217Y10344D01*
X29229Y10286D01*
X29262Y10236D01*
X29312Y10203D01*
X29370Y10192D01*
X29429Y10203D01*
X29478Y10236D01*
X29511Y10286D01*
X29523Y10344D01*
X29511Y10403D01*
X29478Y10453D01*
X29429Y10486D01*
X29370Y10497D01*
D02*
G37*
G36*
X30354D02*
X30296Y10486D01*
X30246Y10453D01*
X30213Y10403D01*
X30201Y10344D01*
X30213Y10286D01*
X30246Y10236D01*
X30296Y10203D01*
X30354Y10192D01*
X30413Y10203D01*
X30462Y10236D01*
X30496Y10286D01*
X30507Y10344D01*
X30496Y10403D01*
X30462Y10453D01*
X30413Y10486D01*
X30354Y10497D01*
D02*
G37*
G36*
X26260Y10045D02*
X26197Y10033D01*
X26144Y9997D01*
X26109Y9944D01*
X26097Y9882D01*
X26109Y9819D01*
X26144Y9767D01*
X26197Y9731D01*
X26260Y9719D01*
X26322Y9731D01*
X26375Y9767D01*
X26411Y9819D01*
X26423Y9882D01*
X26411Y9944D01*
X26375Y9997D01*
X26322Y10033D01*
X26260Y10045D01*
D02*
G37*
G36*
X22343Y7749D02*
X21811D01*
X21784Y7743D01*
X21761Y7728D01*
X21745Y7704D01*
X21740Y7677D01*
X21736Y7674D01*
X21693Y7683D01*
X21630Y7670D01*
X21578Y7635D01*
X21542Y7582D01*
X21530Y7520D01*
X21542Y7457D01*
X21578Y7404D01*
X21612Y7381D01*
X21615Y7369D01*
Y7316D01*
X21612Y7304D01*
X21578Y7281D01*
X21542Y7228D01*
X21530Y7165D01*
X21542Y7103D01*
X21578Y7050D01*
X21630Y7015D01*
X21637Y7013D01*
X21660Y6969D01*
X21637Y6924D01*
X21630Y6922D01*
X21578Y6887D01*
X21542Y6834D01*
X21530Y6772D01*
X21542Y6709D01*
X21578Y6656D01*
X21630Y6621D01*
X21693Y6609D01*
X21749Y6620D01*
X21761Y6603D01*
X21784Y6588D01*
X21811Y6582D01*
X22343D01*
X22370Y6588D01*
X22393Y6603D01*
X22408Y6626D01*
X22414Y6654D01*
Y7677D01*
X22408Y7704D01*
X22393Y7728D01*
X22370Y7743D01*
X22343Y7749D01*
D02*
G37*
G36*
X22126Y8224D02*
X22067Y8212D01*
X22018Y8179D01*
X21985Y8129D01*
X21973Y8071D01*
X21985Y8012D01*
X22018Y7963D01*
X22067Y7930D01*
X22126Y7918D01*
X22185Y7930D01*
X22234Y7963D01*
X22267Y8012D01*
X22279Y8071D01*
X22267Y8129D01*
X22234Y8179D01*
X22185Y8212D01*
X22126Y8224D01*
D02*
G37*
G36*
X26811Y11580D02*
X26749Y11568D01*
X26696Y11533D01*
X26660Y11480D01*
X26648Y11417D01*
X26660Y11355D01*
X26696Y11302D01*
X26749Y11267D01*
X26811Y11254D01*
X26873Y11267D01*
X26926Y11302D01*
X26962Y11355D01*
X26974Y11417D01*
X26962Y11480D01*
X26926Y11533D01*
X26873Y11568D01*
X26811Y11580D01*
D02*
G37*
%LPD*%
G36*
X27772Y7928D02*
X27817Y7915D01*
X27830Y7871D01*
X27854Y7835D01*
X27830Y7799D01*
X27822Y7756D01*
X27830Y7713D01*
X27854Y7677D01*
X27830Y7641D01*
X27822Y7598D01*
X27830Y7556D01*
X27854Y7520D01*
X27830Y7484D01*
X27822Y7441D01*
X27830Y7398D01*
X27854Y7362D01*
X27830Y7326D01*
X27822Y7283D01*
X27830Y7241D01*
X27854Y7205D01*
X27830Y7169D01*
X27822Y7126D01*
X27830Y7083D01*
X27854Y7047D01*
X27830Y7011D01*
X27822Y6969D01*
X27830Y6926D01*
X27854Y6890D01*
X27830Y6854D01*
X27822Y6811D01*
X27830Y6768D01*
X27854Y6732D01*
X27830Y6696D01*
X27822Y6654D01*
X27830Y6611D01*
X27854Y6575D01*
X27830Y6539D01*
X27817Y6495D01*
X27772Y6481D01*
X27736Y6457D01*
X27700Y6481D01*
X27657Y6489D01*
X27615Y6481D01*
X27579Y6457D01*
X27543Y6481D01*
X27500Y6489D01*
X27457Y6481D01*
X27421Y6457D01*
X27385Y6481D01*
X27343Y6489D01*
X27300Y6481D01*
X27264Y6457D01*
X27228Y6481D01*
X27185Y6489D01*
X27142Y6481D01*
X27106Y6457D01*
X27070Y6481D01*
X27028Y6489D01*
X26985Y6481D01*
X26949Y6457D01*
X26913Y6481D01*
X26870Y6489D01*
X26827Y6481D01*
X26791Y6457D01*
X26755Y6481D01*
X26713Y6489D01*
X26670Y6481D01*
X26634Y6457D01*
X26598Y6481D01*
X26555Y6489D01*
X26512Y6481D01*
X26476Y6457D01*
X26440Y6481D01*
X26396Y6495D01*
X26383Y6539D01*
X26358Y6575D01*
X26383Y6611D01*
X26391Y6654D01*
X26383Y6696D01*
X26358Y6732D01*
X26383Y6768D01*
X26391Y6811D01*
X26383Y6854D01*
X26358Y6890D01*
X26383Y6926D01*
X26391Y6969D01*
X26383Y7011D01*
X26358Y7047D01*
X26383Y7083D01*
X26391Y7126D01*
X26383Y7169D01*
X26358Y7205D01*
X26383Y7241D01*
X26391Y7283D01*
X26383Y7326D01*
X26358Y7362D01*
X26383Y7398D01*
X26391Y7441D01*
X26383Y7484D01*
X26358Y7520D01*
X26383Y7556D01*
X26391Y7598D01*
X26383Y7641D01*
X26358Y7677D01*
X26383Y7713D01*
X26391Y7756D01*
X26383Y7799D01*
X26358Y7835D01*
X26383Y7871D01*
X26396Y7915D01*
X26440Y7928D01*
X26476Y7953D01*
X26512Y7928D01*
X26555Y7920D01*
X26598Y7928D01*
X26634Y7953D01*
X26670Y7928D01*
X26713Y7920D01*
X26755Y7928D01*
X26791Y7953D01*
X26827Y7928D01*
X26870Y7920D01*
X26913Y7928D01*
X26949Y7953D01*
X26985Y7928D01*
X27028Y7920D01*
X27070Y7928D01*
X27106Y7953D01*
X27142Y7928D01*
X27185Y7920D01*
X27228Y7928D01*
X27264Y7953D01*
X27300Y7928D01*
X27343Y7920D01*
X27385Y7928D01*
X27421Y7953D01*
X27457Y7928D01*
X27500Y7920D01*
X27543Y7928D01*
X27579Y7953D01*
X27615Y7928D01*
X27657Y7920D01*
X27700Y7928D01*
X27736Y7953D01*
X27772Y7928D01*
D02*
G37*
G36*
X29838Y7863D02*
Y7098D01*
X29758Y7018D01*
X29476D01*
X29416Y7063D01*
Y7268D01*
X29410Y7295D01*
X29395Y7318D01*
X29372Y7334D01*
X29344Y7339D01*
X29281D01*
X29219Y7401D01*
Y7583D01*
X29284Y7616D01*
X29341D01*
X29368Y7621D01*
X29391Y7637D01*
X29395Y7643D01*
X29449Y7632D01*
X29511Y7645D01*
X29564Y7680D01*
X29600Y7733D01*
X29612Y7795D01*
X29600Y7858D01*
X29586Y7879D01*
X29623Y7949D01*
X29752D01*
X29838Y7863D01*
D02*
G37*
G36*
X25669Y9331D02*
X25354D01*
Y9646D01*
X25669Y9331D01*
D02*
G37*
%LPC*%
G36*
X22638Y10743D02*
X22579Y10732D01*
X22530Y10699D01*
X22497Y10649D01*
X22485Y10591D01*
X22497Y10532D01*
X22530Y10482D01*
X22579Y10449D01*
X22638Y10438D01*
X22696Y10449D01*
X22746Y10482D01*
X22779Y10532D01*
X22791Y10591D01*
X22779Y10649D01*
X22746Y10699D01*
X22696Y10732D01*
X22638Y10743D01*
D02*
G37*
G36*
X20118Y10665D02*
X20060Y10653D01*
X20010Y10620D01*
X19977Y10570D01*
X19965Y10512D01*
X19977Y10453D01*
X20010Y10404D01*
X20060Y10371D01*
X20118Y10359D01*
X20177Y10371D01*
X20221Y10400D01*
X20439D01*
X20450Y10386D01*
X20470Y10330D01*
X20450Y10300D01*
X20445Y10274D01*
X20322Y10151D01*
X20299Y10118D01*
X20292Y10079D01*
Y9640D01*
X20286Y9636D01*
X20252Y9586D01*
X20241Y9528D01*
X20252Y9469D01*
X20286Y9419D01*
X20335Y9386D01*
X20394Y9375D01*
X20452Y9386D01*
X20502Y9419D01*
X20535Y9469D01*
X20535Y9470D01*
X20607D01*
X20607Y9469D01*
X20640Y9419D01*
X20689Y9386D01*
X20748Y9375D01*
X20807Y9386D01*
X20812Y9390D01*
X20866Y9415D01*
X20921Y9390D01*
X20926Y9386D01*
X20984Y9375D01*
X21043Y9386D01*
X21092Y9419D01*
X21126Y9469D01*
X21131Y9496D01*
X21204Y9521D01*
X21367Y9359D01*
X21390Y9344D01*
X21417Y9338D01*
X21575D01*
X21602Y9344D01*
X21625Y9359D01*
X21783Y9516D01*
X21798Y9540D01*
X21804Y9567D01*
Y9882D01*
X21798Y9909D01*
X21783Y9932D01*
X21760Y9948D01*
X21732Y9953D01*
X21211Y9953D01*
X21126Y10038D01*
X21125Y10044D01*
X21107Y10071D01*
X21099Y10118D01*
X21107Y10166D01*
X21125Y10192D01*
X21136Y10246D01*
X21125Y10300D01*
X21094Y10346D01*
Y10402D01*
X21125Y10448D01*
X21136Y10502D01*
X21125Y10556D01*
X21094Y10602D01*
X21048Y10633D01*
X20994Y10644D01*
X20581D01*
X20527Y10633D01*
X20483Y10604D01*
X20237D01*
X20226Y10620D01*
X20177Y10653D01*
X20118Y10665D01*
D02*
G37*
G36*
X22411Y11134D02*
X22207D01*
X22179Y11129D01*
X22156Y11113D01*
X22088Y11120D01*
X22084Y11123D01*
X22057Y11128D01*
X21852D01*
X21825Y11123D01*
X21802Y11108D01*
X21801Y11106D01*
X21785D01*
X21729Y11095D01*
X21681Y11063D01*
X21636Y11018D01*
X21630Y11017D01*
X21594Y10993D01*
X21558Y11017D01*
X21496Y11029D01*
X21434Y11017D01*
X21381Y10982D01*
X21358Y10947D01*
X21345Y10944D01*
X21293D01*
X21280Y10947D01*
X21257Y10982D01*
X21204Y11017D01*
X21142Y11029D01*
X21079Y11017D01*
X21026Y10982D01*
X20991Y10929D01*
X20979Y10866D01*
X20991Y10804D01*
X21026Y10751D01*
X21079Y10715D01*
X21142Y10703D01*
X21204Y10715D01*
X21257Y10751D01*
X21280Y10785D01*
X21293Y10789D01*
X21345D01*
X21358Y10785D01*
X21381Y10751D01*
X21434Y10715D01*
X21496Y10703D01*
X21558Y10715D01*
X21594Y10739D01*
X21630Y10715D01*
X21693Y10703D01*
X21755Y10715D01*
X21808Y10751D01*
X21836Y10792D01*
X21852Y10789D01*
X22057D01*
X22084Y10794D01*
X22108Y10810D01*
X22108Y10811D01*
X22163D01*
X22179Y10800D01*
X22207Y10795D01*
X22411D01*
X22439Y10800D01*
X22462Y10816D01*
X22477Y10839D01*
X22483Y10866D01*
Y11063D01*
X22477Y11090D01*
X22462Y11113D01*
X22439Y11129D01*
X22411Y11134D01*
D02*
G37*
G36*
X19567Y11029D02*
X19504Y11017D01*
X19452Y10982D01*
X19416Y10929D01*
X19404Y10866D01*
X19416Y10804D01*
X19452Y10751D01*
X19504Y10715D01*
X19567Y10703D01*
X19629Y10715D01*
X19682Y10751D01*
X19718Y10804D01*
X19730Y10866D01*
X19718Y10929D01*
X19682Y10982D01*
X19629Y11017D01*
X19567Y11029D01*
D02*
G37*
%LPD*%
G36*
X21181Y9882D02*
X21732Y9882D01*
Y9567D01*
X21575Y9409D01*
X21417D01*
X21142Y9685D01*
X20551D01*
X20512Y9724D01*
X20512Y10000D01*
X20551Y10039D01*
X21024D01*
X21181Y9882D01*
D02*
G37*
D17*
X17244Y11278D02*
D03*
X16870Y10376D02*
D03*
X17618D02*
D03*
X20413Y6793D02*
D03*
X19665D02*
D03*
X20039Y7695D02*
D03*
D18*
X12041Y9252D02*
D03*
X12368D02*
D03*
X13537Y11181D02*
D03*
X13864D02*
D03*
X17014Y9606D02*
D03*
X16687D02*
D03*
X1896Y9882D02*
D03*
X1569D02*
D03*
X27919Y8780D02*
D03*
X27593D02*
D03*
X28419Y6142D02*
D03*
X28746D02*
D03*
X1648Y4606D02*
D03*
X1974D02*
D03*
X3695Y4803D02*
D03*
X4022D02*
D03*
X12986Y6102D02*
D03*
X13313D02*
D03*
X2250Y7992D02*
D03*
X1923D02*
D03*
X4679Y5787D02*
D03*
X5006D02*
D03*
X7199Y7362D02*
D03*
X7526D02*
D03*
X27841Y5236D02*
D03*
X27514D02*
D03*
X29049Y7480D02*
D03*
X29376D02*
D03*
X29573Y7165D02*
D03*
X29246D02*
D03*
X25618Y9370D02*
D03*
X25945D02*
D03*
Y9055D02*
D03*
X25618D02*
D03*
X25006Y7441D02*
D03*
X24679D02*
D03*
Y7126D02*
D03*
X25006D02*
D03*
X2801Y1850D02*
D03*
X2474D02*
D03*
X12053Y7677D02*
D03*
X11726D02*
D03*
X12368Y7362D02*
D03*
X12041D02*
D03*
X11726Y7992D02*
D03*
X12053D02*
D03*
X13943Y7677D02*
D03*
X13616D02*
D03*
X13943Y6732D02*
D03*
X13616D02*
D03*
X13943Y6102D02*
D03*
X13616D02*
D03*
X13943Y6417D02*
D03*
X13616D02*
D03*
X13943Y7362D02*
D03*
X13616D02*
D03*
X12683Y7992D02*
D03*
X12356D02*
D03*
X12368Y6102D02*
D03*
X12041D02*
D03*
X12368Y8622D02*
D03*
X12041D02*
D03*
X10152Y10197D02*
D03*
X10478D02*
D03*
X10467Y9567D02*
D03*
X10793D02*
D03*
X10467Y6417D02*
D03*
X10793D02*
D03*
X10478Y8622D02*
D03*
X10152D02*
D03*
X15230Y7953D02*
D03*
X15557D02*
D03*
X14848Y6102D02*
D03*
X14522D02*
D03*
X15833Y7402D02*
D03*
X15506D02*
D03*
X12053Y5472D02*
D03*
X11726D02*
D03*
X13628Y7047D02*
D03*
X13301D02*
D03*
X14533Y9843D02*
D03*
X14207D02*
D03*
X14888Y9213D02*
D03*
X14561D02*
D03*
X13931Y8268D02*
D03*
X14258D02*
D03*
X11687Y10197D02*
D03*
X12014D02*
D03*
X12683Y8307D02*
D03*
X12356D02*
D03*
Y6732D02*
D03*
X12683D02*
D03*
X12368Y9567D02*
D03*
X12041D02*
D03*
X12329Y4843D02*
D03*
X12002D02*
D03*
X12362Y5787D02*
D03*
X12035D02*
D03*
X11726Y6732D02*
D03*
X12053D02*
D03*
X1923Y8307D02*
D03*
X2250D02*
D03*
X2093Y6063D02*
D03*
X1766D02*
D03*
X11411Y6102D02*
D03*
X11738D02*
D03*
X27514Y5551D02*
D03*
X27841D02*
D03*
D19*
X1260Y551D02*
D03*
X1496D02*
D03*
X1732D02*
D03*
X1969D02*
D03*
X2205D02*
D03*
X2441D02*
D03*
X2677D02*
D03*
X2913D02*
D03*
X3150D02*
D03*
X3386D02*
D03*
X3622D02*
D03*
X3858D02*
D03*
X4094D02*
D03*
X4331D02*
D03*
X4567D02*
D03*
X4803D02*
D03*
X5039D02*
D03*
X5276D02*
D03*
X5512D02*
D03*
X5748D02*
D03*
X5984D02*
D03*
X6220D02*
D03*
X6457D02*
D03*
X6693D02*
D03*
X6929D02*
D03*
X7165D02*
D03*
X7402D02*
D03*
X7638D02*
D03*
X7874D02*
D03*
X8110D02*
D03*
X8346D02*
D03*
X8583D02*
D03*
X8819D02*
D03*
X9055D02*
D03*
X9291D02*
D03*
X9528D02*
D03*
X9764D02*
D03*
X10000D02*
D03*
X10236D02*
D03*
X10472D02*
D03*
X10709D02*
D03*
X10945D02*
D03*
X11181D02*
D03*
X11417D02*
D03*
X11654D02*
D03*
X11890D02*
D03*
X12126D02*
D03*
X12362D02*
D03*
X12598D02*
D03*
X12835D02*
D03*
X13071D02*
D03*
X13307D02*
D03*
X13543D02*
D03*
X13780D02*
D03*
X14016D02*
D03*
X14252D02*
D03*
X14488D02*
D03*
X14724D02*
D03*
X14961D02*
D03*
X15197D02*
D03*
X15433D02*
D03*
X15669D02*
D03*
X15906D02*
D03*
X16142D02*
D03*
X16378D02*
D03*
X17795D02*
D03*
X18032D02*
D03*
X18268D02*
D03*
X18504D02*
D03*
X18740D02*
D03*
X18976D02*
D03*
X19213D02*
D03*
X19449D02*
D03*
X19685D02*
D03*
X19921D02*
D03*
X20157D02*
D03*
X20394D02*
D03*
X20630D02*
D03*
X20866D02*
D03*
X21102D02*
D03*
X21339D02*
D03*
X21575D02*
D03*
X21811D02*
D03*
X22047D02*
D03*
X22283D02*
D03*
X22520D02*
D03*
X22756D02*
D03*
X22992D02*
D03*
X23228D02*
D03*
X23465D02*
D03*
X23701D02*
D03*
X23937D02*
D03*
X24173D02*
D03*
X24409D02*
D03*
X24646D02*
D03*
X24882D02*
D03*
X25118D02*
D03*
X25354D02*
D03*
X25591D02*
D03*
X25827D02*
D03*
X26063D02*
D03*
X26299D02*
D03*
X26535D02*
D03*
X26772D02*
D03*
X27008D02*
D03*
X27244D02*
D03*
X27480D02*
D03*
X27717D02*
D03*
X27953D02*
D03*
X28189D02*
D03*
X28425D02*
D03*
X28661D02*
D03*
X28898D02*
D03*
X29134D02*
D03*
X29370D02*
D03*
X29606D02*
D03*
X29843D02*
D03*
X30079D02*
D03*
X30315D02*
D03*
X30551D02*
D03*
X30787D02*
D03*
X31024D02*
D03*
D22*
X12835Y11437D02*
D03*
Y11083D02*
D03*
X12205D02*
D03*
Y11437D02*
D03*
D24*
X3744Y4168D02*
D03*
X3547D02*
D03*
X3350D02*
D03*
X3153D02*
D03*
X2956D02*
D03*
Y2632D02*
D03*
X3153D02*
D03*
X3350D02*
D03*
X3547D02*
D03*
X3744D02*
D03*
D25*
X4118Y3006D02*
D03*
Y3203D02*
D03*
Y3400D02*
D03*
Y3597D02*
D03*
Y3794D02*
D03*
X2582D02*
D03*
Y3597D02*
D03*
Y3400D02*
D03*
Y3203D02*
D03*
Y3006D02*
D03*
D26*
X3350Y3400D02*
D03*
D31*
X18474Y8150D02*
D03*
X17510D02*
D03*
X23041Y7165D02*
D03*
X22077D02*
D03*
D32*
X15335Y11220D02*
D03*
X14587D02*
D03*
D33*
X17480Y6289D02*
D03*
Y7254D02*
D03*
X18740Y6624D02*
D03*
Y5659D02*
D03*
X17480Y5610D02*
D03*
Y4646D02*
D03*
D34*
X7520Y5817D02*
D03*
Y6073D02*
D03*
X27559Y9390D02*
D03*
Y9134D02*
D03*
X26299Y9341D02*
D03*
Y9085D02*
D03*
X3740Y2175D02*
D03*
Y1919D02*
D03*
X3150Y1880D02*
D03*
Y2136D02*
D03*
X1575Y8474D02*
D03*
Y8219D02*
D03*
X7520Y6447D02*
D03*
Y6703D02*
D03*
X7205Y8022D02*
D03*
Y8278D02*
D03*
X7520Y10226D02*
D03*
Y10482D02*
D03*
X4685Y6132D02*
D03*
Y6388D02*
D03*
Y7018D02*
D03*
Y6762D02*
D03*
X5315Y7707D02*
D03*
Y7963D02*
D03*
X4685Y9281D02*
D03*
Y9537D02*
D03*
X4685Y9911D02*
D03*
Y10167D02*
D03*
Y10541D02*
D03*
Y10797D02*
D03*
D35*
X7165Y7677D02*
D03*
X6909D02*
D03*
X5020Y8307D02*
D03*
X5276D02*
D03*
X25541Y6220D02*
D03*
X25797D02*
D03*
X4144Y7205D02*
D03*
X3888D02*
D03*
X30069Y2047D02*
D03*
X30325D02*
D03*
X29872Y2323D02*
D03*
X30128D02*
D03*
X29577D02*
D03*
X29321D02*
D03*
X29380Y2047D02*
D03*
X29124D02*
D03*
X30069Y1772D02*
D03*
X30325D02*
D03*
X29872Y2598D02*
D03*
X30128D02*
D03*
X29577D02*
D03*
X29321D02*
D03*
X29380Y1772D02*
D03*
X29124D02*
D03*
X15797Y10512D02*
D03*
X15541D02*
D03*
X28789Y5827D02*
D03*
X28533D02*
D03*
Y5551D02*
D03*
X28789D02*
D03*
X18652Y9331D02*
D03*
X18907D02*
D03*
X5906Y6732D02*
D03*
X5650D02*
D03*
X6545D02*
D03*
X6289D02*
D03*
X5906Y6417D02*
D03*
X5650D02*
D03*
X4144Y6575D02*
D03*
X3888D02*
D03*
X6909Y6417D02*
D03*
X7165D02*
D03*
X4144Y6260D02*
D03*
X3888D02*
D03*
X6909Y6102D02*
D03*
X7165D02*
D03*
X4144Y5945D02*
D03*
X3888D02*
D03*
X6909Y5787D02*
D03*
X7165D02*
D03*
X5650Y6102D02*
D03*
X5906D02*
D03*
X6289Y7677D02*
D03*
X6545D02*
D03*
X6535Y6102D02*
D03*
X6280D02*
D03*
X6289Y7047D02*
D03*
X6545D02*
D03*
X5650Y5787D02*
D03*
X5906D02*
D03*
Y7047D02*
D03*
X5650D02*
D03*
X7165Y6732D02*
D03*
X6909D02*
D03*
X3888Y6890D02*
D03*
X4144D02*
D03*
X5650Y7362D02*
D03*
X5906D02*
D03*
Y7677D02*
D03*
X5650D02*
D03*
Y7992D02*
D03*
X5906D02*
D03*
X3888Y7520D02*
D03*
X4144D02*
D03*
X4616Y4803D02*
D03*
X4360D02*
D03*
X3120Y7992D02*
D03*
X2864D02*
D03*
X2589Y5906D02*
D03*
X2844D02*
D03*
X7175Y8622D02*
D03*
X6919D02*
D03*
X7490Y9567D02*
D03*
X7234D02*
D03*
Y9882D02*
D03*
X7490D02*
D03*
Y10827D02*
D03*
X7234D02*
D03*
X4715Y8622D02*
D03*
X4970D02*
D03*
X5030Y10197D02*
D03*
X5285D02*
D03*
X7175Y7047D02*
D03*
X6919D02*
D03*
D36*
X5984Y8943D02*
D03*
Y8616D02*
D03*
X29409Y4809D02*
D03*
Y4482D02*
D03*
X24134Y10951D02*
D03*
Y10624D02*
D03*
X30787Y2907D02*
D03*
Y3234D02*
D03*
X30315D02*
D03*
Y2907D02*
D03*
X11417Y9888D02*
D03*
Y9561D02*
D03*
X22939Y10661D02*
D03*
Y10988D02*
D03*
X23451Y10661D02*
D03*
Y10988D02*
D03*
X25787Y10663D02*
D03*
Y10990D02*
D03*
X11299Y11018D02*
D03*
Y11344D02*
D03*
X16417Y11266D02*
D03*
Y10939D02*
D03*
X25354Y1805D02*
D03*
Y2132D02*
D03*
X25039Y1805D02*
D03*
Y2132D02*
D03*
X24724Y1805D02*
D03*
Y2132D02*
D03*
X24409Y1805D02*
D03*
Y2132D02*
D03*
X24094Y1805D02*
D03*
Y2132D02*
D03*
X23780Y1805D02*
D03*
Y2132D02*
D03*
X23465Y1805D02*
D03*
Y2132D02*
D03*
X23150Y1805D02*
D03*
Y2132D02*
D03*
X22835Y1805D02*
D03*
Y2132D02*
D03*
X22520Y1805D02*
D03*
Y2132D02*
D03*
X22205Y1805D02*
D03*
Y2132D02*
D03*
X21890Y1805D02*
D03*
Y2132D02*
D03*
X21575Y1805D02*
D03*
Y2132D02*
D03*
X21260Y1805D02*
D03*
Y2132D02*
D03*
X20945Y1805D02*
D03*
Y2132D02*
D03*
X20630Y1805D02*
D03*
Y2132D02*
D03*
X20315Y1805D02*
D03*
Y2132D02*
D03*
X20000D02*
D03*
Y1805D02*
D03*
X26417Y2132D02*
D03*
Y1805D02*
D03*
X19055D02*
D03*
Y2132D02*
D03*
X18740D02*
D03*
Y1805D02*
D03*
X18425D02*
D03*
Y2132D02*
D03*
X18110D02*
D03*
Y1805D02*
D03*
X17795D02*
D03*
Y2132D02*
D03*
X17008D02*
D03*
Y1805D02*
D03*
X16693D02*
D03*
Y2132D02*
D03*
X16378D02*
D03*
Y1805D02*
D03*
X16063D02*
D03*
Y2132D02*
D03*
X10354Y3262D02*
D03*
Y3589D02*
D03*
X10039D02*
D03*
Y3262D02*
D03*
X9724D02*
D03*
Y3589D02*
D03*
X9409D02*
D03*
Y3262D02*
D03*
X19370Y2132D02*
D03*
Y1805D02*
D03*
X8071Y3589D02*
D03*
Y3262D02*
D03*
X7756D02*
D03*
Y3589D02*
D03*
X7441D02*
D03*
Y3262D02*
D03*
X7126D02*
D03*
Y3589D02*
D03*
X6811D02*
D03*
Y3262D02*
D03*
X1496Y10467D02*
D03*
Y10793D02*
D03*
X18425Y4522D02*
D03*
Y4848D02*
D03*
X19094D02*
D03*
Y4522D02*
D03*
X28228Y4482D02*
D03*
Y4809D02*
D03*
X27047D02*
D03*
Y4482D02*
D03*
X25866D02*
D03*
Y4809D02*
D03*
X25512Y5911D02*
D03*
Y5585D02*
D03*
X27205Y5230D02*
D03*
Y5557D02*
D03*
X12992Y5467D02*
D03*
Y5793D02*
D03*
X11732Y7041D02*
D03*
Y7368D02*
D03*
X1575Y7593D02*
D03*
Y7919D02*
D03*
X11102Y8301D02*
D03*
Y8628D02*
D03*
Y7998D02*
D03*
Y7671D02*
D03*
X6565Y7986D02*
D03*
Y8313D02*
D03*
X25984Y2132D02*
D03*
Y1805D02*
D03*
X25669D02*
D03*
Y2132D02*
D03*
X13307Y9219D02*
D03*
Y8892D02*
D03*
X9803Y11344D02*
D03*
Y11018D02*
D03*
X29213Y8982D02*
D03*
Y8656D02*
D03*
X28937Y6896D02*
D03*
Y6569D02*
D03*
X28898Y8785D02*
D03*
Y8459D02*
D03*
X29921Y8301D02*
D03*
Y8628D02*
D03*
X25551Y4482D02*
D03*
Y4809D02*
D03*
X3425Y2171D02*
D03*
Y1844D02*
D03*
X13622Y8628D02*
D03*
Y8301D02*
D03*
X13307Y8628D02*
D03*
Y8301D02*
D03*
X12992Y8628D02*
D03*
Y8301D02*
D03*
X14567Y7002D02*
D03*
Y7329D02*
D03*
X11850Y11423D02*
D03*
Y11096D02*
D03*
X10472Y7683D02*
D03*
Y7356D02*
D03*
X15827Y9207D02*
D03*
Y9533D02*
D03*
X12992Y6411D02*
D03*
Y6738D02*
D03*
X14843Y4837D02*
D03*
Y5163D02*
D03*
X13898Y5478D02*
D03*
Y5152D02*
D03*
X15551Y5793D02*
D03*
Y5467D02*
D03*
X15787Y4522D02*
D03*
Y4848D02*
D03*
X13346Y5163D02*
D03*
Y4837D02*
D03*
X12638Y4848D02*
D03*
Y4522D02*
D03*
X21299Y10085D02*
D03*
Y9758D02*
D03*
X21614D02*
D03*
Y10085D02*
D03*
X18071Y10675D02*
D03*
Y10348D02*
D03*
X22309Y10965D02*
D03*
Y10638D02*
D03*
X21955Y10632D02*
D03*
Y10959D02*
D03*
X6299Y5309D02*
D03*
Y5636D02*
D03*
X6299Y8616D02*
D03*
Y8943D02*
D03*
X4016Y5309D02*
D03*
Y5636D02*
D03*
X2559Y8380D02*
D03*
Y8707D02*
D03*
X11732Y8628D02*
D03*
Y8301D02*
D03*
X25906Y5585D02*
D03*
Y5911D02*
D03*
X26220Y5675D02*
D03*
Y5348D02*
D03*
X26535Y5230D02*
D03*
Y5557D02*
D03*
X11890Y2571D02*
D03*
Y2244D02*
D03*
X12205D02*
D03*
Y2571D02*
D03*
X12520Y2244D02*
D03*
Y2571D02*
D03*
X11575D02*
D03*
Y2244D02*
D03*
X10669Y3589D02*
D03*
Y3262D02*
D03*
X28819Y1923D02*
D03*
Y2250D02*
D03*
X28504D02*
D03*
Y1923D02*
D03*
D37*
X25039Y7835D02*
D03*
Y8622D02*
D03*
D38*
X29587Y8307D02*
D03*
X29232D02*
D03*
X29232Y7795D02*
D03*
X28878D02*
D03*
D41*
X28150Y8780D02*
X28228Y8858D01*
X10118Y10984D02*
X10472D01*
X11850Y11423D02*
Y11575D01*
X24510Y10413D02*
X24606Y10317D01*
Y10157D02*
Y10317D01*
X29587Y8504D02*
Y8701D01*
X29606Y7480D02*
X29646Y7441D01*
Y7238D02*
Y7441D01*
Y7638D01*
X30394Y8425D02*
Y8628D01*
X29921D02*
X30394D01*
X24510Y10254D02*
X24606Y10157D01*
X24510Y10254D02*
Y10413D01*
X25512Y5354D02*
Y5585D01*
X18071Y10162D02*
Y10348D01*
X2795Y1844D02*
X2801Y1850D01*
X2795Y1654D02*
Y1844D01*
X2474Y1699D02*
Y1850D01*
Y1699D02*
X2520Y1654D01*
X2250Y7992D02*
Y8307D01*
X4016Y5157D02*
Y5309D01*
X6299Y5157D02*
Y5309D01*
X9803Y11344D02*
Y11535D01*
Y11018D02*
X10085D01*
X10866Y11496D02*
X10876Y11486D01*
X10630Y11496D02*
X10866D01*
X2559Y8707D02*
X2750D01*
X2756Y8701D01*
X1923Y8307D02*
Y8498D01*
X2250Y8307D02*
Y8498D01*
X2244Y8504D02*
X2250Y8498D01*
X12835Y10866D02*
Y11083D01*
X28898Y8189D02*
Y8459D01*
X29587Y8307D02*
Y8504D01*
X29573Y7165D02*
X29646Y7238D01*
X29376Y7480D02*
X29606D01*
X29213Y8327D02*
X29232Y8307D01*
X29213Y8327D02*
Y8656D01*
X28898Y8785D02*
X29094Y8982D01*
X29213D01*
X28577Y8785D02*
X28898D01*
X28504Y8858D02*
X28577Y8785D01*
X28228Y8858D02*
X28504D01*
X25551Y4291D02*
Y4482D01*
X28937Y6378D02*
Y6569D01*
X28746Y6142D02*
X28895D01*
X27205Y5230D02*
X27508D01*
X27514Y5236D01*
X26220Y5348D02*
X26339Y5230D01*
X26535D01*
X26541D01*
X26693Y5079D01*
X27053D01*
X27205Y5230D01*
X29593Y8301D02*
X29921D01*
X29587Y8307D02*
X29593Y8301D01*
X29213Y8982D02*
X29797D01*
X29921Y8858D01*
Y8628D02*
Y8858D01*
X25006Y7126D02*
Y7441D01*
Y7756D01*
X27841Y5236D02*
Y5433D01*
Y5551D01*
X24679Y7126D02*
Y7441D01*
X25945Y9370D02*
Y9567D01*
X25630Y9882D02*
X25945Y9567D01*
X25472Y9882D02*
X25630D01*
X25276D02*
X25472D01*
X25276Y9882D02*
X25276Y9882D01*
X27559Y9134D02*
X27795D01*
X27919Y9010D01*
Y8780D02*
Y9010D01*
X27795Y9134D02*
Y9843D01*
X27835Y9882D01*
X27480D02*
X27835D01*
X27480Y9882D02*
X27480Y9882D01*
X24134Y10624D02*
X24299D01*
X24510Y10413D01*
X25787Y5348D02*
X25984D01*
X26220D01*
X24281Y7677D02*
X24518Y7441D01*
X24679D01*
X10085Y11018D02*
X10118Y10984D01*
X10226Y10876D01*
X21299Y10085D02*
X21614D01*
X22171D01*
X22283Y10197D01*
X13346Y10866D02*
Y10990D01*
X13537Y11181D01*
D42*
X1526Y8504D02*
X1565Y8465D01*
X2717Y7244D02*
Y7628D01*
X3153Y2632D02*
Y3203D01*
X3425Y1844D02*
X3665D01*
X3185D02*
X3425D01*
X25669Y2132D02*
X25984D01*
X26417D01*
X2211Y7992D02*
X2323Y7880D01*
X3100Y3650D02*
X3133Y3617D01*
X2956Y3794D02*
X3100Y3650D01*
Y3150D02*
X3133Y3183D01*
X2956Y3006D02*
X3100Y3150D01*
X22283Y10197D02*
X22309Y10222D01*
X2589Y5906D02*
X2598Y5896D01*
Y5748D02*
Y5896D01*
X2559Y5748D02*
X2598D01*
X16850Y10866D02*
X16890D01*
X16778Y10939D02*
X16850Y10866D01*
X16870Y10846D02*
X16890Y10866D01*
X16417Y10939D02*
X16778D01*
X16870Y10394D02*
Y10846D01*
X26063Y10866D02*
Y11417D01*
X25866Y10669D02*
X26063Y10866D01*
X25787Y10663D02*
X25793Y10669D01*
X25866D01*
X1541Y7559D02*
X1575Y7593D01*
X1457Y6299D02*
X1530D01*
X1766Y6063D01*
X1417Y8504D02*
X1526D01*
X26063Y551D02*
X26063Y551D01*
X22939Y10329D02*
X23071Y10197D01*
X2480Y1654D02*
X2520D01*
X2474Y1659D02*
X2480Y1654D01*
X2717Y7628D02*
Y7844D01*
X2864Y7992D01*
X1565Y8465D02*
X1575Y8474D01*
X1923Y8498D02*
X1929Y8504D01*
X2323Y7628D02*
Y7880D01*
X2093Y6063D02*
X2126Y6096D01*
Y6467D01*
X2638Y6142D02*
X2717Y6220D01*
Y6467D01*
X2520D02*
Y7047D01*
X2717Y7244D01*
X3740Y2175D02*
X3744Y2179D01*
Y2632D01*
X3978D02*
X4118Y2772D01*
X3971Y2632D02*
X3978D01*
X4118Y2772D02*
Y3006D01*
X3744Y2632D02*
X3971D01*
X3425Y1772D02*
Y1844D01*
X3665D02*
X3740Y1919D01*
X3153Y3203D02*
X3350Y3400D01*
X2956Y2632D02*
Y3006D01*
X2582Y3794D02*
X2956D01*
X3133Y3617D02*
X3350Y3400D01*
X3150Y1880D02*
X3185Y1844D01*
X7175Y7047D02*
X7205D01*
X7205Y7047D01*
X3744Y4492D02*
X4022Y4770D01*
Y4803D01*
X3744Y4168D02*
Y4492D01*
X4022Y4803D02*
X4360D01*
X4616D02*
X4803D01*
X4360D02*
X4370Y4813D01*
X1457Y4606D02*
X1648D01*
X4370Y4813D02*
Y5157D01*
X29232Y8248D02*
Y8307D01*
Y8248D02*
X29409Y8071D01*
X29803D01*
X29961Y7913D01*
X28937Y6896D02*
X29809D01*
X29961Y7047D01*
Y7913D01*
X22939Y10661D02*
X23451D01*
X22939Y10329D02*
Y10661D01*
X21955Y10632D02*
X22303D01*
X22309Y10638D01*
Y10222D02*
Y10638D01*
X17618Y10394D02*
Y10807D01*
X17559Y10866D02*
X17618Y10807D01*
X26063Y551D02*
Y1575D01*
X19370Y4764D02*
X19528D01*
X19154Y4547D02*
X19370Y4764D01*
D43*
X30689Y6043D02*
X30709Y6024D01*
X25039Y8583D02*
X26378D01*
X24724D02*
X25039D01*
X25354Y6220D02*
X25541D01*
X25276Y6142D02*
X25354Y6220D01*
X25433Y5984D02*
X25506Y5911D01*
X25315Y5984D02*
X25433D01*
X25276Y6024D02*
X25315Y5984D01*
X25276Y6024D02*
Y6142D01*
X28150Y6496D02*
X28346Y6299D01*
Y6215D02*
X28419Y6142D01*
X28346Y6215D02*
Y6299D01*
X28041Y6496D02*
X28150D01*
X27244Y5945D02*
X27441Y5748D01*
Y5630D02*
Y5748D01*
X20118Y2677D02*
X20276Y2835D01*
X26260D01*
X19724D02*
X19882Y2992D01*
X14291Y2835D02*
X19724D01*
X19882Y2992D02*
X25587D01*
X19646D02*
X19803Y3150D01*
X14252Y2992D02*
X19646D01*
X12623Y1364D02*
X14252Y2992D01*
X12835Y1378D02*
X14291Y2835D01*
X14685Y2677D02*
X20118D01*
X13332Y1324D02*
X14685Y2677D01*
X20157Y2520D02*
X20315Y2677D01*
X14764Y2520D02*
X20157D01*
X13543Y1299D02*
X14764Y2520D01*
X20315Y2677D02*
X26693D01*
X14935Y1668D02*
X14961Y1693D01*
Y551D02*
Y1457D01*
X19803Y3150D02*
X25433D01*
X26693Y2677D02*
X26772Y2598D01*
X12835Y551D02*
Y1378D01*
X27677Y2598D02*
X27953Y2323D01*
X27677Y2598D02*
X27677D01*
X25433Y3150D02*
X26378Y4094D01*
X14724Y551D02*
Y1535D01*
X14882Y1693D02*
X14935D01*
X14724Y1535D02*
X14882Y1693D01*
X14252Y551D02*
Y1417D01*
X14488Y1654D02*
Y1693D01*
X14252Y1417D02*
X14488Y1654D01*
X23447Y10984D02*
X23451Y10988D01*
X23228Y10984D02*
X23447D01*
X22939Y10988D02*
Y11010D01*
X23228Y11299D01*
X26811Y2598D02*
X26929Y2717D01*
X26772Y2598D02*
X26811D01*
X26929Y2717D02*
Y2756D01*
X27480Y4094D02*
X27520D01*
X30689Y6043D02*
X30689D01*
X16496Y9606D02*
X16687D01*
X16220Y9882D02*
X16496Y9606D01*
X15827Y9882D02*
X16220D01*
X17053Y9567D02*
X18110D01*
X17014Y9606D02*
X17053Y9567D01*
X14055Y1496D02*
X14252Y1693D01*
X14055Y591D02*
Y1496D01*
X14252Y1693D02*
X14252D01*
X13332Y576D02*
Y1324D01*
X14016Y551D02*
X14055Y591D01*
X12623Y576D02*
Y1364D01*
X16575Y10197D02*
Y10512D01*
X16378Y10709D02*
X16575Y10512D01*
X15994Y10709D02*
X16378D01*
X15797Y10512D02*
X15994Y10709D01*
X1575Y7919D02*
X1575Y7919D01*
X2126Y7628D02*
Y7750D01*
X3695Y5152D02*
X3701Y5157D01*
X11260Y10787D02*
Y10978D01*
X11299Y11018D01*
X12598Y551D02*
X12623Y576D01*
X13307Y551D02*
X13332Y576D01*
X13543Y551D02*
Y1299D01*
X28041Y6654D02*
X28268D01*
X28346Y6575D01*
X28041Y6811D02*
X28465D01*
X28543Y6732D01*
X28579D01*
X28041Y7283D02*
X28661D01*
X28041Y7126D02*
X28815D01*
X28041Y7756D02*
X28268D01*
X28346Y7835D01*
X28041Y7598D02*
X28421D01*
X27559Y8780D02*
X27593D01*
X27657Y8140D02*
Y8327D01*
X27815Y8140D02*
Y8287D01*
X26378Y2953D02*
Y2992D01*
X26220Y3150D02*
X26378Y2992D01*
X26220Y3150D02*
X26220D01*
X26220D02*
Y3189D01*
X26339Y3307D01*
X26378D01*
X26535Y3150D01*
Y3150D02*
Y3150D01*
Y3150D02*
X26575D01*
X26693Y3268D01*
Y3307D01*
X26535Y3465D02*
X26693Y3307D01*
X26535Y3465D02*
Y3504D01*
X26654Y3622D01*
X26693D01*
X26850Y3465D01*
X26890D01*
X27008Y3583D01*
Y3622D01*
X26850Y3780D02*
X27008Y3622D01*
X26850Y3780D02*
Y3819D01*
X26969Y3937D01*
X27008D01*
X27165Y3780D01*
X27205D01*
X27323Y3898D01*
Y3937D01*
X27165Y4094D02*
X27323Y3937D01*
X27165Y4094D02*
Y4134D01*
X27283Y4252D01*
X27323D01*
X27480Y4094D01*
X27675Y3935D02*
Y3939D01*
X26772Y2913D02*
X26929Y2756D01*
X26772Y2913D02*
Y2953D01*
X26890Y3071D01*
X26929D01*
X27087Y2913D01*
X27126D01*
X27244Y3031D01*
Y3071D01*
X27087Y3228D02*
X27244Y3071D01*
X27087Y3228D02*
Y3268D01*
X27205Y3386D01*
X27244D01*
X27402Y3228D01*
X27441D01*
X27559Y3346D01*
Y3386D01*
X27402Y3543D02*
X27559Y3386D01*
X27402Y3543D02*
Y3583D01*
X27520Y3701D01*
X27559D01*
Y3701D02*
Y3701D01*
Y3701D02*
X27717Y3543D01*
X27756D01*
X27874Y3661D01*
Y3701D01*
X27874D02*
X27874D01*
X27657Y3917D02*
X27874Y3701D01*
X24685Y8622D02*
X24724Y8583D01*
X28421Y7598D02*
X28502Y7679D01*
X28661Y7283D02*
X28740Y7362D01*
X28815Y7126D02*
X28896Y7207D01*
X2441Y551D02*
Y1457D01*
X2200Y1698D02*
X2441Y1457D01*
X2200Y1698D02*
Y2702D01*
X2504Y3006D01*
X2582D01*
X2376Y3203D02*
X2582D01*
X1969Y2795D02*
X2376Y3203D01*
X1969Y1378D02*
Y2795D01*
Y1378D02*
X2205Y1142D01*
Y551D02*
Y1142D01*
X1732Y551D02*
Y2795D01*
X2337Y3400D01*
X2582D01*
X2258Y3597D02*
X2582D01*
X1496Y2835D02*
X2258Y3597D01*
X1496Y551D02*
Y2835D01*
X3150Y2136D02*
Y2244D01*
X3350Y2444D01*
Y2632D01*
X3547Y2293D02*
Y2632D01*
X3425Y2171D02*
X3547Y2293D01*
X2677Y551D02*
Y1177D01*
X3050Y1550D01*
X3479D01*
X3583Y1654D01*
X3858D01*
X4449Y2244D01*
Y3071D01*
X4317Y3203D02*
X4449Y3071D01*
X4173Y3203D02*
X4317D01*
X4118Y3400D02*
X4356D01*
X4606Y3150D01*
Y2165D02*
Y3150D01*
X3937Y1496D02*
X4606Y2165D01*
X3622Y1496D02*
X3937D01*
X3526Y1400D02*
X3622Y1496D01*
X4118Y3597D02*
X4513D01*
X4764Y3346D01*
Y2087D02*
Y3346D01*
X4016Y1339D02*
X4764Y2087D01*
X3701Y1339D02*
X4016D01*
X3583Y1220D02*
X3701Y1339D01*
X3465Y1220D02*
X3583D01*
X3386Y1142D02*
X3465Y1220D01*
X3386Y551D02*
Y1142D01*
X2913Y551D02*
Y1163D01*
X3150Y1400D01*
X3526D01*
X3622Y551D02*
Y1019D01*
X3785Y1181D01*
X4094D01*
X4921Y2008D01*
Y3425D01*
X4553Y3794D02*
X4921Y3425D01*
X4118Y3794D02*
X4553D01*
X3547Y4168D02*
Y4655D01*
X3695Y4803D01*
Y5152D01*
X3350Y4168D02*
Y4721D01*
X3268Y4803D02*
X3350Y4721D01*
X3153Y4168D02*
Y4445D01*
X3071Y4528D02*
X3153Y4445D01*
X2598Y4528D02*
X3071D01*
X2323D02*
X2683Y4168D01*
X2956D01*
X1974Y4606D02*
X2244D01*
X2323Y4528D01*
X26870Y8140D02*
Y8602D01*
X26673Y8799D02*
X26870Y8602D01*
X26673Y8799D02*
Y9065D01*
X26654Y9085D02*
X26673Y9065D01*
X26299Y9085D02*
X26654D01*
X26299D02*
X26299D01*
X26555Y8140D02*
Y8406D01*
X26378Y8583D02*
X26555Y8406D01*
X27028Y8140D02*
Y8760D01*
X26939Y8848D02*
X27028Y8760D01*
X26939Y8848D02*
Y9242D01*
X27057Y9360D01*
X27106D01*
X27205Y9459D02*
X27274Y9390D01*
X27559D01*
X27559D01*
X27106Y9360D02*
X27205Y9459D01*
X27343Y8140D02*
Y8530D01*
X27593Y8780D01*
X28268Y8583D02*
X28386D01*
X27657Y8327D02*
X27874Y8543D01*
X28228D01*
X28268Y8583D01*
X27913Y8386D02*
X28543D01*
X28583Y8425D01*
X27815Y8287D02*
X27913Y8386D01*
X25787Y7441D02*
X26171D01*
X25709Y7520D02*
X25787Y7441D01*
X25630Y7283D02*
X26171D01*
X25591Y7323D02*
X25630Y7283D01*
X25472Y7126D02*
X26171D01*
X25472Y7126D02*
X25472Y7126D01*
X25591Y6929D02*
X25630Y6969D01*
X26171D01*
X25787Y6811D02*
X26171D01*
X25709Y6732D02*
X25787Y6811D01*
X25945Y6654D02*
X26171D01*
X25827Y6535D02*
X25945Y6654D01*
X25797Y6220D02*
X26073Y6496D01*
X26171D01*
X25506Y5911D02*
X25512D01*
X25906D02*
X26220Y6226D01*
Y6260D01*
Y5675D02*
X26226D01*
X26496Y5945D01*
X26535Y5557D02*
X26693Y5715D01*
Y5787D01*
X26713Y5807D02*
Y6270D01*
X26693Y5787D02*
X26713Y5807D01*
X26555Y6004D02*
Y6270D01*
X26496Y5945D02*
X26555Y6004D01*
X26230Y6270D02*
X26398D01*
X26220Y6260D02*
X26230Y6270D01*
X27028Y5807D02*
Y6270D01*
X27185Y6004D02*
Y6270D01*
Y6004D02*
X27244Y5945D01*
X27047Y5715D02*
X27205Y5557D01*
X27028Y5807D02*
X27047Y5787D01*
Y5715D02*
Y5787D01*
X30551Y551D02*
Y2671D01*
X30315Y2907D02*
X30551Y2671D01*
X30787Y551D02*
Y2907D01*
X31024Y3144D01*
Y5394D01*
X30709Y5709D02*
X31024Y5394D01*
X30315Y2907D02*
X30551Y3144D01*
Y3583D01*
X30315Y3819D02*
X30551Y3583D01*
X30315Y3819D02*
Y5669D01*
X30689Y6043D01*
X30709Y6024D02*
Y6063D01*
X28780Y1220D02*
X28898Y1102D01*
X28780Y1220D02*
Y1417D01*
X28898Y1535D01*
Y551D02*
Y1102D01*
X28661Y551D02*
Y1142D01*
X28504Y1299D02*
X28661Y1142D01*
X28504Y1299D02*
Y1732D01*
Y1923D01*
X28819Y1614D02*
Y1923D01*
Y1614D02*
X28898Y1535D01*
X28189Y551D02*
Y984D01*
X28259Y1054D01*
Y3102D01*
X28465Y3307D01*
X27953Y551D02*
Y2323D01*
X25587Y2992D02*
X26534Y3939D01*
X26260Y2835D02*
X26378Y2953D01*
X10876Y10876D02*
Y10955D01*
X11266Y11344D01*
X11299D01*
D44*
X19449Y551D02*
Y1726D01*
X19921Y551D02*
Y1726D01*
X16046Y2149D02*
X16063Y2165D01*
X15906Y2008D02*
X16046Y2149D01*
X20512Y2250D02*
Y2520D01*
X21142Y2250D02*
Y2520D01*
X21772Y2244D02*
Y2520D01*
X22402Y2244D02*
Y2520D01*
X23031Y2283D02*
Y2520D01*
X24291Y2250D02*
Y2520D01*
X24921Y2283D02*
Y2520D01*
X16417Y11305D02*
X17199D01*
X17235Y11269D02*
X17244Y11260D01*
X17199Y11305D02*
X17235Y11269D01*
X15709Y10669D02*
X16181Y11142D01*
X16293D02*
X16417Y11266D01*
X16181Y11142D02*
X16293D01*
X16299Y2165D02*
Y2283D01*
X16220Y2362D02*
X16299Y2283D01*
X19803Y4252D02*
X23346D01*
X19528Y4528D02*
X19803Y4252D01*
X23346D02*
X23543Y4449D01*
X20787Y2362D02*
X20866Y2283D01*
Y2211D02*
Y2283D01*
Y2211D02*
X20945Y2132D01*
X21417Y2362D02*
X21496Y2283D01*
Y2165D02*
Y2283D01*
Y2165D02*
X21541D01*
X23307Y2362D02*
X23386Y2283D01*
Y2205D02*
Y2283D01*
Y2205D02*
X23459Y2132D01*
X23937Y2362D02*
X24016Y2283D01*
Y2211D02*
Y2283D01*
Y2211D02*
X24094Y2132D01*
X22047Y2362D02*
X22126Y2283D01*
Y2211D02*
Y2283D01*
Y2211D02*
X22205Y2132D01*
X22677Y2362D02*
X22756Y2283D01*
Y2165D02*
Y2283D01*
Y2165D02*
X22801D01*
X22835Y2132D01*
X24567Y2323D02*
Y2362D01*
X16890Y1476D02*
Y1687D01*
X16378Y965D02*
X16890Y1476D01*
Y1687D02*
X17008Y1805D01*
X16700Y1661D02*
Y1787D01*
X16142Y551D02*
Y1102D01*
X16700Y1661D01*
X14252Y3898D02*
X14961Y3189D01*
X16220D01*
X16693Y3465D02*
X20748D01*
X16260Y3898D02*
X16693Y3465D01*
X15551Y3898D02*
X16260D01*
X16614Y3307D02*
X20669D01*
X16339Y3583D02*
X16614Y3307D01*
X15276Y3583D02*
X16339D01*
X16772Y3622D02*
X22244D01*
X15984Y4409D02*
X16772Y3622D01*
X15984Y4409D02*
Y6850D01*
X16890Y3780D02*
X22323D01*
X16299Y4370D02*
X16890Y3780D01*
X16299Y4370D02*
Y6890D01*
X16260Y3386D02*
X16457Y3189D01*
X15179Y3386D02*
X16260D01*
X15354Y4094D02*
X15551Y3898D01*
X15354Y4094D02*
Y6575D01*
X20000Y2132D02*
Y2362D01*
X18425Y2132D02*
Y2362D01*
X19055Y2132D02*
Y2362D01*
X16693Y2132D02*
Y2323D01*
X19370Y2132D02*
Y2362D01*
X18740Y2132D02*
Y2362D01*
X18110Y2132D02*
Y2362D01*
X17795Y2132D02*
Y2362D01*
X17008Y2132D02*
Y2323D01*
X24921Y2283D02*
X25000Y2205D01*
X24291Y2250D02*
X24409Y2132D01*
X23622Y2289D02*
X23780Y2132D01*
X23622Y2289D02*
Y2520D01*
X22992D02*
X23031D01*
X23150Y2132D02*
Y2165D01*
X23031Y2283D02*
X23150Y2165D01*
X22402Y2244D02*
X22480Y2165D01*
X21772Y2244D02*
X21850Y2165D01*
X20512Y2250D02*
X20630Y2132D01*
X21142Y2250D02*
X21260Y2132D01*
X25709Y2362D02*
X25866Y2520D01*
X25585Y2362D02*
X25709D01*
X25354Y2132D02*
X25585Y2362D01*
X25866Y2520D02*
X25906D01*
X24882D02*
X24921D01*
X24252D02*
X24291D01*
X22362D02*
X22402D01*
X21732D02*
X21772D01*
X21102D02*
X21142D01*
X20472D02*
X20512D01*
X14409Y4155D02*
X15179Y3386D01*
X15039Y3819D02*
X15276Y3583D01*
X23031Y4094D02*
X23819Y3307D01*
X22795Y3937D02*
X23425Y3307D01*
X20748Y3465D02*
X20906Y3307D01*
X22244Y3622D02*
X22559Y3307D01*
X22323Y3780D02*
X22795Y3307D01*
X17087Y4094D02*
X23031D01*
X16968Y3937D02*
X22795D01*
X23465Y11339D02*
X23701Y11102D01*
X24213Y11024D02*
X24372D01*
X24510Y11161D01*
X16339Y11535D02*
X23549D01*
X24134Y10951D01*
X16654Y4252D02*
Y7165D01*
X16811Y4370D02*
Y7756D01*
X16417Y8150D02*
X16811Y7756D01*
X15079Y8150D02*
X16417D01*
X15827Y7992D02*
X16654Y7165D01*
X15984Y7205D02*
X16299Y6890D01*
X15354Y7205D02*
X15984D01*
X15197Y7362D02*
X15354Y7205D01*
X15945Y6890D02*
X15984Y6850D01*
X15079Y6890D02*
X15945D01*
X15039Y6929D02*
X15079Y6890D01*
X15039Y6929D02*
Y7480D01*
X15000Y7520D02*
X15039Y7480D01*
X14409Y7520D02*
X15000D01*
X15197Y6732D02*
X15354Y6575D01*
X15197Y6732D02*
X15197D01*
X17087Y8819D02*
X21614D01*
X16732Y8465D02*
X17087Y8819D01*
X24567Y2323D02*
X24724Y2165D01*
Y2132D02*
Y2165D01*
X15787Y2008D02*
X15906D01*
X15039Y8110D02*
X15079Y8150D01*
X15039Y7835D02*
Y8110D01*
X14882Y7677D02*
X15039Y7835D01*
X23459Y2132D02*
X23465D01*
X22520Y1805D02*
X22835Y1490D01*
X14252Y7677D02*
X14409Y7520D01*
X26260Y1648D02*
X26417Y1805D01*
X8071Y2992D02*
X8110Y3031D01*
X8071Y2362D02*
Y2992D01*
Y2362D02*
X8110Y2323D01*
Y1417D02*
Y2323D01*
X27047Y1457D02*
X27244Y1260D01*
X27047Y1457D02*
Y2441D01*
X26260Y1024D02*
X26299Y984D01*
Y551D02*
Y984D01*
X26457Y1339D02*
X26535Y1260D01*
Y551D02*
Y1260D01*
X26732Y1535D02*
X26772Y1496D01*
Y551D02*
Y1496D01*
X26969Y591D02*
Y1299D01*
Y591D02*
X27008Y551D01*
X27283Y1693D02*
X27441Y1850D01*
X27283Y1417D02*
Y1693D01*
Y1417D02*
X27480Y1220D01*
X27244Y551D02*
Y1260D01*
X26260Y591D02*
X26299Y551D01*
X27441Y1850D02*
X27598D01*
X27480Y551D02*
Y1220D01*
X29577Y2598D02*
Y2943D01*
X29488Y3031D02*
X29577Y2943D01*
X20128Y10502D02*
X20787D01*
X20561Y10246D02*
X20787D01*
X16348Y9990D02*
X18583D01*
X13780Y10315D02*
X13819Y10354D01*
X13780Y10079D02*
Y10315D01*
X13740Y10039D02*
X13780Y10079D01*
X21614Y8819D02*
X21772Y8661D01*
X16535Y9016D02*
X21693D01*
X16299Y8780D02*
X16535Y9016D01*
X21693D02*
X21850Y8858D01*
X18652Y9331D02*
Y9665D01*
X16339Y9370D02*
X18612D01*
X18652Y9331D01*
X15984Y9724D02*
X16339Y9370D01*
X18583Y9734D02*
X18652Y9665D01*
X14724Y9724D02*
X15984D01*
X20118Y10512D02*
X20128Y10502D01*
X20394Y10079D02*
X20561Y10246D01*
X20394Y9528D02*
Y10079D01*
X14567Y9567D02*
X14724Y9724D01*
X16299Y10039D02*
X16348Y9990D01*
X14094Y10039D02*
X16299D01*
X19203Y9990D02*
X19724Y10512D01*
X18583Y9990D02*
X19203D01*
X13937Y9882D02*
X14094Y10039D01*
X12047Y9882D02*
X12205Y10039D01*
X13150Y3346D02*
X13740Y2756D01*
X13150Y3346D02*
Y5000D01*
X12835Y3268D02*
X13543Y2559D01*
X12835Y3268D02*
Y4685D01*
X12992Y4843D01*
X12992Y5157D02*
X13150Y5000D01*
X11575Y3976D02*
X11890Y3661D01*
Y2571D02*
Y3661D01*
X12205Y2571D02*
X12205Y2571D01*
X12205Y2571D02*
Y3661D01*
X11890Y3976D02*
X12205Y3661D01*
X11575Y3976D02*
Y4370D01*
X12205Y2244D02*
X12520D01*
X11575D02*
X11890D01*
X11693Y2047D02*
X11890Y2244D01*
X11693Y1732D02*
Y2047D01*
X12087Y2126D02*
X12205Y2244D01*
X11417Y1102D02*
X11496Y1181D01*
Y1732D01*
X11693D02*
X11890Y1535D01*
Y551D02*
Y1535D01*
X12087Y591D02*
X12126Y551D01*
X15512Y4213D02*
Y4528D01*
X15197Y4213D02*
Y4528D01*
X8937Y1220D02*
Y2126D01*
X7874Y2717D02*
Y3031D01*
Y2047D02*
Y2717D01*
Y2047D02*
X7953Y1969D01*
X7874Y3031D02*
X8071Y3228D01*
X7402Y2717D02*
Y3183D01*
Y1417D02*
Y2717D01*
X6929Y2047D02*
Y2717D01*
Y3099D01*
X6811Y3217D02*
X6929Y3099D01*
X6850Y1969D02*
X6929Y2047D01*
X7638D02*
Y3031D01*
Y3099D01*
X7559Y1969D02*
X7638Y2047D01*
X7165D02*
Y3031D01*
Y3183D01*
X7126Y3222D02*
X7165Y3183D01*
X8268Y1929D02*
X8465Y2126D01*
X8268Y1496D02*
Y1929D01*
X8819Y1102D02*
X8937Y1220D01*
X8701Y1535D02*
Y1575D01*
X8504Y1339D02*
X8701Y1535D01*
X9291Y551D02*
Y1102D01*
X9370Y1181D01*
Y1339D01*
X9291Y1417D02*
X9370Y1339D01*
X9764Y551D02*
Y1102D01*
X9685Y1181D02*
X9764Y1102D01*
X10000Y551D02*
Y1102D01*
X10079Y1181D01*
X9685D02*
Y1339D01*
X9843Y1496D01*
X9449D02*
X9528Y1417D01*
Y551D02*
Y1417D01*
X10079Y1181D02*
Y1339D01*
X10236Y551D02*
Y1417D01*
X10157Y1496D02*
X10236Y1417D01*
X9764Y2047D02*
X9843Y1969D01*
Y1496D02*
Y1969D01*
X9449Y1496D02*
Y1969D01*
X10157Y1496D02*
Y1969D01*
X10236Y2047D01*
X10472Y551D02*
Y1102D01*
X10394Y1181D02*
X10472Y1102D01*
X10394Y1181D02*
Y1339D01*
X10551Y1496D01*
Y1969D01*
X10709Y551D02*
Y1102D01*
X10787Y1181D01*
Y1339D01*
X9409Y3217D02*
Y3222D01*
X10354Y3217D02*
Y3222D01*
X10669Y3228D02*
Y3262D01*
X10945Y551D02*
Y1417D01*
X10866Y1496D02*
X10945Y1417D01*
X11181Y551D02*
Y1102D01*
X11102Y1181D02*
X11181Y1102D01*
X11417Y551D02*
Y1102D01*
X8819Y551D02*
Y1102D01*
X8504Y1181D02*
Y1339D01*
Y1181D02*
X8583Y1102D01*
Y551D02*
Y1102D01*
X8268Y1496D02*
X8346Y1417D01*
Y551D02*
Y1417D01*
X7756Y3217D02*
Y3222D01*
X7638Y3099D02*
X7756Y3217D01*
X7402Y3183D02*
X7441Y3222D01*
X6811Y3217D02*
Y3222D01*
X8110Y1417D02*
X8189Y1339D01*
Y1181D02*
Y1339D01*
X8110Y1102D02*
X8189Y1181D01*
X8110Y551D02*
Y1102D01*
X6693Y1417D02*
Y2946D01*
X7953Y1496D02*
Y1969D01*
X7795Y1339D02*
X7953Y1496D01*
X7795Y1181D02*
Y1339D01*
Y1181D02*
X7874Y1102D01*
Y551D02*
Y1102D01*
X7559Y1496D02*
Y1969D01*
X6850Y1496D02*
Y1969D01*
X7244Y1496D02*
Y1969D01*
X7165Y2047D02*
X7244Y1969D01*
X7559Y1496D02*
X7638Y1417D01*
Y551D02*
Y1417D01*
X7480Y1181D02*
Y1339D01*
X7402Y1417D02*
X7480Y1339D01*
X6929Y551D02*
Y1417D01*
X6850Y1496D02*
X6929Y1417D01*
X7087Y1339D02*
X7244Y1496D01*
X7087Y1181D02*
Y1339D01*
X7402Y1102D02*
X7480Y1181D01*
X7402Y551D02*
Y1102D01*
X7087Y1181D02*
X7165Y1102D01*
Y551D02*
Y1102D01*
X6693Y1417D02*
X6772Y1339D01*
Y1181D02*
Y1339D01*
X6693Y1102D02*
X6772Y1181D01*
X6693Y551D02*
Y1102D01*
X15645Y1787D02*
X16000D01*
X15433Y1575D02*
X15645Y1787D01*
X15433Y551D02*
Y1575D01*
X15669Y551D02*
X15709Y591D01*
Y1260D01*
X15988Y1539D01*
X16378Y551D02*
Y965D01*
X9291Y2677D02*
X9370Y2598D01*
X9291Y1417D02*
Y2283D01*
X9370Y2362D01*
Y2598D01*
X9291Y2677D02*
X9291Y2677D01*
Y3031D01*
X9764D02*
Y3183D01*
X9764Y2047D02*
X9764Y2047D01*
Y3031D01*
X9724Y3222D02*
X9764Y3183D01*
X10236Y3099D02*
X10354Y3217D01*
X10236Y3031D02*
Y3099D01*
Y2047D02*
Y3031D01*
X10709Y1417D02*
X10787Y1339D01*
X10709Y1417D02*
Y3031D01*
X9409Y3217D02*
X9528Y3099D01*
X9449Y1969D02*
X9528Y2047D01*
Y2717D02*
Y3099D01*
Y2047D02*
Y2717D01*
X10000Y3183D02*
X10039Y3222D01*
X10000Y1417D02*
X10079Y1339D01*
X10000Y1417D02*
Y2717D01*
Y3183D01*
X11417Y4528D02*
X11575Y4370D01*
X11417Y4843D02*
X11575Y4685D01*
Y4685D02*
Y4685D01*
Y4685D02*
X11850D01*
X11890Y4646D01*
Y3976D02*
Y4646D01*
X13937Y5787D02*
X14094Y5630D01*
X13937Y3740D02*
X14094Y3898D01*
Y5630D01*
X10866Y1496D02*
Y1929D01*
X11063Y2126D01*
X11102Y1181D02*
Y1378D01*
X11299Y1575D01*
X10472Y2047D02*
X10551Y1969D01*
X10472Y3031D02*
X10669Y3228D01*
X10472Y2717D02*
Y3031D01*
Y2047D02*
Y2717D01*
X25984Y7756D02*
X26171D01*
X26063Y7913D02*
X26171D01*
X26398Y8140D02*
Y8248D01*
X26260Y8386D02*
X26398Y8248D01*
X26171Y7913D02*
X26181Y7923D01*
Y8110D01*
X25787Y7953D02*
Y8110D01*
Y7953D02*
X25984Y7756D01*
X13740Y9724D02*
X13780Y9685D01*
Y9449D02*
Y9685D01*
Y9449D02*
X13819Y9409D01*
X15315D01*
X15354Y9370D01*
Y8819D02*
Y9370D01*
Y8819D02*
X15394Y8780D01*
X13307Y9567D02*
X13780Y9094D01*
X14055D01*
X14094Y9055D01*
Y8504D02*
Y9055D01*
Y8504D02*
X14134Y8465D01*
X16732D01*
X12992Y9882D02*
X13150Y9724D01*
X13740D01*
X13307Y9567D02*
Y9567D01*
X15394Y8780D02*
X16299D01*
X21850Y8858D02*
X23307D01*
X23661Y8504D01*
X21772Y8661D02*
X23189D01*
X23661Y8189D01*
X12205Y10039D02*
X13740D01*
X13819Y10354D02*
X14724D01*
X15039Y10669D01*
X15709D01*
X15630Y10827D02*
X16339Y11535D01*
X30069Y1772D02*
Y2047D01*
X29843Y551D02*
Y2293D01*
X29872Y2323D01*
Y2598D01*
X29606Y551D02*
Y2313D01*
X29567D02*
X29577Y2323D01*
Y2598D01*
X29370Y1762D02*
X29380Y1772D01*
Y2047D01*
X30079Y551D02*
Y1299D01*
X30079Y1299D02*
X30079Y1299D01*
X30079Y1299D02*
Y1762D01*
X30069Y1772D02*
X30079Y1762D01*
X29370Y551D02*
Y1220D01*
X29449Y1299D01*
X29370Y1378D02*
X29449Y1299D01*
X29370Y1378D02*
Y1762D01*
X25591Y551D02*
Y1339D01*
X25591Y1339D02*
X25591Y1339D01*
X25591Y1339D02*
Y1378D01*
X25984Y1772D01*
X25354Y551D02*
Y1805D01*
X25669D01*
X22913Y1654D02*
Y1732D01*
X22874Y1772D02*
X22913Y1732D01*
X24882Y551D02*
Y1535D01*
X24961Y1614D01*
Y1726D01*
X25039Y1805D01*
X24646Y551D02*
Y1726D01*
X24724Y1805D01*
X24409Y551D02*
Y1805D01*
X24409Y1805D02*
X24409Y1805D01*
X24173Y551D02*
Y1726D01*
X24094Y1805D02*
X24173Y1726D01*
X23937Y551D02*
Y1535D01*
X23858Y1614D02*
X23937Y1535D01*
X23858Y1614D02*
Y1726D01*
X23780Y1805D02*
X23858Y1726D01*
X23701Y551D02*
Y1457D01*
X23543Y1614D02*
X23701Y1457D01*
X23543Y1614D02*
Y1726D01*
X23465Y1805D02*
X23543Y1726D01*
X23465Y551D02*
Y1339D01*
X23228Y1575D02*
X23465Y1339D01*
X23228Y1575D02*
Y1726D01*
X23150Y1805D02*
X23228Y1726D01*
X22992Y551D02*
X23031Y591D01*
Y1535D01*
X22913Y1654D02*
X23031Y1535D01*
X22756Y551D02*
Y984D01*
X22795Y1024D01*
Y1142D01*
X22835Y1181D01*
Y1490D01*
X22244Y591D02*
X22283Y551D01*
X22244Y591D02*
Y1766D01*
X22205Y1805D02*
X22244Y1766D01*
X22047Y551D02*
X22087Y591D01*
Y1575D01*
X21890Y1772D02*
X22087Y1575D01*
X21890Y1772D02*
Y1805D01*
X21535Y591D02*
X21575Y551D01*
X21535Y591D02*
Y1766D01*
X21575Y1805D01*
X21339Y551D02*
X21378Y591D01*
Y1575D01*
X21339Y1614D02*
X21378Y1575D01*
X21339Y1614D02*
Y1726D01*
X21260Y1805D02*
X21339Y1726D01*
X20827Y591D02*
X20866Y551D01*
X20827Y591D02*
Y1102D01*
X20787Y1142D02*
X20827Y1102D01*
X20787Y1142D02*
Y1575D01*
X20866Y1654D01*
Y1726D01*
X20945Y1805D01*
X20630Y551D02*
Y1805D01*
X20630Y1805D02*
X20630Y1805D01*
X20157Y551D02*
Y1575D01*
X20236Y1654D01*
Y1726D01*
X20315Y1805D01*
X19921Y1726D02*
X20000Y1805D01*
X19370D02*
X19449Y1726D01*
X19213Y551D02*
Y1575D01*
X19134Y1654D02*
X19213Y1575D01*
X19134Y1654D02*
Y1732D01*
X18740Y551D02*
Y1805D01*
X18504Y551D02*
Y1726D01*
X18425Y1805D02*
X18504Y1726D01*
X18032Y551D02*
Y1726D01*
X18110Y1805D01*
X17795Y551D02*
Y1805D01*
X15988Y1539D02*
X16145D01*
X16378Y1772D01*
Y1805D01*
X16063Y2132D02*
Y2165D01*
X18740Y2132D02*
X18740Y2132D01*
X20315D02*
Y2362D01*
X14252Y6732D02*
X14409Y6575D01*
Y5630D02*
X14567Y5787D01*
X14409Y4155D02*
Y5630D01*
Y6575D02*
X15000D01*
X15039Y6535D01*
Y3819D02*
Y6535D01*
X21541Y2165D02*
X21575Y2132D01*
X26260Y1024D02*
Y1496D01*
Y1648D01*
X20352Y6732D02*
X20413Y6793D01*
X20118Y6732D02*
X20352D01*
X23937Y4606D02*
Y5669D01*
X23622Y5984D02*
X23937Y5669D01*
X21222Y5984D02*
X23622D01*
X20413Y6793D02*
X21222Y5984D01*
X23622D02*
X23937Y6299D01*
Y8661D01*
X23701Y8898D02*
X23937Y8661D01*
X23701Y8898D02*
Y11102D01*
X12992Y10197D02*
X13622Y10827D01*
X15630D01*
X12087Y591D02*
Y2126D01*
X16811Y4370D02*
X17087Y4094D01*
X16654Y4252D02*
X16968Y3937D01*
X29872Y2598D02*
X30039Y2766D01*
Y3031D01*
D45*
X19094Y4528D02*
X19154D01*
X28209Y5551D02*
X28307D01*
X28179Y5827D02*
X28307D01*
X27815Y6191D02*
X28179Y5827D01*
X27815Y6191D02*
Y6270D01*
X28878Y7795D02*
X28937Y7854D01*
X28524Y7441D02*
X28878Y7795D01*
X19252Y9331D02*
X19449Y9528D01*
X18907Y9331D02*
X19252D01*
X25618Y9055D02*
X25894Y8780D01*
X26417D01*
X26713Y8484D01*
Y8140D02*
Y8484D01*
X27343Y6122D02*
Y6270D01*
Y6122D02*
X27638Y5827D01*
X28307Y5551D02*
X28533D01*
X28307Y5827D02*
X28533D01*
X20061Y7717D02*
X20551D01*
X27657Y6102D02*
X28209Y5551D01*
X27657Y6102D02*
Y6270D01*
X28041Y7441D02*
X28524D01*
X18425Y4522D02*
X18431Y4528D01*
X19154D02*
Y4547D01*
D47*
X25039Y7756D02*
X25394D01*
X25006D02*
X25039D01*
X6860Y7047D02*
Y7077D01*
X27185Y8140D02*
Y8681D01*
X27244Y8740D01*
X28041Y7913D02*
X28150D01*
X28425Y8189D01*
X29114D02*
X29232Y8307D01*
X28425Y8189D02*
X28898D01*
X29114D01*
X27500Y8140D02*
Y8445D01*
X27559Y8504D01*
X25945Y7598D02*
X26171D01*
X25787Y7756D02*
X25945Y7598D01*
X26870Y5354D02*
Y6270D01*
X28041Y6969D02*
X28864D01*
X28937Y6896D01*
X25394Y7756D02*
X25787D01*
D48*
X19685Y1299D02*
X19685Y551D01*
X25394Y9594D02*
X25618Y9370D01*
X20394Y551D02*
Y1299D01*
X18976Y630D02*
Y1299D01*
X18268Y551D02*
Y1299D01*
X18431Y4528D02*
X19094D01*
X1555Y9882D02*
Y10407D01*
Y9272D02*
Y9882D01*
X28789Y5709D02*
X28976D01*
X28937Y7593D02*
Y7756D01*
Y7593D02*
X29049Y7480D01*
X25411Y10787D02*
X25535Y10663D01*
X25787D01*
X2913Y9882D02*
X3346Y10315D01*
Y10433D01*
X25886Y4291D02*
Y4463D01*
X25866Y4482D02*
X25886Y4463D01*
X20984Y1299D02*
X21102Y1181D01*
Y551D02*
Y1181D01*
X21811Y551D02*
Y1181D01*
X22520Y551D02*
Y1181D01*
X21102Y551D02*
X21102Y551D01*
X8268Y2486D02*
X8341Y2559D01*
X25827Y551D02*
Y1339D01*
X27480Y1535D02*
X27717Y1299D01*
Y551D02*
Y1299D01*
X25787Y10990D02*
Y11417D01*
X18317Y10502D02*
X18583D01*
X18155Y10246D02*
X18583D01*
X29016Y2598D02*
X29134D01*
X28819Y2402D02*
X29016Y2598D01*
X28819Y2250D02*
Y2402D01*
X28504Y2250D02*
X28819D01*
X25394Y9594D02*
Y9606D01*
Y9370D02*
X25618D01*
X25945D02*
X25974Y9341D01*
X25945Y9055D02*
Y9370D01*
X25618Y9055D02*
Y9370D01*
X29232Y7795D02*
X29449D01*
X29049Y7362D02*
Y7480D01*
Y7362D02*
X29246Y7165D01*
X18144Y10675D02*
X18317Y10502D01*
X18071Y10675D02*
X18144D01*
X18071Y10162D02*
X18155Y10246D01*
X14488Y551D02*
Y1299D01*
X13780Y1260D02*
X13858Y1339D01*
X13071Y1339D02*
X13189Y1457D01*
X13071Y551D02*
Y1339D01*
X10906Y2480D02*
Y3465D01*
X10782Y3589D02*
X10906Y3465D01*
X10669Y3589D02*
X10782D01*
X8071D02*
X8144D01*
X8346Y3386D01*
Y2559D02*
Y3386D01*
X8341Y2559D02*
X8346D01*
X6575Y3589D02*
X6811D01*
X7126D01*
X7441D01*
X9213Y3543D02*
X9364D01*
X9409Y3589D01*
X10354D02*
X10669D01*
X9724D02*
X10039D01*
X9409D02*
X9724D01*
X12520Y2571D02*
Y2756D01*
X11575Y2874D02*
X11614Y2913D01*
X11575Y2571D02*
Y2874D01*
X13780Y551D02*
Y1260D01*
X12362Y551D02*
Y1575D01*
X3858Y551D02*
Y945D01*
X15906Y1102D02*
X16142Y1339D01*
X15906Y551D02*
Y1102D01*
X15197Y551D02*
Y1299D01*
X1339Y9055D02*
X1555Y9272D01*
X27919Y8780D02*
X28150D01*
X29429Y4291D02*
Y4463D01*
X29409Y4482D02*
X29429Y4463D01*
X28248Y4291D02*
Y4463D01*
X28228Y4482D02*
X28248Y4463D01*
X27067Y4291D02*
Y4463D01*
X27047Y4482D02*
X27067Y4463D01*
X25551Y4809D02*
X25866D01*
X27047D01*
X28228D01*
X29409D01*
X27880Y5394D02*
X28071D01*
X27841Y5433D02*
X27880Y5394D01*
X28789Y5551D02*
Y5709D01*
Y5827D01*
X25974Y9341D02*
X26299D01*
X18071Y10675D02*
Y10866D01*
X30315Y3234D02*
Y3465D01*
X30787Y3234D02*
Y3465D01*
X30325Y1614D02*
Y1772D01*
X30128Y2323D02*
X30315D01*
X30325Y2313D01*
Y2047D02*
Y2313D01*
X29134Y2598D02*
X29321D01*
X30128D02*
X30315D01*
X29134Y2323D02*
X29321D01*
X29124Y1614D02*
Y1772D01*
Y2047D02*
Y2313D01*
X29134Y2323D01*
X22441Y1260D02*
X22520Y1181D01*
X21732Y1260D02*
X21811Y1181D01*
X21693Y10866D02*
X21785Y10959D01*
X21955D01*
X22303D01*
X22309Y10965D01*
X7756Y3589D02*
X8071D01*
X1896Y9882D02*
X2913D01*
X1896Y9882D02*
X1896Y9882D01*
X1496Y10467D02*
X1555Y10407D01*
D49*
X6457Y394D02*
Y551D01*
Y945D01*
D50*
X7835Y5787D02*
X9173Y7126D01*
Y8583D02*
X9528Y8937D01*
X9173Y7126D02*
Y8583D01*
X4144Y7520D02*
X4331D01*
X4144Y7205D02*
X4331D01*
X4144Y6890D02*
X4331D01*
X4144Y6575D02*
X4331D01*
X4144Y6260D02*
X4331D01*
X4144Y5945D02*
X4331D01*
D53*
X-30400Y1400D02*
Y800D01*
X-30000D01*
X-29700Y1200D02*
X-29500D01*
X-29400Y1100D01*
Y800D01*
X-29700D01*
X-29800Y900D01*
X-29700Y1000D01*
X-29400D01*
X-29200Y1200D02*
Y900D01*
X-29100Y800D01*
X-28801D01*
Y700D01*
X-28900Y600D01*
X-29000D01*
X-28801Y800D02*
Y1200D01*
X-28301Y800D02*
X-28501D01*
X-28601Y900D01*
Y1100D01*
X-28501Y1200D01*
X-28301D01*
X-28201Y1100D01*
Y1000D01*
X-28601D01*
X-28001Y1200D02*
Y800D01*
Y1000D01*
X-27901Y1100D01*
X-27801Y1200D01*
X-27701D01*
X-26801Y800D02*
X-26601D01*
X-26701D01*
Y1400D01*
X-26801Y1300D01*
X-26301D02*
X-26201Y1400D01*
X-26001D01*
X-25901Y1300D01*
Y900D01*
X-26001Y800D01*
X-26201D01*
X-26301Y900D01*
Y1300D01*
X-25102Y1100D02*
X-24702D01*
X-23502Y1300D02*
X-23602Y1400D01*
X-23802D01*
X-23902Y1300D01*
Y1200D01*
X-23802Y1100D01*
X-23602D01*
X-23502Y1000D01*
Y900D01*
X-23602Y800D01*
X-23802D01*
X-23902Y900D01*
X-23302Y800D02*
X-23102D01*
X-23202D01*
Y1200D01*
X-23302D01*
X-22603Y600D02*
X-22503D01*
X-22403Y700D01*
Y1200D01*
X-22702D01*
X-22802Y1100D01*
Y900D01*
X-22702Y800D01*
X-22403D01*
X-22203D02*
Y1200D01*
X-21903D01*
X-21803Y1100D01*
Y800D01*
X-21503Y1200D02*
X-21303D01*
X-21203Y1100D01*
Y800D01*
X-21503D01*
X-21603Y900D01*
X-21503Y1000D01*
X-21203D01*
X-21003Y800D02*
X-20803D01*
X-20903D01*
Y1400D01*
X-21003D01*
X-19703Y800D02*
X-19903Y1000D01*
Y1200D01*
X-19703Y1400D01*
X-19004Y1300D02*
X-19104Y1400D01*
X-19304D01*
X-19404Y1300D01*
Y900D01*
X-19304Y800D01*
X-19104D01*
X-19004Y900D01*
X-18704Y800D02*
X-18504D01*
X-18404Y900D01*
Y1100D01*
X-18504Y1200D01*
X-18704D01*
X-18804Y1100D01*
Y900D01*
X-18704Y800D01*
X-18204Y600D02*
Y1200D01*
X-17904D01*
X-17804Y1100D01*
Y900D01*
X-17904Y800D01*
X-18204D01*
X-17604Y600D02*
Y1200D01*
X-17304D01*
X-17204Y1100D01*
Y900D01*
X-17304Y800D01*
X-17604D01*
X-16704D02*
X-16904D01*
X-17004Y900D01*
Y1100D01*
X-16904Y1200D01*
X-16704D01*
X-16604Y1100D01*
Y1000D01*
X-17004D01*
X-16405Y1200D02*
Y800D01*
Y1000D01*
X-16305Y1100D01*
X-16205Y1200D01*
X-16105D01*
X-15805Y800D02*
X-15605Y1000D01*
Y1200D01*
X-15805Y1400D01*
D57*
X19685Y1535D02*
D03*
X20394Y1299D02*
D03*
X19685D02*
D03*
X18976D02*
D03*
X18268D02*
D03*
X16850Y1181D02*
D03*
X11563Y11575D02*
D03*
X24882Y11299D02*
D03*
X14449Y11575D02*
D03*
X14724D02*
D03*
X11850D02*
D03*
X12520D02*
D03*
Y11339D02*
D03*
X12205Y11614D02*
D03*
X29370Y10600D02*
D03*
X29587Y8701D02*
D03*
X29646Y7441D02*
D03*
X30394Y8628D02*
D03*
X19685Y2323D02*
D03*
X17717Y4291D02*
D03*
X17441D02*
D03*
X2598Y5748D02*
D03*
X2126Y5512D02*
D03*
Y5787D02*
D03*
X1575D02*
D03*
Y5512D02*
D03*
X1850D02*
D03*
X31299Y9528D02*
D03*
Y8976D02*
D03*
X31575Y10079D02*
D03*
X31299D02*
D03*
X31575Y8976D02*
D03*
Y9528D02*
D03*
X31850D02*
D03*
Y8976D02*
D03*
Y10079D02*
D03*
Y2953D02*
D03*
Y1260D02*
D03*
Y2402D02*
D03*
X31575D02*
D03*
Y1260D02*
D03*
X31299Y2953D02*
D03*
X31575D02*
D03*
X31299Y1260D02*
D03*
Y2402D02*
D03*
X433D02*
D03*
Y2953D02*
D03*
X474Y1500D02*
D03*
X750D02*
D03*
X984Y2953D02*
D03*
X709Y2402D02*
D03*
X984D02*
D03*
X709Y2953D02*
D03*
X1026Y1500D02*
D03*
X20197Y6142D02*
D03*
X18819Y6260D02*
D03*
X18543D02*
D03*
X18268D02*
D03*
X17717Y6850D02*
D03*
X17992D02*
D03*
X17913Y8268D02*
D03*
Y8543D02*
D03*
X18622Y5197D02*
D03*
X18425D02*
D03*
X18228D02*
D03*
X23465Y7165D02*
D03*
Y6772D02*
D03*
Y7520D02*
D03*
X21693D02*
D03*
Y7165D02*
D03*
Y6772D02*
D03*
X24606Y10157D02*
D03*
X16890Y10866D02*
D03*
X1457Y7244D02*
D03*
Y6929D02*
D03*
Y6614D02*
D03*
Y6299D02*
D03*
X1142D02*
D03*
Y6614D02*
D03*
Y6929D02*
D03*
Y7244D02*
D03*
Y7559D02*
D03*
Y7874D02*
D03*
Y8189D02*
D03*
Y8504D02*
D03*
X3386Y8701D02*
D03*
X3071D02*
D03*
X1417Y8504D02*
D03*
X591Y10787D02*
D03*
Y11102D02*
D03*
Y11417D02*
D03*
Y9449D02*
D03*
Y9764D02*
D03*
Y10065D02*
D03*
Y10394D02*
D03*
X2047Y10433D02*
D03*
X1260Y11417D02*
D03*
X1614D02*
D03*
X1969D02*
D03*
X2638D02*
D03*
X2323D02*
D03*
Y11102D02*
D03*
Y10787D02*
D03*
X906Y11417D02*
D03*
Y11102D02*
D03*
Y10787D02*
D03*
X4291Y9488D02*
D03*
X3976Y11063D02*
D03*
X9252Y11260D02*
D03*
X21496Y4488D02*
D03*
Y4764D02*
D03*
X21220D02*
D03*
X25886Y4291D02*
D03*
X20394Y1535D02*
D03*
X18976D02*
D03*
X18268D02*
D03*
X19685Y1890D02*
D03*
X17559Y1969D02*
D03*
Y1693D02*
D03*
X17244D02*
D03*
X20984Y1299D02*
D03*
X8268Y2486D02*
D03*
X25827Y1339D02*
D03*
X27480Y1535D02*
D03*
X25512Y5354D02*
D03*
X25787Y11417D02*
D03*
X26378D02*
D03*
X27362D02*
D03*
X30354Y10600D02*
D03*
X19449Y9528D02*
D03*
X25394Y9606D02*
D03*
Y9370D02*
D03*
X29449Y7795D02*
D03*
X13110Y11417D02*
D03*
X12835Y2756D02*
D03*
X13858Y1339D02*
D03*
X13189Y1457D02*
D03*
X6575Y3589D02*
D03*
X9213Y3543D02*
D03*
X10906Y2480D02*
D03*
X9173D02*
D03*
X12520Y2756D02*
D03*
X11614Y2913D02*
D03*
X12362Y1575D02*
D03*
X20118Y10118D02*
D03*
X6614Y3858D02*
D03*
X7126D02*
D03*
X5354Y2677D02*
D03*
X1339Y3819D02*
D03*
X2520Y1654D02*
D03*
X2795D02*
D03*
X1929Y8504D02*
D03*
X1850Y5787D02*
D03*
X2638Y6142D02*
D03*
X9606Y5433D02*
D03*
X6102Y7205D02*
D03*
X4843Y1339D02*
D03*
X4961Y1535D02*
D03*
X4724D02*
D03*
X5512Y1732D02*
D03*
Y1969D02*
D03*
Y2205D02*
D03*
X2717Y2638D02*
D03*
X2559Y2795D02*
D03*
X4118Y2772D02*
D03*
X3971Y2632D02*
D03*
X3976Y2323D02*
D03*
X2992Y6142D02*
D03*
Y5906D02*
D03*
X6102Y8150D02*
D03*
X5354Y3661D02*
D03*
X4803Y4803D02*
D03*
X2677Y5000D02*
D03*
X2087D02*
D03*
X1457Y4606D02*
D03*
X4370Y5157D02*
D03*
X9803Y11535D02*
D03*
X10630Y11496D02*
D03*
X2756Y8701D02*
D03*
X1339Y9055D02*
D03*
X2559Y9606D02*
D03*
X906Y10394D02*
D03*
Y10079D02*
D03*
Y9764D02*
D03*
X1890Y9606D02*
D03*
X1142Y8858D02*
D03*
X3346Y10433D02*
D03*
X3661D02*
D03*
X3976D02*
D03*
Y10748D02*
D03*
Y10118D02*
D03*
X2835Y10315D02*
D03*
X12047Y10866D02*
D03*
X12362D02*
D03*
X11732D02*
D03*
X12835D02*
D03*
X13982Y11530D02*
D03*
X27559Y8504D02*
D03*
X27244Y8740D02*
D03*
X28189D02*
D03*
X26654Y9882D02*
D03*
X26260D02*
D03*
X28898Y8189D02*
D03*
X29587Y8504D02*
D03*
X29646Y7638D02*
D03*
X27067Y4291D02*
D03*
X28248D02*
D03*
X29429D02*
D03*
X25551D02*
D03*
X28937Y6378D02*
D03*
Y6142D02*
D03*
X26870Y5354D02*
D03*
X25472Y9882D02*
D03*
X27480Y9882D02*
D03*
X27835Y9882D02*
D03*
X29016D02*
D03*
X30394Y8425D02*
D03*
X28071Y5394D02*
D03*
X24528Y9213D02*
D03*
X25276Y9882D02*
D03*
X28543Y11457D02*
D03*
X29528D02*
D03*
X30512D02*
D03*
X28386Y10600D02*
D03*
X27795Y11417D02*
D03*
X17559Y10866D02*
D03*
X18071D02*
D03*
X19567D02*
D03*
X21142D02*
D03*
X26811Y11417D02*
D03*
X30315Y3465D02*
D03*
X30787D02*
D03*
X30325Y1614D02*
D03*
X30315Y2323D02*
D03*
X29134Y2598D02*
D03*
X30315D02*
D03*
X29134Y2323D02*
D03*
X29124Y1614D02*
D03*
X22441Y1260D02*
D03*
X21732D02*
D03*
X21890Y1457D02*
D03*
X22598D02*
D03*
X21181D02*
D03*
X21496Y9528D02*
D03*
X25787Y5348D02*
D03*
X25984D02*
D03*
X23937Y9055D02*
D03*
X24567Y5354D02*
D03*
X20945Y4764D02*
D03*
X20669D02*
D03*
X20394D02*
D03*
X8346Y11260D02*
D03*
X8031D02*
D03*
X7717D02*
D03*
X7402D02*
D03*
X3976Y9803D02*
D03*
X4291D02*
D03*
Y10118D02*
D03*
Y10433D02*
D03*
Y10748D02*
D03*
Y11063D02*
D03*
X8937Y11260D02*
D03*
X21693Y10866D02*
D03*
X21496D02*
D03*
X13346D02*
D03*
X18071Y10157D02*
D03*
X24961Y6811D02*
D03*
X24685D02*
D03*
X24724Y5197D02*
D03*
X3701Y8701D02*
D03*
X10472Y10984D02*
D03*
X19094Y7992D02*
D03*
Y7717D02*
D03*
X19370D02*
D03*
X17992Y4291D02*
D03*
D58*
X3600Y3150D02*
D03*
Y3650D02*
D03*
X3100D02*
D03*
Y3150D02*
D03*
X3600Y3150D02*
D03*
Y3650D02*
D03*
X3100D02*
D03*
Y3150D02*
D03*
X31024Y394D02*
D03*
X30315D02*
D03*
X29134D02*
D03*
X28425D02*
D03*
X25118D02*
D03*
X23228D02*
D03*
X1260D02*
D03*
X1969D02*
D03*
X3150D02*
D03*
X3858D02*
D03*
X6457D02*
D03*
X9055D02*
D03*
X11654D02*
D03*
X16142Y11575D02*
D03*
X15197D02*
D03*
X15472D02*
D03*
Y11339D02*
D03*
X15197D02*
D03*
X14724D02*
D03*
X14449D02*
D03*
X15866Y11575D02*
D03*
Y11339D02*
D03*
X9843Y6102D02*
D03*
X25197Y5551D02*
D03*
X25000Y5748D02*
D03*
X28189Y11457D02*
D03*
X27087D02*
D03*
X25551Y11496D02*
D03*
X5906Y5157D02*
D03*
X5512D02*
D03*
X5118D02*
D03*
X4724D02*
D03*
X8268D02*
D03*
X7874D02*
D03*
X7520D02*
D03*
X26693Y7638D02*
D03*
Y7205D02*
D03*
Y6772D02*
D03*
X27126D02*
D03*
Y7638D02*
D03*
X27559D02*
D03*
Y7205D02*
D03*
Y6772D02*
D03*
X27126Y7205D02*
D03*
X22992Y5079D02*
D03*
X22756Y5315D02*
D03*
Y4843D02*
D03*
X23228D02*
D03*
Y5315D02*
D03*
X22283Y9370D02*
D03*
Y10197D02*
D03*
Y9803D02*
D03*
X22677D02*
D03*
X23071D02*
D03*
Y9370D02*
D03*
X22677D02*
D03*
X23071Y10197D02*
D03*
X22677D02*
D03*
X2205Y6890D02*
D03*
Y7244D02*
D03*
X2835Y6850D02*
D03*
Y7244D02*
D03*
X2520Y7047D02*
D03*
X5984Y2008D02*
D03*
Y2598D02*
D03*
Y3189D02*
D03*
Y9252D02*
D03*
X6299D02*
D03*
X21220Y4488D02*
D03*
X20945D02*
D03*
X20669D02*
D03*
X20394D02*
D03*
X11732Y6102D02*
D03*
X11417D02*
D03*
X11102Y8628D02*
D03*
X18543Y6575D02*
D03*
X17717Y7402D02*
D03*
X17992Y7126D02*
D03*
X17717D02*
D03*
X18268Y6850D02*
D03*
Y6575D02*
D03*
X17638Y8543D02*
D03*
X17913Y6457D02*
D03*
X18622Y5000D02*
D03*
X18425D02*
D03*
X18228D02*
D03*
X18898Y5472D02*
D03*
Y5748D02*
D03*
X18622D02*
D03*
X18346Y5472D02*
D03*
X18071Y5748D02*
D03*
Y5472D02*
D03*
X17795D02*
D03*
Y5748D02*
D03*
Y6024D02*
D03*
X17520Y5472D02*
D03*
Y5748D02*
D03*
Y6024D02*
D03*
Y6299D02*
D03*
X23189Y6772D02*
D03*
X22913D02*
D03*
Y7520D02*
D03*
X23189D02*
D03*
Y7165D02*
D03*
X22913D02*
D03*
X22244Y7520D02*
D03*
X21969D02*
D03*
Y6772D02*
D03*
X22244Y7165D02*
D03*
X21969D02*
D03*
X22244Y6772D02*
D03*
X2480Y2205D02*
D03*
X1220Y9764D02*
D03*
Y10079D02*
D03*
X1850Y10236D02*
D03*
X8937Y10945D02*
D03*
X9252D02*
D03*
X12205Y11378D02*
D03*
X21260Y5315D02*
D03*
X20433D02*
D03*
X20709D02*
D03*
X20984D02*
D03*
X15512Y7362D02*
D03*
X23228Y945D02*
D03*
X25118D02*
D03*
X14567Y6102D02*
D03*
X14882D02*
D03*
X12992D02*
D03*
X11654Y945D02*
D03*
X9055D02*
D03*
X6457D02*
D03*
X3150D02*
D03*
X1969D02*
D03*
X1260D02*
D03*
X3110Y7756D02*
D03*
X5984Y8937D02*
D03*
X5000Y5787D02*
D03*
X6299Y8937D02*
D03*
X5630Y6417D02*
D03*
X6575Y7677D02*
D03*
X5630Y6732D02*
D03*
X6575D02*
D03*
Y7047D02*
D03*
X6890Y7047D02*
D03*
X5630Y7677D02*
D03*
X7205Y5787D02*
D03*
Y6102D02*
D03*
X5315Y7677D02*
D03*
Y7992D02*
D03*
X7520Y7362D02*
D03*
X7205D02*
D03*
X10472Y7677D02*
D03*
Y7362D02*
D03*
X6575Y7992D02*
D03*
Y8307D02*
D03*
X10472Y6417D02*
D03*
X11417Y9567D02*
D03*
Y9882D02*
D03*
X12047Y7362D02*
D03*
X11732D02*
D03*
X12992Y5787D02*
D03*
Y5472D02*
D03*
X12362Y5787D02*
D03*
X14567Y7047D02*
D03*
X12992Y6417D02*
D03*
X13307Y7047D02*
D03*
X13937Y6102D02*
D03*
Y6732D02*
D03*
X13622Y6417D02*
D03*
X13937Y7362D02*
D03*
X13622Y7677D02*
D03*
X10472Y9567D02*
D03*
Y10197D02*
D03*
X12677Y4528D02*
D03*
X13307Y5157D02*
D03*
X13937D02*
D03*
X14882Y4843D02*
D03*
X15512Y5787D02*
D03*
X15827Y7362D02*
D03*
X15197Y7992D02*
D03*
X15827Y4528D02*
D03*
Y9567D02*
D03*
X14567Y9252D02*
D03*
Y9882D02*
D03*
X14252Y8307D02*
D03*
X13622D02*
D03*
X13307Y8622D02*
D03*
X12047Y7677D02*
D03*
X12362Y8307D02*
D03*
Y8622D02*
D03*
X12992Y8307D02*
D03*
X11732D02*
D03*
Y7047D02*
D03*
X12047Y9252D02*
D03*
Y9567D02*
D03*
X11732Y10197D02*
D03*
X10787Y6417D02*
D03*
X12362Y4843D02*
D03*
X14567Y7362D02*
D03*
X12992Y6732D02*
D03*
X13937Y6417D02*
D03*
X13622Y6102D02*
D03*
Y6732D02*
D03*
Y7047D02*
D03*
Y7362D02*
D03*
X13937Y7677D02*
D03*
X3425Y1772D02*
D03*
X3858Y945D02*
D03*
X3350Y3400D02*
D03*
X10472Y8622D02*
D03*
X10787Y9567D02*
D03*
X10157Y10197D02*
D03*
X12677Y4843D02*
D03*
X13307D02*
D03*
X13937Y5472D02*
D03*
X14882Y5157D02*
D03*
X15512Y7992D02*
D03*
X15827Y4843D02*
D03*
Y9252D02*
D03*
X14882D02*
D03*
X14252Y9882D02*
D03*
X13937Y8307D02*
D03*
X13622Y8622D02*
D03*
X13307Y8937D02*
D03*
X12047Y8622D02*
D03*
X12992D02*
D03*
X12677Y8307D02*
D03*
X11732Y8622D02*
D03*
X12362Y9567D02*
D03*
Y9252D02*
D03*
X12047Y10197D02*
D03*
Y5472D02*
D03*
X12677Y6732D02*
D03*
X12362D02*
D03*
X12047D02*
D03*
Y4843D02*
D03*
X11732Y5472D02*
D03*
X12362Y7362D02*
D03*
X11732Y6732D02*
D03*
X11102Y7992D02*
D03*
X11732Y7992D02*
D03*
X12047D02*
D03*
X12362Y6102D02*
D03*
X12047D02*
D03*
Y5787D02*
D03*
X11102Y7677D02*
D03*
X11732Y7677D02*
D03*
X5000Y8307D02*
D03*
X5315D02*
D03*
X4685Y10827D02*
D03*
Y10512D02*
D03*
Y10197D02*
D03*
Y9882D02*
D03*
X5315Y10197D02*
D03*
X5000D02*
D03*
X4685Y9567D02*
D03*
Y9252D02*
D03*
Y8622D02*
D03*
X5000D02*
D03*
X4685Y7047D02*
D03*
Y6732D02*
D03*
Y6417D02*
D03*
Y6102D02*
D03*
Y5787D02*
D03*
X7205Y10827D02*
D03*
X7520D02*
D03*
Y10512D02*
D03*
Y10197D02*
D03*
Y9882D02*
D03*
Y9567D02*
D03*
X7205Y9882D02*
D03*
Y9567D02*
D03*
X6890Y8622D02*
D03*
X7205D02*
D03*
Y8307D02*
D03*
Y7992D02*
D03*
X7520Y6732D02*
D03*
Y6417D02*
D03*
Y6102D02*
D03*
Y5787D02*
D03*
X7205Y7677D02*
D03*
X5630Y7362D02*
D03*
Y5787D02*
D03*
Y7992D02*
D03*
X7205Y6732D02*
D03*
Y6417D02*
D03*
X5630Y6102D02*
D03*
X6575D02*
D03*
X5630Y7047D02*
D03*
X11102Y8307D02*
D03*
X10157Y8622D02*
D03*
X10787Y9882D02*
D03*
X7205Y7047D02*
D03*
X4016Y5157D02*
D03*
X6299D02*
D03*
X2244Y8504D02*
D03*
X12677Y7992D02*
D03*
X13307Y8307D02*
D03*
Y9252D02*
D03*
X25394Y7953D02*
D03*
Y7756D02*
D03*
X31024Y945D02*
D03*
X30315D02*
D03*
X29134D02*
D03*
X28425D02*
D03*
X25984Y2165D02*
D03*
X15512Y5472D02*
D03*
X13307Y6102D02*
D03*
X18268Y8543D02*
D03*
X18543D02*
D03*
X18268Y8268D02*
D03*
X18543D02*
D03*
X18819D02*
D03*
Y7992D02*
D03*
X18543D02*
D03*
X18268D02*
D03*
X18543Y7717D02*
D03*
X18819D02*
D03*
D59*
X24528Y9606D02*
D03*
X16220Y3189D02*
D03*
X16457D02*
D03*
X20000Y2362D02*
D03*
X18425D02*
D03*
X19055D02*
D03*
X16693Y2323D02*
D03*
X19370Y2362D02*
D03*
X18740D02*
D03*
X18110D02*
D03*
X17795D02*
D03*
X17008Y2323D02*
D03*
X16220Y2362D02*
D03*
X14961Y1693D02*
D03*
Y1457D02*
D03*
X25591Y2520D02*
D03*
X25906D02*
D03*
X25157D02*
D03*
X24882D02*
D03*
X24252D02*
D03*
X23622D02*
D03*
X22992D02*
D03*
X22362D02*
D03*
X21732D02*
D03*
X21102D02*
D03*
X20472D02*
D03*
X27953Y2598D02*
D03*
X27402D02*
D03*
X27677D02*
D03*
X26378Y4094D02*
D03*
X26142Y4213D02*
D03*
X23819Y3307D02*
D03*
X23307Y2362D02*
D03*
X23425Y3307D02*
D03*
X22992Y3425D02*
D03*
X20669Y3307D02*
D03*
X21299D02*
D03*
X20906D02*
D03*
X21929D02*
D03*
X21535D02*
D03*
X22559D02*
D03*
X22165D02*
D03*
X23189D02*
D03*
X22795D02*
D03*
X24449D02*
D03*
X24055D02*
D03*
X24685D02*
D03*
X20787Y2362D02*
D03*
X13032Y2047D02*
D03*
X12717Y1969D02*
D03*
X12520Y1772D02*
D03*
X9843Y9882D02*
D03*
X11732Y5787D02*
D03*
X19528Y4764D02*
D03*
Y4528D02*
D03*
X11102Y9252D02*
D03*
X22480Y9055D02*
D03*
X22913D02*
D03*
X22126Y8071D02*
D03*
X23228Y10984D02*
D03*
Y11299D02*
D03*
X22638Y10591D02*
D03*
X24016Y11339D02*
D03*
X26063Y11417D02*
D03*
X19409Y8622D02*
D03*
X19803D02*
D03*
X20118D02*
D03*
X20433D02*
D03*
X19055D02*
D03*
X17283Y1969D02*
D03*
X25669Y3661D02*
D03*
X28661Y3465D02*
D03*
X16457Y8622D02*
D03*
X15512Y8937D02*
D03*
X15827D02*
D03*
X14567Y8307D02*
D03*
X14882Y7992D02*
D03*
X15197Y2165D02*
D03*
X15787Y2008D02*
D03*
X24567Y2362D02*
D03*
X14567Y7992D02*
D03*
X14882Y8307D02*
D03*
Y7677D02*
D03*
X15197Y8307D02*
D03*
X15512D02*
D03*
X15827D02*
D03*
X15197Y7677D02*
D03*
X23937Y2362D02*
D03*
X16457Y7677D02*
D03*
X16142Y7992D02*
D03*
X16457Y7047D02*
D03*
X14252Y7992D02*
D03*
X15827Y7677D02*
D03*
Y7992D02*
D03*
X15512Y7677D02*
D03*
X13937Y8622D02*
D03*
X14567Y7677D02*
D03*
X15197Y7362D02*
D03*
X13937Y7992D02*
D03*
X14252Y7677D02*
D03*
X22047Y2362D02*
D03*
X15827Y7047D02*
D03*
X14882Y7362D02*
D03*
Y7047D02*
D03*
X27047Y2441D02*
D03*
X15827Y8622D02*
D03*
X14882D02*
D03*
X15197D02*
D03*
X14567D02*
D03*
X15197Y9252D02*
D03*
X15512D02*
D03*
Y8622D02*
D03*
X26457Y1339D02*
D03*
X26732Y1535D02*
D03*
X26969Y1299D02*
D03*
X27598Y1850D02*
D03*
X27520Y4094D02*
D03*
X28465Y3031D02*
D03*
Y3307D02*
D03*
X28504Y1732D02*
D03*
X31299Y5709D02*
D03*
X30709Y6063D02*
D03*
Y5709D02*
D03*
X11732Y9567D02*
D03*
X12047Y8937D02*
D03*
X12677Y9567D02*
D03*
Y9252D02*
D03*
X29843Y3465D02*
D03*
X30039Y3937D02*
D03*
X29488Y3031D02*
D03*
X29882Y4094D02*
D03*
X29016Y3583D02*
D03*
X13937Y9567D02*
D03*
Y10197D02*
D03*
X14252D02*
D03*
X14567Y10512D02*
D03*
X30039Y3031D02*
D03*
X20748Y9528D02*
D03*
X15197Y9882D02*
D03*
Y9567D02*
D03*
X14567Y10197D02*
D03*
X13622Y9882D02*
D03*
Y10197D02*
D03*
X14252Y9567D02*
D03*
X14882Y8937D02*
D03*
X15197D02*
D03*
X15827Y9882D02*
D03*
X18110Y9567D02*
D03*
X14882D02*
D03*
X20394Y9528D02*
D03*
X14567Y9567D02*
D03*
X13937Y9882D02*
D03*
X12047D02*
D03*
X13543Y2559D02*
D03*
X13740Y2756D02*
D03*
X14488Y1693D02*
D03*
Y1299D02*
D03*
X14252Y1693D02*
D03*
X13386D02*
D03*
X15827Y5157D02*
D03*
X15512D02*
D03*
X15827Y6102D02*
D03*
Y6417D02*
D03*
X15512Y6102D02*
D03*
X15197Y6417D02*
D03*
X14567Y5157D02*
D03*
X11693Y1339D02*
D03*
X11496Y1732D02*
D03*
X11890Y1850D02*
D03*
X15512Y4213D02*
D03*
X15197D02*
D03*
X15512Y4843D02*
D03*
Y4528D02*
D03*
X15197D02*
D03*
Y4843D02*
D03*
X14567Y4528D02*
D03*
Y4843D02*
D03*
X14882Y5787D02*
D03*
X14252Y4843D02*
D03*
Y4528D02*
D03*
X13937Y3740D02*
D03*
X13622Y5157D02*
D03*
Y3898D02*
D03*
Y4213D02*
D03*
X12992Y4843D02*
D03*
X12992Y5157D02*
D03*
X8937Y2126D02*
D03*
X12992Y4213D02*
D03*
X13307Y4528D02*
D03*
X12992D02*
D03*
X12362D02*
D03*
X12047D02*
D03*
X12677Y5472D02*
D03*
X11417Y4843D02*
D03*
Y4528D02*
D03*
X12362Y5157D02*
D03*
X7874Y2717D02*
D03*
X7402D02*
D03*
X6929D02*
D03*
X8110Y3031D02*
D03*
X7638D02*
D03*
X7165D02*
D03*
X6693D02*
D03*
X14252Y5472D02*
D03*
X13937Y5787D02*
D03*
Y4843D02*
D03*
X13622D02*
D03*
Y5472D02*
D03*
X16575Y10197D02*
D03*
X25276Y6142D02*
D03*
X14567Y8937D02*
D03*
X19724Y10118D02*
D03*
X20118Y10512D02*
D03*
X19724D02*
D03*
X14252Y6102D02*
D03*
X13622Y4528D02*
D03*
Y5787D02*
D03*
X13307D02*
D03*
X12677D02*
D03*
X8465Y2126D02*
D03*
X8701Y1575D02*
D03*
X11417Y5472D02*
D03*
X11102Y5157D02*
D03*
X9173Y1260D02*
D03*
X9882D02*
D03*
X9646Y1575D02*
D03*
Y1850D02*
D03*
X10354Y1575D02*
D03*
Y1850D02*
D03*
X10591Y1260D02*
D03*
X11063Y1850D02*
D03*
Y1575D02*
D03*
X11299Y1260D02*
D03*
X8701D02*
D03*
X8465Y1575D02*
D03*
Y1850D02*
D03*
X7992Y1260D02*
D03*
X7756Y1850D02*
D03*
Y1575D02*
D03*
X7047Y1850D02*
D03*
Y1575D02*
D03*
X7283Y1260D02*
D03*
X6575D02*
D03*
X10787Y5157D02*
D03*
X10157Y4528D02*
D03*
X11102Y4213D02*
D03*
X11417Y5157D02*
D03*
X13307Y6417D02*
D03*
X15197Y10512D02*
D03*
X13307Y10197D02*
D03*
X10157Y5157D02*
D03*
X4331Y7520D02*
D03*
Y7205D02*
D03*
Y6890D02*
D03*
Y6575D02*
D03*
Y6260D02*
D03*
Y5945D02*
D03*
X11102Y10197D02*
D03*
X6575Y9567D02*
D03*
X5315Y6732D02*
D03*
X10787Y7362D02*
D03*
Y7047D02*
D03*
X10472D02*
D03*
X10157Y6417D02*
D03*
X10787Y7677D02*
D03*
X11102Y6732D02*
D03*
X8465Y7677D02*
D03*
X5315Y6102D02*
D03*
X10787Y7992D02*
D03*
X10157Y7362D02*
D03*
X9843Y7047D02*
D03*
X5315Y6417D02*
D03*
X11102Y7362D02*
D03*
X5315Y7047D02*
D03*
X11417Y6417D02*
D03*
X8465Y5787D02*
D03*
X10472D02*
D03*
X11102D02*
D03*
X9843Y6732D02*
D03*
X10157D02*
D03*
X13307Y5472D02*
D03*
X15512Y6732D02*
D03*
X12047Y8307D02*
D03*
X12362Y8937D02*
D03*
X11732D02*
D03*
X15669Y1535D02*
D03*
X16142Y1339D02*
D03*
X15197Y1299D02*
D03*
X12992Y8937D02*
D03*
X12677Y6417D02*
D03*
X12362D02*
D03*
X12677Y6102D02*
D03*
X12047Y6417D02*
D03*
X12362Y7677D02*
D03*
X12677Y7362D02*
D03*
X11732Y6417D02*
D03*
X5000Y9882D02*
D03*
Y9567D02*
D03*
X7205Y9252D02*
D03*
X7520Y8937D02*
D03*
Y8622D02*
D03*
X10472Y6732D02*
D03*
X11102Y7047D02*
D03*
X10157D02*
D03*
X10787Y9252D02*
D03*
X7835Y5787D02*
D03*
X11102Y6417D02*
D03*
X5315Y7362D02*
D03*
X5000Y7677D02*
D03*
X9528Y6732D02*
D03*
X11102Y6102D02*
D03*
X10787Y6732D02*
D03*
X8150Y7362D02*
D03*
X10787Y8307D02*
D03*
Y8937D02*
D03*
X11417Y8307D02*
D03*
Y7992D02*
D03*
Y7677D02*
D03*
X7205Y8937D02*
D03*
X10787Y8622D02*
D03*
X5315Y8937D02*
D03*
X5630D02*
D03*
X10157Y8307D02*
D03*
X10472D02*
D03*
Y7992D02*
D03*
X10157D02*
D03*
X5000Y8937D02*
D03*
X5630Y8307D02*
D03*
X9843Y7992D02*
D03*
Y8307D02*
D03*
X6575Y8622D02*
D03*
X5630Y9252D02*
D03*
X10157D02*
D03*
X5315Y8622D02*
D03*
X6890Y9252D02*
D03*
X9843Y8937D02*
D03*
X9528D02*
D03*
X6575D02*
D03*
X10157Y8937D02*
D03*
X10472Y8937D02*
D03*
X11102D02*
D03*
X6890Y8307D02*
D03*
X5630Y9882D02*
D03*
X9843Y10197D02*
D03*
X10157Y9882D02*
D03*
Y9567D02*
D03*
X10472Y9252D02*
D03*
X6890Y10827D02*
D03*
X10787Y10197D02*
D03*
X5630Y10512D02*
D03*
X10157D02*
D03*
X6575Y10197D02*
D03*
Y9882D02*
D03*
X6890D02*
D03*
X5630Y10197D02*
D03*
X9843Y9567D02*
D03*
X5315Y10512D02*
D03*
X10787D02*
D03*
X5315Y9882D02*
D03*
X9843Y9252D02*
D03*
X7205Y10197D02*
D03*
X7835Y6417D02*
D03*
X9843Y7362D02*
D03*
X4055Y4528D02*
D03*
X4370D02*
D03*
X2992Y5000D02*
D03*
X5551Y4173D02*
D03*
X12362Y5472D02*
D03*
X11732Y5157D02*
D03*
Y4843D02*
D03*
X12677Y5157D02*
D03*
X2598Y4528D02*
D03*
X3268Y4803D02*
D03*
X2323Y4528D02*
D03*
X12362Y4213D02*
D03*
X12677D02*
D03*
X11732Y4528D02*
D03*
X11417Y4213D02*
D03*
X11102Y4843D02*
D03*
X7874Y4685D02*
D03*
X12047Y5157D02*
D03*
X5906Y4685D02*
D03*
X3701Y5157D02*
D03*
X11732Y9252D02*
D03*
X11260Y10787D02*
D03*
X1339Y9449D02*
D03*
X12362Y10197D02*
D03*
X11417Y9252D02*
D03*
X11732Y9882D02*
D03*
X12047Y10512D02*
D03*
X11417D02*
D03*
X11732D02*
D03*
X15197Y10197D02*
D03*
X15512Y9882D02*
D03*
X12992Y9567D02*
D03*
X25709Y7520D02*
D03*
X25591Y7323D02*
D03*
X25709Y6732D02*
D03*
X25827Y6535D02*
D03*
X25591Y6929D02*
D03*
X26220Y6260D02*
D03*
X14252Y9252D02*
D03*
Y8937D02*
D03*
X27244Y5945D02*
D03*
X27047Y5787D02*
D03*
X26693D02*
D03*
X26496Y5945D02*
D03*
X13937Y9252D02*
D03*
X12362Y9882D02*
D03*
X11102D02*
D03*
X12992Y9252D02*
D03*
X14882Y10197D02*
D03*
X15512Y10512D02*
D03*
X25472Y7126D02*
D03*
X14882Y9882D02*
D03*
X9291Y3031D02*
D03*
X9764D02*
D03*
X10236D02*
D03*
X10709D02*
D03*
X9528Y2717D02*
D03*
X10000D02*
D03*
X13307Y4213D02*
D03*
X14252D02*
D03*
X27675Y3939D02*
D03*
X28858Y3937D02*
D03*
X28701Y4094D02*
D03*
X28346Y6575D02*
D03*
X28543Y6732D02*
D03*
X28346Y7835D02*
D03*
X11063Y2126D02*
D03*
X11299Y1575D02*
D03*
X14252Y5787D02*
D03*
X14567Y5472D02*
D03*
X14882D02*
D03*
X13937Y4213D02*
D03*
Y4528D02*
D03*
X14252Y5157D02*
D03*
X14567Y4213D02*
D03*
X14882D02*
D03*
X10472Y2717D02*
D03*
X14252Y3898D02*
D03*
X26260Y8386D02*
D03*
X26181Y8110D02*
D03*
X25787D02*
D03*
X27638Y5827D02*
D03*
X28307Y5551D02*
D03*
Y5827D02*
D03*
X28976Y5709D02*
D03*
X11417Y10197D02*
D03*
X12992Y9882D02*
D03*
X13307Y9567D02*
D03*
X23661Y8504D02*
D03*
Y8189D02*
D03*
X30354Y10344D02*
D03*
X29370D02*
D03*
X28386D02*
D03*
Y8583D02*
D03*
X28583Y8425D02*
D03*
X28502Y7679D02*
D03*
X28740Y7362D02*
D03*
X28896Y7207D02*
D03*
X12992Y10197D02*
D03*
X30315Y1299D02*
D03*
X30079D02*
D03*
X12677Y8937D02*
D03*
X28898Y1535D02*
D03*
X29449Y1299D02*
D03*
X29213D02*
D03*
X28976D02*
D03*
X25591Y1339D02*
D03*
X26063Y1575D02*
D03*
X15827Y5472D02*
D03*
X15197Y5787D02*
D03*
Y6102D02*
D03*
X14567Y5787D02*
D03*
X15512Y6417D02*
D03*
X14252D02*
D03*
X14567D02*
D03*
X14882D02*
D03*
X15827Y5787D02*
D03*
X16142Y6102D02*
D03*
X14567Y6732D02*
D03*
X14882D02*
D03*
X20315Y2362D02*
D03*
X14252Y6732D02*
D03*
Y7047D02*
D03*
X15197Y6732D02*
D03*
Y7047D02*
D03*
X15827Y6732D02*
D03*
X13937Y7047D02*
D03*
X14252Y7362D02*
D03*
X21417Y2362D02*
D03*
X14252Y8622D02*
D03*
X26260Y1496D02*
D03*
X25748Y3898D02*
D03*
X16693Y8307D02*
D03*
X25236Y4331D02*
D03*
X20984Y9528D02*
D03*
X20118Y6732D02*
D03*
X20551Y7717D02*
D03*
X23937Y4606D02*
D03*
X13307Y6732D02*
D03*
X11417D02*
D03*
Y7362D02*
D03*
Y7047D02*
D03*
X6496Y2486D02*
D03*
X13622Y9567D02*
D03*
X24281Y7677D02*
D03*
X24173Y7441D02*
D03*
X12992Y7992D02*
D03*
X12677Y7677D02*
D03*
X13622Y7992D02*
D03*
X12992Y7677D02*
D03*
X13307Y7992D02*
D03*
Y7677D02*
D03*
Y7362D02*
D03*
X12992Y7047D02*
D03*
X12047D02*
D03*
X12362D02*
D03*
X12677D02*
D03*
X12992Y7362D02*
D03*
X12362Y7992D02*
D03*
X30551Y5433D02*
D03*
X13661Y10512D02*
D03*
X12283Y1969D02*
D03*
X26534Y3939D02*
D03*
X22677Y2362D02*
D03*
X15394D02*
D03*
D60*
X23543Y4449D02*
D03*
X23465Y11339D02*
D03*
D69*
X26673Y9065D02*
D03*
Y9459D02*
D03*
X27205D02*
D03*
Y9065D02*
D03*
D70*
X20787Y10502D02*
D03*
Y10246D02*
D03*
Y9990D02*
D03*
Y9734D02*
D03*
X18583Y10502D02*
D03*
Y10246D02*
D03*
Y9990D02*
D03*
Y9734D02*
D03*
D71*
X27106Y7205D02*
D03*
D72*
X26171Y7913D02*
D03*
Y7756D02*
D03*
Y7598D02*
D03*
Y7441D02*
D03*
Y7283D02*
D03*
Y7126D02*
D03*
Y6969D02*
D03*
Y6811D02*
D03*
Y6654D02*
D03*
Y6496D02*
D03*
X28041D02*
D03*
Y6654D02*
D03*
Y6811D02*
D03*
Y6969D02*
D03*
Y7126D02*
D03*
Y7283D02*
D03*
Y7441D02*
D03*
Y7598D02*
D03*
Y7756D02*
D03*
Y7913D02*
D03*
D73*
X26398Y6270D02*
D03*
X26555D02*
D03*
X26713D02*
D03*
X26870D02*
D03*
X27028D02*
D03*
X27185D02*
D03*
X27343D02*
D03*
X27500D02*
D03*
X27657D02*
D03*
X27815D02*
D03*
Y8140D02*
D03*
X27657D02*
D03*
X27500D02*
D03*
X27343D02*
D03*
X27185D02*
D03*
X27028D02*
D03*
X26870D02*
D03*
X26713D02*
D03*
X26555D02*
D03*
X26398D02*
D03*
D74*
X2520Y7047D02*
D03*
D75*
X2126Y7628D02*
D03*
X2323D02*
D03*
X2520D02*
D03*
X2717D02*
D03*
X2913D02*
D03*
Y6467D02*
D03*
X2717D02*
D03*
X2520D02*
D03*
X2323D02*
D03*
X2126D02*
D03*
D76*
X10876Y11486D02*
D03*
X10226D02*
D03*
Y10876D02*
D03*
X10876D02*
D03*
D77*
X24510Y10413D02*
D03*
Y11161D02*
D03*
X25411Y10787D02*
D03*
D78*
X1910Y7145D02*
D03*
X1910Y6949D02*
D03*
X3130Y6949D02*
D03*
X3130Y7145D02*
D03*
D79*
X15335Y11358D02*
D03*
D80*
X22677Y9803D02*
D03*
%TF.MD5,b8fe560347a8245e2b7f115f3e936372*%
M02*
