G04 Layer_Color=32896*
%FSLAX24Y24*%
%MOIN*%
%TF.FileFunction,Legend,Bot*%
%TF.Part,Single*%
G01*
G75*
%TA.AperFunction,NonConductor*%
%ADD53C,0.0100*%
%ADD85C,0.0118*%
%ADD86C,0.0236*%
%ADD87C,0.0098*%
%ADD88C,0.0039*%
%ADD89C,0.0079*%
%ADD90C,0.0040*%
%ADD91C,0.0030*%
D53*
X-30400Y-600D02*
Y-1200D01*
X-30100D01*
X-30000Y-1100D01*
Y-1000D01*
X-30100Y-900D01*
X-30400D01*
X-30100D01*
X-30000Y-800D01*
Y-700D01*
X-30100Y-600D01*
X-30400D01*
X-29700Y-1200D02*
X-29500D01*
X-29400Y-1100D01*
Y-900D01*
X-29500Y-800D01*
X-29700D01*
X-29800Y-900D01*
Y-1100D01*
X-29700Y-1200D01*
X-29100Y-700D02*
Y-800D01*
X-29200D01*
X-29000D01*
X-29100D01*
Y-1100D01*
X-29000Y-1200D01*
X-28601Y-700D02*
Y-800D01*
X-28701D01*
X-28501D01*
X-28601D01*
Y-1100D01*
X-28501Y-1200D01*
X-28101D02*
X-27901D01*
X-27801Y-1100D01*
Y-900D01*
X-27901Y-800D01*
X-28101D01*
X-28201Y-900D01*
Y-1100D01*
X-28101Y-1200D01*
X-27601D02*
Y-800D01*
X-27501D01*
X-27401Y-900D01*
Y-1200D01*
Y-900D01*
X-27301Y-800D01*
X-27201Y-900D01*
Y-1200D01*
X-26101Y-600D02*
X-26301D01*
X-26401Y-700D01*
Y-1100D01*
X-26301Y-1200D01*
X-26101D01*
X-26001Y-1100D01*
Y-700D01*
X-26101Y-600D01*
X-25801Y-800D02*
X-25602Y-1200D01*
X-25402Y-800D01*
X-24902Y-1200D02*
X-25102D01*
X-25202Y-1100D01*
Y-900D01*
X-25102Y-800D01*
X-24902D01*
X-24802Y-900D01*
Y-1000D01*
X-25202D01*
X-24602Y-800D02*
Y-1200D01*
Y-1000D01*
X-24502Y-900D01*
X-24402Y-800D01*
X-24302D01*
X-24002Y-1200D02*
X-23802D01*
X-23902D01*
Y-600D01*
X-24002D01*
X-23402Y-800D02*
X-23202D01*
X-23102Y-900D01*
Y-1200D01*
X-23402D01*
X-23502Y-1100D01*
X-23402Y-1000D01*
X-23102D01*
X-22902Y-800D02*
Y-1100D01*
X-22802Y-1200D01*
X-22503D01*
Y-1300D01*
X-22603Y-1400D01*
X-22702D01*
X-22503Y-1200D02*
Y-800D01*
X-21503Y-1200D02*
X-21703Y-1000D01*
Y-800D01*
X-21503Y-600D01*
X-21203D02*
X-21003D01*
X-21103D01*
Y-1200D01*
X-21203D01*
X-21003D01*
X-20703D02*
Y-800D01*
X-20403D01*
X-20303Y-900D01*
Y-1200D01*
X-20103D02*
Y-600D01*
Y-1000D02*
X-19803Y-800D01*
X-20103Y-1000D02*
X-19803Y-1200D01*
X-19504D02*
X-19304Y-1000D01*
Y-800D01*
X-19504Y-600D01*
D85*
X26388Y8986D02*
G03*
X26388Y8986I-10J0D01*
G01*
D86*
X19291Y9852D02*
G03*
X19291Y9852I-118J0D01*
G01*
D87*
X18671Y9498D02*
G03*
X18671Y9498I-49J0D01*
G01*
X26152Y8524D02*
G03*
X26152Y8524I-49J0D01*
G01*
X9931Y11486D02*
G03*
X9931Y11486I-49J0D01*
G01*
X24560Y10137D02*
G03*
X24560Y10137I-49J0D01*
G01*
X17943Y10377D02*
G03*
X17943Y10377I-49J0D01*
G01*
X4206Y2278D02*
G03*
X4206Y2278I-49J0D01*
G01*
X20739Y6794D02*
G03*
X20739Y6794I-49J0D01*
G01*
D88*
X1933Y7874D02*
G03*
X1933Y7874I-20J0D01*
G01*
X26496Y8888D02*
Y9626D01*
X27382D01*
Y8888D02*
Y9626D01*
X26496Y8888D02*
X27382D01*
X9173Y1609D02*
Y1890D01*
X11535Y1609D02*
Y1890D01*
X8937Y1609D02*
Y1890D01*
X6575Y1609D02*
Y1890D01*
X50Y1605D02*
X32230D01*
X30433D02*
Y1890D01*
X31142Y1614D02*
Y1890D01*
X27598Y1605D02*
Y1880D01*
X28307Y1614D02*
Y1890D01*
X12244Y1609D02*
Y1890D01*
X15315Y1609D02*
Y1890D01*
X8250Y5500D02*
Y5780D01*
X10612Y5500D02*
Y5780D01*
X8250Y5500D02*
X10612D01*
Y5224D02*
Y5505D01*
X8250Y5224D02*
Y5505D01*
D89*
X18799Y10728D02*
X20571D01*
X18799Y9508D02*
X20571D01*
X26043Y8268D02*
X26201D01*
X26043Y8110D02*
Y8268D01*
Y6142D02*
Y6299D01*
Y6142D02*
X26201D01*
X28012D02*
X28169D01*
Y6299D01*
X28012Y8268D02*
X28169D01*
Y8110D02*
Y8268D01*
X25394Y8189D02*
Y8268D01*
X24685Y8189D02*
Y8268D01*
X3189Y7500D02*
Y7717D01*
Y6378D02*
Y6594D01*
X1850Y6378D02*
Y6594D01*
Y7500D02*
Y7717D01*
X1913D01*
X3126D02*
X3189D01*
X3126Y6378D02*
X3189D01*
X1850D02*
X1913D01*
X24661Y10637D02*
Y10937D01*
Y10187D02*
X25261D01*
Y10587D01*
Y10987D02*
Y11387D01*
X24661D02*
X25261D01*
X16644Y10527D02*
Y11127D01*
X17044D01*
X17444D02*
X17844D01*
Y10527D02*
Y11127D01*
X17094Y10527D02*
X17394D01*
X4216Y4000D02*
Y4266D01*
X3950D02*
X4216D01*
X2484Y4000D02*
Y4266D01*
X2750D01*
X2484Y2534D02*
Y2800D01*
Y2534D02*
X2750D01*
X4216D02*
Y2800D01*
X3950Y2534D02*
X4216D01*
X19889Y6944D02*
X20189D01*
X20639D02*
Y7544D01*
X20239D02*
X20639D01*
X19439D02*
X19839D01*
X19439Y6944D02*
Y7544D01*
X17933Y8622D02*
X18051D01*
X17933Y7677D02*
X18051D01*
X22500Y7638D02*
X22618D01*
X22500Y6693D02*
X22618D01*
X17953Y6713D02*
Y6831D01*
X17008Y6713D02*
Y6831D01*
X18268Y6083D02*
Y6201D01*
X19213Y6083D02*
Y6201D01*
X17008Y5069D02*
Y5187D01*
X17953Y5069D02*
Y5187D01*
D90*
X32053Y11399D02*
Y11579D01*
X31993Y11519D01*
X31933Y11579D01*
Y11399D01*
X31873D02*
Y11519D01*
X31813Y11579D01*
X31753Y11519D01*
Y11399D01*
Y11489D01*
X31873D01*
X31693Y11399D02*
Y11579D01*
X31603D01*
X31573Y11549D01*
Y11489D01*
X31603Y11459D01*
X31693D01*
X31633D02*
X31573Y11399D01*
X31393Y11549D02*
X31423Y11579D01*
X31483D01*
X31513Y11549D01*
Y11429D01*
X31483Y11399D01*
X31423D01*
X31393Y11429D01*
X31213Y11579D02*
X31333D01*
Y11399D01*
X31213D01*
X31333Y11489D02*
X31273D01*
X31153Y11579D02*
Y11399D01*
X31033D01*
X30883Y11579D02*
X30943D01*
X30973Y11549D01*
Y11429D01*
X30943Y11399D01*
X30883D01*
X30853Y11429D01*
Y11549D01*
X30883Y11579D01*
X30613D02*
Y11459D01*
X30553Y11399D01*
X30493Y11459D01*
Y11579D01*
X30433D02*
X30373D01*
X30403D01*
Y11399D01*
X30433D01*
X30373D01*
X30163Y11549D02*
X30193Y11579D01*
X30253D01*
X30283Y11549D01*
Y11429D01*
X30253Y11399D01*
X30193D01*
X30163Y11429D01*
X29983Y11579D02*
X30103D01*
Y11399D01*
X29983D01*
X30103Y11489D02*
X30043D01*
X29923Y11399D02*
Y11579D01*
X29803Y11399D01*
Y11579D01*
X29743D02*
X29623D01*
X29683D01*
Y11399D01*
X29443Y11579D02*
X29563D01*
Y11399D01*
X29443D01*
X29563Y11489D02*
X29503D01*
X31858Y11267D02*
X31738D01*
X31798D01*
Y11087D01*
X31678Y11267D02*
Y11087D01*
Y11177D01*
X31558D01*
Y11267D01*
Y11087D01*
X31408Y11267D02*
X31468D01*
X31498Y11237D01*
Y11117D01*
X31468Y11087D01*
X31408D01*
X31378Y11117D01*
Y11237D01*
X31408Y11267D01*
X31318Y11087D02*
Y11267D01*
X31258Y11207D01*
X31198Y11267D01*
Y11087D01*
X31138D02*
Y11207D01*
X31078Y11267D01*
X31018Y11207D01*
Y11087D01*
Y11177D01*
X31138D01*
X30838Y11237D02*
X30868Y11267D01*
X30928D01*
X30958Y11237D01*
Y11207D01*
X30928Y11177D01*
X30868D01*
X30838Y11147D01*
Y11117D01*
X30868Y11087D01*
X30928D01*
X30958Y11117D01*
X30478Y11237D02*
X30508Y11267D01*
X30568D01*
X30598Y11237D01*
Y11117D01*
X30568Y11087D01*
X30508D01*
X30478Y11117D01*
Y11177D01*
X30538D01*
X30328Y11267D02*
X30388D01*
X30418Y11237D01*
Y11117D01*
X30388Y11087D01*
X30328D01*
X30298Y11117D01*
Y11237D01*
X30328Y11267D01*
X30238Y11087D02*
Y11267D01*
X30148D01*
X30118Y11237D01*
Y11177D01*
X30148Y11147D01*
X30238D01*
X30178D02*
X30118Y11087D01*
X29938Y11237D02*
X29968Y11267D01*
X30028D01*
X30058Y11237D01*
Y11207D01*
X30028Y11177D01*
X29968D01*
X29938Y11147D01*
Y11117D01*
X29968Y11087D01*
X30028D01*
X30058Y11117D01*
X29878Y11267D02*
Y11087D01*
Y11147D01*
X29758Y11267D01*
X29848Y11177D01*
X29758Y11087D01*
X29698Y11267D02*
X29638D01*
X29668D01*
Y11087D01*
X29698D01*
X29638D01*
X31843Y10955D02*
X31903D01*
X31873D01*
Y10805D01*
X31903Y10775D01*
X31933D01*
X31963Y10805D01*
X31663Y10955D02*
X31783D01*
Y10775D01*
X31663D01*
X31783Y10865D02*
X31723D01*
X31483Y10925D02*
X31513Y10955D01*
X31573D01*
X31603Y10925D01*
Y10895D01*
X31573Y10865D01*
X31513D01*
X31483Y10835D01*
Y10805D01*
X31513Y10775D01*
X31573D01*
X31603Y10805D01*
X31423Y10775D02*
Y10955D01*
X31333D01*
X31303Y10925D01*
Y10865D01*
X31333Y10835D01*
X31423D01*
X31363D02*
X31303Y10775D01*
X31243D02*
Y10895D01*
X31183Y10955D01*
X31123Y10895D01*
Y10775D01*
Y10865D01*
X31243D01*
X30883Y10955D02*
X30763D01*
X30823D01*
Y10775D01*
X30703Y10955D02*
X30643D01*
X30673D01*
Y10775D01*
X30703D01*
X30643D01*
X30553Y10955D02*
Y10775D01*
Y10835D01*
X30433Y10955D01*
X30523Y10865D01*
X30433Y10775D01*
X30373D02*
Y10895D01*
X30313Y10955D01*
X30253Y10895D01*
Y10775D01*
Y10865D01*
X30373D01*
X30193Y10955D02*
Y10775D01*
X30073D01*
X29893Y10925D02*
X29923Y10955D01*
X29983D01*
X30013Y10925D01*
Y10895D01*
X29983Y10865D01*
X29923D01*
X29893Y10835D01*
Y10805D01*
X29923Y10775D01*
X29983D01*
X30013Y10805D01*
X29833Y10955D02*
Y10775D01*
Y10835D01*
X29713Y10955D01*
X29803Y10865D01*
X29713Y10775D01*
X29653Y10955D02*
Y10925D01*
X29593Y10865D01*
X29533Y10925D01*
Y10955D01*
X29593Y10865D02*
Y10775D01*
X24016Y4134D02*
Y4314D01*
X23926D01*
X23896Y4284D01*
Y4224D01*
X23926Y4194D01*
X24016D01*
X23716Y4284D02*
X23746Y4314D01*
X23806D01*
X23836Y4284D01*
Y4164D01*
X23806Y4134D01*
X23746D01*
X23716Y4164D01*
Y4224D01*
X23776D01*
X23656Y4134D02*
X23596D01*
X23626D01*
Y4314D01*
X23656Y4284D01*
X23506Y4134D02*
Y4164D01*
X23476D01*
Y4134D01*
X23506D01*
X23356Y4284D02*
X23326Y4314D01*
X23266D01*
X23236Y4284D01*
Y4164D01*
X23266Y4134D01*
X23326D01*
X23356Y4164D01*
Y4284D01*
X23176Y4314D02*
Y4194D01*
X23116Y4134D01*
X23056Y4194D01*
Y4314D01*
D91*
X27047Y9845D02*
X26941Y9685D01*
Y9845D02*
X27047Y9685D01*
X26887D02*
X26834D01*
X26861D01*
Y9845D01*
X26887Y9818D01*
X20551Y10987D02*
Y10853D01*
X20525Y10827D01*
X20471D01*
X20445Y10853D01*
Y10987D01*
X20391Y10827D02*
X20338D01*
X20365D01*
Y10987D01*
X20391Y10960D01*
X20151Y10827D02*
X20258D01*
X20151Y10933D01*
Y10960D01*
X20178Y10987D01*
X20231D01*
X20258Y10960D01*
X7913Y7598D02*
Y7758D01*
X7833D01*
X7807Y7732D01*
Y7678D01*
X7833Y7652D01*
X7913D01*
X7860D02*
X7807Y7598D01*
X7753D02*
X7700D01*
X7727D01*
Y7758D01*
X7753Y7732D01*
X7620D02*
X7593Y7758D01*
X7540D01*
X7514Y7732D01*
Y7705D01*
X7540Y7678D01*
X7514Y7652D01*
Y7625D01*
X7540Y7598D01*
X7593D01*
X7620Y7625D01*
Y7652D01*
X7593Y7678D01*
X7620Y7705D01*
Y7732D01*
X7593Y7678D02*
X7540D01*
X7460Y7598D02*
X7407D01*
X7434D01*
Y7758D01*
X7460Y7732D01*
X26654Y8585D02*
Y8452D01*
X26627Y8425D01*
X26574D01*
X26547Y8452D01*
Y8585D01*
X26494Y8425D02*
X26440D01*
X26467D01*
Y8585D01*
X26494Y8558D01*
X26360Y8425D02*
X26307D01*
X26334D01*
Y8585D01*
X26360Y8558D01*
X24451Y8583D02*
X24291D01*
Y8689D01*
X24451Y8743D02*
Y8849D01*
X24425D01*
X24318Y8743D01*
X24291D01*
X3467Y6378D02*
X3334D01*
X3307Y6405D01*
Y6458D01*
X3334Y6485D01*
X3467D01*
X3307Y6538D02*
Y6591D01*
Y6565D01*
X3467D01*
X3440Y6538D01*
X3467Y6778D02*
Y6671D01*
X3387D01*
X3414Y6725D01*
Y6751D01*
X3387Y6778D01*
X3334D01*
X3307Y6751D01*
Y6698D01*
X3334Y6671D01*
X4736Y8362D02*
X4763Y8388D01*
X4816D01*
X4843Y8362D01*
Y8255D01*
X4816Y8228D01*
X4763D01*
X4736Y8255D01*
X4683Y8228D02*
X4629D01*
X4656D01*
Y8388D01*
X4683Y8362D01*
X4549D02*
X4523Y8388D01*
X4469D01*
X4443Y8362D01*
Y8335D01*
X4469Y8308D01*
X4496D01*
X4469D01*
X4443Y8282D01*
Y8255D01*
X4469Y8228D01*
X4523D01*
X4549Y8255D01*
X4389Y8228D02*
X4336D01*
X4363D01*
Y8388D01*
X4389Y8362D01*
X9961Y10750D02*
Y10724D01*
X9907Y10671D01*
X9854Y10724D01*
Y10750D01*
X9907Y10671D02*
Y10591D01*
X9801D02*
X9747D01*
X9774D01*
Y10750D01*
X9801Y10724D01*
X25906Y6417D02*
Y6577D01*
X25826D01*
X25799Y6551D01*
Y6497D01*
X25826Y6471D01*
X25906D01*
X25852D02*
X25799Y6417D01*
X25746D02*
X25692D01*
X25719D01*
Y6577D01*
X25746Y6551D01*
X25612Y6417D02*
X25559D01*
X25586D01*
Y6577D01*
X25612Y6551D01*
X25372Y6577D02*
X25479D01*
Y6497D01*
X25426Y6524D01*
X25399D01*
X25372Y6497D01*
Y6444D01*
X25399Y6417D01*
X25452D01*
X25479Y6444D01*
X6024Y9685D02*
X5864D01*
Y9605D01*
X5890Y9578D01*
X5944D01*
X5970Y9605D01*
Y9685D01*
Y9632D02*
X6024Y9578D01*
Y9525D02*
Y9472D01*
Y9498D01*
X5864D01*
X5890Y9525D01*
Y9392D02*
X5864Y9365D01*
Y9312D01*
X5890Y9285D01*
X5917D01*
X5944Y9312D01*
X5970Y9285D01*
X5997D01*
X6024Y9312D01*
Y9365D01*
X5997Y9392D01*
X5970D01*
X5944Y9365D01*
X5917Y9392D01*
X5890D01*
X5944Y9365D02*
Y9312D01*
X5997Y9232D02*
X6024Y9205D01*
Y9152D01*
X5997Y9125D01*
X5890D01*
X5864Y9152D01*
Y9205D01*
X5890Y9232D01*
X5917D01*
X5944Y9205D01*
Y9125D01*
X7741Y6114D02*
X7714Y6140D01*
Y6194D01*
X7741Y6220D01*
X7847D01*
X7874Y6194D01*
Y6140D01*
X7847Y6114D01*
X7874Y6061D02*
Y6007D01*
Y6034D01*
X7714D01*
X7741Y6061D01*
X7874Y5927D02*
Y5874D01*
Y5901D01*
X7714D01*
X7741Y5927D01*
Y5794D02*
X7714Y5767D01*
Y5714D01*
X7741Y5687D01*
X7767D01*
X7794Y5714D01*
X7821Y5687D01*
X7847D01*
X7874Y5714D01*
Y5767D01*
X7847Y5794D01*
X7821D01*
X7794Y5767D01*
X7767Y5794D01*
X7741D01*
X7794Y5767D02*
Y5714D01*
X24972Y9948D02*
Y10055D01*
X24999Y10081D01*
X25052D01*
X25079Y10055D01*
Y9948D01*
X25052Y9921D01*
X24999D01*
X25025Y9975D02*
X24972Y9921D01*
X24999D02*
X24972Y9948D01*
X24812Y9921D02*
X24919D01*
X24812Y10028D01*
Y10055D01*
X24839Y10081D01*
X24892D01*
X24919Y10055D01*
X3701Y7520D02*
X3541D01*
Y7440D01*
X3568Y7413D01*
X3621D01*
X3647Y7440D01*
Y7520D01*
Y7466D02*
X3701Y7413D01*
Y7253D02*
Y7360D01*
X3594Y7253D01*
X3568D01*
X3541Y7280D01*
Y7333D01*
X3568Y7360D01*
Y7200D02*
X3541Y7173D01*
Y7120D01*
X3568Y7093D01*
X3674D01*
X3701Y7120D01*
Y7173D01*
X3674Y7200D01*
X3568D01*
Y7040D02*
X3541Y7013D01*
Y6960D01*
X3568Y6933D01*
X3594D01*
X3621Y6960D01*
Y6987D01*
Y6960D01*
X3647Y6933D01*
X3674D01*
X3701Y6960D01*
Y7013D01*
X3674Y7040D01*
X29173Y4843D02*
X29013D01*
Y4763D01*
X29040Y4736D01*
X29093D01*
X29120Y4763D01*
Y4843D01*
Y4789D02*
X29173Y4736D01*
X29147Y4683D02*
X29173Y4656D01*
Y4603D01*
X29147Y4576D01*
X29040D01*
X29013Y4603D01*
Y4656D01*
X29040Y4683D01*
X29067D01*
X29093Y4656D01*
Y4576D01*
X29013Y4416D02*
Y4523D01*
X29093D01*
X29067Y4469D01*
Y4443D01*
X29093Y4416D01*
X29147D01*
X29173Y4443D01*
Y4496D01*
X29147Y4523D01*
X24252Y11181D02*
Y11341D01*
X24172D01*
X24145Y11314D01*
Y11261D01*
X24172Y11234D01*
X24252D01*
X24199D02*
X24145Y11181D01*
X24092D02*
X24039D01*
X24065D01*
Y11341D01*
X24092Y11314D01*
X23852Y11181D02*
X23959D01*
X23852Y11288D01*
Y11314D01*
X23879Y11341D01*
X23932D01*
X23959Y11314D01*
X23692Y11181D02*
X23799D01*
X23692Y11288D01*
Y11314D01*
X23719Y11341D01*
X23772D01*
X23799Y11314D01*
X16375Y10709D02*
X16509D01*
X16535Y10682D01*
Y10629D01*
X16509Y10602D01*
X16375D01*
X16535Y10549D02*
Y10495D01*
Y10522D01*
X16375D01*
X16402Y10549D01*
Y10415D02*
X16375Y10389D01*
Y10335D01*
X16402Y10309D01*
X16429D01*
X16455Y10335D01*
Y10362D01*
Y10335D01*
X16482Y10309D01*
X16509D01*
X16535Y10335D01*
Y10389D01*
X16509Y10415D01*
X4252Y4530D02*
Y4397D01*
X4225Y4370D01*
X4172D01*
X4145Y4397D01*
Y4530D01*
X4092Y4370D02*
X4039D01*
X4065D01*
Y4530D01*
X4092Y4503D01*
X3879Y4370D02*
Y4530D01*
X3959Y4450D01*
X3852D01*
X30945Y1969D02*
Y2128D01*
X30865D01*
X30838Y2102D01*
Y2048D01*
X30865Y2022D01*
X30945D01*
X30892D02*
X30838Y1969D01*
X30785Y1995D02*
X30758Y1969D01*
X30705D01*
X30678Y1995D01*
Y2102D01*
X30705Y2128D01*
X30758D01*
X30785Y2102D01*
Y2075D01*
X30758Y2048D01*
X30678D01*
X30625Y2102D02*
X30598Y2128D01*
X30545D01*
X30518Y2102D01*
Y1995D01*
X30545Y1969D01*
X30598D01*
X30625Y1995D01*
Y2102D01*
X30748Y2244D02*
Y2404D01*
X30668D01*
X30641Y2377D01*
Y2324D01*
X30668Y2297D01*
X30748D01*
X30695D02*
X30641Y2244D01*
X30588Y2271D02*
X30561Y2244D01*
X30508D01*
X30481Y2271D01*
Y2377D01*
X30508Y2404D01*
X30561D01*
X30588Y2377D01*
Y2351D01*
X30561Y2324D01*
X30481D01*
X30428Y2244D02*
X30375D01*
X30401D01*
Y2404D01*
X30428Y2377D01*
X29724Y2126D02*
X29564D01*
Y2046D01*
X29591Y2019D01*
X29644D01*
X29671Y2046D01*
Y2126D01*
Y2073D02*
X29724Y2019D01*
X29698Y1966D02*
X29724Y1939D01*
Y1886D01*
X29698Y1859D01*
X29591D01*
X29564Y1886D01*
Y1939D01*
X29591Y1966D01*
X29618D01*
X29644Y1939D01*
Y1859D01*
X29591Y1806D02*
X29564Y1779D01*
Y1726D01*
X29591Y1699D01*
X29618D01*
X29644Y1726D01*
Y1753D01*
Y1726D01*
X29671Y1699D01*
X29698D01*
X29724Y1726D01*
Y1779D01*
X29698Y1806D01*
X29173Y2638D02*
X29013D01*
Y2558D01*
X29040Y2531D01*
X29093D01*
X29120Y2558D01*
Y2638D01*
Y2584D02*
X29173Y2531D01*
X29147Y2478D02*
X29173Y2451D01*
Y2398D01*
X29147Y2371D01*
X29040D01*
X29013Y2398D01*
Y2451D01*
X29040Y2478D01*
X29067D01*
X29093Y2451D01*
Y2371D01*
X29013Y2318D02*
Y2211D01*
X29040D01*
X29147Y2318D01*
X29173D01*
X30709Y2520D02*
Y2680D01*
X30629D01*
X30602Y2653D01*
Y2600D01*
X30629Y2573D01*
X30709D01*
X30655D02*
X30602Y2520D01*
X30549Y2546D02*
X30522Y2520D01*
X30469D01*
X30442Y2546D01*
Y2653D01*
X30469Y2680D01*
X30522D01*
X30549Y2653D01*
Y2626D01*
X30522Y2600D01*
X30442D01*
X30282Y2520D02*
X30389D01*
X30282Y2626D01*
Y2653D01*
X30309Y2680D01*
X30362D01*
X30389Y2653D01*
X29685Y2795D02*
Y2955D01*
X29605D01*
X29578Y2929D01*
Y2875D01*
X29605Y2849D01*
X29685D01*
X29632D02*
X29578Y2795D01*
X29525Y2822D02*
X29498Y2795D01*
X29445D01*
X29418Y2822D01*
Y2929D01*
X29445Y2955D01*
X29498D01*
X29525Y2929D01*
Y2902D01*
X29498Y2875D01*
X29418D01*
X29285Y2795D02*
Y2955D01*
X29365Y2875D01*
X29259D01*
X30866Y3898D02*
X30706D01*
Y3818D01*
X30733Y3791D01*
X30786D01*
X30813Y3818D01*
Y3898D01*
Y3844D02*
X30866Y3791D01*
X30733Y3738D02*
X30706Y3711D01*
Y3658D01*
X30733Y3631D01*
X30760D01*
X30786Y3658D01*
X30813Y3631D01*
X30839D01*
X30866Y3658D01*
Y3711D01*
X30839Y3738D01*
X30813D01*
X30786Y3711D01*
X30760Y3738D01*
X30733D01*
X30786Y3711D02*
Y3658D01*
X30706Y3578D02*
Y3471D01*
X30733D01*
X30839Y3578D01*
X30866D01*
X30394Y3898D02*
X30234D01*
Y3818D01*
X30260Y3791D01*
X30314D01*
X30340Y3818D01*
Y3898D01*
Y3844D02*
X30394Y3791D01*
X30260Y3738D02*
X30234Y3711D01*
Y3658D01*
X30260Y3631D01*
X30287D01*
X30314Y3658D01*
X30340Y3631D01*
X30367D01*
X30394Y3658D01*
Y3711D01*
X30367Y3738D01*
X30340D01*
X30314Y3711D01*
X30287Y3738D01*
X30260D01*
X30314Y3711D02*
Y3658D01*
X30260Y3578D02*
X30234Y3551D01*
Y3498D01*
X30260Y3471D01*
X30287D01*
X30314Y3498D01*
X30340Y3471D01*
X30367D01*
X30394Y3498D01*
Y3551D01*
X30367Y3578D01*
X30340D01*
X30314Y3551D01*
X30287Y3578D01*
X30260D01*
X30314Y3551D02*
Y3498D01*
X15945Y10157D02*
Y10317D01*
X15865D01*
X15838Y10291D01*
Y10237D01*
X15865Y10211D01*
X15945D01*
X15892D02*
X15838Y10157D01*
X15785D02*
X15732D01*
X15758D01*
Y10317D01*
X15785Y10291D01*
X15545Y10317D02*
X15652D01*
Y10237D01*
X15598Y10264D01*
X15572D01*
X15545Y10237D01*
Y10184D01*
X15572Y10157D01*
X15625D01*
X15652Y10184D01*
X15412Y10157D02*
Y10317D01*
X15492Y10237D01*
X15385D01*
X11181Y10000D02*
X11021D01*
Y9920D01*
X11048Y9893D01*
X11101D01*
X11128Y9920D01*
Y10000D01*
Y9947D02*
X11181Y9893D01*
Y9840D02*
Y9787D01*
Y9813D01*
X11021D01*
X11048Y9840D01*
X11021Y9600D02*
X11048Y9653D01*
X11101Y9707D01*
X11154D01*
X11181Y9680D01*
Y9627D01*
X11154Y9600D01*
X11128D01*
X11101Y9627D01*
Y9707D01*
X11181Y9467D02*
X11021D01*
X11101Y9547D01*
Y9440D01*
X11811Y9173D02*
Y9333D01*
X11731D01*
X11704Y9307D01*
Y9253D01*
X11731Y9227D01*
X11811D01*
X11758D02*
X11704Y9173D01*
X11651D02*
X11598D01*
X11624D01*
Y9333D01*
X11651Y9307D01*
X11411Y9333D02*
X11518D01*
Y9253D01*
X11464Y9280D01*
X11438D01*
X11411Y9253D01*
Y9200D01*
X11438Y9173D01*
X11491D01*
X11518Y9200D01*
X11358D02*
X11331Y9173D01*
X11278D01*
X11251Y9200D01*
Y9307D01*
X11278Y9333D01*
X11331D01*
X11358Y9307D01*
Y9280D01*
X11331Y9253D01*
X11251D01*
X23189Y11220D02*
Y11380D01*
X23109D01*
X23082Y11354D01*
Y11300D01*
X23109Y11274D01*
X23189D01*
X23136D02*
X23082Y11220D01*
X23029D02*
X22976D01*
X23002D01*
Y11380D01*
X23029Y11354D01*
X22789Y11220D02*
X22896D01*
X22789Y11327D01*
Y11354D01*
X22816Y11380D01*
X22869D01*
X22896Y11354D01*
X22736D02*
X22709Y11380D01*
X22656D01*
X22629Y11354D01*
Y11327D01*
X22656Y11300D01*
X22629Y11274D01*
Y11247D01*
X22656Y11220D01*
X22709D01*
X22736Y11247D01*
Y11274D01*
X22709Y11300D01*
X22736Y11327D01*
Y11354D01*
X22709Y11300D02*
X22656D01*
X23740Y10315D02*
Y10475D01*
X23660D01*
X23634Y10448D01*
Y10395D01*
X23660Y10368D01*
X23740D01*
X23687D02*
X23634Y10315D01*
X23580D02*
X23527D01*
X23554D01*
Y10475D01*
X23580Y10448D01*
X23340Y10315D02*
X23447D01*
X23340Y10422D01*
Y10448D01*
X23367Y10475D01*
X23420D01*
X23447Y10448D01*
X23180Y10475D02*
X23234Y10448D01*
X23287Y10395D01*
Y10342D01*
X23260Y10315D01*
X23207D01*
X23180Y10342D01*
Y10368D01*
X23207Y10395D01*
X23287D01*
X26181Y11102D02*
X26021D01*
Y11022D01*
X26048Y10996D01*
X26101D01*
X26128Y11022D01*
Y11102D01*
Y11049D02*
X26181Y10996D01*
Y10942D02*
Y10889D01*
Y10916D01*
X26021D01*
X26048Y10942D01*
X26181Y10809D02*
Y10756D01*
Y10782D01*
X26021D01*
X26048Y10809D01*
X26181Y10596D02*
X26021D01*
X26101Y10676D01*
Y10569D01*
X13976Y10787D02*
Y10947D01*
X13896D01*
X13870Y10921D01*
Y10867D01*
X13896Y10841D01*
X13976D01*
X13923D02*
X13870Y10787D01*
X13816D02*
X13763D01*
X13790D01*
Y10947D01*
X13816Y10921D01*
X13577Y10947D02*
X13683D01*
Y10867D01*
X13630Y10894D01*
X13603D01*
X13577Y10867D01*
Y10814D01*
X13603Y10787D01*
X13656D01*
X13683Y10814D01*
X13417Y10947D02*
X13523D01*
Y10867D01*
X13470Y10894D01*
X13443D01*
X13417Y10867D01*
Y10814D01*
X13443Y10787D01*
X13497D01*
X13523Y10814D01*
X11496Y10984D02*
X11656D01*
Y11064D01*
X11629Y11091D01*
X11576D01*
X11549Y11064D01*
Y10984D01*
Y11038D02*
X11496Y11091D01*
Y11144D02*
Y11198D01*
Y11171D01*
X11656D01*
X11629Y11144D01*
X11656Y11384D02*
X11629Y11331D01*
X11576Y11277D01*
X11523D01*
X11496Y11304D01*
Y11357D01*
X11523Y11384D01*
X11549D01*
X11576Y11357D01*
Y11277D01*
X11656Y11544D02*
Y11437D01*
X11576D01*
X11603Y11491D01*
Y11517D01*
X11576Y11544D01*
X11523D01*
X11496Y11517D01*
Y11464D01*
X11523Y11437D01*
X16181Y11378D02*
X16021D01*
Y11298D01*
X16048Y11271D01*
X16101D01*
X16128Y11298D01*
Y11378D01*
Y11325D02*
X16181Y11271D01*
Y11218D02*
Y11165D01*
Y11191D01*
X16021D01*
X16048Y11218D01*
X16021Y10978D02*
Y11085D01*
X16101D01*
X16074Y11031D01*
Y11005D01*
X16101Y10978D01*
X16154D01*
X16181Y11005D01*
Y11058D01*
X16154Y11085D01*
X16181Y10925D02*
Y10871D01*
Y10898D01*
X16021D01*
X16048Y10925D01*
X25591Y2598D02*
Y2758D01*
X25511D01*
X25484Y2732D01*
Y2678D01*
X25511Y2652D01*
X25591D01*
X25537D02*
X25484Y2598D01*
X25431D02*
X25377D01*
X25404D01*
Y2758D01*
X25431Y2732D01*
X25297Y2598D02*
X25244D01*
X25271D01*
Y2758D01*
X25297Y2732D01*
X25164D02*
X25137Y2758D01*
X25084D01*
X25057Y2732D01*
Y2705D01*
X25084Y2678D01*
X25057Y2652D01*
Y2625D01*
X25084Y2598D01*
X25137D01*
X25164Y2625D01*
Y2652D01*
X25137Y2678D01*
X25164Y2705D01*
Y2732D01*
X25137Y2678D02*
X25084D01*
X25276Y2362D02*
Y2522D01*
X25196D01*
X25169Y2495D01*
Y2442D01*
X25196Y2416D01*
X25276D01*
X25222D02*
X25169Y2362D01*
X25116D02*
X25062D01*
X25089D01*
Y2522D01*
X25116Y2495D01*
X24982Y2362D02*
X24929D01*
X24956D01*
Y2522D01*
X24982Y2495D01*
X24849Y2389D02*
X24822Y2362D01*
X24769D01*
X24742Y2389D01*
Y2495D01*
X24769Y2522D01*
X24822D01*
X24849Y2495D01*
Y2469D01*
X24822Y2442D01*
X24742D01*
X25000Y2598D02*
Y2758D01*
X24920D01*
X24893Y2732D01*
Y2678D01*
X24920Y2652D01*
X25000D01*
X24947D02*
X24893Y2598D01*
X24840D02*
X24787D01*
X24813D01*
Y2758D01*
X24840Y2732D01*
X24600Y2598D02*
X24707D01*
X24600Y2705D01*
Y2732D01*
X24627Y2758D01*
X24680D01*
X24707Y2732D01*
X24547D02*
X24520Y2758D01*
X24467D01*
X24440Y2732D01*
Y2625D01*
X24467Y2598D01*
X24520D01*
X24547Y2625D01*
Y2732D01*
X24685Y2362D02*
Y2522D01*
X24605D01*
X24578Y2495D01*
Y2442D01*
X24605Y2416D01*
X24685D01*
X24632D02*
X24578Y2362D01*
X24525D02*
X24472D01*
X24498D01*
Y2522D01*
X24525Y2495D01*
X24285Y2362D02*
X24392D01*
X24285Y2469D01*
Y2495D01*
X24312Y2522D01*
X24365D01*
X24392Y2495D01*
X24232Y2362D02*
X24179D01*
X24205D01*
Y2522D01*
X24232Y2495D01*
X24370Y2598D02*
Y2758D01*
X24290D01*
X24263Y2732D01*
Y2678D01*
X24290Y2652D01*
X24370D01*
X24317D02*
X24263Y2598D01*
X24210D02*
X24157D01*
X24183D01*
Y2758D01*
X24210Y2732D01*
X23970Y2598D02*
X24077D01*
X23970Y2705D01*
Y2732D01*
X23997Y2758D01*
X24050D01*
X24077Y2732D01*
X23917D02*
X23890Y2758D01*
X23837D01*
X23810Y2732D01*
Y2705D01*
X23837Y2678D01*
X23864D01*
X23837D01*
X23810Y2652D01*
Y2625D01*
X23837Y2598D01*
X23890D01*
X23917Y2625D01*
X24055Y2362D02*
Y2522D01*
X23975D01*
X23948Y2495D01*
Y2442D01*
X23975Y2416D01*
X24055D01*
X24002D02*
X23948Y2362D01*
X23895D02*
X23842D01*
X23869D01*
Y2522D01*
X23895Y2495D01*
X23655Y2362D02*
X23762D01*
X23655Y2469D01*
Y2495D01*
X23682Y2522D01*
X23735D01*
X23762Y2495D01*
X23522Y2362D02*
Y2522D01*
X23602Y2442D01*
X23495D01*
X23740Y2598D02*
Y2758D01*
X23660D01*
X23634Y2732D01*
Y2678D01*
X23660Y2652D01*
X23740D01*
X23687D02*
X23634Y2598D01*
X23580D02*
X23527D01*
X23554D01*
Y2758D01*
X23580Y2732D01*
X23340Y2598D02*
X23447D01*
X23340Y2705D01*
Y2732D01*
X23367Y2758D01*
X23420D01*
X23447Y2732D01*
X23180Y2758D02*
X23287D01*
Y2678D01*
X23234Y2705D01*
X23207D01*
X23180Y2678D01*
Y2625D01*
X23207Y2598D01*
X23260D01*
X23287Y2625D01*
X23386Y2362D02*
Y2522D01*
X23306D01*
X23279Y2495D01*
Y2442D01*
X23306Y2416D01*
X23386D01*
X23333D02*
X23279Y2362D01*
X23226D02*
X23173D01*
X23199D01*
Y2522D01*
X23226Y2495D01*
X22986Y2362D02*
X23093D01*
X22986Y2469D01*
Y2495D01*
X23013Y2522D01*
X23066D01*
X23093Y2495D01*
X22933Y2522D02*
X22826D01*
Y2495D01*
X22933Y2389D01*
Y2362D01*
X23110Y2598D02*
Y2758D01*
X23030D01*
X23004Y2732D01*
Y2678D01*
X23030Y2652D01*
X23110D01*
X23057D02*
X23004Y2598D01*
X22950D02*
X22897D01*
X22924D01*
Y2758D01*
X22950Y2732D01*
X22710Y2598D02*
X22817D01*
X22710Y2705D01*
Y2732D01*
X22737Y2758D01*
X22790D01*
X22817Y2732D01*
X22657Y2625D02*
X22630Y2598D01*
X22577D01*
X22550Y2625D01*
Y2732D01*
X22577Y2758D01*
X22630D01*
X22657Y2732D01*
Y2705D01*
X22630Y2678D01*
X22550D01*
X22756Y2362D02*
Y2522D01*
X22676D01*
X22649Y2495D01*
Y2442D01*
X22676Y2416D01*
X22756D01*
X22703D02*
X22649Y2362D01*
X22596D02*
X22543D01*
X22569D01*
Y2522D01*
X22596Y2495D01*
X22463D02*
X22436Y2522D01*
X22383D01*
X22356Y2495D01*
Y2469D01*
X22383Y2442D01*
X22409D01*
X22383D01*
X22356Y2416D01*
Y2389D01*
X22383Y2362D01*
X22436D01*
X22463Y2389D01*
X22303Y2495D02*
X22276Y2522D01*
X22223D01*
X22196Y2495D01*
Y2389D01*
X22223Y2362D01*
X22276D01*
X22303Y2389D01*
Y2495D01*
X22480Y2598D02*
Y2758D01*
X22400D01*
X22374Y2732D01*
Y2678D01*
X22400Y2652D01*
X22480D01*
X22427D02*
X22374Y2598D01*
X22320D02*
X22267D01*
X22294D01*
Y2758D01*
X22320Y2732D01*
X22187D02*
X22160Y2758D01*
X22107D01*
X22080Y2732D01*
Y2705D01*
X22107Y2678D01*
X22134D01*
X22107D01*
X22080Y2652D01*
Y2625D01*
X22107Y2598D01*
X22160D01*
X22187Y2625D01*
X22027Y2598D02*
X21974D01*
X22000D01*
Y2758D01*
X22027Y2732D01*
X22126Y2362D02*
Y2522D01*
X22046D01*
X22019Y2495D01*
Y2442D01*
X22046Y2416D01*
X22126D01*
X22073D02*
X22019Y2362D01*
X21966D02*
X21913D01*
X21939D01*
Y2522D01*
X21966Y2495D01*
X21833D02*
X21806Y2522D01*
X21753D01*
X21726Y2495D01*
Y2469D01*
X21753Y2442D01*
X21779D01*
X21753D01*
X21726Y2416D01*
Y2389D01*
X21753Y2362D01*
X21806D01*
X21833Y2389D01*
X21566Y2362D02*
X21673D01*
X21566Y2469D01*
Y2495D01*
X21593Y2522D01*
X21646D01*
X21673Y2495D01*
X21850Y2598D02*
Y2758D01*
X21770D01*
X21744Y2732D01*
Y2678D01*
X21770Y2652D01*
X21850D01*
X21797D02*
X21744Y2598D01*
X21690D02*
X21637D01*
X21664D01*
Y2758D01*
X21690Y2732D01*
X21557D02*
X21530Y2758D01*
X21477D01*
X21451Y2732D01*
Y2705D01*
X21477Y2678D01*
X21504D01*
X21477D01*
X21451Y2652D01*
Y2625D01*
X21477Y2598D01*
X21530D01*
X21557Y2625D01*
X21397Y2732D02*
X21371Y2758D01*
X21317D01*
X21291Y2732D01*
Y2705D01*
X21317Y2678D01*
X21344D01*
X21317D01*
X21291Y2652D01*
Y2625D01*
X21317Y2598D01*
X21371D01*
X21397Y2625D01*
X21535Y2362D02*
Y2522D01*
X21455D01*
X21429Y2495D01*
Y2442D01*
X21455Y2416D01*
X21535D01*
X21482D02*
X21429Y2362D01*
X21375D02*
X21322D01*
X21349D01*
Y2522D01*
X21375Y2495D01*
X21242D02*
X21216Y2522D01*
X21162D01*
X21136Y2495D01*
Y2469D01*
X21162Y2442D01*
X21189D01*
X21162D01*
X21136Y2416D01*
Y2389D01*
X21162Y2362D01*
X21216D01*
X21242Y2389D01*
X21002Y2362D02*
Y2522D01*
X21082Y2442D01*
X20976D01*
X21181Y2598D02*
Y2758D01*
X21101D01*
X21074Y2732D01*
Y2678D01*
X21101Y2652D01*
X21181D01*
X21128D02*
X21074Y2598D01*
X21021D02*
X20968D01*
X20995D01*
Y2758D01*
X21021Y2732D01*
X20888D02*
X20861Y2758D01*
X20808D01*
X20781Y2732D01*
Y2705D01*
X20808Y2678D01*
X20835D01*
X20808D01*
X20781Y2652D01*
Y2625D01*
X20808Y2598D01*
X20861D01*
X20888Y2625D01*
X20621Y2758D02*
X20728D01*
Y2678D01*
X20675Y2705D01*
X20648D01*
X20621Y2678D01*
Y2625D01*
X20648Y2598D01*
X20701D01*
X20728Y2625D01*
X20906Y2362D02*
Y2522D01*
X20826D01*
X20799Y2495D01*
Y2442D01*
X20826Y2416D01*
X20906D01*
X20852D02*
X20799Y2362D01*
X20746D02*
X20692D01*
X20719D01*
Y2522D01*
X20746Y2495D01*
X20612D02*
X20586Y2522D01*
X20532D01*
X20506Y2495D01*
Y2469D01*
X20532Y2442D01*
X20559D01*
X20532D01*
X20506Y2416D01*
Y2389D01*
X20532Y2362D01*
X20586D01*
X20612Y2389D01*
X20346Y2522D02*
X20399Y2495D01*
X20452Y2442D01*
Y2389D01*
X20426Y2362D01*
X20372D01*
X20346Y2389D01*
Y2416D01*
X20372Y2442D01*
X20452D01*
X20551Y2598D02*
Y2758D01*
X20471D01*
X20445Y2732D01*
Y2678D01*
X20471Y2652D01*
X20551D01*
X20498D02*
X20445Y2598D01*
X20391D02*
X20338D01*
X20365D01*
Y2758D01*
X20391Y2732D01*
X20258D02*
X20231Y2758D01*
X20178D01*
X20151Y2732D01*
Y2705D01*
X20178Y2678D01*
X20205D01*
X20178D01*
X20151Y2652D01*
Y2625D01*
X20178Y2598D01*
X20231D01*
X20258Y2625D01*
X20098Y2758D02*
X19991D01*
Y2732D01*
X20098Y2625D01*
Y2598D01*
X20236Y2362D02*
Y2522D01*
X20156D01*
X20130Y2495D01*
Y2442D01*
X20156Y2416D01*
X20236D01*
X20183D02*
X20130Y2362D01*
X20076D02*
X20023D01*
X20050D01*
Y2522D01*
X20076Y2495D01*
X19943D02*
X19916Y2522D01*
X19863D01*
X19836Y2495D01*
Y2469D01*
X19863Y2442D01*
X19890D01*
X19863D01*
X19836Y2416D01*
Y2389D01*
X19863Y2362D01*
X19916D01*
X19943Y2389D01*
X19783Y2495D02*
X19756Y2522D01*
X19703D01*
X19676Y2495D01*
Y2469D01*
X19703Y2442D01*
X19676Y2416D01*
Y2389D01*
X19703Y2362D01*
X19756D01*
X19783Y2389D01*
Y2416D01*
X19756Y2442D01*
X19783Y2469D01*
Y2495D01*
X19756Y2442D02*
X19703D01*
X26693Y2362D02*
Y2522D01*
X26613D01*
X26586Y2495D01*
Y2442D01*
X26613Y2416D01*
X26693D01*
X26640D02*
X26586Y2362D01*
X26533D02*
X26480D01*
X26506D01*
Y2522D01*
X26533Y2495D01*
X26400D02*
X26373Y2522D01*
X26320D01*
X26293Y2495D01*
Y2389D01*
X26320Y2362D01*
X26373D01*
X26400Y2389D01*
Y2495D01*
X26240Y2389D02*
X26213Y2362D01*
X26160D01*
X26133Y2389D01*
Y2495D01*
X26160Y2522D01*
X26213D01*
X26240Y2495D01*
Y2469D01*
X26213Y2442D01*
X26133D01*
X17087Y9843D02*
Y10002D01*
X17007D01*
X16980Y9976D01*
Y9922D01*
X17007Y9896D01*
X17087D01*
X17033D02*
X16980Y9843D01*
X16927D02*
X16873D01*
X16900D01*
Y10002D01*
X16927Y9976D01*
X16713Y9843D02*
Y10002D01*
X16793Y9922D01*
X16687D01*
X16633Y9976D02*
X16607Y10002D01*
X16553D01*
X16527Y9976D01*
Y9949D01*
X16553Y9922D01*
X16527Y9896D01*
Y9869D01*
X16553Y9843D01*
X16607D01*
X16633Y9869D01*
Y9896D01*
X16607Y9922D01*
X16633Y9949D01*
Y9976D01*
X16607Y9922D02*
X16553D01*
X19331Y2362D02*
Y2522D01*
X19251D01*
X19224Y2495D01*
Y2442D01*
X19251Y2416D01*
X19331D01*
X19277D02*
X19224Y2362D01*
X19171D02*
X19117D01*
X19144D01*
Y2522D01*
X19171Y2495D01*
X18958Y2362D02*
Y2522D01*
X19037Y2442D01*
X18931D01*
X18878Y2362D02*
X18824D01*
X18851D01*
Y2522D01*
X18878Y2495D01*
X19016Y2598D02*
Y2758D01*
X18936D01*
X18909Y2732D01*
Y2678D01*
X18936Y2652D01*
X19016D01*
X18962D02*
X18909Y2598D01*
X18856D02*
X18802D01*
X18829D01*
Y2758D01*
X18856Y2732D01*
X18643Y2598D02*
Y2758D01*
X18723Y2678D01*
X18616D01*
X18563Y2732D02*
X18536Y2758D01*
X18483D01*
X18456Y2732D01*
Y2705D01*
X18483Y2678D01*
X18509D01*
X18483D01*
X18456Y2652D01*
Y2625D01*
X18483Y2598D01*
X18536D01*
X18563Y2625D01*
X18701Y2362D02*
Y2522D01*
X18621D01*
X18594Y2495D01*
Y2442D01*
X18621Y2416D01*
X18701D01*
X18647D02*
X18594Y2362D01*
X18541D02*
X18488D01*
X18514D01*
Y2522D01*
X18541Y2495D01*
X18328Y2362D02*
Y2522D01*
X18408Y2442D01*
X18301D01*
X18141Y2522D02*
X18248D01*
Y2442D01*
X18194Y2469D01*
X18168D01*
X18141Y2442D01*
Y2389D01*
X18168Y2362D01*
X18221D01*
X18248Y2389D01*
X18346Y2598D02*
Y2758D01*
X18266D01*
X18240Y2732D01*
Y2678D01*
X18266Y2652D01*
X18346D01*
X18293D02*
X18240Y2598D01*
X18187D02*
X18133D01*
X18160D01*
Y2758D01*
X18187Y2732D01*
X17973Y2598D02*
Y2758D01*
X18053Y2678D01*
X17947D01*
X17787Y2758D02*
X17840Y2732D01*
X17893Y2678D01*
Y2625D01*
X17867Y2598D01*
X17813D01*
X17787Y2625D01*
Y2652D01*
X17813Y2678D01*
X17893D01*
X18071Y2362D02*
Y2522D01*
X17991D01*
X17964Y2495D01*
Y2442D01*
X17991Y2416D01*
X18071D01*
X18018D02*
X17964Y2362D01*
X17911D02*
X17858D01*
X17884D01*
Y2522D01*
X17911Y2495D01*
X17698Y2362D02*
Y2522D01*
X17778Y2442D01*
X17671D01*
X17618Y2522D02*
X17511D01*
Y2495D01*
X17618Y2389D01*
Y2362D01*
X17283Y2598D02*
Y2758D01*
X17203D01*
X17177Y2732D01*
Y2678D01*
X17203Y2652D01*
X17283D01*
X17230D02*
X17177Y2598D01*
X17124D02*
X17070D01*
X17097D01*
Y2758D01*
X17124Y2732D01*
X16910Y2598D02*
Y2758D01*
X16990Y2678D01*
X16884D01*
X16830Y2625D02*
X16804Y2598D01*
X16750D01*
X16724Y2625D01*
Y2732D01*
X16750Y2758D01*
X16804D01*
X16830Y2732D01*
Y2705D01*
X16804Y2678D01*
X16724D01*
X16968Y2362D02*
Y2522D01*
X16889D01*
X16862Y2495D01*
Y2442D01*
X16889Y2416D01*
X16968D01*
X16915D02*
X16862Y2362D01*
X16809D02*
X16755D01*
X16782D01*
Y2522D01*
X16809Y2495D01*
X16569Y2522D02*
X16675D01*
Y2442D01*
X16622Y2469D01*
X16595D01*
X16569Y2442D01*
Y2389D01*
X16595Y2362D01*
X16649D01*
X16675Y2389D01*
X16515Y2495D02*
X16489Y2522D01*
X16435D01*
X16409Y2495D01*
Y2389D01*
X16435Y2362D01*
X16489D01*
X16515Y2389D01*
Y2495D01*
X16614Y2598D02*
Y2758D01*
X16534D01*
X16508Y2732D01*
Y2678D01*
X16534Y2652D01*
X16614D01*
X16561D02*
X16508Y2598D01*
X16454D02*
X16401D01*
X16428D01*
Y2758D01*
X16454Y2732D01*
X16214Y2758D02*
X16321D01*
Y2678D01*
X16268Y2705D01*
X16241D01*
X16214Y2678D01*
Y2625D01*
X16241Y2598D01*
X16294D01*
X16321Y2625D01*
X16054Y2598D02*
X16161D01*
X16054Y2705D01*
Y2732D01*
X16081Y2758D01*
X16134D01*
X16161Y2732D01*
X16339Y2362D02*
Y2522D01*
X16259D01*
X16232Y2495D01*
Y2442D01*
X16259Y2416D01*
X16339D01*
X16285D02*
X16232Y2362D01*
X16179D02*
X16125D01*
X16152D01*
Y2522D01*
X16179Y2495D01*
X15939Y2522D02*
X16045D01*
Y2442D01*
X15992Y2469D01*
X15965D01*
X15939Y2442D01*
Y2389D01*
X15965Y2362D01*
X16019D01*
X16045Y2389D01*
X15885Y2495D02*
X15859Y2522D01*
X15805D01*
X15779Y2495D01*
Y2469D01*
X15805Y2442D01*
X15832D01*
X15805D01*
X15779Y2416D01*
Y2389D01*
X15805Y2362D01*
X15859D01*
X15885Y2389D01*
X10630Y4055D02*
Y4215D01*
X10550D01*
X10523Y4188D01*
Y4135D01*
X10550Y4108D01*
X10630D01*
X10577D02*
X10523Y4055D01*
X10470D02*
X10417D01*
X10443D01*
Y4215D01*
X10470Y4188D01*
X10230Y4215D02*
X10283Y4188D01*
X10337Y4135D01*
Y4082D01*
X10310Y4055D01*
X10257D01*
X10230Y4082D01*
Y4108D01*
X10257Y4135D01*
X10337D01*
X10177Y4082D02*
X10150Y4055D01*
X10097D01*
X10070Y4082D01*
Y4188D01*
X10097Y4215D01*
X10150D01*
X10177Y4188D01*
Y4162D01*
X10150Y4135D01*
X10070D01*
X10315Y3819D02*
Y3979D01*
X10235D01*
X10208Y3952D01*
Y3899D01*
X10235Y3872D01*
X10315D01*
X10262D02*
X10208Y3819D01*
X10155D02*
X10102D01*
X10128D01*
Y3979D01*
X10155Y3952D01*
X10022Y3979D02*
X9915D01*
Y3952D01*
X10022Y3846D01*
Y3819D01*
X9862Y3952D02*
X9835Y3979D01*
X9782D01*
X9755Y3952D01*
Y3846D01*
X9782Y3819D01*
X9835D01*
X9862Y3846D01*
Y3952D01*
X10000Y4055D02*
Y4215D01*
X9920D01*
X9893Y4188D01*
Y4135D01*
X9920Y4108D01*
X10000D01*
X9947D02*
X9893Y4055D01*
X9840D02*
X9787D01*
X9813D01*
Y4215D01*
X9840Y4188D01*
X9707Y4215D02*
X9600D01*
Y4188D01*
X9707Y4082D01*
Y4055D01*
X9547D02*
X9493D01*
X9520D01*
Y4215D01*
X9547Y4188D01*
X9646Y3819D02*
Y3979D01*
X9566D01*
X9539Y3952D01*
Y3899D01*
X9566Y3872D01*
X9646D01*
X9592D02*
X9539Y3819D01*
X9486D02*
X9432D01*
X9459D01*
Y3979D01*
X9486Y3952D01*
X9352Y3979D02*
X9246D01*
Y3952D01*
X9352Y3846D01*
Y3819D01*
X9086D02*
X9192D01*
X9086Y3926D01*
Y3952D01*
X9113Y3979D01*
X9166D01*
X9192Y3952D01*
X19646Y2598D02*
Y2758D01*
X19566D01*
X19539Y2732D01*
Y2678D01*
X19566Y2652D01*
X19646D01*
X19592D02*
X19539Y2598D01*
X19486D02*
X19432D01*
X19459D01*
Y2758D01*
X19486Y2732D01*
X19352D02*
X19326Y2758D01*
X19272D01*
X19246Y2732D01*
Y2705D01*
X19272Y2678D01*
X19299D01*
X19272D01*
X19246Y2652D01*
Y2625D01*
X19272Y2598D01*
X19326D01*
X19352Y2625D01*
X19192D02*
X19166Y2598D01*
X19113D01*
X19086Y2625D01*
Y2732D01*
X19113Y2758D01*
X19166D01*
X19192Y2732D01*
Y2705D01*
X19166Y2678D01*
X19086D01*
X8346Y3819D02*
Y3979D01*
X8266D01*
X8240Y3952D01*
Y3899D01*
X8266Y3872D01*
X8346D01*
X8293D02*
X8240Y3819D01*
X8187D02*
X8133D01*
X8160D01*
Y3979D01*
X8187Y3952D01*
X8053Y3979D02*
X7947D01*
Y3952D01*
X8053Y3846D01*
Y3819D01*
X7893Y3952D02*
X7867Y3979D01*
X7813D01*
X7787Y3952D01*
Y3926D01*
X7813Y3899D01*
X7840D01*
X7813D01*
X7787Y3872D01*
Y3846D01*
X7813Y3819D01*
X7867D01*
X7893Y3846D01*
X7992Y4055D02*
Y4215D01*
X7912D01*
X7885Y4188D01*
Y4135D01*
X7912Y4108D01*
X7992D01*
X7939D02*
X7885Y4055D01*
X7832D02*
X7779D01*
X7806D01*
Y4215D01*
X7832Y4188D01*
X7699Y4215D02*
X7592D01*
Y4188D01*
X7699Y4082D01*
Y4055D01*
X7459D02*
Y4215D01*
X7539Y4135D01*
X7432D01*
X7677Y3819D02*
Y3979D01*
X7597D01*
X7571Y3952D01*
Y3899D01*
X7597Y3872D01*
X7677D01*
X7624D02*
X7571Y3819D01*
X7517D02*
X7464D01*
X7491D01*
Y3979D01*
X7517Y3952D01*
X7384Y3979D02*
X7277D01*
Y3952D01*
X7384Y3846D01*
Y3819D01*
X7117Y3979D02*
X7171Y3952D01*
X7224Y3899D01*
Y3846D01*
X7197Y3819D01*
X7144D01*
X7117Y3846D01*
Y3872D01*
X7144Y3899D01*
X7224D01*
X7362Y4055D02*
Y4215D01*
X7282D01*
X7256Y4188D01*
Y4135D01*
X7282Y4108D01*
X7362D01*
X7309D02*
X7256Y4055D01*
X7202D02*
X7149D01*
X7176D01*
Y4215D01*
X7202Y4188D01*
X7069D02*
X7042Y4215D01*
X6989D01*
X6962Y4188D01*
Y4162D01*
X6989Y4135D01*
X6962Y4108D01*
Y4082D01*
X6989Y4055D01*
X7042D01*
X7069Y4082D01*
Y4108D01*
X7042Y4135D01*
X7069Y4162D01*
Y4188D01*
X7042Y4135D02*
X6989D01*
X6802Y4055D02*
X6909D01*
X6802Y4162D01*
Y4188D01*
X6829Y4215D01*
X6882D01*
X6909Y4188D01*
X7047Y3819D02*
Y3979D01*
X6967D01*
X6941Y3952D01*
Y3899D01*
X6967Y3872D01*
X7047D01*
X6994D02*
X6941Y3819D01*
X6887D02*
X6834D01*
X6861D01*
Y3979D01*
X6887Y3952D01*
X6754D02*
X6727Y3979D01*
X6674D01*
X6647Y3952D01*
Y3926D01*
X6674Y3899D01*
X6647Y3872D01*
Y3846D01*
X6674Y3819D01*
X6727D01*
X6754Y3846D01*
Y3872D01*
X6727Y3899D01*
X6754Y3926D01*
Y3952D01*
X6727Y3899D02*
X6674D01*
X6594Y3952D02*
X6567Y3979D01*
X6514D01*
X6487Y3952D01*
Y3926D01*
X6514Y3899D01*
X6541D01*
X6514D01*
X6487Y3872D01*
Y3846D01*
X6514Y3819D01*
X6567D01*
X6594Y3846D01*
X1811Y11181D02*
Y11341D01*
X1731D01*
X1704Y11314D01*
Y11261D01*
X1731Y11234D01*
X1811D01*
X1758D02*
X1704Y11181D01*
X1544D02*
X1651D01*
X1544Y11288D01*
Y11314D01*
X1571Y11341D01*
X1624D01*
X1651Y11314D01*
X1491Y11181D02*
X1438D01*
X1464D01*
Y11341D01*
X1491Y11314D01*
X1358D02*
X1331Y11341D01*
X1278D01*
X1251Y11314D01*
Y11208D01*
X1278Y11181D01*
X1331D01*
X1358Y11208D01*
Y11314D01*
X2205Y9409D02*
Y9569D01*
X2125D01*
X2098Y9543D01*
Y9489D01*
X2125Y9463D01*
X2205D01*
X2151D02*
X2098Y9409D01*
X1938D02*
X2045D01*
X1938Y9516D01*
Y9543D01*
X1965Y9569D01*
X2018D01*
X2045Y9543D01*
X1885D02*
X1858Y9569D01*
X1805D01*
X1778Y9543D01*
Y9436D01*
X1805Y9409D01*
X1858D01*
X1885Y9436D01*
Y9543D01*
X1725D02*
X1698Y9569D01*
X1645D01*
X1618Y9543D01*
Y9516D01*
X1645Y9489D01*
X1618Y9463D01*
Y9436D01*
X1645Y9409D01*
X1698D01*
X1725Y9436D01*
Y9463D01*
X1698Y9489D01*
X1725Y9516D01*
Y9543D01*
X1698Y9489D02*
X1645D01*
X18701Y3976D02*
Y4136D01*
X18621D01*
X18594Y4110D01*
Y4056D01*
X18621Y4030D01*
X18701D01*
X18647D02*
X18594Y3976D01*
X18541D02*
X18488D01*
X18514D01*
Y4136D01*
X18541Y4110D01*
X18328Y3976D02*
Y4136D01*
X18408Y4056D01*
X18301D01*
X18168Y3976D02*
Y4136D01*
X18248Y4056D01*
X18141D01*
X19370Y3976D02*
Y4136D01*
X19290D01*
X19263Y4110D01*
Y4056D01*
X19290Y4030D01*
X19370D01*
X19317D02*
X19263Y3976D01*
X19210D02*
X19157D01*
X19183D01*
Y4136D01*
X19210Y4110D01*
X18997Y3976D02*
Y4136D01*
X19077Y4056D01*
X18970D01*
X18917Y4110D02*
X18890Y4136D01*
X18837D01*
X18810Y4110D01*
Y4003D01*
X18837Y3976D01*
X18890D01*
X18917Y4003D01*
Y4110D01*
X29567Y5748D02*
Y5908D01*
X29487D01*
X29460Y5881D01*
Y5828D01*
X29487Y5801D01*
X29567D01*
X29514D02*
X29460Y5748D01*
X29407D02*
X29354D01*
X29380D01*
Y5908D01*
X29407Y5881D01*
X29274D02*
X29247Y5908D01*
X29194D01*
X29167Y5881D01*
Y5775D01*
X29194Y5748D01*
X29247D01*
X29274Y5775D01*
Y5881D01*
X29114D02*
X29087Y5908D01*
X29034D01*
X29007Y5881D01*
Y5775D01*
X29034Y5748D01*
X29087D01*
X29114Y5775D01*
Y5881D01*
X29409Y5472D02*
Y5632D01*
X29329D01*
X29303Y5606D01*
Y5552D01*
X29329Y5526D01*
X29409D01*
X29356D02*
X29303Y5472D01*
X29249Y5499D02*
X29223Y5472D01*
X29170D01*
X29143Y5499D01*
Y5606D01*
X29170Y5632D01*
X29223D01*
X29249Y5606D01*
Y5579D01*
X29223Y5552D01*
X29143D01*
X29090Y5499D02*
X29063Y5472D01*
X29010D01*
X28983Y5499D01*
Y5606D01*
X29010Y5632D01*
X29063D01*
X29090Y5606D01*
Y5579D01*
X29063Y5552D01*
X28983D01*
X28031Y8425D02*
Y8585D01*
X27952D01*
X27925Y8558D01*
Y8505D01*
X27952Y8479D01*
X28031D01*
X27978D02*
X27925Y8425D01*
X27872D02*
X27818D01*
X27845D01*
Y8585D01*
X27872Y8558D01*
X27738D02*
X27712Y8585D01*
X27658D01*
X27632Y8558D01*
Y8452D01*
X27658Y8425D01*
X27712D01*
X27738Y8452D01*
Y8558D01*
X27498Y8425D02*
Y8585D01*
X27578Y8505D01*
X27472D01*
X29528Y6063D02*
Y6223D01*
X29448D01*
X29421Y6196D01*
Y6143D01*
X29448Y6116D01*
X29528D01*
X29474D02*
X29421Y6063D01*
X29368D02*
X29314D01*
X29341D01*
Y6223D01*
X29368Y6196D01*
X29234D02*
X29208Y6223D01*
X29154D01*
X29128Y6196D01*
Y6090D01*
X29154Y6063D01*
X29208D01*
X29234Y6090D01*
Y6196D01*
X29074Y6063D02*
X29021D01*
X29048D01*
Y6223D01*
X29074Y6196D01*
X28031Y4921D02*
X27872D01*
Y4841D01*
X27898Y4815D01*
X27952D01*
X27978Y4841D01*
Y4921D01*
Y4868D02*
X28031Y4815D01*
Y4761D02*
Y4708D01*
Y4735D01*
X27872D01*
X27898Y4761D01*
Y4628D02*
X27872Y4601D01*
Y4548D01*
X27898Y4521D01*
X28005D01*
X28031Y4548D01*
Y4601D01*
X28005Y4628D01*
X27898D01*
Y4468D02*
X27872Y4441D01*
Y4388D01*
X27898Y4361D01*
X27925D01*
X27952Y4388D01*
Y4415D01*
Y4388D01*
X27978Y4361D01*
X28005D01*
X28031Y4388D01*
Y4441D01*
X28005Y4468D01*
X27323Y4134D02*
Y4294D01*
X27243D01*
X27216Y4267D01*
Y4214D01*
X27243Y4187D01*
X27323D01*
X27270D02*
X27216Y4134D01*
X27163D02*
X27110D01*
X27136D01*
Y4294D01*
X27163Y4267D01*
X27030D02*
X27003Y4294D01*
X26950D01*
X26923Y4267D01*
Y4161D01*
X26950Y4134D01*
X27003D01*
X27030Y4161D01*
Y4267D01*
X26870Y4294D02*
X26763D01*
Y4267D01*
X26870Y4161D01*
Y4134D01*
X26102Y4094D02*
Y4254D01*
X26022D01*
X25996Y4228D01*
Y4174D01*
X26022Y4148D01*
X26102D01*
X26049D02*
X25996Y4094D01*
X25942D02*
X25889D01*
X25916D01*
Y4254D01*
X25942Y4228D01*
X25809Y4094D02*
X25756D01*
X25782D01*
Y4254D01*
X25809Y4228D01*
X25676D02*
X25649Y4254D01*
X25596D01*
X25569Y4228D01*
Y4201D01*
X25596Y4174D01*
X25623D01*
X25596D01*
X25569Y4148D01*
Y4121D01*
X25596Y4094D01*
X25649D01*
X25676Y4121D01*
X25315Y5984D02*
X25155D01*
Y5904D01*
X25182Y5878D01*
X25235D01*
X25262Y5904D01*
Y5984D01*
Y5931D02*
X25315Y5878D01*
Y5824D02*
Y5771D01*
Y5798D01*
X25155D01*
X25182Y5824D01*
X25315Y5691D02*
Y5638D01*
Y5664D01*
X25155D01*
X25182Y5691D01*
X25155Y5558D02*
Y5451D01*
X25182D01*
X25288Y5558D01*
X25315D01*
X27008Y5669D02*
X26848D01*
Y5589D01*
X26875Y5563D01*
X26928D01*
X26955Y5589D01*
Y5669D01*
Y5616D02*
X27008Y5563D01*
Y5509D02*
Y5456D01*
Y5483D01*
X26848D01*
X26875Y5509D01*
Y5376D02*
X26848Y5349D01*
Y5296D01*
X26875Y5269D01*
X26981D01*
X27008Y5296D01*
Y5349D01*
X26981Y5376D01*
X26875D01*
X26848Y5109D02*
X26875Y5163D01*
X26928Y5216D01*
X26981D01*
X27008Y5189D01*
Y5136D01*
X26981Y5109D01*
X26955D01*
X26928Y5136D01*
Y5216D01*
X2087Y4843D02*
Y5002D01*
X2007D01*
X1980Y4976D01*
Y4922D01*
X2007Y4896D01*
X2087D01*
X2033D02*
X1980Y4843D01*
X1820D02*
X1927D01*
X1820Y4949D01*
Y4976D01*
X1847Y5002D01*
X1900D01*
X1927Y4976D01*
X1767D02*
X1740Y5002D01*
X1687D01*
X1660Y4976D01*
Y4869D01*
X1687Y4843D01*
X1740D01*
X1767Y4869D01*
Y4976D01*
X1607Y5002D02*
X1500D01*
Y4976D01*
X1607Y4869D01*
Y4843D01*
X3465Y4724D02*
Y4884D01*
X3385D01*
X3358Y4858D01*
Y4804D01*
X3385Y4778D01*
X3465D01*
X3411D02*
X3358Y4724D01*
X3198D02*
X3305D01*
X3198Y4831D01*
Y4858D01*
X3225Y4884D01*
X3278D01*
X3305Y4858D01*
X3145D02*
X3118Y4884D01*
X3065D01*
X3038Y4858D01*
Y4751D01*
X3065Y4724D01*
X3118D01*
X3145Y4751D01*
Y4858D01*
X2878Y4884D02*
X2985D01*
Y4804D01*
X2931Y4831D01*
X2905D01*
X2878Y4804D01*
Y4751D01*
X2905Y4724D01*
X2958D01*
X2985Y4751D01*
X12795Y6535D02*
X12635D01*
Y6455D01*
X12662Y6429D01*
X12715D01*
X12742Y6455D01*
Y6535D01*
Y6482D02*
X12795Y6429D01*
Y6375D02*
Y6322D01*
Y6349D01*
X12635D01*
X12662Y6375D01*
X12635Y6136D02*
Y6242D01*
X12715D01*
X12689Y6189D01*
Y6162D01*
X12715Y6136D01*
X12769D01*
X12795Y6162D01*
Y6216D01*
X12769Y6242D01*
X12635Y5976D02*
X12662Y6029D01*
X12715Y6082D01*
X12769D01*
X12795Y6056D01*
Y6002D01*
X12769Y5976D01*
X12742D01*
X12715Y6002D01*
Y6082D01*
X12795Y5906D02*
X12635D01*
Y5826D01*
X12662Y5799D01*
X12715D01*
X12742Y5826D01*
Y5906D01*
Y5852D02*
X12795Y5799D01*
Y5746D02*
Y5692D01*
Y5719D01*
X12635D01*
X12662Y5746D01*
X12635Y5506D02*
Y5612D01*
X12715D01*
X12689Y5559D01*
Y5532D01*
X12715Y5506D01*
X12769D01*
X12795Y5532D01*
Y5586D01*
X12769Y5612D01*
X12635Y5452D02*
Y5346D01*
X12662D01*
X12769Y5452D01*
X12795D01*
X11535Y7441D02*
X11375D01*
Y7361D01*
X11402Y7334D01*
X11455D01*
X11482Y7361D01*
Y7441D01*
Y7388D02*
X11535Y7334D01*
Y7281D02*
Y7228D01*
Y7254D01*
X11375D01*
X11402Y7281D01*
X11375Y7041D02*
X11402Y7094D01*
X11455Y7148D01*
X11509D01*
X11535Y7121D01*
Y7068D01*
X11509Y7041D01*
X11482D01*
X11455Y7068D01*
Y7148D01*
X11535Y6881D02*
Y6988D01*
X11429Y6881D01*
X11402D01*
X11375Y6908D01*
Y6961D01*
X11402Y6988D01*
X19016Y9016D02*
Y9176D01*
X18936D01*
X18909Y9149D01*
Y9096D01*
X18936Y9069D01*
X19016D01*
X18962D02*
X18909Y9016D01*
X18856D02*
X18802D01*
X18829D01*
Y9176D01*
X18856Y9149D01*
X18643Y9016D02*
Y9176D01*
X18723Y9096D01*
X18616D01*
X18456Y9016D02*
X18563D01*
X18456Y9122D01*
Y9149D01*
X18483Y9176D01*
X18536D01*
X18563Y9149D01*
X1181Y7480D02*
X1341D01*
Y7560D01*
X1314Y7587D01*
X1261D01*
X1234Y7560D01*
Y7480D01*
Y7534D02*
X1181Y7587D01*
Y7747D02*
Y7640D01*
X1288Y7747D01*
X1314D01*
X1341Y7720D01*
Y7667D01*
X1314Y7640D01*
Y7800D02*
X1341Y7827D01*
Y7880D01*
X1314Y7907D01*
X1208D01*
X1181Y7880D01*
Y7827D01*
X1208Y7800D01*
X1314D01*
X1208Y7960D02*
X1181Y7987D01*
Y8040D01*
X1208Y8067D01*
X1314D01*
X1341Y8040D01*
Y7987D01*
X1314Y7960D01*
X1288D01*
X1261Y7987D01*
Y8067D01*
X5118Y5433D02*
Y5593D01*
X5038D01*
X5011Y5566D01*
Y5513D01*
X5038Y5486D01*
X5118D01*
X5065D02*
X5011Y5433D01*
X4958D02*
X4905D01*
X4931D01*
Y5593D01*
X4958Y5566D01*
X4825Y5460D02*
X4798Y5433D01*
X4745D01*
X4718Y5460D01*
Y5566D01*
X4745Y5593D01*
X4798D01*
X4825Y5566D01*
Y5540D01*
X4798Y5513D01*
X4718D01*
X4665Y5566D02*
X4638Y5593D01*
X4585D01*
X4558Y5566D01*
Y5540D01*
X4585Y5513D01*
X4558Y5486D01*
Y5460D01*
X4585Y5433D01*
X4638D01*
X4665Y5460D01*
Y5486D01*
X4638Y5513D01*
X4665Y5540D01*
Y5566D01*
X4638Y5513D02*
X4585D01*
X8307Y7283D02*
Y7443D01*
X8227D01*
X8200Y7417D01*
Y7363D01*
X8227Y7337D01*
X8307D01*
X8254D02*
X8200Y7283D01*
X8147D02*
X8094D01*
X8120D01*
Y7443D01*
X8147Y7417D01*
X8014Y7443D02*
X7907D01*
Y7417D01*
X8014Y7310D01*
Y7283D01*
X7747Y7443D02*
X7854D01*
Y7363D01*
X7801Y7390D01*
X7774D01*
X7747Y7363D01*
Y7310D01*
X7774Y7283D01*
X7827D01*
X7854Y7310D01*
X10906Y8740D02*
X10746D01*
Y8660D01*
X10772Y8634D01*
X10826D01*
X10852Y8660D01*
Y8740D01*
Y8687D02*
X10906Y8634D01*
Y8580D02*
Y8527D01*
Y8554D01*
X10746D01*
X10772Y8580D01*
X10746Y8340D02*
X10772Y8394D01*
X10826Y8447D01*
X10879D01*
X10906Y8420D01*
Y8367D01*
X10879Y8340D01*
X10852D01*
X10826Y8367D01*
Y8447D01*
X10746Y8287D02*
Y8180D01*
X10772D01*
X10879Y8287D01*
X10906D01*
Y8110D02*
X10746D01*
Y8030D01*
X10772Y8004D01*
X10826D01*
X10852Y8030D01*
Y8110D01*
Y8057D02*
X10906Y8004D01*
Y7950D02*
Y7897D01*
Y7924D01*
X10746D01*
X10772Y7950D01*
X10746Y7710D02*
X10772Y7764D01*
X10826Y7817D01*
X10879D01*
X10906Y7790D01*
Y7737D01*
X10879Y7710D01*
X10852D01*
X10826Y7737D01*
Y7817D01*
X10746Y7550D02*
X10772Y7604D01*
X10826Y7657D01*
X10879D01*
X10906Y7630D01*
Y7577D01*
X10879Y7550D01*
X10852D01*
X10826Y7577D01*
Y7657D01*
X6693Y9094D02*
X6533D01*
Y9015D01*
X6560Y8988D01*
X6613D01*
X6640Y9015D01*
Y9094D01*
Y9041D02*
X6693Y8988D01*
Y8935D02*
Y8881D01*
Y8908D01*
X6533D01*
X6560Y8935D01*
Y8801D02*
X6533Y8775D01*
Y8721D01*
X6560Y8695D01*
X6586D01*
X6613Y8721D01*
X6640Y8695D01*
X6666D01*
X6693Y8721D01*
Y8775D01*
X6666Y8801D01*
X6640D01*
X6613Y8775D01*
X6586Y8801D01*
X6560D01*
X6613Y8775D02*
Y8721D01*
X6693Y8561D02*
X6533D01*
X6613Y8641D01*
Y8535D01*
X6693Y6378D02*
Y6538D01*
X6613D01*
X6586Y6511D01*
Y6458D01*
X6613Y6431D01*
X6693D01*
X6640D02*
X6586Y6378D01*
X6533D02*
X6480D01*
X6506D01*
Y6538D01*
X6533Y6511D01*
X6400D02*
X6373Y6538D01*
X6320D01*
X6293Y6511D01*
Y6485D01*
X6320Y6458D01*
X6293Y6431D01*
Y6405D01*
X6320Y6378D01*
X6373D01*
X6400Y6405D01*
Y6431D01*
X6373Y6458D01*
X6400Y6485D01*
Y6511D01*
X6373Y6458D02*
X6320D01*
X6133Y6538D02*
X6240D01*
Y6458D01*
X6186Y6485D01*
X6160D01*
X6133Y6458D01*
Y6405D01*
X6160Y6378D01*
X6213D01*
X6240Y6405D01*
X5433Y6575D02*
X5273D01*
Y6495D01*
X5300Y6468D01*
X5353D01*
X5380Y6495D01*
Y6575D01*
Y6521D02*
X5433Y6468D01*
Y6415D02*
Y6362D01*
Y6388D01*
X5273D01*
X5300Y6415D01*
X5406Y6282D02*
X5433Y6255D01*
Y6202D01*
X5406Y6175D01*
X5300D01*
X5273Y6202D01*
Y6255D01*
X5300Y6282D01*
X5326D01*
X5353Y6255D01*
Y6175D01*
X5433Y6015D02*
Y6122D01*
X5326Y6015D01*
X5300D01*
X5273Y6042D01*
Y6095D01*
X5300Y6122D01*
X3701Y6890D02*
X3541D01*
Y6810D01*
X3568Y6783D01*
X3621D01*
X3647Y6810D01*
Y6890D01*
Y6836D02*
X3701Y6783D01*
Y6623D02*
Y6730D01*
X3594Y6623D01*
X3568D01*
X3541Y6650D01*
Y6703D01*
X3568Y6730D01*
Y6570D02*
X3541Y6543D01*
Y6490D01*
X3568Y6463D01*
X3674D01*
X3701Y6490D01*
Y6543D01*
X3674Y6570D01*
X3568D01*
X3701Y6410D02*
Y6357D01*
Y6383D01*
X3541D01*
X3568Y6410D01*
X4331Y5945D02*
X4491D01*
Y6025D01*
X4464Y6052D01*
X4411D01*
X4384Y6025D01*
Y5945D01*
Y5998D02*
X4331Y6052D01*
Y6211D02*
Y6105D01*
X4437Y6211D01*
X4464D01*
X4491Y6185D01*
Y6131D01*
X4464Y6105D01*
Y6265D02*
X4491Y6291D01*
Y6345D01*
X4464Y6371D01*
X4357D01*
X4331Y6345D01*
Y6291D01*
X4357Y6265D01*
X4464D01*
Y6425D02*
X4491Y6451D01*
Y6505D01*
X4464Y6531D01*
X4357D01*
X4331Y6505D01*
Y6451D01*
X4357Y6425D01*
X4464D01*
X3701Y6181D02*
X3541D01*
Y6101D01*
X3568Y6074D01*
X3621D01*
X3647Y6101D01*
Y6181D01*
Y6128D02*
X3701Y6074D01*
Y6021D02*
Y5968D01*
Y5994D01*
X3541D01*
X3568Y6021D01*
X3674Y5888D02*
X3701Y5861D01*
Y5808D01*
X3674Y5781D01*
X3568D01*
X3541Y5808D01*
Y5861D01*
X3568Y5888D01*
X3594D01*
X3621Y5861D01*
Y5781D01*
X3674Y5728D02*
X3701Y5701D01*
Y5648D01*
X3674Y5621D01*
X3568D01*
X3541Y5648D01*
Y5701D01*
X3568Y5728D01*
X3594D01*
X3621Y5701D01*
Y5621D01*
X7323Y5433D02*
Y5593D01*
X7243D01*
X7216Y5566D01*
Y5513D01*
X7243Y5486D01*
X7323D01*
X7270D02*
X7216Y5433D01*
X7163D02*
X7110D01*
X7136D01*
Y5593D01*
X7163Y5566D01*
X7030Y5593D02*
X6923D01*
Y5566D01*
X7030Y5460D01*
Y5433D01*
X6870Y5593D02*
X6763D01*
Y5566D01*
X6870Y5460D01*
Y5433D01*
X5433Y5984D02*
X5273D01*
Y5904D01*
X5300Y5878D01*
X5353D01*
X5380Y5904D01*
Y5984D01*
Y5931D02*
X5433Y5878D01*
Y5824D02*
Y5771D01*
Y5798D01*
X5273D01*
X5300Y5824D01*
X5406Y5691D02*
X5433Y5664D01*
Y5611D01*
X5406Y5584D01*
X5300D01*
X5273Y5611D01*
Y5664D01*
X5300Y5691D01*
X5326D01*
X5353Y5664D01*
Y5584D01*
X5433Y5531D02*
Y5478D01*
Y5504D01*
X5273D01*
X5300Y5531D01*
X6142Y7874D02*
X6302D01*
Y7954D01*
X6275Y7981D01*
X6222D01*
X6195Y7954D01*
Y7874D01*
Y7927D02*
X6142Y7981D01*
Y8034D02*
Y8087D01*
Y8061D01*
X6302D01*
X6275Y8034D01*
Y8167D02*
X6302Y8194D01*
Y8247D01*
X6275Y8274D01*
X6248D01*
X6222Y8247D01*
X6195Y8274D01*
X6168D01*
X6142Y8247D01*
Y8194D01*
X6168Y8167D01*
X6195D01*
X6222Y8194D01*
X6248Y8167D01*
X6275D01*
X6222Y8194D02*
Y8247D01*
X6302Y8327D02*
Y8434D01*
X6275D01*
X6168Y8327D01*
X6142D01*
X6654Y5906D02*
X6494D01*
Y5826D01*
X6520Y5799D01*
X6574D01*
X6600Y5826D01*
Y5906D01*
Y5852D02*
X6654Y5799D01*
Y5746D02*
Y5692D01*
Y5719D01*
X6494D01*
X6520Y5746D01*
Y5612D02*
X6494Y5586D01*
Y5532D01*
X6520Y5506D01*
X6547D01*
X6574Y5532D01*
X6600Y5506D01*
X6627D01*
X6654Y5532D01*
Y5586D01*
X6627Y5612D01*
X6600D01*
X6574Y5586D01*
X6547Y5612D01*
X6520D01*
X6574Y5586D02*
Y5532D01*
X6520Y5452D02*
X6494Y5426D01*
Y5372D01*
X6520Y5346D01*
X6547D01*
X6574Y5372D01*
X6600Y5346D01*
X6627D01*
X6654Y5372D01*
Y5426D01*
X6627Y5452D01*
X6600D01*
X6574Y5426D01*
X6547Y5452D01*
X6520D01*
X6574Y5426D02*
Y5372D01*
X6693Y7244D02*
Y7404D01*
X6613D01*
X6586Y7377D01*
Y7324D01*
X6613Y7297D01*
X6693D01*
X6640D02*
X6586Y7244D01*
X6533D02*
X6480D01*
X6506D01*
Y7404D01*
X6533Y7377D01*
X6400D02*
X6373Y7404D01*
X6320D01*
X6293Y7377D01*
Y7351D01*
X6320Y7324D01*
X6293Y7297D01*
Y7271D01*
X6320Y7244D01*
X6373D01*
X6400Y7271D01*
Y7297D01*
X6373Y7324D01*
X6400Y7351D01*
Y7377D01*
X6373Y7324D02*
X6320D01*
X6133Y7404D02*
X6186Y7377D01*
X6240Y7324D01*
Y7271D01*
X6213Y7244D01*
X6160D01*
X6133Y7271D01*
Y7297D01*
X6160Y7324D01*
X6240D01*
X6063Y5433D02*
Y5593D01*
X5983D01*
X5956Y5566D01*
Y5513D01*
X5983Y5486D01*
X6063D01*
X6010D02*
X5956Y5433D01*
X5903D02*
X5850D01*
X5876D01*
Y5593D01*
X5903Y5566D01*
X5770Y5460D02*
X5743Y5433D01*
X5690D01*
X5663Y5460D01*
Y5566D01*
X5690Y5593D01*
X5743D01*
X5770Y5566D01*
Y5540D01*
X5743Y5513D01*
X5663D01*
X5610Y5566D02*
X5583Y5593D01*
X5530D01*
X5503Y5566D01*
Y5460D01*
X5530Y5433D01*
X5583D01*
X5610Y5460D01*
Y5566D01*
X5433Y7205D02*
X5273D01*
Y7125D01*
X5300Y7098D01*
X5353D01*
X5380Y7125D01*
Y7205D01*
Y7151D02*
X5433Y7098D01*
Y7045D02*
Y6991D01*
Y7018D01*
X5273D01*
X5300Y7045D01*
X5406Y6911D02*
X5433Y6885D01*
Y6832D01*
X5406Y6805D01*
X5300D01*
X5273Y6832D01*
Y6885D01*
X5300Y6911D01*
X5326D01*
X5353Y6885D01*
Y6805D01*
X5433Y6672D02*
X5273D01*
X5353Y6752D01*
Y6645D01*
X4331Y6575D02*
X4491D01*
Y6655D01*
X4464Y6681D01*
X4411D01*
X4384Y6655D01*
Y6575D01*
Y6628D02*
X4331Y6681D01*
Y6841D02*
Y6735D01*
X4437Y6841D01*
X4464D01*
X4491Y6815D01*
Y6761D01*
X4464Y6735D01*
Y6895D02*
X4491Y6921D01*
Y6975D01*
X4464Y7001D01*
X4357D01*
X4331Y6975D01*
Y6921D01*
X4357Y6895D01*
X4464D01*
X4331Y7161D02*
Y7055D01*
X4437Y7161D01*
X4464D01*
X4491Y7135D01*
Y7081D01*
X4464Y7055D01*
X5472Y7283D02*
Y7443D01*
X5392D01*
X5366Y7417D01*
Y7363D01*
X5392Y7337D01*
X5472D01*
X5419D02*
X5366Y7283D01*
X5312D02*
X5259D01*
X5286D01*
Y7443D01*
X5312Y7417D01*
X5179Y7310D02*
X5153Y7283D01*
X5099D01*
X5073Y7310D01*
Y7417D01*
X5099Y7443D01*
X5153D01*
X5179Y7417D01*
Y7390D01*
X5153Y7363D01*
X5073D01*
X4913Y7443D02*
X5019D01*
Y7363D01*
X4966Y7390D01*
X4939D01*
X4913Y7363D01*
Y7310D01*
X4939Y7283D01*
X4993D01*
X5019Y7310D01*
X6024Y8189D02*
Y8349D01*
X5944D01*
X5917Y8322D01*
Y8269D01*
X5944Y8242D01*
X6024D01*
X5970D02*
X5917Y8189D01*
X5864D02*
X5810D01*
X5837D01*
Y8349D01*
X5864Y8322D01*
X5730Y8216D02*
X5704Y8189D01*
X5650D01*
X5624Y8216D01*
Y8322D01*
X5650Y8349D01*
X5704D01*
X5730Y8322D01*
Y8296D01*
X5704Y8269D01*
X5624D01*
X5570Y8349D02*
X5464D01*
Y8322D01*
X5570Y8216D01*
Y8189D01*
X4331Y7205D02*
X4491D01*
Y7285D01*
X4464Y7311D01*
X4411D01*
X4384Y7285D01*
Y7205D01*
Y7258D02*
X4331Y7311D01*
Y7471D02*
Y7365D01*
X4437Y7471D01*
X4464D01*
X4491Y7445D01*
Y7391D01*
X4464Y7365D01*
Y7525D02*
X4491Y7551D01*
Y7605D01*
X4464Y7631D01*
X4357D01*
X4331Y7605D01*
Y7551D01*
X4357Y7525D01*
X4464D01*
X4331Y7765D02*
X4491D01*
X4411Y7685D01*
Y7791D01*
X26220Y2598D02*
Y2758D01*
X26140D01*
X26114Y2732D01*
Y2678D01*
X26140Y2652D01*
X26220D01*
X26167D02*
X26114Y2598D01*
X26061D02*
X26007D01*
X26034D01*
Y2758D01*
X26061Y2732D01*
X25927Y2598D02*
X25874D01*
X25901D01*
Y2758D01*
X25927Y2732D01*
X25794Y2598D02*
X25741D01*
X25767D01*
Y2758D01*
X25794Y2732D01*
X25906Y2362D02*
Y2522D01*
X25826D01*
X25799Y2495D01*
Y2442D01*
X25826Y2416D01*
X25906D01*
X25852D02*
X25799Y2362D01*
X25746D02*
X25692D01*
X25719D01*
Y2522D01*
X25746Y2495D01*
X25612Y2362D02*
X25559D01*
X25586D01*
Y2522D01*
X25612Y2495D01*
X25372Y2522D02*
X25426Y2495D01*
X25479Y2442D01*
Y2389D01*
X25452Y2362D01*
X25399D01*
X25372Y2389D01*
Y2416D01*
X25399Y2442D01*
X25479D01*
X20484Y7664D02*
Y7771D01*
X20511Y7798D01*
X20564D01*
X20591Y7771D01*
Y7664D01*
X20564Y7638D01*
X20511D01*
X20537Y7691D02*
X20484Y7638D01*
X20511D02*
X20484Y7664D01*
X20431Y7771D02*
X20404Y7798D01*
X20351D01*
X20324Y7771D01*
Y7744D01*
X20351Y7718D01*
X20377D01*
X20351D01*
X20324Y7691D01*
Y7664D01*
X20351Y7638D01*
X20404D01*
X20431Y7664D01*
X29486Y8819D02*
X29646D01*
Y8712D01*
X29486Y8552D02*
Y8659D01*
X29566D01*
X29539Y8606D01*
Y8579D01*
X29566Y8552D01*
X29619D01*
X29646Y8579D01*
Y8632D01*
X29619Y8659D01*
X29764Y7876D02*
Y7717D01*
X29657D01*
X29497Y7876D02*
X29551Y7850D01*
X29604Y7797D01*
Y7743D01*
X29577Y7717D01*
X29524D01*
X29497Y7743D01*
Y7770D01*
X29524Y7797D01*
X29604D01*
X13231Y11102D02*
X13071D01*
Y11209D01*
X13204Y11262D02*
X13231Y11289D01*
Y11342D01*
X13204Y11369D01*
X13177D01*
X13151Y11342D01*
X13124Y11369D01*
X13098D01*
X13071Y11342D01*
Y11289D01*
X13098Y11262D01*
X13124D01*
X13151Y11289D01*
X13177Y11262D01*
X13204D01*
X13151Y11289D02*
Y11342D01*
X12601Y11102D02*
X12441D01*
Y11209D01*
X12468Y11262D02*
X12441Y11289D01*
Y11342D01*
X12468Y11369D01*
X12574D01*
X12601Y11342D01*
Y11289D01*
X12574Y11262D01*
X12548D01*
X12521Y11289D01*
Y11369D01*
X13397Y9543D02*
X13424Y9569D01*
X13477D01*
X13504Y9543D01*
Y9436D01*
X13477Y9409D01*
X13424D01*
X13397Y9436D01*
X13344D02*
X13317Y9409D01*
X13264D01*
X13237Y9436D01*
Y9543D01*
X13264Y9569D01*
X13317D01*
X13344Y9543D01*
Y9516D01*
X13317Y9489D01*
X13237D01*
X13184Y9409D02*
X13131D01*
X13157D01*
Y9569D01*
X13184Y9543D01*
X9434Y11350D02*
X9407Y11377D01*
Y11430D01*
X9434Y11457D01*
X9540D01*
X9567Y11430D01*
Y11377D01*
X9540Y11350D01*
X9567Y11297D02*
Y11243D01*
Y11270D01*
X9407D01*
X9434Y11297D01*
X9567Y11163D02*
Y11110D01*
Y11137D01*
X9407D01*
X9434Y11163D01*
X9407Y11030D02*
Y10924D01*
X9434D01*
X9540Y11030D01*
X9567D01*
X17492Y8913D02*
X17518Y8939D01*
X17572D01*
X17598Y8913D01*
Y8806D01*
X17572Y8780D01*
X17518D01*
X17492Y8806D01*
X17332Y8939D02*
X17385Y8913D01*
X17438Y8860D01*
Y8806D01*
X17412Y8780D01*
X17358D01*
X17332Y8806D01*
Y8833D01*
X17358Y8860D01*
X17438D01*
X17172Y8939D02*
X17279D01*
Y8860D01*
X17225Y8886D01*
X17199D01*
X17172Y8860D01*
Y8806D01*
X17199Y8780D01*
X17252D01*
X17279Y8806D01*
X23240Y7929D02*
X23266Y7955D01*
X23320D01*
X23346Y7929D01*
Y7822D01*
X23320Y7795D01*
X23266D01*
X23240Y7822D01*
X23080Y7955D02*
X23187D01*
Y7875D01*
X23133Y7902D01*
X23107D01*
X23080Y7875D01*
Y7822D01*
X23107Y7795D01*
X23160D01*
X23187Y7822D01*
X23027D02*
X23000Y7795D01*
X22947D01*
X22920Y7822D01*
Y7929D01*
X22947Y7955D01*
X23000D01*
X23027Y7929D01*
Y7902D01*
X23000Y7875D01*
X22920D01*
X27689Y5015D02*
X27715Y5042D01*
X27769D01*
X27795Y5015D01*
Y4909D01*
X27769Y4882D01*
X27715D01*
X27689Y4909D01*
X27529Y5042D02*
X27635D01*
Y4962D01*
X27582Y4989D01*
X27555D01*
X27529Y4962D01*
Y4909D01*
X27555Y4882D01*
X27609D01*
X27635Y4909D01*
X27475Y4882D02*
X27422D01*
X27449D01*
Y5042D01*
X27475Y5015D01*
X29303Y9307D02*
X29329Y9333D01*
X29383D01*
X29409Y9307D01*
Y9200D01*
X29383Y9173D01*
X29329D01*
X29303Y9200D01*
X29170Y9173D02*
Y9333D01*
X29249Y9253D01*
X29143D01*
X29090Y9307D02*
X29063Y9333D01*
X29010D01*
X28983Y9307D01*
Y9280D01*
X29010Y9253D01*
X28983Y9227D01*
Y9200D01*
X29010Y9173D01*
X29063D01*
X29090Y9200D01*
Y9227D01*
X29063Y9253D01*
X29090Y9280D01*
Y9307D01*
X29063Y9253D02*
X29010D01*
X29197Y6744D02*
X29171Y6770D01*
Y6824D01*
X29197Y6850D01*
X29304D01*
X29331Y6824D01*
Y6770D01*
X29304Y6744D01*
X29331Y6610D02*
X29171D01*
X29251Y6690D01*
Y6584D01*
X29304Y6531D02*
X29331Y6504D01*
Y6451D01*
X29304Y6424D01*
X29197D01*
X29171Y6451D01*
Y6504D01*
X29197Y6531D01*
X29224D01*
X29251Y6504D01*
Y6424D01*
X28528Y8712D02*
X28501Y8739D01*
Y8792D01*
X28528Y8819D01*
X28635D01*
X28661Y8792D01*
Y8739D01*
X28635Y8712D01*
X28501Y8552D02*
Y8659D01*
X28581D01*
X28555Y8606D01*
Y8579D01*
X28581Y8552D01*
X28635D01*
X28661Y8579D01*
Y8632D01*
X28635Y8659D01*
X28528Y8499D02*
X28501Y8472D01*
Y8419D01*
X28528Y8392D01*
X28635D01*
X28661Y8419D01*
Y8472D01*
X28635Y8499D01*
X28528D01*
X29933Y7535D02*
X29959Y7562D01*
X30013D01*
X30039Y7535D01*
Y7428D01*
X30013Y7402D01*
X29959D01*
X29933Y7428D01*
X29799Y7402D02*
Y7562D01*
X29879Y7482D01*
X29773D01*
X29719Y7562D02*
X29613D01*
Y7535D01*
X29719Y7428D01*
Y7402D01*
X30090Y7220D02*
X30117Y7247D01*
X30170D01*
X30197Y7220D01*
Y7113D01*
X30170Y7087D01*
X30117D01*
X30090Y7113D01*
X29957Y7087D02*
Y7247D01*
X30037Y7167D01*
X29930D01*
X29770Y7247D02*
X29824Y7220D01*
X29877Y7167D01*
Y7113D01*
X29850Y7087D01*
X29797D01*
X29770Y7113D01*
Y7140D01*
X29797Y7167D01*
X29877D01*
X25878Y9700D02*
X25904Y9727D01*
X25958D01*
X25984Y9700D01*
Y9594D01*
X25958Y9567D01*
X25904D01*
X25878Y9594D01*
X25718Y9727D02*
X25824D01*
Y9647D01*
X25771Y9674D01*
X25744D01*
X25718Y9647D01*
Y9594D01*
X25744Y9567D01*
X25798D01*
X25824Y9594D01*
X25558Y9727D02*
X25664D01*
Y9647D01*
X25611Y9674D01*
X25584D01*
X25558Y9647D01*
Y9594D01*
X25584Y9567D01*
X25638D01*
X25664Y9594D01*
X25996Y8795D02*
X26022Y8821D01*
X26076D01*
X26102Y8795D01*
Y8688D01*
X26076Y8661D01*
X26022D01*
X25996Y8688D01*
X25836Y8821D02*
X25942D01*
Y8741D01*
X25889Y8768D01*
X25862D01*
X25836Y8741D01*
Y8688D01*
X25862Y8661D01*
X25916D01*
X25942Y8688D01*
X25702Y8661D02*
Y8821D01*
X25782Y8741D01*
X25676D01*
X24342Y7495D02*
X24369Y7522D01*
X24422D01*
X24449Y7495D01*
Y7389D01*
X24422Y7362D01*
X24369D01*
X24342Y7389D01*
X24182Y7522D02*
X24289D01*
Y7442D01*
X24236Y7469D01*
X24209D01*
X24182Y7442D01*
Y7389D01*
X24209Y7362D01*
X24262D01*
X24289Y7389D01*
X24129Y7495D02*
X24102Y7522D01*
X24049D01*
X24022Y7495D01*
Y7469D01*
X24049Y7442D01*
X24022Y7416D01*
Y7389D01*
X24049Y7362D01*
X24102D01*
X24129Y7389D01*
Y7416D01*
X24102Y7442D01*
X24129Y7469D01*
Y7495D01*
X24102Y7442D02*
X24049D01*
X24342Y7181D02*
X24369Y7207D01*
X24422D01*
X24449Y7181D01*
Y7074D01*
X24422Y7047D01*
X24369D01*
X24342Y7074D01*
X24182Y7207D02*
X24289D01*
Y7127D01*
X24236Y7154D01*
X24209D01*
X24182Y7127D01*
Y7074D01*
X24209Y7047D01*
X24262D01*
X24289Y7074D01*
X24129Y7207D02*
X24022D01*
Y7181D01*
X24129Y7074D01*
Y7047D01*
X30291Y8374D02*
X30317Y8348D01*
Y8294D01*
X30291Y8268D01*
X30184D01*
X30157Y8294D01*
Y8348D01*
X30184Y8374D01*
X30157Y8508D02*
X30317D01*
X30237Y8428D01*
Y8534D01*
X30317Y8694D02*
Y8588D01*
X30237D01*
X30264Y8641D01*
Y8668D01*
X30237Y8694D01*
X30184D01*
X30157Y8668D01*
Y8614D01*
X30184Y8588D01*
X27780Y9382D02*
X27753Y9408D01*
Y9462D01*
X27780Y9488D01*
X27887D01*
X27913Y9462D01*
Y9408D01*
X27887Y9382D01*
X27753Y9222D02*
Y9328D01*
X27833D01*
X27807Y9275D01*
Y9248D01*
X27833Y9222D01*
X27887D01*
X27913Y9248D01*
Y9302D01*
X27887Y9328D01*
X27913Y9062D02*
Y9168D01*
X27807Y9062D01*
X27780D01*
X27753Y9088D01*
Y9142D01*
X27780Y9168D01*
X26245Y9854D02*
X26218Y9881D01*
Y9934D01*
X26245Y9961D01*
X26351D01*
X26378Y9934D01*
Y9881D01*
X26351Y9854D01*
X26218Y9694D02*
Y9801D01*
X26298D01*
X26271Y9747D01*
Y9721D01*
X26298Y9694D01*
X26351D01*
X26378Y9721D01*
Y9774D01*
X26351Y9801D01*
X26245Y9641D02*
X26218Y9614D01*
Y9561D01*
X26245Y9534D01*
X26271D01*
X26298Y9561D01*
Y9587D01*
Y9561D01*
X26325Y9534D01*
X26351D01*
X26378Y9561D01*
Y9614D01*
X26351Y9641D01*
X25182Y4775D02*
X25155Y4802D01*
Y4855D01*
X25182Y4882D01*
X25288D01*
X25315Y4855D01*
Y4802D01*
X25288Y4775D01*
X25155Y4615D02*
Y4722D01*
X25235D01*
X25208Y4669D01*
Y4642D01*
X25235Y4615D01*
X25288D01*
X25315Y4642D01*
Y4695D01*
X25288Y4722D01*
X25155Y4455D02*
X25182Y4509D01*
X25235Y4562D01*
X25288D01*
X25315Y4535D01*
Y4482D01*
X25288Y4455D01*
X25262D01*
X25235Y4482D01*
Y4562D01*
X5248Y4858D02*
X5274Y4884D01*
X5328D01*
X5354Y4858D01*
Y4751D01*
X5328Y4724D01*
X5274D01*
X5248Y4751D01*
X5194Y4724D02*
X5141D01*
X5168D01*
Y4884D01*
X5194Y4858D01*
X5061D02*
X5034Y4884D01*
X4981D01*
X4954Y4858D01*
Y4831D01*
X4981Y4804D01*
X5008D01*
X4981D01*
X4954Y4778D01*
Y4751D01*
X4981Y4724D01*
X5034D01*
X5061Y4751D01*
X4901Y4858D02*
X4874Y4884D01*
X4821D01*
X4795Y4858D01*
Y4831D01*
X4821Y4804D01*
X4795Y4778D01*
Y4751D01*
X4821Y4724D01*
X4874D01*
X4901Y4751D01*
Y4778D01*
X4874Y4804D01*
X4901Y4831D01*
Y4858D01*
X4874Y4804D02*
X4821D01*
X2137Y1905D02*
X2164Y1932D01*
X2217D01*
X2244Y1905D01*
Y1798D01*
X2217Y1772D01*
X2164D01*
X2137Y1798D01*
X2084Y1772D02*
X2031D01*
X2057D01*
Y1932D01*
X2084Y1905D01*
X1871Y1772D02*
Y1932D01*
X1951Y1852D01*
X1844D01*
X1684Y1932D02*
X1791D01*
Y1852D01*
X1738Y1878D01*
X1711D01*
X1684Y1852D01*
Y1798D01*
X1711Y1772D01*
X1764D01*
X1791Y1798D01*
X4342Y1984D02*
X4369Y2010D01*
X4422D01*
X4449Y1984D01*
Y1877D01*
X4422Y1850D01*
X4369D01*
X4342Y1877D01*
X4289Y1850D02*
X4236D01*
X4262D01*
Y2010D01*
X4289Y1984D01*
X4076Y1850D02*
Y2010D01*
X4156Y1930D01*
X4049D01*
X3996Y1984D02*
X3969Y2010D01*
X3916D01*
X3889Y1984D01*
Y1877D01*
X3916Y1850D01*
X3969D01*
X3996Y1877D01*
Y1984D01*
X2846Y2220D02*
X2873Y2247D01*
X2926D01*
X2953Y2220D01*
Y2113D01*
X2926Y2087D01*
X2873D01*
X2846Y2113D01*
X2793Y2087D02*
X2739D01*
X2766D01*
Y2247D01*
X2793Y2220D01*
X2580Y2087D02*
Y2247D01*
X2660Y2167D01*
X2553D01*
X2393Y2087D02*
X2500D01*
X2393Y2193D01*
Y2220D01*
X2420Y2247D01*
X2473D01*
X2500Y2220D01*
X11402Y7964D02*
X11375Y7991D01*
Y8044D01*
X11402Y8071D01*
X11509D01*
X11535Y8044D01*
Y7991D01*
X11509Y7964D01*
X11535Y7911D02*
Y7858D01*
Y7884D01*
X11375D01*
X11402Y7911D01*
Y7778D02*
X11375Y7751D01*
Y7698D01*
X11402Y7671D01*
X11509D01*
X11535Y7698D01*
Y7751D01*
X11509Y7778D01*
X11402D01*
X11375Y7511D02*
X11402Y7564D01*
X11455Y7618D01*
X11509D01*
X11535Y7591D01*
Y7538D01*
X11509Y7511D01*
X11482D01*
X11455Y7538D01*
Y7618D01*
X12623Y7452D02*
X12596Y7479D01*
Y7532D01*
X12623Y7559D01*
X12729D01*
X12756Y7532D01*
Y7479D01*
X12729Y7452D01*
Y7399D02*
X12756Y7372D01*
Y7319D01*
X12729Y7292D01*
X12623D01*
X12596Y7319D01*
Y7372D01*
X12623Y7399D01*
X12649D01*
X12676Y7372D01*
Y7292D01*
X12729Y7239D02*
X12756Y7212D01*
Y7159D01*
X12729Y7133D01*
X12623D01*
X12596Y7159D01*
Y7212D01*
X12623Y7239D01*
X12649D01*
X12676Y7212D01*
Y7133D01*
X14197Y7767D02*
X14171Y7794D01*
Y7847D01*
X14197Y7874D01*
X14304D01*
X14331Y7847D01*
Y7794D01*
X14304Y7767D01*
X14197Y7714D02*
X14171Y7687D01*
Y7634D01*
X14197Y7607D01*
X14224D01*
X14251Y7634D01*
X14277Y7607D01*
X14304D01*
X14331Y7634D01*
Y7687D01*
X14304Y7714D01*
X14277D01*
X14251Y7687D01*
X14224Y7714D01*
X14197D01*
X14251Y7687D02*
Y7634D01*
X14171Y7447D02*
Y7554D01*
X14251D01*
X14224Y7501D01*
Y7474D01*
X14251Y7447D01*
X14304D01*
X14331Y7474D01*
Y7527D01*
X14304Y7554D01*
X14460Y6787D02*
X14487Y6813D01*
X14540D01*
X14567Y6787D01*
Y6680D01*
X14540Y6654D01*
X14487D01*
X14460Y6680D01*
X14407Y6787D02*
X14380Y6813D01*
X14327D01*
X14300Y6787D01*
Y6760D01*
X14327Y6734D01*
X14300Y6707D01*
Y6680D01*
X14327Y6654D01*
X14380D01*
X14407Y6680D01*
Y6707D01*
X14380Y6734D01*
X14407Y6760D01*
Y6787D01*
X14380Y6734D02*
X14327D01*
X14247Y6787D02*
X14220Y6813D01*
X14167D01*
X14140Y6787D01*
Y6760D01*
X14167Y6734D01*
X14194D01*
X14167D01*
X14140Y6707D01*
Y6680D01*
X14167Y6654D01*
X14220D01*
X14247Y6680D01*
X13568Y9145D02*
X13541Y9172D01*
Y9225D01*
X13568Y9252D01*
X13674D01*
X13701Y9225D01*
Y9172D01*
X13674Y9145D01*
X13568Y9092D02*
X13541Y9065D01*
Y9012D01*
X13568Y8985D01*
X13594D01*
X13621Y9012D01*
X13647Y8985D01*
X13674D01*
X13701Y9012D01*
Y9065D01*
X13674Y9092D01*
X13647D01*
X13621Y9065D01*
X13594Y9092D01*
X13568D01*
X13621Y9065D02*
Y9012D01*
X13568Y8932D02*
X13541Y8905D01*
Y8852D01*
X13568Y8825D01*
X13594D01*
X13621Y8852D01*
X13647Y8825D01*
X13674D01*
X13701Y8852D01*
Y8905D01*
X13674Y8932D01*
X13647D01*
X13621Y8905D01*
X13594Y8932D01*
X13568D01*
X13621Y8905D02*
Y8852D01*
X13909Y5881D02*
X13936Y5908D01*
X13989D01*
X14016Y5881D01*
Y5775D01*
X13989Y5748D01*
X13936D01*
X13909Y5775D01*
X13856Y5881D02*
X13829Y5908D01*
X13776D01*
X13749Y5881D01*
Y5855D01*
X13776Y5828D01*
X13749Y5801D01*
Y5775D01*
X13776Y5748D01*
X13829D01*
X13856Y5775D01*
Y5801D01*
X13829Y5828D01*
X13856Y5855D01*
Y5881D01*
X13829Y5828D02*
X13776D01*
X13696Y5748D02*
X13643D01*
X13669D01*
Y5908D01*
X13696Y5881D01*
X14460Y6472D02*
X14487Y6499D01*
X14540D01*
X14567Y6472D01*
Y6365D01*
X14540Y6339D01*
X14487D01*
X14460Y6365D01*
X14407Y6472D02*
X14380Y6499D01*
X14327D01*
X14300Y6472D01*
Y6445D01*
X14327Y6419D01*
X14300Y6392D01*
Y6365D01*
X14327Y6339D01*
X14380D01*
X14407Y6365D01*
Y6392D01*
X14380Y6419D01*
X14407Y6445D01*
Y6472D01*
X14380Y6419D02*
X14327D01*
X14140Y6339D02*
X14247D01*
X14140Y6445D01*
Y6472D01*
X14167Y6499D01*
X14220D01*
X14247Y6472D01*
X13292Y7571D02*
X13265Y7597D01*
Y7651D01*
X13292Y7677D01*
X13399D01*
X13425Y7651D01*
Y7597D01*
X13399Y7571D01*
X13292Y7517D02*
X13265Y7491D01*
Y7437D01*
X13292Y7411D01*
X13319D01*
X13345Y7437D01*
X13372Y7411D01*
X13399D01*
X13425Y7437D01*
Y7491D01*
X13399Y7517D01*
X13372D01*
X13345Y7491D01*
X13319Y7517D01*
X13292D01*
X13345Y7491D02*
Y7437D01*
X13425Y7277D02*
X13265D01*
X13345Y7357D01*
Y7251D01*
X16717Y7452D02*
X16690Y7479D01*
Y7532D01*
X16717Y7559D01*
X16824D01*
X16850Y7532D01*
Y7479D01*
X16824Y7452D01*
X16690Y7292D02*
X16717Y7346D01*
X16770Y7399D01*
X16824D01*
X16850Y7372D01*
Y7319D01*
X16824Y7292D01*
X16797D01*
X16770Y7319D01*
Y7399D01*
X16717Y7239D02*
X16690Y7212D01*
Y7159D01*
X16717Y7133D01*
X16744D01*
X16770Y7159D01*
X16797Y7133D01*
X16824D01*
X16850Y7159D01*
Y7212D01*
X16824Y7239D01*
X16797D01*
X16770Y7212D01*
X16744Y7239D01*
X16717D01*
X16770Y7212D02*
Y7159D01*
X19394Y5681D02*
X19368Y5707D01*
Y5761D01*
X19394Y5787D01*
X19501D01*
X19528Y5761D01*
Y5707D01*
X19501Y5681D01*
X19368Y5521D02*
X19394Y5574D01*
X19448Y5627D01*
X19501D01*
X19528Y5601D01*
Y5547D01*
X19501Y5521D01*
X19474D01*
X19448Y5547D01*
Y5627D01*
X19528Y5388D02*
X19368D01*
X19448Y5468D01*
Y5361D01*
X12610Y7771D02*
X12637Y7798D01*
X12690D01*
X12717Y7771D01*
Y7664D01*
X12690Y7638D01*
X12637D01*
X12610Y7664D01*
X12557D02*
X12530Y7638D01*
X12477D01*
X12450Y7664D01*
Y7771D01*
X12477Y7798D01*
X12530D01*
X12557Y7771D01*
Y7744D01*
X12530Y7718D01*
X12450D01*
X12290Y7798D02*
X12397D01*
Y7718D01*
X12343Y7744D01*
X12317D01*
X12290Y7718D01*
Y7664D01*
X12317Y7638D01*
X12370D01*
X12397Y7664D01*
X12334Y6432D02*
X12361Y6459D01*
X12414D01*
X12441Y6432D01*
Y6326D01*
X12414Y6299D01*
X12361D01*
X12334Y6326D01*
X12281D02*
X12254Y6299D01*
X12201D01*
X12174Y6326D01*
Y6432D01*
X12201Y6459D01*
X12254D01*
X12281Y6432D01*
Y6406D01*
X12254Y6379D01*
X12174D01*
X12121Y6432D02*
X12094Y6459D01*
X12041D01*
X12014Y6432D01*
Y6406D01*
X12041Y6379D01*
X12014Y6353D01*
Y6326D01*
X12041Y6299D01*
X12094D01*
X12121Y6326D01*
Y6353D01*
X12094Y6379D01*
X12121Y6406D01*
Y6432D01*
X12094Y6379D02*
X12041D01*
X16717Y5799D02*
X16690Y5826D01*
Y5879D01*
X16717Y5906D01*
X16824D01*
X16850Y5879D01*
Y5826D01*
X16824Y5799D01*
X16690Y5639D02*
X16717Y5692D01*
X16770Y5746D01*
X16824D01*
X16850Y5719D01*
Y5666D01*
X16824Y5639D01*
X16797D01*
X16770Y5666D01*
Y5746D01*
X16690Y5586D02*
Y5479D01*
X16717D01*
X16824Y5586D01*
X16850D01*
X13397Y8086D02*
X13424Y8113D01*
X13477D01*
X13504Y8086D01*
Y7979D01*
X13477Y7953D01*
X13424D01*
X13397Y7979D01*
X13344D02*
X13317Y7953D01*
X13264D01*
X13237Y7979D01*
Y8086D01*
X13264Y8113D01*
X13317D01*
X13344Y8086D01*
Y8059D01*
X13317Y8033D01*
X13237D01*
X13184Y8086D02*
X13157Y8113D01*
X13104D01*
X13077Y8086D01*
Y7979D01*
X13104Y7953D01*
X13157D01*
X13184Y7979D01*
Y8086D01*
X12938Y9145D02*
X12911Y9172D01*
Y9225D01*
X12938Y9252D01*
X13044D01*
X13071Y9225D01*
Y9172D01*
X13044Y9145D01*
Y9092D02*
X13071Y9065D01*
Y9012D01*
X13044Y8985D01*
X12938D01*
X12911Y9012D01*
Y9065D01*
X12938Y9092D01*
X12964D01*
X12991Y9065D01*
Y8985D01*
X12938Y8932D02*
X12911Y8905D01*
Y8852D01*
X12938Y8825D01*
X12964D01*
X12991Y8852D01*
Y8879D01*
Y8852D01*
X13018Y8825D01*
X13044D01*
X13071Y8852D01*
Y8905D01*
X13044Y8932D01*
X14788Y7256D02*
X14761Y7282D01*
Y7336D01*
X14788Y7362D01*
X14895D01*
X14921Y7336D01*
Y7282D01*
X14895Y7256D01*
X14761Y7202D02*
Y7096D01*
X14788D01*
X14895Y7202D01*
X14921D01*
X14788Y7042D02*
X14761Y7016D01*
Y6962D01*
X14788Y6936D01*
X14815D01*
X14841Y6962D01*
X14868Y6936D01*
X14895D01*
X14921Y6962D01*
Y7016D01*
X14895Y7042D01*
X14868D01*
X14841Y7016D01*
X14815Y7042D01*
X14788D01*
X14841Y7016D02*
Y6962D01*
X12019Y10842D02*
X12046Y10869D01*
X12099D01*
X12126Y10842D01*
Y10735D01*
X12099Y10709D01*
X12046D01*
X12019Y10735D01*
X11966Y10709D02*
X11913D01*
X11939D01*
Y10869D01*
X11966Y10842D01*
X11833D02*
X11806Y10869D01*
X11753D01*
X11726Y10842D01*
Y10735D01*
X11753Y10709D01*
X11806D01*
X11833Y10735D01*
Y10842D01*
X11673Y10735D02*
X11646Y10709D01*
X11593D01*
X11566Y10735D01*
Y10842D01*
X11593Y10869D01*
X11646D01*
X11673Y10842D01*
Y10815D01*
X11646Y10789D01*
X11566D01*
X12295Y8952D02*
X12322Y8979D01*
X12375D01*
X12402Y8952D01*
Y8846D01*
X12375Y8819D01*
X12322D01*
X12295Y8846D01*
X12242Y8819D02*
X12188D01*
X12215D01*
Y8979D01*
X12242Y8952D01*
X12108D02*
X12082Y8979D01*
X12028D01*
X12002Y8952D01*
Y8846D01*
X12028Y8819D01*
X12082D01*
X12108Y8846D01*
Y8952D01*
X11948D02*
X11922Y8979D01*
X11868D01*
X11842Y8952D01*
Y8846D01*
X11868Y8819D01*
X11922D01*
X11948Y8846D01*
Y8952D01*
X10484Y9976D02*
X10511Y10002D01*
X10564D01*
X10591Y9976D01*
Y9869D01*
X10564Y9843D01*
X10511D01*
X10484Y9869D01*
X10431Y9843D02*
X10377D01*
X10404D01*
Y10002D01*
X10431Y9976D01*
X10297Y9843D02*
X10244D01*
X10271D01*
Y10002D01*
X10297Y9976D01*
X10057Y10002D02*
X10111Y9976D01*
X10164Y9922D01*
Y9869D01*
X10137Y9843D01*
X10084D01*
X10057Y9869D01*
Y9896D01*
X10084Y9922D01*
X10164D01*
X10799Y9346D02*
X10826Y9373D01*
X10879D01*
X10906Y9346D01*
Y9239D01*
X10879Y9213D01*
X10826D01*
X10799Y9239D01*
X10746Y9213D02*
X10692D01*
X10719D01*
Y9373D01*
X10746Y9346D01*
X10612Y9213D02*
X10559D01*
X10586D01*
Y9373D01*
X10612Y9346D01*
X10479D02*
X10452Y9373D01*
X10399D01*
X10372Y9346D01*
Y9319D01*
X10399Y9293D01*
X10426D01*
X10399D01*
X10372Y9266D01*
Y9239D01*
X10399Y9213D01*
X10452D01*
X10479Y9239D01*
X10103Y7689D02*
X10076Y7715D01*
Y7769D01*
X10103Y7795D01*
X10210D01*
X10236Y7769D01*
Y7715D01*
X10210Y7689D01*
X10236Y7635D02*
Y7582D01*
Y7609D01*
X10076D01*
X10103Y7635D01*
X10236Y7502D02*
Y7449D01*
Y7475D01*
X10076D01*
X10103Y7502D01*
X10236Y7289D02*
X10076D01*
X10156Y7369D01*
Y7262D01*
X10799Y6787D02*
X10826Y6813D01*
X10879D01*
X10906Y6787D01*
Y6680D01*
X10879Y6654D01*
X10826D01*
X10799Y6680D01*
X10746Y6654D02*
X10692D01*
X10719D01*
Y6813D01*
X10746Y6787D01*
X10612Y6654D02*
X10559D01*
X10586D01*
Y6813D01*
X10612Y6787D01*
X10372Y6654D02*
X10479D01*
X10372Y6760D01*
Y6787D01*
X10399Y6813D01*
X10452D01*
X10479Y6787D01*
X10484Y8952D02*
X10511Y8979D01*
X10564D01*
X10591Y8952D01*
Y8846D01*
X10564Y8819D01*
X10511D01*
X10484Y8846D01*
X10431Y8819D02*
X10377D01*
X10404D01*
Y8979D01*
X10431Y8952D01*
X10297Y8819D02*
X10244D01*
X10271D01*
Y8979D01*
X10297Y8952D01*
X10057Y8979D02*
X10164D01*
Y8899D01*
X10111Y8926D01*
X10084D01*
X10057Y8899D01*
Y8846D01*
X10084Y8819D01*
X10137D01*
X10164Y8846D01*
X15523Y7732D02*
X15550Y7758D01*
X15603D01*
X15630Y7732D01*
Y7625D01*
X15603Y7598D01*
X15550D01*
X15523Y7625D01*
X15470Y7758D02*
X15363D01*
Y7732D01*
X15470Y7625D01*
Y7598D01*
X15310Y7732D02*
X15283Y7758D01*
X15230D01*
X15203Y7732D01*
Y7705D01*
X15230Y7678D01*
X15257D01*
X15230D01*
X15203Y7652D01*
Y7625D01*
X15230Y7598D01*
X15283D01*
X15310Y7625D01*
X16087Y9460D02*
X16061Y9487D01*
Y9540D01*
X16087Y9567D01*
X16194D01*
X16220Y9540D01*
Y9487D01*
X16194Y9460D01*
X16061Y9300D02*
X16087Y9354D01*
X16141Y9407D01*
X16194D01*
X16220Y9380D01*
Y9327D01*
X16194Y9300D01*
X16167D01*
X16141Y9327D01*
Y9407D01*
X16194Y9247D02*
X16220Y9220D01*
Y9167D01*
X16194Y9140D01*
X16087D01*
X16061Y9167D01*
Y9220D01*
X16087Y9247D01*
X16114D01*
X16141Y9220D01*
Y9140D01*
X14775Y5881D02*
X14802Y5908D01*
X14855D01*
X14882Y5881D01*
Y5775D01*
X14855Y5748D01*
X14802D01*
X14775Y5775D01*
X14722Y5908D02*
X14615D01*
Y5881D01*
X14722Y5775D01*
Y5748D01*
X14562Y5908D02*
X14455D01*
Y5881D01*
X14562Y5775D01*
Y5748D01*
X15799Y7181D02*
X15826Y7207D01*
X15879D01*
X15906Y7181D01*
Y7074D01*
X15879Y7047D01*
X15826D01*
X15799Y7074D01*
X15746Y7207D02*
X15639D01*
Y7181D01*
X15746Y7074D01*
Y7047D01*
X15586Y7181D02*
X15559Y7207D01*
X15506D01*
X15479Y7181D01*
Y7074D01*
X15506Y7047D01*
X15559D01*
X15586Y7074D01*
Y7181D01*
X11429Y5527D02*
X11455Y5554D01*
X11509D01*
X11535Y5527D01*
Y5420D01*
X11509Y5394D01*
X11455D01*
X11429Y5420D01*
X11375Y5394D02*
X11322D01*
X11349D01*
Y5554D01*
X11375Y5527D01*
X11242D02*
X11216Y5554D01*
X11162D01*
X11136Y5527D01*
Y5420D01*
X11162Y5394D01*
X11216D01*
X11242Y5420D01*
Y5527D01*
X11002Y5394D02*
Y5554D01*
X11082Y5474D01*
X10976D01*
X12938Y7256D02*
X12911Y7282D01*
Y7336D01*
X12938Y7362D01*
X13044D01*
X13071Y7336D01*
Y7282D01*
X13044Y7256D01*
Y7202D02*
X13071Y7176D01*
Y7122D01*
X13044Y7096D01*
X12938D01*
X12911Y7122D01*
Y7176D01*
X12938Y7202D01*
X12964D01*
X12991Y7176D01*
Y7096D01*
X13071Y6936D02*
Y7042D01*
X12964Y6936D01*
X12938D01*
X12911Y6962D01*
Y7016D01*
X12938Y7042D01*
X13253Y6704D02*
X13226Y6731D01*
Y6784D01*
X13253Y6811D01*
X13359D01*
X13386Y6784D01*
Y6731D01*
X13359Y6704D01*
X13253Y6651D02*
X13226Y6624D01*
Y6571D01*
X13253Y6544D01*
X13279D01*
X13306Y6571D01*
X13333Y6544D01*
X13359D01*
X13386Y6571D01*
Y6624D01*
X13359Y6651D01*
X13333D01*
X13306Y6624D01*
X13279Y6651D01*
X13253D01*
X13306Y6624D02*
Y6571D01*
X13226Y6491D02*
Y6385D01*
X13253D01*
X13359Y6491D01*
X13386D01*
X14460Y10212D02*
X14487Y10239D01*
X14540D01*
X14567Y10212D01*
Y10105D01*
X14540Y10079D01*
X14487D01*
X14460Y10105D01*
X14407Y10239D02*
X14300D01*
Y10212D01*
X14407Y10105D01*
Y10079D01*
X14247Y10105D02*
X14220Y10079D01*
X14167D01*
X14140Y10105D01*
Y10212D01*
X14167Y10239D01*
X14220D01*
X14247Y10212D01*
Y10185D01*
X14220Y10159D01*
X14140D01*
X14815Y8952D02*
X14841Y8979D01*
X14895D01*
X14921Y8952D01*
Y8846D01*
X14895Y8819D01*
X14841D01*
X14815Y8846D01*
X14761Y8979D02*
X14655D01*
Y8952D01*
X14761Y8846D01*
Y8819D01*
X14495Y8979D02*
X14601D01*
Y8899D01*
X14548Y8926D01*
X14521D01*
X14495Y8899D01*
Y8846D01*
X14521Y8819D01*
X14575D01*
X14601Y8846D01*
X15064Y5090D02*
X15037Y5117D01*
Y5170D01*
X15064Y5197D01*
X15170D01*
X15197Y5170D01*
Y5117D01*
X15170Y5090D01*
X15037Y5037D02*
Y4930D01*
X15064D01*
X15170Y5037D01*
X15197D01*
X15037Y4770D02*
X15064Y4824D01*
X15117Y4877D01*
X15170D01*
X15197Y4850D01*
Y4797D01*
X15170Y4770D01*
X15144D01*
X15117Y4797D01*
Y4877D01*
X14119Y5366D02*
X14092Y5392D01*
Y5446D01*
X14119Y5472D01*
X14225D01*
X14252Y5446D01*
Y5392D01*
X14225Y5366D01*
X14119Y5312D02*
X14092Y5286D01*
Y5233D01*
X14119Y5206D01*
X14145D01*
X14172Y5233D01*
X14199Y5206D01*
X14225D01*
X14252Y5233D01*
Y5286D01*
X14225Y5312D01*
X14199D01*
X14172Y5286D01*
X14145Y5312D01*
X14119D01*
X14172Y5286D02*
Y5233D01*
X14092Y5046D02*
X14119Y5099D01*
X14172Y5153D01*
X14225D01*
X14252Y5126D01*
Y5073D01*
X14225Y5046D01*
X14199D01*
X14172Y5073D01*
Y5153D01*
X15812Y5760D02*
X15785Y5786D01*
Y5839D01*
X15812Y5866D01*
X15918D01*
X15945Y5839D01*
Y5786D01*
X15918Y5760D01*
X15785Y5706D02*
Y5600D01*
X15812D01*
X15918Y5706D01*
X15945D01*
Y5440D02*
Y5546D01*
X15838Y5440D01*
X15812D01*
X15785Y5466D01*
Y5520D01*
X15812Y5546D01*
X16048Y4815D02*
X16021Y4841D01*
Y4895D01*
X16048Y4921D01*
X16154D01*
X16181Y4895D01*
Y4841D01*
X16154Y4815D01*
X16021Y4761D02*
Y4655D01*
X16048D01*
X16154Y4761D01*
X16181D01*
Y4601D02*
Y4548D01*
Y4575D01*
X16021D01*
X16048Y4601D01*
X14224Y8637D02*
X14251Y8664D01*
X14304D01*
X14331Y8637D01*
Y8531D01*
X14304Y8504D01*
X14251D01*
X14224Y8531D01*
X14171Y8637D02*
X14144Y8664D01*
X14091D01*
X14064Y8637D01*
Y8611D01*
X14091Y8584D01*
X14064Y8557D01*
Y8531D01*
X14091Y8504D01*
X14144D01*
X14171Y8531D01*
Y8557D01*
X14144Y8584D01*
X14171Y8611D01*
Y8637D01*
X14144Y8584D02*
X14091D01*
X14011Y8637D02*
X13984Y8664D01*
X13931D01*
X13904Y8637D01*
Y8531D01*
X13931Y8504D01*
X13984D01*
X14011Y8531D01*
Y8637D01*
X12019Y10566D02*
X12046Y10593D01*
X12099D01*
X12126Y10566D01*
Y10460D01*
X12099Y10433D01*
X12046D01*
X12019Y10460D01*
X11966Y10433D02*
X11913D01*
X11939D01*
Y10593D01*
X11966Y10566D01*
X11833D02*
X11806Y10593D01*
X11753D01*
X11726Y10566D01*
Y10460D01*
X11753Y10433D01*
X11806D01*
X11833Y10460D01*
Y10566D01*
X11673D02*
X11646Y10593D01*
X11593D01*
X11566Y10566D01*
Y10540D01*
X11593Y10513D01*
X11566Y10486D01*
Y10460D01*
X11593Y10433D01*
X11646D01*
X11673Y10460D01*
Y10486D01*
X11646Y10513D01*
X11673Y10540D01*
Y10566D01*
X11646Y10513D02*
X11593D01*
X12623Y8830D02*
X12596Y8857D01*
Y8910D01*
X12623Y8937D01*
X12729D01*
X12756Y8910D01*
Y8857D01*
X12729Y8830D01*
Y8777D02*
X12756Y8750D01*
Y8697D01*
X12729Y8670D01*
X12623D01*
X12596Y8697D01*
Y8750D01*
X12623Y8777D01*
X12649D01*
X12676Y8750D01*
Y8670D01*
X12596Y8510D02*
X12623Y8564D01*
X12676Y8617D01*
X12729D01*
X12756Y8590D01*
Y8537D01*
X12729Y8510D01*
X12703D01*
X12676Y8537D01*
Y8617D01*
X12610Y7062D02*
X12637Y7089D01*
X12690D01*
X12717Y7062D01*
Y6956D01*
X12690Y6929D01*
X12637D01*
X12610Y6956D01*
X12557D02*
X12530Y6929D01*
X12477D01*
X12450Y6956D01*
Y7062D01*
X12477Y7089D01*
X12530D01*
X12557Y7062D01*
Y7036D01*
X12530Y7009D01*
X12450D01*
X12317Y6929D02*
Y7089D01*
X12397Y7009D01*
X12290D01*
X14618Y10724D02*
X14644Y10750D01*
X14698D01*
X14724Y10724D01*
Y10617D01*
X14698Y10591D01*
X14644D01*
X14618Y10617D01*
X14564Y10750D02*
X14458D01*
Y10724D01*
X14564Y10617D01*
Y10591D01*
X14325D02*
Y10750D01*
X14405Y10671D01*
X14298D01*
X12295Y9897D02*
X12322Y9924D01*
X12375D01*
X12402Y9897D01*
Y9790D01*
X12375Y9764D01*
X12322D01*
X12295Y9790D01*
X12242Y9764D02*
X12188D01*
X12215D01*
Y9924D01*
X12242Y9897D01*
X12108D02*
X12082Y9924D01*
X12028D01*
X12002Y9897D01*
Y9790D01*
X12028Y9764D01*
X12082D01*
X12108Y9790D01*
Y9897D01*
X11948Y9764D02*
X11895D01*
X11922D01*
Y9924D01*
X11948Y9897D01*
X13016Y5011D02*
X12990Y5038D01*
Y5091D01*
X13016Y5118D01*
X13123D01*
X13150Y5091D01*
Y5038D01*
X13123Y5011D01*
X13016Y4958D02*
X12990Y4931D01*
Y4878D01*
X13016Y4852D01*
X13043D01*
X13070Y4878D01*
X13096Y4852D01*
X13123D01*
X13150Y4878D01*
Y4931D01*
X13123Y4958D01*
X13096D01*
X13070Y4931D01*
X13043Y4958D01*
X13016D01*
X13070Y4931D02*
Y4878D01*
X13123Y4798D02*
X13150Y4772D01*
Y4718D01*
X13123Y4692D01*
X13016D01*
X12990Y4718D01*
Y4772D01*
X13016Y4798D01*
X13043D01*
X13070Y4772D01*
Y4692D01*
X11704Y4897D02*
X11731Y4924D01*
X11784D01*
X11811Y4897D01*
Y4790D01*
X11784Y4764D01*
X11731D01*
X11704Y4790D01*
X11651Y4764D02*
X11598D01*
X11624D01*
Y4924D01*
X11651Y4897D01*
X11518D02*
X11491Y4924D01*
X11438D01*
X11411Y4897D01*
Y4790D01*
X11438Y4764D01*
X11491D01*
X11518Y4790D01*
Y4897D01*
X11358D02*
X11331Y4924D01*
X11278D01*
X11251Y4897D01*
Y4870D01*
X11278Y4844D01*
X11305D01*
X11278D01*
X11251Y4817D01*
Y4790D01*
X11278Y4764D01*
X11331D01*
X11358Y4790D01*
X11744Y5842D02*
X11770Y5869D01*
X11824D01*
X11850Y5842D01*
Y5735D01*
X11824Y5709D01*
X11770D01*
X11744Y5735D01*
X11690Y5709D02*
X11637D01*
X11664D01*
Y5869D01*
X11690Y5842D01*
X11557D02*
X11530Y5869D01*
X11477D01*
X11451Y5842D01*
Y5735D01*
X11477Y5709D01*
X11530D01*
X11557Y5735D01*
Y5842D01*
X11291Y5709D02*
X11397D01*
X11291Y5815D01*
Y5842D01*
X11317Y5869D01*
X11371D01*
X11397Y5842D01*
X12728Y4307D02*
X12755Y4333D01*
X12808D01*
X12835Y4307D01*
Y4200D01*
X12808Y4173D01*
X12755D01*
X12728Y4200D01*
X12675D02*
X12648Y4173D01*
X12595D01*
X12568Y4200D01*
Y4307D01*
X12595Y4333D01*
X12648D01*
X12675Y4307D01*
Y4280D01*
X12648Y4253D01*
X12568D01*
X12515Y4333D02*
X12408D01*
Y4307D01*
X12515Y4200D01*
Y4173D01*
X11429Y6787D02*
X11455Y6813D01*
X11509D01*
X11535Y6787D01*
Y6680D01*
X11509Y6654D01*
X11455D01*
X11429Y6680D01*
X11375Y6654D02*
X11322D01*
X11349D01*
Y6813D01*
X11375Y6787D01*
X11242D02*
X11216Y6813D01*
X11162D01*
X11136Y6787D01*
Y6680D01*
X11162Y6654D01*
X11216D01*
X11242Y6680D01*
Y6787D01*
X10976Y6813D02*
X11082D01*
Y6734D01*
X11029Y6760D01*
X11002D01*
X10976Y6734D01*
Y6680D01*
X11002Y6654D01*
X11056D01*
X11082Y6680D01*
X21389Y9543D02*
X21416Y9569D01*
X21469D01*
X21496Y9543D01*
Y9436D01*
X21469Y9409D01*
X21416D01*
X21389Y9436D01*
X21229Y9569D02*
X21283Y9543D01*
X21336Y9489D01*
Y9436D01*
X21309Y9409D01*
X21256D01*
X21229Y9436D01*
Y9463D01*
X21256Y9489D01*
X21336D01*
X21176Y9543D02*
X21150Y9569D01*
X21096D01*
X21070Y9543D01*
Y9516D01*
X21096Y9489D01*
X21123D01*
X21096D01*
X21070Y9463D01*
Y9436D01*
X21096Y9409D01*
X21150D01*
X21176Y9436D01*
X21704Y10409D02*
X21731Y10436D01*
X21784D01*
X21811Y10409D01*
Y10302D01*
X21784Y10276D01*
X21731D01*
X21704Y10302D01*
X21544Y10436D02*
X21598Y10409D01*
X21651Y10356D01*
Y10302D01*
X21624Y10276D01*
X21571D01*
X21544Y10302D01*
Y10329D01*
X21571Y10356D01*
X21651D01*
X21384Y10276D02*
X21491D01*
X21384Y10382D01*
Y10409D01*
X21411Y10436D01*
X21464D01*
X21491Y10409D01*
X18016Y11193D02*
X17990Y11219D01*
Y11273D01*
X18016Y11299D01*
X18123D01*
X18150Y11273D01*
Y11219D01*
X18123Y11193D01*
X17990Y11033D02*
X18016Y11086D01*
X18070Y11139D01*
X18123D01*
X18150Y11113D01*
Y11059D01*
X18123Y11033D01*
X18096D01*
X18070Y11059D01*
Y11139D01*
X17990Y10873D02*
X18016Y10926D01*
X18070Y10979D01*
X18123D01*
X18150Y10953D01*
Y10899D01*
X18123Y10873D01*
X18096D01*
X18070Y10899D01*
Y10979D01*
X22413Y10409D02*
X22440Y10436D01*
X22493D01*
X22520Y10409D01*
Y10302D01*
X22493Y10276D01*
X22440D01*
X22413Y10302D01*
X22253Y10436D02*
X22306Y10409D01*
X22360Y10356D01*
Y10302D01*
X22333Y10276D01*
X22280D01*
X22253Y10302D01*
Y10329D01*
X22280Y10356D01*
X22360D01*
X22200Y10409D02*
X22173Y10436D01*
X22120D01*
X22093Y10409D01*
Y10302D01*
X22120Y10276D01*
X22173D01*
X22200Y10302D01*
Y10409D01*
X22019Y11314D02*
X22046Y11341D01*
X22099D01*
X22126Y11314D01*
Y11208D01*
X22099Y11181D01*
X22046D01*
X22019Y11208D01*
X21859Y11341D02*
X21913Y11314D01*
X21966Y11261D01*
Y11208D01*
X21939Y11181D01*
X21886D01*
X21859Y11208D01*
Y11234D01*
X21886Y11261D01*
X21966D01*
X21806Y11181D02*
X21753D01*
X21779D01*
Y11341D01*
X21806Y11314D01*
X2256Y8677D02*
X2282Y8703D01*
X2336D01*
X2362Y8677D01*
Y8570D01*
X2336Y8543D01*
X2282D01*
X2256Y8570D01*
X2202Y8543D02*
X2149D01*
X2176D01*
Y8703D01*
X2202Y8677D01*
X1989Y8543D02*
Y8703D01*
X2069Y8623D01*
X1962D01*
X1909Y8703D02*
X1802D01*
Y8677D01*
X1909Y8570D01*
Y8543D01*
X2098Y5803D02*
X2125Y5829D01*
X2178D01*
X2205Y5803D01*
Y5696D01*
X2178Y5669D01*
X2125D01*
X2098Y5696D01*
X2045Y5669D02*
X1991D01*
X2018D01*
Y5829D01*
X2045Y5803D01*
X1832Y5669D02*
Y5829D01*
X1911Y5749D01*
X1805D01*
X1752Y5803D02*
X1725Y5829D01*
X1672D01*
X1645Y5803D01*
Y5776D01*
X1672Y5749D01*
X1645Y5723D01*
Y5696D01*
X1672Y5669D01*
X1725D01*
X1752Y5696D01*
Y5723D01*
X1725Y5749D01*
X1752Y5776D01*
Y5803D01*
X1725Y5749D02*
X1672D01*
X1626Y8834D02*
X1652Y8861D01*
X1706D01*
X1732Y8834D01*
Y8727D01*
X1706Y8701D01*
X1652D01*
X1626Y8727D01*
X1572Y8701D02*
X1519D01*
X1546D01*
Y8861D01*
X1572Y8834D01*
X1359Y8701D02*
Y8861D01*
X1439Y8781D01*
X1332D01*
X1279Y8727D02*
X1252Y8701D01*
X1199D01*
X1172Y8727D01*
Y8834D01*
X1199Y8861D01*
X1252D01*
X1279Y8834D01*
Y8807D01*
X1252Y8781D01*
X1172D01*
X3752Y8047D02*
X3778Y8073D01*
X3832D01*
X3858Y8047D01*
Y7940D01*
X3832Y7913D01*
X3778D01*
X3752Y7940D01*
X3698Y7913D02*
X3645D01*
X3672D01*
Y8073D01*
X3698Y8047D01*
X3485Y7913D02*
Y8073D01*
X3565Y7993D01*
X3458D01*
X3405Y8047D02*
X3378Y8073D01*
X3325D01*
X3298Y8047D01*
Y8020D01*
X3325Y7993D01*
X3352D01*
X3325D01*
X3298Y7967D01*
Y7940D01*
X3325Y7913D01*
X3378D01*
X3405Y7940D01*
X2885Y5684D02*
X2912Y5711D01*
X2965D01*
X2992Y5684D01*
Y5578D01*
X2965Y5551D01*
X2912D01*
X2885Y5578D01*
X2832Y5551D02*
X2779D01*
X2806D01*
Y5711D01*
X2832Y5684D01*
X2619Y5551D02*
Y5711D01*
X2699Y5631D01*
X2592D01*
X2459Y5551D02*
Y5711D01*
X2539Y5631D01*
X2432D01*
X7741Y6744D02*
X7714Y6770D01*
Y6824D01*
X7741Y6850D01*
X7847D01*
X7874Y6824D01*
Y6770D01*
X7847Y6744D01*
X7874Y6690D02*
Y6637D01*
Y6664D01*
X7714D01*
X7741Y6690D01*
X7874Y6557D02*
Y6504D01*
Y6531D01*
X7714D01*
X7741Y6557D01*
X7847Y6424D02*
X7874Y6397D01*
Y6344D01*
X7847Y6317D01*
X7741D01*
X7714Y6344D01*
Y6397D01*
X7741Y6424D01*
X7767D01*
X7794Y6397D01*
Y6317D01*
X7426Y8319D02*
X7399Y8345D01*
Y8399D01*
X7426Y8425D01*
X7532D01*
X7559Y8399D01*
Y8345D01*
X7532Y8319D01*
X7559Y8265D02*
Y8212D01*
Y8239D01*
X7399D01*
X7426Y8265D01*
X7559Y8025D02*
Y8132D01*
X7452Y8025D01*
X7426D01*
X7399Y8052D01*
Y8105D01*
X7426Y8132D01*
X7559Y7892D02*
X7399D01*
X7479Y7972D01*
Y7865D01*
X7216Y8952D02*
X7243Y8979D01*
X7296D01*
X7323Y8952D01*
Y8846D01*
X7296Y8819D01*
X7243D01*
X7216Y8846D01*
X7163Y8819D02*
X7110D01*
X7136D01*
Y8979D01*
X7163Y8952D01*
X6923Y8819D02*
X7030D01*
X6923Y8926D01*
Y8952D01*
X6950Y8979D01*
X7003D01*
X7030Y8952D01*
X6763Y8979D02*
X6816Y8952D01*
X6870Y8899D01*
Y8846D01*
X6843Y8819D01*
X6790D01*
X6763Y8846D01*
Y8872D01*
X6790Y8899D01*
X6870D01*
X8082Y9621D02*
X8109Y9648D01*
X8162D01*
X8189Y9621D01*
Y9515D01*
X8162Y9488D01*
X8109D01*
X8082Y9515D01*
X8029Y9488D02*
X7976D01*
X8002D01*
Y9648D01*
X8029Y9621D01*
X7789Y9488D02*
X7896D01*
X7789Y9595D01*
Y9621D01*
X7816Y9648D01*
X7869D01*
X7896Y9621D01*
X7736Y9488D02*
X7682D01*
X7709D01*
Y9648D01*
X7736Y9621D01*
X6901Y9936D02*
X6928Y9963D01*
X6981D01*
X7008Y9936D01*
Y9830D01*
X6981Y9803D01*
X6928D01*
X6901Y9830D01*
X6848Y9803D02*
X6795D01*
X6821D01*
Y9963D01*
X6848Y9936D01*
X6608Y9803D02*
X6715D01*
X6608Y9910D01*
Y9936D01*
X6635Y9963D01*
X6688D01*
X6715Y9936D01*
X6448Y9803D02*
X6555D01*
X6448Y9910D01*
Y9936D01*
X6475Y9963D01*
X6528D01*
X6555Y9936D01*
X7741Y10523D02*
X7714Y10550D01*
Y10603D01*
X7741Y10630D01*
X7847D01*
X7874Y10603D01*
Y10550D01*
X7847Y10523D01*
X7874Y10470D02*
Y10417D01*
Y10443D01*
X7714D01*
X7741Y10470D01*
X7874Y10230D02*
Y10337D01*
X7767Y10230D01*
X7741D01*
X7714Y10257D01*
Y10310D01*
X7741Y10337D01*
Y10177D02*
X7714Y10150D01*
Y10097D01*
X7741Y10070D01*
X7847D01*
X7874Y10097D01*
Y10150D01*
X7847Y10177D01*
X7741D01*
X7531Y11157D02*
X7558Y11184D01*
X7611D01*
X7638Y11157D01*
Y11050D01*
X7611Y11024D01*
X7558D01*
X7531Y11050D01*
X7478Y11024D02*
X7425D01*
X7451D01*
Y11184D01*
X7478Y11157D01*
X7238Y11024D02*
X7345D01*
X7238Y11130D01*
Y11157D01*
X7265Y11184D01*
X7318D01*
X7345Y11157D01*
X7185D02*
X7158Y11184D01*
X7105D01*
X7078Y11157D01*
Y11130D01*
X7105Y11104D01*
X7131D01*
X7105D01*
X7078Y11077D01*
Y11050D01*
X7105Y11024D01*
X7158D01*
X7185Y11050D01*
X6468Y5055D02*
X6495Y5081D01*
X6548D01*
X6575Y5055D01*
Y4948D01*
X6548Y4921D01*
X6495D01*
X6468Y4948D01*
X6415Y4921D02*
X6362D01*
X6388D01*
Y5081D01*
X6415Y5055D01*
X6175Y4921D02*
X6282D01*
X6175Y5028D01*
Y5055D01*
X6202Y5081D01*
X6255D01*
X6282Y5055D01*
X6122Y5081D02*
X6015D01*
Y5055D01*
X6122Y4948D01*
Y4921D01*
X6245Y9578D02*
X6218Y9605D01*
Y9658D01*
X6245Y9685D01*
X6351D01*
X6378Y9658D01*
Y9605D01*
X6351Y9578D01*
X6378Y9525D02*
Y9472D01*
Y9498D01*
X6218D01*
X6245Y9525D01*
X6378Y9285D02*
Y9392D01*
X6271Y9285D01*
X6245D01*
X6218Y9312D01*
Y9365D01*
X6245Y9392D01*
Y9232D02*
X6218Y9205D01*
Y9152D01*
X6245Y9125D01*
X6271D01*
X6298Y9152D01*
X6325Y9125D01*
X6351D01*
X6378Y9152D01*
Y9205D01*
X6351Y9232D01*
X6325D01*
X6298Y9205D01*
X6271Y9232D01*
X6245D01*
X6298Y9205D02*
Y9152D01*
X4237Y5641D02*
X4210Y5668D01*
Y5721D01*
X4237Y5748D01*
X4343D01*
X4370Y5721D01*
Y5668D01*
X4343Y5641D01*
X4370Y5588D02*
Y5535D01*
Y5561D01*
X4210D01*
X4237Y5588D01*
Y5455D02*
X4210Y5428D01*
Y5375D01*
X4237Y5348D01*
X4263D01*
X4290Y5375D01*
Y5401D01*
Y5375D01*
X4317Y5348D01*
X4343D01*
X4370Y5375D01*
Y5428D01*
X4343Y5455D01*
Y5295D02*
X4370Y5268D01*
Y5215D01*
X4343Y5188D01*
X4237D01*
X4210Y5215D01*
Y5268D01*
X4237Y5295D01*
X4263D01*
X4290Y5268D01*
Y5188D01*
X2728Y9070D02*
X2755Y9097D01*
X2808D01*
X2835Y9070D01*
Y8964D01*
X2808Y8937D01*
X2755D01*
X2728Y8964D01*
X2675Y8937D02*
X2621D01*
X2648D01*
Y9097D01*
X2675Y9070D01*
X2461Y8937D02*
Y9097D01*
X2541Y9017D01*
X2435D01*
X2275Y9097D02*
X2328Y9070D01*
X2381Y9017D01*
Y8964D01*
X2355Y8937D01*
X2301D01*
X2275Y8964D01*
Y8990D01*
X2301Y9017D01*
X2381D01*
X5015Y6130D02*
X5042Y6104D01*
Y6050D01*
X5015Y6024D01*
X4909D01*
X4882Y6050D01*
Y6104D01*
X4909Y6130D01*
X4882Y6184D02*
Y6237D01*
Y6210D01*
X5042D01*
X5015Y6184D01*
Y6317D02*
X5042Y6344D01*
Y6397D01*
X5015Y6423D01*
X4989D01*
X4962Y6397D01*
Y6370D01*
Y6397D01*
X4935Y6423D01*
X4909D01*
X4882Y6397D01*
Y6344D01*
X4909Y6317D01*
X5042Y6583D02*
Y6477D01*
X4962D01*
X4989Y6530D01*
Y6557D01*
X4962Y6583D01*
X4909D01*
X4882Y6557D01*
Y6503D01*
X4909Y6477D01*
X4906Y7059D02*
X4879Y7085D01*
Y7139D01*
X4906Y7165D01*
X5013D01*
X5039Y7139D01*
Y7085D01*
X5013Y7059D01*
X5039Y7005D02*
Y6952D01*
Y6979D01*
X4879D01*
X4906Y7005D01*
Y6872D02*
X4879Y6845D01*
Y6792D01*
X4906Y6765D01*
X4933D01*
X4959Y6792D01*
Y6819D01*
Y6792D01*
X4986Y6765D01*
X5013D01*
X5039Y6792D01*
Y6845D01*
X5013Y6872D01*
X4879Y6606D02*
X4906Y6659D01*
X4959Y6712D01*
X5013D01*
X5039Y6686D01*
Y6632D01*
X5013Y6606D01*
X4986D01*
X4959Y6632D01*
Y6712D01*
X4985Y8004D02*
X4958Y8030D01*
Y8084D01*
X4985Y8110D01*
X5091D01*
X5118Y8084D01*
Y8030D01*
X5091Y8004D01*
X5118Y7950D02*
Y7897D01*
Y7924D01*
X4958D01*
X4985Y7950D01*
X5118Y7710D02*
Y7817D01*
X5011Y7710D01*
X4985D01*
X4958Y7737D01*
Y7790D01*
X4985Y7817D01*
X5091Y7657D02*
X5118Y7630D01*
Y7577D01*
X5091Y7550D01*
X4985D01*
X4958Y7577D01*
Y7630D01*
X4985Y7657D01*
X5011D01*
X5038Y7630D01*
Y7550D01*
X5011Y8952D02*
X5038Y8979D01*
X5091D01*
X5118Y8952D01*
Y8846D01*
X5091Y8819D01*
X5038D01*
X5011Y8846D01*
X4958Y8819D02*
X4905D01*
X4931D01*
Y8979D01*
X4958Y8952D01*
X4825D02*
X4798Y8979D01*
X4745D01*
X4718Y8952D01*
Y8926D01*
X4745Y8899D01*
X4772D01*
X4745D01*
X4718Y8872D01*
Y8846D01*
X4745Y8819D01*
X4798D01*
X4825Y8846D01*
X4558Y8819D02*
X4665D01*
X4558Y8926D01*
Y8952D01*
X4585Y8979D01*
X4638D01*
X4665Y8952D01*
X4906Y9578D02*
X4879Y9605D01*
Y9658D01*
X4906Y9685D01*
X5013D01*
X5039Y9658D01*
Y9605D01*
X5013Y9578D01*
X5039Y9525D02*
Y9472D01*
Y9498D01*
X4879D01*
X4906Y9525D01*
Y9392D02*
X4879Y9365D01*
Y9312D01*
X4906Y9285D01*
X4933D01*
X4959Y9312D01*
Y9338D01*
Y9312D01*
X4986Y9285D01*
X5013D01*
X5039Y9312D01*
Y9365D01*
X5013Y9392D01*
X4879Y9232D02*
Y9125D01*
X4906D01*
X5013Y9232D01*
X5039D01*
X4355Y10208D02*
X4328Y10235D01*
Y10288D01*
X4355Y10315D01*
X4462D01*
X4488Y10288D01*
Y10235D01*
X4462Y10208D01*
X4488Y10155D02*
Y10102D01*
Y10128D01*
X4328D01*
X4355Y10155D01*
Y10022D02*
X4328Y9995D01*
Y9942D01*
X4355Y9915D01*
X4382D01*
X4408Y9942D01*
Y9968D01*
Y9942D01*
X4435Y9915D01*
X4462D01*
X4488Y9942D01*
Y9995D01*
X4462Y10022D01*
X4355Y9862D02*
X4328Y9835D01*
Y9782D01*
X4355Y9755D01*
X4382D01*
X4408Y9782D01*
Y9808D01*
Y9782D01*
X4435Y9755D01*
X4462D01*
X4488Y9782D01*
Y9835D01*
X4462Y9862D01*
X5917Y10251D02*
X5944Y10278D01*
X5997D01*
X6024Y10251D01*
Y10145D01*
X5997Y10118D01*
X5944D01*
X5917Y10145D01*
X5864Y10118D02*
X5810D01*
X5837D01*
Y10278D01*
X5864Y10251D01*
X5730D02*
X5704Y10278D01*
X5650D01*
X5624Y10251D01*
Y10225D01*
X5650Y10198D01*
X5677D01*
X5650D01*
X5624Y10171D01*
Y10145D01*
X5650Y10118D01*
X5704D01*
X5730Y10145D01*
X5570Y10251D02*
X5544Y10278D01*
X5490D01*
X5464Y10251D01*
Y10145D01*
X5490Y10118D01*
X5544D01*
X5570Y10145D01*
Y10251D01*
X4854Y11118D02*
X4881Y11144D01*
X4934D01*
X4961Y11118D01*
Y11011D01*
X4934Y10984D01*
X4881D01*
X4854Y11011D01*
X4801Y10984D02*
X4747D01*
X4774D01*
Y11144D01*
X4801Y11118D01*
X4667D02*
X4641Y11144D01*
X4587D01*
X4561Y11118D01*
Y11091D01*
X4587Y11064D01*
X4614D01*
X4587D01*
X4561Y11038D01*
Y11011D01*
X4587Y10984D01*
X4641D01*
X4667Y11011D01*
X4427Y10984D02*
Y11144D01*
X4507Y11064D01*
X4401D01*
X7767Y7102D02*
X7794Y7128D01*
X7847D01*
X7874Y7102D01*
Y6995D01*
X7847Y6969D01*
X7794D01*
X7767Y6995D01*
X7714Y6969D02*
X7661D01*
X7687D01*
Y7128D01*
X7714Y7102D01*
X7474Y6969D02*
X7581D01*
X7474Y7075D01*
Y7102D01*
X7501Y7128D01*
X7554D01*
X7581Y7102D01*
X7314Y7128D02*
X7421D01*
Y7048D01*
X7368Y7075D01*
X7341D01*
X7314Y7048D01*
Y6995D01*
X7341Y6969D01*
X7394D01*
X7421Y6995D01*
X11402Y8634D02*
X11375Y8660D01*
Y8713D01*
X11402Y8740D01*
X11509D01*
X11535Y8713D01*
Y8660D01*
X11509Y8634D01*
X11535Y8580D02*
Y8527D01*
Y8554D01*
X11375D01*
X11402Y8580D01*
X11535Y8447D02*
Y8394D01*
Y8420D01*
X11375D01*
X11402Y8447D01*
X11535Y8314D02*
Y8260D01*
Y8287D01*
X11375D01*
X11402Y8314D01*
X11114Y6157D02*
X11141Y6184D01*
X11194D01*
X11220Y6157D01*
Y6050D01*
X11194Y6024D01*
X11141D01*
X11114Y6050D01*
X11061Y6024D02*
X11007D01*
X11034D01*
Y6184D01*
X11061Y6157D01*
X10927Y6024D02*
X10874D01*
X10901D01*
Y6184D01*
X10927Y6157D01*
X10794D02*
X10767Y6184D01*
X10714D01*
X10687Y6157D01*
Y6050D01*
X10714Y6024D01*
X10767D01*
X10794Y6050D01*
Y6157D01*
X25984Y5157D02*
Y5317D01*
X25904D01*
X25878Y5291D01*
Y5237D01*
X25904Y5211D01*
X25984D01*
X25931D02*
X25878Y5157D01*
X25824D02*
X25771D01*
X25798D01*
Y5317D01*
X25824Y5291D01*
X25691Y5157D02*
X25638D01*
X25664D01*
Y5317D01*
X25691Y5291D01*
X25451Y5157D02*
X25558D01*
X25451Y5264D01*
Y5291D01*
X25478Y5317D01*
X25531D01*
X25558Y5291D01*
X26299Y5118D02*
X26139D01*
Y5038D01*
X26166Y5011D01*
X26219D01*
X26246Y5038D01*
Y5118D01*
Y5065D02*
X26299Y5011D01*
Y4958D02*
Y4905D01*
Y4931D01*
X26139D01*
X26166Y4958D01*
X26299Y4825D02*
Y4772D01*
Y4798D01*
X26139D01*
X26166Y4825D01*
Y4692D02*
X26139Y4665D01*
Y4612D01*
X26166Y4585D01*
X26273D01*
X26299Y4612D01*
Y4665D01*
X26273Y4692D01*
X26166D01*
X26614Y5000D02*
X26454D01*
Y4920D01*
X26481Y4893D01*
X26534D01*
X26561Y4920D01*
Y5000D01*
Y4947D02*
X26614Y4893D01*
Y4840D02*
Y4787D01*
Y4813D01*
X26454D01*
X26481Y4840D01*
Y4707D02*
X26454Y4680D01*
Y4627D01*
X26481Y4600D01*
X26588D01*
X26614Y4627D01*
Y4680D01*
X26588Y4707D01*
X26481D01*
Y4547D02*
X26454Y4520D01*
Y4467D01*
X26481Y4440D01*
X26508D01*
X26534Y4467D01*
X26561Y4440D01*
X26588D01*
X26614Y4467D01*
Y4520D01*
X26588Y4547D01*
X26561D01*
X26534Y4520D01*
X26508Y4547D01*
X26481D01*
X26534Y4520D02*
Y4467D01*
X27953Y5748D02*
Y5908D01*
X27873D01*
X27846Y5881D01*
Y5828D01*
X27873Y5801D01*
X27953D01*
X27899D02*
X27846Y5748D01*
X27793D02*
X27739D01*
X27766D01*
Y5908D01*
X27793Y5881D01*
X27660D02*
X27633Y5908D01*
X27580D01*
X27553Y5881D01*
Y5775D01*
X27580Y5748D01*
X27633D01*
X27660Y5775D01*
Y5881D01*
X27393Y5908D02*
X27500D01*
Y5828D01*
X27446Y5855D01*
X27420D01*
X27393Y5828D01*
Y5775D01*
X27420Y5748D01*
X27473D01*
X27500Y5775D01*
X12165Y3031D02*
Y3191D01*
X12085D01*
X12059Y3165D01*
Y3111D01*
X12085Y3085D01*
X12165D01*
X12112D02*
X12059Y3031D01*
X12005D02*
X11952D01*
X11979D01*
Y3191D01*
X12005Y3165D01*
X11765Y3191D02*
X11819Y3165D01*
X11872Y3111D01*
Y3058D01*
X11845Y3031D01*
X11792D01*
X11765Y3058D01*
Y3085D01*
X11792Y3111D01*
X11872D01*
X11712Y3031D02*
X11659D01*
X11686D01*
Y3191D01*
X11712Y3165D01*
X12480Y2795D02*
Y2955D01*
X12400D01*
X12374Y2929D01*
Y2875D01*
X12400Y2849D01*
X12480D01*
X12427D02*
X12374Y2795D01*
X12320D02*
X12267D01*
X12294D01*
Y2955D01*
X12320Y2929D01*
X12080Y2955D02*
X12134Y2929D01*
X12187Y2875D01*
Y2822D01*
X12160Y2795D01*
X12107D01*
X12080Y2822D01*
Y2849D01*
X12107Y2875D01*
X12187D01*
X12027Y2929D02*
X12000Y2955D01*
X11947D01*
X11920Y2929D01*
Y2822D01*
X11947Y2795D01*
X12000D01*
X12027Y2822D01*
Y2929D01*
X12795Y3031D02*
Y3191D01*
X12715D01*
X12689Y3165D01*
Y3111D01*
X12715Y3085D01*
X12795D01*
X12742D02*
X12689Y3031D01*
X12635D02*
X12582D01*
X12609D01*
Y3191D01*
X12635Y3165D01*
X12395Y3191D02*
X12502D01*
Y3111D01*
X12449Y3138D01*
X12422D01*
X12395Y3111D01*
Y3058D01*
X12422Y3031D01*
X12475D01*
X12502Y3058D01*
X12342Y3165D02*
X12315Y3191D01*
X12262D01*
X12235Y3165D01*
Y3138D01*
X12262Y3111D01*
X12235Y3085D01*
Y3058D01*
X12262Y3031D01*
X12315D01*
X12342Y3058D01*
Y3085D01*
X12315Y3111D01*
X12342Y3138D01*
Y3165D01*
X12315Y3111D02*
X12262D01*
X11850Y2795D02*
Y2955D01*
X11770D01*
X11744Y2929D01*
Y2875D01*
X11770Y2849D01*
X11850D01*
X11797D02*
X11744Y2795D01*
X11690D02*
X11637D01*
X11664D01*
Y2955D01*
X11690Y2929D01*
X11451Y2955D02*
X11504Y2929D01*
X11557Y2875D01*
Y2822D01*
X11530Y2795D01*
X11477D01*
X11451Y2822D01*
Y2849D01*
X11477Y2875D01*
X11557D01*
X11397Y2929D02*
X11371Y2955D01*
X11317D01*
X11291Y2929D01*
Y2902D01*
X11317Y2875D01*
X11344D01*
X11317D01*
X11291Y2849D01*
Y2822D01*
X11317Y2795D01*
X11371D01*
X11397Y2822D01*
X10945Y3819D02*
Y3979D01*
X10865D01*
X10838Y3952D01*
Y3899D01*
X10865Y3872D01*
X10945D01*
X10892D02*
X10838Y3819D01*
X10785D02*
X10732D01*
X10758D01*
Y3979D01*
X10785Y3952D01*
X10545Y3979D02*
X10598Y3952D01*
X10652Y3899D01*
Y3846D01*
X10625Y3819D01*
X10572D01*
X10545Y3846D01*
Y3872D01*
X10572Y3899D01*
X10652D01*
X10492Y3952D02*
X10465Y3979D01*
X10412D01*
X10385Y3952D01*
Y3926D01*
X10412Y3899D01*
X10385Y3872D01*
Y3846D01*
X10412Y3819D01*
X10465D01*
X10492Y3846D01*
Y3872D01*
X10465Y3899D01*
X10492Y3926D01*
Y3952D01*
X10465Y3899D02*
X10412D01*
X28740Y2480D02*
X28900D01*
Y2560D01*
X28873Y2587D01*
X28820D01*
X28793Y2560D01*
Y2480D01*
Y2534D02*
X28740Y2587D01*
X28767Y2640D02*
X28740Y2667D01*
Y2720D01*
X28767Y2747D01*
X28873D01*
X28900Y2720D01*
Y2667D01*
X28873Y2640D01*
X28847D01*
X28820Y2667D01*
Y2747D01*
X28873Y2800D02*
X28900Y2827D01*
Y2880D01*
X28873Y2907D01*
X28847D01*
X28820Y2880D01*
X28793Y2907D01*
X28767D01*
X28740Y2880D01*
Y2827D01*
X28767Y2800D01*
X28793D01*
X28820Y2827D01*
X28847Y2800D01*
X28873D01*
X28820Y2827D02*
Y2880D01*
X28425Y2480D02*
X28585D01*
Y2560D01*
X28558Y2587D01*
X28505D01*
X28479Y2560D01*
Y2480D01*
Y2534D02*
X28425Y2587D01*
Y2640D02*
Y2694D01*
Y2667D01*
X28585D01*
X28558Y2640D01*
Y2774D02*
X28585Y2800D01*
Y2854D01*
X28558Y2880D01*
X28452D01*
X28425Y2854D01*
Y2800D01*
X28452Y2774D01*
X28558D01*
X28425Y3040D02*
Y2934D01*
X28532Y3040D01*
X28558D01*
X28585Y3013D01*
Y2960D01*
X28558Y2934D01*
X31220Y157D02*
X31400D01*
Y247D01*
X31370Y277D01*
X31310D01*
X31280Y247D01*
Y157D01*
X31400Y337D02*
Y397D01*
Y367D01*
X31220D01*
Y337D01*
Y397D01*
Y487D02*
X31400D01*
X31220Y607D01*
X31400D01*
X31220Y967D02*
Y847D01*
X31340Y967D01*
X31370D01*
X31400Y937D01*
Y877D01*
X31370Y847D01*
X31220Y1117D02*
X31400D01*
X31310Y1027D01*
Y1147D01*
X31220Y1297D02*
X31400D01*
X31310Y1207D01*
Y1327D01*
X906Y157D02*
X1085D01*
Y247D01*
X1055Y277D01*
X995D01*
X965Y247D01*
Y157D01*
X1085Y337D02*
Y397D01*
Y367D01*
X906D01*
Y337D01*
Y397D01*
Y487D02*
X1085D01*
X906Y607D01*
X1085D01*
X906Y847D02*
Y907D01*
Y877D01*
X1085D01*
X1055Y847D01*
X906Y1117D02*
Y997D01*
X1025Y1117D01*
X1055D01*
X1085Y1087D01*
Y1027D01*
X1055Y997D01*
Y1177D02*
X1085Y1207D01*
Y1267D01*
X1055Y1297D01*
X1025D01*
X995Y1267D01*
Y1237D01*
Y1267D01*
X965Y1297D01*
X935D01*
X906Y1267D01*
Y1207D01*
X935Y1177D01*
X10630Y1654D02*
Y1833D01*
X10570Y1773D01*
X10510Y1833D01*
Y1654D01*
X10450D02*
Y1833D01*
X10390Y1773D01*
X10330Y1833D01*
Y1654D01*
X10150Y1804D02*
X10180Y1833D01*
X10240D01*
X10270Y1804D01*
Y1684D01*
X10240Y1654D01*
X10180D01*
X10150Y1684D01*
X10090Y1804D02*
X10060Y1833D01*
X10000D01*
X9970Y1804D01*
Y1773D01*
X10000Y1744D01*
X10030D01*
X10000D01*
X9970Y1714D01*
Y1684D01*
X10000Y1654D01*
X10060D01*
X10090Y1684D01*
X8031Y1654D02*
Y1833D01*
X7972Y1773D01*
X7912Y1833D01*
Y1654D01*
X7852D02*
Y1833D01*
X7792Y1773D01*
X7732Y1833D01*
Y1654D01*
X7552Y1804D02*
X7582Y1833D01*
X7642D01*
X7672Y1804D01*
Y1684D01*
X7642Y1654D01*
X7582D01*
X7552Y1684D01*
X7492Y1654D02*
X7432D01*
X7462D01*
Y1833D01*
X7492Y1804D01*
X32148Y1693D02*
X31969D01*
Y1783D01*
X31998Y1813D01*
X32028D01*
X32058Y1783D01*
Y1693D01*
Y1783D01*
X32088Y1813D01*
X32118D01*
X32148Y1783D01*
Y1693D01*
X31969Y1873D02*
X32088D01*
X32148Y1933D01*
X32088Y1993D01*
X31969D01*
X32058D01*
Y1873D01*
X32118Y2173D02*
X32148Y2143D01*
Y2083D01*
X32118Y2053D01*
X31998D01*
X31969Y2083D01*
Y2143D01*
X31998Y2173D01*
X32148Y2233D02*
X31969D01*
X32028D01*
X32148Y2353D01*
X32058Y2263D01*
X31969Y2353D01*
X1298Y1235D02*
X1321Y1212D01*
Y1165D01*
X1298Y1142D01*
X1204D01*
X1181Y1165D01*
Y1212D01*
X1204Y1235D01*
X1251D01*
Y1188D01*
X1181Y1282D02*
X1321D01*
X1181Y1375D01*
X1321D01*
Y1422D02*
X1181D01*
Y1492D01*
X1204Y1515D01*
X1298D01*
X1321Y1492D01*
Y1422D01*
X2006Y1235D02*
X2030Y1212D01*
Y1165D01*
X2006Y1142D01*
X1913D01*
X1890Y1165D01*
Y1212D01*
X1913Y1235D01*
X1960D01*
Y1188D01*
X1890Y1282D02*
X2030D01*
X1890Y1375D01*
X2030D01*
Y1422D02*
X1890D01*
Y1492D01*
X1913Y1515D01*
X2006D01*
X2030Y1492D01*
Y1422D01*
X3187Y1235D02*
X3211Y1212D01*
Y1165D01*
X3187Y1142D01*
X3094D01*
X3071Y1165D01*
Y1212D01*
X3094Y1235D01*
X3141D01*
Y1188D01*
X3071Y1282D02*
X3211D01*
X3071Y1375D01*
X3211D01*
Y1422D02*
X3071D01*
Y1492D01*
X3094Y1515D01*
X3187D01*
X3211Y1492D01*
Y1422D01*
X3896Y1235D02*
X3919Y1212D01*
Y1165D01*
X3896Y1142D01*
X3803D01*
X3780Y1165D01*
Y1212D01*
X3803Y1235D01*
X3850D01*
Y1188D01*
X3780Y1282D02*
X3919D01*
X3780Y1375D01*
X3919D01*
Y1422D02*
X3780D01*
Y1492D01*
X3803Y1515D01*
X3896D01*
X3919Y1492D01*
Y1422D01*
X6495Y1235D02*
X6518Y1212D01*
Y1165D01*
X6495Y1142D01*
X6401D01*
X6378Y1165D01*
Y1212D01*
X6401Y1235D01*
X6448D01*
Y1188D01*
X6378Y1282D02*
X6518D01*
X6378Y1375D01*
X6518D01*
Y1422D02*
X6378D01*
Y1492D01*
X6401Y1515D01*
X6495D01*
X6518Y1492D01*
Y1422D01*
X9093Y1235D02*
X9116Y1212D01*
Y1165D01*
X9093Y1142D01*
X9000D01*
X8976Y1165D01*
Y1212D01*
X9000Y1235D01*
X9046D01*
Y1188D01*
X8976Y1282D02*
X9116D01*
X8976Y1375D01*
X9116D01*
Y1422D02*
X8976D01*
Y1492D01*
X9000Y1515D01*
X9093D01*
X9116Y1492D01*
Y1422D01*
X11691Y1235D02*
X11715Y1212D01*
Y1165D01*
X11691Y1142D01*
X11598D01*
X11575Y1165D01*
Y1212D01*
X11598Y1235D01*
X11645D01*
Y1188D01*
X11575Y1282D02*
X11715D01*
X11575Y1375D01*
X11715D01*
Y1422D02*
X11575D01*
Y1492D01*
X11598Y1515D01*
X11691D01*
X11715Y1492D01*
Y1422D01*
X14526Y1235D02*
X14549Y1212D01*
Y1165D01*
X14526Y1142D01*
X14433D01*
X14409Y1165D01*
Y1212D01*
X14433Y1235D01*
X14479D01*
Y1188D01*
X14409Y1282D02*
X14549D01*
X14409Y1375D01*
X14549D01*
Y1422D02*
X14409D01*
Y1492D01*
X14433Y1515D01*
X14526D01*
X14549Y1492D01*
Y1422D01*
X15235Y1235D02*
X15258Y1212D01*
Y1165D01*
X15235Y1142D01*
X15141D01*
X15118Y1165D01*
Y1212D01*
X15141Y1235D01*
X15188D01*
Y1188D01*
X15118Y1282D02*
X15258D01*
X15118Y1375D01*
X15258D01*
Y1422D02*
X15118D01*
Y1492D01*
X15141Y1515D01*
X15235D01*
X15258Y1492D01*
Y1422D01*
X15943Y1235D02*
X15967Y1212D01*
Y1165D01*
X15943Y1142D01*
X15850D01*
X15827Y1165D01*
Y1212D01*
X15850Y1235D01*
X15897D01*
Y1188D01*
X15827Y1282D02*
X15967D01*
X15827Y1375D01*
X15967D01*
Y1422D02*
X15827D01*
Y1492D01*
X15850Y1515D01*
X15943D01*
X15967Y1492D01*
Y1422D01*
X18306Y1235D02*
X18329Y1212D01*
Y1165D01*
X18306Y1142D01*
X18212D01*
X18189Y1165D01*
Y1212D01*
X18212Y1235D01*
X18259D01*
Y1188D01*
X18189Y1282D02*
X18329D01*
X18189Y1375D01*
X18329D01*
Y1422D02*
X18189D01*
Y1492D01*
X18212Y1515D01*
X18306D01*
X18329Y1492D01*
Y1422D01*
X19014Y1235D02*
X19038Y1212D01*
Y1165D01*
X19014Y1142D01*
X18921D01*
X18898Y1165D01*
Y1212D01*
X18921Y1235D01*
X18968D01*
Y1188D01*
X18898Y1282D02*
X19038D01*
X18898Y1375D01*
X19038D01*
Y1422D02*
X18898D01*
Y1492D01*
X18921Y1515D01*
X19014D01*
X19038Y1492D01*
Y1422D01*
X19723Y1235D02*
X19746Y1212D01*
Y1165D01*
X19723Y1142D01*
X19630D01*
X19606Y1165D01*
Y1212D01*
X19630Y1235D01*
X19676D01*
Y1188D01*
X19606Y1282D02*
X19746D01*
X19606Y1375D01*
X19746D01*
Y1422D02*
X19606D01*
Y1492D01*
X19630Y1515D01*
X19723D01*
X19746Y1492D01*
Y1422D01*
X20432Y1235D02*
X20455Y1212D01*
Y1165D01*
X20432Y1142D01*
X20338D01*
X20315Y1165D01*
Y1212D01*
X20338Y1235D01*
X20385D01*
Y1188D01*
X20315Y1282D02*
X20455D01*
X20315Y1375D01*
X20455D01*
Y1422D02*
X20315D01*
Y1492D01*
X20338Y1515D01*
X20432D01*
X20455Y1492D01*
Y1422D01*
X21140Y1235D02*
X21164Y1212D01*
Y1165D01*
X21140Y1142D01*
X21047D01*
X21024Y1165D01*
Y1212D01*
X21047Y1235D01*
X21094D01*
Y1188D01*
X21024Y1282D02*
X21164D01*
X21024Y1375D01*
X21164D01*
Y1422D02*
X21024D01*
Y1492D01*
X21047Y1515D01*
X21140D01*
X21164Y1492D01*
Y1422D01*
X21849Y1235D02*
X21872Y1212D01*
Y1165D01*
X21849Y1142D01*
X21756D01*
X21732Y1165D01*
Y1212D01*
X21756Y1235D01*
X21802D01*
Y1188D01*
X21732Y1282D02*
X21872D01*
X21732Y1375D01*
X21872D01*
Y1422D02*
X21732D01*
Y1492D01*
X21756Y1515D01*
X21849D01*
X21872Y1492D01*
Y1422D01*
X22558Y1235D02*
X22581Y1212D01*
Y1165D01*
X22558Y1142D01*
X22464D01*
X22441Y1165D01*
Y1212D01*
X22464Y1235D01*
X22511D01*
Y1188D01*
X22441Y1282D02*
X22581D01*
X22441Y1375D01*
X22581D01*
Y1422D02*
X22441D01*
Y1492D01*
X22464Y1515D01*
X22558D01*
X22581Y1492D01*
Y1422D01*
X23266Y1235D02*
X23290Y1212D01*
Y1165D01*
X23266Y1142D01*
X23173D01*
X23150Y1165D01*
Y1212D01*
X23173Y1235D01*
X23220D01*
Y1188D01*
X23150Y1282D02*
X23290D01*
X23150Y1375D01*
X23290D01*
Y1422D02*
X23150D01*
Y1492D01*
X23173Y1515D01*
X23266D01*
X23290Y1492D01*
Y1422D01*
X25156Y1235D02*
X25179Y1212D01*
Y1165D01*
X25156Y1142D01*
X25063D01*
X25039Y1165D01*
Y1212D01*
X25063Y1235D01*
X25109D01*
Y1188D01*
X25039Y1282D02*
X25179D01*
X25039Y1375D01*
X25179D01*
Y1422D02*
X25039D01*
Y1492D01*
X25063Y1515D01*
X25156D01*
X25179Y1492D01*
Y1422D01*
X25865Y1235D02*
X25888Y1212D01*
Y1165D01*
X25865Y1142D01*
X25771D01*
X25748Y1165D01*
Y1212D01*
X25771Y1235D01*
X25818D01*
Y1188D01*
X25748Y1282D02*
X25888D01*
X25748Y1375D01*
X25888D01*
Y1422D02*
X25748D01*
Y1492D01*
X25771Y1515D01*
X25865D01*
X25888Y1492D01*
Y1422D01*
X27754Y1235D02*
X27778Y1212D01*
Y1165D01*
X27754Y1142D01*
X27661D01*
X27638Y1165D01*
Y1212D01*
X27661Y1235D01*
X27708D01*
Y1188D01*
X27638Y1282D02*
X27778D01*
X27638Y1375D01*
X27778D01*
Y1422D02*
X27638D01*
Y1492D01*
X27661Y1515D01*
X27754D01*
X27778Y1492D01*
Y1422D01*
X28463Y1235D02*
X28486Y1212D01*
Y1165D01*
X28463Y1142D01*
X28370D01*
X28346Y1165D01*
Y1212D01*
X28370Y1235D01*
X28416D01*
Y1188D01*
X28346Y1282D02*
X28486D01*
X28346Y1375D01*
X28486D01*
Y1422D02*
X28346D01*
Y1492D01*
X28370Y1515D01*
X28463D01*
X28486Y1492D01*
Y1422D01*
X29172Y1235D02*
X29195Y1212D01*
Y1165D01*
X29172Y1142D01*
X29078D01*
X29055Y1165D01*
Y1212D01*
X29078Y1235D01*
X29125D01*
Y1188D01*
X29055Y1282D02*
X29195D01*
X29055Y1375D01*
X29195D01*
Y1422D02*
X29055D01*
Y1492D01*
X29078Y1515D01*
X29172D01*
X29195Y1492D01*
Y1422D01*
X30353Y1235D02*
X30376Y1212D01*
Y1165D01*
X30353Y1142D01*
X30260D01*
X30236Y1165D01*
Y1212D01*
X30260Y1235D01*
X30306D01*
Y1188D01*
X30236Y1282D02*
X30376D01*
X30236Y1375D01*
X30376D01*
Y1422D02*
X30236D01*
Y1492D01*
X30260Y1515D01*
X30353D01*
X30376Y1492D01*
Y1422D01*
X31062Y1235D02*
X31085Y1212D01*
Y1165D01*
X31062Y1142D01*
X30968D01*
X30945Y1165D01*
Y1212D01*
X30968Y1235D01*
X31015D01*
Y1188D01*
X30945Y1282D02*
X31085D01*
X30945Y1375D01*
X31085D01*
Y1422D02*
X30945D01*
Y1492D01*
X30968Y1515D01*
X31062D01*
X31085Y1492D01*
Y1422D01*
X31102Y1833D02*
X31056D01*
X31079D01*
Y1693D01*
X31102D01*
X31056D01*
X30986D02*
Y1833D01*
X30916D01*
X30892Y1810D01*
Y1763D01*
X30916Y1740D01*
X30986D01*
X30846Y1693D02*
Y1833D01*
X30799Y1786D01*
X30752Y1833D01*
Y1693D01*
X30706Y1833D02*
Y1693D01*
X30636D01*
X30613Y1716D01*
Y1740D01*
X30636Y1763D01*
X30706D01*
X30636D01*
X30613Y1786D01*
Y1810D01*
X30636Y1833D01*
X30706D01*
X30566D02*
Y1693D01*
X30496D01*
X30473Y1716D01*
Y1740D01*
X30496Y1763D01*
X30566D01*
X30496D01*
X30473Y1786D01*
Y1810D01*
X30496Y1833D01*
X30566D01*
X30825Y1235D02*
X30849Y1212D01*
Y1165D01*
X30825Y1142D01*
X30802D01*
X30779Y1165D01*
Y1212D01*
X30755Y1235D01*
X30732D01*
X30709Y1212D01*
Y1165D01*
X30732Y1142D01*
X30849Y1282D02*
X30709D01*
Y1352D01*
X30732Y1375D01*
X30825D01*
X30849Y1352D01*
Y1282D01*
X30709Y1422D02*
X30802D01*
X30849Y1468D01*
X30802Y1515D01*
X30709D01*
X30779D01*
Y1422D01*
X30589Y1235D02*
X30612Y1212D01*
Y1165D01*
X30589Y1142D01*
X30566D01*
X30542Y1165D01*
Y1212D01*
X30519Y1235D01*
X30496D01*
X30472Y1212D01*
Y1165D01*
X30496Y1142D01*
X30589Y1375D02*
X30612Y1352D01*
Y1305D01*
X30589Y1282D01*
X30496D01*
X30472Y1305D01*
Y1352D01*
X30496Y1375D01*
X30612Y1422D02*
X30472D01*
Y1515D01*
X29431Y1142D02*
X29291D01*
X29361D01*
Y1235D01*
X29431D01*
X29291D01*
Y1282D02*
X29385D01*
X29431Y1328D01*
X29385Y1375D01*
X29291D01*
X29361D01*
Y1282D01*
X29291Y1422D02*
Y1468D01*
Y1445D01*
X29431D01*
X29408Y1422D01*
X29668Y1142D02*
X29528D01*
X29598D01*
Y1235D01*
X29668D01*
X29528D01*
Y1282D02*
X29621D01*
X29668Y1328D01*
X29621Y1375D01*
X29528D01*
X29598D01*
Y1282D01*
X29644Y1422D02*
X29668Y1445D01*
Y1492D01*
X29644Y1515D01*
X29621D01*
X29598Y1492D01*
Y1468D01*
Y1492D01*
X29574Y1515D01*
X29551D01*
X29528Y1492D01*
Y1445D01*
X29551Y1422D01*
X29904Y1142D02*
X29764D01*
X29834D01*
Y1235D01*
X29904D01*
X29764D01*
Y1282D02*
X29857D01*
X29904Y1328D01*
X29857Y1375D01*
X29764D01*
X29834D01*
Y1282D01*
X29904Y1515D02*
Y1422D01*
X29834D01*
X29857Y1468D01*
Y1492D01*
X29834Y1515D01*
X29787D01*
X29764Y1492D01*
Y1445D01*
X29787Y1422D01*
X30140Y1142D02*
X30000D01*
X30070D01*
Y1235D01*
X30140D01*
X30000D01*
Y1282D02*
X30093D01*
X30140Y1328D01*
X30093Y1375D01*
X30000D01*
X30070D01*
Y1282D01*
X30140Y1422D02*
Y1515D01*
X30117D01*
X30023Y1422D01*
X30000D01*
X28959Y1142D02*
Y1235D01*
Y1188D01*
X28819D01*
X28959Y1282D02*
X28819D01*
Y1352D01*
X28842Y1375D01*
X28936D01*
X28959Y1352D01*
Y1282D01*
Y1422D02*
Y1468D01*
Y1445D01*
X28819D01*
Y1422D01*
Y1468D01*
X28723Y1142D02*
Y1235D01*
Y1188D01*
X28583D01*
X28699Y1375D02*
X28723Y1352D01*
Y1305D01*
X28699Y1282D01*
X28606D01*
X28583Y1305D01*
Y1352D01*
X28606Y1375D01*
X28723Y1422D02*
X28583D01*
X28629D01*
X28723Y1515D01*
X28653Y1445D01*
X28583Y1515D01*
X28250Y1142D02*
Y1235D01*
Y1188D01*
X28110D01*
X28250Y1282D02*
X28110D01*
Y1352D01*
X28134Y1375D01*
X28227D01*
X28250Y1352D01*
Y1282D01*
Y1422D02*
Y1468D01*
Y1445D01*
X28110D01*
Y1422D01*
Y1468D01*
X28014Y1142D02*
Y1235D01*
Y1188D01*
X27874D01*
X27991Y1375D02*
X28014Y1352D01*
Y1305D01*
X27991Y1282D01*
X27897D01*
X27874Y1305D01*
Y1352D01*
X27897Y1375D01*
X28014Y1422D02*
X27874D01*
X27921D01*
X28014Y1515D01*
X27944Y1445D01*
X27874Y1515D01*
X28135Y1833D02*
X28182D01*
X28158D01*
Y1716D01*
X28182Y1693D01*
X28205D01*
X28228Y1716D01*
X28088Y1833D02*
X27995D01*
X28042D01*
Y1693D01*
X27948D02*
Y1786D01*
X27902Y1833D01*
X27855Y1786D01*
Y1693D01*
Y1763D01*
X27948D01*
X27715Y1810D02*
X27738Y1833D01*
X27785D01*
X27808Y1810D01*
Y1716D01*
X27785Y1693D01*
X27738D01*
X27715Y1716D01*
Y1763D01*
X27762D01*
X28228Y2069D02*
X28135D01*
Y2046D01*
X28228Y1952D01*
Y1929D01*
X28135D01*
X28088Y2069D02*
Y2046D01*
X28042Y1999D01*
X27995Y2046D01*
Y2069D01*
X28042Y1999D02*
Y1929D01*
X27948D02*
Y2069D01*
X27855Y1929D01*
Y2069D01*
X27715Y1952D02*
Y2046D01*
X27738Y2069D01*
X27785D01*
X27808Y2046D01*
Y1952D01*
X27785Y1929D01*
X27738D01*
X27762Y1976D02*
X27715Y1929D01*
X27738D02*
X27715Y1952D01*
X17833Y1299D02*
X17856Y1323D01*
Y1369D01*
X17833Y1393D01*
X17810D01*
X17787Y1369D01*
X17763Y1393D01*
X17740D01*
X17717Y1369D01*
Y1323D01*
X17740Y1299D01*
X17763D01*
X17787Y1323D01*
X17810Y1299D01*
X17833D01*
X17787Y1323D02*
Y1369D01*
X17976Y1299D02*
X17953Y1323D01*
Y1369D01*
X17976Y1393D01*
X18069D01*
X18093Y1369D01*
Y1323D01*
X18069Y1299D01*
X18046D01*
X18023Y1323D01*
Y1393D01*
X18425Y1220D02*
Y1267D01*
Y1244D01*
X18565D01*
X18542Y1220D01*
Y1337D02*
X18565Y1360D01*
Y1407D01*
X18542Y1430D01*
X18449D01*
X18425Y1407D01*
Y1360D01*
X18449Y1337D01*
X18542D01*
X18661Y1220D02*
Y1267D01*
Y1244D01*
X18801D01*
X18778Y1220D01*
X18661Y1337D02*
Y1384D01*
Y1360D01*
X18801D01*
X18778Y1337D01*
X19134Y1220D02*
Y1267D01*
Y1244D01*
X19274D01*
X19250Y1220D01*
X19134Y1430D02*
Y1337D01*
X19227Y1430D01*
X19250D01*
X19274Y1407D01*
Y1360D01*
X19250Y1337D01*
X19370Y1220D02*
Y1267D01*
Y1244D01*
X19510D01*
X19487Y1220D01*
Y1337D02*
X19510Y1360D01*
Y1407D01*
X19487Y1430D01*
X19463D01*
X19440Y1407D01*
Y1384D01*
Y1407D01*
X19417Y1430D01*
X19393D01*
X19370Y1407D01*
Y1360D01*
X19393Y1337D01*
X19843Y1220D02*
Y1267D01*
Y1244D01*
X19982D01*
X19959Y1220D01*
X19843Y1407D02*
X19982D01*
X19913Y1337D01*
Y1430D01*
X20079Y1220D02*
Y1267D01*
Y1244D01*
X20219D01*
X20195Y1220D01*
X20219Y1430D02*
Y1337D01*
X20149D01*
X20172Y1384D01*
Y1407D01*
X20149Y1430D01*
X20102D01*
X20079Y1407D01*
Y1360D01*
X20102Y1337D01*
X20551Y1220D02*
Y1267D01*
Y1244D01*
X20691D01*
X20668Y1220D01*
X20691Y1337D02*
Y1430D01*
X20668D01*
X20575Y1337D01*
X20551D01*
X20787Y1220D02*
Y1267D01*
Y1244D01*
X20927D01*
X20904Y1220D01*
X20811Y1337D02*
X20787Y1360D01*
Y1407D01*
X20811Y1430D01*
X20904D01*
X20927Y1407D01*
Y1360D01*
X20904Y1337D01*
X20881D01*
X20857Y1360D01*
Y1430D01*
X21260Y1314D02*
Y1220D01*
X21353Y1314D01*
X21376D01*
X21400Y1290D01*
Y1244D01*
X21376Y1220D01*
X21260Y1360D02*
Y1407D01*
Y1384D01*
X21400D01*
X21376Y1360D01*
X21496Y1274D02*
Y1181D01*
X21589Y1274D01*
X21613D01*
X21636Y1251D01*
Y1204D01*
X21613Y1181D01*
Y1321D02*
X21636Y1344D01*
Y1391D01*
X21613Y1414D01*
X21589D01*
X21566Y1391D01*
Y1368D01*
Y1391D01*
X21543Y1414D01*
X21519D01*
X21496Y1391D01*
Y1344D01*
X21519Y1321D01*
X21969Y1274D02*
Y1181D01*
X22062Y1274D01*
X22085D01*
X22108Y1251D01*
Y1204D01*
X22085Y1181D01*
X22108Y1414D02*
Y1321D01*
X22038D01*
X22062Y1368D01*
Y1391D01*
X22038Y1414D01*
X21992D01*
X21969Y1391D01*
Y1344D01*
X21992Y1321D01*
X22205Y1274D02*
Y1181D01*
X22298Y1274D01*
X22321D01*
X22345Y1251D01*
Y1204D01*
X22321Y1181D01*
X22345Y1321D02*
Y1414D01*
X22321D01*
X22228Y1321D01*
X22205D01*
X22677Y1274D02*
Y1181D01*
X22770Y1274D01*
X22794D01*
X22817Y1251D01*
Y1204D01*
X22794Y1181D01*
X22700Y1321D02*
X22677Y1344D01*
Y1391D01*
X22700Y1414D01*
X22794D01*
X22817Y1391D01*
Y1344D01*
X22794Y1321D01*
X22770D01*
X22747Y1344D01*
Y1414D01*
X23030Y1181D02*
X23053Y1204D01*
Y1251D01*
X23030Y1274D01*
X23007D01*
X22983Y1251D01*
Y1228D01*
Y1251D01*
X22960Y1274D01*
X22937D01*
X22913Y1251D01*
Y1204D01*
X22937Y1181D01*
X22913Y1321D02*
Y1368D01*
Y1344D01*
X23053D01*
X23030Y1321D01*
X23502Y1181D02*
X23526Y1204D01*
Y1251D01*
X23502Y1274D01*
X23479D01*
X23456Y1251D01*
Y1228D01*
Y1251D01*
X23432Y1274D01*
X23409D01*
X23386Y1251D01*
Y1204D01*
X23409Y1181D01*
X23502Y1321D02*
X23526Y1344D01*
Y1391D01*
X23502Y1414D01*
X23479D01*
X23456Y1391D01*
Y1368D01*
Y1391D01*
X23432Y1414D01*
X23409D01*
X23386Y1391D01*
Y1344D01*
X23409Y1321D01*
X23739Y1181D02*
X23762Y1204D01*
Y1251D01*
X23739Y1274D01*
X23715D01*
X23692Y1251D01*
Y1228D01*
Y1251D01*
X23669Y1274D01*
X23645D01*
X23622Y1251D01*
Y1204D01*
X23645Y1181D01*
X23762Y1414D02*
Y1321D01*
X23692D01*
X23715Y1368D01*
Y1391D01*
X23692Y1414D01*
X23645D01*
X23622Y1391D01*
Y1344D01*
X23645Y1321D01*
X23975Y1181D02*
X23998Y1204D01*
Y1251D01*
X23975Y1274D01*
X23952D01*
X23928Y1251D01*
Y1228D01*
Y1251D01*
X23905Y1274D01*
X23882D01*
X23858Y1251D01*
Y1204D01*
X23882Y1181D01*
X23998Y1321D02*
Y1414D01*
X23975D01*
X23882Y1321D01*
X23858D01*
X24211Y1181D02*
X24234Y1204D01*
Y1251D01*
X24211Y1274D01*
X24188D01*
X24164Y1251D01*
Y1228D01*
Y1251D01*
X24141Y1274D01*
X24118D01*
X24094Y1251D01*
Y1204D01*
X24118Y1181D01*
Y1321D02*
X24094Y1344D01*
Y1391D01*
X24118Y1414D01*
X24211D01*
X24234Y1391D01*
Y1344D01*
X24211Y1321D01*
X24188D01*
X24164Y1344D01*
Y1414D01*
X24331Y1251D02*
X24471D01*
X24401Y1181D01*
Y1274D01*
X24331Y1321D02*
Y1368D01*
Y1344D01*
X24471D01*
X24447Y1321D01*
X24567Y1251D02*
X24707D01*
X24637Y1181D01*
Y1274D01*
X24684Y1321D02*
X24707Y1344D01*
Y1391D01*
X24684Y1414D01*
X24660D01*
X24637Y1391D01*
Y1368D01*
Y1391D01*
X24614Y1414D01*
X24590D01*
X24567Y1391D01*
Y1344D01*
X24590Y1321D01*
X24803Y1251D02*
X24943D01*
X24873Y1181D01*
Y1274D01*
X24943Y1414D02*
Y1321D01*
X24873D01*
X24896Y1368D01*
Y1391D01*
X24873Y1414D01*
X24826D01*
X24803Y1391D01*
Y1344D01*
X24826Y1321D01*
X25276Y1251D02*
X25416D01*
X25346Y1181D01*
Y1274D01*
X25416Y1321D02*
Y1414D01*
X25392D01*
X25299Y1321D01*
X25276D01*
X25512Y1251D02*
X25652D01*
X25582Y1181D01*
Y1274D01*
X25628Y1321D02*
X25652Y1344D01*
Y1391D01*
X25628Y1414D01*
X25605D01*
X25582Y1391D01*
X25558Y1414D01*
X25535D01*
X25512Y1391D01*
Y1344D01*
X25535Y1321D01*
X25558D01*
X25582Y1344D01*
X25605Y1321D01*
X25628D01*
X25582Y1344D02*
Y1391D01*
X25984Y1142D02*
X26124D01*
Y1212D01*
X26101Y1235D01*
X26054D01*
X26031Y1212D01*
Y1142D01*
Y1188D02*
X25984Y1235D01*
X26101Y1375D02*
X26124Y1352D01*
Y1305D01*
X26101Y1282D01*
X26078D01*
X26054Y1305D01*
Y1352D01*
X26031Y1375D01*
X26008D01*
X25984Y1352D01*
Y1305D01*
X26008Y1282D01*
X26124Y1422D02*
Y1515D01*
Y1468D01*
X25984D01*
X26360Y1142D02*
X26220D01*
X26290D01*
Y1235D01*
X26360D01*
X26220D01*
Y1282D02*
X26360D01*
X26220Y1375D01*
X26360D01*
Y1422D02*
X26220D01*
Y1492D01*
X26244Y1515D01*
X26337D01*
X26360Y1492D01*
Y1422D01*
X26693Y1142D02*
X26786D01*
X26833Y1188D01*
X26786Y1235D01*
X26693D01*
X26763D01*
Y1142D01*
X26833Y1282D02*
X26693D01*
Y1375D01*
Y1422D02*
X26786D01*
X26833Y1468D01*
X26786Y1515D01*
X26693D01*
X26763D01*
Y1422D01*
X26929Y1142D02*
X27022D01*
X27069Y1188D01*
X27022Y1235D01*
X26929D01*
X26999D01*
Y1142D01*
X27069Y1282D02*
X26929D01*
Y1375D01*
X27069Y1422D02*
X26929D01*
Y1492D01*
X26952Y1515D01*
X26976D01*
X26999Y1492D01*
Y1422D01*
Y1492D01*
X27022Y1515D01*
X27046D01*
X27069Y1492D01*
Y1422D01*
X27165Y1142D02*
X27305D01*
Y1212D01*
X27282Y1235D01*
X27235D01*
X27212Y1212D01*
Y1142D01*
X27282Y1375D02*
X27305Y1352D01*
Y1305D01*
X27282Y1282D01*
X27189D01*
X27165Y1305D01*
Y1352D01*
X27189Y1375D01*
X27235D01*
Y1328D01*
X27165Y1422D02*
X27259D01*
X27305Y1468D01*
X27259Y1515D01*
X27165D01*
X27235D01*
Y1422D01*
X27402Y1142D02*
X27542D01*
Y1212D01*
X27518Y1235D01*
X27472D01*
X27448Y1212D01*
Y1142D01*
X27518Y1375D02*
X27542Y1352D01*
Y1305D01*
X27518Y1282D01*
X27425D01*
X27402Y1305D01*
Y1352D01*
X27425Y1375D01*
X27472D01*
Y1328D01*
X27542Y1422D02*
X27402D01*
Y1492D01*
X27425Y1515D01*
X27448D01*
X27472Y1492D01*
Y1422D01*
Y1492D01*
X27495Y1515D01*
X27518D01*
X27542Y1492D01*
Y1422D01*
X26457Y1142D02*
X26597D01*
Y1212D01*
X26573Y1235D01*
X26527D01*
X26503Y1212D01*
Y1142D01*
X26597Y1375D02*
Y1282D01*
X26457D01*
Y1375D01*
X26527Y1282D02*
Y1328D01*
X26457Y1422D02*
X26597D01*
X26457Y1515D01*
X26597D01*
X15354Y1353D02*
Y1260D01*
X15448Y1353D01*
X15471D01*
X15494Y1330D01*
Y1283D01*
X15471Y1260D01*
X15707D02*
X15731Y1283D01*
Y1330D01*
X15707Y1353D01*
X15684D01*
X15661Y1330D01*
Y1306D01*
Y1330D01*
X15637Y1353D01*
X15614D01*
X15591Y1330D01*
Y1283D01*
X15614Y1260D01*
X16203Y1353D02*
X16180Y1306D01*
X16133Y1260D01*
X16086D01*
X16063Y1283D01*
Y1330D01*
X16086Y1353D01*
X16110D01*
X16133Y1330D01*
Y1260D01*
X16439D02*
Y1353D01*
X16416D01*
X16323Y1260D01*
X16299D01*
X13817Y1235D02*
X13841Y1212D01*
Y1165D01*
X13817Y1142D01*
X13724D01*
X13701Y1165D01*
Y1212D01*
X13724Y1235D01*
X13771D01*
Y1188D01*
X13701Y1282D02*
X13841D01*
X13701Y1375D01*
X13841D01*
Y1422D02*
X13701D01*
Y1492D01*
X13724Y1515D01*
X13817D01*
X13841Y1492D01*
Y1422D01*
X13109Y1235D02*
X13132Y1212D01*
Y1165D01*
X13109Y1142D01*
X13015D01*
X12992Y1165D01*
Y1212D01*
X13015Y1235D01*
X13062D01*
Y1188D01*
X12992Y1282D02*
X13132D01*
X12992Y1375D01*
X13132D01*
Y1422D02*
X12992D01*
Y1492D01*
X13015Y1515D01*
X13109D01*
X13132Y1492D01*
Y1422D01*
X12400Y1235D02*
X12423Y1212D01*
Y1165D01*
X12400Y1142D01*
X12307D01*
X12283Y1165D01*
Y1212D01*
X12307Y1235D01*
X12353D01*
Y1188D01*
X12283Y1282D02*
X12423D01*
X12283Y1375D01*
X12423D01*
Y1422D02*
X12283D01*
Y1492D01*
X12307Y1515D01*
X12400D01*
X12423Y1492D01*
Y1422D01*
X11928Y1260D02*
X11951Y1283D01*
Y1330D01*
X11928Y1353D01*
X11834D01*
X11811Y1330D01*
Y1283D01*
X11834Y1260D01*
X11928D01*
X12047Y1299D02*
Y1346D01*
Y1323D01*
X12187D01*
X12164Y1299D01*
X12520Y1220D02*
X12613D01*
X12660Y1267D01*
X12613Y1314D01*
X12520D01*
X12590D01*
Y1220D01*
Y1360D02*
Y1454D01*
X12636Y1407D02*
X12543D01*
X12756Y1220D02*
X12849D01*
X12896Y1267D01*
X12849Y1314D01*
X12756D01*
X12826D01*
Y1220D01*
Y1360D02*
Y1454D01*
X13368Y1220D02*
X13228D01*
Y1290D01*
X13252Y1314D01*
X13275D01*
X13298Y1290D01*
Y1220D01*
Y1290D01*
X13322Y1314D01*
X13345D01*
X13368Y1290D01*
Y1220D01*
X13298Y1360D02*
Y1454D01*
X13345Y1407D02*
X13252D01*
X13605Y1220D02*
X13465D01*
Y1290D01*
X13488Y1314D01*
X13511D01*
X13535Y1290D01*
Y1220D01*
Y1290D01*
X13558Y1314D01*
X13581D01*
X13605Y1290D01*
Y1220D01*
X13535Y1360D02*
Y1454D01*
X14054Y1314D02*
X14077Y1290D01*
Y1244D01*
X14054Y1220D01*
X13960D01*
X13937Y1244D01*
Y1290D01*
X13960Y1314D01*
X14007Y1360D02*
Y1454D01*
X14054Y1407D02*
X13960D01*
X14290Y1314D02*
X14313Y1290D01*
Y1244D01*
X14290Y1220D01*
X14197D01*
X14173Y1244D01*
Y1290D01*
X14197Y1314D01*
X14243Y1360D02*
Y1454D01*
X14786Y1220D02*
X14646D01*
Y1290D01*
X14669Y1314D01*
X14762D01*
X14786Y1290D01*
Y1220D01*
X14716Y1360D02*
Y1454D01*
X14762Y1407D02*
X14669D01*
X15022Y1220D02*
X14882D01*
Y1290D01*
X14905Y1314D01*
X14999D01*
X15022Y1290D01*
Y1220D01*
X14952Y1360D02*
Y1454D01*
X14961Y1693D02*
X14914D01*
X14937D01*
Y1833D01*
X14961Y1810D01*
X14751D02*
X14774Y1833D01*
X14821D01*
X14844Y1810D01*
Y1716D01*
X14821Y1693D01*
X14774D01*
X14751Y1716D01*
Y1763D01*
X14797D01*
X14564Y1833D02*
Y1693D01*
X14494D01*
X14471Y1716D01*
Y1740D01*
X14494Y1763D01*
X14564D01*
X14494D01*
X14471Y1786D01*
Y1810D01*
X14494Y1833D01*
X14564D01*
X14424Y1693D02*
Y1786D01*
X14377Y1833D01*
X14331Y1786D01*
Y1693D01*
Y1763D01*
X14424D01*
X14191Y1810D02*
X14214Y1833D01*
X14261D01*
X14284Y1810D01*
Y1786D01*
X14261Y1763D01*
X14214D01*
X14191Y1740D01*
Y1716D01*
X14214Y1693D01*
X14261D01*
X14284Y1716D01*
X14051Y1833D02*
X14144D01*
Y1693D01*
X14051D01*
X14144Y1763D02*
X14098D01*
X14004D02*
X13911D01*
X13864Y1833D02*
X13771D01*
X13818D01*
Y1693D01*
X13491Y1833D02*
X13584D01*
Y1693D01*
X13491D01*
X13584Y1763D02*
X13538D01*
X13444Y1833D02*
X13351D01*
X13398D01*
Y1693D01*
X13305Y1833D02*
Y1693D01*
Y1763D01*
X13211D01*
Y1833D01*
Y1693D01*
X13071Y1833D02*
X13165D01*
Y1693D01*
X13071D01*
X13165Y1763D02*
X13118D01*
X13025Y1693D02*
Y1833D01*
X12955D01*
X12931Y1810D01*
Y1763D01*
X12955Y1740D01*
X13025D01*
X12978D02*
X12931Y1693D01*
X12885D02*
Y1833D01*
X12791Y1693D01*
Y1833D01*
X12651D02*
X12745D01*
Y1693D01*
X12651D01*
X12745Y1763D02*
X12698D01*
X12605Y1833D02*
X12511D01*
X12558D01*
Y1693D01*
X1557Y1220D02*
X1417D01*
Y1290D01*
X1441Y1314D01*
X1464D01*
X1487Y1290D01*
Y1220D01*
Y1290D01*
X1511Y1314D01*
X1534D01*
X1557Y1290D01*
Y1220D01*
X1534Y1360D02*
X1557Y1384D01*
Y1430D01*
X1534Y1454D01*
X1441D01*
X1417Y1430D01*
Y1384D01*
X1441Y1360D01*
X1534D01*
X1794Y1220D02*
X1654D01*
Y1290D01*
X1677Y1314D01*
X1700D01*
X1724Y1290D01*
Y1220D01*
Y1290D01*
X1747Y1314D01*
X1770D01*
X1794Y1290D01*
Y1220D01*
X1654Y1360D02*
Y1407D01*
Y1384D01*
X1794D01*
X1770Y1360D01*
X2266Y1220D02*
X2126D01*
Y1290D01*
X2149Y1314D01*
X2173D01*
X2196Y1290D01*
Y1220D01*
Y1290D01*
X2219Y1314D01*
X2243D01*
X2266Y1290D01*
Y1220D01*
X2126Y1454D02*
Y1360D01*
X2219Y1454D01*
X2243D01*
X2266Y1430D01*
Y1384D01*
X2243Y1360D01*
X2502Y1220D02*
X2362D01*
Y1290D01*
X2386Y1314D01*
X2409D01*
X2432Y1290D01*
Y1220D01*
Y1290D01*
X2456Y1314D01*
X2479D01*
X2502Y1290D01*
Y1220D01*
X2479Y1360D02*
X2502Y1384D01*
Y1430D01*
X2479Y1454D01*
X2456D01*
X2432Y1430D01*
Y1407D01*
Y1430D01*
X2409Y1454D01*
X2386D01*
X2362Y1430D01*
Y1384D01*
X2386Y1360D01*
X2738Y1220D02*
X2598D01*
Y1290D01*
X2622Y1314D01*
X2645D01*
X2668Y1290D01*
Y1220D01*
Y1290D01*
X2692Y1314D01*
X2715D01*
X2738Y1290D01*
Y1220D01*
X2598Y1430D02*
X2738D01*
X2668Y1360D01*
Y1454D01*
X2975Y1220D02*
X2835D01*
Y1290D01*
X2858Y1314D01*
X2881D01*
X2905Y1290D01*
Y1220D01*
Y1290D01*
X2928Y1314D01*
X2951D01*
X2975Y1290D01*
Y1220D01*
Y1454D02*
Y1360D01*
X2905D01*
X2928Y1407D01*
Y1430D01*
X2905Y1454D01*
X2858D01*
X2835Y1430D01*
Y1384D01*
X2858Y1360D01*
X3447Y1220D02*
X3307D01*
Y1290D01*
X3330Y1314D01*
X3354D01*
X3377Y1290D01*
Y1220D01*
Y1290D01*
X3400Y1314D01*
X3424D01*
X3447Y1290D01*
Y1220D01*
Y1454D02*
X3424Y1407D01*
X3377Y1360D01*
X3330D01*
X3307Y1384D01*
Y1430D01*
X3330Y1454D01*
X3354D01*
X3377Y1430D01*
Y1360D01*
X3683Y1220D02*
X3543D01*
Y1290D01*
X3567Y1314D01*
X3590D01*
X3613Y1290D01*
Y1220D01*
Y1290D01*
X3637Y1314D01*
X3660D01*
X3683Y1290D01*
Y1220D01*
Y1360D02*
Y1454D01*
X3660D01*
X3567Y1360D01*
X3543D01*
X8289Y4954D02*
X8383Y5047D01*
X8289Y5094D02*
X8429D01*
Y5164D01*
X8406Y5187D01*
X8359D01*
X8336Y5164D01*
Y5094D01*
X8406Y5327D02*
X8429Y5304D01*
Y5257D01*
X8406Y5234D01*
X8383D01*
X8359Y5257D01*
Y5304D01*
X8336Y5327D01*
X8313D01*
X8289Y5304D01*
Y5257D01*
X8313Y5234D01*
X8289Y5373D02*
Y5420D01*
Y5397D01*
X8429D01*
X8406Y5373D01*
X8526Y4481D02*
X8619Y4574D01*
X8666Y4714D02*
Y4621D01*
X8526D01*
Y4714D01*
X8596Y4621D02*
Y4668D01*
X8526Y4761D02*
X8666D01*
X8526Y4854D01*
X8666D01*
X8526Y4901D02*
X8619D01*
X8666Y4948D01*
X8619Y4994D01*
X8526D01*
X8596D01*
Y4901D01*
X8666Y5041D02*
X8526D01*
Y5111D01*
X8549Y5134D01*
X8572D01*
X8596Y5111D01*
Y5041D01*
Y5111D01*
X8619Y5134D01*
X8642D01*
X8666Y5111D01*
Y5041D01*
Y5181D02*
X8526D01*
Y5274D01*
X8666Y5414D02*
Y5321D01*
X8526D01*
Y5414D01*
X8596Y5321D02*
Y5368D01*
X8902Y4363D02*
Y4410D01*
Y4386D01*
X8762D01*
Y4363D01*
Y4410D01*
Y4480D02*
X8902D01*
Y4550D01*
X8878Y4573D01*
X8832D01*
X8808Y4550D01*
Y4480D01*
X8762Y4620D02*
X8902D01*
X8855Y4666D01*
X8902Y4713D01*
X8762D01*
X8902Y4760D02*
X8762D01*
Y4830D01*
X8785Y4853D01*
X8808D01*
X8832Y4830D01*
Y4760D01*
Y4830D01*
X8855Y4853D01*
X8878D01*
X8902Y4830D01*
Y4760D01*
X8832Y4900D02*
Y4993D01*
X8878Y5133D02*
X8902Y5110D01*
Y5063D01*
X8878Y5040D01*
X8855D01*
X8832Y5063D01*
Y5110D01*
X8808Y5133D01*
X8785D01*
X8762Y5110D01*
Y5063D01*
X8785Y5040D01*
X8878Y5273D02*
X8902Y5249D01*
Y5203D01*
X8878Y5179D01*
X8785D01*
X8762Y5203D01*
Y5249D01*
X8785Y5273D01*
X8902Y5319D02*
X8762D01*
Y5413D01*
X9138Y4363D02*
Y4410D01*
Y4386D01*
X8998D01*
Y4363D01*
Y4410D01*
Y4480D02*
X9138D01*
Y4550D01*
X9115Y4573D01*
X9068D01*
X9045Y4550D01*
Y4480D01*
X8998Y4620D02*
X9138D01*
X9091Y4666D01*
X9138Y4713D01*
X8998D01*
X9138Y4760D02*
X8998D01*
Y4830D01*
X9021Y4853D01*
X9045D01*
X9068Y4830D01*
Y4760D01*
Y4830D01*
X9091Y4853D01*
X9115D01*
X9138Y4830D01*
Y4760D01*
X8975Y4900D02*
Y4993D01*
X9115Y5133D02*
X9138Y5110D01*
Y5063D01*
X9115Y5040D01*
X9091D01*
X9068Y5063D01*
Y5110D01*
X9045Y5133D01*
X9021D01*
X8998Y5110D01*
Y5063D01*
X9021Y5040D01*
X9115Y5273D02*
X9138Y5249D01*
Y5203D01*
X9115Y5179D01*
X9021D01*
X8998Y5203D01*
Y5249D01*
X9021Y5273D01*
X8998Y5319D02*
X9091D01*
X9138Y5366D01*
X9091Y5413D01*
X8998D01*
X9068D01*
Y5319D01*
X9234Y4599D02*
X9374D01*
X9328Y4646D01*
X9374Y4693D01*
X9234D01*
Y4739D02*
X9374D01*
Y4809D01*
X9351Y4833D01*
X9304D01*
X9281Y4809D01*
Y4739D01*
X9211Y4879D02*
Y4972D01*
X9374Y5112D02*
Y5019D01*
X9234D01*
Y5112D01*
X9304Y5019D02*
Y5066D01*
X9234Y5159D02*
X9374D01*
X9234Y5252D01*
X9374D01*
X9234Y5299D02*
X9328D01*
X9374Y5346D01*
X9328Y5392D01*
X9234D01*
X9304D01*
Y5299D01*
X9470Y4481D02*
X9610D01*
Y4551D01*
X9587Y4574D01*
X9540D01*
X9517Y4551D01*
Y4481D01*
X9610Y4621D02*
X9470D01*
X9517Y4668D01*
X9470Y4714D01*
X9610D01*
X9470Y4761D02*
X9610D01*
Y4831D01*
X9587Y4854D01*
X9540D01*
X9517Y4831D01*
Y4761D01*
Y4808D02*
X9470Y4854D01*
X9447Y4901D02*
Y4994D01*
X9610Y5134D02*
Y5041D01*
X9470D01*
Y5134D01*
X9540Y5041D02*
Y5088D01*
X9470Y5181D02*
X9610D01*
X9470Y5274D01*
X9610D01*
X9470Y5321D02*
X9564D01*
X9610Y5368D01*
X9564Y5414D01*
X9470D01*
X9540D01*
Y5321D01*
X9707Y4757D02*
X9847D01*
X9800Y4803D01*
X9847Y4850D01*
X9707D01*
Y4897D02*
X9847D01*
Y4967D01*
X9823Y4990D01*
X9777D01*
X9753Y4967D01*
Y4897D01*
X9683Y5037D02*
Y5130D01*
X9707Y5177D02*
X9847D01*
Y5247D01*
X9823Y5270D01*
X9777D01*
X9753Y5247D01*
Y5177D01*
X9823Y5410D02*
X9847Y5387D01*
Y5340D01*
X9823Y5317D01*
X9730D01*
X9707Y5340D01*
Y5387D01*
X9730Y5410D01*
X9777D01*
Y5363D01*
X9943Y4481D02*
X10083D01*
X10036Y4528D01*
X10083Y4574D01*
X9943D01*
Y4621D02*
X10083D01*
Y4691D01*
X10060Y4714D01*
X10013D01*
X9990Y4691D01*
Y4621D01*
X10083Y4761D02*
X9943D01*
X9990Y4808D01*
X9943Y4854D01*
X10083D01*
X9943Y4901D02*
X10083D01*
Y4971D01*
X10060Y4994D01*
X10013D01*
X9990Y4971D01*
Y4901D01*
Y4948D02*
X9943Y4994D01*
X9920Y5041D02*
Y5134D01*
X9943Y5181D02*
X10083D01*
Y5251D01*
X10060Y5274D01*
X10013D01*
X9990Y5251D01*
Y5181D01*
X10060Y5414D02*
X10083Y5391D01*
Y5344D01*
X10060Y5321D01*
X9966D01*
X9943Y5344D01*
Y5391D01*
X9966Y5414D01*
X10013D01*
Y5368D01*
X10179Y4599D02*
X10319D01*
X10272Y4646D01*
X10319Y4693D01*
X10179D01*
Y4739D02*
X10319D01*
Y4809D01*
X10296Y4833D01*
X10249D01*
X10226Y4809D01*
Y4739D01*
X10156Y4879D02*
Y4972D01*
X10319Y5112D02*
Y5019D01*
X10249D01*
Y5066D01*
Y5019D01*
X10179D01*
X10319Y5159D02*
X10179D01*
Y5252D01*
X10319Y5299D02*
Y5392D01*
Y5346D01*
X10179D01*
X10415Y4481D02*
X10555D01*
Y4551D01*
X10532Y4574D01*
X10485D01*
X10462Y4551D01*
Y4481D01*
X10555Y4621D02*
X10415D01*
X10462Y4668D01*
X10415Y4714D01*
X10555D01*
X10415Y4761D02*
X10555D01*
Y4831D01*
X10532Y4854D01*
X10485D01*
X10462Y4831D01*
Y4761D01*
Y4808D02*
X10415Y4854D01*
X10392Y4901D02*
Y4994D01*
X10555Y5134D02*
Y5041D01*
X10485D01*
Y5088D01*
Y5041D01*
X10415D01*
X10555Y5181D02*
X10415D01*
Y5274D01*
X10555Y5321D02*
Y5414D01*
Y5368D01*
X10415D01*
X9707Y5584D02*
Y5724D01*
X9660Y5677D01*
X9613Y5724D01*
Y5584D01*
X9567D02*
Y5724D01*
X9520Y5677D01*
X9473Y5724D01*
Y5584D01*
X9333Y5700D02*
X9357Y5724D01*
X9403D01*
X9427Y5700D01*
Y5607D01*
X9403Y5584D01*
X9357D01*
X9333Y5607D01*
X9287Y5677D02*
X9194Y5584D01*
X9240Y5630D01*
X9194Y5677D01*
X9287Y5584D01*
%TF.MD5,2023a19452606597648e7439af808adc*%
M02*
