G04 Layer_Color=8421504*
%FSLAX24Y24*%
%MOIN*%
G70*
G01*
G75*
%ADD10R,0.0209X0.0069*%
%ADD12O,0.0236X0.0098*%
%ADD13R,0.0236X0.0098*%
%ADD14R,0.0354X0.0256*%
%ADD15R,0.0295X0.0295*%
%ADD16R,0.0177X0.0394*%
%ADD18R,0.0354X0.0276*%
%ADD19R,0.0205X0.0197*%
%ADD21C,0.0157*%
%ADD22R,0.0315X0.0315*%
%ADD23R,0.0217X0.0217*%
%ADD24R,0.0248X0.0799*%
%ADD25O,0.0098X0.0354*%
%ADD26O,0.0354X0.0098*%
%ADD28O,0.0118X0.0335*%
%ADD29O,0.0335X0.0118*%
%ADD31C,0.0177*%
%ADD32R,0.0531X0.1024*%
%ADD33R,0.0394X0.0571*%
%ADD34R,0.0197X0.0205*%
%ADD35R,0.1024X0.0531*%
%ADD36R,0.0138X0.0138*%
%ADD37R,0.0138X0.0138*%
%ADD38R,0.0906X0.0335*%
%ADD39R,0.0217X0.0217*%
%ADD40R,0.0315X0.0315*%
%ADD41R,0.0571X0.0394*%
%ADD51C,0.0100*%
%ADD84R,0.0374X0.0386*%
%ADD85R,0.0374X0.0386*%
%ADD86R,0.0400X0.0400*%
%ADD87R,0.0350X0.0350*%
%ADD88R,0.0575X0.0102*%
D10*
X24711Y8553D02*
D03*
Y8415D02*
D03*
Y8278D02*
D03*
Y8140D02*
D03*
X24974Y8553D02*
D03*
Y8415D02*
D03*
Y8278D02*
D03*
Y8140D02*
D03*
D12*
X19094Y4961D02*
D03*
Y4764D02*
D03*
Y4567D02*
D03*
X1575Y9252D02*
D03*
Y9055D02*
D03*
Y8858D02*
D03*
D13*
X19094Y4370D02*
D03*
X1575Y9449D02*
D03*
D14*
X20394Y9744D02*
D03*
Y10118D02*
D03*
Y10492D02*
D03*
X19449D02*
D03*
Y10118D02*
D03*
Y9744D02*
D03*
D15*
X20039Y7695D02*
D03*
X20413Y6793D02*
D03*
X19665D02*
D03*
D16*
X22045Y8211D02*
D03*
X22545D02*
D03*
X23045D02*
D03*
X23545D02*
D03*
X22045Y11238D02*
D03*
X22545D02*
D03*
X23045D02*
D03*
X23545D02*
D03*
D18*
X1496Y2461D02*
D03*
Y1870D02*
D03*
D19*
X28819Y1923D02*
D03*
Y2250D02*
D03*
X14724D02*
D03*
Y1923D02*
D03*
X6220Y4730D02*
D03*
Y4404D02*
D03*
X7559D02*
D03*
Y4730D02*
D03*
X20906Y7722D02*
D03*
Y7396D02*
D03*
X24213Y6069D02*
D03*
Y5742D02*
D03*
X20906Y7093D02*
D03*
Y6766D02*
D03*
X29528Y11266D02*
D03*
Y10939D02*
D03*
X28543D02*
D03*
Y11266D02*
D03*
X30512D02*
D03*
Y10939D02*
D03*
X5354Y3852D02*
D03*
Y4179D02*
D03*
X1500Y2937D02*
D03*
Y3263D02*
D03*
X28780Y3116D02*
D03*
Y2789D02*
D03*
X24370Y7041D02*
D03*
Y7368D02*
D03*
X2559Y9876D02*
D03*
Y10203D02*
D03*
X24134Y4915D02*
D03*
Y5242D02*
D03*
X21220Y6766D02*
D03*
Y7093D02*
D03*
X19094Y7081D02*
D03*
Y7407D02*
D03*
X24488Y4730D02*
D03*
Y4404D02*
D03*
X12835Y11423D02*
D03*
Y11096D02*
D03*
X18386Y7407D02*
D03*
Y7081D02*
D03*
X18740D02*
D03*
Y7407D02*
D03*
X21260Y11344D02*
D03*
Y11018D02*
D03*
X20945D02*
D03*
Y11344D02*
D03*
X26378Y10663D02*
D03*
Y10990D02*
D03*
X27362D02*
D03*
Y10663D02*
D03*
X23898Y7041D02*
D03*
Y7368D02*
D03*
X25000Y7041D02*
D03*
Y7368D02*
D03*
X24685Y7041D02*
D03*
Y7368D02*
D03*
D21*
X7362Y5945D02*
D03*
X7047D02*
D03*
X6732D02*
D03*
X5472D02*
D03*
X5157D02*
D03*
X4843D02*
D03*
X7362Y6260D02*
D03*
X7047D02*
D03*
X6732D02*
D03*
X5472D02*
D03*
X5157D02*
D03*
X4843D02*
D03*
X7362Y6575D02*
D03*
X7047D02*
D03*
X6732D02*
D03*
X5472D02*
D03*
X5157D02*
D03*
X4843D02*
D03*
X7362Y6890D02*
D03*
X7047D02*
D03*
X6732D02*
D03*
X5472D02*
D03*
X5157D02*
D03*
X4843D02*
D03*
X7362Y7205D02*
D03*
X7047D02*
D03*
X6732D02*
D03*
X5472D02*
D03*
X5157D02*
D03*
X4843D02*
D03*
X7362Y7520D02*
D03*
X7047D02*
D03*
X6732D02*
D03*
X5472D02*
D03*
X5157D02*
D03*
X4843D02*
D03*
X7362Y7835D02*
D03*
X7047D02*
D03*
X6732D02*
D03*
X5472D02*
D03*
X5157D02*
D03*
X4843D02*
D03*
X7362Y8150D02*
D03*
X7047D02*
D03*
X6732D02*
D03*
X5472D02*
D03*
X5157D02*
D03*
X4843D02*
D03*
X7362Y8465D02*
D03*
X7047D02*
D03*
X6732D02*
D03*
X5472D02*
D03*
X5157D02*
D03*
X4843D02*
D03*
X7362Y8780D02*
D03*
X7047D02*
D03*
X6732D02*
D03*
X5472D02*
D03*
X5157D02*
D03*
X4843D02*
D03*
X7362Y9094D02*
D03*
X7047D02*
D03*
X6732D02*
D03*
X5472D02*
D03*
X5157D02*
D03*
X4843D02*
D03*
X7362Y9409D02*
D03*
X7047D02*
D03*
X6732D02*
D03*
X5472D02*
D03*
X5157D02*
D03*
X4843D02*
D03*
X7362Y9724D02*
D03*
X7047D02*
D03*
X6732D02*
D03*
X5472D02*
D03*
X5157D02*
D03*
X4843D02*
D03*
X7362Y10039D02*
D03*
X7047D02*
D03*
X6732D02*
D03*
X5472D02*
D03*
X5157D02*
D03*
X4843D02*
D03*
X7362Y10354D02*
D03*
X7047D02*
D03*
X6732D02*
D03*
X5472D02*
D03*
X5157D02*
D03*
X4843D02*
D03*
X7362Y10669D02*
D03*
X7047D02*
D03*
X6732D02*
D03*
X5472D02*
D03*
X5157D02*
D03*
X4843D02*
D03*
D22*
X27795Y11142D02*
D03*
Y10512D02*
D03*
X6654Y4134D02*
D03*
Y4764D02*
D03*
X7126D02*
D03*
Y4134D02*
D03*
X29961Y11142D02*
D03*
Y10512D02*
D03*
X28976D02*
D03*
Y11142D02*
D03*
X30945D02*
D03*
Y10512D02*
D03*
X26811D02*
D03*
Y11142D02*
D03*
D23*
X12205Y11437D02*
D03*
Y11083D02*
D03*
D24*
X30394Y9343D02*
D03*
X30000D02*
D03*
X29606D02*
D03*
X29213D02*
D03*
X28819D02*
D03*
X28425D02*
D03*
X28031D02*
D03*
X27638D02*
D03*
X27244D02*
D03*
X26850D02*
D03*
X26457D02*
D03*
X26063D02*
D03*
X30394Y4843D02*
D03*
X30000D02*
D03*
X29606D02*
D03*
X29213D02*
D03*
X28819D02*
D03*
X28425D02*
D03*
X28031D02*
D03*
X27638D02*
D03*
X27244D02*
D03*
X26850D02*
D03*
X26457D02*
D03*
X26063D02*
D03*
D25*
X2956Y2632D02*
D03*
X3153D02*
D03*
X3350D02*
D03*
X3547D02*
D03*
X3744D02*
D03*
Y4168D02*
D03*
X3547D02*
D03*
X3350D02*
D03*
X3153D02*
D03*
X2956D02*
D03*
D26*
X4118Y3006D02*
D03*
Y3203D02*
D03*
Y3400D02*
D03*
Y3597D02*
D03*
Y3794D02*
D03*
X2582D02*
D03*
Y3597D02*
D03*
Y3400D02*
D03*
Y3203D02*
D03*
Y3006D02*
D03*
D28*
X22608Y4360D02*
D03*
X22864D02*
D03*
X23120D02*
D03*
X23376D02*
D03*
Y5797D02*
D03*
X23120D02*
D03*
X22864D02*
D03*
X22608D02*
D03*
D29*
X23711Y4695D02*
D03*
Y4951D02*
D03*
Y5207D02*
D03*
Y5463D02*
D03*
X22274D02*
D03*
Y5207D02*
D03*
Y4951D02*
D03*
Y4695D02*
D03*
D31*
X10000Y10354D02*
D03*
X10315D02*
D03*
X10630D02*
D03*
X10945D02*
D03*
X11260D02*
D03*
X11575D02*
D03*
X11890D02*
D03*
X12205D02*
D03*
X12520D02*
D03*
X12835D02*
D03*
X13150D02*
D03*
X13465D02*
D03*
X13780D02*
D03*
X14094D02*
D03*
X14409D02*
D03*
X14724D02*
D03*
X15039D02*
D03*
X15354D02*
D03*
X15669D02*
D03*
X15984D02*
D03*
X10000Y10039D02*
D03*
X10315D02*
D03*
X10630D02*
D03*
X10945D02*
D03*
X11260D02*
D03*
X11575D02*
D03*
X11890D02*
D03*
X12205D02*
D03*
X12520D02*
D03*
X12835D02*
D03*
X13150D02*
D03*
X13465D02*
D03*
X13780D02*
D03*
X14094D02*
D03*
X14409D02*
D03*
X14724D02*
D03*
X15039D02*
D03*
X15354D02*
D03*
X15669D02*
D03*
X15984D02*
D03*
X10000Y9724D02*
D03*
X10315D02*
D03*
X10630D02*
D03*
X10945D02*
D03*
X11260D02*
D03*
X11575D02*
D03*
X11890D02*
D03*
X12205D02*
D03*
X12520D02*
D03*
X12835D02*
D03*
X13150D02*
D03*
X13465D02*
D03*
X13780D02*
D03*
X14094D02*
D03*
X14409D02*
D03*
X14724D02*
D03*
X15039D02*
D03*
X15354D02*
D03*
X15669D02*
D03*
X15984D02*
D03*
X10000Y9409D02*
D03*
X10315D02*
D03*
X10630D02*
D03*
X10945D02*
D03*
X11260D02*
D03*
X11575D02*
D03*
X11890D02*
D03*
X12205D02*
D03*
X12520D02*
D03*
X12835D02*
D03*
X13150D02*
D03*
X13465D02*
D03*
X13780D02*
D03*
X14094D02*
D03*
X14409D02*
D03*
X14724D02*
D03*
X15039D02*
D03*
X15354D02*
D03*
X15669D02*
D03*
X15984D02*
D03*
X10000Y9094D02*
D03*
X10315D02*
D03*
X10630D02*
D03*
X10945D02*
D03*
X11260D02*
D03*
X11575D02*
D03*
X11890D02*
D03*
X12205D02*
D03*
X12520D02*
D03*
X12835D02*
D03*
X13150D02*
D03*
X13465D02*
D03*
X13780D02*
D03*
X14094D02*
D03*
X14409D02*
D03*
X14724D02*
D03*
X15039D02*
D03*
X15354D02*
D03*
X15669D02*
D03*
X15984D02*
D03*
X10000Y8780D02*
D03*
X10315D02*
D03*
X10630D02*
D03*
X10945D02*
D03*
X11260D02*
D03*
X11575D02*
D03*
X11890D02*
D03*
X12205D02*
D03*
X12520D02*
D03*
X12835D02*
D03*
X13150D02*
D03*
X13465D02*
D03*
X13780D02*
D03*
X14094D02*
D03*
X14409D02*
D03*
X14724D02*
D03*
X15039D02*
D03*
X15354D02*
D03*
X15669D02*
D03*
X15984D02*
D03*
X10000Y8465D02*
D03*
X10315D02*
D03*
X10630D02*
D03*
X10945D02*
D03*
X11260D02*
D03*
X11575D02*
D03*
X11890D02*
D03*
X12205D02*
D03*
X12520D02*
D03*
X12835D02*
D03*
X13150D02*
D03*
X13465D02*
D03*
X13780D02*
D03*
X14094D02*
D03*
X14409D02*
D03*
X14724D02*
D03*
X15039D02*
D03*
X15354D02*
D03*
X15669D02*
D03*
X15984D02*
D03*
X10000Y8150D02*
D03*
X10315D02*
D03*
X10630D02*
D03*
X10945D02*
D03*
X11260D02*
D03*
X11575D02*
D03*
X11890D02*
D03*
X12205D02*
D03*
X12520D02*
D03*
X12835D02*
D03*
X13150D02*
D03*
X13465D02*
D03*
X13780D02*
D03*
X14094D02*
D03*
X14409D02*
D03*
X14724D02*
D03*
X15039D02*
D03*
X15354D02*
D03*
X15669D02*
D03*
X15984D02*
D03*
X10000Y7835D02*
D03*
X10315D02*
D03*
X10630D02*
D03*
X10945D02*
D03*
X11260D02*
D03*
X11575D02*
D03*
X11890D02*
D03*
X12205D02*
D03*
X12520D02*
D03*
X12835D02*
D03*
X13150D02*
D03*
X13465D02*
D03*
X13780D02*
D03*
X14094D02*
D03*
X14409D02*
D03*
X14724D02*
D03*
X15039D02*
D03*
X15354D02*
D03*
X15669D02*
D03*
X15984D02*
D03*
X10000Y7520D02*
D03*
X10315D02*
D03*
X10630D02*
D03*
X10945D02*
D03*
X11260D02*
D03*
X11575D02*
D03*
X11890D02*
D03*
X12205D02*
D03*
X12520D02*
D03*
X12835D02*
D03*
X13150D02*
D03*
X13465D02*
D03*
X13780D02*
D03*
X14094D02*
D03*
X14409D02*
D03*
X14724D02*
D03*
X15039D02*
D03*
X15354D02*
D03*
X15669D02*
D03*
X15984D02*
D03*
X10000Y7205D02*
D03*
X10315D02*
D03*
X10630D02*
D03*
X10945D02*
D03*
X11260D02*
D03*
X11575D02*
D03*
X11890D02*
D03*
X12205D02*
D03*
X12520D02*
D03*
X12835D02*
D03*
X13150D02*
D03*
X13465D02*
D03*
X13780D02*
D03*
X14094D02*
D03*
X14409D02*
D03*
X14724D02*
D03*
X15039D02*
D03*
X15354D02*
D03*
X15669D02*
D03*
X15984D02*
D03*
X10000Y6890D02*
D03*
X10315D02*
D03*
X10630D02*
D03*
X10945D02*
D03*
X11260D02*
D03*
X11575D02*
D03*
X11890D02*
D03*
X12205D02*
D03*
X12520D02*
D03*
X12835D02*
D03*
X13150D02*
D03*
X13465D02*
D03*
X13780D02*
D03*
X14094D02*
D03*
X14409D02*
D03*
X14724D02*
D03*
X15039D02*
D03*
X15354D02*
D03*
X15669D02*
D03*
X15984D02*
D03*
X10000Y6575D02*
D03*
X10315D02*
D03*
X10630D02*
D03*
X10945D02*
D03*
X11260D02*
D03*
X11575D02*
D03*
X11890D02*
D03*
X12205D02*
D03*
X12520D02*
D03*
X12835D02*
D03*
X13150D02*
D03*
X13465D02*
D03*
X13780D02*
D03*
X14094D02*
D03*
X14409D02*
D03*
X14724D02*
D03*
X15039D02*
D03*
X15354D02*
D03*
X15669D02*
D03*
X15984D02*
D03*
X10000Y6260D02*
D03*
X10315D02*
D03*
X10630D02*
D03*
X10945D02*
D03*
X11260D02*
D03*
X11575D02*
D03*
X11890D02*
D03*
X12205D02*
D03*
X12520D02*
D03*
X12835D02*
D03*
X13150D02*
D03*
X13465D02*
D03*
X13780D02*
D03*
X14094D02*
D03*
X14409D02*
D03*
X14724D02*
D03*
X15039D02*
D03*
X15354D02*
D03*
X15669D02*
D03*
X15984D02*
D03*
X10000Y5945D02*
D03*
X10315D02*
D03*
X10630D02*
D03*
X10945D02*
D03*
X11260D02*
D03*
X11575D02*
D03*
X11890D02*
D03*
X12205D02*
D03*
X12520D02*
D03*
X12835D02*
D03*
X13150D02*
D03*
X13465D02*
D03*
X13780D02*
D03*
X14094D02*
D03*
X14409D02*
D03*
X14724D02*
D03*
X15039D02*
D03*
X15354D02*
D03*
X15669D02*
D03*
X15984D02*
D03*
X10000Y5630D02*
D03*
X10315D02*
D03*
X10630D02*
D03*
X10945D02*
D03*
X11260D02*
D03*
X11575D02*
D03*
X11890D02*
D03*
X12205D02*
D03*
X12520D02*
D03*
X12835D02*
D03*
X13150D02*
D03*
X13465D02*
D03*
X13780D02*
D03*
X14094D02*
D03*
X14409D02*
D03*
X14724D02*
D03*
X15039D02*
D03*
X15354D02*
D03*
X15669D02*
D03*
X15984D02*
D03*
X10000Y5315D02*
D03*
X10315D02*
D03*
X10630D02*
D03*
X10945D02*
D03*
X11260D02*
D03*
X11575D02*
D03*
X11890D02*
D03*
X12205D02*
D03*
X12520D02*
D03*
X12835D02*
D03*
X13150D02*
D03*
X13465D02*
D03*
X13780D02*
D03*
X14094D02*
D03*
X14409D02*
D03*
X14724D02*
D03*
X15039D02*
D03*
X15354D02*
D03*
X15669D02*
D03*
X15984D02*
D03*
X10000Y5000D02*
D03*
X10315D02*
D03*
X10630D02*
D03*
X10945D02*
D03*
X11260D02*
D03*
X11575D02*
D03*
X11890D02*
D03*
X12205D02*
D03*
X12520D02*
D03*
X12835D02*
D03*
X13150D02*
D03*
X13465D02*
D03*
X13780D02*
D03*
X14094D02*
D03*
X14409D02*
D03*
X14724D02*
D03*
X15039D02*
D03*
X15354D02*
D03*
X15669D02*
D03*
X15984D02*
D03*
X10000Y4685D02*
D03*
X10315D02*
D03*
X10630D02*
D03*
X10945D02*
D03*
X11260D02*
D03*
X11575D02*
D03*
X11890D02*
D03*
X12205D02*
D03*
X12520D02*
D03*
X12835D02*
D03*
X13150D02*
D03*
X13465D02*
D03*
X13780D02*
D03*
X14094D02*
D03*
X14409D02*
D03*
X14724D02*
D03*
X15039D02*
D03*
X15354D02*
D03*
X15669D02*
D03*
X15984D02*
D03*
X10000Y4370D02*
D03*
X10315D02*
D03*
X10630D02*
D03*
X10945D02*
D03*
X11260D02*
D03*
X11575D02*
D03*
X11890D02*
D03*
X12205D02*
D03*
X12520D02*
D03*
X12835D02*
D03*
X13150D02*
D03*
X13465D02*
D03*
X13780D02*
D03*
X14094D02*
D03*
X14409D02*
D03*
X14724D02*
D03*
X15039D02*
D03*
X15354D02*
D03*
X15669D02*
D03*
X15984D02*
D03*
D32*
X22077Y7165D02*
D03*
X23041D02*
D03*
X9144Y10512D02*
D03*
X8179D02*
D03*
X17510Y8150D02*
D03*
X18474D02*
D03*
D33*
X3484Y10866D02*
D03*
X2736D02*
D03*
X16083Y11220D02*
D03*
X15335D02*
D03*
D34*
X18313Y10709D02*
D03*
X17986D02*
D03*
X19258Y11181D02*
D03*
X18931D02*
D03*
X17041D02*
D03*
X17368D02*
D03*
X13864D02*
D03*
X13537D02*
D03*
X16687Y9921D02*
D03*
X17014D02*
D03*
X16687Y9606D02*
D03*
X17014D02*
D03*
Y9291D02*
D03*
X16687D02*
D03*
X23262Y6299D02*
D03*
X23589D02*
D03*
X2998Y4803D02*
D03*
X2671D02*
D03*
X17041Y10709D02*
D03*
X17368D02*
D03*
X20596Y6339D02*
D03*
X20270D02*
D03*
X24679Y9016D02*
D03*
X25006D02*
D03*
X2474Y1850D02*
D03*
X2801D02*
D03*
X3431D02*
D03*
X3104D02*
D03*
X1863Y3800D02*
D03*
X1537D02*
D03*
X25360Y11457D02*
D03*
X25033D02*
D03*
X11563Y11299D02*
D03*
X11890D02*
D03*
D35*
X1614Y11033D02*
D03*
Y10069D02*
D03*
X20866Y4321D02*
D03*
Y5285D02*
D03*
X17480Y6289D02*
D03*
Y7254D02*
D03*
X18740Y6624D02*
D03*
Y5659D02*
D03*
D36*
X28543Y10600D02*
D03*
Y10344D02*
D03*
X1024Y9242D02*
D03*
Y9498D02*
D03*
X19685Y4281D02*
D03*
Y4537D02*
D03*
X24134Y4616D02*
D03*
Y4360D02*
D03*
X30512Y10344D02*
D03*
Y10600D02*
D03*
X29528D02*
D03*
Y10344D02*
D03*
X5354Y2234D02*
D03*
Y2490D02*
D03*
D37*
X24970Y9606D02*
D03*
X24715D02*
D03*
X30325Y2047D02*
D03*
X30069D02*
D03*
X30128Y2323D02*
D03*
X29872D02*
D03*
X29321D02*
D03*
X29577D02*
D03*
X29124Y2047D02*
D03*
X29380D02*
D03*
X30325Y1772D02*
D03*
X30069D02*
D03*
X30128Y2598D02*
D03*
X29872D02*
D03*
X29321D02*
D03*
X29577D02*
D03*
X29124Y1772D02*
D03*
X29380D02*
D03*
X18770Y10118D02*
D03*
X19026D02*
D03*
X24970Y9331D02*
D03*
X24715D02*
D03*
Y7835D02*
D03*
X24970D02*
D03*
X30108Y9961D02*
D03*
X30364D02*
D03*
X29242Y9961D02*
D03*
X29498D02*
D03*
X27746Y9961D02*
D03*
X28002D02*
D03*
X26880Y9961D02*
D03*
X27136D02*
D03*
X2077Y4803D02*
D03*
X2333D02*
D03*
X2878Y2200D02*
D03*
X2622D02*
D03*
X3372Y2200D02*
D03*
X3628D02*
D03*
D38*
X3386Y9173D02*
D03*
Y9961D02*
D03*
X17480Y5433D02*
D03*
Y4646D02*
D03*
D39*
X5315Y1850D02*
D03*
X4961D02*
D03*
D40*
X20354Y11181D02*
D03*
X19724D02*
D03*
X17835D02*
D03*
X18465D02*
D03*
D41*
X17441Y3976D02*
D03*
Y3228D02*
D03*
X19803Y6240D02*
D03*
Y5492D02*
D03*
D51*
X-30400Y-1600D02*
X-30000D01*
X-30200D01*
Y-2200D01*
X-29700D02*
X-29500D01*
X-29400Y-2100D01*
Y-1900D01*
X-29500Y-1800D01*
X-29700D01*
X-29800Y-1900D01*
Y-2100D01*
X-29700Y-2200D01*
X-29200Y-2400D02*
Y-1800D01*
X-28900D01*
X-28801Y-1900D01*
Y-2100D01*
X-28900Y-2200D01*
X-29200D01*
X-28001D02*
Y-1600D01*
X-27701D01*
X-27601Y-1700D01*
Y-1900D01*
X-27701Y-2000D01*
X-28001D01*
X-27301Y-1800D02*
X-27101D01*
X-27001Y-1900D01*
Y-2200D01*
X-27301D01*
X-27401Y-2100D01*
X-27301Y-2000D01*
X-27001D01*
X-26801Y-2200D02*
X-26501D01*
X-26401Y-2100D01*
X-26501Y-2000D01*
X-26701D01*
X-26801Y-1900D01*
X-26701Y-1800D01*
X-26401D01*
X-26101Y-1700D02*
Y-1800D01*
X-26201D01*
X-26001D01*
X-26101D01*
Y-2100D01*
X-26001Y-2200D01*
X-25402D02*
X-25602D01*
X-25702Y-2100D01*
Y-1900D01*
X-25602Y-1800D01*
X-25402D01*
X-25302Y-1900D01*
Y-2000D01*
X-25702D01*
X-24302Y-2200D02*
X-24502Y-2000D01*
Y-1800D01*
X-24302Y-1600D01*
X-24002Y-2200D02*
Y-1600D01*
X-23702D01*
X-23602Y-1700D01*
Y-1900D01*
X-23702Y-2000D01*
X-24002D01*
X-23302Y-1800D02*
X-23102D01*
X-23002Y-1900D01*
Y-2200D01*
X-23302D01*
X-23402Y-2100D01*
X-23302Y-2000D01*
X-23002D01*
X-22802Y-2200D02*
X-22503D01*
X-22403Y-2100D01*
X-22503Y-2000D01*
X-22702D01*
X-22802Y-1900D01*
X-22702Y-1800D01*
X-22403D01*
X-22103Y-1700D02*
Y-1800D01*
X-22203D01*
X-22003D01*
X-22103D01*
Y-2100D01*
X-22003Y-2200D01*
X-21403D02*
X-21603D01*
X-21703Y-2100D01*
Y-1900D01*
X-21603Y-1800D01*
X-21403D01*
X-21303Y-1900D01*
Y-2000D01*
X-21703D01*
X-21103Y-2200D02*
X-20903Y-2000D01*
Y-1800D01*
X-21103Y-1600D01*
D84*
X22116Y9028D02*
D03*
X22569D02*
D03*
X23022D02*
D03*
X23474D02*
D03*
D85*
X22116Y9492D02*
D03*
X22569D02*
D03*
X23022D02*
D03*
X23474D02*
D03*
X22116Y9957D02*
D03*
X22569D02*
D03*
X23022Y9957D02*
D03*
X23475D02*
D03*
X22116Y10421D02*
D03*
X22569D02*
D03*
X23022D02*
D03*
X23474D02*
D03*
D86*
X3600Y3650D02*
D03*
X3600Y3150D02*
D03*
X3100Y3650D02*
D03*
X3100Y3150D02*
D03*
D87*
X23217Y4854D02*
D03*
X23217Y5304D02*
D03*
X22767Y5304D02*
D03*
X22767Y4854D02*
D03*
D88*
X18563Y4429D02*
D03*
Y4665D02*
D03*
Y4902D02*
D03*
X2106Y8917D02*
D03*
Y9154D02*
D03*
Y9390D02*
D03*
M02*
