G04 Layer_Color=16711935*
%FSLAX24Y24*%
%MOIN*%
G70*
G01*
G75*
%ADD20R,0.0177X0.1004*%
%ADD51C,0.0100*%
%ADD94R,0.0335X0.0335*%
%ADD98R,0.0245X0.0237*%
%ADD101R,0.0257X0.0257*%
%ADD103O,0.0138X0.0394*%
%ADD104O,0.0394X0.0138*%
%ADD105R,0.1024X0.1024*%
%ADD110R,0.0571X0.1064*%
%ADD111R,0.0434X0.0611*%
%ADD112R,0.0237X0.0245*%
%ADD113R,0.1064X0.0571*%
%ADD114R,0.0178X0.0178*%
%ADD115R,0.0178X0.0178*%
%ADD116R,0.0946X0.0375*%
%ADD117R,0.0257X0.0257*%
%ADD120R,3.2283X0.1063*%
%ADD121R,0.0240X0.0220*%
%ADD122O,0.0591X0.0178*%
%ADD123R,0.1351X0.1351*%
%ADD124O,0.0335X0.0119*%
%ADD125O,0.0119X0.0335*%
G04:AMPARAMS|DCode=126|XSize=70.5mil|YSize=100mil|CornerRadius=4.7mil|HoleSize=0mil|Usage=FLASHONLY|Rotation=270.000|XOffset=0mil|YOffset=0mil|HoleType=Round|Shape=RoundedRectangle|*
%AMROUNDEDRECTD126*
21,1,0.0705,0.0906,0,0,270.0*
21,1,0.0611,0.1000,0,0,270.0*
1,1,0.0094,-0.0453,-0.0305*
1,1,0.0094,-0.0453,0.0305*
1,1,0.0094,0.0453,0.0305*
1,1,0.0094,0.0453,-0.0305*
%
%ADD126ROUNDEDRECTD126*%
G04:AMPARAMS|DCode=127|XSize=16.5mil|YSize=39mil|CornerRadius=4.7mil|HoleSize=0mil|Usage=FLASHONLY|Rotation=180.000|XOffset=0mil|YOffset=0mil|HoleType=Round|Shape=RoundedRectangle|*
%AMROUNDEDRECTD127*
21,1,0.0165,0.0295,0,0,180.0*
21,1,0.0071,0.0390,0,0,180.0*
1,1,0.0095,-0.0035,0.0147*
1,1,0.0095,0.0035,0.0147*
1,1,0.0095,0.0035,-0.0147*
1,1,0.0095,-0.0035,-0.0147*
%
%ADD127ROUNDEDRECTD127*%
%ADD128R,0.0296X0.0375*%
%ADD129R,0.0335X0.0335*%
%ADD130R,0.0316X0.0150*%
%ADD131C,0.0200*%
%ADD132C,0.0210*%
D20*
X31024Y551D02*
D03*
X30787D02*
D03*
X30551D02*
D03*
X30315D02*
D03*
X30079D02*
D03*
X29843D02*
D03*
X29606D02*
D03*
X29370D02*
D03*
X29134D02*
D03*
X28898D02*
D03*
X28661D02*
D03*
X28425D02*
D03*
X28189D02*
D03*
X27953D02*
D03*
X27717D02*
D03*
X27480D02*
D03*
X27244D02*
D03*
X27008D02*
D03*
X26772D02*
D03*
X26535D02*
D03*
X26299D02*
D03*
X26063D02*
D03*
X25827D02*
D03*
X25591D02*
D03*
X25354D02*
D03*
X25118D02*
D03*
X24882D02*
D03*
X24646D02*
D03*
X24409D02*
D03*
X24173D02*
D03*
X23937D02*
D03*
X23701D02*
D03*
X23465D02*
D03*
X23228D02*
D03*
X22992D02*
D03*
X22756D02*
D03*
X22520D02*
D03*
X22283D02*
D03*
X22047D02*
D03*
X21811D02*
D03*
X21575D02*
D03*
X21339D02*
D03*
X21102D02*
D03*
X20866D02*
D03*
X20630D02*
D03*
X20394D02*
D03*
X20157D02*
D03*
X19921D02*
D03*
X19685D02*
D03*
X19449D02*
D03*
X19213D02*
D03*
X18976D02*
D03*
X18740D02*
D03*
X18504D02*
D03*
X18268D02*
D03*
X18032D02*
D03*
X17795D02*
D03*
X16378D02*
D03*
X16142D02*
D03*
X15906D02*
D03*
X15669D02*
D03*
X15433D02*
D03*
X15197D02*
D03*
X14961D02*
D03*
X14724D02*
D03*
X14488D02*
D03*
X14252D02*
D03*
X14016D02*
D03*
X13780D02*
D03*
X13543D02*
D03*
X13307D02*
D03*
X13071D02*
D03*
X12835D02*
D03*
X12598D02*
D03*
X12362D02*
D03*
X12126D02*
D03*
X11890D02*
D03*
X11654D02*
D03*
X11417D02*
D03*
X11181D02*
D03*
X10945D02*
D03*
X10709D02*
D03*
X10472D02*
D03*
X10236D02*
D03*
X10000D02*
D03*
X9764D02*
D03*
X9528D02*
D03*
X9291D02*
D03*
X9055D02*
D03*
X8819D02*
D03*
X8583D02*
D03*
X8346D02*
D03*
X8110D02*
D03*
X7874D02*
D03*
X7638D02*
D03*
X7402D02*
D03*
X7165D02*
D03*
X6929D02*
D03*
X6693D02*
D03*
X6457D02*
D03*
X6220D02*
D03*
X5984D02*
D03*
X5748D02*
D03*
X5512D02*
D03*
X5276D02*
D03*
X5039D02*
D03*
X4803D02*
D03*
X4567D02*
D03*
X4331D02*
D03*
X4094D02*
D03*
X3858D02*
D03*
X3622D02*
D03*
X3386D02*
D03*
X3150D02*
D03*
X2913D02*
D03*
X2677D02*
D03*
X2441D02*
D03*
X2205D02*
D03*
X1969D02*
D03*
X1732D02*
D03*
X1496D02*
D03*
X1260D02*
D03*
D51*
X-30400Y-4600D02*
Y-5200D01*
X-30100D01*
X-30000Y-5100D01*
Y-5000D01*
X-30100Y-4900D01*
X-30400D01*
X-30100D01*
X-30000Y-4800D01*
Y-4700D01*
X-30100Y-4600D01*
X-30400D01*
X-29700Y-5200D02*
X-29500D01*
X-29400Y-5100D01*
Y-4900D01*
X-29500Y-4800D01*
X-29700D01*
X-29800Y-4900D01*
Y-5100D01*
X-29700Y-5200D01*
X-29100Y-4700D02*
Y-4800D01*
X-29200D01*
X-29000D01*
X-29100D01*
Y-5100D01*
X-29000Y-5200D01*
X-28601Y-4700D02*
Y-4800D01*
X-28701D01*
X-28501D01*
X-28601D01*
Y-5100D01*
X-28501Y-5200D01*
X-28101D02*
X-27901D01*
X-27801Y-5100D01*
Y-4900D01*
X-27901Y-4800D01*
X-28101D01*
X-28201Y-4900D01*
Y-5100D01*
X-28101Y-5200D01*
X-27601D02*
Y-4800D01*
X-27501D01*
X-27401Y-4900D01*
Y-5200D01*
Y-4900D01*
X-27301Y-4800D01*
X-27201Y-4900D01*
Y-5200D01*
X-26001Y-4700D02*
X-26101Y-4600D01*
X-26301D01*
X-26401Y-4700D01*
Y-4800D01*
X-26301Y-4900D01*
X-26101D01*
X-26001Y-5000D01*
Y-5100D01*
X-26101Y-5200D01*
X-26301D01*
X-26401Y-5100D01*
X-25702Y-5200D02*
X-25502D01*
X-25402Y-5100D01*
Y-4900D01*
X-25502Y-4800D01*
X-25702D01*
X-25801Y-4900D01*
Y-5100D01*
X-25702Y-5200D01*
X-25202D02*
X-25002D01*
X-25102D01*
Y-4600D01*
X-25202D01*
X-24302D02*
Y-5200D01*
X-24602D01*
X-24702Y-5100D01*
Y-4900D01*
X-24602Y-4800D01*
X-24302D01*
X-23802Y-5200D02*
X-24002D01*
X-24102Y-5100D01*
Y-4900D01*
X-24002Y-4800D01*
X-23802D01*
X-23702Y-4900D01*
Y-5000D01*
X-24102D01*
X-23502Y-4800D02*
Y-5200D01*
Y-5000D01*
X-23402Y-4900D01*
X-23302Y-4800D01*
X-23202D01*
X-22103Y-5200D02*
X-22303Y-5000D01*
Y-4800D01*
X-22103Y-4600D01*
X-21803Y-5200D02*
Y-4600D01*
X-21603Y-4800D01*
X-21403Y-4600D01*
Y-5200D01*
X-21103Y-4800D02*
X-20903D01*
X-20803Y-4900D01*
Y-5200D01*
X-21103D01*
X-21203Y-5100D01*
X-21103Y-5000D01*
X-20803D01*
X-20603Y-5200D02*
X-20303D01*
X-20203Y-5100D01*
X-20303Y-5000D01*
X-20503D01*
X-20603Y-4900D01*
X-20503Y-4800D01*
X-20203D01*
X-20003Y-5200D02*
Y-4600D01*
Y-5000D02*
X-19703Y-4800D01*
X-20003Y-5000D02*
X-19703Y-5200D01*
X-19404D02*
X-19204Y-5000D01*
Y-4800D01*
X-19404Y-4600D01*
D94*
X17618Y10376D02*
D03*
X16870D02*
D03*
X17244Y11278D02*
D03*
X20413Y6793D02*
D03*
X19665D02*
D03*
X20039Y7695D02*
D03*
D98*
X11417Y8943D02*
D03*
Y8616D02*
D03*
X5984Y8943D02*
D03*
Y8616D02*
D03*
X26850Y4809D02*
D03*
Y4482D02*
D03*
X24134Y10951D02*
D03*
Y10624D02*
D03*
X11417Y9888D02*
D03*
Y9561D02*
D03*
X23031Y10978D02*
D03*
Y11305D02*
D03*
Y8431D02*
D03*
Y8104D02*
D03*
X22520D02*
D03*
Y8431D02*
D03*
X23543Y10978D02*
D03*
Y11305D02*
D03*
X25787Y10663D02*
D03*
Y10990D02*
D03*
X11299Y11018D02*
D03*
Y11344D02*
D03*
X16417Y11266D02*
D03*
Y10939D02*
D03*
X1496Y10467D02*
D03*
Y10793D02*
D03*
X18425Y4522D02*
D03*
Y4848D02*
D03*
X19094D02*
D03*
Y4522D02*
D03*
X28031Y4482D02*
D03*
Y4809D02*
D03*
X29213D02*
D03*
Y4482D02*
D03*
X30394D02*
D03*
Y4809D02*
D03*
X25512Y5911D02*
D03*
Y5585D02*
D03*
X27205Y5230D02*
D03*
Y5557D02*
D03*
X12992Y5467D02*
D03*
Y5793D02*
D03*
X11732Y7041D02*
D03*
Y7368D02*
D03*
X22047Y8104D02*
D03*
Y8431D02*
D03*
X1575Y7593D02*
D03*
Y7919D02*
D03*
X11102Y8301D02*
D03*
Y8628D02*
D03*
Y7998D02*
D03*
Y7671D02*
D03*
X6565Y7986D02*
D03*
Y8313D02*
D03*
X13307Y9258D02*
D03*
Y8931D02*
D03*
X9803Y11344D02*
D03*
Y11018D02*
D03*
X29213Y8982D02*
D03*
Y8656D02*
D03*
X28937Y6896D02*
D03*
Y6569D02*
D03*
X28898Y8785D02*
D03*
Y8459D02*
D03*
X29921Y8301D02*
D03*
Y8628D02*
D03*
X30748Y4482D02*
D03*
Y4809D02*
D03*
X3425Y2171D02*
D03*
Y1844D02*
D03*
X13622Y8628D02*
D03*
Y8301D02*
D03*
X13307Y8628D02*
D03*
Y8301D02*
D03*
X12992Y8628D02*
D03*
Y8301D02*
D03*
X14567Y7002D02*
D03*
Y7329D02*
D03*
X11850Y11423D02*
D03*
Y11096D02*
D03*
X10472Y7683D02*
D03*
Y7356D02*
D03*
X15827Y9207D02*
D03*
Y9533D02*
D03*
X12992Y6411D02*
D03*
Y6738D02*
D03*
X14843Y4837D02*
D03*
Y5163D02*
D03*
X13898Y5478D02*
D03*
Y5152D02*
D03*
X15551Y5793D02*
D03*
Y5467D02*
D03*
X15787Y4522D02*
D03*
Y4848D02*
D03*
X13346Y5163D02*
D03*
Y4837D02*
D03*
X12638Y4848D02*
D03*
Y4522D02*
D03*
X21299Y10085D02*
D03*
Y9758D02*
D03*
X21614D02*
D03*
Y10085D02*
D03*
X18071Y10675D02*
D03*
Y10348D02*
D03*
X6299Y5309D02*
D03*
Y5636D02*
D03*
X6299Y8616D02*
D03*
Y8943D02*
D03*
X4016Y5309D02*
D03*
Y5636D02*
D03*
X2559Y8380D02*
D03*
Y8707D02*
D03*
X11732Y8628D02*
D03*
Y8301D02*
D03*
X25906Y5585D02*
D03*
Y5911D02*
D03*
X26220Y5675D02*
D03*
Y5348D02*
D03*
X26535Y5230D02*
D03*
Y5557D02*
D03*
X28819Y1923D02*
D03*
Y2250D02*
D03*
X28504D02*
D03*
Y1923D02*
D03*
D101*
X12835Y11437D02*
D03*
Y11083D02*
D03*
X12205D02*
D03*
Y11437D02*
D03*
D103*
X3744Y4168D02*
D03*
X3547D02*
D03*
X3350D02*
D03*
X3153D02*
D03*
X2956D02*
D03*
Y2632D02*
D03*
X3153D02*
D03*
X3350D02*
D03*
X3547D02*
D03*
X3744D02*
D03*
D104*
X4118Y3006D02*
D03*
Y3203D02*
D03*
Y3400D02*
D03*
Y3597D02*
D03*
Y3794D02*
D03*
X2582D02*
D03*
Y3597D02*
D03*
Y3400D02*
D03*
Y3203D02*
D03*
Y3006D02*
D03*
D105*
X3350Y3400D02*
D03*
D110*
X18474Y8150D02*
D03*
X17510D02*
D03*
X23041Y7165D02*
D03*
X22077D02*
D03*
D111*
X15335Y11220D02*
D03*
X14587D02*
D03*
D112*
X12041Y9252D02*
D03*
X12368D02*
D03*
X22447Y11142D02*
D03*
X22120D02*
D03*
X13537Y11181D02*
D03*
X13864D02*
D03*
X17014Y9606D02*
D03*
X16687D02*
D03*
X1896Y9882D02*
D03*
X1569D02*
D03*
X27919Y8780D02*
D03*
X27593D02*
D03*
X28419Y6142D02*
D03*
X28746D02*
D03*
X1648Y4606D02*
D03*
X1974D02*
D03*
X3695Y4803D02*
D03*
X4022D02*
D03*
X12986Y6102D02*
D03*
X13313D02*
D03*
X2250Y7992D02*
D03*
X1923D02*
D03*
X4679Y5787D02*
D03*
X5006D02*
D03*
X7199Y7362D02*
D03*
X7526D02*
D03*
X27841Y5236D02*
D03*
X27514D02*
D03*
X29049Y7480D02*
D03*
X29376D02*
D03*
X29573Y7165D02*
D03*
X29246D02*
D03*
X25618Y9370D02*
D03*
X25945D02*
D03*
Y9055D02*
D03*
X25618D02*
D03*
X25006Y7441D02*
D03*
X24679D02*
D03*
Y7126D02*
D03*
X25006D02*
D03*
X2801Y1850D02*
D03*
X2474D02*
D03*
X12053Y7677D02*
D03*
X11726D02*
D03*
X12368Y7362D02*
D03*
X12041D02*
D03*
X11726Y7992D02*
D03*
X12053D02*
D03*
X13943Y7677D02*
D03*
X13616D02*
D03*
X13943Y6732D02*
D03*
X13616D02*
D03*
X13943Y6102D02*
D03*
X13616D02*
D03*
X13943Y6417D02*
D03*
X13616D02*
D03*
X13943Y7362D02*
D03*
X13616D02*
D03*
X12683Y7992D02*
D03*
X12356D02*
D03*
X12368Y6102D02*
D03*
X12041D02*
D03*
X12368Y8622D02*
D03*
X12041D02*
D03*
X10152Y10197D02*
D03*
X10478D02*
D03*
X10467Y9567D02*
D03*
X10793D02*
D03*
X10467Y6417D02*
D03*
X10793D02*
D03*
X10478Y8622D02*
D03*
X10152D02*
D03*
X15230Y7953D02*
D03*
X15557D02*
D03*
X14848Y6102D02*
D03*
X14522D02*
D03*
X15833Y7402D02*
D03*
X15506D02*
D03*
X12053Y5472D02*
D03*
X11726D02*
D03*
X13628Y7047D02*
D03*
X13301D02*
D03*
X14533Y9843D02*
D03*
X14207D02*
D03*
X14888Y9213D02*
D03*
X14561D02*
D03*
X13931Y8268D02*
D03*
X14258D02*
D03*
X11687Y10197D02*
D03*
X12014D02*
D03*
X12683Y8307D02*
D03*
X12356D02*
D03*
Y6732D02*
D03*
X12683D02*
D03*
X12368Y9567D02*
D03*
X12041D02*
D03*
X12329Y4843D02*
D03*
X12002D02*
D03*
X12362Y5787D02*
D03*
X12035D02*
D03*
X11726Y6732D02*
D03*
X12053D02*
D03*
X1923Y8307D02*
D03*
X2250D02*
D03*
X2093Y6063D02*
D03*
X1766D02*
D03*
X11411Y6102D02*
D03*
X11738D02*
D03*
X27514Y5551D02*
D03*
X27841D02*
D03*
D113*
X17480Y6289D02*
D03*
Y7254D02*
D03*
X18740Y6624D02*
D03*
Y5659D02*
D03*
X17480Y5610D02*
D03*
Y4646D02*
D03*
D114*
X7520Y5817D02*
D03*
Y6073D02*
D03*
X26260Y9085D02*
D03*
Y9341D02*
D03*
X3740Y2175D02*
D03*
Y1919D02*
D03*
X3150Y1880D02*
D03*
Y2136D02*
D03*
X1575Y8474D02*
D03*
Y8219D02*
D03*
X7520Y6447D02*
D03*
Y6703D02*
D03*
X7205Y8022D02*
D03*
Y8278D02*
D03*
X7520Y10226D02*
D03*
Y10482D02*
D03*
X4685Y6132D02*
D03*
Y6388D02*
D03*
Y7018D02*
D03*
Y6762D02*
D03*
X5315Y7707D02*
D03*
Y7963D02*
D03*
X4685Y9281D02*
D03*
Y9537D02*
D03*
X4685Y9911D02*
D03*
Y10167D02*
D03*
Y10541D02*
D03*
Y10797D02*
D03*
D115*
X7165Y7677D02*
D03*
X6909D02*
D03*
X5020Y8307D02*
D03*
X5276D02*
D03*
X25541Y6220D02*
D03*
X25797D02*
D03*
X4144Y7205D02*
D03*
X3888D02*
D03*
X30069Y2047D02*
D03*
X30325D02*
D03*
X29872Y2323D02*
D03*
X30128D02*
D03*
X29577D02*
D03*
X29321D02*
D03*
X29380Y2047D02*
D03*
X29124D02*
D03*
X30069Y1772D02*
D03*
X30325D02*
D03*
X29872Y2598D02*
D03*
X30128D02*
D03*
X29577D02*
D03*
X29321D02*
D03*
X29380Y1772D02*
D03*
X29124D02*
D03*
X15797Y10512D02*
D03*
X15541D02*
D03*
X28789Y5827D02*
D03*
X28533D02*
D03*
Y5551D02*
D03*
X28789D02*
D03*
X18652Y9331D02*
D03*
X18907D02*
D03*
X5906Y6732D02*
D03*
X5650D02*
D03*
X6545D02*
D03*
X6289D02*
D03*
X5906Y6417D02*
D03*
X5650D02*
D03*
X4144Y6575D02*
D03*
X3888D02*
D03*
X6909Y6417D02*
D03*
X7165D02*
D03*
X4144Y6260D02*
D03*
X3888D02*
D03*
X6909Y6102D02*
D03*
X7165D02*
D03*
X4144Y5945D02*
D03*
X3888D02*
D03*
X6909Y5787D02*
D03*
X7165D02*
D03*
X5650Y6102D02*
D03*
X5906D02*
D03*
X6289Y7677D02*
D03*
X6545D02*
D03*
X6535Y6102D02*
D03*
X6280D02*
D03*
X6289Y7047D02*
D03*
X6545D02*
D03*
X5650Y5787D02*
D03*
X5906D02*
D03*
Y7047D02*
D03*
X5650D02*
D03*
X7165Y6732D02*
D03*
X6909D02*
D03*
X3888Y6890D02*
D03*
X4144D02*
D03*
X5650Y7362D02*
D03*
X5906D02*
D03*
Y7677D02*
D03*
X5650D02*
D03*
Y7992D02*
D03*
X5906D02*
D03*
X3888Y7520D02*
D03*
X4144D02*
D03*
X27628Y9134D02*
D03*
X27884D02*
D03*
X4616Y4803D02*
D03*
X4360D02*
D03*
X3120Y7992D02*
D03*
X2864D02*
D03*
X2589Y5906D02*
D03*
X2844D02*
D03*
X7175Y8622D02*
D03*
X6919D02*
D03*
X7490Y9567D02*
D03*
X7234D02*
D03*
Y9882D02*
D03*
X7490D02*
D03*
Y10827D02*
D03*
X7234D02*
D03*
X4715Y8622D02*
D03*
X4970D02*
D03*
X5030Y10197D02*
D03*
X5285D02*
D03*
X7175Y7047D02*
D03*
X6919D02*
D03*
D116*
X25039Y7835D02*
D03*
Y8622D02*
D03*
D117*
X29587Y8307D02*
D03*
X29232D02*
D03*
X29232Y7795D02*
D03*
X28878D02*
D03*
D120*
X16142Y531D02*
D03*
D121*
X27146Y9055D02*
D03*
Y9449D02*
D03*
X26614D02*
D03*
Y9055D02*
D03*
D122*
X20787Y10502D02*
D03*
Y10246D02*
D03*
Y9990D02*
D03*
Y9734D02*
D03*
X18583Y10502D02*
D03*
Y10246D02*
D03*
Y9990D02*
D03*
Y9734D02*
D03*
D123*
X27106Y7205D02*
D03*
D124*
X26171Y7913D02*
D03*
Y7756D02*
D03*
Y7598D02*
D03*
Y7441D02*
D03*
Y7283D02*
D03*
Y7126D02*
D03*
Y6969D02*
D03*
Y6811D02*
D03*
Y6654D02*
D03*
Y6496D02*
D03*
X28041D02*
D03*
Y6654D02*
D03*
Y6811D02*
D03*
Y6969D02*
D03*
Y7126D02*
D03*
Y7283D02*
D03*
Y7441D02*
D03*
Y7598D02*
D03*
Y7756D02*
D03*
Y7913D02*
D03*
D125*
X26398Y6270D02*
D03*
X26555D02*
D03*
X26713D02*
D03*
X26870D02*
D03*
X27028D02*
D03*
X27185D02*
D03*
X27343D02*
D03*
X27500D02*
D03*
X27657D02*
D03*
X27815D02*
D03*
Y8140D02*
D03*
X27657D02*
D03*
X27500D02*
D03*
X27343D02*
D03*
X27185D02*
D03*
X27028D02*
D03*
X26870D02*
D03*
X26713D02*
D03*
X26555D02*
D03*
X26398D02*
D03*
D126*
X2520Y7047D02*
D03*
D127*
X2126Y7628D02*
D03*
X2323D02*
D03*
X2520D02*
D03*
X2717D02*
D03*
X2913D02*
D03*
Y6467D02*
D03*
X2717D02*
D03*
X2520D02*
D03*
X2323D02*
D03*
X2126D02*
D03*
D128*
X10876Y11486D02*
D03*
X10226D02*
D03*
Y10876D02*
D03*
X10876D02*
D03*
D129*
X24510Y10413D02*
D03*
Y11161D02*
D03*
X25411Y10787D02*
D03*
D130*
X1910Y7145D02*
D03*
X1910Y6949D02*
D03*
X3130Y6949D02*
D03*
X3129Y7145D02*
D03*
D131*
X23819Y11339D02*
D03*
X23543Y4449D02*
D03*
D132*
X11417Y6102D02*
D03*
X11102Y8628D02*
D03*
X12992Y6102D02*
D03*
X5984Y8937D02*
D03*
X6890Y7047D02*
D03*
X7205Y7362D02*
D03*
X11417Y9567D02*
D03*
X12992Y5787D02*
D03*
X11732Y8307D02*
D03*
Y7047D02*
D03*
X12047Y9252D02*
D03*
X11102Y7992D02*
D03*
X13307Y9252D02*
D03*
M02*
