G04 Layer_Color=65535*
%FSLAX24Y24*%
%MOIN*%
G70*
G01*
G75*
%ADD42C,0.0060*%
%ADD51C,0.0100*%
%ADD54C,0.0080*%
%ADD66C,0.0040*%
%ADD78C,0.0039*%
%ADD79C,0.0098*%
%ADD80C,0.0236*%
%ADD81C,0.0079*%
%ADD82C,0.0010*%
%ADD83C,0.0050*%
G36*
X31028Y9293D02*
X30628Y9693D01*
X31028D01*
Y9293D01*
D02*
G37*
G36*
X9646Y10348D02*
Y10709D01*
X10006D01*
X9646Y10348D01*
D02*
G37*
G36*
X4528Y10688D02*
Y11063D01*
X4902D01*
X4528Y10688D01*
D02*
G37*
D42*
X31985Y5024D02*
X31685D01*
Y5174D01*
X31735Y5224D01*
X31835D01*
X31885Y5174D01*
Y5024D01*
Y5124D02*
X31985Y5224D01*
X31685Y5524D02*
Y5324D01*
X31985D01*
Y5524D01*
X31835Y5324D02*
Y5424D01*
X31685Y5624D02*
X31885D01*
X31985Y5724D01*
X31885Y5824D01*
X31685D01*
X31835Y5924D02*
Y6124D01*
X31685Y6224D02*
X31985D01*
Y6374D01*
X31935Y6424D01*
X31885D01*
X31835Y6374D01*
Y6224D01*
Y6374D01*
X31785Y6424D01*
X31735D01*
X31685Y6374D01*
Y6224D01*
X31985Y6524D02*
Y6624D01*
Y6574D01*
X31685D01*
X31735Y6524D01*
X31260Y394D02*
X31360D01*
X31310D01*
Y694D01*
X31260Y644D01*
X31710Y394D02*
X31510D01*
X31710Y594D01*
Y644D01*
X31660Y694D01*
X31560D01*
X31510Y644D01*
X32010Y394D02*
X31810D01*
X32010Y594D01*
Y644D01*
X31960Y694D01*
X31860D01*
X31810Y644D01*
X945Y394D02*
X1045D01*
X995D01*
Y694D01*
X945Y644D01*
X251Y2050D02*
Y1850D01*
X401D01*
Y1950D01*
Y1850D01*
X551D01*
Y2150D02*
X251D01*
Y2300D01*
X301Y2350D01*
X401D01*
X451Y2300D01*
Y2150D01*
Y2250D02*
X551Y2350D01*
X251Y2600D02*
Y2500D01*
X301Y2450D01*
X501D01*
X551Y2500D01*
Y2600D01*
X501Y2650D01*
X301D01*
X251Y2600D01*
X551Y2750D02*
X251D01*
X551Y2950D01*
X251D01*
Y3050D02*
Y3250D01*
Y3150D01*
X551D01*
D51*
X-30400Y400D02*
X-30000D01*
X-30200D01*
Y-200D01*
X-29700D02*
X-29500D01*
X-29400Y-100D01*
Y100D01*
X-29500Y200D01*
X-29700D01*
X-29800Y100D01*
Y-100D01*
X-29700Y-200D01*
X-29200Y-400D02*
Y200D01*
X-28900D01*
X-28801Y100D01*
Y-100D01*
X-28900Y-200D01*
X-29200D01*
X-27701Y400D02*
X-27901D01*
X-28001Y300D01*
Y-100D01*
X-27901Y-200D01*
X-27701D01*
X-27601Y-100D01*
Y300D01*
X-27701Y400D01*
X-27401Y200D02*
X-27201Y-200D01*
X-27001Y200D01*
X-26501Y-200D02*
X-26701D01*
X-26801Y-100D01*
Y100D01*
X-26701Y200D01*
X-26501D01*
X-26401Y100D01*
Y-0D01*
X-26801D01*
X-26201Y200D02*
Y-200D01*
Y-0D01*
X-26101Y100D01*
X-26001Y200D01*
X-25901D01*
X-25602Y-200D02*
X-25402D01*
X-25502D01*
Y400D01*
X-25602D01*
X-25002Y200D02*
X-24802D01*
X-24702Y100D01*
Y-200D01*
X-25002D01*
X-25102Y-100D01*
X-25002Y-0D01*
X-24702D01*
X-24502Y200D02*
Y-100D01*
X-24402Y-200D01*
X-24102D01*
Y-300D01*
X-24202Y-400D01*
X-24302D01*
X-24102Y-200D02*
Y200D01*
X-23102Y-200D02*
X-23302Y-0D01*
Y200D01*
X-23102Y400D01*
X-22802D02*
X-22603D01*
X-22702D01*
Y-200D01*
X-22802D01*
X-22603D01*
X-22303D02*
Y200D01*
X-22003D01*
X-21903Y100D01*
Y-200D01*
X-21703D02*
Y400D01*
Y-0D02*
X-21403Y200D01*
X-21703Y-0D02*
X-21403Y-200D01*
X-21103D02*
X-20903Y-0D01*
Y200D01*
X-21103Y400D01*
D54*
X21220Y3589D02*
X21487D01*
Y3522D01*
X21220Y3256D01*
Y3189D01*
X21487D01*
X21620Y3589D02*
Y3522D01*
X21754Y3389D01*
X21887Y3522D01*
Y3589D01*
X21754Y3389D02*
Y3189D01*
X22020D02*
Y3589D01*
X22287Y3189D01*
Y3589D01*
X22687Y3256D02*
Y3522D01*
X22620Y3589D01*
X22487D01*
X22420Y3522D01*
Y3256D01*
X22487Y3189D01*
X22620D01*
X22553Y3322D02*
X22687Y3189D01*
X22620D02*
X22687Y3256D01*
X22820Y3389D02*
X23087D01*
X23220Y3589D02*
X23353D01*
X23286D01*
Y3189D01*
X23220D01*
X23353D01*
X23553D02*
Y3589D01*
X23753D01*
X23820Y3522D01*
Y3389D01*
X23753Y3322D01*
X23553D01*
X23953Y3189D02*
Y3589D01*
X24086Y3456D01*
X24220Y3589D01*
Y3189D01*
X24619Y3522D02*
X24553Y3589D01*
X24419D01*
X24353Y3522D01*
Y3256D01*
X24419Y3189D01*
X24553D01*
X24619Y3256D01*
D66*
X20197Y3898D02*
Y4016D01*
X20079D02*
X20197D01*
X19921Y3740D02*
X20197Y4016D01*
X19921Y3740D02*
Y3740D01*
X21339Y7756D02*
X21457D01*
Y7874D01*
X21063Y8150D02*
X21457Y7756D01*
X21024Y8150D02*
X21063D01*
X18858Y8386D02*
X18937Y8307D01*
X18858Y8386D02*
X18937Y8465D01*
X19213Y8386D02*
X19252Y8425D01*
X18858Y8386D02*
X19213D01*
X20197Y5551D02*
X20315D01*
X20197D02*
Y5669D01*
Y5551D02*
X20394Y5748D01*
X20512D01*
X827Y9213D02*
X866Y9252D01*
X827Y9213D02*
Y9291D01*
X866Y9252D01*
X748D02*
X866D01*
X24288Y8150D02*
X24455D01*
X24488Y8183D01*
Y8250D01*
X24455Y8283D01*
X24288D01*
X24455Y8350D02*
X24488Y8383D01*
Y8450D01*
X24455Y8483D01*
X24322D01*
X24288Y8450D01*
Y8383D01*
X24322Y8350D01*
X24355D01*
X24388Y8383D01*
Y8483D01*
X18386Y4176D02*
Y4010D01*
X18419Y3976D01*
X18486D01*
X18519Y4010D01*
Y4176D01*
X18719D02*
X18586D01*
Y4076D01*
X18652Y4110D01*
X18686D01*
X18719Y4076D01*
Y4010D01*
X18686Y3976D01*
X18619D01*
X18586Y4010D01*
X19764Y9452D02*
Y9285D01*
X19797Y9252D01*
X19864D01*
X19897Y9285D01*
Y9452D01*
X20097D02*
X20030Y9419D01*
X19964Y9352D01*
Y9285D01*
X19997Y9252D01*
X20064D01*
X20097Y9285D01*
Y9319D01*
X20064Y9352D01*
X19964D01*
X20448Y7710D02*
Y7844D01*
X20415Y7877D01*
X20348D01*
X20315Y7844D01*
Y7710D01*
X20348Y7677D01*
X20415D01*
X20382Y7744D02*
X20448Y7677D01*
X20415D02*
X20448Y7710D01*
X20515Y7677D02*
X20582D01*
X20548D01*
Y7877D01*
X20515Y7844D01*
X24213Y11302D02*
Y11136D01*
X24246Y11102D01*
X24313D01*
X24346Y11136D01*
Y11302D01*
X24413D02*
X24546D01*
Y11269D01*
X24413Y11136D01*
Y11102D01*
X1181Y2008D02*
X981D01*
Y2108D01*
X1014Y2141D01*
X1081D01*
X1114Y2108D01*
Y2008D01*
Y2075D02*
X1181Y2141D01*
Y2341D02*
Y2208D01*
X1048Y2341D01*
X1014D01*
X981Y2308D01*
Y2241D01*
X1014Y2208D01*
X28071Y1969D02*
Y2168D01*
X28171D01*
X28204Y2135D01*
Y2068D01*
X28171Y2035D01*
X28071D01*
X28138D02*
X28204Y1969D01*
X28404D02*
X28271D01*
X28404Y2102D01*
Y2135D01*
X28371Y2168D01*
X28304D01*
X28271Y2135D01*
X28471D02*
X28504Y2168D01*
X28571D01*
X28604Y2135D01*
Y2102D01*
X28571Y2068D01*
X28604Y2035D01*
Y2002D01*
X28571Y1969D01*
X28504D01*
X28471Y2002D01*
Y2035D01*
X28504Y2068D01*
X28471Y2102D01*
Y2135D01*
X28504Y2068D02*
X28571D01*
X4567Y11381D02*
Y11214D01*
X4600Y11181D01*
X4667D01*
X4700Y11214D01*
Y11381D01*
X4767Y11348D02*
X4800Y11381D01*
X4867D01*
X4900Y11348D01*
Y11314D01*
X4867Y11281D01*
X4834D01*
X4867D01*
X4900Y11248D01*
Y11214D01*
X4867Y11181D01*
X4800D01*
X4767Y11214D01*
X27638Y11617D02*
Y11417D01*
X27738D01*
X27771Y11451D01*
Y11584D01*
X27738Y11617D01*
X27638D01*
X27971D02*
X27904Y11584D01*
X27838Y11517D01*
Y11451D01*
X27871Y11417D01*
X27938D01*
X27971Y11451D01*
Y11484D01*
X27938Y11517D01*
X27838D01*
X11614Y11066D02*
Y10866D01*
X11747D01*
X11814Y11033D02*
X11847Y11066D01*
X11914D01*
X11947Y11033D01*
Y10999D01*
X11914Y10966D01*
X11881D01*
X11914D01*
X11947Y10933D01*
Y10899D01*
X11914Y10866D01*
X11847D01*
X11814Y10899D01*
X25433Y10042D02*
Y9876D01*
X25466Y9843D01*
X25533D01*
X25566Y9876D01*
Y10042D01*
X25633Y9843D02*
X25700D01*
X25666D01*
Y10042D01*
X25633Y10009D01*
X25800D02*
X25833Y10042D01*
X25900D01*
X25933Y10009D01*
Y9876D01*
X25900Y9843D01*
X25833D01*
X25800Y9876D01*
Y10009D01*
X3937Y4609D02*
Y4443D01*
X3970Y4409D01*
X4037D01*
X4070Y4443D01*
Y4609D01*
X4270Y4409D02*
X4137D01*
X4270Y4543D01*
Y4576D01*
X4237Y4609D01*
X4170D01*
X4137Y4576D01*
X22402Y4058D02*
Y3892D01*
X22435Y3858D01*
X22502D01*
X22535Y3892D01*
Y4058D01*
X22602Y4025D02*
X22635Y4058D01*
X22701D01*
X22735Y4025D01*
Y3992D01*
X22701Y3958D01*
X22735Y3925D01*
Y3892D01*
X22701Y3858D01*
X22635D01*
X22602Y3892D01*
Y3925D01*
X22635Y3958D01*
X22602Y3992D01*
Y4025D01*
X22635Y3958D02*
X22701D01*
X9646Y11027D02*
Y10860D01*
X9679Y10827D01*
X9746D01*
X9779Y10860D01*
Y11027D01*
X9946Y10827D02*
Y11027D01*
X9846Y10927D01*
X9979D01*
X21944Y6505D02*
X21911Y6539D01*
X21844D01*
X21811Y6505D01*
Y6372D01*
X21844Y6339D01*
X21911D01*
X21944Y6372D01*
X22011Y6505D02*
X22044Y6539D01*
X22111D01*
X22144Y6505D01*
Y6472D01*
X22111Y6439D01*
X22078D01*
X22111D01*
X22144Y6405D01*
Y6372D01*
X22111Y6339D01*
X22044D01*
X22011Y6372D01*
X22211Y6505D02*
X22244Y6539D01*
X22311D01*
X22344Y6505D01*
Y6372D01*
X22311Y6339D01*
X22244D01*
X22211Y6372D01*
Y6505D01*
X2732Y11426D02*
X2698Y11460D01*
X2632D01*
X2598Y11426D01*
Y11293D01*
X2632Y11260D01*
X2698D01*
X2732Y11293D01*
X2932Y11460D02*
X2865Y11426D01*
X2798Y11360D01*
Y11293D01*
X2832Y11260D01*
X2898D01*
X2932Y11293D01*
Y11326D01*
X2898Y11360D01*
X2798D01*
X18047Y10482D02*
X18013Y10515D01*
X17947D01*
X17913Y10482D01*
Y10348D01*
X17947Y10315D01*
X18013D01*
X18047Y10348D01*
X18113Y10315D02*
X18180D01*
X18147D01*
Y10515D01*
X18113Y10482D01*
X18280Y10348D02*
X18313Y10315D01*
X18380D01*
X18413Y10348D01*
Y10482D01*
X18380Y10515D01*
X18313D01*
X18280Y10482D01*
Y10448D01*
X18313Y10415D01*
X18413D01*
X14567Y2480D02*
Y2680D01*
X14667D01*
X14700Y2647D01*
Y2580D01*
X14667Y2547D01*
X14567D01*
X14634D02*
X14700Y2480D01*
X14767Y2514D02*
X14800Y2480D01*
X14867D01*
X14900Y2514D01*
Y2647D01*
X14867Y2680D01*
X14800D01*
X14767Y2647D01*
Y2614D01*
X14800Y2580D01*
X14900D01*
X842Y11230D02*
X809Y11263D01*
X742D01*
X709Y11230D01*
Y11096D01*
X742Y11063D01*
X809D01*
X842Y11096D01*
X909Y11063D02*
X975D01*
X942D01*
Y11263D01*
X909Y11230D01*
X28180Y10370D02*
X28147Y10336D01*
Y10270D01*
X28180Y10236D01*
X28313D01*
X28346Y10270D01*
Y10336D01*
X28313Y10370D01*
X28346Y10536D02*
X28147D01*
X28246Y10436D01*
Y10569D01*
X28346Y10769D02*
Y10636D01*
X28213Y10769D01*
X28180D01*
X28147Y10736D01*
Y10669D01*
X28180Y10636D01*
X21487Y4228D02*
X21454Y4194D01*
Y4128D01*
X21487Y4094D01*
X21620D01*
X21654Y4128D01*
Y4194D01*
X21620Y4228D01*
X21654Y4428D02*
Y4294D01*
X21520Y4428D01*
X21487D01*
X21454Y4394D01*
Y4328D01*
X21487Y4294D01*
X21454Y4628D02*
X21487Y4561D01*
X21554Y4494D01*
X21620D01*
X21654Y4528D01*
Y4594D01*
X21620Y4628D01*
X21587D01*
X21554Y4594D01*
Y4494D01*
X24921Y9803D02*
X24721D01*
Y9903D01*
X24755Y9936D01*
X24821D01*
X24855Y9903D01*
Y9803D01*
Y9870D02*
X24921Y9936D01*
Y10136D02*
Y10003D01*
X24788Y10136D01*
X24755D01*
X24721Y10103D01*
Y10036D01*
X24755Y10003D01*
Y10203D02*
X24721Y10236D01*
Y10303D01*
X24755Y10336D01*
X24788D01*
X24821Y10303D01*
Y10270D01*
Y10303D01*
X24855Y10336D01*
X24888D01*
X24921Y10303D01*
Y10236D01*
X24888Y10203D01*
X1575Y8665D02*
Y8498D01*
X1608Y8465D01*
X1675D01*
X1708Y8498D01*
Y8665D01*
X1775Y8465D02*
X1841D01*
X1808D01*
Y8665D01*
X1775Y8631D01*
X18858Y11417D02*
Y11617D01*
X18958D01*
X18992Y11584D01*
Y11517D01*
X18958Y11484D01*
X18858D01*
X18925D02*
X18992Y11417D01*
X19058D02*
X19125D01*
X19092D01*
Y11617D01*
X19058Y11584D01*
X19358Y11617D02*
X19225D01*
Y11517D01*
X19291Y11551D01*
X19325D01*
X19358Y11517D01*
Y11451D01*
X19325Y11417D01*
X19258D01*
X19225Y11451D01*
X16968Y11378D02*
Y11578D01*
X17068D01*
X17102Y11545D01*
Y11478D01*
X17068Y11445D01*
X16968D01*
X17035D02*
X17102Y11378D01*
X17168D02*
X17235D01*
X17202D01*
Y11578D01*
X17168Y11545D01*
X17335D02*
X17368Y11578D01*
X17435D01*
X17468Y11545D01*
Y11511D01*
X17435Y11478D01*
X17402D01*
X17435D01*
X17468Y11445D01*
Y11411D01*
X17435Y11378D01*
X17368D01*
X17335Y11411D01*
X30512Y2008D02*
Y2208D01*
X30612D01*
X30645Y2174D01*
Y2108D01*
X30612Y2075D01*
X30512D01*
X30578D02*
X30645Y2008D01*
X30712Y2174D02*
X30745Y2208D01*
X30812D01*
X30845Y2174D01*
Y2141D01*
X30812Y2108D01*
X30778D01*
X30812D01*
X30845Y2075D01*
Y2041D01*
X30812Y2008D01*
X30745D01*
X30712Y2041D01*
X30912Y2208D02*
X31045D01*
Y2174D01*
X30912Y2041D01*
Y2008D01*
X30315Y2323D02*
Y2523D01*
X30415D01*
X30448Y2489D01*
Y2423D01*
X30415Y2389D01*
X30315D01*
X30382D02*
X30448Y2323D01*
X30515Y2489D02*
X30548Y2523D01*
X30615D01*
X30648Y2489D01*
Y2456D01*
X30615Y2423D01*
X30582D01*
X30615D01*
X30648Y2389D01*
Y2356D01*
X30615Y2323D01*
X30548D01*
X30515Y2356D01*
X30815Y2323D02*
Y2523D01*
X30715Y2423D01*
X30848D01*
X29173Y2244D02*
X28973D01*
Y2344D01*
X29007Y2377D01*
X29073D01*
X29107Y2344D01*
Y2244D01*
Y2311D02*
X29173Y2377D01*
X29007Y2444D02*
X28973Y2477D01*
Y2544D01*
X29007Y2577D01*
X29040D01*
X29073Y2544D01*
Y2511D01*
Y2544D01*
X29107Y2577D01*
X29140D01*
X29173Y2544D01*
Y2477D01*
X29140Y2444D01*
X29173Y2644D02*
Y2711D01*
Y2677D01*
X28973D01*
X29007Y2644D01*
X30512Y1693D02*
Y1893D01*
X30612D01*
X30645Y1860D01*
Y1793D01*
X30612Y1760D01*
X30512D01*
X30578D02*
X30645Y1693D01*
X30712Y1860D02*
X30745Y1893D01*
X30812D01*
X30845Y1860D01*
Y1826D01*
X30812Y1793D01*
X30778D01*
X30812D01*
X30845Y1760D01*
Y1726D01*
X30812Y1693D01*
X30745D01*
X30712Y1726D01*
X31045Y1893D02*
X30978Y1860D01*
X30912Y1793D01*
Y1726D01*
X30945Y1693D01*
X31012D01*
X31045Y1726D01*
Y1760D01*
X31012Y1793D01*
X30912D01*
X30315Y2677D02*
Y2877D01*
X30415D01*
X30448Y2844D01*
Y2777D01*
X30415Y2744D01*
X30315D01*
X30382D02*
X30448Y2677D01*
X30515Y2844D02*
X30548Y2877D01*
X30615D01*
X30648Y2844D01*
Y2810D01*
X30615Y2777D01*
X30582D01*
X30615D01*
X30648Y2744D01*
Y2710D01*
X30615Y2677D01*
X30548D01*
X30515Y2710D01*
X30848Y2877D02*
X30715D01*
Y2777D01*
X30781Y2810D01*
X30815D01*
X30848Y2777D01*
Y2710D01*
X30815Y2677D01*
X30748D01*
X30715Y2710D01*
X29173Y2795D02*
Y2995D01*
X29273D01*
X29307Y2962D01*
Y2895D01*
X29273Y2862D01*
X29173D01*
X29240D02*
X29307Y2795D01*
X29373Y2962D02*
X29406Y2995D01*
X29473D01*
X29506Y2962D01*
Y2929D01*
X29473Y2895D01*
X29440D01*
X29473D01*
X29506Y2862D01*
Y2829D01*
X29473Y2795D01*
X29406D01*
X29373Y2829D01*
X29706Y2795D02*
X29573D01*
X29706Y2929D01*
Y2962D01*
X29673Y2995D01*
X29606D01*
X29573Y2962D01*
X13425Y11378D02*
Y11578D01*
X13525D01*
X13558Y11545D01*
Y11478D01*
X13525Y11445D01*
X13425D01*
X13492D02*
X13558Y11378D01*
X13625Y11545D02*
X13658Y11578D01*
X13725D01*
X13758Y11545D01*
Y11511D01*
X13725Y11478D01*
X13758Y11445D01*
Y11411D01*
X13725Y11378D01*
X13658D01*
X13625Y11411D01*
Y11445D01*
X13658Y11478D01*
X13625Y11511D01*
Y11545D01*
X13658Y11478D02*
X13725D01*
X17244Y9843D02*
Y10042D01*
X17344D01*
X17377Y10009D01*
Y9942D01*
X17344Y9909D01*
X17244D01*
X17311D02*
X17377Y9843D01*
X17444D02*
X17511D01*
X17477D01*
Y10042D01*
X17444Y10009D01*
X17744Y9843D02*
X17611D01*
X17744Y9976D01*
Y10009D01*
X17711Y10042D01*
X17644D01*
X17611Y10009D01*
X17244Y9528D02*
Y9727D01*
X17344D01*
X17377Y9694D01*
Y9628D01*
X17344Y9594D01*
X17244D01*
X17311D02*
X17377Y9528D01*
X17444D02*
X17511D01*
X17477D01*
Y9727D01*
X17444Y9694D01*
X17611Y9528D02*
X17677D01*
X17644D01*
Y9727D01*
X17611Y9694D01*
X17244Y9213D02*
Y9413D01*
X17344D01*
X17377Y9379D01*
Y9313D01*
X17344Y9279D01*
X17244D01*
X17311D02*
X17377Y9213D01*
X17444D02*
X17511D01*
X17477D01*
Y9413D01*
X17444Y9379D01*
X17611D02*
X17644Y9413D01*
X17711D01*
X17744Y9379D01*
Y9246D01*
X17711Y9213D01*
X17644D01*
X17611Y9246D01*
Y9379D01*
X6024Y4409D02*
X5824D01*
Y4509D01*
X5857Y4543D01*
X5924D01*
X5957Y4509D01*
Y4409D01*
Y4476D02*
X6024Y4543D01*
X5824Y4743D02*
X5857Y4676D01*
X5924Y4609D01*
X5990D01*
X6024Y4643D01*
Y4709D01*
X5990Y4743D01*
X5957D01*
X5924Y4709D01*
Y4609D01*
X7992Y4409D02*
X7792D01*
Y4509D01*
X7826Y4543D01*
X7892D01*
X7925Y4509D01*
Y4409D01*
Y4476D02*
X7992Y4543D01*
X7792Y4609D02*
Y4743D01*
X7826D01*
X7959Y4609D01*
X7992D01*
X1102Y8780D02*
X902D01*
Y8880D01*
X936Y8913D01*
X1002D01*
X1036Y8880D01*
Y8780D01*
Y8846D02*
X1102Y8913D01*
Y8979D02*
Y9046D01*
Y9013D01*
X902D01*
X936Y8979D01*
X21102Y7402D02*
Y7602D01*
X21202D01*
X21236Y7568D01*
Y7502D01*
X21202Y7468D01*
X21102D01*
X21169D02*
X21236Y7402D01*
X21302D02*
X21369D01*
X21336D01*
Y7602D01*
X21302Y7568D01*
X21469Y7602D02*
X21602D01*
Y7568D01*
X21469Y7435D01*
Y7402D01*
X20079Y4173D02*
X19879D01*
Y4273D01*
X19912Y4307D01*
X19979D01*
X20012Y4273D01*
Y4173D01*
Y4240D02*
X20079Y4307D01*
Y4373D02*
Y4440D01*
Y4406D01*
X19879D01*
X19912Y4373D01*
X19879Y4673D02*
X19912Y4606D01*
X19979Y4540D01*
X20045D01*
X20079Y4573D01*
Y4640D01*
X20045Y4673D01*
X20012D01*
X19979Y4640D01*
Y4540D01*
X24567Y5709D02*
X24367D01*
Y5809D01*
X24400Y5842D01*
X24467D01*
X24500Y5809D01*
Y5709D01*
Y5775D02*
X24567Y5842D01*
Y6042D02*
Y5909D01*
X24434Y6042D01*
X24400D01*
X24367Y6009D01*
Y5942D01*
X24400Y5909D01*
X24567Y6109D02*
Y6175D01*
Y6142D01*
X24367D01*
X24400Y6109D01*
X23937Y3976D02*
Y4176D01*
X24037D01*
X24070Y4143D01*
Y4076D01*
X24037Y4043D01*
X23937D01*
X24004D02*
X24070Y3976D01*
X24270D02*
X24137D01*
X24270Y4110D01*
Y4143D01*
X24237Y4176D01*
X24170D01*
X24137Y4143D01*
X24337D02*
X24370Y4176D01*
X24437D01*
X24470Y4143D01*
Y4010D01*
X24437Y3976D01*
X24370D01*
X24337Y4010D01*
Y4143D01*
X22520Y6181D02*
Y6381D01*
X22620D01*
X22653Y6348D01*
Y6281D01*
X22620Y6248D01*
X22520D01*
X22586D02*
X22653Y6181D01*
X22720D02*
X22786D01*
X22753D01*
Y6381D01*
X22720Y6348D01*
X22886Y6214D02*
X22920Y6181D01*
X22986D01*
X23020Y6214D01*
Y6348D01*
X22986Y6381D01*
X22920D01*
X22886Y6348D01*
Y6314D01*
X22920Y6281D01*
X23020D01*
X20827Y6378D02*
Y6578D01*
X20927D01*
X20960Y6545D01*
Y6478D01*
X20927Y6445D01*
X20827D01*
X20893D02*
X20960Y6378D01*
X21027D02*
X21093D01*
X21060D01*
Y6578D01*
X21027Y6545D01*
X21193D02*
X21227Y6578D01*
X21293D01*
X21327Y6545D01*
Y6511D01*
X21293Y6478D01*
X21327Y6445D01*
Y6411D01*
X21293Y6378D01*
X21227D01*
X21193Y6411D01*
Y6445D01*
X21227Y6478D01*
X21193Y6511D01*
Y6545D01*
X21227Y6478D02*
X21293D01*
X29252Y11457D02*
Y11657D01*
X29352D01*
X29385Y11623D01*
Y11557D01*
X29352Y11523D01*
X29252D01*
X29319D02*
X29385Y11457D01*
X29452Y11623D02*
X29485Y11657D01*
X29552D01*
X29585Y11623D01*
Y11590D01*
X29552Y11557D01*
X29519D01*
X29552D01*
X29585Y11523D01*
Y11490D01*
X29552Y11457D01*
X29485D01*
X29452Y11490D01*
X29652Y11623D02*
X29685Y11657D01*
X29752D01*
X29785Y11623D01*
Y11590D01*
X29752Y11557D01*
X29718D01*
X29752D01*
X29785Y11523D01*
Y11490D01*
X29752Y11457D01*
X29685D01*
X29652Y11490D01*
X28346Y10906D02*
X28147D01*
Y11005D01*
X28180Y11039D01*
X28246D01*
X28280Y11005D01*
Y10906D01*
Y10972D02*
X28346Y11039D01*
Y11239D02*
Y11105D01*
X28213Y11239D01*
X28180D01*
X28147Y11205D01*
Y11139D01*
X28180Y11105D01*
X28147Y11439D02*
X28180Y11372D01*
X28246Y11305D01*
X28313D01*
X28346Y11339D01*
Y11405D01*
X28313Y11439D01*
X28280D01*
X28246Y11405D01*
Y11305D01*
X30394Y11457D02*
Y11657D01*
X30494D01*
X30527Y11623D01*
Y11557D01*
X30494Y11523D01*
X30394D01*
X30460D02*
X30527Y11457D01*
X30594Y11623D02*
X30627Y11657D01*
X30694D01*
X30727Y11623D01*
Y11590D01*
X30694Y11557D01*
X30660D01*
X30694D01*
X30727Y11523D01*
Y11490D01*
X30694Y11457D01*
X30627D01*
X30594Y11490D01*
X30794Y11623D02*
X30827Y11657D01*
X30894D01*
X30927Y11623D01*
Y11590D01*
X30894Y11557D01*
X30927Y11523D01*
Y11490D01*
X30894Y11457D01*
X30827D01*
X30794Y11490D01*
Y11523D01*
X30827Y11557D01*
X30794Y11590D01*
Y11623D01*
X30827Y11557D02*
X30894D01*
X5118Y3858D02*
X4918D01*
Y3958D01*
X4951Y3992D01*
X5018D01*
X5051Y3958D01*
Y3858D01*
Y3925D02*
X5118Y3992D01*
X4918Y4191D02*
Y4058D01*
X5018D01*
X4985Y4125D01*
Y4158D01*
X5018Y4191D01*
X5085D01*
X5118Y4158D01*
Y4092D01*
X5085Y4058D01*
X3228Y4685D02*
Y4885D01*
X3328D01*
X3362Y4852D01*
Y4785D01*
X3328Y4752D01*
X3228D01*
X3295D02*
X3362Y4685D01*
X3528D02*
Y4885D01*
X3428Y4785D01*
X3562D01*
X1260Y2953D02*
X1060D01*
Y3053D01*
X1093Y3086D01*
X1160D01*
X1193Y3053D01*
Y2953D01*
Y3019D02*
X1260Y3086D01*
X1093Y3153D02*
X1060Y3186D01*
Y3253D01*
X1093Y3286D01*
X1127D01*
X1160Y3253D01*
Y3219D01*
Y3253D01*
X1193Y3286D01*
X1227D01*
X1260Y3253D01*
Y3186D01*
X1227Y3153D01*
X28543Y3346D02*
Y3546D01*
X28643D01*
X28677Y3513D01*
Y3446D01*
X28643Y3413D01*
X28543D01*
X28610D02*
X28677Y3346D01*
X28877D02*
X28743D01*
X28877Y3480D01*
Y3513D01*
X28843Y3546D01*
X28777D01*
X28743Y3513D01*
X28943Y3546D02*
X29076D01*
Y3513D01*
X28943Y3380D01*
Y3346D01*
X18622Y9724D02*
Y9924D01*
X18722D01*
X18755Y9891D01*
Y9824D01*
X18722Y9791D01*
X18622D01*
X18689D02*
X18755Y9724D01*
X18822D02*
X18889D01*
X18855D01*
Y9924D01*
X18822Y9891D01*
X19089Y9724D02*
Y9924D01*
X18989Y9824D01*
X19122D01*
X24409Y6299D02*
X24210D01*
Y6399D01*
X24243Y6432D01*
X24309D01*
X24343Y6399D01*
Y6299D01*
Y6366D02*
X24409Y6432D01*
Y6632D02*
Y6499D01*
X24276Y6632D01*
X24243D01*
X24210Y6599D01*
Y6532D01*
X24243Y6499D01*
X24409Y6832D02*
Y6699D01*
X24276Y6832D01*
X24243D01*
X24210Y6799D01*
Y6732D01*
X24243Y6699D01*
X2992Y8861D02*
Y8661D01*
X3125D01*
X3192D02*
X3259D01*
X3225D01*
Y8861D01*
X3192Y8828D01*
X16690Y4528D02*
X16890D01*
Y4661D01*
Y4827D02*
X16690D01*
X16790Y4727D01*
Y4861D01*
X4409Y1972D02*
Y1772D01*
X4543D01*
X4743D02*
X4609D01*
X4743Y1905D01*
Y1938D01*
X4709Y1972D01*
X4643D01*
X4609Y1938D01*
X19567Y11657D02*
Y11457D01*
X19667D01*
X19700Y11490D01*
Y11623D01*
X19667Y11657D01*
X19567D01*
X19867Y11457D02*
Y11657D01*
X19767Y11557D01*
X19900D01*
X17677Y11657D02*
Y11457D01*
X17777D01*
X17810Y11490D01*
Y11623D01*
X17777Y11657D01*
X17677D01*
X17877Y11623D02*
X17910Y11657D01*
X17977D01*
X18010Y11623D01*
Y11590D01*
X17977Y11557D01*
X17944D01*
X17977D01*
X18010Y11523D01*
Y11490D01*
X17977Y11457D01*
X17910D01*
X17877Y11490D01*
X6496Y3822D02*
Y3622D01*
X6596D01*
X6629Y3655D01*
Y3789D01*
X6596Y3822D01*
X6496D01*
X6696Y3622D02*
X6763D01*
X6729D01*
Y3822D01*
X6696Y3789D01*
X6969Y3822D02*
Y3622D01*
X7068D01*
X7102Y3655D01*
Y3789D01*
X7068Y3822D01*
X6969D01*
X7302Y3622D02*
X7168D01*
X7302Y3755D01*
Y3789D01*
X7268Y3822D01*
X7202D01*
X7168Y3789D01*
X29921Y11617D02*
Y11417D01*
X30021D01*
X30055Y11451D01*
Y11584D01*
X30021Y11617D01*
X29921D01*
X30121Y11584D02*
X30155Y11617D01*
X30221D01*
X30254Y11584D01*
Y11551D01*
X30221Y11517D01*
X30254Y11484D01*
Y11451D01*
X30221Y11417D01*
X30155D01*
X30121Y11451D01*
Y11484D01*
X30155Y11517D01*
X30121Y11551D01*
Y11584D01*
X30155Y11517D02*
X30221D01*
X28780Y11617D02*
Y11417D01*
X28879D01*
X28913Y11451D01*
Y11584D01*
X28879Y11617D01*
X28780D01*
X28979D02*
X29113D01*
Y11584D01*
X28979Y11451D01*
Y11417D01*
X31220Y11224D02*
Y11024D01*
X31320D01*
X31354Y11057D01*
Y11190D01*
X31320Y11224D01*
X31220D01*
X31420Y11057D02*
X31454Y11024D01*
X31520D01*
X31554Y11057D01*
Y11190D01*
X31520Y11224D01*
X31454D01*
X31420Y11190D01*
Y11157D01*
X31454Y11124D01*
X31554D01*
X17102Y10482D02*
X17068Y10515D01*
X17002D01*
X16968Y10482D01*
Y10348D01*
X17002Y10315D01*
X17068D01*
X17102Y10348D01*
X17168Y10315D02*
X17235D01*
X17202D01*
Y10515D01*
X17168Y10482D01*
X17468Y10515D02*
X17335D01*
Y10415D01*
X17402Y10448D01*
X17435D01*
X17468Y10415D01*
Y10348D01*
X17435Y10315D01*
X17368D01*
X17335Y10348D01*
X8047Y11348D02*
X8013Y11381D01*
X7947D01*
X7913Y11348D01*
Y11214D01*
X7947Y11181D01*
X8013D01*
X8047Y11214D01*
X8113Y11181D02*
X8180D01*
X8147D01*
Y11381D01*
X8113Y11348D01*
X8280Y11181D02*
X8347D01*
X8313D01*
Y11381D01*
X8280Y11348D01*
X2614Y9655D02*
X2580Y9688D01*
X2514D01*
X2480Y9655D01*
Y9522D01*
X2514Y9488D01*
X2580D01*
X2614Y9522D01*
X2814Y9688D02*
X2680D01*
Y9588D01*
X2747Y9621D01*
X2780D01*
X2814Y9588D01*
Y9522D01*
X2780Y9488D01*
X2714D01*
X2680Y9522D01*
X24361Y5094D02*
X24328Y5061D01*
Y4994D01*
X24361Y4961D01*
X24494D01*
X24528Y4994D01*
Y5061D01*
X24494Y5094D01*
X24361Y5161D02*
X24328Y5194D01*
Y5261D01*
X24361Y5294D01*
X24394D01*
X24428Y5261D01*
Y5227D01*
Y5261D01*
X24461Y5294D01*
X24494D01*
X24528Y5261D01*
Y5194D01*
X24494Y5161D01*
X24528Y5494D02*
Y5361D01*
X24394Y5494D01*
X24361D01*
X24328Y5460D01*
Y5394D01*
X24361Y5361D01*
X21448Y6747D02*
X21414Y6714D01*
Y6647D01*
X21448Y6614D01*
X21581D01*
X21614Y6647D01*
Y6714D01*
X21581Y6747D01*
X21614Y6947D02*
Y6814D01*
X21481Y6947D01*
X21448D01*
X21414Y6914D01*
Y6847D01*
X21448Y6814D01*
Y7014D02*
X21414Y7047D01*
Y7114D01*
X21448Y7147D01*
X21481D01*
X21514Y7114D01*
X21548Y7147D01*
X21581D01*
X21614Y7114D01*
Y7047D01*
X21581Y7014D01*
X21548D01*
X21514Y7047D01*
X21481Y7014D01*
X21448D01*
X21514Y7047D02*
Y7114D01*
X19164Y7771D02*
X19131Y7738D01*
Y7671D01*
X19164Y7638D01*
X19297D01*
X19331Y7671D01*
Y7738D01*
X19297Y7771D01*
X19331Y7971D02*
Y7838D01*
X19197Y7971D01*
X19164D01*
X19131Y7938D01*
Y7871D01*
X19164Y7838D01*
Y8038D02*
X19131Y8071D01*
Y8138D01*
X19164Y8171D01*
X19197D01*
X19231Y8138D01*
Y8104D01*
Y8138D01*
X19264Y8171D01*
X19297D01*
X19331Y8138D01*
Y8071D01*
X19297Y8038D01*
X20448Y6111D02*
X20415Y6145D01*
X20348D01*
X20315Y6111D01*
Y5978D01*
X20348Y5945D01*
X20415D01*
X20448Y5978D01*
X20648Y5945D02*
X20515D01*
X20648Y6078D01*
Y6111D01*
X20615Y6145D01*
X20548D01*
X20515Y6111D01*
X20848Y6145D02*
X20715D01*
Y6045D01*
X20781Y6078D01*
X20815D01*
X20848Y6045D01*
Y5978D01*
X20815Y5945D01*
X20748D01*
X20715Y5978D01*
X16684Y6196D02*
X16650Y6163D01*
Y6096D01*
X16684Y6063D01*
X16817D01*
X16850Y6096D01*
Y6163D01*
X16817Y6196D01*
X16850Y6263D02*
Y6330D01*
Y6296D01*
X16650D01*
X16684Y6263D01*
X16650Y6563D02*
X16684Y6496D01*
X16750Y6430D01*
X16817D01*
X16850Y6463D01*
Y6530D01*
X16817Y6563D01*
X16784D01*
X16750Y6530D01*
Y6430D01*
X17299Y2883D02*
X17265Y2916D01*
X17199D01*
X17165Y2883D01*
Y2750D01*
X17199Y2717D01*
X17265D01*
X17299Y2750D01*
X17365Y2717D02*
X17432D01*
X17399D01*
Y2916D01*
X17365Y2883D01*
X17532Y2916D02*
X17665D01*
Y2883D01*
X17532Y2750D01*
Y2717D01*
X24715Y4385D02*
X24682Y4352D01*
Y4285D01*
X24715Y4252D01*
X24849D01*
X24882Y4285D01*
Y4352D01*
X24849Y4385D01*
X24715Y4452D02*
X24682Y4485D01*
Y4552D01*
X24715Y4585D01*
X24749D01*
X24782Y4552D01*
Y4519D01*
Y4552D01*
X24815Y4585D01*
X24849D01*
X24882Y4552D01*
Y4485D01*
X24849Y4452D01*
X24715Y4652D02*
X24682Y4685D01*
Y4752D01*
X24715Y4785D01*
X24749D01*
X24782Y4752D01*
Y4718D01*
Y4752D01*
X24815Y4785D01*
X24849D01*
X24882Y4752D01*
Y4685D01*
X24849Y4652D01*
X24243Y8755D02*
X24210Y8722D01*
Y8655D01*
X24243Y8622D01*
X24376D01*
X24409Y8655D01*
Y8722D01*
X24376Y8755D01*
X24243Y8822D02*
X24210Y8855D01*
Y8922D01*
X24243Y8955D01*
X24276D01*
X24309Y8922D01*
Y8889D01*
Y8922D01*
X24343Y8955D01*
X24376D01*
X24409Y8922D01*
Y8855D01*
X24376Y8822D01*
X24210Y9155D02*
Y9022D01*
X24309D01*
X24276Y9089D01*
Y9122D01*
X24309Y9155D01*
X24376D01*
X24409Y9122D01*
Y9055D01*
X24376Y9022D01*
X30227Y10370D02*
X30194Y10336D01*
Y10270D01*
X30227Y10236D01*
X30360D01*
X30394Y10270D01*
Y10336D01*
X30360Y10370D01*
X30394Y10536D02*
X30194D01*
X30294Y10436D01*
Y10569D01*
X30194Y10769D02*
X30227Y10703D01*
X30294Y10636D01*
X30360D01*
X30394Y10669D01*
Y10736D01*
X30360Y10769D01*
X30327D01*
X30294Y10736D01*
Y10636D01*
X29243Y10370D02*
X29210Y10336D01*
Y10270D01*
X29243Y10236D01*
X29376D01*
X29409Y10270D01*
Y10336D01*
X29376Y10370D01*
X29409Y10536D02*
X29210D01*
X29309Y10436D01*
Y10569D01*
X29409Y10736D02*
X29210D01*
X29309Y10636D01*
Y10769D01*
X24322Y9425D02*
X24288Y9391D01*
Y9325D01*
X24322Y9291D01*
X24455D01*
X24488Y9325D01*
Y9391D01*
X24455Y9425D01*
X24322Y9491D02*
X24288Y9525D01*
Y9591D01*
X24322Y9625D01*
X24355D01*
X24388Y9591D01*
Y9558D01*
Y9591D01*
X24422Y9625D01*
X24455D01*
X24488Y9591D01*
Y9525D01*
X24455Y9491D01*
X24288Y9691D02*
Y9825D01*
X24322D01*
X24455Y9691D01*
X24488D01*
X24070Y7844D02*
X24037Y7877D01*
X23970D01*
X23937Y7844D01*
Y7710D01*
X23970Y7677D01*
X24037D01*
X24070Y7710D01*
X24137Y7844D02*
X24170Y7877D01*
X24237D01*
X24270Y7844D01*
Y7810D01*
X24237Y7777D01*
X24204D01*
X24237D01*
X24270Y7744D01*
Y7710D01*
X24237Y7677D01*
X24170D01*
X24137Y7710D01*
X24470Y7877D02*
X24404Y7844D01*
X24337Y7777D01*
Y7710D01*
X24370Y7677D01*
X24437D01*
X24470Y7710D01*
Y7744D01*
X24437Y7777D01*
X24337D01*
X28322Y10049D02*
X28289Y10082D01*
X28222D01*
X28189Y10049D01*
Y9915D01*
X28222Y9882D01*
X28289D01*
X28322Y9915D01*
X28489Y9882D02*
Y10082D01*
X28389Y9982D01*
X28522D01*
X28589Y9882D02*
X28655D01*
X28622D01*
Y10082D01*
X28589Y10049D01*
X26275D02*
X26242Y10082D01*
X26175D01*
X26142Y10049D01*
Y9915D01*
X26175Y9882D01*
X26242D01*
X26275Y9915D01*
X26442Y9882D02*
Y10082D01*
X26342Y9982D01*
X26475D01*
X26542Y10049D02*
X26575Y10082D01*
X26642D01*
X26675Y10049D01*
Y9915D01*
X26642Y9882D01*
X26575D01*
X26542Y9915D01*
Y10049D01*
X5581Y2259D02*
X5548Y2226D01*
Y2159D01*
X5581Y2126D01*
X5715D01*
X5748Y2159D01*
Y2226D01*
X5715Y2259D01*
X5748Y2326D02*
Y2393D01*
Y2359D01*
X5548D01*
X5581Y2326D01*
Y2493D02*
X5548Y2526D01*
Y2592D01*
X5581Y2626D01*
X5715D01*
X5748Y2592D01*
Y2526D01*
X5715Y2493D01*
X5581D01*
X2181Y4615D02*
X2147Y4649D01*
X2081D01*
X2047Y4615D01*
Y4482D01*
X2081Y4449D01*
X2147D01*
X2181Y4482D01*
X2247Y4615D02*
X2280Y4649D01*
X2347D01*
X2380Y4615D01*
Y4582D01*
X2347Y4549D01*
X2314D01*
X2347D01*
X2380Y4515D01*
Y4482D01*
X2347Y4449D01*
X2280D01*
X2247Y4482D01*
X2062Y1938D02*
X2029Y1972D01*
X1962D01*
X1929Y1938D01*
Y1805D01*
X1962Y1772D01*
X2029D01*
X2062Y1805D01*
X2229Y1772D02*
Y1972D01*
X2129Y1872D01*
X2262D01*
X2181Y2293D02*
X2147Y2326D01*
X2081D01*
X2047Y2293D01*
Y2159D01*
X2081Y2126D01*
X2147D01*
X2181Y2159D01*
X2247Y2326D02*
X2380D01*
Y2293D01*
X2247Y2159D01*
Y2126D01*
X3952Y2293D02*
X3919Y2326D01*
X3852D01*
X3819Y2293D01*
Y2159D01*
X3852Y2126D01*
X3919D01*
X3952Y2159D01*
X4019D02*
X4052Y2126D01*
X4119D01*
X4152Y2159D01*
Y2293D01*
X4119Y2326D01*
X4052D01*
X4019Y2293D01*
Y2259D01*
X4052Y2226D01*
X4152D01*
X3795Y1938D02*
X3761Y1972D01*
X3695D01*
X3661Y1938D01*
Y1805D01*
X3695Y1772D01*
X3761D01*
X3795Y1805D01*
X3861Y1938D02*
X3895Y1972D01*
X3961D01*
X3995Y1938D01*
Y1905D01*
X3961Y1872D01*
X3995Y1838D01*
Y1805D01*
X3961Y1772D01*
X3895D01*
X3861Y1805D01*
Y1838D01*
X3895Y1872D01*
X3861Y1905D01*
Y1938D01*
X3895Y1872D02*
X3961D01*
X1669Y4182D02*
X1635Y4216D01*
X1569D01*
X1535Y4182D01*
Y4049D01*
X1569Y4016D01*
X1635D01*
X1669Y4049D01*
X1869Y4016D02*
X1735D01*
X1869Y4149D01*
Y4182D01*
X1835Y4216D01*
X1769D01*
X1735Y4182D01*
X18677Y6190D02*
X18643Y6224D01*
X18577D01*
X18543Y6190D01*
Y6057D01*
X18577Y6024D01*
X18643D01*
X18677Y6057D01*
X18877Y6024D02*
X18743D01*
X18877Y6157D01*
Y6190D01*
X18843Y6224D01*
X18777D01*
X18743Y6190D01*
X18943D02*
X18977Y6224D01*
X19043D01*
X19076Y6190D01*
Y6057D01*
X19043Y6024D01*
X18977D01*
X18943Y6057D01*
Y6190D01*
X13062Y11157D02*
X13028Y11124D01*
Y11057D01*
X13062Y11024D01*
X13195D01*
X13228Y11057D01*
Y11124D01*
X13195Y11157D01*
X13228Y11224D02*
Y11290D01*
Y11257D01*
X13028D01*
X13062Y11224D01*
Y11390D02*
X13028Y11423D01*
Y11490D01*
X13062Y11523D01*
X13095D01*
X13128Y11490D01*
Y11457D01*
Y11490D01*
X13162Y11523D01*
X13195D01*
X13228Y11490D01*
Y11423D01*
X13195Y11390D01*
X14833Y11118D02*
X14800Y11084D01*
Y11018D01*
X14833Y10984D01*
X14967D01*
X15000Y11018D01*
Y11084D01*
X14967Y11118D01*
X15000Y11184D02*
Y11251D01*
Y11218D01*
X14800D01*
X14833Y11184D01*
X15000Y11451D02*
X14800D01*
X14900Y11351D01*
Y11484D01*
X17377Y8946D02*
X17344Y8979D01*
X17277D01*
X17244Y8946D01*
Y8813D01*
X17277Y8780D01*
X17344D01*
X17377Y8813D01*
X17444Y8780D02*
X17511D01*
X17477D01*
Y8979D01*
X17444Y8946D01*
X17611D02*
X17644Y8979D01*
X17711D01*
X17744Y8946D01*
Y8913D01*
X17711Y8880D01*
X17744Y8846D01*
Y8813D01*
X17711Y8780D01*
X17644D01*
X17611Y8813D01*
Y8846D01*
X17644Y8880D01*
X17611Y8913D01*
Y8946D01*
X17644Y8880D02*
X17711D01*
X18849Y7771D02*
X18816Y7738D01*
Y7671D01*
X18849Y7638D01*
X18982D01*
X19016Y7671D01*
Y7738D01*
X18982Y7771D01*
X19016Y7971D02*
Y7838D01*
X18882Y7971D01*
X18849D01*
X18816Y7938D01*
Y7871D01*
X18849Y7838D01*
X19016Y8171D02*
Y8038D01*
X18882Y8171D01*
X18849D01*
X18816Y8138D01*
Y8071D01*
X18849Y8038D01*
X21211Y10370D02*
X21178Y10336D01*
Y10270D01*
X21211Y10236D01*
X21345D01*
X21378Y10270D01*
Y10336D01*
X21345Y10370D01*
X21378Y10569D02*
Y10436D01*
X21245Y10569D01*
X21211D01*
X21178Y10536D01*
Y10469D01*
X21211Y10436D01*
X21345Y10636D02*
X21378Y10669D01*
Y10736D01*
X21345Y10769D01*
X21211D01*
X21178Y10736D01*
Y10669D01*
X21211Y10636D01*
X21245D01*
X21278Y10669D01*
Y10769D01*
X20857Y10370D02*
X20824Y10336D01*
Y10270D01*
X20857Y10236D01*
X20990D01*
X21024Y10270D01*
Y10336D01*
X20990Y10370D01*
X21024Y10569D02*
Y10436D01*
X20890Y10569D01*
X20857D01*
X20824Y10536D01*
Y10469D01*
X20857Y10436D01*
X20824Y10636D02*
Y10769D01*
X20857D01*
X20990Y10636D01*
X21024D01*
X26654Y11617D02*
Y11417D01*
X26754D01*
X26787Y11451D01*
Y11584D01*
X26754Y11617D01*
X26654D01*
X26987D02*
X26853D01*
Y11517D01*
X26920Y11551D01*
X26953D01*
X26987Y11517D01*
Y11451D01*
X26953Y11417D01*
X26887D01*
X26853Y11451D01*
X26142Y10591D02*
X25942D01*
Y10691D01*
X25975Y10724D01*
X26042D01*
X26075Y10691D01*
Y10591D01*
Y10657D02*
X26142Y10724D01*
Y10924D02*
Y10790D01*
X26008Y10924D01*
X25975D01*
X25942Y10890D01*
Y10824D01*
X25975Y10790D01*
X26142Y11090D02*
X25942D01*
X26042Y10990D01*
Y11124D01*
X27520Y9921D02*
X27320D01*
Y10021D01*
X27353Y10055D01*
X27420D01*
X27453Y10021D01*
Y9921D01*
Y9988D02*
X27520Y10055D01*
Y10254D02*
Y10121D01*
X27386Y10254D01*
X27353D01*
X27320Y10221D01*
Y10155D01*
X27353Y10121D01*
X27320Y10454D02*
Y10321D01*
X27420D01*
X27386Y10388D01*
Y10421D01*
X27420Y10454D01*
X27486D01*
X27520Y10421D01*
Y10354D01*
X27486Y10321D01*
X19700Y5127D02*
X19667Y5161D01*
X19600D01*
X19567Y5127D01*
Y4994D01*
X19600Y4961D01*
X19667D01*
X19700Y4994D01*
X19900Y4961D02*
X19767D01*
X19900Y5094D01*
Y5127D01*
X19867Y5161D01*
X19800D01*
X19767Y5127D01*
X20067Y4961D02*
Y5161D01*
X19967Y5061D01*
X20100D01*
X23495Y7102D02*
X23461Y7068D01*
Y7002D01*
X23495Y6969D01*
X23628D01*
X23661Y7002D01*
Y7068D01*
X23628Y7102D01*
X23495Y7168D02*
X23461Y7202D01*
Y7268D01*
X23495Y7302D01*
X23528D01*
X23561Y7268D01*
Y7235D01*
Y7268D01*
X23595Y7302D01*
X23628D01*
X23661Y7268D01*
Y7202D01*
X23628Y7168D01*
X23661Y7368D02*
Y7435D01*
Y7402D01*
X23461D01*
X23495Y7368D01*
X24952Y6432D02*
X24918Y6399D01*
Y6333D01*
X24952Y6299D01*
X25085D01*
X25118Y6333D01*
Y6399D01*
X25085Y6432D01*
X24952Y6499D02*
X24918Y6532D01*
Y6599D01*
X24952Y6632D01*
X24985D01*
X25018Y6599D01*
Y6566D01*
Y6599D01*
X25051Y6632D01*
X25085D01*
X25118Y6599D01*
Y6532D01*
X25085Y6499D01*
X24952Y6699D02*
X24918Y6732D01*
Y6799D01*
X24952Y6832D01*
X24985D01*
X25018Y6799D01*
X25051Y6832D01*
X25085D01*
X25118Y6799D01*
Y6732D01*
X25085Y6699D01*
X25051D01*
X25018Y6732D01*
X24985Y6699D01*
X24952D01*
X25018Y6732D02*
Y6799D01*
X24597Y6432D02*
X24564Y6399D01*
Y6333D01*
X24597Y6299D01*
X24730D01*
X24764Y6333D01*
Y6399D01*
X24730Y6432D01*
X24597Y6499D02*
X24564Y6532D01*
Y6599D01*
X24597Y6632D01*
X24630D01*
X24664Y6599D01*
Y6566D01*
Y6599D01*
X24697Y6632D01*
X24730D01*
X24764Y6599D01*
Y6532D01*
X24730Y6499D01*
X24764Y6799D02*
X24564D01*
X24664Y6699D01*
Y6832D01*
X25055Y11190D02*
X25021Y11224D01*
X24955D01*
X24921Y11190D01*
Y11057D01*
X24955Y11024D01*
X25021D01*
X25055Y11057D01*
X25121Y11190D02*
X25155Y11224D01*
X25221D01*
X25254Y11190D01*
Y11157D01*
X25221Y11124D01*
X25188D01*
X25221D01*
X25254Y11090D01*
Y11057D01*
X25221Y11024D01*
X25155D01*
X25121Y11057D01*
X25321D02*
X25354Y11024D01*
X25421D01*
X25454Y11057D01*
Y11190D01*
X25421Y11224D01*
X25354D01*
X25321Y11190D01*
Y11157D01*
X25354Y11124D01*
X25454D01*
X10960Y11348D02*
X10927Y11381D01*
X10860D01*
X10827Y11348D01*
Y11214D01*
X10860Y11181D01*
X10927D01*
X10960Y11214D01*
X11027Y11181D02*
X11093D01*
X11060D01*
Y11381D01*
X11027Y11348D01*
X11327Y11181D02*
X11193D01*
X11327Y11314D01*
Y11348D01*
X11293Y11381D01*
X11227D01*
X11193Y11348D01*
X19094Y3749D02*
X19128Y3783D01*
X19194D01*
X19228Y3749D01*
Y3716D01*
X19194Y3683D01*
X19161D01*
X19194D01*
X19228Y3649D01*
Y3616D01*
X19194Y3583D01*
X19128D01*
X19094Y3616D01*
X19294Y3583D02*
Y3616D01*
X19328D01*
Y3583D01*
X19294D01*
X19461Y3749D02*
X19494Y3783D01*
X19561D01*
X19594Y3749D01*
Y3716D01*
X19561Y3683D01*
X19528D01*
X19561D01*
X19594Y3649D01*
Y3616D01*
X19561Y3583D01*
X19494D01*
X19461Y3616D01*
X19661Y3783D02*
Y3649D01*
X19728Y3583D01*
X19794Y3649D01*
Y3783D01*
X20236Y8071D02*
X20303D01*
X20270D01*
Y8271D01*
X20236Y8237D01*
X20403Y8071D02*
Y8104D01*
X20436D01*
Y8071D01*
X20403D01*
X20569Y8237D02*
X20603Y8271D01*
X20669D01*
X20703Y8237D01*
Y8204D01*
X20669Y8171D01*
X20703Y8138D01*
Y8104D01*
X20669Y8071D01*
X20603D01*
X20569Y8104D01*
Y8138D01*
X20603Y8171D01*
X20569Y8204D01*
Y8237D01*
X20603Y8171D02*
X20669D01*
X20769Y8271D02*
Y8138D01*
X20836Y8071D01*
X20903Y8138D01*
Y8271D01*
X19252Y8671D02*
X19285Y8704D01*
X19352D01*
X19385Y8671D01*
Y8637D01*
X19352Y8604D01*
X19319D01*
X19352D01*
X19385Y8571D01*
Y8537D01*
X19352Y8504D01*
X19285D01*
X19252Y8537D01*
X19452Y8504D02*
Y8537D01*
X19485D01*
Y8504D01*
X19452D01*
X19619Y8671D02*
X19652Y8704D01*
X19718D01*
X19752Y8671D01*
Y8637D01*
X19718Y8604D01*
X19685D01*
X19718D01*
X19752Y8571D01*
Y8537D01*
X19718Y8504D01*
X19652D01*
X19619Y8537D01*
X19818Y8704D02*
Y8571D01*
X19885Y8504D01*
X19952Y8571D01*
Y8704D01*
X20285Y8504D02*
X20218Y8571D01*
Y8637D01*
X20285Y8704D01*
X20385D02*
X20452D01*
X20418D01*
Y8504D01*
X20385D01*
X20452D01*
X20652Y8704D02*
X20585D01*
X20552Y8671D01*
Y8537D01*
X20585Y8504D01*
X20652D01*
X20685Y8537D01*
Y8671D01*
X20652Y8704D01*
X20751Y8504D02*
X20818Y8571D01*
Y8637D01*
X20751Y8704D01*
X20630Y5669D02*
X20697D01*
X20663D01*
Y5869D01*
X20630Y5836D01*
X20797Y5669D02*
Y5703D01*
X20830D01*
Y5669D01*
X20797D01*
X20963Y5836D02*
X20996Y5869D01*
X21063D01*
X21096Y5836D01*
Y5703D01*
X21063Y5669D01*
X20996D01*
X20963Y5703D01*
Y5836D01*
X21163Y5869D02*
Y5736D01*
X21230Y5669D01*
X21296Y5736D01*
Y5869D01*
X669Y8937D02*
X469D01*
Y9037D01*
X503Y9070D01*
X569D01*
X603Y9037D01*
Y8937D01*
X503Y9270D02*
X469Y9237D01*
Y9170D01*
X503Y9137D01*
X636D01*
X669Y9170D01*
Y9237D01*
X636Y9270D01*
X569D01*
Y9204D01*
X669Y9337D02*
Y9404D01*
Y9370D01*
X469D01*
X503Y9337D01*
X669Y9503D02*
X636D01*
Y9537D01*
X669D01*
Y9503D01*
X469Y9803D02*
Y9670D01*
X569D01*
X536Y9737D01*
Y9770D01*
X569Y9803D01*
X636D01*
X669Y9770D01*
Y9703D01*
X636Y9670D01*
X469Y9870D02*
X603D01*
X669Y9937D01*
X603Y10003D01*
X469D01*
X6644Y2441D02*
X6611Y2474D01*
Y2541D01*
X6644Y2574D01*
X6778D01*
X6811Y2541D01*
Y2474D01*
X6778Y2441D01*
X6644D01*
X7008Y1866D02*
Y1732D01*
X6875Y1866D01*
X6841D01*
X6808Y1832D01*
Y1766D01*
X6841Y1732D01*
X7283Y2541D02*
X7084D01*
X7183Y2441D01*
Y2574D01*
X6408Y1866D02*
X6375Y1832D01*
Y1766D01*
X6408Y1732D01*
X6541D01*
X6575Y1766D01*
Y1832D01*
X6541Y1866D01*
X6475D01*
Y1799D01*
X6575Y1932D02*
X6375D01*
X6575Y2066D01*
X6375D01*
Y2132D02*
X6575D01*
Y2232D01*
X6541Y2265D01*
X6408D01*
X6375Y2232D01*
Y2132D01*
X7589Y2441D02*
X7556Y2474D01*
Y2541D01*
X7589Y2574D01*
X7623D01*
X7656Y2541D01*
X7689Y2574D01*
X7723D01*
X7756Y2541D01*
Y2474D01*
X7723Y2441D01*
X7689D01*
X7656Y2474D01*
X7623Y2441D01*
X7589D01*
X7656Y2474D02*
Y2541D01*
X7280Y1866D02*
X7314Y1799D01*
X7380Y1732D01*
X7447D01*
X7480Y1766D01*
Y1832D01*
X7447Y1866D01*
X7414D01*
X7380Y1832D01*
Y1732D01*
X8228Y2441D02*
Y2508D01*
Y2474D01*
X8028D01*
X8062Y2441D01*
X8228Y2741D02*
Y2608D01*
X8095Y2741D01*
X8062D01*
X8028Y2708D01*
Y2641D01*
X8062Y2608D01*
X7953Y1732D02*
Y1799D01*
Y1766D01*
X7753D01*
X7786Y1732D01*
Y1899D02*
X7753Y1932D01*
Y1999D01*
X7786Y2032D01*
X7919D01*
X7953Y1999D01*
Y1932D01*
X7919Y1899D01*
X7786D01*
X8701Y2441D02*
Y2508D01*
Y2474D01*
X8501D01*
X8534Y2441D01*
X8501Y2741D02*
X8534Y2674D01*
X8601Y2608D01*
X8667D01*
X8701Y2641D01*
Y2708D01*
X8667Y2741D01*
X8634D01*
X8601Y2708D01*
Y2608D01*
X8425Y1732D02*
Y1799D01*
Y1766D01*
X8225D01*
X8259Y1732D01*
X8425Y1999D02*
X8225D01*
X8325Y1899D01*
Y2032D01*
X9007Y2574D02*
X8973Y2541D01*
Y2474D01*
X9007Y2441D01*
X9140D01*
X9173Y2474D01*
Y2541D01*
X9140Y2574D01*
X9073D01*
Y2508D01*
X9173Y2641D02*
X8973D01*
X9173Y2774D01*
X8973D01*
Y2841D02*
X9173D01*
Y2941D01*
X9140Y2974D01*
X9007D01*
X8973Y2941D01*
Y2841D01*
X8898Y1732D02*
Y1799D01*
Y1766D01*
X8698D01*
X8731Y1732D01*
Y1899D02*
X8698Y1932D01*
Y1999D01*
X8731Y2032D01*
X8764D01*
X8798Y1999D01*
X8831Y2032D01*
X8864D01*
X8898Y1999D01*
Y1932D01*
X8864Y1899D01*
X8831D01*
X8798Y1932D01*
X8764Y1899D01*
X8731D01*
X8798Y1932D02*
Y1999D01*
X9646Y2574D02*
Y2441D01*
X9512Y2574D01*
X9479D01*
X9446Y2541D01*
Y2474D01*
X9479Y2441D01*
X9646Y2774D02*
Y2641D01*
X9512Y2774D01*
X9479D01*
X9446Y2741D01*
Y2674D01*
X9479Y2641D01*
X9370Y1866D02*
Y1732D01*
X9237Y1866D01*
X9203D01*
X9170Y1832D01*
Y1766D01*
X9203Y1732D01*
Y1932D02*
X9170Y1966D01*
Y2032D01*
X9203Y2066D01*
X9337D01*
X9370Y2032D01*
Y1966D01*
X9337Y1932D01*
X9203D01*
X10118Y2574D02*
Y2441D01*
X9985Y2574D01*
X9952D01*
X9918Y2541D01*
Y2474D01*
X9952Y2441D01*
X9918Y2774D02*
X9952Y2708D01*
X10018Y2641D01*
X10085D01*
X10118Y2674D01*
Y2741D01*
X10085Y2774D01*
X10051D01*
X10018Y2741D01*
Y2641D01*
X9843Y1866D02*
Y1732D01*
X9709Y1866D01*
X9676D01*
X9643Y1832D01*
Y1766D01*
X9676Y1732D01*
X9843Y2032D02*
X9643D01*
X9743Y1932D01*
Y2066D01*
X10424Y2441D02*
X10391Y2474D01*
Y2541D01*
X10424Y2574D01*
X10457D01*
X10491Y2541D01*
Y2508D01*
Y2541D01*
X10524Y2574D01*
X10557D01*
X10591Y2541D01*
Y2474D01*
X10557Y2441D01*
X10424Y2641D02*
X10391Y2674D01*
Y2741D01*
X10424Y2774D01*
X10557D01*
X10591Y2741D01*
Y2674D01*
X10557Y2641D01*
X10424D01*
X10315Y1866D02*
Y1732D01*
X10182Y1866D01*
X10148D01*
X10115Y1832D01*
Y1766D01*
X10148Y1732D01*
Y1932D02*
X10115Y1966D01*
Y2032D01*
X10148Y2066D01*
X10182D01*
X10215Y2032D01*
X10248Y2066D01*
X10282D01*
X10315Y2032D01*
Y1966D01*
X10282Y1932D01*
X10248D01*
X10215Y1966D01*
X10182Y1932D01*
X10148D01*
X10215Y1966D02*
Y2032D01*
X10896Y2441D02*
X10863Y2474D01*
Y2541D01*
X10896Y2574D01*
X10930D01*
X10963Y2541D01*
Y2508D01*
Y2541D01*
X10996Y2574D01*
X11030D01*
X11063Y2541D01*
Y2474D01*
X11030Y2441D01*
X11063Y2741D02*
X10863D01*
X10963Y2641D01*
Y2774D01*
X10621Y1732D02*
X10587Y1766D01*
Y1832D01*
X10621Y1866D01*
X10654D01*
X10687Y1832D01*
Y1799D01*
Y1832D01*
X10721Y1866D01*
X10754D01*
X10787Y1832D01*
Y1766D01*
X10754Y1732D01*
X10787Y2066D02*
Y1932D01*
X10654Y2066D01*
X10621D01*
X10587Y2032D01*
Y1966D01*
X10621Y1932D01*
X11369Y2441D02*
X11336Y2474D01*
Y2541D01*
X11369Y2574D01*
X11402D01*
X11435Y2541D01*
Y2508D01*
Y2541D01*
X11469Y2574D01*
X11502D01*
X11535Y2541D01*
Y2474D01*
X11502Y2441D01*
X11369Y2641D02*
X11336Y2674D01*
Y2741D01*
X11369Y2774D01*
X11402D01*
X11435Y2741D01*
X11469Y2774D01*
X11502D01*
X11535Y2741D01*
Y2674D01*
X11502Y2641D01*
X11469D01*
X11435Y2674D01*
X11402Y2641D01*
X11369D01*
X11435Y2674D02*
Y2741D01*
X11093Y1732D02*
X11060Y1766D01*
Y1832D01*
X11093Y1866D01*
X11127D01*
X11160Y1832D01*
Y1799D01*
Y1832D01*
X11193Y1866D01*
X11227D01*
X11260Y1832D01*
Y1766D01*
X11227Y1732D01*
X11060Y2066D02*
X11093Y1999D01*
X11160Y1932D01*
X11227D01*
X11260Y1966D01*
Y2032D01*
X11227Y2066D01*
X11193D01*
X11160Y2032D01*
Y1932D01*
X12008Y2541D02*
X11808D01*
X11908Y2441D01*
Y2574D01*
X11841Y2641D02*
X11808Y2674D01*
Y2741D01*
X11841Y2774D01*
X11975D01*
X12008Y2741D01*
Y2674D01*
X11975Y2641D01*
X11841D01*
X11566Y1866D02*
X11532Y1832D01*
Y1766D01*
X11566Y1732D01*
X11699D01*
X11732Y1766D01*
Y1832D01*
X11699Y1866D01*
X11632D01*
Y1799D01*
X11732Y1932D02*
X11532D01*
X11732Y2066D01*
X11532D01*
Y2132D02*
X11732D01*
Y2232D01*
X11699Y2265D01*
X11566D01*
X11532Y2232D01*
Y2132D01*
X12480Y2541D02*
X12280D01*
X12380Y2441D01*
Y2574D01*
X12480Y2741D02*
X12280D01*
X12380Y2641D01*
Y2774D01*
X12205Y1832D02*
X12005D01*
X12105Y1732D01*
Y1866D01*
X12205Y2066D02*
Y1932D01*
X12071Y2066D01*
X12038D01*
X12005Y2032D01*
Y1966D01*
X12038Y1932D01*
X12953Y2541D02*
X12753D01*
X12853Y2441D01*
Y2574D01*
X12753Y2774D02*
X12786Y2708D01*
X12853Y2641D01*
X12919D01*
X12953Y2674D01*
Y2741D01*
X12919Y2774D01*
X12886D01*
X12853Y2741D01*
Y2641D01*
X12677Y1832D02*
X12477D01*
X12577Y1732D01*
Y1866D01*
X12477Y2066D02*
Y1932D01*
X12577D01*
X12544Y1999D01*
Y2032D01*
X12577Y2066D01*
X12644D01*
X12677Y2032D01*
Y1966D01*
X12644Y1932D01*
X13425Y2541D02*
X13225D01*
X13325Y2441D01*
Y2574D01*
X13259Y2641D02*
X13225Y2674D01*
Y2741D01*
X13259Y2774D01*
X13292D01*
X13325Y2741D01*
X13359Y2774D01*
X13392D01*
X13425Y2741D01*
Y2674D01*
X13392Y2641D01*
X13359D01*
X13325Y2674D01*
X13292Y2641D01*
X13259D01*
X13325Y2674D02*
Y2741D01*
X13150Y1832D02*
X12950D01*
X13050Y1732D01*
Y1866D01*
X12950Y1932D02*
Y2066D01*
X12983D01*
X13116Y1932D01*
X13150D01*
X13698Y2574D02*
Y2441D01*
X13798D01*
X13764Y2508D01*
Y2541D01*
X13798Y2574D01*
X13864D01*
X13898Y2541D01*
Y2474D01*
X13864Y2441D01*
X13731Y2641D02*
X13698Y2674D01*
Y2741D01*
X13731Y2774D01*
X13864D01*
X13898Y2741D01*
Y2674D01*
X13864Y2641D01*
X13731D01*
X13622Y1832D02*
X13422D01*
X13522Y1732D01*
Y1866D01*
X13589Y1932D02*
X13622Y1966D01*
Y2032D01*
X13589Y2066D01*
X13455D01*
X13422Y2032D01*
Y1966D01*
X13455Y1932D01*
X13489D01*
X13522Y1966D01*
Y2066D01*
X14203Y2574D02*
X14170Y2541D01*
Y2474D01*
X14203Y2441D01*
X14337D01*
X14370Y2474D01*
Y2541D01*
X14337Y2574D01*
X14270D01*
Y2508D01*
X14370Y2641D02*
X14170D01*
X14370Y2774D01*
X14170D01*
Y2841D02*
X14370D01*
Y2941D01*
X14337Y2974D01*
X14203D01*
X14170Y2941D01*
Y2841D01*
X13895Y1866D02*
Y1732D01*
X13995D01*
X13961Y1799D01*
Y1832D01*
X13995Y1866D01*
X14061D01*
X14094Y1832D01*
Y1766D01*
X14061Y1732D01*
X14094Y1932D02*
Y1999D01*
Y1966D01*
X13895D01*
X13928Y1932D01*
X14367Y1732D02*
Y1866D01*
Y1799D01*
X14567D01*
X14367Y1932D02*
X14567Y2066D01*
X14367D02*
X14567Y1932D01*
X14912Y1866D02*
X14879Y1832D01*
Y1766D01*
X14912Y1732D01*
X15045D01*
X15079Y1766D01*
Y1832D01*
X15045Y1866D01*
X14979D01*
Y1799D01*
X15079Y1932D02*
X14879D01*
X15079Y2066D01*
X14879D01*
Y2132D02*
X15079D01*
Y2232D01*
X15045Y2265D01*
X14912D01*
X14879Y2232D01*
Y2132D01*
X15315Y2441D02*
X15115D01*
Y2541D01*
X15148Y2574D01*
X15215D01*
X15248Y2541D01*
Y2441D01*
Y2508D02*
X15315Y2574D01*
X15115Y2641D02*
X15315Y2774D01*
X15115D02*
X15315Y2641D01*
X15824Y2574D02*
Y2441D01*
X15924D01*
X15890Y2508D01*
Y2541D01*
X15924Y2574D01*
X15990D01*
X16024Y2541D01*
Y2474D01*
X15990Y2441D01*
X16024Y2741D02*
X15824D01*
X15924Y2641D01*
Y2774D01*
X15621Y1866D02*
X15587Y1832D01*
Y1766D01*
X15621Y1732D01*
X15754D01*
X15787Y1766D01*
Y1832D01*
X15754Y1866D01*
X15687D01*
Y1799D01*
X15787Y1932D02*
X15587D01*
X15787Y2066D01*
X15587D01*
Y2132D02*
X15787D01*
Y2232D01*
X15754Y2265D01*
X15621D01*
X15587Y2232D01*
Y2132D01*
X16296Y2441D02*
X16429D01*
X16496Y2508D01*
X16429Y2574D01*
X16296D01*
X16329Y2774D02*
X16296Y2741D01*
Y2674D01*
X16329Y2641D01*
X16463D01*
X16496Y2674D01*
Y2741D01*
X16463Y2774D01*
X16329Y2974D02*
X16296Y2941D01*
Y2874D01*
X16329Y2841D01*
X16463D01*
X16496Y2874D01*
Y2941D01*
X16463Y2974D01*
X16060Y1866D02*
Y1732D01*
X16160D01*
X16127Y1799D01*
Y1832D01*
X16160Y1866D01*
X16227D01*
X16260Y1832D01*
Y1766D01*
X16227Y1732D01*
X16060Y2066D02*
Y1932D01*
X16160D01*
X16127Y1999D01*
Y2032D01*
X16160Y2066D01*
X16227D01*
X16260Y2032D01*
Y1966D01*
X16227Y1932D01*
X20784Y2574D02*
X20818Y2508D01*
X20884Y2441D01*
X20951D01*
X20984Y2474D01*
Y2541D01*
X20951Y2574D01*
X20918D01*
X20884Y2541D01*
Y2441D01*
X20818Y2641D02*
X20784Y2674D01*
Y2741D01*
X20818Y2774D01*
X20851D01*
X20884Y2741D01*
X20918Y2774D01*
X20951D01*
X20984Y2741D01*
Y2674D01*
X20951Y2641D01*
X20918D01*
X20884Y2674D01*
X20851Y2641D01*
X20818D01*
X20884Y2674D02*
Y2741D01*
X20548Y1866D02*
X20581Y1799D01*
X20648Y1732D01*
X20715D01*
X20748Y1766D01*
Y1832D01*
X20715Y1866D01*
X20681D01*
X20648Y1832D01*
Y1732D01*
X20548Y2066D02*
X20581Y1999D01*
X20648Y1932D01*
X20715D01*
X20748Y1966D01*
Y2032D01*
X20715Y2066D01*
X20681D01*
X20648Y2032D01*
Y1932D01*
X21257Y2441D02*
Y2574D01*
X21290D01*
X21423Y2441D01*
X21457D01*
X21290Y2641D02*
X21257Y2674D01*
Y2741D01*
X21290Y2774D01*
X21423D01*
X21457Y2741D01*
Y2674D01*
X21423Y2641D01*
X21290D01*
X21021Y1732D02*
X21154D01*
X21220Y1799D01*
X21154Y1866D01*
X21021D01*
X21054Y2066D02*
X21021Y2032D01*
Y1966D01*
X21054Y1932D01*
X21187D01*
X21220Y1966D01*
Y2032D01*
X21187Y2066D01*
X21054Y2265D02*
X21021Y2232D01*
Y2165D01*
X21054Y2132D01*
X21187D01*
X21220Y2165D01*
Y2232D01*
X21187Y2265D01*
X21729Y2441D02*
X21862D01*
X21929Y2508D01*
X21862Y2574D01*
X21729D01*
X21763Y2774D02*
X21729Y2741D01*
Y2674D01*
X21763Y2641D01*
X21896D01*
X21929Y2674D01*
Y2741D01*
X21896Y2774D01*
X21763Y2974D02*
X21729Y2941D01*
Y2874D01*
X21763Y2841D01*
X21896D01*
X21929Y2874D01*
Y2941D01*
X21896Y2974D01*
X21493Y1732D02*
Y1866D01*
X21526D01*
X21660Y1732D01*
X21693D01*
Y2066D02*
Y1932D01*
X21560Y2066D01*
X21526D01*
X21493Y2032D01*
Y1966D01*
X21526Y1932D01*
X22202Y2441D02*
Y2574D01*
X22235D01*
X22368Y2441D01*
X22402D01*
X22202Y2774D02*
X22235Y2708D01*
X22302Y2641D01*
X22368D01*
X22402Y2674D01*
Y2741D01*
X22368Y2774D01*
X22335D01*
X22302Y2741D01*
Y2641D01*
X21965Y1732D02*
Y1866D01*
X21999D01*
X22132Y1732D01*
X22165D01*
Y2032D02*
X21965D01*
X22065Y1932D01*
Y2066D01*
X22674Y2441D02*
Y2574D01*
X22707D01*
X22841Y2441D01*
X22874D01*
X22707Y2641D02*
X22674Y2674D01*
Y2741D01*
X22707Y2774D01*
X22741D01*
X22774Y2741D01*
X22807Y2774D01*
X22841D01*
X22874Y2741D01*
Y2674D01*
X22841Y2641D01*
X22807D01*
X22774Y2674D01*
X22741Y2641D01*
X22707D01*
X22774Y2674D02*
Y2741D01*
X22438Y1732D02*
X22571D01*
X22638Y1799D01*
X22571Y1866D01*
X22438D01*
X22471Y2066D02*
X22438Y2032D01*
Y1966D01*
X22471Y1932D01*
X22604D01*
X22638Y1966D01*
Y2032D01*
X22604Y2066D01*
X22471Y2265D02*
X22438Y2232D01*
Y2165D01*
X22471Y2132D01*
X22604D01*
X22638Y2165D01*
Y2232D01*
X22604Y2265D01*
X23180Y2574D02*
X23147Y2541D01*
Y2474D01*
X23180Y2441D01*
X23313D01*
X23346Y2474D01*
Y2541D01*
X23313Y2574D01*
X23246D01*
Y2508D01*
X23346Y2641D02*
X23147D01*
X23346Y2774D01*
X23147D01*
Y2841D02*
X23346D01*
Y2941D01*
X23313Y2974D01*
X23180D01*
X23147Y2941D01*
Y2841D01*
X22944Y1732D02*
X22910Y1766D01*
Y1832D01*
X22944Y1866D01*
X22977D01*
X23010Y1832D01*
X23044Y1866D01*
X23077D01*
X23110Y1832D01*
Y1766D01*
X23077Y1732D01*
X23044D01*
X23010Y1766D01*
X22977Y1732D01*
X22944D01*
X23010Y1766D02*
Y1832D01*
X22944Y1932D02*
X22910Y1966D01*
Y2032D01*
X22944Y2066D01*
X23077D01*
X23110Y2032D01*
Y1966D01*
X23077Y1932D01*
X22944D01*
X23652Y2441D02*
X23619Y2474D01*
Y2541D01*
X23652Y2574D01*
X23686D01*
X23719Y2541D01*
X23752Y2574D01*
X23786D01*
X23819Y2541D01*
Y2474D01*
X23786Y2441D01*
X23752D01*
X23719Y2474D01*
X23686Y2441D01*
X23652D01*
X23719Y2474D02*
Y2541D01*
X23819Y2741D02*
X23619D01*
X23719Y2641D01*
Y2774D01*
X23416Y1732D02*
X23383Y1766D01*
Y1832D01*
X23416Y1866D01*
X23449D01*
X23483Y1832D01*
X23516Y1866D01*
X23549D01*
X23583Y1832D01*
Y1766D01*
X23549Y1732D01*
X23516D01*
X23483Y1766D01*
X23449Y1732D01*
X23416D01*
X23483Y1766D02*
Y1832D01*
X23583Y2066D02*
Y1932D01*
X23449Y2066D01*
X23416D01*
X23383Y2032D01*
Y1966D01*
X23416Y1932D01*
X24125Y2441D02*
X24091Y2474D01*
Y2541D01*
X24125Y2574D01*
X24158D01*
X24191Y2541D01*
X24225Y2574D01*
X24258D01*
X24291Y2541D01*
Y2474D01*
X24258Y2441D01*
X24225D01*
X24191Y2474D01*
X24158Y2441D01*
X24125D01*
X24191Y2474D02*
Y2541D01*
X24125Y2641D02*
X24091Y2674D01*
Y2741D01*
X24125Y2774D01*
X24158D01*
X24191Y2741D01*
X24225Y2774D01*
X24258D01*
X24291Y2741D01*
Y2674D01*
X24258Y2641D01*
X24225D01*
X24191Y2674D01*
X24158Y2641D01*
X24125D01*
X24191Y2674D02*
Y2741D01*
X23889Y1732D02*
X23855Y1766D01*
Y1832D01*
X23889Y1866D01*
X23922D01*
X23955Y1832D01*
X23988Y1866D01*
X24022D01*
X24055Y1832D01*
Y1766D01*
X24022Y1732D01*
X23988D01*
X23955Y1766D01*
X23922Y1732D01*
X23889D01*
X23955Y1766D02*
Y1832D01*
X23855Y2066D02*
X23889Y1999D01*
X23955Y1932D01*
X24022D01*
X24055Y1966D01*
Y2032D01*
X24022Y2066D01*
X23988D01*
X23955Y2032D01*
Y1932D01*
X24730Y2441D02*
X24764Y2474D01*
Y2541D01*
X24730Y2574D01*
X24597D01*
X24564Y2541D01*
Y2474D01*
X24597Y2441D01*
X24630D01*
X24664Y2474D01*
Y2574D01*
X24764Y2774D02*
Y2641D01*
X24630Y2774D01*
X24597D01*
X24564Y2741D01*
Y2674D01*
X24597Y2641D01*
X24494Y1732D02*
X24528Y1766D01*
Y1832D01*
X24494Y1866D01*
X24361D01*
X24328Y1832D01*
Y1766D01*
X24361Y1732D01*
X24394D01*
X24428Y1766D01*
Y1866D01*
X24361Y1932D02*
X24328Y1966D01*
Y2032D01*
X24361Y2066D01*
X24494D01*
X24528Y2032D01*
Y1966D01*
X24494Y1932D01*
X24361D01*
X25070Y2574D02*
X25036Y2541D01*
Y2474D01*
X25070Y2441D01*
X25203D01*
X25236Y2474D01*
Y2541D01*
X25203Y2574D01*
X25136D01*
Y2508D01*
X25236Y2641D02*
X25036D01*
X25236Y2774D01*
X25036D01*
Y2841D02*
X25236D01*
Y2941D01*
X25203Y2974D01*
X25070D01*
X25036Y2941D01*
Y2841D01*
X24967Y1732D02*
X25000Y1766D01*
Y1832D01*
X24967Y1866D01*
X24833D01*
X24800Y1832D01*
Y1766D01*
X24833Y1732D01*
X24867D01*
X24900Y1766D01*
Y1866D01*
X25000Y2032D02*
X24800D01*
X24900Y1932D01*
Y2066D01*
X25439Y1732D02*
X25472Y1766D01*
Y1832D01*
X25439Y1866D01*
X25306D01*
X25273Y1832D01*
Y1766D01*
X25306Y1732D01*
X25339D01*
X25372Y1766D01*
Y1866D01*
X25273Y2066D02*
X25306Y1999D01*
X25372Y1932D01*
X25439D01*
X25472Y1966D01*
Y2032D01*
X25439Y2066D01*
X25406D01*
X25372Y2032D01*
Y1932D01*
X26654Y2441D02*
Y2508D01*
Y2474D01*
X26454D01*
X26487Y2441D01*
Y2608D02*
X26454Y2641D01*
Y2708D01*
X26487Y2741D01*
X26620D01*
X26654Y2708D01*
Y2641D01*
X26620Y2608D01*
X26487D01*
Y2807D02*
X26454Y2841D01*
Y2907D01*
X26487Y2941D01*
X26620D01*
X26654Y2907D01*
Y2841D01*
X26620Y2807D01*
X26487D01*
X26251Y1866D02*
X26217Y1832D01*
Y1766D01*
X26251Y1732D01*
X26384D01*
X26417Y1766D01*
Y1832D01*
X26384Y1866D01*
X26317D01*
Y1799D01*
X26417Y1932D02*
X26217D01*
X26417Y2066D01*
X26217D01*
Y2132D02*
X26417D01*
Y2232D01*
X26384Y2265D01*
X26251D01*
X26217Y2232D01*
Y2132D01*
X27126Y2441D02*
Y2508D01*
Y2474D01*
X26926D01*
X26959Y2441D01*
Y2608D02*
X26926Y2641D01*
Y2708D01*
X26959Y2741D01*
X27093D01*
X27126Y2708D01*
Y2641D01*
X27093Y2608D01*
X26959D01*
X27126Y2907D02*
X26926D01*
X27026Y2807D01*
Y2941D01*
X26890Y1732D02*
Y1799D01*
Y1766D01*
X26690D01*
X26723Y1732D01*
Y1899D02*
X26690Y1932D01*
Y1999D01*
X26723Y2032D01*
X26856D01*
X26890Y1999D01*
Y1932D01*
X26856Y1899D01*
X26723D01*
X26890Y2232D02*
Y2099D01*
X26756Y2232D01*
X26723D01*
X26690Y2199D01*
Y2132D01*
X26723Y2099D01*
X27432Y2574D02*
X27398Y2541D01*
Y2474D01*
X27432Y2441D01*
X27565D01*
X27598Y2474D01*
Y2541D01*
X27565Y2574D01*
X27498D01*
Y2508D01*
X27598Y2641D02*
X27398D01*
X27598Y2774D01*
X27398D01*
Y2841D02*
X27598D01*
Y2941D01*
X27565Y2974D01*
X27432D01*
X27398Y2941D01*
Y2841D01*
X27362Y1732D02*
Y1799D01*
Y1766D01*
X27162D01*
X27196Y1732D01*
Y1899D02*
X27162Y1932D01*
Y1999D01*
X27196Y2032D01*
X27329D01*
X27362Y1999D01*
Y1932D01*
X27329Y1899D01*
X27196D01*
X27162Y2232D02*
X27196Y2165D01*
X27262Y2099D01*
X27329D01*
X27362Y2132D01*
Y2199D01*
X27329Y2232D01*
X27296D01*
X27262Y2199D01*
Y2099D01*
D78*
X24542Y8676D02*
G03*
X24542Y8676I-20J0D01*
G01*
X21555Y7913D02*
G03*
X21555Y7913I-20J0D01*
G01*
D79*
X19419Y4173D02*
G03*
X19419Y4173I-49J0D01*
G01*
X20482Y9419D02*
G03*
X20482Y9419I-49J0D01*
G01*
X19439Y6794D02*
G03*
X19439Y6794I-49J0D01*
G01*
X4321Y11004D02*
G03*
X4321Y11004I-49J0D01*
G01*
X2592Y2278D02*
G03*
X2592Y2278I-49J0D01*
G01*
X22254Y3976D02*
G03*
X22254Y3976I-49J0D01*
G01*
X9439Y10650D02*
G03*
X9439Y10650I-49J0D01*
G01*
X1348Y9646D02*
G03*
X1348Y9646I-49J0D01*
G01*
D80*
X30946Y10093D02*
G03*
X30946Y10093I-118J0D01*
G01*
D81*
X19567Y9508D02*
X20266D01*
X19567Y10728D02*
X20276D01*
X20639Y6944D02*
Y7544D01*
X20239D02*
X20639D01*
X19439D02*
X19839D01*
X19439Y6944D02*
Y7544D01*
X19889Y6944D02*
X20189D01*
X21535Y8071D02*
X21799D01*
X23791D02*
X24055D01*
X21535Y11378D02*
X21799D01*
X23791D02*
X24055D01*
X21535Y8071D02*
Y8368D01*
Y11081D02*
Y11378D01*
X24055Y8071D02*
Y8368D01*
Y11081D02*
Y11378D01*
X1634Y2087D02*
Y2244D01*
X1358Y2087D02*
Y2244D01*
X4528Y10688D02*
X4902Y11063D01*
X4528Y5551D02*
Y11063D01*
X7677Y5551D02*
Y11063D01*
X4528D02*
X7677D01*
X4528Y5551D02*
X7677D01*
X27677Y10236D02*
X27913D01*
X31028Y4493D02*
Y9693D01*
X25428Y4493D02*
Y9693D01*
X30628D02*
X31028D01*
X25428D02*
X25828D01*
X30628Y4493D02*
X31028D01*
X25428D02*
X25828D01*
X2484Y4000D02*
Y4266D01*
X2750D01*
X4216Y4000D02*
Y4266D01*
X3950D02*
X4216D01*
Y2534D02*
Y2800D01*
X3950Y2534D02*
X4216D01*
X2484D02*
Y2800D01*
Y2534D02*
X2750D01*
X23839Y4232D02*
Y4478D01*
X23593Y4232D02*
X23839D01*
Y5679D02*
Y5925D01*
X23593D02*
X23839D01*
X22146D02*
X22392D01*
X22146Y5679D02*
Y5925D01*
Y4232D02*
Y4478D01*
Y4232D02*
X22392D01*
X9646Y10348D02*
X10006Y10709D01*
X9646Y4016D02*
Y10709D01*
X16339Y4016D02*
Y10709D01*
X9646D02*
X16339D01*
X9646Y4016D02*
X16339D01*
X22500Y7638D02*
X22618D01*
X22500Y6693D02*
X22618D01*
X2087Y10492D02*
Y10610D01*
X1142Y10492D02*
Y10610D01*
X20394Y4744D02*
Y4862D01*
X21339Y4744D02*
Y4862D01*
X3031Y9528D02*
Y9606D01*
X3740Y9528D02*
Y9606D01*
X17835Y5000D02*
Y5079D01*
X17126Y5000D02*
Y5079D01*
X19449Y11063D02*
Y11299D01*
X17559Y11063D02*
Y11299D01*
X6535Y5039D02*
X6772D01*
X7008D02*
X7244D01*
X29843Y10236D02*
X30079D01*
X28858D02*
X29094D01*
X30827D02*
X31063D01*
X8602Y10039D02*
X8720D01*
X8602Y10984D02*
X8720D01*
X17008Y6713D02*
Y6831D01*
X17953Y6713D02*
Y6831D01*
X19213Y6083D02*
Y6201D01*
X18268Y6083D02*
Y6201D01*
X17933Y8622D02*
X18051D01*
X17933Y7677D02*
X18051D01*
X26693Y10236D02*
X26929D01*
D82*
X2642Y8263D02*
X2762D01*
X2622Y8253D02*
X2782D01*
X2602Y8243D02*
X2802D01*
X2592Y8233D02*
X2692D01*
X2712D02*
X2812D01*
X2582Y8223D02*
X2642D01*
X2762D02*
X2822D01*
X2572Y8213D02*
X2622D01*
X2782D02*
X2832D01*
X2562Y8203D02*
X2612D01*
X2792D02*
X2842D01*
X2552Y8193D02*
X2602D01*
X2802D02*
X2852D01*
X2552Y8183D02*
X2592D01*
X2812D02*
X2852D01*
X2542Y8173D02*
X2582D01*
X2822D02*
X2862D01*
X2542Y8163D02*
X2582D01*
X2822D02*
X2862D01*
X2532Y8153D02*
X2572D01*
X2832D02*
X2872D01*
X2532Y8143D02*
X2582D01*
X2822D02*
X2872D01*
X2502Y8133D02*
X2612D01*
X2792D02*
X2902D01*
X2472Y8123D02*
X2632D01*
X2772D02*
X2932D01*
X2462Y8113D02*
X2652D01*
X2752D02*
X2942D01*
X2442Y8103D02*
X2522D01*
X2592D02*
X2662D01*
X2742D02*
X2812D01*
X2882D02*
X2962D01*
X2432Y8093D02*
X2492D01*
X2622D02*
X2672D01*
X2732D02*
X2782D01*
X2912D02*
X2972D01*
X2422Y8083D02*
X2472D01*
X2642D02*
X2682D01*
X2722D02*
X2762D01*
X2932D02*
X2982D01*
X2412Y8073D02*
X2462D01*
X2652D02*
X2692D01*
X2712D02*
X2752D01*
X2942D02*
X2992D01*
X2402Y8063D02*
X2452D01*
X2662D02*
X2742D01*
X2952D02*
X3002D01*
X2392Y8053D02*
X2442D01*
X2672D02*
X2732D01*
X2962D02*
X3012D01*
X2392Y8043D02*
X2432D01*
X2672D02*
X2732D01*
X2972D02*
X3012D01*
X2312Y8033D02*
X2442D01*
X2682D02*
X2722D01*
X2962D02*
X3092D01*
X2262Y8023D02*
X2482D01*
X2682D02*
X2722D01*
X2922D02*
X3142D01*
X2232Y8013D02*
X2512D01*
X2692D02*
X2712D01*
X2892D02*
X3172D01*
X2202Y8003D02*
X2532D01*
X2692D02*
X2712D01*
X2872D02*
X3202D01*
X2182Y7993D02*
X2312D01*
X2452D02*
X2542D01*
X2862D02*
X2952D01*
X3092D02*
X3222D01*
X2162Y7983D02*
X2262D01*
X2492D02*
X2562D01*
X2842D02*
X2912D01*
X3142D02*
X3242D01*
X2142Y7973D02*
X2232D01*
X2512D02*
X2572D01*
X2832D02*
X2892D01*
X3172D02*
X3262D01*
X2132Y7963D02*
X2212D01*
X2532D02*
X2582D01*
X2822D02*
X2872D01*
X3192D02*
X3272D01*
X2112Y7953D02*
X2182D01*
X2542D02*
X2592D01*
X2812D02*
X2862D01*
X3222D02*
X3292D01*
X2102Y7943D02*
X2172D01*
X2552D02*
X2602D01*
X2802D02*
X2852D01*
X3232D02*
X3302D01*
X2082Y7933D02*
X2152D01*
X2562D02*
X2612D01*
X2792D02*
X2842D01*
X3252D02*
X3322D01*
X2072Y7923D02*
X2132D01*
X2572D02*
X2612D01*
X2792D02*
X2832D01*
X3272D02*
X3332D01*
X2062Y7913D02*
X2122D01*
X2582D02*
X2622D01*
X2782D02*
X2822D01*
X3282D02*
X3342D01*
X2052Y7903D02*
X2102D01*
X2332D02*
X2402D01*
X2592D02*
X2632D01*
X2772D02*
X2812D01*
X3002D02*
X3072D01*
X3302D02*
X3352D01*
X2042Y7893D02*
X2092D01*
X2282D02*
X2432D01*
X2592D02*
X2632D01*
X2772D02*
X2812D01*
X2972D02*
X3122D01*
X3312D02*
X3362D01*
X2022Y7883D02*
X2082D01*
X2252D02*
X2442D01*
X2602D02*
X2642D01*
X2762D02*
X2802D01*
X2962D02*
X3152D01*
X3322D02*
X3382D01*
X2012Y7873D02*
X2072D01*
X2222D02*
X2462D01*
X2612D02*
X2642D01*
X2762D02*
X2792D01*
X2942D02*
X3182D01*
X3332D02*
X3392D01*
X2012Y7863D02*
X2052D01*
X2202D02*
X2322D01*
X2412D02*
X2472D01*
X2612D02*
X2652D01*
X2752D02*
X2792D01*
X2932D02*
X2992D01*
X3082D02*
X3202D01*
X3352D02*
X3392D01*
X2002Y7853D02*
X2042D01*
X2192D02*
X2282D01*
X2432D02*
X2482D01*
X2622D02*
X2652D01*
X2752D02*
X2782D01*
X2922D02*
X2972D01*
X3122D02*
X3212D01*
X3362D02*
X3402D01*
X1992Y7843D02*
X2032D01*
X2172D02*
X2252D01*
X2442D02*
X2482D01*
X2622D02*
X2662D01*
X2742D02*
X2782D01*
X2922D02*
X2962D01*
X3152D02*
X3232D01*
X3372D02*
X3412D01*
X1982Y7833D02*
X2022D01*
X2162D02*
X2232D01*
X2452D02*
X2492D01*
X2622D02*
X2662D01*
X2742D02*
X2782D01*
X2912D02*
X2952D01*
X3172D02*
X3242D01*
X3382D02*
X3422D01*
X1972Y7823D02*
X2022D01*
X2142D02*
X2212D01*
X2372D02*
X2402D01*
X2462D02*
X2502D01*
X2632D02*
X2662D01*
X2742D02*
X2772D01*
X2902D02*
X2942D01*
X3002D02*
X3032D01*
X3192D02*
X3262D01*
X3382D02*
X3432D01*
X1962Y7813D02*
X2012D01*
X2132D02*
X2192D01*
X2362D02*
X2422D01*
X2462D02*
X2502D01*
X2632D02*
X2672D01*
X2732D02*
X2772D01*
X2902D02*
X2942D01*
X2982D02*
X3042D01*
X3212D02*
X3272D01*
X3392D02*
X3442D01*
X1952Y7803D02*
X2002D01*
X2122D02*
X2182D01*
X2352D02*
X2432D01*
X2472D02*
X2512D01*
X2632D02*
X2672D01*
X2732D02*
X2772D01*
X2892D02*
X2932D01*
X2972D02*
X3052D01*
X3222D02*
X3282D01*
X3402D02*
X3452D01*
X1952Y7793D02*
X1992D01*
X2112D02*
X2162D01*
X2342D02*
X2442D01*
X2472D02*
X2512D01*
X2632D02*
X2672D01*
X2732D02*
X2772D01*
X2892D02*
X2932D01*
X2962D02*
X3062D01*
X3242D02*
X3292D01*
X3412D02*
X3452D01*
X1942Y7783D02*
X1982D01*
X2102D02*
X2152D01*
X2342D02*
X2382D01*
X2402D02*
X2452D01*
X2472D02*
X2512D01*
X2642D02*
X2672D01*
X2732D02*
X2762D01*
X2892D02*
X2932D01*
X2952D02*
X3002D01*
X3022D02*
X3062D01*
X3252D02*
X3302D01*
X3422D02*
X3462D01*
X1932Y7773D02*
X1972D01*
X2092D02*
X2142D01*
X2332D02*
X2372D01*
X2412D02*
X2452D01*
X2482D02*
X2512D01*
X2642D02*
X2672D01*
X2732D02*
X2762D01*
X2892D02*
X2922D01*
X2952D02*
X2992D01*
X3032D02*
X3072D01*
X3262D02*
X3312D01*
X3432D02*
X3472D01*
X1932Y7763D02*
X1972D01*
X2082D02*
X2132D01*
X2332D02*
X2362D01*
X2412D02*
X2452D01*
X2482D02*
X2522D01*
X2642D02*
X2682D01*
X2722D02*
X2762D01*
X2882D02*
X2922D01*
X2952D02*
X2992D01*
X3042D02*
X3072D01*
X3272D02*
X3322D01*
X3432D02*
X3472D01*
X1922Y7753D02*
X1962D01*
X2072D02*
X2122D01*
X2332D02*
X2362D01*
X2422D02*
X2452D01*
X2482D02*
X2522D01*
X2642D02*
X2682D01*
X2722D02*
X2762D01*
X2882D02*
X2922D01*
X2952D02*
X2982D01*
X3042D02*
X3072D01*
X3282D02*
X3332D01*
X3442D02*
X3482D01*
X1912Y7743D02*
X1952D01*
X2062D02*
X2112D01*
X2322D02*
X2362D01*
X2382D02*
X2392D01*
X2422D02*
X2462D01*
X2482D02*
X2522D01*
X2642D02*
X2682D01*
X2722D02*
X2762D01*
X2882D02*
X2922D01*
X2942D02*
X2982D01*
X3012D02*
X3022D01*
X3042D02*
X3082D01*
X3292D02*
X3342D01*
X3452D02*
X3492D01*
X1912Y7733D02*
X1952D01*
X2052D02*
X2102D01*
X2322D02*
X2352D01*
X2372D02*
X2402D01*
X2422D02*
X2462D01*
X2482D02*
X2522D01*
X2642D02*
X2682D01*
X2722D02*
X2762D01*
X2882D02*
X2922D01*
X2942D02*
X2982D01*
X3002D02*
X3032D01*
X3052D02*
X3082D01*
X3302D02*
X3352D01*
X3452D02*
X3492D01*
X1902Y7723D02*
X1942D01*
X2052D02*
X2092D01*
X2322D02*
X2352D01*
X2362D02*
X2402D01*
X2422D02*
X2462D01*
X2482D02*
X2522D01*
X2642D02*
X2682D01*
X2722D02*
X2762D01*
X2882D02*
X2922D01*
X2942D02*
X2982D01*
X3002D02*
X3042D01*
X3052D02*
X3082D01*
X3312D02*
X3352D01*
X3462D02*
X3502D01*
X1902Y7713D02*
X1942D01*
X2042D02*
X2082D01*
X2322D02*
X2352D01*
X2362D02*
X2402D01*
X2422D02*
X2462D01*
X2482D02*
X2522D01*
X2642D02*
X2682D01*
X2722D02*
X2762D01*
X2882D02*
X2922D01*
X2942D02*
X2982D01*
X3002D02*
X3042D01*
X3052D02*
X3082D01*
X3322D02*
X3362D01*
X3462D02*
X3502D01*
X1892Y7703D02*
X1932D01*
X2032D02*
X2072D01*
X2322D02*
X2352D01*
X2362D02*
X2392D01*
X2422D02*
X2462D01*
X2482D02*
X2522D01*
X2642D02*
X2682D01*
X2722D02*
X2762D01*
X2882D02*
X2922D01*
X2942D02*
X2982D01*
X3012D02*
X3042D01*
X3052D02*
X3082D01*
X3332D02*
X3372D01*
X3472D02*
X3512D01*
X1882Y7693D02*
X1922D01*
X2022D02*
X2082D01*
X2322D02*
X2352D01*
X2362D02*
X2392D01*
X2422D02*
X2452D01*
X2482D02*
X2522D01*
X2632D02*
X2672D01*
X2732D02*
X2772D01*
X2882D02*
X2922D01*
X2952D02*
X2982D01*
X3012D02*
X3042D01*
X3052D02*
X3082D01*
X3322D02*
X3382D01*
X3482D02*
X3522D01*
X1882Y7683D02*
X1922D01*
X2022D02*
X2082D01*
X2322D02*
X2352D01*
X2362D02*
X2392D01*
X2422D02*
X2452D01*
X2482D02*
X2522D01*
X2632D02*
X2672D01*
X2732D02*
X2772D01*
X2882D02*
X2922D01*
X2952D02*
X2982D01*
X3012D02*
X3042D01*
X3052D02*
X3082D01*
X3322D02*
X3382D01*
X3482D02*
X3522D01*
X1872Y7673D02*
X1912D01*
X2012D02*
X2052D01*
X2062D02*
X2092D01*
X2322D02*
X2352D01*
X2362D02*
X2392D01*
X2412D02*
X2452D01*
X2482D02*
X2512D01*
X2632D02*
X2672D01*
X2732D02*
X2772D01*
X2892D02*
X2922D01*
X2952D02*
X2992D01*
X3012D02*
X3042D01*
X3052D02*
X3082D01*
X3312D02*
X3342D01*
X3352D02*
X3392D01*
X3492D02*
X3532D01*
X1872Y7663D02*
X1912D01*
X2012D02*
X2052D01*
X2062D02*
X2092D01*
X2322D02*
X2352D01*
X2362D02*
X2452D01*
X2472D02*
X2512D01*
X2622D02*
X2672D01*
X2732D02*
X2782D01*
X2892D02*
X2932D01*
X2952D02*
X3042D01*
X3052D02*
X3082D01*
X3312D02*
X3342D01*
X3352D02*
X3392D01*
X3492D02*
X3532D01*
X1862Y7653D02*
X1902D01*
X2002D02*
X2042D01*
X2072D02*
X2102D01*
X2322D02*
X2352D01*
X2362D02*
X2442D01*
X2472D02*
X2512D01*
X2622D02*
X2662D01*
X2742D02*
X2782D01*
X2892D02*
X2932D01*
X2962D02*
X3042D01*
X3052D02*
X3082D01*
X3302D02*
X3332D01*
X3362D02*
X3402D01*
X3502D02*
X3542D01*
X1862Y7643D02*
X1902D01*
X1992D02*
X2032D01*
X2072D02*
X2102D01*
X2322D02*
X2352D01*
X2372D02*
X2442D01*
X2472D02*
X2502D01*
X2612D02*
X2662D01*
X2742D02*
X2792D01*
X2902D02*
X2932D01*
X2962D02*
X3032D01*
X3052D02*
X3082D01*
X3302D02*
X3332D01*
X3372D02*
X3412D01*
X3502D02*
X3542D01*
X1852Y7633D02*
X1892D01*
X1992D02*
X2032D01*
X2082D02*
X2112D01*
X2322D02*
X2352D01*
X2372D02*
X2432D01*
X2462D02*
X2502D01*
X2602D02*
X2652D01*
X2752D02*
X2802D01*
X2902D02*
X2942D01*
X2972D02*
X3032D01*
X3052D02*
X3082D01*
X3292D02*
X3322D01*
X3372D02*
X3412D01*
X3512D02*
X3552D01*
X1852Y7623D02*
X1892D01*
X1982D02*
X2022D01*
X2092D02*
X2122D01*
X2322D02*
X2362D01*
X2382D02*
X2422D01*
X2452D02*
X2502D01*
X2592D02*
X2652D01*
X2752D02*
X2812D01*
X2902D02*
X2952D01*
X2982D02*
X3022D01*
X3042D02*
X3082D01*
X3282D02*
X3312D01*
X3382D02*
X3422D01*
X3512D02*
X3552D01*
X1852Y7613D02*
X1882D01*
X1982D02*
X2022D01*
X2092D02*
X2132D01*
X2322D02*
X2362D01*
X2392D02*
X2412D01*
X2452D02*
X2492D01*
X2582D02*
X2642D01*
X2762D02*
X2822D01*
X2912D02*
X2952D01*
X2992D02*
X3012D01*
X3042D02*
X3082D01*
X3272D02*
X3312D01*
X3382D02*
X3422D01*
X3522D02*
X3552D01*
X1842Y7603D02*
X1882D01*
X1972D02*
X2012D01*
X2102D02*
X2142D01*
X2332D02*
X2372D01*
X2442D02*
X2482D01*
X2562D02*
X2632D01*
X2772D02*
X2842D01*
X2922D02*
X2962D01*
X3032D02*
X3072D01*
X3262D02*
X3302D01*
X3392D02*
X3432D01*
X3522D02*
X3562D01*
X1842Y7593D02*
X1882D01*
X1972D02*
X2012D01*
X2112D02*
X2142D01*
X2332D02*
X2382D01*
X2432D02*
X2482D01*
X2542D02*
X2622D01*
X2782D02*
X2862D01*
X2922D02*
X2972D01*
X3022D02*
X3072D01*
X3262D02*
X3292D01*
X3392D02*
X3432D01*
X3522D02*
X3562D01*
X1832Y7583D02*
X1872D01*
X1962D02*
X2002D01*
X2122D02*
X2152D01*
X2342D02*
X2472D01*
X2502D02*
X2612D01*
X2792D02*
X2902D01*
X2932D02*
X3062D01*
X3252D02*
X3282D01*
X3402D02*
X3442D01*
X3532D02*
X3572D01*
X1832Y7573D02*
X1872D01*
X1962D02*
X2002D01*
X2132D02*
X2162D01*
X2342D02*
X2592D01*
X2812D02*
X3062D01*
X3242D02*
X3272D01*
X3402D02*
X3442D01*
X3532D02*
X3572D01*
X1832Y7563D02*
X1862D01*
X1952D02*
X1992D01*
X2142D02*
X2172D01*
X2352D02*
X2582D01*
X2822D02*
X3052D01*
X3232D02*
X3262D01*
X3412D02*
X3452D01*
X3542D02*
X3572D01*
X1822Y7553D02*
X1862D01*
X1952D02*
X1992D01*
X2152D02*
X2182D01*
X2362D02*
X2552D01*
X2852D02*
X3042D01*
X3222D02*
X3252D01*
X3412D02*
X3452D01*
X3542D02*
X3582D01*
X1822Y7543D02*
X1862D01*
X1952D02*
X1982D01*
X2162D02*
X2202D01*
X2372D02*
X2512D01*
X2892D02*
X3032D01*
X3202D02*
X3242D01*
X3422D02*
X3452D01*
X3542D02*
X3582D01*
X1812Y7533D02*
X1852D01*
X1942D02*
X1982D01*
X2172D02*
X2212D01*
X3192D02*
X3232D01*
X3422D02*
X3462D01*
X3552D02*
X3592D01*
X1812Y7523D02*
X1852D01*
X1942D02*
X1972D01*
X2182D02*
X2222D01*
X3182D02*
X3222D01*
X3432D02*
X3462D01*
X3552D02*
X3592D01*
X1812Y7513D02*
X1842D01*
X1932D02*
X1972D01*
X2192D02*
X2232D01*
X3172D02*
X3212D01*
X3432D02*
X3472D01*
X3562D02*
X3592D01*
X1802Y7503D02*
X1842D01*
X1932D02*
X1972D01*
X2202D02*
X2252D01*
X3152D02*
X3202D01*
X3432D02*
X3472D01*
X3562D02*
X3602D01*
X1802Y7493D02*
X1842D01*
X1932D02*
X1962D01*
X2222D02*
X2262D01*
X3142D02*
X3182D01*
X3442D02*
X3472D01*
X3562D02*
X3602D01*
X1802Y7483D02*
X1832D01*
X1922D02*
X1962D01*
X2232D02*
X2282D01*
X3122D02*
X3172D01*
X3442D02*
X3482D01*
X3572D02*
X3602D01*
X1792Y7473D02*
X1832D01*
X1922D02*
X1962D01*
X2242D02*
X2292D01*
X2412D02*
X2592D01*
X2812D02*
X2992D01*
X3112D02*
X3162D01*
X3442D02*
X3482D01*
X3572D02*
X3612D01*
X1792Y7463D02*
X1832D01*
X1922D02*
X1952D01*
X2262D02*
X2312D01*
X2372D02*
X2642D01*
X2762D02*
X3032D01*
X3092D02*
X3142D01*
X3452D02*
X3482D01*
X3572D02*
X3612D01*
X1792Y7453D02*
X1832D01*
X1912D02*
X1952D01*
X2272D02*
X2322D01*
X2352D02*
X2682D01*
X2722D02*
X3052D01*
X3082D02*
X3132D01*
X3452D02*
X3492D01*
X3572D02*
X3612D01*
X1792Y7443D02*
X1822D01*
X1912D02*
X1952D01*
X2292D02*
X3112D01*
X3452D02*
X3492D01*
X3582D02*
X3612D01*
X1782Y7433D02*
X1822D01*
X1912D02*
X1942D01*
X2312D02*
X3092D01*
X3462D02*
X3492D01*
X3582D02*
X3622D01*
X1782Y7423D02*
X1822D01*
X1902D02*
X1942D01*
X2292D02*
X3112D01*
X3462D02*
X3502D01*
X3582D02*
X3622D01*
X1782Y7413D02*
X1822D01*
X1902D02*
X1942D01*
X2282D02*
X3122D01*
X3462D02*
X3502D01*
X3582D02*
X3622D01*
X1782Y7403D02*
X1812D01*
X1902D02*
X1932D01*
X2272D02*
X3132D01*
X3472D02*
X3502D01*
X3592D02*
X3622D01*
X1772Y7393D02*
X1812D01*
X1902D02*
X1932D01*
X2262D02*
X3142D01*
X3472D02*
X3502D01*
X3592D02*
X3632D01*
X1772Y7383D02*
X1812D01*
X1892D02*
X1932D01*
X2242D02*
X3152D01*
X3472D02*
X3512D01*
X3592D02*
X3632D01*
X1772Y7373D02*
X1812D01*
X1892D02*
X1932D01*
X2232D02*
X3162D01*
X3472D02*
X3512D01*
X3592D02*
X3632D01*
X1772Y7363D02*
X1802D01*
X1892D02*
X1922D01*
X2222D02*
X3172D01*
X3482D02*
X3512D01*
X3602D02*
X3632D01*
X1762Y7353D02*
X1802D01*
X1892D02*
X1922D01*
X2222D02*
X3182D01*
X3482D02*
X3512D01*
X3602D02*
X3642D01*
X1762Y7343D02*
X1802D01*
X1882D02*
X1922D01*
X2212D02*
X3192D01*
X3482D02*
X3522D01*
X3602D02*
X3642D01*
X1762Y7333D02*
X1802D01*
X1882D02*
X1922D01*
X2202D02*
X3202D01*
X3482D02*
X3522D01*
X3602D02*
X3642D01*
X1762Y7323D02*
X1802D01*
X1882D02*
X1912D01*
X2192D02*
X3212D01*
X3492D02*
X3522D01*
X3602D02*
X3642D01*
X1762Y7313D02*
X1792D01*
X1882D02*
X1912D01*
X2192D02*
X3212D01*
X3492D02*
X3522D01*
X3612D02*
X3642D01*
X1752Y7303D02*
X1792D01*
X1882D02*
X1912D01*
X2182D02*
X3222D01*
X3492D02*
X3522D01*
X3612D02*
X3652D01*
X1752Y7293D02*
X1792D01*
X1872D02*
X1912D01*
X2172D02*
X3232D01*
X3492D02*
X3532D01*
X3612D02*
X3652D01*
X1752Y7283D02*
X1792D01*
X1872D02*
X1912D01*
X2172D02*
X3232D01*
X3492D02*
X3532D01*
X3612D02*
X3652D01*
X1752Y7273D02*
X1792D01*
X1872D02*
X1912D01*
X2162D02*
X3242D01*
X3492D02*
X3532D01*
X3612D02*
X3652D01*
X1752Y7263D02*
X1792D01*
X1872D02*
X1902D01*
X2162D02*
X3242D01*
X3502D02*
X3532D01*
X3612D02*
X3652D01*
X1752Y7253D02*
X1782D01*
X1872D02*
X1902D01*
X2152D02*
X3252D01*
X3502D02*
X3532D01*
X3622D02*
X3652D01*
X1752Y7243D02*
X1782D01*
X1862D02*
X1902D01*
X2142D02*
X3252D01*
X3502D02*
X3542D01*
X3622D02*
X3652D01*
X1742Y7233D02*
X1782D01*
X1862D02*
X1902D01*
X2142D02*
X3262D01*
X3502D02*
X3542D01*
X3622D02*
X3662D01*
X1742Y7223D02*
X1782D01*
X1862D02*
X1902D01*
X2142D02*
X3262D01*
X3502D02*
X3542D01*
X3622D02*
X3662D01*
X1742Y7213D02*
X1782D01*
X1862D02*
X1902D01*
X2132D02*
X2682D01*
X2702D02*
X3272D01*
X3502D02*
X3542D01*
X3622D02*
X3662D01*
X1742Y7203D02*
X1782D01*
X1862D02*
X1892D01*
X2132D02*
X2682D01*
X2712D02*
X3272D01*
X3512D02*
X3542D01*
X3622D02*
X3662D01*
X1742Y7193D02*
X1782D01*
X1862D02*
X1892D01*
X2122D02*
X2672D01*
X2712D02*
X3282D01*
X3512D02*
X3542D01*
X3622D02*
X3662D01*
X1742Y7183D02*
X1782D01*
X1862D02*
X1892D01*
X2122D02*
X2672D01*
X2712D02*
X3282D01*
X3512D02*
X3542D01*
X3622D02*
X3662D01*
X1742Y7173D02*
X1772D01*
X1862D02*
X1892D01*
X2122D02*
X2672D01*
X2712D02*
X3282D01*
X3512D02*
X3542D01*
X3632D02*
X3662D01*
X1742Y7163D02*
X1772D01*
X1852D02*
X1892D01*
X2112D02*
X2672D01*
X2712D02*
X3292D01*
X3512D02*
X3552D01*
X3632D02*
X3662D01*
X1742Y7153D02*
X1772D01*
X1852D02*
X1892D01*
X2112D02*
X2672D01*
X2722D02*
X3292D01*
X3512D02*
X3552D01*
X3632D02*
X3662D01*
X1732Y7143D02*
X1772D01*
X1852D02*
X1892D01*
X2102D02*
X2672D01*
X2722D02*
X3292D01*
X3512D02*
X3552D01*
X3632D02*
X3672D01*
X1732Y7133D02*
X1772D01*
X1852D02*
X1892D01*
X2102D02*
X2672D01*
X2722D02*
X3302D01*
X3512D02*
X3552D01*
X3632D02*
X3672D01*
X1732Y7123D02*
X1772D01*
X1852D02*
X1892D01*
X2102D02*
X2662D01*
X2722D02*
X3302D01*
X3512D02*
X3552D01*
X3632D02*
X3672D01*
X1732Y7113D02*
X1772D01*
X1852D02*
X1892D01*
X2102D02*
X2222D01*
X2432D02*
X2662D01*
X2722D02*
X2992D01*
X3182D02*
X3302D01*
X3512D02*
X3552D01*
X3632D02*
X3672D01*
X1732Y7103D02*
X1772D01*
X1852D02*
X1892D01*
X2092D02*
X2222D01*
X2432D02*
X2662D01*
X2732D02*
X2992D01*
X3182D02*
X3312D01*
X3512D02*
X3552D01*
X3632D02*
X3672D01*
X1732Y7093D02*
X1772D01*
X1852D02*
X1892D01*
X2092D02*
X2222D01*
X2432D02*
X2662D01*
X2732D02*
X2992D01*
X3182D02*
X3312D01*
X3512D02*
X3552D01*
X3632D02*
X3672D01*
X1732Y7083D02*
X1772D01*
X1852D02*
X1912D01*
X2092D02*
X2222D01*
X2432D02*
X2662D01*
X2732D02*
X2992D01*
X3182D02*
X3312D01*
X3492D02*
X3552D01*
X3632D02*
X3672D01*
X1732Y7073D02*
X1772D01*
X1852D02*
X1942D01*
X2092D02*
X2222D01*
X2432D02*
X2662D01*
X2732D02*
X2992D01*
X3182D02*
X3312D01*
X3462D02*
X3552D01*
X3632D02*
X3672D01*
X1732Y7063D02*
X1772D01*
X1852D02*
X1882D01*
X1892D02*
X1962D01*
X2082D02*
X2222D01*
X2412D02*
X2422D01*
X2432D02*
X2652D01*
X2732D02*
X2992D01*
X3182D02*
X3322D01*
X3442D02*
X3512D01*
X3522D02*
X3552D01*
X3632D02*
X3672D01*
X1732Y7053D02*
X1762D01*
X1852D02*
X1882D01*
X1912D02*
X2002D01*
X2082D02*
X2252D01*
X2392D02*
X2652D01*
X2742D02*
X3042D01*
X3152D02*
X3322D01*
X3402D02*
X3492D01*
X3522D02*
X3552D01*
X3642D02*
X3672D01*
X1732Y7043D02*
X1762D01*
X1852D02*
X1882D01*
X1942D02*
X2052D01*
X2082D02*
X2262D01*
X2382D02*
X2652D01*
X2742D02*
X3052D01*
X3142D02*
X3322D01*
X3352D02*
X3462D01*
X3522D02*
X3552D01*
X3642D02*
X3672D01*
X1732Y7033D02*
X1762D01*
X1852D02*
X1882D01*
X1972D02*
X2262D01*
X2382D02*
X2652D01*
X2742D02*
X3052D01*
X3132D02*
X3432D01*
X3522D02*
X3552D01*
X3642D02*
X3672D01*
X1732Y7023D02*
X1762D01*
X1852D02*
X1882D01*
X2012D02*
X2262D01*
X2382D02*
X2652D01*
X2742D02*
X3052D01*
X3132D02*
X3392D01*
X3522D02*
X3552D01*
X3642D02*
X3672D01*
X1732Y7013D02*
X1762D01*
X1842D02*
X1882D01*
X2082D02*
X2272D01*
X2382D02*
X2652D01*
X2742D02*
X3052D01*
X3132D02*
X3322D01*
X3522D02*
X3562D01*
X3642D02*
X3672D01*
X1732Y7003D02*
X1762D01*
X1842D02*
X1882D01*
X2072D02*
X2272D01*
X2382D02*
X2642D01*
X2752D02*
X3052D01*
X3122D02*
X3332D01*
X3522D02*
X3562D01*
X3642D02*
X3672D01*
X1732Y6993D02*
X1762D01*
X1842D02*
X1882D01*
X2072D02*
X2272D01*
X2382D02*
X2642D01*
X2752D02*
X3052D01*
X3122D02*
X3332D01*
X3522D02*
X3562D01*
X3642D02*
X3672D01*
X1732Y6983D02*
X1762D01*
X1842D02*
X1882D01*
X2072D02*
X2272D01*
X2392D02*
X2642D01*
X2752D02*
X3042D01*
X3122D02*
X3332D01*
X3522D02*
X3562D01*
X3642D02*
X3672D01*
X1732Y6973D02*
X1762D01*
X1842D02*
X1882D01*
X2072D02*
X2272D01*
X2392D02*
X2642D01*
X2752D02*
X3042D01*
X3122D02*
X3332D01*
X3522D02*
X3562D01*
X3642D02*
X3672D01*
X1732Y6963D02*
X1762D01*
X1842D02*
X1882D01*
X2072D02*
X2282D01*
X2392D02*
X2642D01*
X2762D02*
X3042D01*
X3122D02*
X3332D01*
X3522D02*
X3562D01*
X3642D02*
X3672D01*
X1732Y6953D02*
X1762D01*
X1842D02*
X1882D01*
X2072D02*
X2282D01*
X2392D02*
X2642D01*
X2762D02*
X3042D01*
X3112D02*
X3332D01*
X3522D02*
X3562D01*
X3642D02*
X3672D01*
X1732Y6943D02*
X1762D01*
X1842D02*
X1882D01*
X2072D02*
X2282D01*
X2402D02*
X2642D01*
X2762D02*
X3032D01*
X3112D02*
X3332D01*
X3522D02*
X3562D01*
X3642D02*
X3672D01*
X1732Y6933D02*
X1762D01*
X1842D02*
X1882D01*
X2072D02*
X2282D01*
X2402D02*
X2632D01*
X2762D02*
X3032D01*
X3112D02*
X3332D01*
X3522D02*
X3562D01*
X3642D02*
X3672D01*
X1732Y6923D02*
X1762D01*
X1842D02*
X1882D01*
X2072D02*
X2292D01*
X2402D02*
X2632D01*
X2762D02*
X3032D01*
X3112D02*
X3332D01*
X3522D02*
X3562D01*
X3642D02*
X3672D01*
X1732Y6913D02*
X1762D01*
X1842D02*
X1882D01*
X2072D02*
X2292D01*
X2402D02*
X2632D01*
X2772D02*
X3032D01*
X3102D02*
X3332D01*
X3522D02*
X3562D01*
X3642D02*
X3672D01*
X1732Y6903D02*
X1762D01*
X1842D02*
X1882D01*
X2072D02*
X2292D01*
X2412D02*
X2632D01*
X2772D02*
X3022D01*
X3102D02*
X3332D01*
X3522D02*
X3562D01*
X3642D02*
X3672D01*
X1732Y6893D02*
X1762D01*
X1842D02*
X1882D01*
X2062D02*
X2292D01*
X2412D02*
X2632D01*
X2772D02*
X3022D01*
X3102D02*
X3342D01*
X3522D02*
X3562D01*
X3642D02*
X3672D01*
X1732Y6883D02*
X1762D01*
X1852D02*
X1882D01*
X2062D02*
X2302D01*
X2412D02*
X2632D01*
X2772D02*
X3022D01*
X3102D02*
X3342D01*
X3522D02*
X3552D01*
X3642D02*
X3672D01*
X1732Y6873D02*
X1762D01*
X1852D02*
X1882D01*
X2062D02*
X2302D01*
X2412D02*
X2622D01*
X2772D02*
X3022D01*
X3102D02*
X3342D01*
X3522D02*
X3552D01*
X3642D02*
X3672D01*
X1732Y6863D02*
X1762D01*
X1852D02*
X1882D01*
X2062D02*
X2302D01*
X2422D02*
X2622D01*
X2782D02*
X3022D01*
X3092D02*
X3342D01*
X3522D02*
X3552D01*
X3642D02*
X3672D01*
X1732Y6853D02*
X1762D01*
X1852D02*
X1882D01*
X2062D02*
X2302D01*
X2422D02*
X2622D01*
X2782D02*
X3012D01*
X3092D02*
X3342D01*
X3522D02*
X3552D01*
X3642D02*
X3672D01*
X1732Y6843D02*
X1762D01*
X1852D02*
X1882D01*
X2062D02*
X2302D01*
X2422D02*
X2622D01*
X2782D02*
X3012D01*
X3092D02*
X3342D01*
X3522D02*
X3552D01*
X3642D02*
X3672D01*
X1732Y6833D02*
X1762D01*
X1852D02*
X1892D01*
X2062D02*
X2312D01*
X2422D02*
X2622D01*
X2782D02*
X3012D01*
X3092D02*
X3342D01*
X3512D02*
X3552D01*
X3642D02*
X3672D01*
X1732Y6823D02*
X1772D01*
X1852D02*
X1892D01*
X2062D02*
X2312D01*
X2422D02*
X2622D01*
X2782D02*
X3012D01*
X3082D02*
X3342D01*
X3512D02*
X3552D01*
X3632D02*
X3672D01*
X1732Y6813D02*
X1772D01*
X1852D02*
X1892D01*
X2062D02*
X2312D01*
X2432D02*
X2622D01*
X2792D02*
X3002D01*
X3082D02*
X3342D01*
X3512D02*
X3552D01*
X3632D02*
X3672D01*
X1732Y6803D02*
X1772D01*
X1852D02*
X1892D01*
X2062D02*
X2312D01*
X2432D02*
X2612D01*
X2792D02*
X3002D01*
X3082D02*
X3342D01*
X3512D02*
X3552D01*
X3632D02*
X3672D01*
X1732Y6793D02*
X1772D01*
X1852D02*
X1892D01*
X2062D02*
X2322D01*
X2432D02*
X2612D01*
X2792D02*
X3002D01*
X3082D02*
X3342D01*
X3512D02*
X3552D01*
X3632D02*
X3672D01*
X1732Y6783D02*
X1772D01*
X1852D02*
X1892D01*
X2062D02*
X2322D01*
X2432D02*
X2612D01*
X2792D02*
X3002D01*
X3082D02*
X3342D01*
X3512D02*
X3552D01*
X3632D02*
X3672D01*
X1732Y6773D02*
X1772D01*
X1852D02*
X1892D01*
X2072D02*
X2322D01*
X2442D02*
X2612D01*
X2792D02*
X2992D01*
X3072D02*
X3332D01*
X3512D02*
X3552D01*
X3632D02*
X3672D01*
X1732Y6763D02*
X1772D01*
X1852D02*
X1892D01*
X2072D02*
X2322D01*
X2442D02*
X2612D01*
X2802D02*
X2992D01*
X3072D02*
X3332D01*
X3512D02*
X3552D01*
X3632D02*
X3672D01*
X1732Y6753D02*
X1772D01*
X1852D02*
X1892D01*
X2072D02*
X2332D01*
X2442D02*
X2612D01*
X2802D02*
X2992D01*
X3072D02*
X3332D01*
X3512D02*
X3552D01*
X3632D02*
X3672D01*
X1732Y6743D02*
X1772D01*
X1852D02*
X1892D01*
X2072D02*
X2332D01*
X2442D02*
X2602D01*
X2802D02*
X2992D01*
X3072D02*
X3332D01*
X3512D02*
X3552D01*
X3632D02*
X3672D01*
X1742Y6733D02*
X1772D01*
X1862D02*
X1892D01*
X2072D02*
X2332D01*
X2452D02*
X2602D01*
X2802D02*
X2992D01*
X3072D02*
X3332D01*
X3512D02*
X3542D01*
X3632D02*
X3662D01*
X1742Y6723D02*
X1772D01*
X1862D02*
X1892D01*
X2072D02*
X2332D01*
X2452D02*
X2602D01*
X2812D02*
X2982D01*
X3062D02*
X3332D01*
X3512D02*
X3542D01*
X3632D02*
X3662D01*
X1742Y6713D02*
X1772D01*
X1862D02*
X1902D01*
X2072D02*
X2342D01*
X2452D02*
X2602D01*
X2812D02*
X2982D01*
X3062D02*
X3332D01*
X3502D02*
X3542D01*
X3632D02*
X3662D01*
X1742Y6703D02*
X1772D01*
X1862D02*
X1902D01*
X2072D02*
X2342D01*
X2452D02*
X2602D01*
X2812D02*
X2982D01*
X3062D02*
X3332D01*
X3502D02*
X3542D01*
X3632D02*
X3662D01*
X1742Y6693D02*
X1782D01*
X1862D02*
X1902D01*
X2072D02*
X2342D01*
X2452D02*
X2602D01*
X2682D02*
X2692D01*
X2812D02*
X2982D01*
X3062D02*
X3332D01*
X3502D02*
X3542D01*
X3622D02*
X3662D01*
X1742Y6683D02*
X1782D01*
X1862D02*
X1902D01*
X2072D02*
X2342D01*
X2462D02*
X2602D01*
X2682D02*
X2702D01*
X2812D02*
X2972D01*
X3052D02*
X3332D01*
X3502D02*
X3542D01*
X3622D02*
X3662D01*
X1742Y6673D02*
X1782D01*
X1862D02*
X1902D01*
X2072D02*
X2342D01*
X2462D02*
X2592D01*
X2682D02*
X2702D01*
X2822D02*
X2972D01*
X3052D02*
X3332D01*
X3502D02*
X3542D01*
X3622D02*
X3662D01*
X1742Y6663D02*
X1782D01*
X1862D02*
X1902D01*
X2072D02*
X2352D01*
X2462D02*
X2592D01*
X2682D02*
X2702D01*
X2822D02*
X2972D01*
X3052D02*
X3332D01*
X3502D02*
X3542D01*
X3622D02*
X3662D01*
X1742Y6653D02*
X1782D01*
X1862D02*
X1902D01*
X2082D02*
X2352D01*
X2462D02*
X2592D01*
X2682D02*
X2702D01*
X2822D02*
X2972D01*
X3052D02*
X3332D01*
X3502D02*
X3542D01*
X3622D02*
X3662D01*
X1742Y6643D02*
X1782D01*
X1872D02*
X1902D01*
X2082D02*
X2352D01*
X2472D02*
X2592D01*
X2682D02*
X2702D01*
X2822D02*
X2962D01*
X3052D02*
X3322D01*
X3502D02*
X3532D01*
X3622D02*
X3662D01*
X1752Y6633D02*
X1782D01*
X1872D02*
X1912D01*
X2082D02*
X2352D01*
X2472D02*
X2592D01*
X2672D02*
X2712D01*
X2822D02*
X2962D01*
X3042D02*
X3322D01*
X3492D02*
X3532D01*
X3622D02*
X3652D01*
X1752Y6623D02*
X1782D01*
X1872D02*
X1912D01*
X2082D02*
X2362D01*
X2472D02*
X2592D01*
X2672D02*
X2712D01*
X2832D02*
X2962D01*
X3042D02*
X3322D01*
X3492D02*
X3532D01*
X3622D02*
X3652D01*
X1752Y6613D02*
X1782D01*
X1872D02*
X1912D01*
X2082D02*
X2362D01*
X2472D02*
X2582D01*
X2672D02*
X2712D01*
X2832D02*
X2962D01*
X3042D02*
X3322D01*
X3492D02*
X3532D01*
X3622D02*
X3652D01*
X1752Y6603D02*
X1792D01*
X1872D02*
X1912D01*
X2082D02*
X2362D01*
X2482D02*
X2582D01*
X2672D02*
X2712D01*
X2832D02*
X2962D01*
X3042D02*
X3322D01*
X3492D02*
X3532D01*
X3612D02*
X3652D01*
X1752Y6593D02*
X1792D01*
X1872D02*
X1912D01*
X2082D02*
X2362D01*
X2482D02*
X2582D01*
X2672D02*
X2712D01*
X2832D02*
X2952D01*
X3032D02*
X3322D01*
X3492D02*
X3532D01*
X3612D02*
X3652D01*
X1752Y6583D02*
X1792D01*
X1872D02*
X1912D01*
X2092D02*
X2372D01*
X2482D02*
X2582D01*
X2672D02*
X2712D01*
X2832D02*
X2952D01*
X3032D02*
X3312D01*
X3492D02*
X3532D01*
X3612D02*
X3652D01*
X1752Y6573D02*
X1792D01*
X1882D02*
X1922D01*
X2092D02*
X2372D01*
X2482D02*
X2582D01*
X2662D02*
X2722D01*
X2842D02*
X2952D01*
X3032D02*
X3312D01*
X3482D02*
X3522D01*
X3612D02*
X3652D01*
X1762Y6563D02*
X1792D01*
X1882D02*
X1922D01*
X2092D02*
X2372D01*
X2492D02*
X2582D01*
X2662D02*
X2722D01*
X2842D02*
X2952D01*
X3032D02*
X3312D01*
X3482D02*
X3522D01*
X3612D02*
X3642D01*
X1762Y6553D02*
X1792D01*
X1882D02*
X1922D01*
X2092D02*
X2372D01*
X2492D02*
X2572D01*
X2662D02*
X2722D01*
X2842D02*
X2942D01*
X3032D02*
X3312D01*
X3482D02*
X3522D01*
X3612D02*
X3642D01*
X1762Y6543D02*
X1802D01*
X1882D02*
X1922D01*
X2092D02*
X2372D01*
X2492D02*
X2572D01*
X2662D02*
X2722D01*
X2842D02*
X2942D01*
X3022D02*
X3312D01*
X3482D02*
X3522D01*
X3602D02*
X3642D01*
X1762Y6533D02*
X1802D01*
X1882D02*
X1922D01*
X2092D02*
X2382D01*
X2492D02*
X2572D01*
X2662D02*
X2722D01*
X2852D02*
X2942D01*
X3022D02*
X3312D01*
X3482D02*
X3522D01*
X3602D02*
X3642D01*
X1762Y6523D02*
X1802D01*
X1892D02*
X1922D01*
X2102D02*
X2382D01*
X2492D02*
X2572D01*
X2662D02*
X2732D01*
X2852D02*
X2942D01*
X3022D02*
X3302D01*
X3482D02*
X3512D01*
X3602D02*
X3642D01*
X1762Y6513D02*
X1802D01*
X1892D02*
X1932D01*
X2102D02*
X2382D01*
X2502D02*
X2572D01*
X2662D02*
X2732D01*
X2852D02*
X2932D01*
X3022D02*
X3302D01*
X3472D02*
X3512D01*
X3602D02*
X3642D01*
X1772Y6503D02*
X1802D01*
X1892D02*
X1932D01*
X2102D02*
X2382D01*
X2502D02*
X2572D01*
X2652D02*
X2732D01*
X2852D02*
X2932D01*
X3012D02*
X3302D01*
X3472D02*
X3512D01*
X3602D02*
X3632D01*
X1772Y6493D02*
X1802D01*
X1892D02*
X1932D01*
X2102D02*
X2392D01*
X2502D02*
X2572D01*
X2652D02*
X2732D01*
X2852D02*
X2932D01*
X3012D02*
X3302D01*
X3472D02*
X3512D01*
X3602D02*
X3632D01*
X1772Y6483D02*
X1812D01*
X1892D02*
X1932D01*
X2112D02*
X2392D01*
X2502D02*
X2562D01*
X2652D02*
X2732D01*
X2862D02*
X2932D01*
X3012D02*
X3292D01*
X3472D02*
X3512D01*
X3592D02*
X3632D01*
X1772Y6473D02*
X1812D01*
X1902D02*
X1932D01*
X2112D02*
X2392D01*
X2512D02*
X2562D01*
X2652D02*
X2742D01*
X2862D02*
X2932D01*
X3012D02*
X3292D01*
X3472D02*
X3502D01*
X3592D02*
X3632D01*
X1772Y6463D02*
X1812D01*
X1902D02*
X1942D01*
X2112D02*
X2392D01*
X2512D02*
X2562D01*
X2652D02*
X2742D01*
X2862D02*
X2922D01*
X3012D02*
X3292D01*
X3462D02*
X3502D01*
X3592D02*
X3632D01*
X1782Y6453D02*
X1812D01*
X1902D02*
X1942D01*
X2112D02*
X2402D01*
X2512D02*
X2562D01*
X2652D02*
X2742D01*
X2862D02*
X2922D01*
X3002D02*
X3292D01*
X3462D02*
X3502D01*
X3592D02*
X3622D01*
X1782Y6443D02*
X1812D01*
X1902D02*
X1942D01*
X2122D02*
X2402D01*
X2512D02*
X2562D01*
X2642D02*
X2742D01*
X2862D02*
X2922D01*
X3002D02*
X3282D01*
X3462D02*
X3502D01*
X3592D02*
X3622D01*
X1782Y6433D02*
X1822D01*
X1902D02*
X1942D01*
X2122D02*
X2402D01*
X2522D02*
X2562D01*
X2642D02*
X2742D01*
X2872D02*
X2922D01*
X3002D02*
X3282D01*
X3462D02*
X3502D01*
X3582D02*
X3622D01*
X1782Y6423D02*
X1822D01*
X1912D02*
X1952D01*
X2122D02*
X2402D01*
X2522D02*
X2552D01*
X2642D02*
X2752D01*
X2872D02*
X2912D01*
X3002D02*
X3282D01*
X3452D02*
X3492D01*
X3582D02*
X3622D01*
X1782Y6413D02*
X1822D01*
X1912D02*
X1952D01*
X2122D02*
X2412D01*
X2522D02*
X2552D01*
X2642D02*
X2752D01*
X2872D02*
X2912D01*
X2992D02*
X3282D01*
X3452D02*
X3492D01*
X3582D02*
X3622D01*
X1792Y6403D02*
X1822D01*
X1912D02*
X1952D01*
X2132D02*
X2412D01*
X2522D02*
X2552D01*
X2642D02*
X2752D01*
X2872D02*
X2912D01*
X2992D02*
X3272D01*
X3452D02*
X3492D01*
X3582D02*
X3612D01*
X1792Y6393D02*
X1832D01*
X1912D02*
X1952D01*
X2132D02*
X2412D01*
X2522D02*
X2552D01*
X2642D02*
X2752D01*
X2872D02*
X2912D01*
X2992D02*
X3272D01*
X3452D02*
X3492D01*
X3572D02*
X3612D01*
X1792Y6383D02*
X1832D01*
X1922D02*
X1952D01*
X2132D02*
X2412D01*
X2532D02*
X2552D01*
X2642D02*
X2752D01*
X2882D02*
X2902D01*
X2992D02*
X3272D01*
X3452D02*
X3482D01*
X3572D02*
X3612D01*
X1792Y6373D02*
X1832D01*
X1922D02*
X1962D01*
X2142D02*
X2412D01*
X2532D02*
X2552D01*
X2632D02*
X2762D01*
X2882D02*
X2902D01*
X2992D02*
X3262D01*
X3442D02*
X3482D01*
X3572D02*
X3612D01*
X1802Y6363D02*
X1832D01*
X1922D02*
X1962D01*
X2142D02*
X2422D01*
X2532D02*
X2552D01*
X2632D02*
X2762D01*
X2882D02*
X2902D01*
X2982D02*
X3262D01*
X3442D02*
X3482D01*
X3572D02*
X3602D01*
X1802Y6353D02*
X1832D01*
X1922D02*
X1962D01*
X2142D02*
X2422D01*
X2532D02*
X2552D01*
X2632D02*
X2762D01*
X2882D02*
X2902D01*
X2982D02*
X3262D01*
X3442D02*
X3482D01*
X3572D02*
X3602D01*
X1802Y6343D02*
X1842D01*
X1932D02*
X1972D01*
X2152D02*
X2422D01*
X2632D02*
X2762D01*
X2882D02*
X2902D01*
X2982D02*
X3252D01*
X3432D02*
X3472D01*
X3562D02*
X3602D01*
X1802Y6333D02*
X1842D01*
X1932D02*
X1972D01*
X2152D02*
X2422D01*
X2632D02*
X2762D01*
X2982D02*
X3252D01*
X3432D02*
X3472D01*
X3562D02*
X3602D01*
X1812Y6323D02*
X1842D01*
X1932D02*
X1972D01*
X2152D02*
X2432D01*
X2632D02*
X2772D01*
X2972D02*
X3252D01*
X3432D02*
X3472D01*
X3562D02*
X3592D01*
X1812Y6313D02*
X1852D01*
X1942D02*
X1972D01*
X2162D02*
X2432D01*
X2622D02*
X2772D01*
X2972D02*
X3242D01*
X3432D02*
X3462D01*
X3562D02*
X3592D01*
X1812Y6303D02*
X1852D01*
X1942D02*
X1982D01*
X2162D02*
X2432D01*
X2622D02*
X2772D01*
X2972D02*
X3242D01*
X3422D02*
X3462D01*
X3552D02*
X3592D01*
X1812Y6293D02*
X1852D01*
X1942D02*
X1982D01*
X2162D02*
X2432D01*
X2622D02*
X2772D01*
X2972D02*
X3242D01*
X3422D02*
X3462D01*
X3552D02*
X3592D01*
X1822Y6283D02*
X1852D01*
X1942D02*
X1982D01*
X2172D02*
X2442D01*
X2622D02*
X2772D01*
X2972D02*
X3232D01*
X3422D02*
X3462D01*
X3552D02*
X3582D01*
X1822Y6273D02*
X1862D01*
X1952D02*
X1992D01*
X2172D02*
X2442D01*
X2622D02*
X2782D01*
X2962D02*
X3232D01*
X3412D02*
X3452D01*
X3542D02*
X3582D01*
X1822Y6263D02*
X1862D01*
X1952D02*
X1992D01*
X2172D02*
X2442D01*
X2622D02*
X2782D01*
X2962D02*
X3232D01*
X3412D02*
X3452D01*
X3542D02*
X3582D01*
X1822Y6253D02*
X1862D01*
X1952D02*
X1992D01*
X2182D02*
X2442D01*
X2622D02*
X2782D01*
X2962D02*
X3222D01*
X3412D02*
X3452D01*
X3542D02*
X3582D01*
X1832Y6243D02*
X1862D01*
X1962D02*
X2002D01*
X2182D02*
X2442D01*
X2612D02*
X2782D01*
X2962D02*
X3222D01*
X3402D02*
X3442D01*
X3542D02*
X3572D01*
X1832Y6233D02*
X1872D01*
X1962D02*
X2002D01*
X2192D02*
X2452D01*
X2612D02*
X2782D01*
X2952D02*
X3212D01*
X3402D02*
X3442D01*
X3532D02*
X3572D01*
X1832Y6223D02*
X1872D01*
X1962D02*
X2002D01*
X2192D02*
X2452D01*
X2612D02*
X2782D01*
X2952D02*
X3212D01*
X3402D02*
X3442D01*
X3532D02*
X3572D01*
X1842Y6213D02*
X1872D01*
X1972D02*
X2012D01*
X2202D02*
X2452D01*
X2612D02*
X2792D01*
X2952D02*
X3202D01*
X3402D02*
X3432D01*
X3532D02*
X3562D01*
X1842Y6203D02*
X1882D01*
X1972D02*
X2012D01*
X2202D02*
X2452D01*
X2612D02*
X2792D01*
X2952D02*
X3202D01*
X3392D02*
X3432D01*
X3522D02*
X3562D01*
X1842Y6193D02*
X1882D01*
X1972D02*
X2012D01*
X2202D02*
X2462D01*
X2612D02*
X2792D01*
X2952D02*
X3202D01*
X3392D02*
X3432D01*
X3522D02*
X3562D01*
X1852Y6183D02*
X1882D01*
X1982D02*
X2022D01*
X2212D02*
X2462D01*
X2602D02*
X2792D01*
X2942D02*
X3192D01*
X3382D02*
X3422D01*
X3522D02*
X3552D01*
X1852Y6173D02*
X1892D01*
X1982D02*
X2022D01*
X2212D02*
X2462D01*
X2602D02*
X2792D01*
X2942D02*
X3192D01*
X3382D02*
X3422D01*
X3512D02*
X3552D01*
X1852Y6163D02*
X1892D01*
X1982D02*
X2022D01*
X2222D02*
X2462D01*
X2602D02*
X2802D01*
X2942D02*
X3182D01*
X3382D02*
X3422D01*
X3512D02*
X3552D01*
X1862Y6153D02*
X1892D01*
X1992D02*
X2032D01*
X2222D02*
X2472D01*
X2602D02*
X2802D01*
X2942D02*
X3182D01*
X3372D02*
X3412D01*
X3512D02*
X3542D01*
X1862Y6143D02*
X1902D01*
X1992D02*
X2032D01*
X2232D02*
X2472D01*
X2602D02*
X2802D01*
X2932D02*
X3172D01*
X3372D02*
X3412D01*
X3502D02*
X3542D01*
X1862Y6133D02*
X1902D01*
X1992D02*
X2032D01*
X2232D02*
X2472D01*
X2602D02*
X2802D01*
X2932D02*
X3172D01*
X3372D02*
X3412D01*
X3502D02*
X3542D01*
X1872Y6123D02*
X1902D01*
X2002D02*
X2042D01*
X2242D02*
X2472D01*
X2602D02*
X2802D01*
X2932D02*
X3162D01*
X3362D02*
X3402D01*
X3502D02*
X3532D01*
X1872Y6113D02*
X1912D01*
X2002D02*
X2042D01*
X2242D02*
X2482D01*
X2592D02*
X2812D01*
X2932D02*
X3162D01*
X3362D02*
X3402D01*
X3492D02*
X3532D01*
X1872Y6103D02*
X1912D01*
X2012D02*
X2052D01*
X2252D02*
X2482D01*
X2592D02*
X2812D01*
X2932D02*
X3152D01*
X3352D02*
X3392D01*
X3492D02*
X3532D01*
X1882Y6093D02*
X1922D01*
X2012D02*
X2052D01*
X2252D02*
X2482D01*
X2592D02*
X2812D01*
X2922D02*
X3152D01*
X3352D02*
X3392D01*
X3482D02*
X3522D01*
X1882Y6083D02*
X1922D01*
X2012D02*
X2052D01*
X2262D02*
X2482D01*
X2592D02*
X2812D01*
X2922D02*
X3142D01*
X3352D02*
X3392D01*
X3482D02*
X3522D01*
X1892Y6073D02*
X1922D01*
X2022D02*
X2062D01*
X2262D02*
X2482D01*
X2592D02*
X2812D01*
X2922D02*
X3142D01*
X3342D02*
X3382D01*
X3482D02*
X3512D01*
X1892Y6063D02*
X1932D01*
X2022D02*
X2062D01*
X2272D02*
X2492D01*
X2592D02*
X2822D01*
X2922D02*
X3132D01*
X3342D02*
X3382D01*
X3472D02*
X3512D01*
X1892Y6053D02*
X1932D01*
X2032D02*
X2072D01*
X2282D02*
X2492D01*
X2582D02*
X2822D01*
X2912D02*
X3122D01*
X3332D02*
X3372D01*
X3472D02*
X3512D01*
X1902Y6043D02*
X1942D01*
X2032D02*
X2072D01*
X2282D02*
X2492D01*
X2582D02*
X2822D01*
X2912D02*
X3122D01*
X3332D02*
X3372D01*
X3462D02*
X3502D01*
X1902Y6033D02*
X1942D01*
X2042D02*
X2082D01*
X2272D02*
X2492D01*
X2582D02*
X2822D01*
X2912D02*
X3132D01*
X3322D02*
X3362D01*
X3462D02*
X3502D01*
X1912Y6023D02*
X1942D01*
X2042D02*
X2082D01*
X2252D02*
X2502D01*
X2582D02*
X2822D01*
X2912D02*
X3152D01*
X3322D02*
X3362D01*
X3462D02*
X3492D01*
X1912Y6013D02*
X1952D01*
X2042D02*
X2082D01*
X2242D02*
X2292D01*
X2302D02*
X2502D01*
X2582D02*
X2832D01*
X2912D02*
X3102D01*
X3112D02*
X3162D01*
X3322D02*
X3362D01*
X3452D02*
X3492D01*
X1912Y6003D02*
X1952D01*
X2052D02*
X2092D01*
X2222D02*
X2272D01*
X2302D02*
X2502D01*
X2582D02*
X2832D01*
X2902D02*
X3102D01*
X3132D02*
X3182D01*
X3312D02*
X3352D01*
X3452D02*
X3492D01*
X1922Y5993D02*
X1962D01*
X2052D02*
X2092D01*
X2202D02*
X2262D01*
X2312D02*
X2502D01*
X2582D02*
X2832D01*
X2902D02*
X3092D01*
X3142D02*
X3202D01*
X3312D02*
X3352D01*
X3442D02*
X3482D01*
X1922Y5983D02*
X1962D01*
X2062D02*
X2102D01*
X2172D02*
X2242D01*
X2322D02*
X2512D01*
X2572D02*
X2832D01*
X2902D02*
X3082D01*
X3162D02*
X3232D01*
X3302D02*
X3342D01*
X3442D02*
X3482D01*
X1932Y5973D02*
X1972D01*
X2062D02*
X2102D01*
X2142D02*
X2222D01*
X2322D02*
X2512D01*
X2572D02*
X2832D01*
X2902D02*
X3082D01*
X3182D02*
X3262D01*
X3302D02*
X3342D01*
X3432D02*
X3472D01*
X1932Y5963D02*
X1972D01*
X2072D02*
X2202D01*
X2332D02*
X2512D01*
X2572D02*
X2842D01*
X2892D02*
X3072D01*
X3202D02*
X3332D01*
X3432D02*
X3472D01*
X1942Y5953D02*
X1972D01*
X2072D02*
X2172D01*
X2342D02*
X2512D01*
X2572D02*
X2842D01*
X2892D02*
X3062D01*
X3232D02*
X3332D01*
X3432D02*
X3462D01*
X1942Y5943D02*
X1982D01*
X2082D02*
X2132D01*
X2342D02*
X2512D01*
X2572D02*
X2842D01*
X2892D02*
X3062D01*
X3272D02*
X3322D01*
X3422D02*
X3462D01*
X1942Y5933D02*
X1982D01*
X2082D02*
X2122D01*
X2352D02*
X2522D01*
X2572D02*
X2842D01*
X2892D02*
X3052D01*
X3282D02*
X3322D01*
X3422D02*
X3462D01*
X1952Y5923D02*
X1992D01*
X2092D02*
X2132D01*
X2362D02*
X2522D01*
X2572D02*
X2842D01*
X2892D02*
X3042D01*
X3272D02*
X3312D01*
X3412D02*
X3452D01*
X1952Y5913D02*
X1992D01*
X2092D02*
X2132D01*
X2362D02*
X2522D01*
X2562D02*
X2852D01*
X2882D02*
X3042D01*
X3272D02*
X3312D01*
X3412D02*
X3452D01*
X1962Y5903D02*
X2002D01*
X2102D02*
X2142D01*
X2372D02*
X2522D01*
X2562D02*
X2852D01*
X2882D02*
X3032D01*
X3262D02*
X3302D01*
X3402D02*
X3442D01*
X1962Y5893D02*
X2002D01*
X2112D02*
X2152D01*
X2382D02*
X2532D01*
X2562D02*
X2852D01*
X2882D02*
X3022D01*
X3252D02*
X3292D01*
X3402D02*
X3442D01*
X1972Y5883D02*
X2012D01*
X2112D02*
X2152D01*
X2382D02*
X3022D01*
X3252D02*
X3292D01*
X3392D02*
X3432D01*
X1972Y5873D02*
X2012D01*
X2122D02*
X2162D01*
X2392D02*
X3012D01*
X3242D02*
X3282D01*
X3392D02*
X3432D01*
X1982Y5863D02*
X2022D01*
X2122D02*
X2162D01*
X2402D02*
X3002D01*
X3242D02*
X3282D01*
X3382D02*
X3422D01*
X1982Y5853D02*
X2032D01*
X2132D02*
X2172D01*
X2412D02*
X2992D01*
X3232D02*
X3272D01*
X3372D02*
X3422D01*
X1992Y5843D02*
X2032D01*
X2132D02*
X2182D01*
X2412D02*
X2992D01*
X3222D02*
X3272D01*
X3372D02*
X3412D01*
X2002Y5833D02*
X2042D01*
X2142D02*
X2182D01*
X2422D02*
X2982D01*
X3222D02*
X3262D01*
X3362D02*
X3402D01*
X2002Y5823D02*
X2042D01*
X2152D02*
X2192D01*
X2432D02*
X2972D01*
X3212D02*
X3252D01*
X3362D02*
X3402D01*
X2012Y5813D02*
X2052D01*
X2152D02*
X2192D01*
X2442D02*
X2962D01*
X3212D02*
X3252D01*
X3352D02*
X3392D01*
X2012Y5803D02*
X2052D01*
X2162D02*
X2202D01*
X2452D02*
X2952D01*
X3202D02*
X3242D01*
X3352D02*
X3392D01*
X2022Y5793D02*
X2062D01*
X2172D02*
X2212D01*
X2452D02*
X2952D01*
X3192D02*
X3232D01*
X3342D02*
X3382D01*
X2022Y5783D02*
X2072D01*
X2172D02*
X2212D01*
X2462D02*
X2942D01*
X3192D02*
X3232D01*
X3332D02*
X3382D01*
X2032Y5773D02*
X2072D01*
X2182D02*
X2222D01*
X2472D02*
X2932D01*
X3182D02*
X3222D01*
X3332D02*
X3372D01*
X2042Y5763D02*
X2082D01*
X2192D02*
X2232D01*
X2482D02*
X2922D01*
X3172D02*
X3212D01*
X3322D02*
X3362D01*
X2042Y5753D02*
X2092D01*
X2192D02*
X2242D01*
X2492D02*
X2912D01*
X3162D02*
X3212D01*
X3312D02*
X3362D01*
X2052Y5743D02*
X2092D01*
X2202D02*
X2242D01*
X2502D02*
X2902D01*
X3162D02*
X3202D01*
X3312D02*
X3352D01*
X2052Y5733D02*
X2102D01*
X2212D02*
X2252D01*
X2512D02*
X2892D01*
X3152D02*
X3192D01*
X3302D02*
X3352D01*
X2062Y5723D02*
X2102D01*
X2212D02*
X2262D01*
X2522D02*
X2882D01*
X3142D02*
X3192D01*
X3302D02*
X3342D01*
X2072Y5713D02*
X2112D01*
X2222D02*
X2272D01*
X2532D02*
X2872D01*
X3132D02*
X3182D01*
X3292D02*
X3332D01*
X2072Y5703D02*
X2122D01*
X2232D02*
X2272D01*
X2542D02*
X2862D01*
X3132D02*
X3172D01*
X3282D02*
X3332D01*
X2082Y5693D02*
X2132D01*
X2242D02*
X2282D01*
X2562D02*
X2842D01*
X3122D02*
X3162D01*
X3272D02*
X3322D01*
X2092Y5683D02*
X2132D01*
X2252D02*
X2292D01*
X2572D02*
X2832D01*
X3112D02*
X3152D01*
X3272D02*
X3312D01*
X2092Y5673D02*
X2142D01*
X2252D02*
X2302D01*
X2582D02*
X2822D01*
X3102D02*
X3152D01*
X3262D02*
X3312D01*
X2102Y5663D02*
X2152D01*
X2262D02*
X2312D01*
X2582D02*
X2822D01*
X3092D02*
X3142D01*
X3252D02*
X3302D01*
X2112Y5653D02*
X2162D01*
X2272D02*
X2322D01*
X2582D02*
X2822D01*
X3082D02*
X3132D01*
X3242D02*
X3292D01*
X2122Y5643D02*
X2162D01*
X2282D02*
X2332D01*
X2572D02*
X2602D01*
X2632D02*
X2772D01*
X2802D02*
X2832D01*
X3072D02*
X3122D01*
X3242D02*
X3282D01*
X2122Y5633D02*
X2172D01*
X2292D02*
X2342D01*
X2572D02*
X2602D01*
X2642D02*
X2762D01*
X2802D02*
X2832D01*
X3062D02*
X3112D01*
X3232D02*
X3282D01*
X2132Y5623D02*
X2182D01*
X2302D02*
X2352D01*
X2562D02*
X2592D01*
X2662D02*
X2742D01*
X2812D02*
X2842D01*
X3052D02*
X3102D01*
X3222D02*
X3272D01*
X2142Y5613D02*
X2192D01*
X2312D02*
X2362D01*
X2552D02*
X2592D01*
X2682D02*
X2722D01*
X2812D02*
X2852D01*
X3042D02*
X3092D01*
X3212D02*
X3262D01*
X2152Y5603D02*
X2202D01*
X2322D02*
X2372D01*
X2552D02*
X2582D01*
X2822D02*
X2852D01*
X3032D02*
X3082D01*
X3202D02*
X3252D01*
X2162Y5593D02*
X2202D01*
X2332D02*
X2382D01*
X2542D02*
X2572D01*
X2832D02*
X2862D01*
X3022D02*
X3072D01*
X3202D02*
X3242D01*
X2162Y5583D02*
X2212D01*
X2342D02*
X2392D01*
X2532D02*
X2562D01*
X2842D02*
X2872D01*
X3012D02*
X3062D01*
X3192D02*
X3242D01*
X2172Y5573D02*
X2222D01*
X2352D02*
X2402D01*
X2522D02*
X2562D01*
X2842D02*
X2882D01*
X3002D02*
X3052D01*
X3182D02*
X3232D01*
X2182Y5563D02*
X2232D01*
X2362D02*
X2412D01*
X2512D02*
X2552D01*
X2852D02*
X2892D01*
X2992D02*
X3042D01*
X3172D02*
X3222D01*
X2192Y5553D02*
X2242D01*
X2372D02*
X2432D01*
X2502D02*
X2542D01*
X2862D02*
X2902D01*
X2972D02*
X3032D01*
X3162D02*
X3212D01*
X2202Y5543D02*
X2252D01*
X2382D02*
X2442D01*
X2492D02*
X2532D01*
X2872D02*
X2912D01*
X2962D02*
X3022D01*
X3152D02*
X3202D01*
X2212Y5533D02*
X2262D01*
X2402D02*
X2452D01*
X2482D02*
X2522D01*
X2882D02*
X2922D01*
X2952D02*
X3002D01*
X3142D02*
X3192D01*
X2222Y5523D02*
X2272D01*
X2412D02*
X2512D01*
X2892D02*
X2992D01*
X3132D02*
X3182D01*
X2232Y5513D02*
X2282D01*
X2422D02*
X2492D01*
X2912D02*
X2982D01*
X3122D02*
X3172D01*
X2242Y5503D02*
X2292D01*
X2442D02*
X2502D01*
X2662D02*
X2742D01*
X2902D02*
X2962D01*
X3112D02*
X3162D01*
X2252Y5493D02*
X2302D01*
X2452D02*
X2522D01*
X2642D02*
X2762D01*
X2882D02*
X2952D01*
X3102D02*
X3152D01*
X2262Y5483D02*
X2322D01*
X2472D02*
X2532D01*
X2622D02*
X2782D01*
X2872D02*
X2932D01*
X3082D02*
X3142D01*
X2272Y5473D02*
X2332D01*
X2482D02*
X2552D01*
X2612D02*
X2692D01*
X2712D02*
X2792D01*
X2852D02*
X2922D01*
X3072D02*
X3132D01*
X2282Y5463D02*
X2342D01*
X2502D02*
X2582D01*
X2612D02*
X2662D01*
X2742D02*
X2792D01*
X2822D02*
X2902D01*
X3062D02*
X3122D01*
X2292Y5453D02*
X2352D01*
X2522D02*
X2602D01*
X2612D02*
X2642D01*
X2762D02*
X2792D01*
X2802D02*
X2882D01*
X3052D02*
X3112D01*
X2302Y5443D02*
X2372D01*
X2542D02*
X2642D01*
X2762D02*
X2862D01*
X3032D02*
X3102D01*
X2312Y5433D02*
X2382D01*
X2562D02*
X2642D01*
X2762D02*
X2842D01*
X3022D02*
X3092D01*
X2332Y5423D02*
X2392D01*
X2582D02*
X2642D01*
X2762D02*
X2822D01*
X3012D02*
X3072D01*
X2342Y5413D02*
X2412D01*
X2602D02*
X2642D01*
X2762D02*
X2802D01*
X2992D02*
X3062D01*
X2352Y5403D02*
X2432D01*
X2602D02*
X2642D01*
X2762D02*
X2802D01*
X2972D02*
X3052D01*
X2372Y5393D02*
X2442D01*
X2602D02*
X2642D01*
X2762D02*
X2802D01*
X2962D02*
X3032D01*
X2382Y5383D02*
X2462D01*
X2602D02*
X2642D01*
X2762D02*
X2802D01*
X2942D02*
X3022D01*
X2392Y5373D02*
X2482D01*
X2602D02*
X2642D01*
X2762D02*
X2802D01*
X2922D02*
X3012D01*
X2412Y5363D02*
X2502D01*
X2612D02*
X2642D01*
X2762D02*
X2792D01*
X2902D02*
X2992D01*
X2432Y5353D02*
X2522D01*
X2612D02*
X2652D01*
X2752D02*
X2792D01*
X2882D02*
X2972D01*
X2442Y5343D02*
X2542D01*
X2612D02*
X2652D01*
X2752D02*
X2792D01*
X2862D02*
X2962D01*
X2462Y5333D02*
X2572D01*
X2612D02*
X2652D01*
X2752D02*
X2792D01*
X2832D02*
X2942D01*
X2482Y5323D02*
X2602D01*
X2622D02*
X2662D01*
X2742D02*
X2782D01*
X2802D02*
X2922D01*
X2502Y5313D02*
X2662D01*
X2742D02*
X2902D01*
X2522Y5303D02*
X2672D01*
X2732D02*
X2882D01*
X2552Y5293D02*
X2672D01*
X2732D02*
X2852D01*
X2572Y5283D02*
X2682D01*
X2722D02*
X2832D01*
X2602Y5273D02*
X2692D01*
X2712D02*
X2802D01*
X2642Y5263D02*
X2762D01*
X2662Y5253D02*
X2742D01*
X2672Y5243D02*
X2732D01*
X2672Y5233D02*
X2732D01*
X2682Y5223D02*
X2722D01*
D83*
X50Y1609D02*
X32230D01*
X6693Y1693D02*
Y2323D01*
X7165Y1693D02*
Y2323D01*
X7638Y1693D02*
Y2323D01*
X8110Y1693D02*
Y2323D01*
X8583Y1693D02*
Y2323D01*
X9055Y1693D02*
Y2323D01*
X9528Y1693D02*
Y2323D01*
X10000Y1693D02*
Y2323D01*
X10472Y1693D02*
Y2323D01*
X10945Y1693D02*
Y2323D01*
X11417Y1693D02*
Y2323D01*
X11890Y1693D02*
Y2323D01*
X12362Y1693D02*
Y2323D01*
X12835Y1693D02*
Y2323D01*
X13307Y1693D02*
Y2323D01*
X13780Y1693D02*
Y2323D01*
X14252Y1693D02*
Y2323D01*
X15197Y1693D02*
Y2323D01*
X15906Y1693D02*
Y2323D01*
X16378Y1732D02*
Y2362D01*
X17795Y1609D02*
Y2126D01*
X20394Y1609D02*
Y2126D01*
X20866Y1693D02*
Y2323D01*
X21339Y1693D02*
Y2323D01*
X21811Y1693D02*
Y2323D01*
X22283Y1693D02*
Y2323D01*
X22756Y1693D02*
Y2323D01*
X23228Y1693D02*
Y2323D01*
X23701Y1693D02*
Y2323D01*
X24173Y1693D02*
Y2323D01*
X24646Y1693D02*
Y2323D01*
X25118Y1693D02*
Y2323D01*
X26535Y1693D02*
Y2323D01*
X27008Y1693D02*
Y2323D01*
X27480Y1693D02*
Y2323D01*
X18071Y2012D02*
Y1852D01*
X18151Y1772D01*
X18231Y1852D01*
Y2012D01*
X18471Y1972D02*
X18431Y2012D01*
X18351D01*
X18311Y1972D01*
Y1812D01*
X18351Y1772D01*
X18431D01*
X18471Y1812D01*
X18711Y1972D02*
X18671Y2012D01*
X18591D01*
X18551Y1972D01*
Y1812D01*
X18591Y1772D01*
X18671D01*
X18711Y1812D01*
X19031Y1772D02*
Y2012D01*
X19151D01*
X19190Y1972D01*
Y1892D01*
X19151Y1852D01*
X19031D01*
X19390Y2012D02*
X19310D01*
X19270Y1972D01*
Y1812D01*
X19310Y1772D01*
X19390D01*
X19430Y1812D01*
Y1972D01*
X19390Y2012D01*
X19510D02*
Y1772D01*
X19590Y1852D01*
X19670Y1772D01*
Y2012D01*
X19910D02*
X19750D01*
Y1772D01*
X19910D01*
X19750Y1892D02*
X19830D01*
X19990Y1772D02*
Y2012D01*
X20110D01*
X20150Y1972D01*
Y1892D01*
X20110Y1852D01*
X19990D01*
X20070D02*
X20150Y1772D01*
M02*
