G04 Layer_Physical_Order=2*
G04 Layer_Color=32768*
%FSLAX24Y24*%
%MOIN*%
G70*
G01*
G75*
%ADD43C,0.0100*%
%ADD61C,0.0300*%
%ADD62C,0.0220*%
%ADD63C,0.0240*%
%ADD64C,0.0230*%
D43*
X-30400Y9400D02*
Y8800D01*
X-30000D01*
X-29700Y9200D02*
X-29500D01*
X-29400Y9100D01*
Y8800D01*
X-29700D01*
X-29800Y8900D01*
X-29700Y9000D01*
X-29400D01*
X-29200Y9200D02*
Y8900D01*
X-29100Y8800D01*
X-28801D01*
Y8700D01*
X-28900Y8600D01*
X-29000D01*
X-28801Y8800D02*
Y9200D01*
X-28301Y8800D02*
X-28501D01*
X-28601Y8900D01*
Y9100D01*
X-28501Y9200D01*
X-28301D01*
X-28201Y9100D01*
Y9000D01*
X-28601D01*
X-28001Y9200D02*
Y8800D01*
Y9000D01*
X-27901Y9100D01*
X-27801Y9200D01*
X-27701D01*
X-26401Y8800D02*
X-26801D01*
X-26401Y9200D01*
Y9300D01*
X-26501Y9400D01*
X-26701D01*
X-26801Y9300D01*
X-25602Y9100D02*
X-25202D01*
X-24002Y9300D02*
X-24102Y9400D01*
X-24302D01*
X-24402Y9300D01*
Y8900D01*
X-24302Y8800D01*
X-24102D01*
X-24002Y8900D01*
Y9100D01*
X-24202D01*
X-23802Y9200D02*
Y8800D01*
Y9000D01*
X-23702Y9100D01*
X-23602Y9200D01*
X-23502D01*
X-23102Y8800D02*
X-22902D01*
X-22802Y8900D01*
Y9100D01*
X-22902Y9200D01*
X-23102D01*
X-23202Y9100D01*
Y8900D01*
X-23102Y8800D01*
X-22603Y9200D02*
Y8900D01*
X-22503Y8800D01*
X-22203D01*
Y9200D01*
X-22003Y8800D02*
Y9200D01*
X-21703D01*
X-21603Y9100D01*
Y8800D01*
X-21003Y9400D02*
Y8800D01*
X-21303D01*
X-21403Y8900D01*
Y9100D01*
X-21303Y9200D01*
X-21003D01*
X-20203Y8800D02*
Y9400D01*
X-19903D01*
X-19803Y9300D01*
Y9100D01*
X-19903Y9000D01*
X-20203D01*
X-19603Y8800D02*
X-19404D01*
X-19504D01*
Y9400D01*
X-19603D01*
X-19004Y9200D02*
X-18804D01*
X-18704Y9100D01*
Y8800D01*
X-19004D01*
X-19104Y8900D01*
X-19004Y9000D01*
X-18704D01*
X-18504Y8800D02*
Y9200D01*
X-18204D01*
X-18104Y9100D01*
Y8800D01*
X-17604D02*
X-17804D01*
X-17904Y8900D01*
Y9100D01*
X-17804Y9200D01*
X-17604D01*
X-17504Y9100D01*
Y9000D01*
X-17904D01*
X-16504Y8800D02*
X-16704Y9000D01*
Y9200D01*
X-16504Y9400D01*
X-15805Y9300D02*
X-15905Y9400D01*
X-16105D01*
X-16205Y9300D01*
Y8900D01*
X-16105Y8800D01*
X-15905D01*
X-15805Y8900D01*
X-15505Y8800D02*
X-15305D01*
X-15205Y8900D01*
Y9100D01*
X-15305Y9200D01*
X-15505D01*
X-15605Y9100D01*
Y8900D01*
X-15505Y8800D01*
X-15005Y8600D02*
Y9200D01*
X-14705D01*
X-14605Y9100D01*
Y8900D01*
X-14705Y8800D01*
X-15005D01*
X-14405Y8600D02*
Y9200D01*
X-14105D01*
X-14005Y9100D01*
Y8900D01*
X-14105Y8800D01*
X-14405D01*
X-13505D02*
X-13705D01*
X-13805Y8900D01*
Y9100D01*
X-13705Y9200D01*
X-13505D01*
X-13405Y9100D01*
Y9000D01*
X-13805D01*
X-13206Y9200D02*
Y8800D01*
Y9000D01*
X-13106Y9100D01*
X-13006Y9200D01*
X-12906D01*
X-12506Y8700D02*
X-12406Y8800D01*
Y8900D01*
X-12506D01*
Y8800D01*
X-12406D01*
X-12506Y8700D01*
X-12606Y8600D01*
X-11406Y8800D02*
Y9400D01*
X-11206Y9200D01*
X-11006Y9400D01*
Y8800D01*
X-10706Y9200D02*
X-10506D01*
X-10406Y9100D01*
Y8800D01*
X-10706D01*
X-10806Y8900D01*
X-10706Y9000D01*
X-10406D01*
X-10207Y8800D02*
X-9907D01*
X-9807Y8900D01*
X-9907Y9000D01*
X-10107D01*
X-10207Y9100D01*
X-10107Y9200D01*
X-9807D01*
X-9607Y8800D02*
Y9400D01*
Y9000D02*
X-9307Y9200D01*
X-9607Y9000D02*
X-9307Y8800D01*
X-9007D02*
X-8807Y9000D01*
Y9200D01*
X-9007Y9400D01*
D61*
X394Y3543D02*
G03*
X787Y3937I0J394D01*
G01*
D02*
G03*
X394Y4331I-394J0D01*
G01*
X0Y7087D02*
G03*
X787Y7874I0J787D01*
G01*
D02*
G03*
X0Y8661I-787J0D01*
G01*
X32283D02*
G03*
X31496Y7874I0J-787D01*
G01*
D02*
G03*
X32283Y7087I787J0D01*
G01*
X31890Y4331D02*
G03*
X31496Y3937I0J-394D01*
G01*
D02*
G03*
X31890Y3543I394J0D01*
G01*
X17480Y1299D02*
G03*
X17283Y1496I-197J0D01*
G01*
X17283D02*
G03*
X17087Y1299I0J-197D01*
G01*
X-0Y-0D02*
X0Y-0D01*
Y3543D01*
X394D01*
X0Y4331D02*
X394D01*
X0D02*
Y7087D01*
Y8661D02*
X0D01*
X0D02*
Y11811D01*
X32283D01*
Y8661D02*
Y11811D01*
X32283Y8661D02*
X32283D01*
Y4331D02*
Y7087D01*
X31890Y4331D02*
X32283D01*
X31890Y3543D02*
X32283D01*
Y3150D02*
Y3543D01*
Y0D02*
Y3150D01*
X17480Y0D02*
X32283D01*
X17480D02*
Y1299D01*
X17283Y1496D02*
X17283D01*
X17087Y0D02*
Y1299D01*
X0Y0D02*
X17087D01*
X-0Y-0D02*
X0Y0D01*
D62*
X20551Y7717D02*
D03*
X3268Y4803D02*
D03*
X14961Y1693D02*
D03*
X11417Y8937D02*
D03*
X27480Y1929D02*
D03*
X15394Y2362D02*
D03*
X13661Y10512D02*
D03*
X13307Y7677D02*
D03*
X13622Y9567D02*
D03*
X11417Y7047D02*
D03*
Y6732D02*
D03*
X13307D02*
D03*
X23937Y4606D02*
D03*
X20118Y6732D02*
D03*
X20984Y9528D02*
D03*
X25236Y4331D02*
D03*
X16693Y8307D02*
D03*
X25748Y3898D02*
D03*
X26260Y1496D02*
D03*
X14252Y8622D02*
D03*
Y7362D02*
D03*
X13937Y7047D02*
D03*
X15827Y6732D02*
D03*
X15197Y7047D02*
D03*
Y6732D02*
D03*
X14252Y7047D02*
D03*
Y6732D02*
D03*
X14882D02*
D03*
X14567D02*
D03*
X15827Y5787D02*
D03*
X14882Y6417D02*
D03*
X14567D02*
D03*
X14252D02*
D03*
X15512D02*
D03*
X14567Y5787D02*
D03*
X15197Y6102D02*
D03*
Y5787D02*
D03*
X15827Y5472D02*
D03*
X26063Y1575D02*
D03*
X25591Y1339D02*
D03*
X28976Y1299D02*
D03*
X29213D02*
D03*
X29449D02*
D03*
X28898Y1535D02*
D03*
X12677Y8937D02*
D03*
X30079Y1299D02*
D03*
X30315D02*
D03*
X12992Y10197D02*
D03*
X28896Y7207D02*
D03*
X28740Y7362D02*
D03*
X28502Y7679D02*
D03*
X28583Y8425D02*
D03*
X28386Y8583D02*
D03*
Y10344D02*
D03*
X29370D02*
D03*
X30354D02*
D03*
X13307Y9567D02*
D03*
X12992Y9882D02*
D03*
X11417Y10197D02*
D03*
X28976Y5709D02*
D03*
X28307Y5827D02*
D03*
Y5551D02*
D03*
X27638Y5827D02*
D03*
X25787Y8110D02*
D03*
X26181D02*
D03*
X26260Y8386D02*
D03*
X14252Y3898D02*
D03*
X14882Y4213D02*
D03*
X14567D02*
D03*
X14252Y5157D02*
D03*
X13937Y4528D02*
D03*
Y4213D02*
D03*
X14882Y5472D02*
D03*
X14567D02*
D03*
X14252Y5787D02*
D03*
X28346Y7835D02*
D03*
X28543Y6732D02*
D03*
X28346Y6575D02*
D03*
X13307Y4213D02*
D03*
X10709Y3031D02*
D03*
X10236D02*
D03*
X9764D02*
D03*
X9291D02*
D03*
X14882Y9882D02*
D03*
X25472Y7126D02*
D03*
X15512Y10512D02*
D03*
X14882Y10197D02*
D03*
X12992Y9252D02*
D03*
X11102Y9882D02*
D03*
X12362D02*
D03*
X13937Y9252D02*
D03*
X26496Y5945D02*
D03*
X26693Y5787D02*
D03*
X27047D02*
D03*
X27244Y5945D02*
D03*
X14252Y8937D02*
D03*
Y9252D02*
D03*
X26220Y6260D02*
D03*
X25591Y6929D02*
D03*
X25827Y6535D02*
D03*
X25709Y6732D02*
D03*
X25591Y7323D02*
D03*
X25709Y7520D02*
D03*
X12992Y9567D02*
D03*
X15512Y9882D02*
D03*
X15197Y10197D02*
D03*
X1339Y9449D02*
D03*
X11260Y10787D02*
D03*
X11732Y9252D02*
D03*
X3701Y5157D02*
D03*
X5906Y4685D02*
D03*
X12047Y5157D02*
D03*
X7874Y4685D02*
D03*
X11102Y4843D02*
D03*
X11732Y4528D02*
D03*
X12677Y4213D02*
D03*
X12362D02*
D03*
X2323Y4528D02*
D03*
X2598D02*
D03*
X12677Y5157D02*
D03*
X11732Y4843D02*
D03*
Y5157D02*
D03*
X12362Y5472D02*
D03*
X5551Y4173D02*
D03*
X2992Y5000D02*
D03*
X4370Y4528D02*
D03*
X4055D02*
D03*
X9843Y7362D02*
D03*
X7835Y6417D02*
D03*
X7205Y10197D02*
D03*
X9843Y9252D02*
D03*
X5315Y9882D02*
D03*
X10787Y10512D02*
D03*
X5315D02*
D03*
X9843Y9567D02*
D03*
X5630Y10197D02*
D03*
X6890Y9882D02*
D03*
X6575D02*
D03*
Y10197D02*
D03*
X10157Y10512D02*
D03*
X5630D02*
D03*
X10787Y10197D02*
D03*
X6890Y10827D02*
D03*
X10472Y9252D02*
D03*
X10157Y9567D02*
D03*
Y9882D02*
D03*
X9843Y10197D02*
D03*
X5630Y9882D02*
D03*
X6890Y8307D02*
D03*
X11102Y8937D02*
D03*
X10472D02*
D03*
X10157Y8937D02*
D03*
X6575Y8937D02*
D03*
X9528D02*
D03*
X9843D02*
D03*
X6890Y9252D02*
D03*
X5315Y8622D02*
D03*
X10157Y9252D02*
D03*
X5630D02*
D03*
X6575Y8622D02*
D03*
X9843Y8307D02*
D03*
Y7992D02*
D03*
X5630Y8307D02*
D03*
X5000Y8937D02*
D03*
X10157Y7992D02*
D03*
X10472D02*
D03*
Y8307D02*
D03*
X10157D02*
D03*
X5630Y8937D02*
D03*
X5315D02*
D03*
X10787Y8622D02*
D03*
X7205Y8937D02*
D03*
X11417Y7677D02*
D03*
Y7992D02*
D03*
Y8307D02*
D03*
X10787Y8937D02*
D03*
Y8307D02*
D03*
X8150Y7362D02*
D03*
X10787Y6732D02*
D03*
X11102Y6102D02*
D03*
X9528Y6732D02*
D03*
X5000Y7677D02*
D03*
X5315Y7362D02*
D03*
X11102Y6417D02*
D03*
X7835Y5787D02*
D03*
X10787Y9252D02*
D03*
X10157Y7047D02*
D03*
X11102D02*
D03*
X10472Y6732D02*
D03*
X7520Y8622D02*
D03*
X5000Y9882D02*
D03*
X11732Y6417D02*
D03*
X12362Y7677D02*
D03*
X12677Y6102D02*
D03*
X12362Y6417D02*
D03*
X12677D02*
D03*
X11732Y8937D02*
D03*
X12362D02*
D03*
X12047Y8307D02*
D03*
X15512Y6732D02*
D03*
X13307Y5472D02*
D03*
X10157Y6732D02*
D03*
X11102Y5787D02*
D03*
X8465D02*
D03*
X11417Y6417D02*
D03*
X5315Y7047D02*
D03*
X11102Y7362D02*
D03*
X5315Y6417D02*
D03*
X9843Y7047D02*
D03*
X10157Y7362D02*
D03*
X10787Y7992D02*
D03*
X5315Y6102D02*
D03*
X8465Y7677D02*
D03*
X11102Y6732D02*
D03*
X10787Y7677D02*
D03*
X10157Y6417D02*
D03*
X10472Y7047D02*
D03*
X10787D02*
D03*
Y7362D02*
D03*
X5315Y6732D02*
D03*
X6575Y9567D02*
D03*
X11102Y10197D02*
D03*
X4331Y5945D02*
D03*
Y6260D02*
D03*
Y6575D02*
D03*
Y6890D02*
D03*
Y7205D02*
D03*
Y7520D02*
D03*
X10157Y5157D02*
D03*
X10787D02*
D03*
X6575Y1260D02*
D03*
X7283D02*
D03*
X7047Y1575D02*
D03*
X7756D02*
D03*
X7992Y1260D02*
D03*
X8465Y1575D02*
D03*
X8701Y1260D02*
D03*
X11299D02*
D03*
X11063Y1575D02*
D03*
X10591Y1260D02*
D03*
X10354Y1575D02*
D03*
X9646D02*
D03*
X9882Y1260D02*
D03*
X9173D02*
D03*
X11102Y5157D02*
D03*
X11417Y5472D02*
D03*
X12677Y5787D02*
D03*
X13307D02*
D03*
X13622D02*
D03*
Y4528D02*
D03*
X14252Y6102D02*
D03*
X19724Y10512D02*
D03*
X20118D02*
D03*
X19724Y10118D02*
D03*
X14567Y8937D02*
D03*
X25276Y6142D02*
D03*
X16575Y10197D02*
D03*
X13622Y5472D02*
D03*
Y4843D02*
D03*
X13937D02*
D03*
Y5787D02*
D03*
X14252Y5472D02*
D03*
X6693Y3031D02*
D03*
X7165D02*
D03*
X7638D02*
D03*
X8110D02*
D03*
X12362Y5157D02*
D03*
X11417Y4528D02*
D03*
Y4843D02*
D03*
X12677Y5472D02*
D03*
X12047Y4528D02*
D03*
X12362D02*
D03*
X12992D02*
D03*
X13307D02*
D03*
X12992Y4213D02*
D03*
Y5157D02*
D03*
X12992Y4843D02*
D03*
X13622Y4213D02*
D03*
Y3898D02*
D03*
Y5157D02*
D03*
X13937Y3740D02*
D03*
X14252Y4528D02*
D03*
Y4843D02*
D03*
X14882Y5787D02*
D03*
X14567Y4843D02*
D03*
Y4528D02*
D03*
X15197Y4843D02*
D03*
Y4528D02*
D03*
X15512D02*
D03*
Y4843D02*
D03*
X15197Y4213D02*
D03*
X15512D02*
D03*
X14567Y5157D02*
D03*
X15197Y6417D02*
D03*
X15512Y6102D02*
D03*
X15827Y6417D02*
D03*
Y6102D02*
D03*
X15512Y5157D02*
D03*
X15827D02*
D03*
X13386Y1693D02*
D03*
X14252D02*
D03*
X14488D02*
D03*
X13740Y2756D02*
D03*
X12047Y9882D02*
D03*
X13937D02*
D03*
X14567Y9567D02*
D03*
X20394Y9528D02*
D03*
X14882Y9567D02*
D03*
X18110D02*
D03*
X15827Y9882D02*
D03*
X15197Y8937D02*
D03*
X14882D02*
D03*
X14252Y9567D02*
D03*
X13622Y10197D02*
D03*
Y9882D02*
D03*
X14567Y10197D02*
D03*
X15197Y9567D02*
D03*
Y9882D02*
D03*
X20748Y9528D02*
D03*
X30039Y3031D02*
D03*
X14567Y10512D02*
D03*
X14252Y10197D02*
D03*
X13937D02*
D03*
Y9567D02*
D03*
X29016Y3583D02*
D03*
X29488Y3031D02*
D03*
X29843Y3465D02*
D03*
X12677Y9252D02*
D03*
Y9567D02*
D03*
X12047Y8937D02*
D03*
X11732Y9567D02*
D03*
X31299Y5709D02*
D03*
X28504Y1732D02*
D03*
X28465Y3307D02*
D03*
Y3031D02*
D03*
X26969Y1299D02*
D03*
X26732Y1535D02*
D03*
X26457Y1339D02*
D03*
X15512Y8622D02*
D03*
Y9252D02*
D03*
X15197D02*
D03*
Y8622D02*
D03*
X14882D02*
D03*
X15827D02*
D03*
X27047Y2441D02*
D03*
X14882Y7047D02*
D03*
Y7362D02*
D03*
X15827Y7047D02*
D03*
X14252Y7677D02*
D03*
X13937Y7992D02*
D03*
X15197Y7362D02*
D03*
X14567Y7677D02*
D03*
X13937Y8622D02*
D03*
X15512Y7677D02*
D03*
X15827Y7992D02*
D03*
Y7677D02*
D03*
X14252Y7992D02*
D03*
X16457Y7047D02*
D03*
X16142Y7992D02*
D03*
X16457Y7677D02*
D03*
X15197D02*
D03*
X15827Y8307D02*
D03*
X15512D02*
D03*
X15197D02*
D03*
X14882Y7677D02*
D03*
Y8307D02*
D03*
X14567Y7992D02*
D03*
X14882D02*
D03*
X14567Y8307D02*
D03*
X15827Y8937D02*
D03*
X15512D02*
D03*
X16457Y8622D02*
D03*
X28661Y3465D02*
D03*
X25669Y3661D02*
D03*
X19055Y8622D02*
D03*
X20433D02*
D03*
X20118D02*
D03*
X19803D02*
D03*
X19409D02*
D03*
X26063Y11417D02*
D03*
X11102Y9252D02*
D03*
X19528Y4528D02*
D03*
Y4764D02*
D03*
X11732Y5787D02*
D03*
X9843Y9882D02*
D03*
X24685Y3307D02*
D03*
X24055D02*
D03*
X24449D02*
D03*
X23189D02*
D03*
X23425D02*
D03*
X23819D02*
D03*
X27677Y2598D02*
D03*
X27402D02*
D03*
X27953D02*
D03*
X14961Y1457D02*
D03*
X16457Y3189D02*
D03*
X16220D02*
D03*
X23543Y4449D02*
D03*
X24528Y9606D02*
D03*
X11417Y4213D02*
D03*
X15197Y2165D02*
D03*
X25591Y4331D02*
D03*
X30039Y3937D02*
D03*
X28425Y4134D02*
D03*
X28819Y3937D02*
D03*
X29606Y4134D02*
D03*
X27480Y4094D02*
D03*
X27677Y3898D02*
D03*
X26220Y4252D02*
D03*
X26457Y4055D02*
D03*
Y9882D02*
D03*
X26063D02*
D03*
X24173Y11339D02*
D03*
X23819D02*
D03*
Y8346D02*
D03*
Y8031D02*
D03*
X11417Y10512D02*
D03*
X12362Y10197D02*
D03*
X23268Y10984D02*
D03*
Y11299D02*
D03*
X11417Y9252D02*
D03*
X11732Y9882D02*
D03*
Y10512D02*
D03*
X12047D02*
D03*
X22441Y7913D02*
D03*
X21870Y8110D02*
D03*
X23031Y7913D02*
D03*
X22559Y10866D02*
D03*
X30945Y3307D02*
D03*
X30591Y3937D02*
D03*
X30748Y6063D02*
D03*
X6929Y2559D02*
D03*
X7402D02*
D03*
X7874D02*
D03*
X9528D02*
D03*
X10000D02*
D03*
X10472D02*
D03*
X7047Y2047D02*
D03*
X7756D02*
D03*
X8465D02*
D03*
Y2559D02*
D03*
X8701Y3031D02*
D03*
X8937Y2047D02*
D03*
X9646D02*
D03*
X10354D02*
D03*
X11063Y2559D02*
D03*
Y2047D02*
D03*
X11299Y3031D02*
D03*
X12283Y2559D02*
D03*
X11890D02*
D03*
X11693Y1260D02*
D03*
X11496Y2559D02*
D03*
X12835D02*
D03*
X12598Y2047D02*
D03*
X13346Y2756D02*
D03*
X13189Y2559D02*
D03*
X16142Y1850D02*
D03*
X15748Y2008D02*
D03*
X16575Y2283D02*
D03*
X16811Y2008D02*
D03*
X24882Y1575D02*
D03*
X23937Y2047D02*
D03*
X24567D02*
D03*
X24291Y1575D02*
D03*
X23150D02*
D03*
X23583D02*
D03*
X23504Y2047D02*
D03*
X22756D02*
D03*
X21732D02*
D03*
X22362Y1732D02*
D03*
Y2047D02*
D03*
X21732Y1732D02*
D03*
X21142Y2047D02*
D03*
X20472D02*
D03*
X20157Y1732D02*
D03*
X20079Y2047D02*
D03*
X19370Y2283D02*
D03*
X19055D02*
D03*
X18740D02*
D03*
X18425D02*
D03*
X18110D02*
D03*
X17795D02*
D03*
X17323D02*
D03*
X21024Y1732D02*
D03*
X20197Y3307D02*
D03*
X20512D02*
D03*
X20827D02*
D03*
X21142D02*
D03*
X21535D02*
D03*
X21929D02*
D03*
X22244D02*
D03*
X22638D02*
D03*
X22913D02*
D03*
X25157Y2047D02*
D03*
X25906D02*
D03*
X25591D02*
D03*
D63*
X12205Y11575D02*
D03*
X19370Y7717D02*
D03*
X19094D02*
D03*
Y7992D02*
D03*
X10472Y10984D02*
D03*
X18071Y10157D02*
D03*
X13346Y10866D02*
D03*
X4291Y11063D02*
D03*
Y10748D02*
D03*
Y10433D02*
D03*
Y10118D02*
D03*
Y9803D02*
D03*
X3976D02*
D03*
X7402Y11260D02*
D03*
X7717D02*
D03*
X8031D02*
D03*
X8346D02*
D03*
X20394Y4764D02*
D03*
X20669D02*
D03*
X20945D02*
D03*
X21496Y9528D02*
D03*
X21181Y1457D02*
D03*
X22598D02*
D03*
X21890D02*
D03*
X29124Y1614D02*
D03*
X30315Y2598D02*
D03*
X29134D02*
D03*
X30325Y1614D02*
D03*
X26811Y11417D02*
D03*
X27795D02*
D03*
X30512Y11457D02*
D03*
X29528D02*
D03*
X28543D02*
D03*
X28937Y6142D02*
D03*
X29587Y8504D02*
D03*
X28898Y8189D02*
D03*
X27559Y8504D02*
D03*
X12835Y10866D02*
D03*
X11732D02*
D03*
X12362D02*
D03*
X12047D02*
D03*
X3976Y10118D02*
D03*
Y10748D02*
D03*
Y10433D02*
D03*
X3661D02*
D03*
X3346D02*
D03*
X1142Y8858D02*
D03*
X1890Y9606D02*
D03*
X906Y9764D02*
D03*
Y10079D02*
D03*
Y10394D02*
D03*
X2559Y9606D02*
D03*
X1339Y9055D02*
D03*
X4370Y5157D02*
D03*
X1457Y4606D02*
D03*
X2677Y5000D02*
D03*
X5354Y3661D02*
D03*
X6102Y8150D02*
D03*
X2992Y5906D02*
D03*
Y6142D02*
D03*
X3971Y2632D02*
D03*
X4118Y2772D02*
D03*
X2559Y2795D02*
D03*
X2717Y2638D02*
D03*
X5512Y2205D02*
D03*
Y1969D02*
D03*
Y1732D02*
D03*
X4724Y1535D02*
D03*
X4961D02*
D03*
X4843Y1339D02*
D03*
X6102Y7205D02*
D03*
X9606Y5433D02*
D03*
X2638Y6142D02*
D03*
X1850Y5787D02*
D03*
X2795Y1654D02*
D03*
X7126Y3858D02*
D03*
X6614D02*
D03*
X29449Y7795D02*
D03*
X25394Y9370D02*
D03*
Y9606D02*
D03*
X19449Y9528D02*
D03*
X25787Y11417D02*
D03*
X25512Y5354D02*
D03*
X17126Y1850D02*
D03*
X17559D02*
D03*
X19685Y2047D02*
D03*
X18268Y1535D02*
D03*
X18976D02*
D03*
X20394D02*
D03*
X21220Y4764D02*
D03*
X21496D02*
D03*
Y4488D02*
D03*
X3976Y11063D02*
D03*
X4291Y9488D02*
D03*
X2047Y10433D02*
D03*
X591Y10394D02*
D03*
Y10065D02*
D03*
Y9764D02*
D03*
Y9449D02*
D03*
X16890Y10866D02*
D03*
X24606Y10157D02*
D03*
X21693Y6772D02*
D03*
Y7165D02*
D03*
Y7520D02*
D03*
X1850Y5512D02*
D03*
X1575D02*
D03*
Y5787D02*
D03*
X2126D02*
D03*
Y5512D02*
D03*
X29587Y8701D02*
D03*
X12520Y11339D02*
D03*
Y11575D02*
D03*
X14724D02*
D03*
X14449D02*
D03*
X24882Y11299D02*
D03*
X16850Y1181D02*
D03*
X19685Y1535D02*
D03*
X28071Y5394D02*
D03*
X26870Y5413D02*
D03*
X27008Y4331D02*
D03*
X28189D02*
D03*
X29370D02*
D03*
X30394D02*
D03*
X27205Y8740D02*
D03*
X20354Y10866D02*
D03*
X24016Y7677D02*
D03*
X24409Y8701D02*
D03*
X21969Y10866D02*
D03*
X21654D02*
D03*
D64*
X18819Y7717D02*
D03*
X18543D02*
D03*
X18268Y7992D02*
D03*
X18543D02*
D03*
X18819D02*
D03*
Y8268D02*
D03*
X18543D02*
D03*
X18268D02*
D03*
X18543Y8543D02*
D03*
X18268D02*
D03*
X13307Y6102D02*
D03*
X25394Y7756D02*
D03*
Y7953D02*
D03*
X13307Y9252D02*
D03*
X12677Y7992D02*
D03*
X2244Y8504D02*
D03*
X10787Y9882D02*
D03*
X10157Y8622D02*
D03*
X11102Y8307D02*
D03*
X5630Y7047D02*
D03*
X6575Y6102D02*
D03*
X5630D02*
D03*
X7205Y6417D02*
D03*
Y6732D02*
D03*
X5630Y7992D02*
D03*
Y5787D02*
D03*
Y7362D02*
D03*
X7205Y7677D02*
D03*
X7520Y6102D02*
D03*
Y6732D02*
D03*
X7205Y7992D02*
D03*
X6890Y8622D02*
D03*
X7520Y9567D02*
D03*
Y9882D02*
D03*
Y10197D02*
D03*
X7205Y10827D02*
D03*
X4685Y6102D02*
D03*
Y6732D02*
D03*
X5000Y8622D02*
D03*
X4685Y9252D02*
D03*
X5000Y10197D02*
D03*
X4685D02*
D03*
Y10827D02*
D03*
X5000Y8307D02*
D03*
X12047Y6102D02*
D03*
X11732Y7992D02*
D03*
X11102Y7992D02*
D03*
X11732Y6732D02*
D03*
Y5472D02*
D03*
X12047Y4843D02*
D03*
X12362Y6732D02*
D03*
X11732Y10197D02*
D03*
X12047Y9567D02*
D03*
Y9252D02*
D03*
X11732Y7047D02*
D03*
Y8307D02*
D03*
X12992D02*
D03*
X12362Y8622D02*
D03*
Y8307D02*
D03*
X12047Y7677D02*
D03*
X13307Y8622D02*
D03*
X13622Y8307D02*
D03*
X14252D02*
D03*
X14567Y9882D02*
D03*
Y9252D02*
D03*
X15827Y9567D02*
D03*
Y4528D02*
D03*
X15197Y7992D02*
D03*
X15827Y7362D02*
D03*
X15512Y5787D02*
D03*
X14882Y4843D02*
D03*
X13937Y5157D02*
D03*
X13307D02*
D03*
X12677Y4528D02*
D03*
X10472Y10197D02*
D03*
Y9567D02*
D03*
X13622Y7677D02*
D03*
X13937Y7362D02*
D03*
X13622Y6417D02*
D03*
X13937Y6732D02*
D03*
Y6102D02*
D03*
X13307Y7047D02*
D03*
X12992Y6417D02*
D03*
X14567Y7047D02*
D03*
X12362Y5787D02*
D03*
X12992Y5472D02*
D03*
Y5787D02*
D03*
X11732Y7362D02*
D03*
X12047D02*
D03*
X11417Y9882D02*
D03*
Y9567D02*
D03*
X10472Y6417D02*
D03*
X6575Y8307D02*
D03*
Y7992D02*
D03*
X10472Y7362D02*
D03*
X7205D02*
D03*
X5315Y7677D02*
D03*
X7205Y6102D02*
D03*
Y5787D02*
D03*
X5630Y7677D02*
D03*
X6890Y7047D02*
D03*
X6575Y7047D02*
D03*
Y6732D02*
D03*
X5630D02*
D03*
X6575Y7677D02*
D03*
X5630Y6417D02*
D03*
X5000Y5787D02*
D03*
X5984Y8937D02*
D03*
X3110Y7756D02*
D03*
X12992Y6102D02*
D03*
X14567D02*
D03*
X12205Y11378D02*
D03*
X1850Y10236D02*
D03*
X1220Y10079D02*
D03*
Y9764D02*
D03*
X22244Y6772D02*
D03*
X21969Y7165D02*
D03*
X22244D02*
D03*
X21969Y6772D02*
D03*
Y7520D02*
D03*
X22244D02*
D03*
X17520Y6299D02*
D03*
Y6024D02*
D03*
Y5748D02*
D03*
Y5472D02*
D03*
X17795Y6024D02*
D03*
Y5748D02*
D03*
Y5472D02*
D03*
X18071D02*
D03*
Y5748D02*
D03*
X18346Y5472D02*
D03*
X18622Y5748D02*
D03*
X18898D02*
D03*
Y5472D02*
D03*
X17913Y6457D02*
D03*
X11102Y8628D02*
D03*
X11417Y6102D02*
D03*
X20394Y4488D02*
D03*
X20669D02*
D03*
X20945D02*
D03*
X21220D02*
D03*
X15866Y11339D02*
D03*
Y11575D02*
D03*
X14449Y11339D02*
D03*
X14724D02*
D03*
X16142Y11575D02*
D03*
M02*
