G04 Layer_Color=32768*
%FSLAX24Y24*%
%MOIN*%
G70*
G01*
G75*
%ADD43C,0.0100*%
%ADD148R,3.2283X0.1142*%
D43*
X-30400Y-5600D02*
X-30000D01*
X-30200D01*
Y-6200D01*
X-29700D02*
X-29500D01*
X-29400Y-6100D01*
Y-5900D01*
X-29500Y-5800D01*
X-29700D01*
X-29800Y-5900D01*
Y-6100D01*
X-29700Y-6200D01*
X-29200Y-6400D02*
Y-5800D01*
X-28900D01*
X-28801Y-5900D01*
Y-6100D01*
X-28900Y-6200D01*
X-29200D01*
X-28001Y-5600D02*
Y-6200D01*
Y-5900D01*
X-27601D01*
Y-5600D01*
Y-6200D01*
X-27301Y-5800D02*
X-27101D01*
X-27001Y-5900D01*
Y-6200D01*
X-27301D01*
X-27401Y-6100D01*
X-27301Y-6000D01*
X-27001D01*
X-26801Y-5800D02*
Y-6200D01*
Y-6000D01*
X-26701Y-5900D01*
X-26601Y-5800D01*
X-26501D01*
X-25801Y-5600D02*
Y-6200D01*
X-26101D01*
X-26201Y-6100D01*
Y-5900D01*
X-26101Y-5800D01*
X-25801D01*
X-24602Y-5700D02*
X-24702Y-5600D01*
X-24902D01*
X-25002Y-5700D01*
Y-6100D01*
X-24902Y-6200D01*
X-24702D01*
X-24602Y-6100D01*
Y-5900D01*
X-24802D01*
X-24302Y-6200D02*
X-24102D01*
X-24002Y-6100D01*
Y-5900D01*
X-24102Y-5800D01*
X-24302D01*
X-24402Y-5900D01*
Y-6100D01*
X-24302Y-6200D01*
X-23802D02*
X-23602D01*
X-23702D01*
Y-5600D01*
X-23802D01*
X-22902D02*
Y-6200D01*
X-23202D01*
X-23302Y-6100D01*
Y-5900D01*
X-23202Y-5800D01*
X-22902D01*
X-21903Y-6200D02*
X-22103Y-6000D01*
Y-5800D01*
X-21903Y-5600D01*
X-21603Y-6200D02*
Y-5600D01*
X-21403Y-5800D01*
X-21203Y-5600D01*
Y-6200D01*
X-20903Y-5800D02*
X-20703D01*
X-20603Y-5900D01*
Y-6200D01*
X-20903D01*
X-21003Y-6100D01*
X-20903Y-6000D01*
X-20603D01*
X-20403Y-6200D02*
X-20103D01*
X-20003Y-6100D01*
X-20103Y-6000D01*
X-20303D01*
X-20403Y-5900D01*
X-20303Y-5800D01*
X-20003D01*
X-19803Y-6200D02*
Y-5600D01*
Y-6000D02*
X-19504Y-5800D01*
X-19803Y-6000D02*
X-19504Y-6200D01*
X-19204D02*
X-19004Y-6000D01*
Y-5800D01*
X-19204Y-5600D01*
D148*
X16142Y571D02*
D03*
M02*
