G04 Layer_Color=8388736*
%FSLAX24Y24*%
%MOIN*%
G70*
G01*
G75*
%ADD10R,0.0209X0.0069*%
%ADD18R,0.0177X0.1004*%
%ADD43C,0.0100*%
%ADD89R,3.2283X0.1102*%
%ADD90R,0.0591X0.0118*%
%ADD91O,0.0291X0.0154*%
%ADD92R,0.0291X0.0154*%
%ADD93R,0.0394X0.0296*%
%ADD94R,0.1851X0.1890*%
%ADD95R,0.0217X0.0434*%
%ADD96R,0.0394X0.0316*%
%ADD97C,0.0197*%
%ADD98R,0.0355X0.0355*%
%ADD99R,0.0946X0.0375*%
%ADD100R,0.0288X0.0839*%
%ADD101R,0.0867X0.0867*%
%ADD102O,0.0375X0.0158*%
%ADD103O,0.0158X0.0375*%
%ADD104C,0.0217*%
%ADD105R,0.1064X0.0571*%
%ADD106R,0.0611X0.0434*%
%ADD107R,0.0237X0.0245*%
%ADD108R,0.0245X0.0237*%
%ADD109R,0.0434X0.0611*%
%ADD110R,0.0355X0.0355*%
%ADD111R,0.0571X0.1064*%
%ADD112R,0.0178X0.0178*%
%ADD113R,0.0178X0.0178*%
%ADD114R,0.0257X0.0257*%
%ADD115R,0.0257X0.0257*%
%ADD116R,0.0335X0.0335*%
%ADD117R,0.1024X0.1024*%
%ADD118O,0.0394X0.0138*%
%ADD119O,0.0138X0.0394*%
D10*
X24974Y8140D02*
D03*
Y8278D02*
D03*
Y8415D02*
D03*
Y8553D02*
D03*
X24711Y8140D02*
D03*
Y8278D02*
D03*
Y8415D02*
D03*
Y8553D02*
D03*
D18*
X1260Y551D02*
D03*
X1496D02*
D03*
X1732D02*
D03*
X1969D02*
D03*
X2205D02*
D03*
X2441D02*
D03*
X2677D02*
D03*
X2913D02*
D03*
X3150D02*
D03*
X3386D02*
D03*
X3622D02*
D03*
X3858D02*
D03*
X4094D02*
D03*
X4331D02*
D03*
X4567D02*
D03*
X4803D02*
D03*
X5039D02*
D03*
X5276D02*
D03*
X5512D02*
D03*
X5748D02*
D03*
X5984D02*
D03*
X6220D02*
D03*
X6457D02*
D03*
X6693D02*
D03*
X6929D02*
D03*
X7165D02*
D03*
X7402D02*
D03*
X7638D02*
D03*
X7874D02*
D03*
X8110D02*
D03*
X8346D02*
D03*
X8583D02*
D03*
X8819D02*
D03*
X9055D02*
D03*
X9291D02*
D03*
X9528D02*
D03*
X9764D02*
D03*
X10000D02*
D03*
X10236D02*
D03*
X10472D02*
D03*
X10709D02*
D03*
X10945D02*
D03*
X11181D02*
D03*
X11417D02*
D03*
X11654D02*
D03*
X11890D02*
D03*
X12126D02*
D03*
X12362D02*
D03*
X12598D02*
D03*
X12835D02*
D03*
X13071D02*
D03*
X13307D02*
D03*
X13543D02*
D03*
X13780D02*
D03*
X14016D02*
D03*
X14252D02*
D03*
X14488D02*
D03*
X14724D02*
D03*
X14961D02*
D03*
X15197D02*
D03*
X15433D02*
D03*
X15669D02*
D03*
X15906D02*
D03*
X16142D02*
D03*
X16378D02*
D03*
X17795Y551D02*
D03*
X18032D02*
D03*
X18268D02*
D03*
X18504D02*
D03*
X18740D02*
D03*
X18976D02*
D03*
X19213D02*
D03*
X19449D02*
D03*
X19685D02*
D03*
X19921D02*
D03*
X20157D02*
D03*
X20394D02*
D03*
X20630D02*
D03*
X20866D02*
D03*
X21102D02*
D03*
X21339D02*
D03*
X21575D02*
D03*
X21811D02*
D03*
X22047D02*
D03*
X22283D02*
D03*
X22520D02*
D03*
X22756D02*
D03*
X22992D02*
D03*
X23228D02*
D03*
X23465D02*
D03*
X23701D02*
D03*
X23937D02*
D03*
X24173D02*
D03*
X24409D02*
D03*
X24646D02*
D03*
X24882D02*
D03*
X25118D02*
D03*
X25354D02*
D03*
X25591D02*
D03*
X25827D02*
D03*
X26063D02*
D03*
X26299D02*
D03*
X26535D02*
D03*
X26772D02*
D03*
X27008D02*
D03*
X27244D02*
D03*
X27480D02*
D03*
X27717D02*
D03*
X27953D02*
D03*
X28189D02*
D03*
X28425D02*
D03*
X28661D02*
D03*
X28898D02*
D03*
X29134D02*
D03*
X29370D02*
D03*
X29606D02*
D03*
X29843D02*
D03*
X30079D02*
D03*
X30315D02*
D03*
X30551D02*
D03*
X30787D02*
D03*
X31024D02*
D03*
D43*
X-30400Y-3600D02*
X-30000D01*
X-30200D01*
Y-4200D01*
X-29700D02*
X-29500D01*
X-29400Y-4100D01*
Y-3900D01*
X-29500Y-3800D01*
X-29700D01*
X-29800Y-3900D01*
Y-4100D01*
X-29700Y-4200D01*
X-29200Y-4400D02*
Y-3800D01*
X-28900D01*
X-28801Y-3900D01*
Y-4100D01*
X-28900Y-4200D01*
X-29200D01*
X-27601Y-3700D02*
X-27701Y-3600D01*
X-27901D01*
X-28001Y-3700D01*
Y-3800D01*
X-27901Y-3900D01*
X-27701D01*
X-27601Y-4000D01*
Y-4100D01*
X-27701Y-4200D01*
X-27901D01*
X-28001Y-4100D01*
X-27301Y-4200D02*
X-27101D01*
X-27001Y-4100D01*
Y-3900D01*
X-27101Y-3800D01*
X-27301D01*
X-27401Y-3900D01*
Y-4100D01*
X-27301Y-4200D01*
X-26801D02*
X-26601D01*
X-26701D01*
Y-3600D01*
X-26801D01*
X-25901D02*
Y-4200D01*
X-26201D01*
X-26301Y-4100D01*
Y-3900D01*
X-26201Y-3800D01*
X-25901D01*
X-25402Y-4200D02*
X-25602D01*
X-25702Y-4100D01*
Y-3900D01*
X-25602Y-3800D01*
X-25402D01*
X-25302Y-3900D01*
Y-4000D01*
X-25702D01*
X-25102Y-3800D02*
Y-4200D01*
Y-4000D01*
X-25002Y-3900D01*
X-24902Y-3800D01*
X-24802D01*
X-23702Y-4200D02*
X-23902Y-4000D01*
Y-3800D01*
X-23702Y-3600D01*
X-23402Y-4200D02*
Y-3600D01*
X-23202Y-3800D01*
X-23002Y-3600D01*
Y-4200D01*
X-22702Y-3800D02*
X-22503D01*
X-22403Y-3900D01*
Y-4200D01*
X-22702D01*
X-22802Y-4100D01*
X-22702Y-4000D01*
X-22403D01*
X-22203Y-4200D02*
X-21903D01*
X-21803Y-4100D01*
X-21903Y-4000D01*
X-22103D01*
X-22203Y-3900D01*
X-22103Y-3800D01*
X-21803D01*
X-21603Y-4200D02*
Y-3600D01*
Y-4000D02*
X-21303Y-3800D01*
X-21603Y-4000D02*
X-21303Y-4200D01*
X-21003D02*
X-20803Y-4000D01*
Y-3800D01*
X-21003Y-3600D01*
D89*
X16142Y512D02*
D03*
D90*
X2106Y9390D02*
D03*
Y9154D02*
D03*
Y8917D02*
D03*
X18563Y4902D02*
D03*
Y4665D02*
D03*
Y4429D02*
D03*
D91*
X1575Y8858D02*
D03*
Y9055D02*
D03*
Y9252D02*
D03*
X19094Y4567D02*
D03*
Y4764D02*
D03*
Y4961D02*
D03*
D92*
X1575Y9449D02*
D03*
X19094Y4370D02*
D03*
D93*
X19449Y9744D02*
D03*
Y10118D02*
D03*
Y10492D02*
D03*
X20394D02*
D03*
Y10118D02*
D03*
Y9744D02*
D03*
D94*
X22795Y9724D02*
D03*
D95*
X23545Y11238D02*
D03*
X23045D02*
D03*
X22545D02*
D03*
X22045D02*
D03*
X23545Y8211D02*
D03*
X23045D02*
D03*
X22545D02*
D03*
X22045D02*
D03*
D96*
X1496Y1870D02*
D03*
Y2461D02*
D03*
D97*
X4843Y10669D02*
D03*
X5157D02*
D03*
X5472D02*
D03*
X6732D02*
D03*
X7047D02*
D03*
X7362D02*
D03*
X4843Y10354D02*
D03*
X5157D02*
D03*
X5472D02*
D03*
X6732D02*
D03*
X7047D02*
D03*
X7362D02*
D03*
X4843Y10039D02*
D03*
X5157D02*
D03*
X5472D02*
D03*
X6732D02*
D03*
X7047D02*
D03*
X7362D02*
D03*
X4843Y9724D02*
D03*
X5157D02*
D03*
X5472D02*
D03*
X6732D02*
D03*
X7047D02*
D03*
X7362D02*
D03*
X4843Y9409D02*
D03*
X5157D02*
D03*
X5472D02*
D03*
X6732D02*
D03*
X7047D02*
D03*
X7362D02*
D03*
X4843Y9094D02*
D03*
X5157D02*
D03*
X5472D02*
D03*
X6732D02*
D03*
X7047D02*
D03*
X7362D02*
D03*
X4843Y8780D02*
D03*
X5157D02*
D03*
X5472D02*
D03*
X6732D02*
D03*
X7047D02*
D03*
X7362D02*
D03*
X4843Y8465D02*
D03*
X5157D02*
D03*
X5472D02*
D03*
X6732D02*
D03*
X7047D02*
D03*
X7362D02*
D03*
X4843Y8150D02*
D03*
X5157D02*
D03*
X5472D02*
D03*
X6732D02*
D03*
X7047D02*
D03*
X7362D02*
D03*
X4843Y7835D02*
D03*
X5157D02*
D03*
X5472D02*
D03*
X6732D02*
D03*
X7047D02*
D03*
X7362D02*
D03*
X4843Y7520D02*
D03*
X5157D02*
D03*
X5472D02*
D03*
X6732D02*
D03*
X7047D02*
D03*
X7362D02*
D03*
X4843Y7205D02*
D03*
X5157D02*
D03*
X5472D02*
D03*
X6732D02*
D03*
X7047D02*
D03*
X7362D02*
D03*
X4843Y6890D02*
D03*
X5157D02*
D03*
X5472D02*
D03*
X6732D02*
D03*
X7047D02*
D03*
X7362D02*
D03*
X4843Y6575D02*
D03*
X5157D02*
D03*
X5472D02*
D03*
X6732D02*
D03*
X7047D02*
D03*
X7362D02*
D03*
X4843Y6260D02*
D03*
X5157D02*
D03*
X5472D02*
D03*
X6732D02*
D03*
X7047D02*
D03*
X7362D02*
D03*
X4843Y5945D02*
D03*
X5157D02*
D03*
X5472D02*
D03*
X6732D02*
D03*
X7047D02*
D03*
X7362D02*
D03*
D98*
X19724Y11181D02*
D03*
X20354D02*
D03*
X18465D02*
D03*
X17835D02*
D03*
D99*
X3386Y9961D02*
D03*
Y9173D02*
D03*
X17480Y4646D02*
D03*
Y5433D02*
D03*
D100*
X26063Y4843D02*
D03*
X26457D02*
D03*
X26850D02*
D03*
X27244D02*
D03*
X27638D02*
D03*
X28031D02*
D03*
X28425D02*
D03*
X28819D02*
D03*
X29213D02*
D03*
X29606D02*
D03*
X30000D02*
D03*
X30394D02*
D03*
X26063Y9343D02*
D03*
X26457D02*
D03*
X26850D02*
D03*
X27244D02*
D03*
X27638D02*
D03*
X28031D02*
D03*
X28425D02*
D03*
X28819D02*
D03*
X29213D02*
D03*
X29606D02*
D03*
X30000D02*
D03*
X30394D02*
D03*
D101*
X22992Y5079D02*
D03*
D102*
X22274Y4695D02*
D03*
Y4951D02*
D03*
Y5207D02*
D03*
Y5463D02*
D03*
X23711D02*
D03*
Y5207D02*
D03*
Y4951D02*
D03*
Y4695D02*
D03*
D103*
X22608Y5797D02*
D03*
X22864D02*
D03*
X23120D02*
D03*
X23376D02*
D03*
Y4360D02*
D03*
X23120D02*
D03*
X22864D02*
D03*
X22608D02*
D03*
D104*
X15984Y4370D02*
D03*
X15669D02*
D03*
X15354D02*
D03*
X15039D02*
D03*
X14724D02*
D03*
X14409D02*
D03*
X14094D02*
D03*
X13780D02*
D03*
X13465D02*
D03*
X13150D02*
D03*
X12835D02*
D03*
X12520D02*
D03*
X12205D02*
D03*
X11890D02*
D03*
X11575D02*
D03*
X11260D02*
D03*
X10945D02*
D03*
X10630D02*
D03*
X10315D02*
D03*
X10000D02*
D03*
X15984Y4685D02*
D03*
X15669D02*
D03*
X15354D02*
D03*
X15039D02*
D03*
X14724D02*
D03*
X14409D02*
D03*
X14094D02*
D03*
X13780D02*
D03*
X13465D02*
D03*
X13150D02*
D03*
X12835D02*
D03*
X12520D02*
D03*
X12205D02*
D03*
X11890D02*
D03*
X11575D02*
D03*
X11260D02*
D03*
X10945D02*
D03*
X10630D02*
D03*
X10315D02*
D03*
X10000D02*
D03*
X15984Y5000D02*
D03*
X15669D02*
D03*
X15354D02*
D03*
X15039D02*
D03*
X14724D02*
D03*
X14409D02*
D03*
X14094D02*
D03*
X13780D02*
D03*
X13465D02*
D03*
X13150D02*
D03*
X12835D02*
D03*
X12520D02*
D03*
X12205D02*
D03*
X11890D02*
D03*
X11575D02*
D03*
X11260D02*
D03*
X10945D02*
D03*
X10630D02*
D03*
X10315D02*
D03*
X10000D02*
D03*
X15984Y5315D02*
D03*
X15669D02*
D03*
X15354D02*
D03*
X15039D02*
D03*
X14724D02*
D03*
X14409D02*
D03*
X14094D02*
D03*
X13780D02*
D03*
X13465D02*
D03*
X13150D02*
D03*
X12835D02*
D03*
X12520D02*
D03*
X12205D02*
D03*
X11890D02*
D03*
X11575D02*
D03*
X11260D02*
D03*
X10945D02*
D03*
X10630D02*
D03*
X10315D02*
D03*
X10000D02*
D03*
X15984Y5630D02*
D03*
X15669D02*
D03*
X15354D02*
D03*
X15039D02*
D03*
X14724D02*
D03*
X14409D02*
D03*
X14094D02*
D03*
X13780D02*
D03*
X13465D02*
D03*
X13150D02*
D03*
X12835D02*
D03*
X12520D02*
D03*
X12205D02*
D03*
X11890D02*
D03*
X11575D02*
D03*
X11260D02*
D03*
X10945D02*
D03*
X10630D02*
D03*
X10315D02*
D03*
X10000D02*
D03*
X15984Y5945D02*
D03*
X15669D02*
D03*
X15354D02*
D03*
X15039D02*
D03*
X14724D02*
D03*
X14409D02*
D03*
X14094D02*
D03*
X13780D02*
D03*
X13465D02*
D03*
X13150D02*
D03*
X12835D02*
D03*
X12520D02*
D03*
X12205D02*
D03*
X11890D02*
D03*
X11575D02*
D03*
X11260D02*
D03*
X10945D02*
D03*
X10630D02*
D03*
X10315D02*
D03*
X10000D02*
D03*
X15984Y6260D02*
D03*
X15669D02*
D03*
X15354D02*
D03*
X15039D02*
D03*
X14724D02*
D03*
X14409D02*
D03*
X14094D02*
D03*
X13780D02*
D03*
X13465D02*
D03*
X13150D02*
D03*
X12835D02*
D03*
X12520D02*
D03*
X12205D02*
D03*
X11890D02*
D03*
X11575D02*
D03*
X11260D02*
D03*
X10945D02*
D03*
X10630D02*
D03*
X10315D02*
D03*
X10000D02*
D03*
X15984Y6575D02*
D03*
X15669D02*
D03*
X15354D02*
D03*
X15039D02*
D03*
X14724D02*
D03*
X14409D02*
D03*
X14094D02*
D03*
X13780D02*
D03*
X13465D02*
D03*
X13150D02*
D03*
X12835D02*
D03*
X12520D02*
D03*
X12205D02*
D03*
X11890D02*
D03*
X11575D02*
D03*
X11260D02*
D03*
X10945D02*
D03*
X10630D02*
D03*
X10315D02*
D03*
X10000D02*
D03*
X15984Y6890D02*
D03*
X15669D02*
D03*
X15354D02*
D03*
X15039D02*
D03*
X14724D02*
D03*
X14409D02*
D03*
X14094D02*
D03*
X13780D02*
D03*
X13465D02*
D03*
X13150D02*
D03*
X12835D02*
D03*
X12520D02*
D03*
X12205D02*
D03*
X11890D02*
D03*
X11575D02*
D03*
X11260D02*
D03*
X10945D02*
D03*
X10630D02*
D03*
X10315D02*
D03*
X10000D02*
D03*
X15984Y7205D02*
D03*
X15669D02*
D03*
X15354D02*
D03*
X15039D02*
D03*
X14724D02*
D03*
X14409D02*
D03*
X14094D02*
D03*
X13780D02*
D03*
X13465D02*
D03*
X13150D02*
D03*
X12835D02*
D03*
X12520D02*
D03*
X12205D02*
D03*
X11890D02*
D03*
X11575D02*
D03*
X11260D02*
D03*
X10945D02*
D03*
X10630D02*
D03*
X10315D02*
D03*
X10000D02*
D03*
X15984Y7520D02*
D03*
X15669D02*
D03*
X15354D02*
D03*
X15039D02*
D03*
X14724D02*
D03*
X14409D02*
D03*
X14094D02*
D03*
X13780D02*
D03*
X13465D02*
D03*
X13150D02*
D03*
X12835D02*
D03*
X12520D02*
D03*
X12205D02*
D03*
X11890D02*
D03*
X11575D02*
D03*
X11260D02*
D03*
X10945D02*
D03*
X10630D02*
D03*
X10315D02*
D03*
X10000D02*
D03*
X15984Y7835D02*
D03*
X15669D02*
D03*
X15354D02*
D03*
X15039D02*
D03*
X14724D02*
D03*
X14409D02*
D03*
X14094D02*
D03*
X13780D02*
D03*
X13465D02*
D03*
X13150D02*
D03*
X12835D02*
D03*
X12520D02*
D03*
X12205D02*
D03*
X11890D02*
D03*
X11575D02*
D03*
X11260D02*
D03*
X10945D02*
D03*
X10630D02*
D03*
X10315D02*
D03*
X10000D02*
D03*
X15984Y8150D02*
D03*
X15669D02*
D03*
X15354D02*
D03*
X15039D02*
D03*
X14724D02*
D03*
X14409D02*
D03*
X14094D02*
D03*
X13780D02*
D03*
X13465D02*
D03*
X13150D02*
D03*
X12835D02*
D03*
X12520D02*
D03*
X12205D02*
D03*
X11890D02*
D03*
X11575D02*
D03*
X11260D02*
D03*
X10945D02*
D03*
X10630D02*
D03*
X10315D02*
D03*
X10000D02*
D03*
X15984Y8465D02*
D03*
X15669D02*
D03*
X15354D02*
D03*
X15039D02*
D03*
X14724D02*
D03*
X14409D02*
D03*
X14094D02*
D03*
X13780D02*
D03*
X13465D02*
D03*
X13150D02*
D03*
X12835D02*
D03*
X12520D02*
D03*
X12205D02*
D03*
X11890D02*
D03*
X11575D02*
D03*
X11260D02*
D03*
X10945D02*
D03*
X10630D02*
D03*
X10315D02*
D03*
X10000D02*
D03*
X15984Y8780D02*
D03*
X15669D02*
D03*
X15354D02*
D03*
X15039D02*
D03*
X14724D02*
D03*
X14409D02*
D03*
X14094D02*
D03*
X13780D02*
D03*
X13465D02*
D03*
X13150D02*
D03*
X12835D02*
D03*
X12520D02*
D03*
X12205D02*
D03*
X11890D02*
D03*
X11575D02*
D03*
X11260D02*
D03*
X10945D02*
D03*
X10630D02*
D03*
X10315D02*
D03*
X10000D02*
D03*
X15984Y9094D02*
D03*
X15669D02*
D03*
X15354D02*
D03*
X15039D02*
D03*
X14724D02*
D03*
X14409D02*
D03*
X14094D02*
D03*
X13780D02*
D03*
X13465D02*
D03*
X13150D02*
D03*
X12835D02*
D03*
X12520D02*
D03*
X12205D02*
D03*
X11890D02*
D03*
X11575D02*
D03*
X11260D02*
D03*
X10945D02*
D03*
X10630D02*
D03*
X10315D02*
D03*
X10000D02*
D03*
X15984Y9409D02*
D03*
X15669D02*
D03*
X15354D02*
D03*
X15039D02*
D03*
X14724D02*
D03*
X14409D02*
D03*
X14094D02*
D03*
X13780D02*
D03*
X13465D02*
D03*
X13150D02*
D03*
X12835D02*
D03*
X12520D02*
D03*
X12205D02*
D03*
X11890D02*
D03*
X11575D02*
D03*
X11260D02*
D03*
X10945D02*
D03*
X10630D02*
D03*
X10315D02*
D03*
X10000D02*
D03*
X15984Y9724D02*
D03*
X15669D02*
D03*
X15354D02*
D03*
X15039D02*
D03*
X14724D02*
D03*
X14409D02*
D03*
X14094D02*
D03*
X13780D02*
D03*
X13465D02*
D03*
X13150D02*
D03*
X12835D02*
D03*
X12520D02*
D03*
X12205D02*
D03*
X11890D02*
D03*
X11575D02*
D03*
X11260D02*
D03*
X10945D02*
D03*
X10630D02*
D03*
X10315D02*
D03*
X10000D02*
D03*
X15984Y10039D02*
D03*
X15669D02*
D03*
X15354D02*
D03*
X15039D02*
D03*
X14724D02*
D03*
X14409D02*
D03*
X14094D02*
D03*
X13780D02*
D03*
X13465D02*
D03*
X13150D02*
D03*
X12835D02*
D03*
X12520D02*
D03*
X12205D02*
D03*
X11890D02*
D03*
X11575D02*
D03*
X11260D02*
D03*
X10945D02*
D03*
X10630D02*
D03*
X10315D02*
D03*
X10000D02*
D03*
X15984Y10354D02*
D03*
X15669D02*
D03*
X15354D02*
D03*
X15039D02*
D03*
X14724D02*
D03*
X14409D02*
D03*
X14094D02*
D03*
X13780D02*
D03*
X13465D02*
D03*
X13150D02*
D03*
X12835D02*
D03*
X12520D02*
D03*
X12205D02*
D03*
X11890D02*
D03*
X11575D02*
D03*
X11260D02*
D03*
X10945D02*
D03*
X10630D02*
D03*
X10315D02*
D03*
X10000D02*
D03*
D105*
X1614Y10069D02*
D03*
Y11033D02*
D03*
X18740Y5659D02*
D03*
Y6624D02*
D03*
X17480Y7254D02*
D03*
Y6289D02*
D03*
X20866Y5285D02*
D03*
Y4321D02*
D03*
D106*
X17441Y3228D02*
D03*
Y3976D02*
D03*
X19803Y5492D02*
D03*
Y6240D02*
D03*
D107*
X17986Y10709D02*
D03*
X18313D02*
D03*
X11890Y11299D02*
D03*
X11563D02*
D03*
X25033Y11457D02*
D03*
X25360D02*
D03*
X1537Y3800D02*
D03*
X1863D02*
D03*
X3104Y1850D02*
D03*
X3431D02*
D03*
X2801D02*
D03*
X2474D02*
D03*
X25006Y9016D02*
D03*
X24679D02*
D03*
X20270Y6339D02*
D03*
X20596D02*
D03*
X17368Y10709D02*
D03*
X17041D02*
D03*
X2671Y4803D02*
D03*
X2998D02*
D03*
X23589Y6299D02*
D03*
X23262D02*
D03*
X16687Y9291D02*
D03*
X17014D02*
D03*
Y9606D02*
D03*
X16687D02*
D03*
X17014Y9921D02*
D03*
X16687D02*
D03*
X13537Y11181D02*
D03*
X13864D02*
D03*
X17368D02*
D03*
X17041D02*
D03*
X18931D02*
D03*
X19258D02*
D03*
D108*
X24685Y7368D02*
D03*
Y7041D02*
D03*
X25000Y7368D02*
D03*
Y7041D02*
D03*
X28819Y2250D02*
D03*
Y1923D02*
D03*
X23898Y7368D02*
D03*
Y7041D02*
D03*
X27362Y10663D02*
D03*
Y10990D02*
D03*
X26378D02*
D03*
Y10663D02*
D03*
X20945Y11344D02*
D03*
Y11018D02*
D03*
X21260D02*
D03*
Y11344D02*
D03*
X18740Y7407D02*
D03*
Y7081D02*
D03*
X18386D02*
D03*
Y7407D02*
D03*
X12835Y11096D02*
D03*
Y11423D02*
D03*
X24488Y4404D02*
D03*
Y4730D02*
D03*
X19094Y7407D02*
D03*
Y7081D02*
D03*
X21220Y7093D02*
D03*
Y6766D02*
D03*
X24134Y5242D02*
D03*
Y4915D02*
D03*
X2559Y10203D02*
D03*
Y9876D02*
D03*
X24370Y7368D02*
D03*
Y7041D02*
D03*
X28780Y2789D02*
D03*
Y3116D02*
D03*
X1500Y3263D02*
D03*
Y2937D02*
D03*
X5354Y4179D02*
D03*
Y3852D02*
D03*
X30512Y10939D02*
D03*
Y11266D02*
D03*
X28543D02*
D03*
Y10939D02*
D03*
X29528D02*
D03*
Y11266D02*
D03*
X20906Y6766D02*
D03*
Y7093D02*
D03*
X24213Y5742D02*
D03*
Y6069D02*
D03*
X20906Y7396D02*
D03*
Y7722D02*
D03*
X7559Y4730D02*
D03*
Y4404D02*
D03*
X6220D02*
D03*
Y4730D02*
D03*
X14724Y1923D02*
D03*
Y2250D02*
D03*
D109*
X2736Y10866D02*
D03*
X3484D02*
D03*
X15335Y11220D02*
D03*
X16083D02*
D03*
D110*
X27795Y10512D02*
D03*
Y11142D02*
D03*
X26811D02*
D03*
Y10512D02*
D03*
X30945D02*
D03*
Y11142D02*
D03*
X28976D02*
D03*
Y10512D02*
D03*
X29961D02*
D03*
Y11142D02*
D03*
X7126Y4134D02*
D03*
Y4764D02*
D03*
X6654D02*
D03*
Y4134D02*
D03*
D111*
X23041Y7165D02*
D03*
X22077D02*
D03*
X18474Y8150D02*
D03*
X17510D02*
D03*
X8179Y10512D02*
D03*
X9144D02*
D03*
D112*
X3628Y2200D02*
D03*
X3372D02*
D03*
X2622Y2200D02*
D03*
X2878D02*
D03*
X2333Y4803D02*
D03*
X2077D02*
D03*
X27136Y9961D02*
D03*
X26880D02*
D03*
X28002Y9961D02*
D03*
X27746D02*
D03*
X29498Y9961D02*
D03*
X29242D02*
D03*
X30364Y9961D02*
D03*
X30108D02*
D03*
X24970Y7835D02*
D03*
X24715D02*
D03*
Y9331D02*
D03*
X24970D02*
D03*
X19026Y10118D02*
D03*
X18770D02*
D03*
X29380Y1772D02*
D03*
X29124D02*
D03*
X29577Y2598D02*
D03*
X29321D02*
D03*
X29872D02*
D03*
X30128D02*
D03*
X30069Y1772D02*
D03*
X30325D02*
D03*
X29380Y2047D02*
D03*
X29124D02*
D03*
X29577Y2323D02*
D03*
X29321D02*
D03*
X29872D02*
D03*
X30128D02*
D03*
X30069Y2047D02*
D03*
X30325D02*
D03*
X24715Y9606D02*
D03*
X24970D02*
D03*
D113*
X5354Y2490D02*
D03*
Y2234D02*
D03*
X29528Y10344D02*
D03*
Y10600D02*
D03*
X30512D02*
D03*
Y10344D02*
D03*
X24134Y4360D02*
D03*
Y4616D02*
D03*
X19685Y4537D02*
D03*
Y4281D02*
D03*
X1024Y9498D02*
D03*
Y9242D02*
D03*
X28543Y10344D02*
D03*
Y10600D02*
D03*
D114*
X12205Y11083D02*
D03*
Y11437D02*
D03*
D115*
X4961Y1850D02*
D03*
X5315D02*
D03*
D116*
X19665Y6793D02*
D03*
X20413D02*
D03*
X20039Y7695D02*
D03*
D117*
X3350Y3400D02*
D03*
D118*
X2582Y3006D02*
D03*
Y3203D02*
D03*
Y3400D02*
D03*
Y3597D02*
D03*
Y3794D02*
D03*
X4118D02*
D03*
Y3597D02*
D03*
Y3400D02*
D03*
Y3203D02*
D03*
Y3006D02*
D03*
D119*
X2956Y4168D02*
D03*
X3153D02*
D03*
X3350D02*
D03*
X3547D02*
D03*
X3744D02*
D03*
Y2632D02*
D03*
X3547D02*
D03*
X3350D02*
D03*
X3153D02*
D03*
X2956D02*
D03*
M02*
