G04 Layer_Color=16711935*
%FSLAX24Y24*%
%MOIN*%
G70*
G01*
G75*
%ADD42C,0.0060*%
%ADD51C,0.0100*%
%ADD66C,0.0040*%
%ADD78C,0.0039*%
%ADD81C,0.0079*%
%ADD142C,0.0020*%
%ADD144C,0.0197*%
%ADD145C,0.0059*%
%ADD146C,0.0032*%
%ADD147C,0.0157*%
D42*
X21850Y8110D02*
X24016D01*
Y11339D01*
X21575D02*
X24016D01*
X21575Y8386D02*
Y11339D01*
Y8386D02*
X21850Y8110D01*
D51*
X-30400Y-8600D02*
X-30000D01*
X-30200D01*
Y-9200D01*
X-29700D02*
X-29500D01*
X-29400Y-9100D01*
Y-8900D01*
X-29500Y-8800D01*
X-29700D01*
X-29800Y-8900D01*
Y-9100D01*
X-29700Y-9200D01*
X-29200Y-9400D02*
Y-8800D01*
X-28900D01*
X-28801Y-8900D01*
Y-9100D01*
X-28900Y-9200D01*
X-29200D01*
X-28001D02*
Y-8800D01*
X-27801Y-8600D01*
X-27601Y-8800D01*
Y-9200D01*
Y-8900D01*
X-28001D01*
X-27401Y-9200D02*
X-27101D01*
X-27001Y-9100D01*
X-27101Y-9000D01*
X-27301D01*
X-27401Y-8900D01*
X-27301Y-8800D01*
X-27001D01*
X-26801Y-9200D02*
X-26501D01*
X-26401Y-9100D01*
X-26501Y-9000D01*
X-26701D01*
X-26801Y-8900D01*
X-26701Y-8800D01*
X-26401D01*
X-25901Y-9200D02*
X-26101D01*
X-26201Y-9100D01*
Y-8900D01*
X-26101Y-8800D01*
X-25901D01*
X-25801Y-8900D01*
Y-9000D01*
X-26201D01*
X-25602Y-9200D02*
Y-8800D01*
X-25502D01*
X-25402Y-8900D01*
Y-9200D01*
Y-8900D01*
X-25302Y-8800D01*
X-25202Y-8900D01*
Y-9200D01*
X-25002Y-8600D02*
Y-9200D01*
X-24702D01*
X-24602Y-9100D01*
Y-9000D01*
Y-8900D01*
X-24702Y-8800D01*
X-25002D01*
X-24402Y-9200D02*
X-24202D01*
X-24302D01*
Y-8600D01*
X-24402D01*
X-23902Y-8800D02*
Y-9100D01*
X-23802Y-9200D01*
X-23502D01*
Y-9300D01*
X-23602Y-9400D01*
X-23702D01*
X-23502Y-9200D02*
Y-8800D01*
D66*
X27633Y10227D02*
X27957D01*
X28045Y10315D01*
Y11427D01*
X27545Y10315D02*
X27633Y10227D01*
X27545Y10315D02*
Y11427D01*
X28045D01*
X19439Y11019D02*
Y11343D01*
Y11019D02*
X19528Y10931D01*
X20639D01*
X19439Y11343D02*
X19528Y11431D01*
X20639D01*
Y10931D02*
Y11431D01*
X18750Y10931D02*
Y11431D01*
X17638D02*
X18750D01*
X17550Y11343D02*
X17638Y11431D01*
Y10931D02*
X18750D01*
X17550Y11019D02*
X17638Y10931D01*
X17550Y11019D02*
Y11343D01*
X6492Y5049D02*
X6815D01*
X6404Y4961D02*
X6492Y5049D01*
X6404Y3849D02*
Y4961D01*
X6815Y5049D02*
X6904Y4961D01*
Y3849D02*
Y4961D01*
X6404Y3849D02*
X6904D01*
X6876D02*
X7376D01*
Y4961D01*
X7288Y5049D02*
X7376Y4961D01*
X6876Y3849D02*
Y4961D01*
X6964Y5049D01*
X7288D01*
X29799Y10227D02*
X30122D01*
X30211Y10315D01*
Y11427D01*
X29711Y10315D02*
X29799Y10227D01*
X29711Y10315D02*
Y11427D01*
X30211D01*
X28726D02*
X29226D01*
X28726Y10315D02*
Y11427D01*
Y10315D02*
X28815Y10227D01*
X29226Y10315D02*
Y11427D01*
X29138Y10227D02*
X29226Y10315D01*
X28815Y10227D02*
X29138D01*
X30783D02*
X31107D01*
X31195Y10315D01*
Y11427D01*
X30695Y10315D02*
X30783Y10227D01*
X30695Y10315D02*
Y11427D01*
X31195D01*
X26561D02*
X27061D01*
X26561Y10315D02*
Y11427D01*
Y10315D02*
X26649Y10227D01*
X27061Y10315D02*
Y11427D01*
X26973Y10227D02*
X27061Y10315D01*
X26649Y10227D02*
X26973D01*
D78*
X18110Y5157D02*
X19291D01*
X18110Y4173D02*
Y5157D01*
X19291Y4478D02*
Y5157D01*
X18986Y4173D02*
X19291Y4478D01*
X18110Y4173D02*
X18986D01*
X20276Y9715D02*
Y10728D01*
X20069Y9508D02*
X20276Y9715D01*
X19567Y9508D02*
X20069D01*
X19567D02*
Y10728D01*
X20276D01*
X19589Y6944D02*
X20639D01*
X19439Y7094D02*
X19589Y6944D01*
X19439Y7094D02*
Y7544D01*
X20639D01*
Y6944D02*
Y7544D01*
X1726Y1685D02*
Y2645D01*
X1266D02*
X1726D01*
X1266Y1685D02*
Y2645D01*
Y1685D02*
X1726D01*
X2779Y2593D02*
X4157D01*
X2543Y2829D02*
X2779Y2593D01*
X2543Y2829D02*
Y4207D01*
X4157D01*
Y2593D02*
Y4207D01*
X23780Y4291D02*
Y5866D01*
X22215D02*
X23780D01*
X22215Y4528D02*
Y5866D01*
Y4528D02*
X22451Y4291D01*
X23780D01*
X2441Y10472D02*
Y11260D01*
X3780D01*
Y10472D02*
Y11260D01*
X2441Y10472D02*
X3780D01*
X1683Y9646D02*
X2559D01*
X1378Y9341D02*
X1683Y9646D01*
X1378Y8661D02*
Y9341D01*
X2559Y8661D02*
Y9646D01*
X1378Y8661D02*
X2559D01*
X2874Y8937D02*
X3898D01*
X2874D02*
Y10197D01*
X3898D01*
Y8937D02*
Y10197D01*
X17992Y4409D02*
Y5669D01*
X16968D02*
X17992D01*
X16968Y4409D02*
Y5669D01*
Y4409D02*
X17992D01*
X17047Y2933D02*
X17835D01*
X17047D02*
Y4272D01*
X17835D01*
Y2933D02*
Y4272D01*
X15039Y11614D02*
X16378D01*
X15039Y10827D02*
Y11614D01*
Y10827D02*
X16378D01*
Y11614D01*
X19409Y5197D02*
Y6535D01*
Y5197D02*
X20197D01*
Y6535D01*
X19409D02*
X20197D01*
X24587Y8464D02*
Y8301D01*
X24619Y8268D01*
X24685D01*
X24718Y8301D01*
Y8464D01*
X24783Y8301D02*
X24816Y8268D01*
X24882D01*
X24915Y8301D01*
Y8432D01*
X24882Y8464D01*
X24816D01*
X24783Y8432D01*
Y8399D01*
X24816Y8366D01*
X24915D01*
X18996Y4567D02*
Y4731D01*
X18963Y4764D01*
X18898D01*
X18865Y4731D01*
Y4567D01*
X18668D02*
X18799D01*
Y4665D01*
X18734Y4633D01*
X18701D01*
X18668Y4665D01*
Y4731D01*
X18701Y4764D01*
X18766D01*
X18799Y4731D01*
X20187Y10000D02*
Y10164D01*
X20154Y10197D01*
X20089D01*
X20056Y10164D01*
Y10000D01*
X19859D02*
X19925Y10033D01*
X19990Y10098D01*
Y10164D01*
X19957Y10197D01*
X19892D01*
X19859Y10164D01*
Y10131D01*
X19892Y10098D01*
X19990D01*
X20258Y7311D02*
Y7180D01*
X20291Y7147D01*
X20357D01*
X20389Y7180D01*
Y7311D01*
X20357Y7344D01*
X20291D01*
X20324Y7279D02*
X20258Y7344D01*
X20291D02*
X20258Y7311D01*
X20193Y7344D02*
X20127D01*
X20160D01*
Y7147D01*
X20193Y7180D01*
X3193Y2957D02*
X3455D01*
X3507Y3010D01*
Y3115D01*
X3455Y3167D01*
X3193D01*
X3507Y3482D02*
Y3272D01*
X3298Y3482D01*
X3245D01*
X3193Y3429D01*
Y3324D01*
X3245Y3272D01*
X22825Y4715D02*
X23087D01*
X23140Y4767D01*
Y4872D01*
X23087Y4924D01*
X22825D01*
X22877Y5029D02*
X22825Y5082D01*
Y5187D01*
X22877Y5239D01*
X22930D01*
X22982Y5187D01*
X23035Y5239D01*
X23087D01*
X23140Y5187D01*
Y5082D01*
X23087Y5029D01*
X23035D01*
X22982Y5082D01*
X22930Y5029D01*
X22877D01*
X22982Y5082D02*
Y5187D01*
X3041Y10964D02*
X3002Y11004D01*
X2923D01*
X2884Y10964D01*
Y10807D01*
X2923Y10768D01*
X3002D01*
X3041Y10807D01*
X3277Y11004D02*
X3199Y10964D01*
X3120Y10886D01*
Y10807D01*
X3159Y10768D01*
X3238D01*
X3277Y10807D01*
Y10846D01*
X3238Y10886D01*
X3120D01*
X1673Y9252D02*
Y9088D01*
X1706Y9055D01*
X1772D01*
X1804Y9088D01*
Y9252D01*
X1870Y9055D02*
X1936D01*
X1903D01*
Y9252D01*
X1870Y9219D01*
X3269Y9319D02*
X3466D01*
Y9450D01*
Y9516D02*
Y9582D01*
Y9549D01*
X3269D01*
X3302Y9516D01*
X17364Y4792D02*
X17561D01*
Y4923D01*
Y5087D02*
X17364D01*
X17462Y4989D01*
Y5120D01*
X17343Y3533D02*
X17303Y3494D01*
Y3415D01*
X17343Y3376D01*
X17500D01*
X17539Y3415D01*
Y3494D01*
X17500Y3533D01*
X17539Y3612D02*
Y3691D01*
Y3651D01*
X17303D01*
X17343Y3612D01*
X17303Y3809D02*
Y3966D01*
X17343D01*
X17500Y3809D01*
X17539D01*
X15778Y11122D02*
X15817Y11083D01*
X15896D01*
X15935Y11122D01*
Y11280D01*
X15896Y11319D01*
X15817D01*
X15778Y11280D01*
X15699Y11319D02*
X15620D01*
X15660D01*
Y11083D01*
X15699Y11122D01*
X15384Y11319D02*
Y11083D01*
X15502Y11201D01*
X15345D01*
X19902Y5935D02*
X19941Y5974D01*
Y6053D01*
X19902Y6093D01*
X19744D01*
X19705Y6053D01*
Y5974D01*
X19744Y5935D01*
X19705Y5699D02*
Y5856D01*
X19862Y5699D01*
X19902D01*
X19941Y5738D01*
Y5817D01*
X19902Y5856D01*
X19705Y5502D02*
X19941D01*
X19823Y5620D01*
Y5463D01*
D81*
X4528Y5551D02*
Y10669D01*
X4921Y11063D01*
X7677D01*
Y5551D02*
Y11063D01*
X4528Y5551D02*
X7677D01*
X31028Y4493D02*
Y9293D01*
X30628Y9693D02*
X31028Y9293D01*
X25428Y9693D02*
X30628D01*
X25428Y4493D02*
Y9693D01*
Y4493D02*
X31028D01*
X9646Y4016D02*
X16339D01*
Y10709D01*
X10039D02*
X16339D01*
X9646Y10315D02*
X10039Y10709D01*
X9646Y4016D02*
Y10315D01*
D142*
X24518Y8012D02*
X25167D01*
Y8681D01*
X24596D02*
X25167D01*
X24518Y8602D02*
X24596Y8681D01*
X24518Y8012D02*
Y8602D01*
X28976Y1772D02*
Y2402D01*
X28661Y1772D02*
X28976D01*
X28661D02*
Y2402D01*
X28976D01*
X12382Y10906D02*
Y11614D01*
X12028D02*
X12382D01*
X12028Y10906D02*
Y11614D01*
Y10906D02*
X12382D01*
X18465Y10551D02*
Y10866D01*
X17835D02*
X18465D01*
X17835Y10551D02*
Y10866D01*
Y10551D02*
X18465D01*
X14567Y1772D02*
Y2402D01*
X14882D01*
Y1772D02*
Y2402D01*
X14567Y1772D02*
X14882D01*
X28415Y10728D02*
X28671D01*
X28415Y10217D02*
Y10728D01*
Y10217D02*
X28671D01*
Y10728D01*
X24587Y9478D02*
Y9734D01*
Y9478D02*
X25098D01*
Y9734D01*
X24587D02*
X25098D01*
X19409Y11024D02*
Y11339D01*
X18780D02*
X19409D01*
X18780Y11024D02*
Y11339D01*
Y11024D02*
X19409D01*
X16890D02*
X17520D01*
X16890D02*
Y11339D01*
X17520D01*
Y11024D02*
Y11339D01*
X29941Y1919D02*
X30453D01*
X29941D02*
Y2175D01*
X30453D01*
Y1919D02*
Y2175D01*
X29744Y2195D02*
X30256D01*
X29744D02*
Y2451D01*
X30256D01*
Y2195D02*
Y2451D01*
X29193D02*
X29705D01*
Y2195D02*
Y2451D01*
X29193Y2195D02*
X29705D01*
X29193D02*
Y2451D01*
X28996Y2175D02*
X29508D01*
Y1919D02*
Y2175D01*
X28996Y1919D02*
X29508D01*
X28996D02*
Y2175D01*
X29941Y1644D02*
X30453D01*
X29941D02*
Y1900D01*
X30453D01*
Y1644D02*
Y1900D01*
X29744Y2470D02*
X30256D01*
X29744D02*
Y2726D01*
X30256D01*
Y2470D02*
Y2726D01*
X29193D02*
X29705D01*
Y2470D02*
Y2726D01*
X29193Y2470D02*
X29705D01*
X29193D02*
Y2726D01*
X28996Y1900D02*
X29508D01*
Y1644D02*
Y1900D01*
X28996Y1644D02*
X29508D01*
X28996D02*
Y1900D01*
X13386Y11339D02*
X14016D01*
Y11024D02*
Y11339D01*
X13386Y11024D02*
X14016D01*
X13386D02*
Y11339D01*
X16535Y9764D02*
X17165D01*
X16535D02*
Y10079D01*
X17165D01*
Y9764D02*
Y10079D01*
X16535Y9449D02*
X17165D01*
X16535D02*
Y9764D01*
X17165D01*
Y9449D02*
Y9764D01*
Y9134D02*
Y9449D01*
X16535D02*
X17165D01*
X16535Y9134D02*
Y9449D01*
Y9134D02*
X17165D01*
X6063Y4882D02*
X6378D01*
X6063Y4252D02*
Y4882D01*
Y4252D02*
X6378D01*
Y4882D01*
X7717Y4252D02*
Y4882D01*
X7402Y4252D02*
X7717D01*
X7402D02*
Y4882D01*
X7717D01*
X896Y9114D02*
Y9626D01*
X1152D01*
Y9114D02*
Y9626D01*
X896Y9114D02*
X1152D01*
X20748Y7874D02*
X21063D01*
X20748Y7244D02*
Y7874D01*
Y7244D02*
X21063D01*
Y7874D01*
X19557Y4665D02*
X19813D01*
X19557Y4154D02*
Y4665D01*
Y4154D02*
X19813D01*
Y4665D01*
X24055Y5591D02*
Y6220D01*
X24370D01*
Y5591D02*
Y6220D01*
X24055Y5591D02*
X24370D01*
X24262Y4232D02*
Y4744D01*
X24006Y4232D02*
X24262D01*
X24006D02*
Y4744D01*
X24262D01*
X23110Y6142D02*
X23740D01*
X23110D02*
Y6457D01*
X23740D01*
Y6142D02*
Y6457D01*
X20748Y6614D02*
Y7244D01*
X21063D01*
Y6614D02*
Y7244D01*
X20748Y6614D02*
X21063D01*
X29370Y11417D02*
X29685D01*
X29370Y10787D02*
Y11417D01*
Y10787D02*
X29685D01*
Y11417D01*
X28701Y10787D02*
Y11417D01*
X28386Y10787D02*
X28701D01*
X28386D02*
Y11417D01*
X28701D01*
X30354D02*
X30669D01*
X30354Y10787D02*
Y11417D01*
Y10787D02*
X30669D01*
Y11417D01*
X5512Y3701D02*
Y4331D01*
X5197Y3701D02*
X5512D01*
X5197D02*
Y4331D01*
X5512D01*
X3150Y4646D02*
Y4961D01*
X2520D02*
X3150D01*
X2520Y4646D02*
Y4961D01*
Y4646D02*
X3150D01*
X1657Y2785D02*
Y3415D01*
X1343Y2785D02*
X1657D01*
X1343D02*
Y3415D01*
X1657D01*
X28622Y2638D02*
Y3268D01*
X28937D01*
Y2638D02*
Y3268D01*
X28622Y2638D02*
X28937D01*
X18642Y10246D02*
X19154D01*
Y9990D02*
Y10246D01*
X18642Y9990D02*
X19154D01*
X18642D02*
Y10246D01*
X24528Y6890D02*
Y7520D01*
X24213Y6890D02*
X24528D01*
X24213D02*
Y7520D01*
X24528D01*
X5492Y1673D02*
Y2028D01*
X4783Y1673D02*
X5492D01*
X4783D02*
Y2028D01*
X5492D01*
X16890Y10551D02*
X17520D01*
X16890D02*
Y10866D01*
X17520D01*
Y10551D02*
Y10866D01*
X2402Y9724D02*
X2717D01*
Y10354D01*
X2402D02*
X2717D01*
X2402Y9724D02*
Y10354D01*
X24291Y4764D02*
Y5394D01*
X23976Y4764D02*
X24291D01*
X23976D02*
Y5394D01*
X24291D01*
X21063Y6614D02*
X21378D01*
Y7244D01*
X21063D02*
X21378D01*
X21063Y6614D02*
Y7244D01*
X19252Y6929D02*
Y7559D01*
X18937Y6929D02*
X19252D01*
X18937D02*
Y7559D01*
X19252D01*
X20748Y6181D02*
Y6496D01*
X20118D02*
X20748D01*
X20118Y6181D02*
Y6496D01*
Y6181D02*
X20748D01*
X24331Y4252D02*
Y4882D01*
X24646D01*
Y4252D02*
Y4882D01*
X24331Y4252D02*
X24646D01*
X24528Y8858D02*
Y9173D01*
Y8858D02*
X25157D01*
Y9173D01*
X24528D02*
X25157D01*
X30640Y10217D02*
Y10728D01*
X30384Y10217D02*
X30640D01*
X30384D02*
Y10728D01*
X30640D01*
X29400D02*
X29656D01*
X29400Y10217D02*
Y10728D01*
Y10217D02*
X29656D01*
Y10728D01*
X24587Y9459D02*
X25098D01*
Y9203D02*
Y9459D01*
X24587Y9203D02*
X25098D01*
X24587D02*
Y9459D01*
Y7707D02*
Y7963D01*
Y7707D02*
X25098D01*
Y7963D01*
X24587D02*
X25098D01*
X29980Y9833D02*
X30492D01*
X29980D02*
Y10089D01*
X30492D01*
Y9833D02*
Y10089D01*
X29114Y9833D02*
Y10089D01*
Y9833D02*
X29626D01*
Y10089D01*
X29114D02*
X29626D01*
X27618Y9833D02*
X28130D01*
X27618D02*
Y10089D01*
X28130D01*
Y9833D02*
Y10089D01*
X26752Y9833D02*
Y10089D01*
Y9833D02*
X27264D01*
Y10089D01*
X26752D02*
X27264D01*
X5482Y2106D02*
Y2618D01*
X5226Y2106D02*
X5482D01*
X5226D02*
Y2618D01*
X5482D01*
X1949Y4675D02*
Y4931D01*
Y4675D02*
X2461D01*
Y4931D01*
X1949D02*
X2461D01*
X2323Y1693D02*
Y2008D01*
Y1693D02*
X2953D01*
Y2008D01*
X2323D02*
X2953D01*
X2494Y2328D02*
X3006D01*
Y2072D02*
Y2328D01*
X2494Y2072D02*
X3006D01*
X2494D02*
Y2328D01*
X3244Y2072D02*
X3756D01*
X3244D02*
Y2328D01*
X3756D01*
Y2072D02*
Y2328D01*
X3583Y1693D02*
Y2008D01*
X2953D02*
X3583D01*
X2953Y1693D02*
Y2008D01*
Y1693D02*
X3583D01*
X1385Y3957D02*
X2015D01*
Y3643D02*
Y3957D01*
X1385Y3643D02*
X2015D01*
X1385D02*
Y3957D01*
X12677Y10945D02*
Y11575D01*
X12992D01*
Y10945D02*
Y11575D01*
X12677Y10945D02*
X12992D01*
X18228Y7559D02*
X18543D01*
X18228Y6929D02*
Y7559D01*
Y6929D02*
X18543D01*
Y7559D01*
X18898Y6929D02*
Y7559D01*
X18583Y6929D02*
X18898D01*
X18583D02*
Y7559D01*
X18898D01*
X21102Y11496D02*
X21417D01*
X21102Y10866D02*
Y11496D01*
Y10866D02*
X21417D01*
Y11496D01*
X21102Y10866D02*
Y11496D01*
X20787Y10866D02*
X21102D01*
X20787D02*
Y11496D01*
X21102D01*
X26220Y10512D02*
X26535D01*
Y11142D01*
X26220D02*
X26535D01*
X26220Y10512D02*
Y11142D01*
X27205Y10512D02*
Y11142D01*
X27520D01*
Y10512D02*
Y11142D01*
X27205Y10512D02*
X27520D01*
X23740Y6890D02*
X24055D01*
Y7520D01*
X23740D02*
X24055D01*
X23740Y6890D02*
Y7520D01*
X25157Y6890D02*
Y7520D01*
X24843Y6890D02*
X25157D01*
X24843D02*
Y7520D01*
X25157D01*
X24843Y6890D02*
Y7520D01*
X24528Y6890D02*
X24843D01*
X24528D02*
Y7520D01*
X24843D01*
X24882Y11614D02*
X25512D01*
Y11299D02*
Y11614D01*
X24882Y11299D02*
X25512D01*
X24882D02*
Y11614D01*
X11411Y11142D02*
X12041D01*
X11411D02*
Y11457D01*
X12041D01*
Y11142D02*
Y11457D01*
X1546Y2035D02*
X1428D01*
Y2094D01*
X1448Y2114D01*
X1487D01*
X1507Y2094D01*
Y2035D01*
Y2075D02*
X1546Y2114D01*
Y2232D02*
Y2153D01*
X1467Y2232D01*
X1448D01*
X1428Y2212D01*
Y2173D01*
X1448Y2153D01*
X28780Y2283D02*
X28898D01*
Y2224D01*
X28878Y2205D01*
X28839D01*
X28819Y2224D01*
Y2283D01*
Y2244D02*
X28780Y2205D01*
Y2087D02*
Y2165D01*
X28858Y2087D01*
X28878D01*
X28898Y2106D01*
Y2146D01*
X28878Y2165D01*
Y2047D02*
X28898Y2028D01*
Y1988D01*
X28878Y1969D01*
X28858D01*
X28839Y1988D01*
X28819Y1969D01*
X28799D01*
X28780Y1988D01*
Y2028D01*
X28799Y2047D01*
X28819D01*
X28839Y2028D01*
X28858Y2047D01*
X28878D01*
X28839Y2028D02*
Y1988D01*
X12136Y11112D02*
X12254D01*
Y11191D01*
X12156Y11230D02*
X12136Y11250D01*
Y11289D01*
X12156Y11309D01*
X12175D01*
X12195Y11289D01*
Y11270D01*
Y11289D01*
X12215Y11309D01*
X12234D01*
X12254Y11289D01*
Y11250D01*
X12234Y11230D01*
X18268Y10650D02*
X18287Y10630D01*
X18327D01*
X18346Y10650D01*
Y10728D01*
X18327Y10748D01*
X18287D01*
X18268Y10728D01*
X18228Y10748D02*
X18189D01*
X18209D01*
Y10630D01*
X18228Y10650D01*
X18130Y10728D02*
X18110Y10748D01*
X18071D01*
X18051Y10728D01*
Y10650D01*
X18071Y10630D01*
X18110D01*
X18130Y10650D01*
Y10669D01*
X18110Y10689D01*
X18051D01*
X14764Y1890D02*
X14646D01*
Y1949D01*
X14665Y1968D01*
X14705D01*
X14724Y1949D01*
Y1890D01*
Y1929D02*
X14764Y1968D01*
X14744Y2008D02*
X14764Y2028D01*
Y2067D01*
X14744Y2087D01*
X14665D01*
X14646Y2067D01*
Y2028D01*
X14665Y2008D01*
X14685D01*
X14705Y2028D01*
Y2087D01*
X28583Y10581D02*
X28602Y10600D01*
Y10640D01*
X28583Y10659D01*
X28504D01*
X28484Y10640D01*
Y10600D01*
X28504Y10581D01*
X28484Y10482D02*
X28602D01*
X28543Y10541D01*
Y10463D01*
X28484Y10345D02*
Y10423D01*
X28563Y10345D01*
X28583D01*
X28602Y10364D01*
Y10404D01*
X28583Y10423D01*
X24656Y9547D02*
Y9665D01*
X24715D01*
X24734Y9646D01*
Y9606D01*
X24715Y9587D01*
X24656D01*
X24695D02*
X24734Y9547D01*
X24852D02*
X24774D01*
X24852Y9626D01*
Y9646D01*
X24833Y9665D01*
X24793D01*
X24774Y9646D01*
X24892D02*
X24911Y9665D01*
X24951D01*
X24970Y9646D01*
Y9626D01*
X24951Y9606D01*
X24931D01*
X24951D01*
X24970Y9587D01*
Y9567D01*
X24951Y9547D01*
X24911D01*
X24892Y9567D01*
X19291Y11220D02*
Y11102D01*
X19232D01*
X19213Y11122D01*
Y11161D01*
X19232Y11181D01*
X19291D01*
X19252D02*
X19213Y11220D01*
X19173D02*
X19134D01*
X19154D01*
Y11102D01*
X19173Y11122D01*
X18996Y11102D02*
X19075D01*
Y11161D01*
X19036Y11142D01*
X19016D01*
X18996Y11161D01*
Y11201D01*
X19016Y11220D01*
X19055D01*
X19075Y11201D01*
X17402Y11220D02*
Y11102D01*
X17343D01*
X17323Y11122D01*
Y11161D01*
X17343Y11181D01*
X17402D01*
X17362D02*
X17323Y11220D01*
X17284D02*
X17244D01*
X17264D01*
Y11102D01*
X17284Y11122D01*
X17185D02*
X17165Y11102D01*
X17126D01*
X17106Y11122D01*
Y11142D01*
X17126Y11161D01*
X17146D01*
X17126D01*
X17106Y11181D01*
Y11201D01*
X17126Y11220D01*
X17165D01*
X17185Y11201D01*
X30384Y2106D02*
Y1988D01*
X30325D01*
X30305Y2008D01*
Y2047D01*
X30325Y2067D01*
X30384D01*
X30345D02*
X30305Y2106D01*
X30266Y2008D02*
X30246Y1988D01*
X30207D01*
X30187Y2008D01*
Y2028D01*
X30207Y2047D01*
X30226D01*
X30207D01*
X30187Y2067D01*
Y2087D01*
X30207Y2106D01*
X30246D01*
X30266Y2087D01*
X30148Y1988D02*
X30069D01*
Y2008D01*
X30148Y2087D01*
Y2106D01*
X30187Y2382D02*
Y2264D01*
X30128D01*
X30108Y2283D01*
Y2323D01*
X30128Y2343D01*
X30187D01*
X30148D02*
X30108Y2382D01*
X30069Y2283D02*
X30049Y2264D01*
X30010D01*
X29990Y2283D01*
Y2303D01*
X30010Y2323D01*
X30030D01*
X30010D01*
X29990Y2343D01*
Y2362D01*
X30010Y2382D01*
X30049D01*
X30069Y2362D01*
X29892Y2382D02*
Y2264D01*
X29951Y2323D01*
X29872D01*
X29262Y2264D02*
Y2382D01*
X29321D01*
X29341Y2362D01*
Y2323D01*
X29321Y2303D01*
X29262D01*
X29301D02*
X29341Y2264D01*
X29380Y2362D02*
X29400Y2382D01*
X29439D01*
X29459Y2362D01*
Y2342D01*
X29439Y2323D01*
X29419D01*
X29439D01*
X29459Y2303D01*
Y2283D01*
X29439Y2264D01*
X29400D01*
X29380Y2283D01*
X29498Y2264D02*
X29537D01*
X29518D01*
Y2382D01*
X29498Y2362D01*
X29065Y1988D02*
Y2106D01*
X29124D01*
X29144Y2087D01*
Y2047D01*
X29124Y2028D01*
X29065D01*
X29104D02*
X29144Y1988D01*
X29183Y2087D02*
X29203Y2106D01*
X29242D01*
X29262Y2087D01*
Y2067D01*
X29242Y2047D01*
X29222D01*
X29242D01*
X29262Y2028D01*
Y2008D01*
X29242Y1988D01*
X29203D01*
X29183Y2008D01*
X29301Y2087D02*
X29321Y2106D01*
X29360D01*
X29380Y2087D01*
Y2008D01*
X29360Y1988D01*
X29321D01*
X29301Y2008D01*
Y2087D01*
X30384Y1831D02*
Y1713D01*
X30325D01*
X30305Y1732D01*
Y1772D01*
X30325Y1791D01*
X30384D01*
X30345D02*
X30305Y1831D01*
X30266Y1732D02*
X30246Y1713D01*
X30207D01*
X30187Y1732D01*
Y1752D01*
X30207Y1772D01*
X30226D01*
X30207D01*
X30187Y1791D01*
Y1811D01*
X30207Y1831D01*
X30246D01*
X30266Y1811D01*
X30069Y1713D02*
X30108Y1732D01*
X30148Y1772D01*
Y1811D01*
X30128Y1831D01*
X30089D01*
X30069Y1811D01*
Y1791D01*
X30089Y1772D01*
X30148D01*
X30187Y2657D02*
Y2539D01*
X30128D01*
X30108Y2559D01*
Y2598D01*
X30128Y2618D01*
X30187D01*
X30148D02*
X30108Y2657D01*
X30069Y2559D02*
X30049Y2539D01*
X30010D01*
X29990Y2559D01*
Y2579D01*
X30010Y2598D01*
X30030D01*
X30010D01*
X29990Y2618D01*
Y2638D01*
X30010Y2657D01*
X30049D01*
X30069Y2638D01*
X29872Y2539D02*
X29951D01*
Y2598D01*
X29912Y2579D01*
X29892D01*
X29872Y2598D01*
Y2638D01*
X29892Y2657D01*
X29931D01*
X29951Y2638D01*
X29262Y2539D02*
Y2657D01*
X29321D01*
X29341Y2638D01*
Y2598D01*
X29321Y2579D01*
X29262D01*
X29301D02*
X29341Y2539D01*
X29380Y2638D02*
X29400Y2657D01*
X29439D01*
X29459Y2638D01*
Y2618D01*
X29439Y2598D01*
X29419D01*
X29439D01*
X29459Y2579D01*
Y2559D01*
X29439Y2539D01*
X29400D01*
X29380Y2559D01*
X29577Y2539D02*
X29498D01*
X29577Y2618D01*
Y2638D01*
X29557Y2657D01*
X29518D01*
X29498Y2638D01*
X29065Y1713D02*
Y1831D01*
X29124D01*
X29144Y1811D01*
Y1772D01*
X29124Y1752D01*
X29065D01*
X29104D02*
X29144Y1713D01*
X29262D02*
X29183D01*
X29262Y1791D01*
Y1811D01*
X29242Y1831D01*
X29203D01*
X29183Y1811D01*
X29301Y1732D02*
X29321Y1713D01*
X29360D01*
X29380Y1732D01*
Y1811D01*
X29360Y1831D01*
X29321D01*
X29301Y1811D01*
Y1791D01*
X29321Y1772D01*
X29380D01*
X13504Y11142D02*
Y11260D01*
X13563D01*
X13583Y11240D01*
Y11201D01*
X13563Y11181D01*
X13504D01*
X13543D02*
X13583Y11142D01*
X13622Y11240D02*
X13642Y11260D01*
X13681D01*
X13701Y11240D01*
Y11220D01*
X13681Y11201D01*
X13701Y11181D01*
Y11161D01*
X13681Y11142D01*
X13642D01*
X13622Y11161D01*
Y11181D01*
X13642Y11201D01*
X13622Y11220D01*
Y11240D01*
X13642Y11201D02*
X13681D01*
X17047Y9961D02*
Y9843D01*
X16988D01*
X16969Y9862D01*
Y9902D01*
X16988Y9921D01*
X17047D01*
X17008D02*
X16969Y9961D01*
X16929D02*
X16890D01*
X16909D01*
Y9843D01*
X16929Y9862D01*
X16752Y9961D02*
X16831D01*
X16752Y9882D01*
Y9862D01*
X16772Y9843D01*
X16811D01*
X16831Y9862D01*
X17047Y9646D02*
Y9528D01*
X16988D01*
X16969Y9547D01*
Y9587D01*
X16988Y9606D01*
X17047D01*
X17008D02*
X16969Y9646D01*
X16929D02*
X16890D01*
X16909D01*
Y9528D01*
X16929Y9547D01*
X16831Y9646D02*
X16791D01*
X16811D01*
Y9528D01*
X16831Y9547D01*
X17047Y9331D02*
Y9213D01*
X16988D01*
X16969Y9232D01*
Y9272D01*
X16988Y9291D01*
X17047D01*
X17008D02*
X16969Y9331D01*
X16929D02*
X16890D01*
X16909D01*
Y9213D01*
X16929Y9232D01*
X16831D02*
X16811Y9213D01*
X16772D01*
X16752Y9232D01*
Y9311D01*
X16772Y9331D01*
X16811D01*
X16831Y9311D01*
Y9232D01*
X6181Y4764D02*
X6299D01*
Y4705D01*
X6279Y4685D01*
X6240D01*
X6220Y4705D01*
Y4764D01*
Y4724D02*
X6181Y4685D01*
X6299Y4567D02*
X6279Y4606D01*
X6240Y4646D01*
X6201D01*
X6181Y4626D01*
Y4587D01*
X6201Y4567D01*
X6220D01*
X6240Y4587D01*
Y4646D01*
X7520Y4764D02*
X7638D01*
Y4705D01*
X7618Y4685D01*
X7579D01*
X7559Y4705D01*
Y4764D01*
Y4724D02*
X7520Y4685D01*
X7638Y4646D02*
Y4567D01*
X7618D01*
X7539Y4646D01*
X7520D01*
X1083Y9183D02*
X965D01*
Y9242D01*
X984Y9262D01*
X1024D01*
X1043Y9242D01*
Y9183D01*
Y9222D02*
X1083Y9262D01*
Y9301D02*
Y9341D01*
Y9321D01*
X965D01*
X984Y9301D01*
X20866Y7756D02*
X20984D01*
Y7697D01*
X20965Y7677D01*
X20925D01*
X20905Y7697D01*
Y7756D01*
Y7717D02*
X20866Y7677D01*
Y7638D02*
Y7598D01*
Y7618D01*
X20984D01*
X20965Y7638D01*
X20984Y7539D02*
Y7461D01*
X20965D01*
X20886Y7539D01*
X20866D01*
X19626Y4596D02*
X19744D01*
Y4537D01*
X19724Y4518D01*
X19685D01*
X19665Y4537D01*
Y4596D01*
Y4557D02*
X19626Y4518D01*
Y4478D02*
Y4439D01*
Y4459D01*
X19744D01*
X19724Y4478D01*
X19744Y4301D02*
X19724Y4341D01*
X19685Y4380D01*
X19646D01*
X19626Y4360D01*
Y4321D01*
X19646Y4301D01*
X19665D01*
X19685Y4321D01*
Y4380D01*
X24252Y5709D02*
X24134D01*
Y5768D01*
X24154Y5787D01*
X24193D01*
X24213Y5768D01*
Y5709D01*
Y5748D02*
X24252Y5787D01*
Y5905D02*
Y5827D01*
X24173Y5905D01*
X24154D01*
X24134Y5886D01*
Y5846D01*
X24154Y5827D01*
X24252Y5945D02*
Y5984D01*
Y5964D01*
X24134D01*
X24154Y5945D01*
X24075Y4675D02*
X24193D01*
Y4616D01*
X24173Y4596D01*
X24134D01*
X24114Y4616D01*
Y4675D01*
Y4636D02*
X24075Y4596D01*
Y4478D02*
Y4557D01*
X24154Y4478D01*
X24173D01*
X24193Y4498D01*
Y4537D01*
X24173Y4557D01*
Y4439D02*
X24193Y4419D01*
Y4380D01*
X24173Y4360D01*
X24094D01*
X24075Y4380D01*
Y4419D01*
X24094Y4439D01*
X24173D01*
X23622Y6339D02*
Y6221D01*
X23563D01*
X23543Y6240D01*
Y6280D01*
X23563Y6299D01*
X23622D01*
X23583D02*
X23543Y6339D01*
X23504D02*
X23465D01*
X23484D01*
Y6221D01*
X23504Y6240D01*
X23406Y6319D02*
X23386Y6339D01*
X23347D01*
X23327Y6319D01*
Y6240D01*
X23347Y6221D01*
X23386D01*
X23406Y6240D01*
Y6260D01*
X23386Y6280D01*
X23327D01*
X20945Y6732D02*
X20827D01*
Y6791D01*
X20846Y6811D01*
X20886D01*
X20906Y6791D01*
Y6732D01*
Y6772D02*
X20945Y6811D01*
Y6850D02*
Y6890D01*
Y6870D01*
X20827D01*
X20846Y6850D01*
Y6949D02*
X20827Y6968D01*
Y7008D01*
X20846Y7027D01*
X20866D01*
X20886Y7008D01*
X20906Y7027D01*
X20925D01*
X20945Y7008D01*
Y6968D01*
X20925Y6949D01*
X20906D01*
X20886Y6968D01*
X20866Y6949D01*
X20846D01*
X20886Y6968D02*
Y7008D01*
X29488Y11299D02*
X29606D01*
Y11240D01*
X29587Y11221D01*
X29547D01*
X29528Y11240D01*
Y11299D01*
Y11260D02*
X29488Y11221D01*
X29587Y11181D02*
X29606Y11161D01*
Y11122D01*
X29587Y11102D01*
X29567D01*
X29547Y11122D01*
Y11142D01*
Y11122D01*
X29528Y11102D01*
X29508D01*
X29488Y11122D01*
Y11161D01*
X29508Y11181D01*
X29587Y11063D02*
X29606Y11043D01*
Y11004D01*
X29587Y10984D01*
X29567D01*
X29547Y11004D01*
Y11024D01*
Y11004D01*
X29528Y10984D01*
X29508D01*
X29488Y11004D01*
Y11043D01*
X29508Y11063D01*
X28504Y11299D02*
X28622D01*
Y11240D01*
X28602Y11221D01*
X28563D01*
X28543Y11240D01*
Y11299D01*
Y11260D02*
X28504Y11221D01*
Y11102D02*
Y11181D01*
X28583Y11102D01*
X28602D01*
X28622Y11122D01*
Y11161D01*
X28602Y11181D01*
X28622Y10984D02*
X28602Y11024D01*
X28563Y11063D01*
X28524D01*
X28504Y11043D01*
Y11004D01*
X28524Y10984D01*
X28543D01*
X28563Y11004D01*
Y11063D01*
X30472Y11299D02*
X30591D01*
Y11240D01*
X30571Y11221D01*
X30531D01*
X30512Y11240D01*
Y11299D01*
Y11260D02*
X30472Y11221D01*
X30571Y11181D02*
X30591Y11161D01*
Y11122D01*
X30571Y11102D01*
X30551D01*
X30531Y11122D01*
Y11142D01*
Y11122D01*
X30512Y11102D01*
X30492D01*
X30472Y11122D01*
Y11161D01*
X30492Y11181D01*
X30571Y11063D02*
X30591Y11043D01*
Y11004D01*
X30571Y10984D01*
X30551D01*
X30531Y11004D01*
X30512Y10984D01*
X30492D01*
X30472Y11004D01*
Y11043D01*
X30492Y11063D01*
X30512D01*
X30531Y11043D01*
X30551Y11063D01*
X30571D01*
X30531Y11043D02*
Y11004D01*
X5315Y4213D02*
X5433D01*
Y4154D01*
X5413Y4134D01*
X5374D01*
X5354Y4154D01*
Y4213D01*
Y4173D02*
X5315Y4134D01*
X5433Y4016D02*
Y4095D01*
X5374D01*
X5394Y4055D01*
Y4035D01*
X5374Y4016D01*
X5335D01*
X5315Y4035D01*
Y4075D01*
X5335Y4095D01*
X3031Y4843D02*
Y4724D01*
X2972D01*
X2953Y4744D01*
Y4783D01*
X2972Y4803D01*
X3031D01*
X2992D02*
X2953Y4843D01*
X2854D02*
Y4724D01*
X2913Y4783D01*
X2835D01*
X1461Y3297D02*
X1579D01*
Y3238D01*
X1559Y3218D01*
X1520D01*
X1500Y3238D01*
Y3297D01*
Y3257D02*
X1461Y3218D01*
X1559Y3179D02*
X1579Y3159D01*
Y3120D01*
X1559Y3100D01*
X1539D01*
X1520Y3120D01*
Y3139D01*
Y3120D01*
X1500Y3100D01*
X1480D01*
X1461Y3120D01*
Y3159D01*
X1480Y3179D01*
X28819Y2756D02*
X28701D01*
Y2815D01*
X28721Y2835D01*
X28760D01*
X28780Y2815D01*
Y2756D01*
Y2795D02*
X28819Y2835D01*
Y2953D02*
Y2874D01*
X28740Y2953D01*
X28721D01*
X28701Y2933D01*
Y2894D01*
X28721Y2874D01*
X28701Y2992D02*
Y3071D01*
X28721D01*
X28799Y2992D01*
X28819D01*
X18711Y10059D02*
Y10177D01*
X18770D01*
X18789Y10157D01*
Y10118D01*
X18770Y10098D01*
X18711D01*
X18750D02*
X18789Y10059D01*
X18829D02*
X18868D01*
X18848D01*
Y10177D01*
X18829Y10157D01*
X18986Y10059D02*
Y10177D01*
X18927Y10118D01*
X19006D01*
X24331Y7402D02*
X24449D01*
Y7343D01*
X24429Y7323D01*
X24390D01*
X24370Y7343D01*
Y7402D01*
Y7362D02*
X24331Y7323D01*
Y7205D02*
Y7283D01*
X24409Y7205D01*
X24429D01*
X24449Y7224D01*
Y7264D01*
X24429Y7283D01*
X24331Y7087D02*
Y7165D01*
X24409Y7087D01*
X24429D01*
X24449Y7106D01*
Y7146D01*
X24429Y7165D01*
X5285Y1782D02*
Y1900D01*
X5207D01*
X5089D02*
X5167D01*
X5089Y1821D01*
Y1801D01*
X5108Y1782D01*
X5148D01*
X5167Y1801D01*
X17323Y10650D02*
X17343Y10630D01*
X17382D01*
X17402Y10650D01*
Y10728D01*
X17382Y10748D01*
X17343D01*
X17323Y10728D01*
X17284Y10748D02*
X17244D01*
X17264D01*
Y10630D01*
X17284Y10650D01*
X17106Y10630D02*
X17185D01*
Y10689D01*
X17146Y10669D01*
X17126D01*
X17106Y10689D01*
Y10728D01*
X17126Y10748D01*
X17165D01*
X17185Y10728D01*
X2500Y9921D02*
X2480Y9902D01*
Y9862D01*
X2500Y9843D01*
X2579D01*
X2598Y9862D01*
Y9902D01*
X2579Y9921D01*
X2480Y10039D02*
Y9961D01*
X2539D01*
X2520Y10000D01*
Y10020D01*
X2539Y10039D01*
X2579D01*
X2598Y10020D01*
Y9980D01*
X2579Y9961D01*
X24193Y5197D02*
X24213Y5217D01*
Y5256D01*
X24193Y5276D01*
X24114D01*
X24094Y5256D01*
Y5217D01*
X24114Y5197D01*
X24193Y5158D02*
X24213Y5138D01*
Y5098D01*
X24193Y5079D01*
X24173D01*
X24154Y5098D01*
Y5118D01*
Y5098D01*
X24134Y5079D01*
X24114D01*
X24094Y5098D01*
Y5138D01*
X24114Y5158D01*
X24094Y4961D02*
Y5039D01*
X24173Y4961D01*
X24193D01*
X24213Y4980D01*
Y5020D01*
X24193Y5039D01*
X21161Y6811D02*
X21142Y6791D01*
Y6752D01*
X21161Y6732D01*
X21240D01*
X21260Y6752D01*
Y6791D01*
X21240Y6811D01*
X21260Y6929D02*
Y6850D01*
X21181Y6929D01*
X21161D01*
X21142Y6909D01*
Y6870D01*
X21161Y6850D01*
Y6968D02*
X21142Y6988D01*
Y7027D01*
X21161Y7047D01*
X21181D01*
X21201Y7027D01*
X21220Y7047D01*
X21240D01*
X21260Y7027D01*
Y6988D01*
X21240Y6968D01*
X21220D01*
X21201Y6988D01*
X21181Y6968D01*
X21161D01*
X21201Y6988D02*
Y7027D01*
X19154Y7362D02*
X19173Y7382D01*
Y7421D01*
X19154Y7441D01*
X19075D01*
X19055Y7421D01*
Y7382D01*
X19075Y7362D01*
X19055Y7244D02*
Y7323D01*
X19134Y7244D01*
X19154D01*
X19173Y7264D01*
Y7303D01*
X19154Y7323D01*
Y7205D02*
X19173Y7185D01*
Y7146D01*
X19154Y7126D01*
X19134D01*
X19114Y7146D01*
Y7165D01*
Y7146D01*
X19094Y7126D01*
X19075D01*
X19055Y7146D01*
Y7185D01*
X19075Y7205D01*
X20551Y6280D02*
X20571Y6260D01*
X20610D01*
X20630Y6280D01*
Y6358D01*
X20610Y6378D01*
X20571D01*
X20551Y6358D01*
X20433Y6378D02*
X20512D01*
X20433Y6299D01*
Y6280D01*
X20453Y6260D01*
X20492D01*
X20512Y6280D01*
X20315Y6260D02*
X20394D01*
Y6319D01*
X20354Y6299D01*
X20335D01*
X20315Y6319D01*
Y6358D01*
X20335Y6378D01*
X20374D01*
X20394Y6358D01*
X24429Y4449D02*
X24409Y4429D01*
Y4390D01*
X24429Y4370D01*
X24508D01*
X24528Y4390D01*
Y4429D01*
X24508Y4449D01*
X24429Y4488D02*
X24409Y4508D01*
Y4547D01*
X24429Y4567D01*
X24449D01*
X24469Y4547D01*
Y4528D01*
Y4547D01*
X24488Y4567D01*
X24508D01*
X24528Y4547D01*
Y4508D01*
X24508Y4488D01*
X24429Y4606D02*
X24409Y4626D01*
Y4665D01*
X24429Y4685D01*
X24449D01*
X24469Y4665D01*
Y4646D01*
Y4665D01*
X24488Y4685D01*
X24508D01*
X24528Y4665D01*
Y4626D01*
X24508Y4606D01*
X24724Y9075D02*
X24705Y9094D01*
X24665D01*
X24646Y9075D01*
Y8996D01*
X24665Y8976D01*
X24705D01*
X24724Y8996D01*
X24764Y9075D02*
X24783Y9094D01*
X24823D01*
X24842Y9075D01*
Y9055D01*
X24823Y9035D01*
X24803D01*
X24823D01*
X24842Y9016D01*
Y8996D01*
X24823Y8976D01*
X24783D01*
X24764Y8996D01*
X24961Y9094D02*
X24882D01*
Y9035D01*
X24921Y9055D01*
X24941D01*
X24961Y9035D01*
Y8996D01*
X24941Y8976D01*
X24901D01*
X24882Y8996D01*
X30551Y10581D02*
X30571Y10600D01*
Y10640D01*
X30551Y10659D01*
X30472D01*
X30453Y10640D01*
Y10600D01*
X30472Y10581D01*
X30453Y10482D02*
X30571D01*
X30512Y10541D01*
Y10463D01*
X30571Y10345D02*
X30551Y10384D01*
X30512Y10423D01*
X30472D01*
X30453Y10404D01*
Y10364D01*
X30472Y10345D01*
X30492D01*
X30512Y10364D01*
Y10423D01*
X29567Y10581D02*
X29587Y10600D01*
Y10640D01*
X29567Y10659D01*
X29488D01*
X29469Y10640D01*
Y10600D01*
X29488Y10581D01*
X29469Y10482D02*
X29587D01*
X29528Y10541D01*
Y10463D01*
X29469Y10364D02*
X29587D01*
X29528Y10423D01*
Y10345D01*
X24734Y9370D02*
X24715Y9390D01*
X24675D01*
X24656Y9370D01*
Y9291D01*
X24675Y9272D01*
X24715D01*
X24734Y9291D01*
X24774Y9370D02*
X24793Y9390D01*
X24833D01*
X24852Y9370D01*
Y9350D01*
X24833Y9331D01*
X24813D01*
X24833D01*
X24852Y9311D01*
Y9291D01*
X24833Y9272D01*
X24793D01*
X24774Y9291D01*
X24892Y9390D02*
X24970D01*
Y9370D01*
X24892Y9291D01*
Y9272D01*
X24734Y7874D02*
X24715Y7894D01*
X24675D01*
X24656Y7874D01*
Y7795D01*
X24675Y7776D01*
X24715D01*
X24734Y7795D01*
X24774Y7874D02*
X24793Y7894D01*
X24833D01*
X24852Y7874D01*
Y7854D01*
X24833Y7835D01*
X24813D01*
X24833D01*
X24852Y7815D01*
Y7795D01*
X24833Y7776D01*
X24793D01*
X24774Y7795D01*
X24970Y7894D02*
X24931Y7874D01*
X24892Y7835D01*
Y7795D01*
X24911Y7776D01*
X24951D01*
X24970Y7795D01*
Y7815D01*
X24951Y7835D01*
X24892D01*
X30345Y9921D02*
X30364Y9902D01*
X30404D01*
X30423Y9921D01*
Y10000D01*
X30404Y10020D01*
X30364D01*
X30345Y10000D01*
X30246Y10020D02*
Y9902D01*
X30305Y9961D01*
X30226D01*
X30108Y9902D02*
X30187D01*
Y9961D01*
X30148Y9941D01*
X30128D01*
X30108Y9961D01*
Y10000D01*
X30128Y10020D01*
X30167D01*
X30187Y10000D01*
X29262Y10000D02*
X29242Y10020D01*
X29203D01*
X29183Y10000D01*
Y9921D01*
X29203Y9902D01*
X29242D01*
X29262Y9921D01*
X29360Y9902D02*
Y10020D01*
X29301Y9961D01*
X29380D01*
X29419Y10000D02*
X29439Y10020D01*
X29478D01*
X29498Y10000D01*
Y9980D01*
X29478Y9961D01*
X29459D01*
X29478D01*
X29498Y9941D01*
Y9921D01*
X29478Y9902D01*
X29439D01*
X29419Y9921D01*
X27982Y9921D02*
X28002Y9902D01*
X28041D01*
X28061Y9921D01*
Y10000D01*
X28041Y10020D01*
X28002D01*
X27982Y10000D01*
X27884Y10020D02*
Y9902D01*
X27943Y9961D01*
X27864D01*
X27825Y10020D02*
X27786D01*
X27805D01*
Y9902D01*
X27825Y9921D01*
X26900Y10000D02*
X26880Y10020D01*
X26841D01*
X26821Y10000D01*
Y9921D01*
X26841Y9902D01*
X26880D01*
X26900Y9921D01*
X26998Y9902D02*
Y10020D01*
X26939Y9961D01*
X27018D01*
X27057Y10000D02*
X27077Y10020D01*
X27116D01*
X27136Y10000D01*
Y9921D01*
X27116Y9902D01*
X27077D01*
X27057Y9921D01*
Y10000D01*
X5394Y2471D02*
X5413Y2490D01*
Y2530D01*
X5394Y2549D01*
X5315D01*
X5295Y2530D01*
Y2490D01*
X5315Y2471D01*
X5295Y2431D02*
Y2392D01*
Y2411D01*
X5413D01*
X5394Y2431D01*
Y2333D02*
X5413Y2313D01*
Y2274D01*
X5394Y2254D01*
X5315D01*
X5295Y2274D01*
Y2313D01*
X5315Y2333D01*
X5394D01*
X2096Y4842D02*
X2077Y4862D01*
X2037D01*
X2018Y4842D01*
Y4764D01*
X2037Y4744D01*
X2077D01*
X2096Y4764D01*
X2136Y4842D02*
X2155Y4862D01*
X2195D01*
X2215Y4842D01*
Y4823D01*
X2195Y4803D01*
X2175D01*
X2195D01*
X2215Y4783D01*
Y4764D01*
X2195Y4744D01*
X2155D01*
X2136Y4764D01*
X2520Y1909D02*
X2500Y1929D01*
X2461D01*
X2441Y1909D01*
Y1831D01*
X2461Y1811D01*
X2500D01*
X2520Y1831D01*
X2618Y1811D02*
Y1929D01*
X2559Y1870D01*
X2638D01*
X2642Y2239D02*
X2622Y2259D01*
X2583D01*
X2563Y2239D01*
Y2161D01*
X2583Y2141D01*
X2622D01*
X2642Y2161D01*
X2681Y2259D02*
X2760D01*
Y2239D01*
X2681Y2161D01*
Y2141D01*
X3608Y2161D02*
X3628Y2141D01*
X3667D01*
X3687Y2161D01*
Y2239D01*
X3667Y2259D01*
X3628D01*
X3608Y2239D01*
X3569D02*
X3549Y2259D01*
X3510D01*
X3490Y2239D01*
Y2161D01*
X3510Y2141D01*
X3549D01*
X3569Y2161D01*
Y2180D01*
X3549Y2200D01*
X3490D01*
X3386Y1791D02*
X3406Y1772D01*
X3445D01*
X3465Y1791D01*
Y1870D01*
X3445Y1890D01*
X3406D01*
X3386Y1870D01*
X3346Y1791D02*
X3327Y1772D01*
X3287D01*
X3268Y1791D01*
Y1811D01*
X3287Y1831D01*
X3268Y1850D01*
Y1870D01*
X3287Y1890D01*
X3327D01*
X3346Y1870D01*
Y1850D01*
X3327Y1831D01*
X3346Y1811D01*
Y1791D01*
X3327Y1831D02*
X3287D01*
X1582Y3859D02*
X1562Y3879D01*
X1523D01*
X1503Y3859D01*
Y3780D01*
X1523Y3761D01*
X1562D01*
X1582Y3780D01*
X1700Y3761D02*
X1621D01*
X1700Y3839D01*
Y3859D01*
X1680Y3879D01*
X1641D01*
X1621Y3859D01*
X12776Y11142D02*
X12756Y11122D01*
Y11083D01*
X12776Y11063D01*
X12854D01*
X12874Y11083D01*
Y11122D01*
X12854Y11142D01*
X12874Y11181D02*
Y11220D01*
Y11201D01*
X12756D01*
X12776Y11181D01*
Y11279D02*
X12756Y11299D01*
Y11338D01*
X12776Y11358D01*
X12795D01*
X12815Y11338D01*
Y11319D01*
Y11338D01*
X12835Y11358D01*
X12854D01*
X12874Y11338D01*
Y11299D01*
X12854Y11279D01*
X18445Y7362D02*
X18465Y7382D01*
Y7421D01*
X18445Y7441D01*
X18366D01*
X18346Y7421D01*
Y7382D01*
X18366Y7362D01*
X18346Y7244D02*
Y7323D01*
X18425Y7244D01*
X18445D01*
X18465Y7264D01*
Y7303D01*
X18445Y7323D01*
X18346Y7205D02*
Y7165D01*
Y7185D01*
X18465D01*
X18445Y7205D01*
X18799Y7362D02*
X18819Y7382D01*
Y7421D01*
X18799Y7441D01*
X18720D01*
X18701Y7421D01*
Y7382D01*
X18720Y7362D01*
X18701Y7244D02*
Y7323D01*
X18779Y7244D01*
X18799D01*
X18819Y7264D01*
Y7303D01*
X18799Y7323D01*
X18701Y7126D02*
Y7205D01*
X18779Y7126D01*
X18799D01*
X18819Y7146D01*
Y7185D01*
X18799Y7205D01*
X21319Y11299D02*
X21339Y11319D01*
Y11358D01*
X21319Y11378D01*
X21240D01*
X21220Y11358D01*
Y11319D01*
X21240Y11299D01*
X21220Y11181D02*
Y11260D01*
X21299Y11181D01*
X21319D01*
X21339Y11201D01*
Y11240D01*
X21319Y11260D01*
X21240Y11142D02*
X21220Y11122D01*
Y11083D01*
X21240Y11063D01*
X21319D01*
X21339Y11083D01*
Y11122D01*
X21319Y11142D01*
X21299D01*
X21280Y11122D01*
Y11063D01*
X21004Y11299D02*
X21024Y11319D01*
Y11358D01*
X21004Y11378D01*
X20925D01*
X20906Y11358D01*
Y11319D01*
X20925Y11299D01*
X20906Y11181D02*
Y11260D01*
X20984Y11181D01*
X21004D01*
X21024Y11201D01*
Y11240D01*
X21004Y11260D01*
X21024Y11142D02*
Y11063D01*
X21004D01*
X20925Y11142D01*
X20906D01*
X26417Y10630D02*
X26299D01*
Y10689D01*
X26319Y10709D01*
X26358D01*
X26378Y10689D01*
Y10630D01*
Y10669D02*
X26417Y10709D01*
Y10827D02*
Y10748D01*
X26339Y10827D01*
X26319D01*
X26299Y10807D01*
Y10768D01*
X26319Y10748D01*
X26417Y10925D02*
X26299D01*
X26358Y10866D01*
Y10945D01*
X27402Y10630D02*
X27283D01*
Y10689D01*
X27303Y10709D01*
X27343D01*
X27362Y10689D01*
Y10630D01*
Y10669D02*
X27402Y10709D01*
Y10827D02*
Y10748D01*
X27323Y10827D01*
X27303D01*
X27283Y10807D01*
Y10768D01*
X27303Y10748D01*
X27283Y10945D02*
Y10866D01*
X27343D01*
X27323Y10905D01*
Y10925D01*
X27343Y10945D01*
X27382D01*
X27402Y10925D01*
Y10886D01*
X27382Y10866D01*
X23839Y7087D02*
X23819Y7067D01*
Y7028D01*
X23839Y7008D01*
X23917D01*
X23937Y7028D01*
Y7067D01*
X23917Y7087D01*
X23839Y7126D02*
X23819Y7146D01*
Y7185D01*
X23839Y7205D01*
X23858D01*
X23878Y7185D01*
Y7165D01*
Y7185D01*
X23898Y7205D01*
X23917D01*
X23937Y7185D01*
Y7146D01*
X23917Y7126D01*
X23937Y7244D02*
Y7283D01*
Y7264D01*
X23819D01*
X23839Y7244D01*
X25059Y7323D02*
X25079Y7343D01*
Y7382D01*
X25059Y7402D01*
X24980D01*
X24961Y7382D01*
Y7343D01*
X24980Y7323D01*
X25059Y7283D02*
X25079Y7264D01*
Y7224D01*
X25059Y7205D01*
X25039D01*
X25020Y7224D01*
Y7244D01*
Y7224D01*
X25000Y7205D01*
X24980D01*
X24961Y7224D01*
Y7264D01*
X24980Y7283D01*
X25059Y7165D02*
X25079Y7146D01*
Y7106D01*
X25059Y7087D01*
X25039D01*
X25020Y7106D01*
X25000Y7087D01*
X24980D01*
X24961Y7106D01*
Y7146D01*
X24980Y7165D01*
X25000D01*
X25020Y7146D01*
X25039Y7165D01*
X25059D01*
X25020Y7146D02*
Y7106D01*
X24744Y7323D02*
X24764Y7343D01*
Y7382D01*
X24744Y7402D01*
X24665D01*
X24646Y7382D01*
Y7343D01*
X24665Y7323D01*
X24744Y7283D02*
X24764Y7264D01*
Y7224D01*
X24744Y7205D01*
X24724D01*
X24705Y7224D01*
Y7244D01*
Y7224D01*
X24685Y7205D01*
X24665D01*
X24646Y7224D01*
Y7264D01*
X24665Y7283D01*
X24646Y7106D02*
X24764D01*
X24705Y7165D01*
Y7087D01*
X25079Y11516D02*
X25059Y11535D01*
X25020D01*
X25000Y11516D01*
Y11437D01*
X25020Y11417D01*
X25059D01*
X25079Y11437D01*
X25118Y11516D02*
X25138Y11535D01*
X25177D01*
X25197Y11516D01*
Y11496D01*
X25177Y11476D01*
X25157D01*
X25177D01*
X25197Y11457D01*
Y11437D01*
X25177Y11417D01*
X25138D01*
X25118Y11437D01*
X25236D02*
X25256Y11417D01*
X25295D01*
X25315Y11437D01*
Y11516D01*
X25295Y11535D01*
X25256D01*
X25236Y11516D01*
Y11496D01*
X25256Y11476D01*
X25315D01*
X11845Y11240D02*
X11864Y11221D01*
X11904D01*
X11923Y11240D01*
Y11319D01*
X11904Y11339D01*
X11864D01*
X11845Y11319D01*
X11805Y11339D02*
X11766D01*
X11785D01*
Y11221D01*
X11805Y11240D01*
X11628Y11339D02*
X11707D01*
X11628Y11260D01*
Y11240D01*
X11648Y11221D01*
X11687D01*
X11707Y11240D01*
D144*
X5157Y8937D02*
Y7953D01*
X5354Y7756D01*
X5748D01*
X5945Y7953D01*
Y8937D01*
X6338Y8740D02*
X6535Y8937D01*
X6929D01*
X7125Y8740D01*
Y8543D01*
X6929Y8346D01*
X6732D01*
X6929D01*
X7125Y8149D01*
Y7953D01*
X6929Y7756D01*
X6535D01*
X6338Y7953D01*
X12008Y7952D02*
Y6968D01*
X12205Y6772D01*
X12598D01*
X12795Y6968D01*
Y7952D01*
X13779Y6772D02*
Y7952D01*
X13189Y7362D01*
X13976D01*
D145*
X22346Y7300D02*
X22293Y7352D01*
X22188D01*
X22136Y7300D01*
Y7090D01*
X22188Y7037D01*
X22293D01*
X22346Y7090D01*
X22451Y7300D02*
X22503Y7352D01*
X22608D01*
X22661Y7300D01*
Y7247D01*
X22608Y7195D01*
X22556D01*
X22608D01*
X22661Y7142D01*
Y7090D01*
X22608Y7037D01*
X22503D01*
X22451Y7090D01*
X22766Y7300D02*
X22818Y7352D01*
X22923D01*
X22975Y7300D01*
Y7090D01*
X22923Y7037D01*
X22818D01*
X22766Y7090D01*
Y7300D01*
X1480Y10338D02*
X1427Y10285D01*
Y10180D01*
X1480Y10128D01*
X1690D01*
X1742Y10180D01*
Y10285D01*
X1690Y10338D01*
X1742Y10443D02*
Y10548D01*
Y10495D01*
X1427D01*
X1480Y10443D01*
X20732Y4590D02*
X20679Y4537D01*
Y4432D01*
X20732Y4380D01*
X20942D01*
X20994Y4432D01*
Y4537D01*
X20942Y4590D01*
X20994Y4905D02*
Y4695D01*
X20784Y4905D01*
X20732D01*
X20679Y4852D01*
Y4747D01*
X20732Y4695D01*
X20679Y5220D02*
X20732Y5115D01*
X20837Y5010D01*
X20942D01*
X20994Y5062D01*
Y5167D01*
X20942Y5220D01*
X20889D01*
X20837Y5167D01*
Y5010D01*
X8448Y10646D02*
X8396Y10699D01*
X8291D01*
X8238Y10646D01*
Y10436D01*
X8291Y10384D01*
X8396D01*
X8448Y10436D01*
X8553Y10384D02*
X8658D01*
X8606D01*
Y10699D01*
X8553Y10646D01*
X8815Y10384D02*
X8920D01*
X8868D01*
Y10699D01*
X8815Y10646D01*
X17346Y6558D02*
X17293Y6506D01*
Y6401D01*
X17346Y6348D01*
X17556D01*
X17608Y6401D01*
Y6506D01*
X17556Y6558D01*
X17608Y6663D02*
Y6768D01*
Y6716D01*
X17293D01*
X17346Y6663D01*
X17293Y7136D02*
X17346Y7031D01*
X17451Y6926D01*
X17556D01*
X17608Y6978D01*
Y7083D01*
X17556Y7136D01*
X17503D01*
X17451Y7083D01*
Y6926D01*
X18606Y5928D02*
X18553Y5876D01*
Y5771D01*
X18606Y5719D01*
X18816D01*
X18868Y5771D01*
Y5876D01*
X18816Y5928D01*
X18868Y6243D02*
Y6033D01*
X18658Y6243D01*
X18606D01*
X18553Y6191D01*
Y6086D01*
X18606Y6033D01*
Y6348D02*
X18553Y6401D01*
Y6506D01*
X18606Y6558D01*
X18816D01*
X18868Y6506D01*
Y6401D01*
X18816Y6348D01*
X18606D01*
X18205Y8015D02*
X18258Y7963D01*
X18363D01*
X18415Y8015D01*
Y8225D01*
X18363Y8278D01*
X18258D01*
X18205Y8225D01*
X18101Y8278D02*
X17996D01*
X18048D01*
Y7963D01*
X18101Y8015D01*
X17838D02*
X17786Y7963D01*
X17681D01*
X17628Y8015D01*
Y8068D01*
X17681Y8120D01*
X17628Y8173D01*
Y8225D01*
X17681Y8278D01*
X17786D01*
X17838Y8225D01*
Y8173D01*
X17786Y8120D01*
X17838Y8068D01*
Y8015D01*
X17786Y8120D02*
X17681D01*
D146*
X21772Y6594D02*
X23346D01*
Y7736D01*
X21772D02*
X23346D01*
X21772Y6594D02*
Y7736D01*
X1043Y9764D02*
X2185D01*
X1043D02*
Y11339D01*
X2185D01*
Y9764D02*
Y11339D01*
X21437Y4016D02*
Y5591D01*
X20295D02*
X21437D01*
X20295Y4016D02*
Y5591D01*
Y4016D02*
X21437D01*
X7874Y9941D02*
Y11083D01*
X9449D01*
Y9941D02*
Y11083D01*
X7874Y9941D02*
X9449D01*
X18051Y5984D02*
Y7559D01*
X16909D02*
X18051D01*
X16909Y5984D02*
Y7559D01*
Y5984D02*
X18051D01*
X18169Y5354D02*
X19311D01*
X18169D02*
Y6929D01*
X19311D01*
Y5354D02*
Y6929D01*
X18780Y7579D02*
Y8720D01*
X17205Y7579D02*
X18780D01*
X17205D02*
Y8720D01*
X18780D01*
X27903Y11077D02*
X27745D01*
Y10998D01*
X27772Y10972D01*
X27876D01*
X27903Y10998D01*
Y11077D01*
Y10814D02*
X27876Y10867D01*
X27824Y10919D01*
X27772D01*
X27745Y10893D01*
Y10841D01*
X27772Y10814D01*
X27798D01*
X27824Y10841D01*
Y10919D01*
X20289Y11074D02*
Y11231D01*
X20211D01*
X20184Y11205D01*
Y11100D01*
X20211Y11074D01*
X20289D01*
X20053Y11231D02*
Y11074D01*
X20132Y11152D01*
X20027D01*
X18400Y11074D02*
Y11231D01*
X18321D01*
X18295Y11205D01*
Y11100D01*
X18321Y11074D01*
X18400D01*
X18242Y11100D02*
X18216Y11074D01*
X18163D01*
X18137Y11100D01*
Y11126D01*
X18163Y11152D01*
X18190D01*
X18163D01*
X18137Y11179D01*
Y11205D01*
X18163Y11231D01*
X18216D01*
X18242Y11205D01*
X6546Y4199D02*
X6704D01*
Y4278D01*
X6677Y4304D01*
X6572D01*
X6546Y4278D01*
Y4199D01*
X6704Y4356D02*
Y4409D01*
Y4382D01*
X6546D01*
X6572Y4356D01*
X7019Y4199D02*
X7176D01*
Y4278D01*
X7150Y4304D01*
X7045D01*
X7019Y4278D01*
Y4199D01*
X7176Y4461D02*
Y4356D01*
X7071Y4461D01*
X7045D01*
X7019Y4435D01*
Y4382D01*
X7045Y4356D01*
X30068Y11077D02*
X29911D01*
Y10998D01*
X29937Y10972D01*
X30042D01*
X30068Y10998D01*
Y11077D01*
X30042Y10919D02*
X30068Y10893D01*
Y10841D01*
X30042Y10814D01*
X30016D01*
X29989Y10841D01*
X29963Y10814D01*
X29937D01*
X29911Y10841D01*
Y10893D01*
X29937Y10919D01*
X29963D01*
X29989Y10893D01*
X30016Y10919D01*
X30042D01*
X29989Y10893D02*
Y10841D01*
X29084Y11077D02*
X28926D01*
Y10998D01*
X28953Y10972D01*
X29058D01*
X29084Y10998D01*
Y11077D01*
Y10919D02*
Y10814D01*
X29058D01*
X28953Y10919D01*
X28926D01*
X31052Y11077D02*
X30895D01*
Y10998D01*
X30921Y10972D01*
X31026D01*
X31052Y10998D01*
Y11077D01*
X30921Y10919D02*
X30895Y10893D01*
Y10841D01*
X30921Y10814D01*
X31026D01*
X31052Y10841D01*
Y10893D01*
X31026Y10919D01*
X31000D01*
X30974Y10893D01*
Y10814D01*
X26918Y11077D02*
X26761D01*
Y10998D01*
X26787Y10972D01*
X26892D01*
X26918Y10998D01*
Y11077D01*
Y10814D02*
Y10919D01*
X26840D01*
X26866Y10867D01*
Y10841D01*
X26840Y10814D01*
X26787D01*
X26761Y10841D01*
Y10893D01*
X26787Y10919D01*
D147*
X22229Y8967D02*
X22885D01*
X23017Y9098D01*
Y9360D01*
X22885Y9492D01*
X22229D01*
Y9754D02*
Y10279D01*
X22361D01*
X22885Y9754D01*
X23017D01*
X28661Y8234D02*
X28005D01*
X27874Y8103D01*
Y7841D01*
X28005Y7709D01*
X28661D01*
X27874Y7447D02*
Y7185D01*
Y7316D01*
X28661D01*
X28530Y7447D01*
Y6791D02*
X28661Y6660D01*
Y6398D01*
X28530Y6266D01*
X28005D01*
X27874Y6398D01*
Y6660D01*
X28005Y6791D01*
X28530D01*
M02*
