G04 Layer_Physical_Order=3*
G04 Layer_Color=36540*
%FSLAX24Y24*%
%MOIN*%
G70*
G01*
G75*
%ADD42C,0.0060*%
%ADD45C,0.0150*%
%ADD48C,0.0200*%
%ADD51C,0.0100*%
%ADD58C,0.0170*%
%ADD59C,0.0160*%
%ADD60C,0.0180*%
%ADD65C,0.0045*%
%ADD66C,0.0040*%
%ADD67C,0.0064*%
D42*
X7362Y7795D02*
X8228D01*
X7323Y7835D02*
X7362Y7795D01*
X7047Y7835D02*
X7323D01*
X6297Y7045D02*
X6417Y7165D01*
X5748Y7205D02*
X5908Y7045D01*
X6297D01*
X4882Y6890D02*
X8543D01*
X4843Y6929D02*
X4882Y6890D01*
X9449Y7874D02*
X9488Y7913D01*
X9331Y7874D02*
X9449D01*
X9291Y7913D02*
X9331Y7874D01*
X10197Y7677D02*
X10352Y7832D01*
X8465Y7677D02*
X10197D01*
X9291Y7913D02*
Y8268D01*
X9055Y7874D02*
X9094Y7913D01*
X8937Y7874D02*
X9055D01*
X8898Y7913D02*
X8937Y7874D01*
X8661D02*
X8701Y7913D01*
X8543Y7874D02*
X8661D01*
X8504Y7913D02*
X8543Y7874D01*
X11260Y8189D02*
Y8780D01*
X11102Y8937D02*
X11260Y8780D01*
X9449Y5630D02*
X9764D01*
X9331Y5512D02*
X9449Y5630D01*
X5630Y5512D02*
X9331D01*
X5630D02*
Y5512D01*
X5315Y5827D02*
X5630Y5512D01*
X10079Y5945D02*
X11220D01*
X9764Y5630D02*
X10079Y5945D01*
X9882Y6299D02*
X9921Y6260D01*
X9882Y6299D02*
Y6378D01*
X9843Y6417D02*
X9882Y6378D01*
X9724Y6417D02*
X9843D01*
X9685Y6378D02*
X9724Y6417D01*
X9685Y5827D02*
Y6378D01*
X9646Y5787D02*
X9685Y5827D01*
X9528Y5787D02*
X9646D01*
X9488Y5827D02*
X9528Y5787D01*
X9488Y5827D02*
Y6378D01*
X9449Y6417D02*
X9488Y6378D01*
X9331Y6417D02*
X9449D01*
X9291Y6378D02*
X9331Y6417D01*
X9291Y5827D02*
Y6378D01*
X9252Y5787D02*
X9291Y5827D01*
X9134Y5787D02*
X9252D01*
X9094Y5827D02*
X9134Y5787D01*
X9094Y5827D02*
Y6378D01*
X9055Y6417D02*
X9094Y6378D01*
X8937Y6417D02*
X9055D01*
X8898Y6378D02*
X8937Y6417D01*
X8898Y5827D02*
Y6378D01*
X8858Y5787D02*
X8898Y5827D01*
X8740Y5787D02*
X8858D01*
X8701Y5827D02*
X8740Y5787D01*
X8701Y5827D02*
Y6260D01*
X9921D02*
X10945D01*
X10352Y7832D02*
X10627D01*
X10787Y7992D01*
X9843Y8307D02*
X10000Y8465D01*
Y8583D01*
X9961Y8622D02*
X10000Y8583D01*
X9488Y8622D02*
X9961D01*
X9449Y8583D02*
X9488Y8622D01*
X9449Y8504D02*
Y8583D01*
X9409Y8465D02*
X9449Y8504D01*
X8386Y8465D02*
X9409D01*
X8346Y8504D02*
X8386Y8465D01*
X9370Y8780D02*
X10630D01*
X9331Y8740D02*
X9370Y8780D01*
X9331Y8661D02*
Y8740D01*
X9291Y8622D02*
X9331Y8661D01*
X9173Y8622D02*
X9291D01*
X9134Y8661D02*
X9173Y8622D01*
X9134Y8661D02*
Y8898D01*
X9094Y8937D02*
X9134Y8898D01*
X8976Y8937D02*
X9094D01*
X8937Y8898D02*
X8976Y8937D01*
X8937Y8661D02*
Y8898D01*
X8898Y8622D02*
X8937Y8661D01*
X8780Y8622D02*
X8898D01*
X8740Y8661D02*
X8780Y8622D01*
X8740Y8661D02*
Y8898D01*
X8701Y8937D02*
X8740Y8898D01*
X8583Y8937D02*
X8701D01*
X8543Y8898D02*
X8583Y8937D01*
X8543Y8819D02*
Y8898D01*
X8504Y8780D02*
X8543Y8819D01*
X8386Y8780D02*
X8504D01*
X8346Y8819D02*
X8386Y8780D01*
X8346Y8819D02*
Y8898D01*
X8307Y8937D02*
X8346Y8898D01*
X8189Y8937D02*
X8307D01*
X8150Y8898D02*
X8189Y8937D01*
X8150Y8819D02*
Y8898D01*
X8110Y8780D02*
X8150Y8819D01*
X7992Y8780D02*
X8110D01*
X7953Y8819D02*
X7992Y8780D01*
X7953Y8819D02*
Y8898D01*
X7913Y8937D02*
X7953Y8898D01*
X7795Y8937D02*
X7913D01*
X7756Y8898D02*
X7795Y8937D01*
X7756Y8819D02*
Y8898D01*
X7717Y8780D02*
X7756Y8819D01*
X7362Y8780D02*
X7717D01*
X9724Y9409D02*
X10000D01*
X9606Y9528D02*
X9724Y9409D01*
X8780Y9528D02*
X9606D01*
X8740Y9488D02*
X8780Y9528D01*
X8740Y9488D02*
X8740D01*
X8740Y9291D02*
Y9488D01*
X8701Y9252D02*
X8740Y9291D01*
X8583Y9252D02*
X8701D01*
X8543Y9291D02*
X8583Y9252D01*
X8543Y9291D02*
Y9528D01*
X8504Y9567D02*
X8543Y9528D01*
X8386Y9567D02*
X8504D01*
X8346Y9528D02*
X8386Y9567D01*
X8346Y9291D02*
Y9528D01*
X8307Y9252D02*
X8346Y9291D01*
X8189Y9252D02*
X8307D01*
X8150Y9291D02*
X8189Y9252D01*
X8150Y9291D02*
Y9528D01*
X8110Y9567D02*
X8150Y9528D01*
X7992Y9567D02*
X8110D01*
X7953Y9528D02*
X7992Y9567D01*
X7953Y9291D02*
Y9528D01*
X7913Y9252D02*
X7953Y9291D01*
X7795Y9252D02*
X7913D01*
X7756Y9291D02*
X7795Y9252D01*
X7756Y9291D02*
Y9370D01*
X7717Y9409D02*
X7756Y9370D01*
X5787Y9409D02*
X7717D01*
X5787Y7520D02*
X9134D01*
X5630Y7362D02*
X5787Y7520D01*
X9134D02*
X9449Y7205D01*
X10787Y7677D02*
X10945Y7520D01*
X11220D01*
X11260Y7480D01*
Y5984D02*
Y7480D01*
X11220Y5945D02*
X11260Y5984D01*
X5315Y5827D02*
Y6102D01*
X10945Y6575D02*
X11102Y6732D01*
X8858Y6575D02*
X10945D01*
X5315Y7362D02*
X5472Y7205D01*
Y7205D02*
X5748D01*
X7205Y6732D02*
X7362Y6575D01*
X10945Y6260D02*
X11102Y6102D01*
X7205Y6417D02*
X7205D01*
X7362Y6260D01*
X10630Y6890D02*
X10787Y6732D01*
X8543Y6890D02*
X8858Y6575D01*
X8150Y7362D02*
X8898D01*
X9370Y6890D01*
X10630D01*
X5630Y6102D02*
X5630D01*
X5787Y5945D01*
X10945Y7205D02*
X11102Y7047D01*
X9449Y7205D02*
X10945D01*
X7205Y8937D02*
X7362Y8780D01*
X10630D02*
X10787Y8622D01*
X5630Y9252D02*
X5787Y9409D01*
X10000D02*
X10157Y9252D01*
X6890Y8307D02*
X7047Y8150D01*
Y8150D02*
Y8150D01*
Y8150D02*
X7323D01*
X7362Y8189D01*
Y8425D01*
X7402Y8465D01*
X7520D01*
X7559Y8425D01*
Y7992D02*
Y8425D01*
X8150Y7992D02*
Y8622D01*
X8189Y8661D01*
X8307D01*
X8346Y8622D01*
Y8504D02*
Y8622D01*
X5630Y9882D02*
X5787Y10039D01*
X9685D01*
X9843Y10197D01*
X5630Y10512D02*
X5787Y10354D01*
X10000D01*
X10157Y10512D01*
X5472Y10039D02*
X5630Y10197D01*
X5472Y9764D02*
Y10039D01*
Y9764D02*
X5512Y9724D01*
X9685D01*
X9843Y9567D01*
X5315Y10512D02*
X5472Y10669D01*
X10630D01*
X10787Y10512D01*
X5315Y9252D02*
Y9882D01*
Y9252D02*
X5472Y9094D01*
X9291D01*
X9449Y9252D01*
X9843D01*
X5787Y5945D02*
X8307D01*
X8465Y5787D01*
X7362Y6575D02*
X8386D01*
X8701Y6260D01*
X11220Y8150D02*
X11260Y8189D01*
X11260D01*
X9724Y8150D02*
X11220D01*
X8307Y7874D02*
Y8268D01*
X8346Y8307D01*
X8465D01*
X8504Y8268D01*
Y7913D02*
Y8268D01*
X8701Y7913D02*
Y8268D01*
X8740Y8307D01*
X8858D01*
X8898Y8268D01*
Y7913D02*
Y8268D01*
X9094Y7913D02*
Y8268D01*
X9134Y8307D01*
X9252D01*
X9291Y8268D01*
X9488Y7913D02*
Y8268D01*
X9528Y8307D01*
X9646D01*
X9685Y8268D01*
Y8189D02*
Y8268D01*
Y8189D02*
X9724Y8150D01*
X7559Y7992D02*
X7598Y7953D01*
X7717D01*
X7756Y7992D01*
X7756D01*
Y8622D01*
X7795Y8661D01*
X7913D01*
X7953Y8622D01*
Y7992D02*
Y8622D01*
Y7992D02*
X7992Y7953D01*
X8110D01*
X8150Y7992D01*
X8228Y7795D02*
X8307Y7874D01*
X6575Y7677D02*
X6772Y7874D01*
Y7992D01*
X6811Y8031D01*
X6969D01*
X7008Y7992D01*
Y7874D02*
Y7992D01*
Y7874D02*
X7047Y7835D01*
X7362Y6260D02*
X7677D01*
X7835Y6417D01*
X6417Y7165D02*
Y7323D01*
X6457Y7362D01*
X6575D01*
X6614Y7323D01*
Y7244D02*
Y7323D01*
Y7244D02*
X6654Y7205D01*
X6772D01*
X6811Y7244D01*
Y7323D01*
X6850Y7362D01*
X6969D01*
X7008Y7323D01*
Y7244D02*
Y7323D01*
Y7244D02*
X7047Y7205D01*
X7638D01*
X7677Y7165D01*
Y7087D02*
Y7165D01*
Y7087D02*
X7717Y7047D01*
X7835D01*
X7874Y7087D01*
Y7165D01*
X7913Y7205D01*
X8031D01*
X8071Y7165D01*
Y7087D02*
Y7165D01*
Y7087D02*
X8110Y7047D01*
X8228D01*
X8268Y7087D01*
X8268D01*
Y7165D01*
X8307Y7205D01*
X8425D01*
X8465Y7165D01*
Y7087D02*
Y7165D01*
Y7087D02*
X8504Y7047D01*
X9134Y6732D02*
X9528D01*
X8504Y7047D02*
X8622D01*
X8661Y7087D01*
Y7165D01*
X8701Y7205D01*
X8819D01*
X8858Y7165D01*
Y7008D02*
Y7165D01*
X8780Y6929D02*
X8858Y7008D01*
X8780Y6890D02*
Y6929D01*
Y6890D02*
X8858Y6811D01*
X9055D01*
X9134Y6732D01*
X5000Y7677D02*
X5157Y7520D01*
Y7402D02*
Y7520D01*
X5118Y7362D02*
X5157Y7402D01*
X4882Y7362D02*
X5118D01*
X4843Y7323D02*
X4882Y7362D01*
X4843Y7244D02*
Y7323D01*
Y7244D02*
X4882Y7205D01*
X5118D01*
X5157Y7165D01*
Y7087D02*
Y7165D01*
X5118Y7047D02*
X5157Y7087D01*
X4882Y7047D02*
X5118D01*
X4843Y7008D02*
X4882Y7047D01*
X4843Y6929D02*
Y7008D01*
D45*
X26870Y5413D02*
X28051D01*
X28071Y5394D01*
D48*
X27205Y8740D02*
X27795D01*
X28346Y8189D02*
X28898D01*
X27795Y8740D02*
X28346Y8189D01*
D51*
X26614Y5157D02*
X26870Y5413D01*
X25709Y5157D02*
X26614D01*
X25512Y5354D02*
X25709Y5157D01*
X-30400Y8400D02*
Y7800D01*
X-30000D01*
X-29700Y8200D02*
X-29500D01*
X-29400Y8100D01*
Y7800D01*
X-29700D01*
X-29800Y7900D01*
X-29700Y8000D01*
X-29400D01*
X-29200Y8200D02*
Y7900D01*
X-29100Y7800D01*
X-28801D01*
Y7700D01*
X-28900Y7600D01*
X-29000D01*
X-28801Y7800D02*
Y8200D01*
X-28301Y7800D02*
X-28501D01*
X-28601Y7900D01*
Y8100D01*
X-28501Y8200D01*
X-28301D01*
X-28201Y8100D01*
Y8000D01*
X-28601D01*
X-28001Y8200D02*
Y7800D01*
Y8000D01*
X-27901Y8100D01*
X-27801Y8200D01*
X-27701D01*
X-26801Y8300D02*
X-26701Y8400D01*
X-26501D01*
X-26401Y8300D01*
Y8200D01*
X-26501Y8100D01*
X-26601D01*
X-26501D01*
X-26401Y8000D01*
Y7900D01*
X-26501Y7800D01*
X-26701D01*
X-26801Y7900D01*
X-25602Y8100D02*
X-25202D01*
X-24002Y8300D02*
X-24102Y8400D01*
X-24302D01*
X-24402Y8300D01*
Y8200D01*
X-24302Y8100D01*
X-24102D01*
X-24002Y8000D01*
Y7900D01*
X-24102Y7800D01*
X-24302D01*
X-24402Y7900D01*
X-23802Y7800D02*
X-23602D01*
X-23702D01*
Y8200D01*
X-23802D01*
X-23102Y7600D02*
X-23002D01*
X-22902Y7700D01*
Y8200D01*
X-23202D01*
X-23302Y8100D01*
Y7900D01*
X-23202Y7800D01*
X-22902D01*
X-22702D02*
Y8200D01*
X-22403D01*
X-22303Y8100D01*
Y7800D01*
X-22003Y8200D02*
X-21803D01*
X-21703Y8100D01*
Y7800D01*
X-22003D01*
X-22103Y7900D01*
X-22003Y8000D01*
X-21703D01*
X-21503Y7800D02*
X-21303D01*
X-21403D01*
Y8400D01*
X-21503D01*
X-20203Y7800D02*
X-20403Y8000D01*
Y8200D01*
X-20203Y8400D01*
X-19504Y8300D02*
X-19603Y8400D01*
X-19803D01*
X-19903Y8300D01*
Y7900D01*
X-19803Y7800D01*
X-19603D01*
X-19504Y7900D01*
X-19204Y7800D02*
X-19004D01*
X-18904Y7900D01*
Y8100D01*
X-19004Y8200D01*
X-19204D01*
X-19304Y8100D01*
Y7900D01*
X-19204Y7800D01*
X-18704Y7600D02*
Y8200D01*
X-18404D01*
X-18304Y8100D01*
Y7900D01*
X-18404Y7800D01*
X-18704D01*
X-18104Y7600D02*
Y8200D01*
X-17804D01*
X-17704Y8100D01*
Y7900D01*
X-17804Y7800D01*
X-18104D01*
X-17204D02*
X-17404D01*
X-17504Y7900D01*
Y8100D01*
X-17404Y8200D01*
X-17204D01*
X-17104Y8100D01*
Y8000D01*
X-17504D01*
X-16904Y8200D02*
Y7800D01*
Y8000D01*
X-16804Y8100D01*
X-16704Y8200D01*
X-16604D01*
X-16305Y7800D02*
X-16105Y8000D01*
Y8200D01*
X-16305Y8400D01*
D58*
X3600Y3150D02*
D03*
Y3650D02*
D03*
X3100D02*
D03*
Y3150D02*
D03*
X3600Y3150D02*
D03*
Y3650D02*
D03*
X3100D02*
D03*
Y3150D02*
D03*
X6575Y7677D02*
D03*
X5000Y8307D02*
D03*
X5630Y7362D02*
D03*
X7205Y6732D02*
D03*
Y6417D02*
D03*
X5630Y6102D02*
D03*
D59*
X22913Y3307D02*
D03*
X21929D02*
D03*
X21535D02*
D03*
X21142D02*
D03*
X17323Y2283D02*
D03*
X21142Y2047D02*
D03*
X12835Y2559D02*
D03*
X12283D02*
D03*
X9646Y2047D02*
D03*
X7874Y2559D02*
D03*
X30748Y6063D02*
D03*
X30591Y3937D02*
D03*
X30945Y3307D02*
D03*
X26063Y9882D02*
D03*
X26457D02*
D03*
X29606Y4134D02*
D03*
X28819Y3937D02*
D03*
X28425Y4134D02*
D03*
X30039Y3937D02*
D03*
X25591Y4331D02*
D03*
X14961Y1457D02*
D03*
X23189Y3307D02*
D03*
X24449D02*
D03*
X24055D02*
D03*
X25669Y3661D02*
D03*
X14882Y8307D02*
D03*
X15197Y7677D02*
D03*
X16457D02*
D03*
Y7047D02*
D03*
X15512Y7677D02*
D03*
X14882Y7362D02*
D03*
Y8622D02*
D03*
X15197D02*
D03*
Y9252D02*
D03*
X15512D02*
D03*
X31299Y5709D02*
D03*
X11732Y9567D02*
D03*
X12047Y8937D02*
D03*
X12677Y9567D02*
D03*
Y9252D02*
D03*
X14567Y10512D02*
D03*
X14488Y1693D02*
D03*
X14252D02*
D03*
X15827Y6417D02*
D03*
X15512Y6102D02*
D03*
X14252Y4528D02*
D03*
X12362D02*
D03*
X8110Y3031D02*
D03*
X14252Y5472D02*
D03*
X13622D02*
D03*
X16575Y10197D02*
D03*
X25276Y6142D02*
D03*
X14567Y8937D02*
D03*
X9173Y1260D02*
D03*
X9882D02*
D03*
X9646Y1575D02*
D03*
X7756D02*
D03*
X10787Y7677D02*
D03*
X11102Y6732D02*
D03*
X8465Y7677D02*
D03*
X5315Y6102D02*
D03*
X10787Y7992D02*
D03*
X8465Y5787D02*
D03*
X11102Y7047D02*
D03*
X5315Y7362D02*
D03*
X5000Y7677D02*
D03*
X9528Y6732D02*
D03*
X11102Y6102D02*
D03*
X10787Y6732D02*
D03*
X8150Y7362D02*
D03*
X7205Y8937D02*
D03*
X10787Y8622D02*
D03*
X9843Y8307D02*
D03*
X5630Y9252D02*
D03*
X10157D02*
D03*
X11102Y8937D02*
D03*
X6890Y8307D02*
D03*
X5630Y9882D02*
D03*
X9843Y10197D02*
D03*
X5630Y10512D02*
D03*
X10157D02*
D03*
X5630Y10197D02*
D03*
X9843Y9567D02*
D03*
X5315Y10512D02*
D03*
X10787D02*
D03*
X5315Y9882D02*
D03*
X9843Y9252D02*
D03*
X7835Y6417D02*
D03*
X4055Y4528D02*
D03*
X4370D02*
D03*
X2992Y5000D02*
D03*
X5551Y4173D02*
D03*
X12362Y5472D02*
D03*
X11732Y5157D02*
D03*
Y4843D02*
D03*
X12677Y5157D02*
D03*
X11102Y4843D02*
D03*
X7874Y4685D02*
D03*
X11732Y9252D02*
D03*
X11260Y10787D02*
D03*
X25709Y6732D02*
D03*
X27244Y5945D02*
D03*
X27047Y5787D02*
D03*
X26693D02*
D03*
X14882Y10197D02*
D03*
Y9882D02*
D03*
X14252Y5787D02*
D03*
X14567Y5472D02*
D03*
X14882D02*
D03*
X27638Y5827D02*
D03*
X28307Y5551D02*
D03*
Y5827D02*
D03*
X30354Y10344D02*
D03*
X29370D02*
D03*
X28386D02*
D03*
Y8583D02*
D03*
X28583Y8425D02*
D03*
X13937Y7047D02*
D03*
X25748Y3898D02*
D03*
X25236Y4331D02*
D03*
X14961Y1693D02*
D03*
D60*
X27205Y8740D02*
D03*
X26870Y5413D02*
D03*
X28071Y5394D02*
D03*
X25512Y5354D02*
D03*
X6102Y8150D02*
D03*
X28898Y8189D02*
D03*
D65*
X16811Y3465D02*
X20984D01*
X15984Y4291D02*
X16811Y3465D01*
X15984Y4291D02*
Y6535D01*
X16929Y3583D02*
X21260D01*
X16339Y4173D02*
X16929Y3583D01*
X16339Y4173D02*
Y6732D01*
X17047Y3701D02*
X21535D01*
X16496Y4252D02*
X17047Y3701D01*
X16496Y4252D02*
Y7008D01*
X17165Y3819D02*
X22598D01*
X16693Y4291D02*
X17165Y3819D01*
X16693Y4291D02*
Y7087D01*
X17283Y3937D02*
X22756D01*
X16850Y4370D02*
X17283Y3937D01*
X16850Y4370D02*
Y7126D01*
X22756Y3937D02*
X23189Y3504D01*
X17402Y4055D02*
X23307D01*
X17008Y4449D02*
X17402Y4055D01*
X17008Y4449D02*
Y7165D01*
X21535Y3701D02*
X21929Y3307D01*
X21260Y3583D02*
X21535Y3307D01*
X20984Y3465D02*
X21142Y3307D01*
X22913D02*
Y3504D01*
X22598Y3819D02*
X22913Y3504D01*
X20945Y2244D02*
X21142Y2047D01*
X19606Y2244D02*
X20945D01*
X19409Y2047D02*
X19606Y2244D01*
X17559Y2047D02*
X19409D01*
X17323Y2283D02*
X17559Y2047D01*
X17323Y2283D02*
X17362D01*
X13110D02*
X13858D01*
X12835Y2559D02*
X13110Y2283D01*
X12677Y2953D02*
X14291D01*
X12283Y2559D02*
X12677Y2953D01*
X10984Y2795D02*
X11535D01*
X10709Y2520D02*
X10984Y2795D01*
X10709Y2008D02*
Y2520D01*
X11850Y3110D02*
X14252D01*
X11535Y2795D02*
X11850Y3110D01*
X10551Y1850D02*
X10709Y2008D01*
X10276Y1850D02*
X10551D01*
X10138Y1713D02*
X10276Y1850D01*
X10138Y1516D02*
Y1713D01*
X9370Y2677D02*
X9528Y2835D01*
X9370Y1457D02*
Y2677D01*
X9646Y2047D02*
X9764Y2165D01*
Y2717D02*
X10000Y2953D01*
X9764Y2165D02*
Y2717D01*
X8189Y4055D02*
X11890D01*
X7441Y3307D02*
X8189Y4055D01*
X7480Y1850D02*
X7756Y1575D01*
X7480Y1850D02*
Y2205D01*
X7638Y2362D01*
Y2756D01*
X7874Y2559D02*
Y3268D01*
X8504Y3898D01*
X24921Y5000D02*
X25591Y4331D01*
X24528Y5000D02*
X24921D01*
X23189Y3307D02*
Y3504D01*
X23307Y4055D02*
X24055Y3307D01*
X18937Y4173D02*
X23583D01*
X19173Y4291D02*
X23701D01*
X23583Y4173D02*
X24449Y3307D01*
X23661Y4606D02*
X24370Y3898D01*
X22677Y4606D02*
X23661D01*
X18622Y4488D02*
X18937Y4173D01*
X23701Y4291D02*
X24331Y3661D01*
X18701Y4764D02*
X19173Y4291D01*
X13858Y2283D02*
X15669Y4094D01*
X17520Y4488D02*
X18622D01*
X17520Y4764D02*
X18701D01*
X17323Y4961D02*
X17520Y4764D01*
X17165Y4843D02*
X17520Y4488D01*
X16496Y7677D02*
X17008Y7165D01*
X16457Y7520D02*
X16850Y7126D01*
X16575Y7205D02*
X16693Y7087D01*
X16457Y7047D02*
X16496Y7008D01*
X16181Y6890D02*
X16339Y6732D01*
X15079Y6890D02*
X16181D01*
X16457Y7677D02*
X16496D01*
X15669Y7520D02*
X16457D01*
X15512Y7677D02*
X15669Y7520D01*
X15197Y7677D02*
X15354Y7835D01*
X15039Y6929D02*
X15079Y6890D01*
X15039Y6929D02*
Y7205D01*
X14882Y7362D02*
X15039Y7205D01*
X14882Y7362D02*
Y7362D01*
X15039Y8189D02*
X15079Y8150D01*
X15039Y8189D02*
Y8465D01*
X14882Y8622D02*
X15039Y8465D01*
X15197Y8622D02*
X15354Y8465D01*
X15354Y8819D02*
X15394Y8780D01*
X15354Y8819D02*
Y9094D01*
X15197Y9252D02*
X15354Y9094D01*
X15669D02*
Y9094D01*
X15512Y9252D02*
X15669Y9094D01*
X8819Y3740D02*
X12795D01*
X8110Y3031D02*
X8819Y3740D01*
X15669Y4094D02*
Y6260D01*
X15669D01*
X15827Y6417D01*
X14291Y2953D02*
X15354Y4016D01*
Y5945D01*
X15512Y6102D01*
X14252Y4528D02*
X14409Y4370D01*
Y3740D02*
Y4370D01*
X13150Y4961D02*
X13189Y5000D01*
X13740D01*
X13780Y5039D01*
Y5276D01*
X13819Y5315D01*
X14094D01*
X14252Y5472D01*
X13465Y5315D02*
X13622Y5472D01*
X12638Y3898D02*
X12835Y4094D01*
X8504Y3898D02*
X12638D01*
X12874Y5315D02*
X13465D01*
X12835Y5276D02*
X12874Y5315D01*
X12835Y4094D02*
Y5276D01*
X7441Y2953D02*
X7638Y2756D01*
X7441Y2953D02*
Y3307D01*
X11890Y4055D02*
X12362Y4528D01*
X12795Y3740D02*
X13150Y4094D01*
Y4961D01*
X14252Y5787D02*
Y5787D01*
Y5787D02*
X14409Y5630D01*
Y5039D02*
Y5630D01*
X14370Y5000D02*
X14409Y5039D01*
X14134Y5000D02*
X14370D01*
X14094Y4961D02*
X14134Y5000D01*
X14094Y4134D02*
Y4961D01*
X13543Y3583D02*
X14094Y4134D01*
X14882Y5472D02*
X15039Y5315D01*
X14567Y5472D02*
X14724Y5315D01*
X10000Y3583D02*
X13543D01*
X9528Y3110D02*
X10000Y3583D01*
X9528Y2835D02*
Y3110D01*
X9173Y1260D02*
X9370Y1457D01*
X10000Y3071D02*
X10354Y3425D01*
X10276Y2835D02*
X10709Y3268D01*
X10276Y2520D02*
Y2835D01*
X9961Y2205D02*
X10276Y2520D01*
X9961Y1890D02*
Y2205D01*
X9646Y1575D02*
X9961Y1890D01*
X9882Y1260D02*
X10138Y1516D01*
X10000Y2953D02*
Y3071D01*
X14252Y3110D02*
X15039Y3898D01*
Y5315D01*
X10354Y3425D02*
X14094D01*
X14409Y3740D01*
X10709Y3268D02*
X14173D01*
X14724Y3819D01*
Y5315D01*
X13937Y7047D02*
X14094Y6890D01*
Y6614D02*
Y6890D01*
Y6614D02*
X14134Y6575D01*
X15945D01*
X15984Y6535D01*
X14724Y8150D02*
X14882Y8307D01*
X14724Y7559D02*
Y8150D01*
Y7559D02*
X14764Y7520D01*
X15315D01*
X15354Y7480D01*
Y7244D02*
Y7480D01*
Y7244D02*
X15394Y7205D01*
X16575D01*
X15354Y7835D02*
X16614D01*
X17165Y7283D01*
Y4843D02*
Y7283D01*
X17323Y4961D02*
Y7441D01*
X15079Y8150D02*
X16614D01*
X17323Y7441D01*
X15394Y8780D02*
X16693D01*
X15354Y8465D02*
X16772D01*
X17480Y7756D01*
Y6614D02*
Y7756D01*
X15669Y9094D02*
X16614D01*
X17480Y6614D02*
X19016Y5079D01*
X16614Y9094D02*
X19961Y5748D01*
X23780D01*
X24528Y5000D01*
X16693Y8780D02*
X19921Y5551D01*
X23622D01*
X24724Y4449D01*
X24843Y4331D01*
X25236D01*
X22205Y5079D02*
X22677Y4606D01*
X19016Y5079D02*
X22205D01*
X24331Y3661D02*
X25669D01*
X24370Y3898D02*
X25748D01*
D66*
X25630Y7717D02*
X25866D01*
X25512Y7598D02*
X25630Y7717D01*
X25157Y7598D02*
X25512D01*
X23898Y8622D02*
X25236Y7283D01*
X22126Y8622D02*
X23898D01*
X20787Y9961D02*
X22126Y8622D01*
X22855Y8425D02*
X24706Y6575D01*
X22087Y8425D02*
X22855D01*
X21260Y9252D02*
X22087Y8425D01*
X20039Y9291D02*
X20866Y8465D01*
X17480Y9291D02*
X20039D01*
X17205Y9567D02*
X17480Y9291D01*
X27047Y2756D02*
X28740D01*
X26772Y2480D02*
X27047Y2756D01*
X15976Y2480D02*
X26772D01*
X26850Y3031D02*
X27795D01*
X26575Y2756D02*
X26850Y3031D01*
X15551Y2756D02*
X26575D01*
X26510Y2874D02*
X26786Y3150D01*
X15441Y2874D02*
X26510D01*
X14260Y1693D02*
X15441Y2874D01*
X14488Y1693D02*
X15551Y2756D01*
X26693Y2598D02*
X26969Y2874D01*
X15866Y2598D02*
X26693D01*
X14961Y1693D02*
X15866Y2598D01*
X14961Y1465D02*
X15976Y2480D01*
X29921Y3937D02*
X30039D01*
X28740Y2756D02*
X29921Y3937D01*
X28701D02*
X28819D01*
X27795Y3031D02*
X28701Y3937D01*
X26969Y2874D02*
X28661D01*
X29606Y3819D01*
X27717Y3150D02*
X28425Y3858D01*
X26786Y3150D02*
X27717D01*
X17913Y9961D02*
X20787D01*
X17677Y10197D02*
X17913Y9961D01*
X30591Y3937D02*
Y10630D01*
X30748Y6063D02*
Y10669D01*
X30487Y11127D02*
X30945Y10669D01*
Y3307D02*
Y10669D01*
X20945Y10354D02*
X22008Y9291D01*
X23465D01*
X25157Y7598D01*
X14488Y10669D02*
X25157D01*
X26063Y9173D02*
Y9882D01*
Y9173D02*
X26142Y9094D01*
X28110D01*
X26535Y9252D02*
X28150D01*
X26457Y9331D02*
Y9882D01*
Y9331D02*
X26535Y9252D01*
X29606Y3819D02*
Y4134D01*
X28425Y3858D02*
Y4134D01*
X16654Y11457D02*
X22756D01*
X16339Y11142D02*
X16654Y11457D01*
X22638Y11299D02*
X22810Y11127D01*
X16772Y11299D02*
X22638D01*
X16457Y10984D02*
X16772Y11299D01*
X25157Y10669D02*
X25472Y10354D01*
X30354Y10866D02*
X30591Y10630D01*
X26772Y10866D02*
X30354D01*
X26260Y10354D02*
X26772Y10866D01*
X30433Y10984D02*
X30748Y10669D01*
X26614Y10984D02*
X30433D01*
X26142Y10512D02*
X26614Y10984D01*
X18661Y8740D02*
X21496Y5906D01*
X17205Y8740D02*
X18661D01*
X16693Y9252D02*
X17205Y8740D01*
X14961Y1457D02*
Y1465D01*
X24706Y6575D02*
X25512D01*
X14724Y10354D02*
X20945D01*
X22992Y10827D02*
X25236D01*
X22795Y11024D02*
X22992Y10827D01*
X16772Y11024D02*
X22795D01*
X25551Y10512D02*
X26142D01*
X25236Y10827D02*
X25551Y10512D01*
X25472Y10354D02*
X26260D01*
X31063Y5945D02*
Y10748D01*
Y5945D02*
X31299Y5709D01*
X22810Y11127D02*
X30487D01*
X14409Y10984D02*
X16457D01*
X30551Y11260D02*
X31063Y10748D01*
X25551Y11260D02*
X30551D01*
X11890Y10315D02*
X11929Y10354D01*
X11890Y9724D02*
Y10315D01*
X11890Y9724D02*
X11890D01*
X11732Y9567D02*
X11890Y9724D01*
X13780Y10354D02*
X14409Y10984D01*
X13780Y10079D02*
Y10354D01*
X13740Y10039D02*
X13780Y10079D01*
X12244Y10039D02*
X13740D01*
X12205Y10000D02*
X12244Y10039D01*
X12205Y9094D02*
Y10000D01*
X12047Y8937D02*
X12205Y9094D01*
X16575Y10827D02*
X16772Y11024D01*
X14449Y10827D02*
X16575D01*
X14094Y10472D02*
X14449Y10827D01*
X14094Y9764D02*
Y10472D01*
X14055Y9724D02*
X14094Y9764D01*
X12835Y9724D02*
X14055D01*
X12677Y9567D02*
X12835Y9724D01*
X14409Y10591D02*
X14488Y10669D01*
X14409Y9449D02*
Y10591D01*
X14370Y9409D02*
X14409Y9449D01*
X12835Y9409D02*
X14370D01*
X12677Y9252D02*
X12835Y9409D01*
X12677Y9252D02*
X12677D01*
X26969Y5945D02*
X27244D01*
X26378Y6535D02*
X26969Y5945D01*
X26378Y6535D02*
Y7205D01*
X25866Y7717D02*
X26378Y7205D01*
X14567Y10512D02*
X14724Y10354D01*
X16260Y10039D02*
X16417Y9882D01*
X15039Y10039D02*
X16260D01*
X14252Y1693D02*
X14260D01*
X24921Y6142D02*
X25276D01*
X24843Y6063D02*
X24921Y6142D01*
X24724Y6063D02*
X24843D01*
X24685Y6102D02*
X24724Y6063D01*
X24685Y6102D02*
Y6220D01*
X24646Y6260D02*
X24685Y6220D01*
X24646Y6260D02*
Y6260D01*
X24528D02*
X24646D01*
X24528Y6260D02*
Y6260D01*
X24488Y6220D02*
X24528Y6260D01*
X24488Y6102D02*
Y6220D01*
X24449Y6063D02*
X24488Y6102D01*
X24370Y6063D02*
X24449D01*
X24331Y6102D02*
X24370Y6063D01*
X24331Y6102D02*
Y6378D01*
X24291Y6417D02*
X24331Y6378D01*
X16181Y9409D02*
X16339Y9252D01*
X14764Y9409D02*
X16181D01*
X16181Y9724D02*
X16339Y9567D01*
X15039Y9724D02*
X16181D01*
X14724Y9370D02*
X14764Y9409D01*
X14724Y9094D02*
Y9370D01*
X14567Y8937D02*
X14724Y9094D01*
X14882Y9882D02*
X15039Y9724D01*
X11260Y4685D02*
X11575D01*
X11102Y4528D02*
X11260Y4685D01*
X10472Y4528D02*
X11102D01*
X10669Y5315D02*
X12205D01*
X10354Y5000D02*
X10669Y5315D01*
X2992Y5000D02*
X10354D01*
X6102Y4370D02*
X9685D01*
X9843Y4213D01*
X10472D01*
Y4213D01*
X10630Y4370D01*
X11850D01*
X5906Y4528D02*
X9843D01*
X10000Y4370D01*
X10315D01*
X10472Y4528D01*
X12205Y5315D02*
X12362Y5472D01*
X11575Y5000D02*
X11732Y5157D01*
X11575Y4685D02*
X11732Y4843D01*
X4055Y4528D02*
X4567Y4016D01*
X5748D01*
X5945Y4213D01*
X5945D01*
X6102Y4370D01*
X11850D02*
X11890Y4409D01*
Y4961D01*
X11929Y5000D01*
X12520D01*
X12677Y5157D01*
X4370Y4528D02*
X5276D01*
X5591Y4843D01*
X10787D01*
X11575Y4685D02*
Y4685D01*
X5551Y4173D02*
X5906Y4528D01*
X10787Y4843D02*
X10945Y5000D01*
X11575D01*
X11260Y9449D02*
Y10787D01*
Y9449D02*
X11299Y9409D01*
X11575D01*
X11732Y9252D01*
X14882Y10197D02*
X15039Y10039D01*
X26890Y5630D02*
X27047Y5787D01*
X28110Y9094D02*
X28386Y8819D01*
X28150Y9252D02*
X28583Y8819D01*
X25827Y5630D02*
X26890D01*
X26299Y5787D02*
X26693D01*
X25394Y6732D02*
X25709D01*
X25276Y6850D02*
X25394Y6732D01*
X25276Y6850D02*
X25276D01*
X25512Y6575D02*
X26299Y5787D01*
X25236Y6890D02*
X25276Y6850D01*
X28386Y8583D02*
Y8819D01*
X28583Y8425D02*
Y8819D01*
X16339Y9252D02*
X16693D01*
X16339Y9567D02*
X17205D01*
X16575Y10197D02*
X17677D01*
X16417Y9882D02*
X17087D01*
X17244Y9724D01*
X25551Y5906D02*
X25827Y5630D01*
X25236Y6890D02*
Y7283D01*
X17244Y9724D02*
X19961D01*
X20433Y9252D02*
X21260D01*
X19961Y9724D02*
X20433Y9252D01*
X21496Y5906D02*
X25551D01*
X21339Y6417D02*
X24291D01*
X20866Y6890D02*
Y8465D01*
Y6890D02*
X21339Y6417D01*
X11929Y10354D02*
X13150D01*
X13937Y11142D01*
X16339D01*
X25276Y11535D02*
X25551Y11260D01*
X22756Y11457D02*
X22835Y11535D01*
X25276D01*
D67*
X30354Y9961D02*
Y10344D01*
X29961Y9567D02*
X30354Y9961D01*
X29961Y6614D02*
Y9567D01*
X29252Y5906D02*
X29961Y6614D01*
X28386Y5906D02*
X29252D01*
X5157Y8150D02*
X6102D01*
X5010Y8297D02*
X5157Y8150D01*
X10945Y4685D02*
X11102Y4843D01*
X10945Y4685D02*
Y4685D01*
X7874Y4685D02*
X10945D01*
X28386Y10039D02*
X29134Y9291D01*
X28386Y10039D02*
Y10344D01*
X27638Y5827D02*
Y6535D01*
X29134Y8031D01*
Y9291D01*
X28110Y5748D02*
X28307Y5551D01*
X28110Y5748D02*
Y5984D01*
X29213Y7087D01*
Y7874D01*
X29370Y8031D01*
Y10344D01*
X28307Y5827D02*
X28386Y5906D01*
M02*
