G04 Layer_Color=16711935*
%FSLAX24Y24*%
%MOIN*%
G70*
G01*
G75*
%ADD18R,0.0177X0.1004*%
%ADD43C,0.0100*%
%ADD99R,0.0946X0.0375*%
%ADD105R,0.1064X0.0571*%
%ADD107R,0.0237X0.0245*%
%ADD108R,0.0245X0.0237*%
%ADD109R,0.0434X0.0611*%
%ADD111R,0.0571X0.1064*%
%ADD112R,0.0178X0.0178*%
%ADD113R,0.0178X0.0178*%
%ADD114R,0.0257X0.0257*%
%ADD115R,0.0257X0.0257*%
%ADD116R,0.0335X0.0335*%
%ADD117R,0.1024X0.1024*%
%ADD118O,0.0394X0.0138*%
%ADD119O,0.0138X0.0394*%
%ADD120R,3.2283X0.1063*%
%ADD121R,0.0240X0.0220*%
%ADD122O,0.0591X0.0178*%
%ADD123R,0.0335X0.0335*%
%ADD124O,0.0119X0.0335*%
%ADD125O,0.0335X0.0119*%
%ADD126R,0.1351X0.1351*%
G04:AMPARAMS|DCode=127|XSize=16.5mil|YSize=39mil|CornerRadius=4.7mil|HoleSize=0mil|Usage=FLASHONLY|Rotation=180.000|XOffset=0mil|YOffset=0mil|HoleType=Round|Shape=RoundedRectangle|*
%AMROUNDEDRECTD127*
21,1,0.0165,0.0295,0,0,180.0*
21,1,0.0071,0.0390,0,0,180.0*
1,1,0.0095,-0.0035,0.0147*
1,1,0.0095,0.0035,0.0147*
1,1,0.0095,0.0035,-0.0147*
1,1,0.0095,-0.0035,-0.0147*
%
%ADD127ROUNDEDRECTD127*%
G04:AMPARAMS|DCode=128|XSize=70.5mil|YSize=100mil|CornerRadius=4.7mil|HoleSize=0mil|Usage=FLASHONLY|Rotation=270.000|XOffset=0mil|YOffset=0mil|HoleType=Round|Shape=RoundedRectangle|*
%AMROUNDEDRECTD128*
21,1,0.0705,0.0906,0,0,270.0*
21,1,0.0611,0.1000,0,0,270.0*
1,1,0.0094,-0.0453,-0.0305*
1,1,0.0094,-0.0453,0.0305*
1,1,0.0094,0.0453,0.0305*
1,1,0.0094,0.0453,-0.0305*
%
%ADD128ROUNDEDRECTD128*%
%ADD129R,0.0296X0.0375*%
%ADD130R,0.0316X0.0150*%
%ADD131C,0.0210*%
%ADD132C,0.0200*%
D18*
X1260Y551D02*
D03*
X1496D02*
D03*
X1732D02*
D03*
X1969D02*
D03*
X2205D02*
D03*
X2441D02*
D03*
X2677D02*
D03*
X2913D02*
D03*
X3150D02*
D03*
X3386D02*
D03*
X3622D02*
D03*
X3858D02*
D03*
X4094D02*
D03*
X4331D02*
D03*
X4567D02*
D03*
X4803D02*
D03*
X5039D02*
D03*
X5276D02*
D03*
X5512D02*
D03*
X5748D02*
D03*
X5984D02*
D03*
X6220D02*
D03*
X6457D02*
D03*
X6693D02*
D03*
X6929D02*
D03*
X7165D02*
D03*
X7402D02*
D03*
X7638D02*
D03*
X7874D02*
D03*
X8110D02*
D03*
X8346D02*
D03*
X8583D02*
D03*
X8819D02*
D03*
X9055D02*
D03*
X9291D02*
D03*
X9528D02*
D03*
X9764D02*
D03*
X10000D02*
D03*
X10236D02*
D03*
X10472D02*
D03*
X10709D02*
D03*
X10945D02*
D03*
X11181D02*
D03*
X11417D02*
D03*
X11654D02*
D03*
X11890D02*
D03*
X12126D02*
D03*
X12362D02*
D03*
X12598D02*
D03*
X12835D02*
D03*
X13071D02*
D03*
X13307D02*
D03*
X13543D02*
D03*
X13780D02*
D03*
X14016D02*
D03*
X14252D02*
D03*
X14488D02*
D03*
X14724D02*
D03*
X14961D02*
D03*
X15197D02*
D03*
X15433D02*
D03*
X15669D02*
D03*
X15906D02*
D03*
X16142D02*
D03*
X16378D02*
D03*
X17795D02*
D03*
X18032D02*
D03*
X18268D02*
D03*
X18504D02*
D03*
X18740D02*
D03*
X18976D02*
D03*
X19213D02*
D03*
X19449D02*
D03*
X19685D02*
D03*
X19921D02*
D03*
X20157D02*
D03*
X20394D02*
D03*
X20630D02*
D03*
X20866D02*
D03*
X21102D02*
D03*
X21339D02*
D03*
X21575D02*
D03*
X21811D02*
D03*
X22047D02*
D03*
X22283D02*
D03*
X22520D02*
D03*
X22756D02*
D03*
X22992D02*
D03*
X23228D02*
D03*
X23465D02*
D03*
X23701D02*
D03*
X23937D02*
D03*
X24173D02*
D03*
X24409D02*
D03*
X24646D02*
D03*
X24882D02*
D03*
X25118D02*
D03*
X25354D02*
D03*
X25591D02*
D03*
X25827D02*
D03*
X26063D02*
D03*
X26299D02*
D03*
X26535D02*
D03*
X26772D02*
D03*
X27008D02*
D03*
X27244D02*
D03*
X27480D02*
D03*
X27717D02*
D03*
X27953D02*
D03*
X28189D02*
D03*
X28425D02*
D03*
X28661D02*
D03*
X28898D02*
D03*
X29134D02*
D03*
X29370D02*
D03*
X29606D02*
D03*
X29843D02*
D03*
X30079D02*
D03*
X30315D02*
D03*
X30551D02*
D03*
X30787D02*
D03*
X31024D02*
D03*
D43*
X-30400Y-4600D02*
Y-5200D01*
X-30100D01*
X-30000Y-5100D01*
Y-5000D01*
X-30100Y-4900D01*
X-30400D01*
X-30100D01*
X-30000Y-4800D01*
Y-4700D01*
X-30100Y-4600D01*
X-30400D01*
X-29700Y-5200D02*
X-29500D01*
X-29400Y-5100D01*
Y-4900D01*
X-29500Y-4800D01*
X-29700D01*
X-29800Y-4900D01*
Y-5100D01*
X-29700Y-5200D01*
X-29100Y-4700D02*
Y-4800D01*
X-29200D01*
X-29000D01*
X-29100D01*
Y-5100D01*
X-29000Y-5200D01*
X-28601Y-4700D02*
Y-4800D01*
X-28701D01*
X-28501D01*
X-28601D01*
Y-5100D01*
X-28501Y-5200D01*
X-28101D02*
X-27901D01*
X-27801Y-5100D01*
Y-4900D01*
X-27901Y-4800D01*
X-28101D01*
X-28201Y-4900D01*
Y-5100D01*
X-28101Y-5200D01*
X-27601D02*
Y-4800D01*
X-27501D01*
X-27401Y-4900D01*
Y-5200D01*
Y-4900D01*
X-27301Y-4800D01*
X-27201Y-4900D01*
Y-5200D01*
X-26001Y-4700D02*
X-26101Y-4600D01*
X-26301D01*
X-26401Y-4700D01*
Y-4800D01*
X-26301Y-4900D01*
X-26101D01*
X-26001Y-5000D01*
Y-5100D01*
X-26101Y-5200D01*
X-26301D01*
X-26401Y-5100D01*
X-25702Y-5200D02*
X-25502D01*
X-25402Y-5100D01*
Y-4900D01*
X-25502Y-4800D01*
X-25702D01*
X-25801Y-4900D01*
Y-5100D01*
X-25702Y-5200D01*
X-25202D02*
X-25002D01*
X-25102D01*
Y-4600D01*
X-25202D01*
X-24302D02*
Y-5200D01*
X-24602D01*
X-24702Y-5100D01*
Y-4900D01*
X-24602Y-4800D01*
X-24302D01*
X-23802Y-5200D02*
X-24002D01*
X-24102Y-5100D01*
Y-4900D01*
X-24002Y-4800D01*
X-23802D01*
X-23702Y-4900D01*
Y-5000D01*
X-24102D01*
X-23502Y-4800D02*
Y-5200D01*
Y-5000D01*
X-23402Y-4900D01*
X-23302Y-4800D01*
X-23202D01*
X-22103Y-5200D02*
X-22303Y-5000D01*
Y-4800D01*
X-22103Y-4600D01*
X-21803Y-5200D02*
Y-4600D01*
X-21603Y-4800D01*
X-21403Y-4600D01*
Y-5200D01*
X-21103Y-4800D02*
X-20903D01*
X-20803Y-4900D01*
Y-5200D01*
X-21103D01*
X-21203Y-5100D01*
X-21103Y-5000D01*
X-20803D01*
X-20603Y-5200D02*
X-20303D01*
X-20203Y-5100D01*
X-20303Y-5000D01*
X-20503D01*
X-20603Y-4900D01*
X-20503Y-4800D01*
X-20203D01*
X-20003Y-5200D02*
Y-4600D01*
Y-5000D02*
X-19703Y-4800D01*
X-20003Y-5000D02*
X-19703Y-5200D01*
X-19404D02*
X-19204Y-5000D01*
Y-4800D01*
X-19404Y-4600D01*
D99*
X25039Y8622D02*
D03*
Y7835D02*
D03*
D105*
X17480Y4646D02*
D03*
Y5610D02*
D03*
X18740Y5659D02*
D03*
Y6624D02*
D03*
X17480Y7254D02*
D03*
Y6289D02*
D03*
D107*
X27841Y5551D02*
D03*
X27514D02*
D03*
X11738Y6102D02*
D03*
X11411D02*
D03*
X1766Y6063D02*
D03*
X2093D02*
D03*
X2250Y8307D02*
D03*
X1923D02*
D03*
X12053Y6732D02*
D03*
X11726D02*
D03*
X12035Y5787D02*
D03*
X12362D02*
D03*
X12002Y4843D02*
D03*
X12329D02*
D03*
X12041Y9567D02*
D03*
X12368D02*
D03*
X12683Y6732D02*
D03*
X12356D02*
D03*
Y8307D02*
D03*
X12683D02*
D03*
X12014Y10197D02*
D03*
X11687D02*
D03*
X14258Y8268D02*
D03*
X13931D02*
D03*
X14561Y9213D02*
D03*
X14888D02*
D03*
X14207Y9843D02*
D03*
X14533D02*
D03*
X13301Y7047D02*
D03*
X13628D02*
D03*
X11726Y5472D02*
D03*
X12053D02*
D03*
X15506Y7402D02*
D03*
X15833D02*
D03*
X14522Y6102D02*
D03*
X14848D02*
D03*
X15557Y7953D02*
D03*
X15230D02*
D03*
X10152Y8622D02*
D03*
X10478D02*
D03*
X10793Y6417D02*
D03*
X10467D02*
D03*
X10793Y9567D02*
D03*
X10467D02*
D03*
X10478Y10197D02*
D03*
X10152D02*
D03*
X12041Y8622D02*
D03*
X12368D02*
D03*
X12041Y6102D02*
D03*
X12368D02*
D03*
X12356Y7992D02*
D03*
X12683D02*
D03*
X13616Y7362D02*
D03*
X13943D02*
D03*
X13616Y6417D02*
D03*
X13943D02*
D03*
X13616Y6102D02*
D03*
X13943D02*
D03*
X13616Y6732D02*
D03*
X13943D02*
D03*
X13616Y7677D02*
D03*
X13943D02*
D03*
X12053Y7992D02*
D03*
X11726D02*
D03*
X12041Y7362D02*
D03*
X12368D02*
D03*
X11726Y7677D02*
D03*
X12053D02*
D03*
X2474Y1850D02*
D03*
X2801D02*
D03*
X25006Y7126D02*
D03*
X24679D02*
D03*
Y7441D02*
D03*
X25006D02*
D03*
X25618Y9055D02*
D03*
X25945D02*
D03*
Y9370D02*
D03*
X25618D02*
D03*
X29246Y7165D02*
D03*
X29573D02*
D03*
X29376Y7480D02*
D03*
X29049D02*
D03*
X27514Y5236D02*
D03*
X27841D02*
D03*
X7526Y7362D02*
D03*
X7199D02*
D03*
X5006Y5787D02*
D03*
X4679D02*
D03*
X1923Y7992D02*
D03*
X2250D02*
D03*
X13313Y6102D02*
D03*
X12986D02*
D03*
X4022Y4803D02*
D03*
X3695D02*
D03*
X1974Y4606D02*
D03*
X1648D02*
D03*
X28746Y6142D02*
D03*
X28419D02*
D03*
X27593Y8780D02*
D03*
X27919D02*
D03*
X1569Y9882D02*
D03*
X1896D02*
D03*
X16687Y9606D02*
D03*
X17014D02*
D03*
X13864Y11181D02*
D03*
X13537D02*
D03*
X22120Y11142D02*
D03*
X22447D02*
D03*
X12368Y9252D02*
D03*
X12041D02*
D03*
D108*
X11417Y8616D02*
D03*
Y8943D02*
D03*
X13307Y8931D02*
D03*
Y9258D02*
D03*
X28504Y1923D02*
D03*
Y2250D02*
D03*
X28819D02*
D03*
Y1923D02*
D03*
X26535Y5557D02*
D03*
Y5230D02*
D03*
X26220Y5348D02*
D03*
Y5675D02*
D03*
X25906Y5911D02*
D03*
Y5585D02*
D03*
X11732Y8301D02*
D03*
Y8628D02*
D03*
X2559Y8707D02*
D03*
Y8380D02*
D03*
X4016Y5636D02*
D03*
Y5309D02*
D03*
X6299Y8943D02*
D03*
Y8616D02*
D03*
X6299Y5636D02*
D03*
Y5309D02*
D03*
X18071Y10348D02*
D03*
Y10675D02*
D03*
X21614Y10085D02*
D03*
Y9758D02*
D03*
X21299D02*
D03*
Y10085D02*
D03*
X12638Y4522D02*
D03*
Y4848D02*
D03*
X13346Y4837D02*
D03*
Y5163D02*
D03*
X15787Y4848D02*
D03*
Y4522D02*
D03*
X15551Y5467D02*
D03*
Y5793D02*
D03*
X13898Y5152D02*
D03*
Y5478D02*
D03*
X14843Y5163D02*
D03*
Y4837D02*
D03*
X12992Y6738D02*
D03*
Y6411D02*
D03*
X15827Y9533D02*
D03*
Y9207D02*
D03*
X10472Y7356D02*
D03*
Y7683D02*
D03*
X11850Y11096D02*
D03*
Y11423D02*
D03*
X14567Y7329D02*
D03*
Y7002D02*
D03*
X12992Y8301D02*
D03*
Y8628D02*
D03*
X13307Y8301D02*
D03*
Y8628D02*
D03*
X13622Y8301D02*
D03*
Y8628D02*
D03*
X3425Y1844D02*
D03*
Y2171D02*
D03*
X30748Y4809D02*
D03*
Y4482D02*
D03*
X29921Y8628D02*
D03*
Y8301D02*
D03*
X28898Y8459D02*
D03*
Y8785D02*
D03*
X28937Y6569D02*
D03*
Y6896D02*
D03*
X29213Y8656D02*
D03*
Y8982D02*
D03*
X9803Y11018D02*
D03*
Y11344D02*
D03*
X6565Y8313D02*
D03*
Y7986D02*
D03*
X11102Y7671D02*
D03*
Y7998D02*
D03*
Y8628D02*
D03*
Y8301D02*
D03*
X1575Y7919D02*
D03*
Y7593D02*
D03*
X22047Y8431D02*
D03*
Y8104D02*
D03*
X11732Y7368D02*
D03*
Y7041D02*
D03*
X12992Y5793D02*
D03*
Y5467D02*
D03*
X27205Y5557D02*
D03*
Y5230D02*
D03*
X25512Y5585D02*
D03*
Y5911D02*
D03*
X30394Y4809D02*
D03*
Y4482D02*
D03*
X29213D02*
D03*
Y4809D02*
D03*
X28031D02*
D03*
Y4482D02*
D03*
X19094Y4522D02*
D03*
Y4848D02*
D03*
X18425D02*
D03*
Y4522D02*
D03*
X1496Y10793D02*
D03*
Y10467D02*
D03*
X16417Y10939D02*
D03*
Y11266D02*
D03*
X11299Y11344D02*
D03*
Y11018D02*
D03*
X25787Y10990D02*
D03*
Y10663D02*
D03*
X23543Y11305D02*
D03*
Y10978D02*
D03*
X22520Y8431D02*
D03*
Y8104D02*
D03*
X23031D02*
D03*
Y8431D02*
D03*
Y11305D02*
D03*
Y10978D02*
D03*
X11417Y9561D02*
D03*
Y9888D02*
D03*
X24134Y10624D02*
D03*
Y10951D02*
D03*
X26850Y4482D02*
D03*
Y4809D02*
D03*
X5984Y8616D02*
D03*
Y8943D02*
D03*
D109*
X14587Y11220D02*
D03*
X15335D02*
D03*
D111*
X22077Y7165D02*
D03*
X23041D02*
D03*
X17510Y8150D02*
D03*
X18474D02*
D03*
D112*
X25797Y6220D02*
D03*
X25541D02*
D03*
X5276Y8307D02*
D03*
X5020D02*
D03*
X6919Y7047D02*
D03*
X7175D02*
D03*
X5285Y10197D02*
D03*
X5030D02*
D03*
X4970Y8622D02*
D03*
X4715D02*
D03*
X7234Y10827D02*
D03*
X7490D02*
D03*
Y9882D02*
D03*
X7234D02*
D03*
Y9567D02*
D03*
X7490D02*
D03*
X6919Y8622D02*
D03*
X7175D02*
D03*
X2844Y5906D02*
D03*
X2589D02*
D03*
X2864Y7992D02*
D03*
X3120D02*
D03*
X4360Y4803D02*
D03*
X4616D02*
D03*
X27884Y9134D02*
D03*
X27628D02*
D03*
X6909Y7677D02*
D03*
X7165D02*
D03*
X4144Y7520D02*
D03*
X3888D02*
D03*
X5906Y7992D02*
D03*
X5650D02*
D03*
Y7677D02*
D03*
X5906D02*
D03*
Y7362D02*
D03*
X5650D02*
D03*
X4144Y6890D02*
D03*
X3888D02*
D03*
X6909Y6732D02*
D03*
X7165D02*
D03*
X5650Y7047D02*
D03*
X5906D02*
D03*
Y5787D02*
D03*
X5650D02*
D03*
X6545Y7047D02*
D03*
X6289D02*
D03*
X6280Y6102D02*
D03*
X6535D02*
D03*
X6545Y7677D02*
D03*
X6289D02*
D03*
X5906Y6102D02*
D03*
X5650D02*
D03*
X7165Y5787D02*
D03*
X6909D02*
D03*
X3888Y5945D02*
D03*
X4144D02*
D03*
X7165Y6102D02*
D03*
X6909D02*
D03*
X3888Y6260D02*
D03*
X4144D02*
D03*
X7165Y6417D02*
D03*
X6909D02*
D03*
X3888Y6575D02*
D03*
X4144D02*
D03*
X5650Y6417D02*
D03*
X5906D02*
D03*
X6289Y6732D02*
D03*
X6545D02*
D03*
X5650D02*
D03*
X5906D02*
D03*
X18907Y9331D02*
D03*
X18652D02*
D03*
X28789Y5551D02*
D03*
X28533D02*
D03*
Y5827D02*
D03*
X28789D02*
D03*
X15541Y10512D02*
D03*
X15797D02*
D03*
X29124Y1772D02*
D03*
X29380D02*
D03*
X29321Y2598D02*
D03*
X29577D02*
D03*
X30128D02*
D03*
X29872D02*
D03*
X30325Y1772D02*
D03*
X30069D02*
D03*
X29124Y2047D02*
D03*
X29380D02*
D03*
X29321Y2323D02*
D03*
X29577D02*
D03*
X30128D02*
D03*
X29872D02*
D03*
X30325Y2047D02*
D03*
X30069D02*
D03*
X3888Y7205D02*
D03*
X4144D02*
D03*
D113*
X7520Y6073D02*
D03*
Y5817D02*
D03*
X4685Y10797D02*
D03*
Y10541D02*
D03*
Y10167D02*
D03*
Y9911D02*
D03*
X4685Y9537D02*
D03*
Y9281D02*
D03*
X5315Y7963D02*
D03*
Y7707D02*
D03*
X4685Y6762D02*
D03*
Y7018D02*
D03*
Y6388D02*
D03*
Y6132D02*
D03*
X7520Y10482D02*
D03*
Y10226D02*
D03*
X7205Y8278D02*
D03*
Y8022D02*
D03*
X7520Y6703D02*
D03*
Y6447D02*
D03*
X1575Y8219D02*
D03*
Y8474D02*
D03*
X3150Y2136D02*
D03*
Y1880D02*
D03*
X3740Y1919D02*
D03*
Y2175D02*
D03*
X26260Y9341D02*
D03*
Y9085D02*
D03*
D114*
X12205Y11437D02*
D03*
Y11083D02*
D03*
X12835D02*
D03*
Y11437D02*
D03*
D115*
X29232Y8307D02*
D03*
X29587D02*
D03*
X28878Y7795D02*
D03*
X29232D02*
D03*
D116*
X20039Y7695D02*
D03*
X19665Y6793D02*
D03*
X20413D02*
D03*
X17244Y11278D02*
D03*
X16870Y10376D02*
D03*
X17618D02*
D03*
D117*
X3350Y3400D02*
D03*
D118*
X2582Y3006D02*
D03*
Y3203D02*
D03*
Y3400D02*
D03*
Y3597D02*
D03*
Y3794D02*
D03*
X4118D02*
D03*
Y3597D02*
D03*
Y3400D02*
D03*
Y3203D02*
D03*
Y3006D02*
D03*
D119*
X3744Y2632D02*
D03*
X3547D02*
D03*
X3350D02*
D03*
X3153D02*
D03*
X2956D02*
D03*
Y4168D02*
D03*
X3153D02*
D03*
X3350D02*
D03*
X3547D02*
D03*
X3744D02*
D03*
D120*
X16142Y531D02*
D03*
D121*
X26614Y9055D02*
D03*
Y9449D02*
D03*
X27146D02*
D03*
Y9055D02*
D03*
D122*
X18583Y9734D02*
D03*
Y9990D02*
D03*
Y10246D02*
D03*
Y10502D02*
D03*
X20787Y9734D02*
D03*
Y9990D02*
D03*
Y10246D02*
D03*
Y10502D02*
D03*
D123*
X25411Y10787D02*
D03*
X24510Y11161D02*
D03*
Y10413D02*
D03*
D124*
X26398Y8140D02*
D03*
X26555D02*
D03*
X26713D02*
D03*
X26870D02*
D03*
X27028D02*
D03*
X27185D02*
D03*
X27343D02*
D03*
X27500D02*
D03*
X27657D02*
D03*
X27815D02*
D03*
Y6270D02*
D03*
X27657D02*
D03*
X27500D02*
D03*
X27343D02*
D03*
X27185D02*
D03*
X27028D02*
D03*
X26870D02*
D03*
X26713D02*
D03*
X26555D02*
D03*
X26398D02*
D03*
D125*
X28041Y7913D02*
D03*
Y7756D02*
D03*
Y7598D02*
D03*
Y7441D02*
D03*
Y7283D02*
D03*
Y7126D02*
D03*
Y6969D02*
D03*
Y6811D02*
D03*
Y6654D02*
D03*
Y6496D02*
D03*
X26171D02*
D03*
Y6654D02*
D03*
Y6811D02*
D03*
Y6969D02*
D03*
Y7126D02*
D03*
Y7283D02*
D03*
Y7441D02*
D03*
Y7598D02*
D03*
Y7756D02*
D03*
Y7913D02*
D03*
D126*
X27106Y7205D02*
D03*
D127*
X2126Y6467D02*
D03*
X2323D02*
D03*
X2520D02*
D03*
X2717D02*
D03*
X2913D02*
D03*
Y7628D02*
D03*
X2717D02*
D03*
X2520D02*
D03*
X2323D02*
D03*
X2126D02*
D03*
D128*
X2520Y7047D02*
D03*
D129*
X10876Y10876D02*
D03*
X10226D02*
D03*
Y11486D02*
D03*
X10876D02*
D03*
D130*
X3129Y7145D02*
D03*
X3130Y6949D02*
D03*
X1910Y6949D02*
D03*
X1910Y7145D02*
D03*
D131*
X13307Y9252D02*
D03*
X11102Y7992D02*
D03*
X12047Y9252D02*
D03*
X11732Y7047D02*
D03*
Y8307D02*
D03*
X12992Y5787D02*
D03*
X11417Y9567D02*
D03*
X7205Y7362D02*
D03*
X6890Y7047D02*
D03*
X5984Y8937D02*
D03*
X12992Y6102D02*
D03*
X11102Y8628D02*
D03*
X11417Y6102D02*
D03*
D132*
X23543Y4449D02*
D03*
X23819Y11339D02*
D03*
M02*
