G04 Layer_Physical_Order=5*
G04 Layer_Color=128*
%FSLAX24Y24*%
%MOIN*%
G70*
G01*
G75*
%ADD43C,0.0100*%
%ADD47C,0.0120*%
%ADD61C,0.0300*%
%ADD62C,0.0220*%
%ADD63C,0.0240*%
%ADD64C,0.0230*%
D43*
X-0Y-0D02*
X5118D01*
Y4331D01*
X0D02*
X5118D01*
X-30400Y6400D02*
Y5800D01*
X-30000D01*
X-29700Y6200D02*
X-29500D01*
X-29400Y6100D01*
Y5800D01*
X-29700D01*
X-29800Y5900D01*
X-29700Y6000D01*
X-29400D01*
X-29200Y6200D02*
Y5900D01*
X-29100Y5800D01*
X-28801D01*
Y5700D01*
X-28900Y5600D01*
X-29000D01*
X-28801Y5800D02*
Y6200D01*
X-28301Y5800D02*
X-28501D01*
X-28601Y5900D01*
Y6100D01*
X-28501Y6200D01*
X-28301D01*
X-28201Y6100D01*
Y6000D01*
X-28601D01*
X-28001Y6200D02*
Y5800D01*
Y6000D01*
X-27901Y6100D01*
X-27801Y6200D01*
X-27701D01*
X-26401Y6400D02*
X-26801D01*
Y6100D01*
X-26601Y6200D01*
X-26501D01*
X-26401Y6100D01*
Y5900D01*
X-26501Y5800D01*
X-26701D01*
X-26801Y5900D01*
X-25602Y6100D02*
X-25202D01*
X-24402Y5800D02*
Y6400D01*
X-24102D01*
X-24002Y6300D01*
Y6100D01*
X-24102Y6000D01*
X-24402D01*
X-23702Y5800D02*
X-23502D01*
X-23402Y5900D01*
Y6100D01*
X-23502Y6200D01*
X-23702D01*
X-23802Y6100D01*
Y5900D01*
X-23702Y5800D01*
X-23202Y6200D02*
Y5900D01*
X-23102Y5800D01*
X-23002Y5900D01*
X-22902Y5800D01*
X-22802Y5900D01*
Y6200D01*
X-22303Y5800D02*
X-22503D01*
X-22603Y5900D01*
Y6100D01*
X-22503Y6200D01*
X-22303D01*
X-22203Y6100D01*
Y6000D01*
X-22603D01*
X-22003Y6200D02*
Y5800D01*
Y6000D01*
X-21903Y6100D01*
X-21803Y6200D01*
X-21703D01*
X-20803Y5800D02*
Y6400D01*
X-20503D01*
X-20403Y6300D01*
Y6100D01*
X-20503Y6000D01*
X-20803D01*
X-20203Y5800D02*
X-20003D01*
X-20103D01*
Y6400D01*
X-20203D01*
X-19603Y6200D02*
X-19404D01*
X-19304Y6100D01*
Y5800D01*
X-19603D01*
X-19703Y5900D01*
X-19603Y6000D01*
X-19304D01*
X-19104Y5800D02*
Y6200D01*
X-18804D01*
X-18704Y6100D01*
Y5800D01*
X-18204D02*
X-18404D01*
X-18504Y5900D01*
Y6100D01*
X-18404Y6200D01*
X-18204D01*
X-18104Y6100D01*
Y6000D01*
X-18504D01*
X-17104Y5800D02*
X-17304Y6000D01*
Y6200D01*
X-17104Y6400D01*
X-16405Y6300D02*
X-16504Y6400D01*
X-16704D01*
X-16804Y6300D01*
Y5900D01*
X-16704Y5800D01*
X-16504D01*
X-16405Y5900D01*
X-16105Y5800D02*
X-15905D01*
X-15805Y5900D01*
Y6100D01*
X-15905Y6200D01*
X-16105D01*
X-16205Y6100D01*
Y5900D01*
X-16105Y5800D01*
X-15605Y5600D02*
Y6200D01*
X-15305D01*
X-15205Y6100D01*
Y5900D01*
X-15305Y5800D01*
X-15605D01*
X-15005Y5600D02*
Y6200D01*
X-14705D01*
X-14605Y6100D01*
Y5900D01*
X-14705Y5800D01*
X-15005D01*
X-14105D02*
X-14305D01*
X-14405Y5900D01*
Y6100D01*
X-14305Y6200D01*
X-14105D01*
X-14005Y6100D01*
Y6000D01*
X-14405D01*
X-13805Y6200D02*
Y5800D01*
Y6000D01*
X-13705Y6100D01*
X-13605Y6200D01*
X-13505D01*
X-13106Y5700D02*
X-13006Y5800D01*
Y5900D01*
X-13106D01*
Y5800D01*
X-13006D01*
X-13106Y5700D01*
X-13206Y5600D01*
X-12006Y5800D02*
Y6400D01*
X-11806Y6200D01*
X-11606Y6400D01*
Y5800D01*
X-11306Y6200D02*
X-11106D01*
X-11006Y6100D01*
Y5800D01*
X-11306D01*
X-11406Y5900D01*
X-11306Y6000D01*
X-11006D01*
X-10806Y5800D02*
X-10506D01*
X-10406Y5900D01*
X-10506Y6000D01*
X-10706D01*
X-10806Y6100D01*
X-10706Y6200D01*
X-10406D01*
X-10207Y5800D02*
Y6400D01*
Y6000D02*
X-9907Y6200D01*
X-10207Y6000D02*
X-9907Y5800D01*
X-9607D02*
X-9407Y6000D01*
Y6200D01*
X-9607Y6400D01*
D47*
X12520Y8898D02*
Y11024D01*
Y8780D02*
X13622D01*
X11575Y8465D02*
X12520D01*
X11575Y6102D02*
Y8465D01*
X14094Y7677D02*
Y8307D01*
Y7677D02*
X14252Y7520D01*
X18268D01*
X13622Y8780D02*
X14094Y8307D01*
X11732Y5945D02*
X16811D01*
X18268Y6260D02*
Y7520D01*
Y6260D02*
X19134D01*
Y5197D02*
Y6260D01*
X16811Y5197D02*
X19134D01*
X16811D02*
Y5945D01*
X11575Y11024D02*
X12520D01*
X11575Y8307D02*
Y8346D01*
X11693Y8465D01*
X12520D02*
Y8898D01*
X12638Y8780D01*
X11575Y10669D02*
Y10709D01*
Y10669D02*
X11890Y10354D01*
Y8465D02*
Y10354D01*
X11575Y10709D02*
Y11024D01*
X11772Y8465D02*
X11890Y8583D01*
X12008Y8465D01*
X11575Y6102D02*
X11732Y5945D01*
D61*
X394Y3543D02*
G03*
X787Y3937I0J394D01*
G01*
D02*
G03*
X394Y4331I-394J0D01*
G01*
X0Y7087D02*
G03*
X787Y7874I0J787D01*
G01*
D02*
G03*
X0Y8661I-787J0D01*
G01*
X32283D02*
G03*
X31496Y7874I0J-787D01*
G01*
D02*
G03*
X32283Y7087I787J0D01*
G01*
X31890Y4331D02*
G03*
X31496Y3937I0J-394D01*
G01*
D02*
G03*
X31890Y3543I394J0D01*
G01*
X17480Y1299D02*
G03*
X17283Y1496I-197J0D01*
G01*
X17283D02*
G03*
X17087Y1299I0J-197D01*
G01*
X-0Y-0D02*
X0Y-0D01*
Y3543D01*
X394D01*
X0Y4331D02*
X394D01*
X0D02*
Y7087D01*
Y8661D02*
X0D01*
X0D02*
Y11811D01*
X32283D01*
Y8661D02*
Y11811D01*
X32283Y8661D02*
X32283D01*
Y4331D02*
Y7087D01*
X31890Y4331D02*
X32283D01*
X31890Y3543D02*
X32283D01*
Y3150D02*
Y3543D01*
Y0D02*
Y3150D01*
X17480Y0D02*
X32283D01*
X17480D02*
Y1299D01*
X17283Y1496D02*
X17283D01*
X17087Y0D02*
Y1299D01*
X0Y0D02*
X17087D01*
X-0Y-0D02*
X0Y0D01*
D62*
X20551Y7717D02*
D03*
X3268Y4803D02*
D03*
X14961Y1693D02*
D03*
X11417Y8937D02*
D03*
X27480Y1929D02*
D03*
X15394Y2362D02*
D03*
X13661Y10512D02*
D03*
X12362Y7992D02*
D03*
X12992Y7362D02*
D03*
X12677Y7047D02*
D03*
X12362D02*
D03*
X12047D02*
D03*
X12992D02*
D03*
X13307Y7362D02*
D03*
Y7677D02*
D03*
Y7992D02*
D03*
X12992Y7677D02*
D03*
X13622Y7992D02*
D03*
X12677Y7677D02*
D03*
X12992Y7992D02*
D03*
X13622Y9567D02*
D03*
X11417Y7047D02*
D03*
Y7362D02*
D03*
Y6732D02*
D03*
X23937Y4606D02*
D03*
X20118Y6732D02*
D03*
X20984Y9528D02*
D03*
X25236Y4331D02*
D03*
X16693Y8307D02*
D03*
X25748Y3898D02*
D03*
X26260Y1496D02*
D03*
X14252Y8622D02*
D03*
Y7362D02*
D03*
X13937Y7047D02*
D03*
X15827Y6732D02*
D03*
X15197Y7047D02*
D03*
Y6732D02*
D03*
X14252Y7047D02*
D03*
Y6732D02*
D03*
X14882D02*
D03*
X14567D02*
D03*
X16142Y6102D02*
D03*
X15827Y5787D02*
D03*
X14882Y6417D02*
D03*
X14567D02*
D03*
X14252D02*
D03*
X15512D02*
D03*
X14567Y5787D02*
D03*
X15197Y6102D02*
D03*
Y5787D02*
D03*
X15827Y5472D02*
D03*
X26063Y1575D02*
D03*
X25591Y1339D02*
D03*
X28976Y1299D02*
D03*
X29213D02*
D03*
X29449D02*
D03*
X28898Y1535D02*
D03*
X12677Y8937D02*
D03*
X30079Y1299D02*
D03*
X30315D02*
D03*
X12992Y10197D02*
D03*
X28896Y7207D02*
D03*
X28740Y7362D02*
D03*
X28502Y7679D02*
D03*
X28583Y8425D02*
D03*
X28386Y8583D02*
D03*
Y10344D02*
D03*
X29370D02*
D03*
X30354D02*
D03*
X13307Y9567D02*
D03*
X12992Y9882D02*
D03*
X11417Y10197D02*
D03*
X28976Y5709D02*
D03*
X28307Y5827D02*
D03*
Y5551D02*
D03*
X27638Y5827D02*
D03*
X25787Y8110D02*
D03*
X26181D02*
D03*
X26260Y8386D02*
D03*
X14252Y3898D02*
D03*
X14882Y4213D02*
D03*
X14567D02*
D03*
X14252Y5157D02*
D03*
X13937Y4528D02*
D03*
Y4213D02*
D03*
X14882Y5472D02*
D03*
X14567D02*
D03*
X14252Y5787D02*
D03*
X28346Y7835D02*
D03*
X28543Y6732D02*
D03*
X28346Y6575D02*
D03*
X14252Y4213D02*
D03*
X13307D02*
D03*
X10709Y3031D02*
D03*
X10236D02*
D03*
X9764D02*
D03*
X9291D02*
D03*
X14882Y9882D02*
D03*
X25472Y7126D02*
D03*
X15512Y10512D02*
D03*
X14882Y10197D02*
D03*
X12992Y9252D02*
D03*
X11102Y9882D02*
D03*
X12362D02*
D03*
X13937Y9252D02*
D03*
X26496Y5945D02*
D03*
X26693Y5787D02*
D03*
X27047D02*
D03*
X27244Y5945D02*
D03*
X14252Y8937D02*
D03*
Y9252D02*
D03*
X26220Y6260D02*
D03*
X25591Y6929D02*
D03*
X25827Y6535D02*
D03*
X25709Y6732D02*
D03*
X25591Y7323D02*
D03*
X25709Y7520D02*
D03*
X12992Y9567D02*
D03*
X15512Y9882D02*
D03*
X15197Y10197D02*
D03*
X1339Y9449D02*
D03*
X11260Y10787D02*
D03*
X11732Y9252D02*
D03*
X3701Y5157D02*
D03*
X5906Y4685D02*
D03*
X12047Y5157D02*
D03*
X7874Y4685D02*
D03*
X11102Y4843D02*
D03*
X11732Y4528D02*
D03*
X12677Y4213D02*
D03*
X12362D02*
D03*
X2323Y4528D02*
D03*
X2598D02*
D03*
X12677Y5157D02*
D03*
X11732Y4843D02*
D03*
Y5157D02*
D03*
X12362Y5472D02*
D03*
X5551Y4173D02*
D03*
X2992Y5000D02*
D03*
X4370Y4528D02*
D03*
X4055D02*
D03*
X9843Y7362D02*
D03*
X7835Y6417D02*
D03*
X7205Y10197D02*
D03*
X9843Y9252D02*
D03*
X5315Y9882D02*
D03*
X10787Y10512D02*
D03*
X5315D02*
D03*
X9843Y9567D02*
D03*
X5630Y10197D02*
D03*
X6890Y9882D02*
D03*
X6575D02*
D03*
Y10197D02*
D03*
X10157Y10512D02*
D03*
X5630D02*
D03*
X10787Y10197D02*
D03*
X6890Y10827D02*
D03*
X10472Y9252D02*
D03*
X10157Y9567D02*
D03*
Y9882D02*
D03*
X9843Y10197D02*
D03*
X5630Y9882D02*
D03*
X6890Y8307D02*
D03*
X11102Y8937D02*
D03*
X10472D02*
D03*
X10157Y8937D02*
D03*
X6575Y8937D02*
D03*
X9528D02*
D03*
X9843D02*
D03*
X6890Y9252D02*
D03*
X5315Y8622D02*
D03*
X10157Y9252D02*
D03*
X5630D02*
D03*
X6575Y8622D02*
D03*
X9843Y8307D02*
D03*
Y7992D02*
D03*
X5630Y8307D02*
D03*
X5000Y8937D02*
D03*
X10157Y7992D02*
D03*
X10472D02*
D03*
Y8307D02*
D03*
X10157D02*
D03*
X5630Y8937D02*
D03*
X5315D02*
D03*
X10787Y8622D02*
D03*
X7205Y8937D02*
D03*
X11417Y7677D02*
D03*
Y7992D02*
D03*
Y8307D02*
D03*
X10787Y8937D02*
D03*
Y8307D02*
D03*
X8150Y7362D02*
D03*
X10787Y6732D02*
D03*
X11102Y6102D02*
D03*
X9528Y6732D02*
D03*
X5000Y7677D02*
D03*
X5315Y7362D02*
D03*
X11102Y6417D02*
D03*
X7835Y5787D02*
D03*
X10787Y9252D02*
D03*
X10157Y7047D02*
D03*
X11102D02*
D03*
X10472Y6732D02*
D03*
X7520Y8622D02*
D03*
Y8937D02*
D03*
X7205Y9252D02*
D03*
X5000Y9567D02*
D03*
Y9882D02*
D03*
X12677Y7362D02*
D03*
X12362Y7677D02*
D03*
X12047Y6417D02*
D03*
X12677Y6102D02*
D03*
Y6417D02*
D03*
X12992Y8937D02*
D03*
X15197Y1299D02*
D03*
X16142Y1339D02*
D03*
X15669Y1535D02*
D03*
X11732Y8937D02*
D03*
X12362D02*
D03*
X15512Y6732D02*
D03*
X13307Y5472D02*
D03*
X10157Y6732D02*
D03*
X9843D02*
D03*
X11102Y5787D02*
D03*
X10472D02*
D03*
X8465D02*
D03*
X11417Y6417D02*
D03*
X5315Y7047D02*
D03*
X11102Y7362D02*
D03*
X5315Y6417D02*
D03*
X9843Y7047D02*
D03*
X10157Y7362D02*
D03*
X10787Y7992D02*
D03*
X5315Y6102D02*
D03*
X8465Y7677D02*
D03*
X11102Y6732D02*
D03*
X10787Y7677D02*
D03*
X10157Y6417D02*
D03*
X10472Y7047D02*
D03*
X10787D02*
D03*
Y7362D02*
D03*
X5315Y6732D02*
D03*
X6575Y9567D02*
D03*
X11102Y10197D02*
D03*
X4331Y5945D02*
D03*
Y6260D02*
D03*
Y6575D02*
D03*
Y6890D02*
D03*
Y7205D02*
D03*
Y7520D02*
D03*
X10157Y5157D02*
D03*
X13307Y10197D02*
D03*
X15197Y10512D02*
D03*
X13307Y6417D02*
D03*
X11417Y5157D02*
D03*
X11102Y4213D02*
D03*
X10157Y4528D02*
D03*
X10787Y5157D02*
D03*
X6575Y1260D02*
D03*
X7283D02*
D03*
X7047Y1575D02*
D03*
X7756D02*
D03*
X7992Y1260D02*
D03*
X8465Y1575D02*
D03*
X8701Y1260D02*
D03*
X11299D02*
D03*
X11063Y1575D02*
D03*
X10591Y1260D02*
D03*
X10354Y1575D02*
D03*
X9646D02*
D03*
X9882Y1260D02*
D03*
X9173D02*
D03*
X11102Y5157D02*
D03*
X11417Y5472D02*
D03*
X12677Y5787D02*
D03*
X13307D02*
D03*
X13622D02*
D03*
Y4528D02*
D03*
X14252Y6102D02*
D03*
X19724Y10512D02*
D03*
X20118D02*
D03*
X19724Y10118D02*
D03*
X14567Y8937D02*
D03*
X25276Y6142D02*
D03*
X16575Y10197D02*
D03*
X13622Y5472D02*
D03*
Y4843D02*
D03*
X13937D02*
D03*
Y5787D02*
D03*
X14252Y5472D02*
D03*
X6693Y3031D02*
D03*
X7165D02*
D03*
X7638D02*
D03*
X8110D02*
D03*
X12362Y5157D02*
D03*
X11417Y4528D02*
D03*
Y4843D02*
D03*
X12677Y5472D02*
D03*
X12047Y4528D02*
D03*
X12362D02*
D03*
X12992D02*
D03*
X13307D02*
D03*
X12992Y4213D02*
D03*
Y5157D02*
D03*
X12992Y4843D02*
D03*
X13622Y4213D02*
D03*
Y3898D02*
D03*
Y5157D02*
D03*
X13937Y3740D02*
D03*
X14252Y4528D02*
D03*
Y4843D02*
D03*
X14882Y5787D02*
D03*
X14567Y4843D02*
D03*
Y4528D02*
D03*
X15197Y4843D02*
D03*
Y4528D02*
D03*
X15512D02*
D03*
Y4843D02*
D03*
X15197Y4213D02*
D03*
X15512D02*
D03*
X14567Y5157D02*
D03*
X15197Y6417D02*
D03*
X15512Y6102D02*
D03*
X15827Y6417D02*
D03*
Y6102D02*
D03*
X15512Y5157D02*
D03*
X15827D02*
D03*
X13386Y1693D02*
D03*
X14252D02*
D03*
X14488Y1299D02*
D03*
Y1693D02*
D03*
X13740Y2756D02*
D03*
X12047Y9882D02*
D03*
X13937D02*
D03*
X14567Y9567D02*
D03*
X20394Y9528D02*
D03*
X14882Y9567D02*
D03*
X18110D02*
D03*
X15827Y9882D02*
D03*
X15197Y8937D02*
D03*
X14882D02*
D03*
X14252Y9567D02*
D03*
X13622Y10197D02*
D03*
Y9882D02*
D03*
X14567Y10197D02*
D03*
X15197Y9567D02*
D03*
Y9882D02*
D03*
X20748Y9528D02*
D03*
X30039Y3031D02*
D03*
X14567Y10512D02*
D03*
X14252Y10197D02*
D03*
X13937D02*
D03*
Y9567D02*
D03*
X29016Y3583D02*
D03*
X29488Y3031D02*
D03*
X29843Y3465D02*
D03*
X12677Y9252D02*
D03*
Y9567D02*
D03*
X12047Y8937D02*
D03*
X11732Y9567D02*
D03*
X31299Y5709D02*
D03*
X28504Y1732D02*
D03*
X28465Y3307D02*
D03*
Y3031D02*
D03*
X26969Y1299D02*
D03*
X26732Y1535D02*
D03*
X26457Y1339D02*
D03*
X15512Y8622D02*
D03*
Y9252D02*
D03*
X15197D02*
D03*
X14567Y8622D02*
D03*
X15197D02*
D03*
X14882D02*
D03*
X15827D02*
D03*
X27047Y2441D02*
D03*
X14882Y7047D02*
D03*
Y7362D02*
D03*
X15827Y7047D02*
D03*
X14252Y7677D02*
D03*
X13937Y7992D02*
D03*
X15197Y7362D02*
D03*
X14567Y7677D02*
D03*
X13937Y8622D02*
D03*
X15512Y7677D02*
D03*
X15827Y7992D02*
D03*
Y7677D02*
D03*
X14252Y7992D02*
D03*
X16457Y7047D02*
D03*
X16142Y7992D02*
D03*
X16457Y7677D02*
D03*
X15197D02*
D03*
X15827Y8307D02*
D03*
X15512D02*
D03*
X15197D02*
D03*
X14882Y7677D02*
D03*
Y8307D02*
D03*
X14567Y7992D02*
D03*
X14882D02*
D03*
X14567Y8307D02*
D03*
X15827Y8937D02*
D03*
X15512D02*
D03*
X16457Y8622D02*
D03*
X28661Y3465D02*
D03*
X25669Y3661D02*
D03*
X19055Y8622D02*
D03*
X20433D02*
D03*
X20118D02*
D03*
X19803D02*
D03*
X19409D02*
D03*
X26063Y11417D02*
D03*
X11102Y9252D02*
D03*
X19528Y4528D02*
D03*
Y4764D02*
D03*
X11732Y5787D02*
D03*
X9843Y9882D02*
D03*
X24685Y3307D02*
D03*
X24055D02*
D03*
X24449D02*
D03*
X23189D02*
D03*
X23425D02*
D03*
X23819D02*
D03*
X27677Y2598D02*
D03*
X27402D02*
D03*
X27953D02*
D03*
X14961Y1457D02*
D03*
X16457Y3189D02*
D03*
X16220D02*
D03*
X23543Y4449D02*
D03*
X24528Y9606D02*
D03*
X11417Y4213D02*
D03*
X15197Y2165D02*
D03*
X25591Y4331D02*
D03*
X30039Y3937D02*
D03*
X28425Y4134D02*
D03*
X28819Y3937D02*
D03*
X29606Y4134D02*
D03*
X27480Y4094D02*
D03*
X27677Y3898D02*
D03*
X26220Y4252D02*
D03*
X26457Y4055D02*
D03*
Y9882D02*
D03*
X26063D02*
D03*
X24173Y11339D02*
D03*
X23819D02*
D03*
Y8346D02*
D03*
Y8031D02*
D03*
X11417Y10512D02*
D03*
X12362Y10197D02*
D03*
X23268Y10984D02*
D03*
Y11299D02*
D03*
X11417Y9252D02*
D03*
X11732Y9882D02*
D03*
Y10512D02*
D03*
X12047D02*
D03*
X22441Y7913D02*
D03*
X21870Y8110D02*
D03*
X23031Y7913D02*
D03*
X22559Y10866D02*
D03*
X30945Y3307D02*
D03*
X30591Y3937D02*
D03*
X30748Y6063D02*
D03*
X6929Y2559D02*
D03*
X7402D02*
D03*
X7874D02*
D03*
X9528D02*
D03*
X10000D02*
D03*
X10472D02*
D03*
X7047Y2047D02*
D03*
X7756D02*
D03*
X8465D02*
D03*
Y2559D02*
D03*
X8701Y3031D02*
D03*
X8937Y2047D02*
D03*
X9646D02*
D03*
X10354D02*
D03*
X11063Y2559D02*
D03*
Y2047D02*
D03*
X11299Y3031D02*
D03*
X12283Y2559D02*
D03*
X11890D02*
D03*
X11693Y1260D02*
D03*
X11496Y2559D02*
D03*
X12835D02*
D03*
X12598Y2047D02*
D03*
X13346Y2756D02*
D03*
X13189Y2559D02*
D03*
X16142Y1850D02*
D03*
X15748Y2008D02*
D03*
X16575Y2283D02*
D03*
X16811Y2008D02*
D03*
X24882Y1575D02*
D03*
X23937Y2047D02*
D03*
X24567D02*
D03*
X24291Y1575D02*
D03*
X23150D02*
D03*
X23583D02*
D03*
X23504Y2047D02*
D03*
X22756D02*
D03*
X21732D02*
D03*
X22362Y1732D02*
D03*
Y2047D02*
D03*
X21732Y1732D02*
D03*
X21142Y2047D02*
D03*
X20472D02*
D03*
X20157Y1732D02*
D03*
X20079Y2047D02*
D03*
X19370Y2283D02*
D03*
X19055D02*
D03*
X18740D02*
D03*
X18425D02*
D03*
X18110D02*
D03*
X17795D02*
D03*
X17323D02*
D03*
X21024Y1732D02*
D03*
X20197Y3307D02*
D03*
X20512D02*
D03*
X20827D02*
D03*
X21142D02*
D03*
X21535D02*
D03*
X21929D02*
D03*
X22244D02*
D03*
X22638D02*
D03*
X22913D02*
D03*
X25157Y2047D02*
D03*
X25906D02*
D03*
X25591D02*
D03*
D63*
X31693Y6614D02*
D03*
Y4961D02*
D03*
X12205Y11575D02*
D03*
X17992Y4291D02*
D03*
X19370Y7717D02*
D03*
X19094D02*
D03*
Y7992D02*
D03*
X3701Y8701D02*
D03*
X24724Y5197D02*
D03*
X24685Y6811D02*
D03*
X25000D02*
D03*
X18071Y10157D02*
D03*
X13346Y10866D02*
D03*
X8937Y11260D02*
D03*
X4291Y11063D02*
D03*
Y10748D02*
D03*
Y10433D02*
D03*
Y10118D02*
D03*
Y9803D02*
D03*
X3976D02*
D03*
X7402Y11260D02*
D03*
X7717D02*
D03*
X8031D02*
D03*
X8346D02*
D03*
X24567Y5354D02*
D03*
X21496Y9528D02*
D03*
X21732Y1260D02*
D03*
X22441D02*
D03*
X29134Y2323D02*
D03*
X30315D02*
D03*
X26811Y11417D02*
D03*
X17559Y10866D02*
D03*
X28386Y10600D02*
D03*
X25276Y9882D02*
D03*
X24528Y9213D02*
D03*
X30394Y8425D02*
D03*
X28937Y6378D02*
D03*
X29646Y7638D02*
D03*
X29587Y8504D02*
D03*
X28898Y8189D02*
D03*
X28189Y8740D02*
D03*
X27559Y8504D02*
D03*
X13982Y11530D02*
D03*
X12835Y10866D02*
D03*
X2835Y10315D02*
D03*
X3976Y10118D02*
D03*
Y10748D02*
D03*
Y10433D02*
D03*
X3661D02*
D03*
X3346D02*
D03*
X1142Y8858D02*
D03*
X1339Y9055D02*
D03*
X2756Y8701D02*
D03*
X10630Y11496D02*
D03*
X9803Y11535D02*
D03*
X2087Y5000D02*
D03*
X4803Y4803D02*
D03*
X6102Y8150D02*
D03*
X2992Y5906D02*
D03*
Y6142D02*
D03*
X3976Y2323D02*
D03*
X6102Y7205D02*
D03*
X9606Y5433D02*
D03*
X1929Y8504D02*
D03*
X2520Y1654D02*
D03*
X1339Y3819D02*
D03*
X5354Y2677D02*
D03*
X20118Y10118D02*
D03*
X12362Y1575D02*
D03*
X13189Y1457D02*
D03*
X13858Y1339D02*
D03*
X13110Y11417D02*
D03*
X19449Y9528D02*
D03*
X30354Y10600D02*
D03*
X27362Y11417D02*
D03*
X26378D02*
D03*
X25512Y5354D02*
D03*
X27480Y1535D02*
D03*
X25827Y1339D02*
D03*
X9252Y11260D02*
D03*
X3976Y11063D02*
D03*
X4291Y9488D02*
D03*
X906Y10787D02*
D03*
Y11102D02*
D03*
Y11417D02*
D03*
X2323Y10787D02*
D03*
Y11102D02*
D03*
Y11417D02*
D03*
X2638D02*
D03*
X1969D02*
D03*
X1614D02*
D03*
X1260D02*
D03*
X591D02*
D03*
Y11102D02*
D03*
Y10787D02*
D03*
X1417Y8504D02*
D03*
X3071Y8701D02*
D03*
X3386D02*
D03*
X1142Y8504D02*
D03*
Y8189D02*
D03*
Y7874D02*
D03*
Y7559D02*
D03*
Y7244D02*
D03*
Y6929D02*
D03*
Y6614D02*
D03*
Y6299D02*
D03*
X1457D02*
D03*
Y6614D02*
D03*
Y6929D02*
D03*
Y7244D02*
D03*
X16890Y10866D02*
D03*
X24606Y10157D02*
D03*
X21693Y6772D02*
D03*
Y7165D02*
D03*
Y7520D02*
D03*
X23465D02*
D03*
Y6772D02*
D03*
Y7165D02*
D03*
X18228Y5197D02*
D03*
X18425D02*
D03*
X18622D02*
D03*
X17913Y8543D02*
D03*
Y8268D02*
D03*
X17992Y6850D02*
D03*
X17717D02*
D03*
X18268Y6260D02*
D03*
X18543D02*
D03*
X18819D02*
D03*
X20197Y6142D02*
D03*
X1026Y1500D02*
D03*
X709Y2953D02*
D03*
X984Y2402D02*
D03*
X709D02*
D03*
X984Y2953D02*
D03*
X474Y1500D02*
D03*
X433Y2953D02*
D03*
Y2402D02*
D03*
X31299D02*
D03*
Y1378D02*
D03*
X31575Y2953D02*
D03*
X31299D02*
D03*
X31575Y2402D02*
D03*
X31850D02*
D03*
Y1378D02*
D03*
Y2953D02*
D03*
Y10079D02*
D03*
Y8976D02*
D03*
Y9528D02*
D03*
X31378Y10079D02*
D03*
Y8976D02*
D03*
Y9528D02*
D03*
X2598Y5748D02*
D03*
X17441Y4291D02*
D03*
X17717D02*
D03*
X30394Y8628D02*
D03*
X29646Y7441D02*
D03*
X29587Y8701D02*
D03*
X29370Y10600D02*
D03*
X12520Y11339D02*
D03*
Y11575D02*
D03*
X11850D02*
D03*
X14724D02*
D03*
X14449D02*
D03*
X24882Y11299D02*
D03*
X11563Y11575D02*
D03*
X18268Y1299D02*
D03*
X18976D02*
D03*
X19685D02*
D03*
X20394D02*
D03*
X26024Y5394D02*
D03*
X25787D02*
D03*
X28071D02*
D03*
X26870Y5413D02*
D03*
X30748Y4252D02*
D03*
X27008Y4331D02*
D03*
X28189D02*
D03*
X29370D02*
D03*
X30394D02*
D03*
X27205Y8740D02*
D03*
X27441Y9961D02*
D03*
X29803D02*
D03*
X20354Y10866D02*
D03*
X24016Y7677D02*
D03*
X24409D02*
D03*
Y8701D02*
D03*
X21969Y10866D02*
D03*
X21654D02*
D03*
X21299D02*
D03*
X22480Y8937D02*
D03*
X22953D02*
D03*
X22087Y9528D02*
D03*
X22441D02*
D03*
X22795D02*
D03*
X23150D02*
D03*
X22087Y10197D02*
D03*
X22441D02*
D03*
X22795D02*
D03*
X23150D02*
D03*
X17992Y10866D02*
D03*
X21024Y1260D02*
D03*
D64*
X3100Y3150D02*
D03*
Y3650D02*
D03*
X3600D02*
D03*
Y3150D02*
D03*
X3100Y3150D02*
D03*
Y3650D02*
D03*
X3600D02*
D03*
Y3150D02*
D03*
X18819Y7717D02*
D03*
X18543D02*
D03*
X18268Y7992D02*
D03*
X18543D02*
D03*
X18819D02*
D03*
Y8268D02*
D03*
X18543D02*
D03*
X18268D02*
D03*
X18543Y8543D02*
D03*
X18268D02*
D03*
X13307Y6102D02*
D03*
X15512Y5472D02*
D03*
X28425Y945D02*
D03*
X29134D02*
D03*
X30315D02*
D03*
X31024D02*
D03*
X25394Y7756D02*
D03*
Y7953D02*
D03*
X13307Y9252D02*
D03*
Y8307D02*
D03*
X12677Y7992D02*
D03*
X2244Y8504D02*
D03*
X6299Y5157D02*
D03*
X4016D02*
D03*
X7205Y7047D02*
D03*
X10787Y9882D02*
D03*
X10157Y8622D02*
D03*
X11102Y8307D02*
D03*
X5630Y7047D02*
D03*
X6575Y6102D02*
D03*
X5630D02*
D03*
X7205Y6417D02*
D03*
Y6732D02*
D03*
X5630Y7992D02*
D03*
Y5787D02*
D03*
Y7362D02*
D03*
X7205Y7677D02*
D03*
X7520Y5787D02*
D03*
Y6102D02*
D03*
Y6417D02*
D03*
Y6732D02*
D03*
X7205Y7992D02*
D03*
Y8307D02*
D03*
Y8622D02*
D03*
X6890D02*
D03*
X7205Y9567D02*
D03*
Y9882D02*
D03*
X7520Y9567D02*
D03*
Y9882D02*
D03*
Y10197D02*
D03*
Y10512D02*
D03*
Y10827D02*
D03*
X7205D02*
D03*
X4685Y5787D02*
D03*
Y6102D02*
D03*
Y6417D02*
D03*
Y6732D02*
D03*
Y7047D02*
D03*
X5000Y8622D02*
D03*
X4685D02*
D03*
Y9252D02*
D03*
Y9567D02*
D03*
X5000Y10197D02*
D03*
X5315D02*
D03*
X4685Y9882D02*
D03*
Y10197D02*
D03*
Y10512D02*
D03*
Y10827D02*
D03*
X5315Y8307D02*
D03*
X5000D02*
D03*
X11732Y7677D02*
D03*
X11102Y7677D02*
D03*
X12047Y5787D02*
D03*
X12362Y6102D02*
D03*
X12047Y7992D02*
D03*
X11102Y7992D02*
D03*
X11732Y6732D02*
D03*
X12362Y7362D02*
D03*
X11732Y5472D02*
D03*
X12047Y4843D02*
D03*
Y6732D02*
D03*
X12362D02*
D03*
X12677D02*
D03*
X12047Y5472D02*
D03*
Y10197D02*
D03*
X12362Y9252D02*
D03*
Y9567D02*
D03*
X11732Y8622D02*
D03*
X12677Y8307D02*
D03*
X12992Y8622D02*
D03*
X12047D02*
D03*
X13307Y8937D02*
D03*
X13622Y8622D02*
D03*
X13937Y8307D02*
D03*
X14252Y9882D02*
D03*
X14882Y9252D02*
D03*
X15827D02*
D03*
Y4843D02*
D03*
X15512Y7992D02*
D03*
X14882Y5157D02*
D03*
X13937Y5472D02*
D03*
X13307Y4843D02*
D03*
X12677D02*
D03*
X10157Y10197D02*
D03*
X10787Y9567D02*
D03*
X10472Y8622D02*
D03*
X3350Y3400D02*
D03*
X3858Y945D02*
D03*
X3425Y1772D02*
D03*
X13937Y7677D02*
D03*
X13622Y7362D02*
D03*
Y7047D02*
D03*
Y6732D02*
D03*
Y6102D02*
D03*
X13937Y6417D02*
D03*
X12992Y6732D02*
D03*
X14567Y7362D02*
D03*
X12362Y4843D02*
D03*
X10787Y6417D02*
D03*
X11732Y10197D02*
D03*
X12047Y9567D02*
D03*
Y9252D02*
D03*
X11732Y7047D02*
D03*
Y8307D02*
D03*
X12362D02*
D03*
X14252D02*
D03*
X14567Y9882D02*
D03*
Y9252D02*
D03*
X15827Y9567D02*
D03*
Y4528D02*
D03*
X15197Y7992D02*
D03*
X15827Y7362D02*
D03*
X15512Y5787D02*
D03*
X14882Y4843D02*
D03*
X13937Y5157D02*
D03*
X13307D02*
D03*
X12677Y4528D02*
D03*
X10472Y10197D02*
D03*
Y9567D02*
D03*
X13307Y7047D02*
D03*
X12992Y6417D02*
D03*
X14567Y7047D02*
D03*
X12362Y5787D02*
D03*
X12992Y5472D02*
D03*
Y5787D02*
D03*
X11732Y7362D02*
D03*
X11417Y9882D02*
D03*
Y9567D02*
D03*
X10472Y6417D02*
D03*
X6575Y8307D02*
D03*
Y7992D02*
D03*
X10472Y7362D02*
D03*
Y7677D02*
D03*
X7205Y7362D02*
D03*
X7520D02*
D03*
X5315Y7992D02*
D03*
Y7677D02*
D03*
X7205Y6102D02*
D03*
Y5787D02*
D03*
X5630Y7677D02*
D03*
X6890Y7047D02*
D03*
X6575Y7047D02*
D03*
Y6732D02*
D03*
X5630D02*
D03*
X6575Y7677D02*
D03*
X5630Y6417D02*
D03*
X6299Y8937D02*
D03*
X5000Y5787D02*
D03*
X5984Y8937D02*
D03*
X3110Y7756D02*
D03*
X1260Y945D02*
D03*
X1969D02*
D03*
X3150D02*
D03*
X6457D02*
D03*
X9055D02*
D03*
X11654D02*
D03*
X12992Y6102D02*
D03*
X14882D02*
D03*
X14567D02*
D03*
X25118Y945D02*
D03*
X23228D02*
D03*
X15512Y7362D02*
D03*
X20984Y5315D02*
D03*
X20709D02*
D03*
X20433D02*
D03*
X21260D02*
D03*
X12205Y11378D02*
D03*
X9252Y10945D02*
D03*
X8937D02*
D03*
X2480Y2205D02*
D03*
X22244Y6772D02*
D03*
X21969Y7165D02*
D03*
X22244D02*
D03*
X21969Y6772D02*
D03*
Y7520D02*
D03*
X22244D02*
D03*
X22913Y7165D02*
D03*
X23189D02*
D03*
Y7520D02*
D03*
X22913D02*
D03*
Y6772D02*
D03*
X23189D02*
D03*
X18228Y5000D02*
D03*
X18425D02*
D03*
X18622D02*
D03*
X17638Y8543D02*
D03*
X18268Y6575D02*
D03*
X17717Y7126D02*
D03*
X17992D02*
D03*
X17717Y7402D02*
D03*
X18543Y6575D02*
D03*
X11102Y8628D02*
D03*
X11417Y6102D02*
D03*
X11732D02*
D03*
X6299Y9252D02*
D03*
X5984D02*
D03*
Y3189D02*
D03*
Y2598D02*
D03*
Y2008D02*
D03*
X2520Y7047D02*
D03*
X2835Y7244D02*
D03*
Y6850D02*
D03*
X2205Y7244D02*
D03*
Y6890D02*
D03*
X23228Y5315D02*
D03*
Y4843D02*
D03*
X22756D02*
D03*
Y5315D02*
D03*
X22992Y5079D02*
D03*
X27126Y7205D02*
D03*
X27559Y6772D02*
D03*
Y7205D02*
D03*
Y7638D02*
D03*
X27126D02*
D03*
Y6772D02*
D03*
X26693D02*
D03*
Y7205D02*
D03*
Y7638D02*
D03*
X7520Y5157D02*
D03*
X7874D02*
D03*
X8268D02*
D03*
X4724D02*
D03*
X5118D02*
D03*
X5512D02*
D03*
X5906D02*
D03*
X25551Y11496D02*
D03*
X27087Y11457D02*
D03*
X28189D02*
D03*
X25000Y5748D02*
D03*
X25197Y5551D02*
D03*
X9843Y6102D02*
D03*
X15866Y11339D02*
D03*
Y11575D02*
D03*
X14449Y11339D02*
D03*
X14724D02*
D03*
X15197D02*
D03*
X15472D02*
D03*
Y11575D02*
D03*
X15197D02*
D03*
X16142D02*
D03*
X11654Y394D02*
D03*
X9055D02*
D03*
X6457D02*
D03*
X3858D02*
D03*
X3150D02*
D03*
X1969D02*
D03*
X1260D02*
D03*
X23228D02*
D03*
X25118D02*
D03*
X28425D02*
D03*
X29134D02*
D03*
X30315D02*
D03*
X31024D02*
D03*
M02*
