G04 Layer_Color=8421504*
%FSLAX24Y24*%
%MOIN*%
%TF.FileFunction,Paste,Top*%
%TF.Part,Single*%
G01*
G75*
%TA.AperFunction,SMDPad,CuDef*%
%ADD10R,0.0354X0.0276*%
%ADD11R,0.0276X0.0354*%
%ADD12R,0.0236X0.0197*%
%ADD13R,0.0197X0.0236*%
%ADD14R,0.0630X0.0299*%
%ADD15R,0.0299X0.0630*%
G04:AMPARAMS|DCode=16|XSize=57mil|YSize=45mil|CornerRadius=11.2mil|HoleSize=0mil|Usage=FLASHONLY|Rotation=90.000|XOffset=0mil|YOffset=0mil|HoleType=Round|Shape=RoundedRectangle|*
%AMROUNDEDRECTD16*
21,1,0.0570,0.0225,0,0,90.0*
21,1,0.0345,0.0450,0,0,90.0*
1,1,0.0225,0.0112,0.0173*
1,1,0.0225,0.0112,-0.0173*
1,1,0.0225,-0.0112,-0.0173*
1,1,0.0225,-0.0112,0.0173*
%
%ADD16ROUNDEDRECTD16*%
%ADD17R,0.0197X0.0205*%
%ADD18R,0.0205X0.0197*%
%ADD19R,0.0217X0.0217*%
%ADD20R,0.0315X0.0315*%
%ADD21R,0.0315X0.0315*%
%ADD22R,0.1575X0.0984*%
%ADD23R,0.0098X0.0157*%
%ADD24R,0.0984X0.0630*%
%ADD25R,0.0531X0.1024*%
%ADD26R,0.1024X0.0531*%
%ADD27R,0.1063X0.0236*%
%ADD28R,0.0689X0.0138*%
%ADD29R,0.1091X0.1102*%
%ADD30R,0.2362X0.2559*%
%ADD31R,0.0394X0.1083*%
%ADD32R,0.0748X0.0591*%
%ADD33R,0.0531X0.0157*%
%ADD34R,0.0748X0.0472*%
%ADD35R,0.0295X0.0295*%
%TA.AperFunction,NonConductor*%
%ADD45C,0.0100*%
D10*
X41400Y6005D02*
D03*
Y6595D02*
D03*
X7700Y13105D02*
D03*
Y13695D02*
D03*
X45300Y30595D02*
D03*
Y30005D02*
D03*
D11*
X28295Y2000D02*
D03*
X27705D02*
D03*
X23705Y2000D02*
D03*
X24295D02*
D03*
X17705D02*
D03*
X18295D02*
D03*
X11705D02*
D03*
X12295D02*
D03*
X3205Y44400D02*
D03*
X3795D02*
D03*
X3205Y38900D02*
D03*
X3795D02*
D03*
X3205Y25400D02*
D03*
X3795D02*
D03*
X3205Y20400D02*
D03*
X3795D02*
D03*
X24505Y31598D02*
D03*
X25095D02*
D03*
X3505Y14000D02*
D03*
X4095D02*
D03*
X48805Y28400D02*
D03*
X49395D02*
D03*
X50400Y26100D02*
D03*
X50991D02*
D03*
X50405Y27100D02*
D03*
X50995D02*
D03*
X3505Y13000D02*
D03*
X4095D02*
D03*
D12*
X3997Y14600D02*
D03*
X3603D02*
D03*
X48997Y23700D02*
D03*
X48603D02*
D03*
X50897Y25500D02*
D03*
X50503D02*
D03*
X50897Y27700D02*
D03*
X50503D02*
D03*
D13*
X3800Y15597D02*
D03*
Y15203D02*
D03*
X2900Y12403D02*
D03*
Y12797D02*
D03*
D14*
X22214Y13200D02*
D03*
Y12700D02*
D03*
Y12200D02*
D03*
Y11700D02*
D03*
Y11200D02*
D03*
Y10700D02*
D03*
Y10200D02*
D03*
Y9700D02*
D03*
X20100D02*
D03*
Y10200D02*
D03*
Y10700D02*
D03*
Y11200D02*
D03*
Y11700D02*
D03*
Y12200D02*
D03*
Y12700D02*
D03*
Y13200D02*
D03*
X20086Y38100D02*
D03*
Y38600D02*
D03*
Y39100D02*
D03*
Y39600D02*
D03*
Y40100D02*
D03*
Y40600D02*
D03*
Y41100D02*
D03*
Y41600D02*
D03*
X22200D02*
D03*
Y41100D02*
D03*
Y40600D02*
D03*
Y40100D02*
D03*
Y39600D02*
D03*
Y39100D02*
D03*
Y38600D02*
D03*
Y38100D02*
D03*
D15*
X35700Y5700D02*
D03*
X36200D02*
D03*
X36700D02*
D03*
X37200D02*
D03*
X37700D02*
D03*
X38200D02*
D03*
X38700D02*
D03*
X39200D02*
D03*
Y3586D02*
D03*
X38700D02*
D03*
X38200D02*
D03*
X37700D02*
D03*
X37200D02*
D03*
X36700D02*
D03*
X36200D02*
D03*
X35700D02*
D03*
D16*
X47986Y7725D02*
D03*
Y10879D02*
D03*
X46218Y7725D02*
D03*
Y10879D02*
D03*
X31418Y6279D02*
D03*
Y3125D02*
D03*
X33186Y6279D02*
D03*
Y3125D02*
D03*
D17*
X3337Y48900D02*
D03*
X3663D02*
D03*
X43063Y53500D02*
D03*
X42737D02*
D03*
X48337Y24300D02*
D03*
X48663D02*
D03*
X6063Y15200D02*
D03*
X5737D02*
D03*
X4837D02*
D03*
X5163D02*
D03*
X3337Y29900D02*
D03*
X3663D02*
D03*
D18*
X17800Y28937D02*
D03*
Y29263D02*
D03*
X12800Y37937D02*
D03*
Y38263D02*
D03*
X18953Y48255D02*
D03*
Y47928D02*
D03*
X12800Y19273D02*
D03*
Y19600D02*
D03*
Y39537D02*
D03*
Y39863D02*
D03*
Y20737D02*
D03*
Y21063D02*
D03*
X34700Y45337D02*
D03*
Y45663D02*
D03*
X43500Y52737D02*
D03*
Y53063D02*
D03*
X49600Y24737D02*
D03*
Y25063D02*
D03*
X29800Y45163D02*
D03*
Y44837D02*
D03*
D19*
X52977Y40700D02*
D03*
X52623D02*
D03*
X52623Y40200D02*
D03*
X52977D02*
D03*
D20*
X1700Y48930D02*
D03*
Y48300D02*
D03*
Y20415D02*
D03*
Y19785D02*
D03*
Y38915D02*
D03*
Y38285D02*
D03*
Y25415D02*
D03*
Y24785D02*
D03*
Y44430D02*
D03*
Y43800D02*
D03*
X41400Y4815D02*
D03*
Y4185D02*
D03*
X1700Y29915D02*
D03*
Y29285D02*
D03*
D21*
X29185Y2000D02*
D03*
X29815D02*
D03*
X22815D02*
D03*
X22185D02*
D03*
X16815D02*
D03*
X16185D02*
D03*
X10815D02*
D03*
X10185D02*
D03*
D22*
X39100Y27760D02*
D03*
Y30240D02*
D03*
X46100Y38540D02*
D03*
Y36060D02*
D03*
X23700Y26640D02*
D03*
Y24160D02*
D03*
D23*
X48657Y26069D02*
D03*
X48834D02*
D03*
X49011D02*
D03*
X49189D02*
D03*
X49366D02*
D03*
X49543D02*
D03*
Y27132D02*
D03*
X49366D02*
D03*
X49189D02*
D03*
X49011D02*
D03*
X48834D02*
D03*
X48657D02*
D03*
X6343Y12969D02*
D03*
X6166D02*
D03*
X5989D02*
D03*
X5811D02*
D03*
X5634D02*
D03*
X5457D02*
D03*
Y14031D02*
D03*
X5634D02*
D03*
X5811D02*
D03*
X5989D02*
D03*
X6166D02*
D03*
X6343D02*
D03*
D24*
X49100Y26600D02*
D03*
X5900Y13500D02*
D03*
D25*
X3718Y11800D02*
D03*
X4682D02*
D03*
D26*
X47400Y26582D02*
D03*
Y25618D02*
D03*
X31100Y45982D02*
D03*
Y45018D02*
D03*
D27*
X16499Y18995D02*
D03*
X15200D02*
D03*
X16499Y19389D02*
D03*
X15200D02*
D03*
X16499Y19783D02*
D03*
X15200D02*
D03*
X16499Y20176D02*
D03*
X15200D02*
D03*
X16499Y20570D02*
D03*
X15200D02*
D03*
X16499Y20964D02*
D03*
X15200D02*
D03*
X16499Y21357D02*
D03*
X15200D02*
D03*
X16499Y21751D02*
D03*
X15200D02*
D03*
X16499Y22145D02*
D03*
X15200D02*
D03*
X16499Y22539D02*
D03*
X15200D02*
D03*
X16499Y22932D02*
D03*
X15200D02*
D03*
X16499Y23326D02*
D03*
X15200D02*
D03*
X16499Y23720D02*
D03*
X15200D02*
D03*
X16499Y24113D02*
D03*
X15200D02*
D03*
X16499Y24507D02*
D03*
X15200D02*
D03*
X16499Y24901D02*
D03*
X15200D02*
D03*
X16499Y25294D02*
D03*
X15200D02*
D03*
X16499Y25688D02*
D03*
X15200D02*
D03*
X16499Y26082D02*
D03*
X15200D02*
D03*
X16499Y26476D02*
D03*
X15200D02*
D03*
X16499Y26869D02*
D03*
X15200D02*
D03*
X16499Y27263D02*
D03*
X15200D02*
D03*
X16499Y27657D02*
D03*
X15200D02*
D03*
X16499Y28050D02*
D03*
X15200D02*
D03*
X16499Y28444D02*
D03*
X15200D02*
D03*
X16499Y28838D02*
D03*
X15200D02*
D03*
X16499Y29232D02*
D03*
X15200D02*
D03*
X16499Y29625D02*
D03*
X15200D02*
D03*
X16499Y30019D02*
D03*
X15200D02*
D03*
X16499Y30413D02*
D03*
X15200D02*
D03*
X16499Y30806D02*
D03*
X15200D02*
D03*
X16499Y31200D02*
D03*
X15200D02*
D03*
Y49905D02*
D03*
X16499D02*
D03*
X15200Y49511D02*
D03*
X16499D02*
D03*
X15200Y49117D02*
D03*
X16499D02*
D03*
X15200Y48724D02*
D03*
X16499D02*
D03*
X15200Y48330D02*
D03*
X16499D02*
D03*
X15200Y47936D02*
D03*
X16499D02*
D03*
X15200Y47543D02*
D03*
X16499D02*
D03*
X15200Y47149D02*
D03*
X16499D02*
D03*
X15200Y46755D02*
D03*
X16499D02*
D03*
X15200Y46361D02*
D03*
X16499D02*
D03*
X15200Y45968D02*
D03*
X16499D02*
D03*
X15200Y45574D02*
D03*
X16499D02*
D03*
X15200Y45180D02*
D03*
X16499D02*
D03*
X15200Y44787D02*
D03*
X16499D02*
D03*
X15200Y44393D02*
D03*
X16499D02*
D03*
X15200Y43999D02*
D03*
X16499D02*
D03*
X15200Y43606D02*
D03*
X16499D02*
D03*
X15200Y43212D02*
D03*
X16499D02*
D03*
X15200Y42818D02*
D03*
X16499D02*
D03*
X15200Y42424D02*
D03*
X16499D02*
D03*
X15200Y42031D02*
D03*
X16499D02*
D03*
X15200Y41637D02*
D03*
X16499D02*
D03*
X15200Y41243D02*
D03*
X16499D02*
D03*
X15200Y40850D02*
D03*
X16499D02*
D03*
X15200Y40456D02*
D03*
X16499D02*
D03*
X15200Y40062D02*
D03*
X16499D02*
D03*
X15200Y39669D02*
D03*
X16499D02*
D03*
X15200Y39275D02*
D03*
X16499D02*
D03*
X15200Y38881D02*
D03*
X16499D02*
D03*
X15200Y38487D02*
D03*
X16499D02*
D03*
X15200Y38094D02*
D03*
X16499D02*
D03*
X15200Y37700D02*
D03*
X16499D02*
D03*
D28*
X43343Y15063D02*
D03*
Y15299D02*
D03*
Y15535D02*
D03*
Y15772D02*
D03*
Y16008D02*
D03*
Y16244D02*
D03*
Y16480D02*
D03*
Y16717D02*
D03*
Y16953D02*
D03*
Y17189D02*
D03*
Y17425D02*
D03*
Y17661D02*
D03*
Y17898D02*
D03*
Y18134D02*
D03*
Y18370D02*
D03*
Y18606D02*
D03*
Y18843D02*
D03*
Y19079D02*
D03*
Y19315D02*
D03*
Y19551D02*
D03*
Y19787D02*
D03*
Y20024D02*
D03*
Y20260D02*
D03*
Y20496D02*
D03*
Y20732D02*
D03*
Y20969D02*
D03*
Y21205D02*
D03*
Y21441D02*
D03*
Y21677D02*
D03*
Y21913D02*
D03*
Y22150D02*
D03*
Y22386D02*
D03*
Y22622D02*
D03*
Y22858D02*
D03*
Y23094D02*
D03*
Y23331D02*
D03*
Y23567D02*
D03*
Y23803D02*
D03*
Y24039D02*
D03*
Y24276D02*
D03*
Y24512D02*
D03*
Y24748D02*
D03*
Y24984D02*
D03*
Y25220D02*
D03*
Y25457D02*
D03*
Y25693D02*
D03*
Y25929D02*
D03*
Y26165D02*
D03*
Y26402D02*
D03*
Y26638D02*
D03*
Y26874D02*
D03*
Y27110D02*
D03*
Y27346D02*
D03*
Y27583D02*
D03*
Y27819D02*
D03*
Y28055D02*
D03*
Y28291D02*
D03*
Y29709D02*
D03*
Y29945D02*
D03*
Y30181D02*
D03*
Y30417D02*
D03*
Y30654D02*
D03*
Y30890D02*
D03*
Y31126D02*
D03*
Y31362D02*
D03*
Y31598D02*
D03*
Y31835D02*
D03*
Y32071D02*
D03*
Y32307D02*
D03*
Y32543D02*
D03*
Y32780D02*
D03*
Y33016D02*
D03*
Y33252D02*
D03*
Y33488D02*
D03*
Y33724D02*
D03*
Y33961D02*
D03*
Y34197D02*
D03*
Y34433D02*
D03*
Y34669D02*
D03*
Y34906D02*
D03*
Y35142D02*
D03*
Y35378D02*
D03*
Y35614D02*
D03*
Y35850D02*
D03*
Y36087D02*
D03*
Y36323D02*
D03*
Y36559D02*
D03*
Y36795D02*
D03*
Y37032D02*
D03*
Y37268D02*
D03*
Y37504D02*
D03*
Y37740D02*
D03*
Y37976D02*
D03*
Y38213D02*
D03*
Y38449D02*
D03*
Y38685D02*
D03*
Y38921D02*
D03*
Y39157D02*
D03*
Y39394D02*
D03*
Y39630D02*
D03*
Y39866D02*
D03*
Y40102D02*
D03*
Y40339D02*
D03*
Y40575D02*
D03*
Y40811D02*
D03*
Y41047D02*
D03*
Y41283D02*
D03*
Y41520D02*
D03*
Y41756D02*
D03*
Y41992D02*
D03*
Y42228D02*
D03*
Y42465D02*
D03*
Y42701D02*
D03*
Y42937D02*
D03*
Y43173D02*
D03*
Y43409D02*
D03*
Y43646D02*
D03*
Y43882D02*
D03*
Y44118D02*
D03*
Y44354D02*
D03*
Y44591D02*
D03*
Y44827D02*
D03*
X42257D02*
D03*
Y44591D02*
D03*
Y44354D02*
D03*
Y44118D02*
D03*
Y43882D02*
D03*
Y43646D02*
D03*
Y43409D02*
D03*
Y43173D02*
D03*
Y42937D02*
D03*
Y42701D02*
D03*
Y42465D02*
D03*
Y42228D02*
D03*
Y41992D02*
D03*
Y41756D02*
D03*
Y41520D02*
D03*
Y41283D02*
D03*
Y41047D02*
D03*
Y40811D02*
D03*
Y40575D02*
D03*
Y40339D02*
D03*
Y40102D02*
D03*
Y39866D02*
D03*
Y39630D02*
D03*
Y39394D02*
D03*
Y39157D02*
D03*
Y38921D02*
D03*
Y38685D02*
D03*
Y38449D02*
D03*
Y38213D02*
D03*
Y37976D02*
D03*
Y37740D02*
D03*
Y37504D02*
D03*
Y37268D02*
D03*
Y37032D02*
D03*
Y36795D02*
D03*
Y36559D02*
D03*
Y36323D02*
D03*
Y36087D02*
D03*
Y35850D02*
D03*
Y35614D02*
D03*
Y35378D02*
D03*
Y35142D02*
D03*
Y34906D02*
D03*
Y34669D02*
D03*
Y34433D02*
D03*
Y34197D02*
D03*
Y33961D02*
D03*
Y33724D02*
D03*
Y33488D02*
D03*
Y33252D02*
D03*
Y33016D02*
D03*
Y32780D02*
D03*
Y32543D02*
D03*
Y32307D02*
D03*
Y32071D02*
D03*
Y31835D02*
D03*
Y31598D02*
D03*
Y31362D02*
D03*
Y31126D02*
D03*
Y30890D02*
D03*
Y30654D02*
D03*
Y30417D02*
D03*
Y30181D02*
D03*
Y29945D02*
D03*
Y29709D02*
D03*
Y28291D02*
D03*
Y28055D02*
D03*
Y27819D02*
D03*
Y27583D02*
D03*
Y27346D02*
D03*
Y27110D02*
D03*
Y26874D02*
D03*
Y26638D02*
D03*
Y26402D02*
D03*
Y26165D02*
D03*
Y25929D02*
D03*
Y25693D02*
D03*
Y25457D02*
D03*
Y25220D02*
D03*
Y24984D02*
D03*
Y24748D02*
D03*
Y24512D02*
D03*
Y24276D02*
D03*
Y24039D02*
D03*
Y23803D02*
D03*
Y23567D02*
D03*
Y23331D02*
D03*
Y23094D02*
D03*
Y22858D02*
D03*
Y22622D02*
D03*
Y22386D02*
D03*
Y22150D02*
D03*
Y21913D02*
D03*
Y21677D02*
D03*
Y21441D02*
D03*
Y21205D02*
D03*
Y20969D02*
D03*
Y20732D02*
D03*
Y20496D02*
D03*
Y20260D02*
D03*
Y20024D02*
D03*
Y19787D02*
D03*
Y19551D02*
D03*
Y19315D02*
D03*
Y19079D02*
D03*
Y18843D02*
D03*
Y18606D02*
D03*
Y18370D02*
D03*
Y18134D02*
D03*
Y17898D02*
D03*
Y17661D02*
D03*
Y17425D02*
D03*
Y17189D02*
D03*
Y16953D02*
D03*
Y16717D02*
D03*
Y16480D02*
D03*
Y16244D02*
D03*
Y16008D02*
D03*
Y15772D02*
D03*
Y15535D02*
D03*
Y15299D02*
D03*
Y15063D02*
D03*
X26657D02*
D03*
Y15299D02*
D03*
Y15535D02*
D03*
Y15772D02*
D03*
Y16008D02*
D03*
Y16244D02*
D03*
Y16480D02*
D03*
Y16717D02*
D03*
Y16953D02*
D03*
Y17189D02*
D03*
Y17425D02*
D03*
Y17661D02*
D03*
Y17898D02*
D03*
Y18134D02*
D03*
Y18370D02*
D03*
Y18606D02*
D03*
Y18843D02*
D03*
Y19079D02*
D03*
Y19315D02*
D03*
Y19551D02*
D03*
Y19787D02*
D03*
Y20024D02*
D03*
Y20260D02*
D03*
Y20496D02*
D03*
Y20732D02*
D03*
Y20969D02*
D03*
Y21205D02*
D03*
Y21441D02*
D03*
Y21677D02*
D03*
Y21913D02*
D03*
Y22150D02*
D03*
Y22386D02*
D03*
Y22622D02*
D03*
Y22858D02*
D03*
Y23094D02*
D03*
Y23331D02*
D03*
Y23567D02*
D03*
Y23803D02*
D03*
Y24039D02*
D03*
Y24276D02*
D03*
Y24512D02*
D03*
Y24748D02*
D03*
Y24984D02*
D03*
Y25220D02*
D03*
Y25457D02*
D03*
Y25693D02*
D03*
Y25929D02*
D03*
Y26165D02*
D03*
Y26402D02*
D03*
Y26638D02*
D03*
Y26874D02*
D03*
Y27110D02*
D03*
Y27346D02*
D03*
Y27583D02*
D03*
Y27819D02*
D03*
Y28055D02*
D03*
Y28291D02*
D03*
Y29709D02*
D03*
Y29945D02*
D03*
Y30181D02*
D03*
Y30417D02*
D03*
Y30654D02*
D03*
Y30890D02*
D03*
Y31126D02*
D03*
Y31362D02*
D03*
Y31598D02*
D03*
Y31835D02*
D03*
Y32071D02*
D03*
Y32307D02*
D03*
Y32543D02*
D03*
Y32780D02*
D03*
Y33016D02*
D03*
Y33252D02*
D03*
Y33488D02*
D03*
Y33724D02*
D03*
Y33961D02*
D03*
Y34197D02*
D03*
Y34433D02*
D03*
Y34669D02*
D03*
Y34906D02*
D03*
Y35142D02*
D03*
Y35378D02*
D03*
Y35614D02*
D03*
Y35850D02*
D03*
Y36087D02*
D03*
Y36323D02*
D03*
Y36559D02*
D03*
Y36795D02*
D03*
Y37032D02*
D03*
Y37268D02*
D03*
Y37504D02*
D03*
Y37740D02*
D03*
Y37976D02*
D03*
Y38213D02*
D03*
Y38449D02*
D03*
Y38685D02*
D03*
Y38921D02*
D03*
Y39157D02*
D03*
Y39394D02*
D03*
Y39630D02*
D03*
Y39866D02*
D03*
Y40102D02*
D03*
Y40339D02*
D03*
Y40575D02*
D03*
Y40811D02*
D03*
Y41047D02*
D03*
Y41283D02*
D03*
Y41520D02*
D03*
Y41756D02*
D03*
Y41992D02*
D03*
Y42228D02*
D03*
Y42465D02*
D03*
Y42701D02*
D03*
Y42937D02*
D03*
Y43173D02*
D03*
Y43409D02*
D03*
Y43646D02*
D03*
Y43882D02*
D03*
Y44118D02*
D03*
Y44354D02*
D03*
Y44591D02*
D03*
Y44827D02*
D03*
X27743D02*
D03*
Y44591D02*
D03*
Y44354D02*
D03*
Y44118D02*
D03*
Y43882D02*
D03*
Y43646D02*
D03*
Y43409D02*
D03*
Y43173D02*
D03*
Y42937D02*
D03*
Y42701D02*
D03*
Y42465D02*
D03*
Y42228D02*
D03*
Y41992D02*
D03*
Y41756D02*
D03*
Y41520D02*
D03*
Y41283D02*
D03*
Y41047D02*
D03*
Y40811D02*
D03*
Y40575D02*
D03*
Y40339D02*
D03*
Y40102D02*
D03*
Y39866D02*
D03*
Y39630D02*
D03*
Y39394D02*
D03*
Y39157D02*
D03*
Y38921D02*
D03*
Y38685D02*
D03*
Y38449D02*
D03*
Y38213D02*
D03*
Y37976D02*
D03*
Y37740D02*
D03*
Y37504D02*
D03*
Y37268D02*
D03*
Y37032D02*
D03*
Y36795D02*
D03*
Y36559D02*
D03*
Y36323D02*
D03*
Y36087D02*
D03*
Y35850D02*
D03*
Y35614D02*
D03*
Y35378D02*
D03*
Y35142D02*
D03*
Y34906D02*
D03*
Y34669D02*
D03*
Y34433D02*
D03*
Y34197D02*
D03*
Y33961D02*
D03*
Y33724D02*
D03*
Y33488D02*
D03*
Y33252D02*
D03*
Y33016D02*
D03*
Y32780D02*
D03*
Y32543D02*
D03*
Y32307D02*
D03*
Y32071D02*
D03*
Y31835D02*
D03*
Y31598D02*
D03*
Y31362D02*
D03*
Y31126D02*
D03*
Y30890D02*
D03*
Y30654D02*
D03*
Y30417D02*
D03*
Y30181D02*
D03*
Y29945D02*
D03*
Y29709D02*
D03*
Y28291D02*
D03*
Y28055D02*
D03*
Y27819D02*
D03*
Y27583D02*
D03*
Y27346D02*
D03*
Y27110D02*
D03*
Y26874D02*
D03*
Y26638D02*
D03*
Y26402D02*
D03*
Y26165D02*
D03*
Y25929D02*
D03*
Y25693D02*
D03*
Y25457D02*
D03*
Y25220D02*
D03*
Y24984D02*
D03*
Y24748D02*
D03*
Y24512D02*
D03*
Y24276D02*
D03*
Y24039D02*
D03*
Y23803D02*
D03*
Y23567D02*
D03*
Y23331D02*
D03*
Y23094D02*
D03*
Y22858D02*
D03*
Y22622D02*
D03*
Y22386D02*
D03*
Y22150D02*
D03*
Y21913D02*
D03*
Y21677D02*
D03*
Y21441D02*
D03*
Y21205D02*
D03*
Y20969D02*
D03*
Y20732D02*
D03*
Y20496D02*
D03*
Y20260D02*
D03*
Y20024D02*
D03*
Y19787D02*
D03*
Y19551D02*
D03*
Y19315D02*
D03*
Y19079D02*
D03*
Y18843D02*
D03*
Y18606D02*
D03*
Y18370D02*
D03*
Y18134D02*
D03*
Y17898D02*
D03*
Y17661D02*
D03*
Y17425D02*
D03*
Y17189D02*
D03*
Y16953D02*
D03*
Y16717D02*
D03*
Y16480D02*
D03*
Y16244D02*
D03*
Y16008D02*
D03*
Y15772D02*
D03*
Y15535D02*
D03*
Y15299D02*
D03*
Y15063D02*
D03*
D29*
X44013Y29000D02*
D03*
X41587D02*
D03*
X25987D02*
D03*
X28413D02*
D03*
D30*
X42800Y12169D02*
D03*
Y47740D02*
D03*
X27200D02*
D03*
Y12169D02*
D03*
D31*
X37562Y11077D02*
D03*
Y9400D02*
D03*
X36775Y11077D02*
D03*
Y9400D02*
D03*
X35987Y11077D02*
D03*
Y9400D02*
D03*
X35200Y11077D02*
D03*
Y9400D02*
D03*
X34413Y11077D02*
D03*
Y9400D02*
D03*
X33625Y11077D02*
D03*
Y9400D02*
D03*
X32838Y11077D02*
D03*
Y9400D02*
D03*
X43900Y3861D02*
D03*
Y5539D02*
D03*
X44687Y3861D02*
D03*
Y5539D02*
D03*
X45475Y3861D02*
D03*
Y5539D02*
D03*
X46262Y3861D02*
D03*
Y5539D02*
D03*
X47050Y3861D02*
D03*
Y5539D02*
D03*
X47837Y3861D02*
D03*
Y5539D02*
D03*
X48624Y3861D02*
D03*
Y5539D02*
D03*
D32*
X737Y13894D02*
D03*
Y13106D02*
D03*
X53563Y27094D02*
D03*
Y26306D02*
D03*
D33*
X1800Y12988D02*
D03*
Y13244D02*
D03*
Y13500D02*
D03*
Y13756D02*
D03*
Y14012D02*
D03*
X52500Y26188D02*
D03*
Y26444D02*
D03*
Y26700D02*
D03*
Y26956D02*
D03*
Y27212D02*
D03*
D34*
X737Y12378D02*
D03*
Y14622D02*
D03*
X53563Y25578D02*
D03*
Y27822D02*
D03*
D35*
X33651Y45226D02*
D03*
Y45974D02*
D03*
X32749Y45600D02*
D03*
D45*
X0Y-8400D02*
X400D01*
X200D01*
Y-9000D01*
X700D02*
X900D01*
X1000Y-8900D01*
Y-8700D01*
X900Y-8600D01*
X700D01*
X600Y-8700D01*
Y-8900D01*
X700Y-9000D01*
X1200Y-9200D02*
Y-8600D01*
X1500D01*
X1599Y-8700D01*
Y-8900D01*
X1500Y-9000D01*
X1200D01*
X2399D02*
Y-8400D01*
X2699D01*
X2799Y-8500D01*
Y-8700D01*
X2699Y-8800D01*
X2399D01*
X3099Y-8600D02*
X3299D01*
X3399Y-8700D01*
Y-9000D01*
X3099D01*
X2999Y-8900D01*
X3099Y-8800D01*
X3399D01*
X3599Y-9000D02*
X3899D01*
X3999Y-8900D01*
X3899Y-8800D01*
X3699D01*
X3599Y-8700D01*
X3699Y-8600D01*
X3999D01*
X4299Y-8500D02*
Y-8600D01*
X4199D01*
X4399D01*
X4299D01*
Y-8900D01*
X4399Y-9000D01*
X4998D02*
X4798D01*
X4698Y-8900D01*
Y-8700D01*
X4798Y-8600D01*
X4998D01*
X5098Y-8700D01*
Y-8800D01*
X4698D01*
X6098Y-9000D02*
X5898Y-8800D01*
Y-8600D01*
X6098Y-8400D01*
X6398Y-9000D02*
Y-8400D01*
X6698D01*
X6798Y-8500D01*
Y-8700D01*
X6698Y-8800D01*
X6398D01*
X7098Y-8600D02*
X7298D01*
X7398Y-8700D01*
Y-9000D01*
X7098D01*
X6998Y-8900D01*
X7098Y-8800D01*
X7398D01*
X7598Y-9000D02*
X7897D01*
X7997Y-8900D01*
X7897Y-8800D01*
X7698D01*
X7598Y-8700D01*
X7698Y-8600D01*
X7997D01*
X8297Y-8500D02*
Y-8600D01*
X8197D01*
X8397D01*
X8297D01*
Y-8900D01*
X8397Y-9000D01*
X8997D02*
X8797D01*
X8697Y-8900D01*
Y-8700D01*
X8797Y-8600D01*
X8997D01*
X9097Y-8700D01*
Y-8800D01*
X8697D01*
X9297Y-9000D02*
X9497Y-8800D01*
Y-8600D01*
X9297Y-8400D01*
%TF.MD5,ea453aed36b7e72abeceb60db2b3e830*%
M02*
