G04 Layer_Color=128*
%FSLAX24Y24*%
%MOIN*%
%TF.FileFunction,Drillmap*%
%TF.Part,Single*%
G01*
G75*
%TA.AperFunction,NonConductor*%
%ADD138C,0.0050*%
D138*
X37669Y19300D02*
X38732D01*
X38200Y18769D02*
Y19832D01*
X51568Y2000D02*
X52632D01*
X52100Y1469D02*
Y2531D01*
X1469Y2000D02*
X2531D01*
X2000Y1469D02*
Y2531D01*
X1469Y53500D02*
X2531D01*
X2000Y52969D02*
Y54032D01*
X51568Y53500D02*
X52632D01*
X52100Y52969D02*
Y54032D01*
X34469Y41000D02*
X35531D01*
X35000Y40469D02*
Y41532D01*
X39023Y41100D02*
X39377D01*
X39200Y40923D02*
Y41277D01*
X39023Y48100D02*
X39377D01*
X39200Y47923D02*
Y48277D01*
X39023Y47100D02*
X39377D01*
X39200Y46923D02*
Y47277D01*
X39023Y46100D02*
X39377D01*
X39200Y45923D02*
Y46277D01*
X39023Y45100D02*
X39377D01*
X39200Y44923D02*
Y45277D01*
X39023Y44100D02*
X39377D01*
X39200Y43923D02*
Y44277D01*
X39023Y43100D02*
X39377D01*
X39200Y42923D02*
Y43277D01*
X39023Y42100D02*
X39377D01*
X39200Y41923D02*
Y42277D01*
X39023Y40100D02*
X39377D01*
X39200Y39923D02*
Y40277D01*
X20523Y51500D02*
X20877D01*
X20700Y51323D02*
Y51677D01*
X20523Y50500D02*
X20877D01*
X20700Y50323D02*
Y50677D01*
X20523Y49500D02*
X20877D01*
X20700Y49323D02*
Y49677D01*
X20523Y48500D02*
X20877D01*
X20700Y48323D02*
Y48677D01*
X20523Y46500D02*
X20877D01*
X20700Y46323D02*
Y46677D01*
X20523Y45500D02*
X20877D01*
X20700Y45323D02*
Y45677D01*
X20523Y47500D02*
X20877D01*
X20700Y47323D02*
Y47677D01*
X50823Y23500D02*
X51177D01*
X51000Y23323D02*
Y23677D01*
X51823Y23500D02*
X52177D01*
X52000Y23323D02*
Y23677D01*
X50823Y22500D02*
X51177D01*
X51000Y22323D02*
Y22677D01*
X51823Y22500D02*
X52177D01*
X52000Y22323D02*
Y22677D01*
X50823Y21500D02*
X51177D01*
X51000Y21323D02*
Y21677D01*
X51823Y21500D02*
X52177D01*
X52000Y21323D02*
Y21677D01*
X50823Y20500D02*
X51177D01*
X51000Y20323D02*
Y20677D01*
X51823Y20500D02*
X52177D01*
X52000Y20323D02*
Y20677D01*
X50823Y19500D02*
X51177D01*
X51000Y19323D02*
Y19677D01*
X51823Y19500D02*
X52177D01*
X52000Y19323D02*
Y19677D01*
X50823Y18500D02*
X51177D01*
X51000Y18323D02*
Y18677D01*
X51823Y18500D02*
X52177D01*
X52000Y18323D02*
Y18677D01*
X50823Y17500D02*
X51177D01*
X51000Y17323D02*
Y17677D01*
X51823Y17500D02*
X52177D01*
X52000Y17323D02*
Y17677D01*
X50823Y16500D02*
X51177D01*
X51000Y16323D02*
Y16677D01*
X51823Y16500D02*
X52177D01*
X52000Y16323D02*
Y16677D01*
X50823Y15500D02*
X51177D01*
X51000Y15323D02*
Y15677D01*
X51823Y15500D02*
X52177D01*
X52000Y15323D02*
Y15677D01*
X50823Y14500D02*
X51177D01*
X51000Y14323D02*
Y14677D01*
X51823Y14500D02*
X52177D01*
X52000Y14323D02*
Y14677D01*
X50823Y13500D02*
X51177D01*
X51000Y13323D02*
Y13677D01*
X51823Y13500D02*
X52177D01*
X52000Y13323D02*
Y13677D01*
X50823Y12500D02*
X51177D01*
X51000Y12323D02*
Y12677D01*
X51823Y12500D02*
X52177D01*
X52000Y12323D02*
Y12677D01*
X50823Y11500D02*
X51177D01*
X51000Y11323D02*
Y11677D01*
X51823Y11500D02*
X52177D01*
X52000Y11323D02*
Y11677D01*
X50823Y10500D02*
X51177D01*
X51000Y10323D02*
Y10677D01*
X51823Y10500D02*
X52177D01*
X52000Y10323D02*
Y10677D01*
X50823Y9500D02*
X51177D01*
X51000Y9323D02*
Y9677D01*
X51823Y9500D02*
X52177D01*
X52000Y9323D02*
Y9677D01*
X50823Y8500D02*
X51177D01*
X51000Y8323D02*
Y8677D01*
X51823Y8500D02*
X52177D01*
X52000Y8323D02*
Y8677D01*
X50823Y7500D02*
X51177D01*
X51000Y7323D02*
Y7677D01*
X51823Y7500D02*
X52177D01*
X52000Y7323D02*
Y7677D01*
X50823Y6500D02*
X51177D01*
X51000Y6323D02*
Y6677D01*
X51823Y6500D02*
X52177D01*
X52000Y6323D02*
Y6677D01*
X50823Y5500D02*
X51177D01*
X51000Y5323D02*
Y5677D01*
X51823Y5500D02*
X52177D01*
X52000Y5323D02*
Y5677D01*
X50823Y4500D02*
X51177D01*
X51000Y4323D02*
Y4677D01*
X51823Y4500D02*
X52177D01*
X52000Y4323D02*
Y4677D01*
X35423Y16600D02*
X35777D01*
X35600Y16423D02*
Y16777D01*
X34423Y16600D02*
X34777D01*
X34600Y16423D02*
Y16777D01*
X35423Y17600D02*
X35777D01*
X35600Y17423D02*
Y17777D01*
X34423Y17600D02*
X34777D01*
X34600Y17423D02*
Y17777D01*
X35423Y18600D02*
X35777D01*
X35600Y18423D02*
Y18777D01*
X34423Y18600D02*
X34777D01*
X34600Y18423D02*
Y18777D01*
X35423Y19600D02*
X35777D01*
X35600Y19423D02*
Y19777D01*
X34423Y19600D02*
X34777D01*
X34600Y19423D02*
Y19777D01*
X4523Y8900D02*
X4877D01*
X4700Y8723D02*
Y9077D01*
X5523Y8400D02*
X5877D01*
X5700Y8223D02*
Y8577D01*
X4523Y7900D02*
X4877D01*
X4700Y7723D02*
Y8077D01*
X5523Y7400D02*
X5877D01*
X5700Y7223D02*
Y7577D01*
X4523Y6900D02*
X4877D01*
X4700Y6723D02*
Y7077D01*
X5523Y6400D02*
X5877D01*
X5700Y6223D02*
Y6577D01*
X4523Y5900D02*
X4877D01*
X4700Y5723D02*
Y6077D01*
X5523Y5400D02*
X5877D01*
X5700Y5223D02*
Y5577D01*
X690Y10200D02*
X1310D01*
X1000Y9890D02*
Y10510D01*
X690Y4100D02*
X1310D01*
X1000Y3790D02*
Y4410D01*
X1560Y9400D02*
X2840D01*
X2200Y8760D02*
Y10040D01*
X1560Y4900D02*
X2840D01*
X2200Y4260D02*
Y5540D01*
X51460Y35500D02*
X52740D01*
X52100Y34860D02*
Y36140D01*
X51460Y31000D02*
X52740D01*
X52100Y30360D02*
Y31640D01*
X52990Y36300D02*
X53610D01*
X53300Y35990D02*
Y36610D01*
X52990Y30200D02*
X53610D01*
X53300Y29890D02*
Y30510D01*
X48423Y35000D02*
X48777D01*
X48600Y34823D02*
Y35177D01*
X49423Y34500D02*
X49777D01*
X49600Y34323D02*
Y34677D01*
X48423Y34000D02*
X48777D01*
X48600Y33823D02*
Y34177D01*
X49423Y33500D02*
X49777D01*
X49600Y33323D02*
Y33677D01*
X48423Y33000D02*
X48777D01*
X48600Y32823D02*
Y33177D01*
X49423Y32500D02*
X49777D01*
X49600Y32323D02*
Y32677D01*
X48423Y32000D02*
X48777D01*
X48600Y31823D02*
Y32177D01*
X49423Y31500D02*
X49777D01*
X49600Y31323D02*
Y31677D01*
X15574Y18326D02*
X16125D01*
X15850Y18050D02*
Y18602D01*
X15574Y31869D02*
X16125D01*
X15850Y31594D02*
Y32145D01*
X15574Y50574D02*
X16125D01*
X15850Y50298D02*
Y50850D01*
X15574Y37031D02*
X16125D01*
X15850Y36755D02*
Y37306D01*
X42524Y45299D02*
X43076D01*
X42800Y45024D02*
Y45575D01*
X42524Y14591D02*
X43076D01*
X42800Y14315D02*
Y14866D01*
X42505Y29000D02*
X43095D01*
X42800Y28705D02*
Y29295D01*
X26905Y29000D02*
X27495D01*
X27200Y28705D02*
Y29295D01*
X26924Y14591D02*
X27476D01*
X27200Y14315D02*
Y14866D01*
X26924Y45299D02*
X27476D01*
X27200Y45024D02*
Y45575D01*
X36972Y10239D02*
X37365D01*
X37169Y10042D02*
Y10435D01*
X33035Y10239D02*
X33428D01*
X33231Y10042D02*
Y10435D01*
X44097Y4700D02*
X44491D01*
X44294Y4503D02*
Y4897D01*
X48034Y4700D02*
X48428D01*
X48231Y4503D02*
Y4897D01*
X46823Y53500D02*
X47177D01*
X47000Y53323D02*
Y53677D01*
X45823Y53500D02*
X46177D01*
X46000Y53323D02*
Y53677D01*
X44823Y53500D02*
X45177D01*
X45000Y53323D02*
Y53677D01*
X20523Y34500D02*
X20877D01*
X20700Y34323D02*
Y34677D01*
X20523Y33500D02*
X20877D01*
X20700Y33323D02*
Y33677D01*
X20523Y32500D02*
X20877D01*
X20700Y32323D02*
Y32677D01*
X20523Y31500D02*
X20877D01*
X20700Y31323D02*
Y31677D01*
X20523Y29500D02*
X20877D01*
X20700Y29323D02*
Y29677D01*
X20523Y28500D02*
X20877D01*
X20700Y28323D02*
Y28677D01*
X20523Y30500D02*
X20877D01*
X20700Y30323D02*
Y30677D01*
X46223Y41100D02*
X46577D01*
X46400Y40923D02*
Y41277D01*
X46223Y48100D02*
X46577D01*
X46400Y47923D02*
Y48277D01*
X46223Y47100D02*
X46577D01*
X46400Y46923D02*
Y47277D01*
X46223Y46100D02*
X46577D01*
X46400Y45923D02*
Y46277D01*
X46223Y45100D02*
X46577D01*
X46400Y44923D02*
Y45277D01*
X46223Y44100D02*
X46577D01*
X46400Y43923D02*
Y44277D01*
X46223Y43100D02*
X46577D01*
X46400Y42923D02*
Y43277D01*
X46223Y42100D02*
X46577D01*
X46400Y41923D02*
Y42277D01*
X46223Y40100D02*
X46577D01*
X46400Y39923D02*
Y40277D01*
X28823Y5200D02*
X29177D01*
X29000Y5023D02*
Y5377D01*
X28823Y4200D02*
X29177D01*
X29000Y4023D02*
Y4377D01*
X27823Y5200D02*
X28177D01*
X28000Y5023D02*
Y5377D01*
X27823Y4200D02*
X28177D01*
X28000Y4023D02*
Y4377D01*
X26823Y5200D02*
X27177D01*
X27000Y5023D02*
Y5377D01*
X26823Y4200D02*
X27177D01*
X27000Y4023D02*
Y4377D01*
X25823Y5200D02*
X26177D01*
X26000Y5023D02*
Y5377D01*
X25823Y4200D02*
X26177D01*
X26000Y4023D02*
Y4377D01*
X24823Y5200D02*
X25177D01*
X25000Y5023D02*
Y5377D01*
X24823Y4200D02*
X25177D01*
X25000Y4023D02*
Y4377D01*
X23823Y5200D02*
X24177D01*
X24000Y5023D02*
Y5377D01*
X23823Y4200D02*
X24177D01*
X24000Y4023D02*
Y4377D01*
X22823Y5200D02*
X23177D01*
X23000Y5023D02*
Y5377D01*
X22823Y4200D02*
X23177D01*
X23000Y4023D02*
Y4377D01*
X21823Y5200D02*
X22177D01*
X22000Y5023D02*
Y5377D01*
X21823Y4200D02*
X22177D01*
X22000Y4023D02*
Y4377D01*
X20823Y5200D02*
X21177D01*
X21000Y5023D02*
Y5377D01*
X20823Y4200D02*
X21177D01*
X21000Y4023D02*
Y4377D01*
X19823Y5200D02*
X20177D01*
X20000Y5023D02*
Y5377D01*
X19823Y4200D02*
X20177D01*
X20000Y4023D02*
Y4377D01*
X18823Y5200D02*
X19177D01*
X19000Y5023D02*
Y5377D01*
X18823Y4200D02*
X19177D01*
X19000Y4023D02*
Y4377D01*
X17823Y5200D02*
X18177D01*
X18000Y5023D02*
Y5377D01*
X17823Y4200D02*
X18177D01*
X18000Y4023D02*
Y4377D01*
X16823Y5200D02*
X17177D01*
X17000Y5023D02*
Y5377D01*
X16823Y4200D02*
X17177D01*
X17000Y4023D02*
Y4377D01*
X15823Y5200D02*
X16177D01*
X16000Y5023D02*
Y5377D01*
X15823Y4200D02*
X16177D01*
X16000Y4023D02*
Y4377D01*
X14823Y5200D02*
X15177D01*
X15000Y5023D02*
Y5377D01*
X14823Y4200D02*
X15177D01*
X15000Y4023D02*
Y4377D01*
X13823Y5200D02*
X14177D01*
X14000Y5023D02*
Y5377D01*
X13823Y4200D02*
X14177D01*
X14000Y4023D02*
Y4377D01*
X12823Y5200D02*
X13177D01*
X13000Y5023D02*
Y5377D01*
X12823Y4200D02*
X13177D01*
X13000Y4023D02*
Y4377D01*
X11823Y5200D02*
X12177D01*
X12000Y5023D02*
Y5377D01*
X11823Y4200D02*
X12177D01*
X12000Y4023D02*
Y4377D01*
X10823Y5200D02*
X11177D01*
X11000Y5023D02*
Y5377D01*
X10823Y4200D02*
X11177D01*
X11000Y4023D02*
Y4377D01*
X9823Y5200D02*
X10177D01*
X10000Y5023D02*
Y5377D01*
X9823Y4200D02*
X10177D01*
X10000Y4023D02*
Y4377D01*
X36423Y14900D02*
X36777D01*
X36600Y14723D02*
Y15077D01*
X36423Y13900D02*
X36777D01*
X36600Y13723D02*
Y14077D01*
X35423Y14900D02*
X35777D01*
X35600Y14723D02*
Y15077D01*
X35423Y13900D02*
X35777D01*
X35600Y13723D02*
Y14077D01*
X34423Y14900D02*
X34777D01*
X34600Y14723D02*
Y15077D01*
X34423Y13900D02*
X34777D01*
X34600Y13723D02*
Y14077D01*
X33423Y14900D02*
X33777D01*
X33600Y14723D02*
Y15077D01*
X33423Y13900D02*
X33777D01*
X33600Y13723D02*
Y14077D01*
X619Y12122D02*
X855D01*
X737Y12004D02*
Y12240D01*
X619Y14878D02*
X855D01*
X737Y14760D02*
Y14996D01*
X1623Y14484D02*
X1977D01*
X1800Y14307D02*
Y14661D01*
X1623Y12516D02*
X1977D01*
X1800Y12339D02*
Y12693D01*
X52323Y27684D02*
X52677D01*
X52500Y27507D02*
Y27861D01*
X52323Y25716D02*
X52677D01*
X52500Y25539D02*
Y25893D01*
X53445Y25322D02*
X53681D01*
X53563Y25204D02*
Y25440D01*
X53445Y28078D02*
X53681D01*
X53563Y27960D02*
Y28196D01*
X50346Y50600D02*
X51054D01*
X50700Y50246D02*
Y50954D01*
X50346Y49000D02*
X51054D01*
X50700Y48646D02*
Y49354D01*
X50346Y47400D02*
X51054D01*
X50700Y47046D02*
Y47754D01*
X50346Y45800D02*
X51054D01*
X50700Y45446D02*
Y46154D01*
X50346Y44200D02*
X51054D01*
X50700Y43846D02*
Y44554D01*
X50346Y42600D02*
X51054D01*
X50700Y42246D02*
Y42954D01*
X49773Y39000D02*
X50127D01*
X49950Y38823D02*
Y39177D01*
X50773Y39000D02*
X51127D01*
X50950Y38823D02*
Y39177D01*
X49773Y40000D02*
X50127D01*
X49950Y39823D02*
Y40177D01*
X50773Y40000D02*
X51127D01*
X50950Y39823D02*
Y40177D01*
X49773Y41000D02*
X50127D01*
X49950Y40823D02*
Y41177D01*
X50773Y41000D02*
X51127D01*
X50950Y40823D02*
Y41177D01*
X46920Y27200D02*
X47080D01*
X47000Y27120D02*
Y27280D01*
X47120Y24900D02*
X47280D01*
X47200Y24820D02*
Y24980D01*
X6560Y15200D02*
X6640D01*
X6600Y15160D02*
Y15240D01*
X14560Y40062D02*
X14640D01*
X14600Y40022D02*
Y40102D01*
X18913Y48500D02*
X18993D01*
X18953Y48460D02*
Y48540D01*
X42360Y53500D02*
X42440D01*
X42400Y53460D02*
Y53540D01*
X49020Y36100D02*
X49180D01*
X49100Y36020D02*
Y36180D01*
X49020Y37000D02*
X49180D01*
X49100Y36920D02*
Y37080D01*
X47220Y36100D02*
X47380D01*
X47300Y36020D02*
Y36180D01*
X48120Y37000D02*
X48280D01*
X48200Y36920D02*
Y37080D01*
X44920Y36100D02*
X45080D01*
X45000Y36020D02*
Y36180D01*
X42760Y33016D02*
X42840D01*
X42800Y32976D02*
Y33056D01*
X43760Y27819D02*
X43840D01*
X43800Y27779D02*
Y27859D01*
X43760Y27110D02*
X43840D01*
X43800Y27070D02*
Y27150D01*
X43760Y26402D02*
X43840D01*
X43800Y26362D02*
Y26442D01*
X43760Y25693D02*
X43840D01*
X43800Y25653D02*
Y25733D01*
X43760Y24984D02*
X43840D01*
X43800Y24944D02*
Y25024D01*
X43760Y24276D02*
X43840D01*
X43800Y24236D02*
Y24316D01*
X43760Y23567D02*
X43840D01*
X43800Y23527D02*
Y23607D01*
X43760Y22858D02*
X43840D01*
X43800Y22818D02*
Y22898D01*
X41760Y22858D02*
X41840D01*
X41800Y22818D02*
Y22898D01*
X31420Y2000D02*
X31580D01*
X31500Y1920D02*
Y2080D01*
X40920Y31100D02*
X41080D01*
X41000Y31020D02*
Y31180D01*
X41460Y31600D02*
X41540D01*
X41500Y31560D02*
Y31640D01*
X41460Y30890D02*
X41540D01*
X41500Y30850D02*
Y30930D01*
X41760Y31126D02*
X41840D01*
X41800Y31086D02*
Y31166D01*
X41760Y31835D02*
X41840D01*
X41800Y31795D02*
Y31875D01*
X43760Y30181D02*
X43840D01*
X43800Y30141D02*
Y30221D01*
X43760Y30890D02*
X43840D01*
X43800Y30850D02*
Y30930D01*
X43760Y31598D02*
X43840D01*
X43800Y31558D02*
Y31638D01*
X43760Y32307D02*
X43840D01*
X43800Y32267D02*
Y32347D01*
X43760Y33016D02*
X43840D01*
X43800Y32976D02*
Y33056D01*
X43760Y33724D02*
X43840D01*
X43800Y33684D02*
Y33764D01*
X24060Y14400D02*
X24140D01*
X24100Y14360D02*
Y14440D01*
X24460Y13800D02*
X24540D01*
X24500Y13760D02*
Y13840D01*
X24860Y13200D02*
X24940D01*
X24900Y13160D02*
Y13240D01*
X25260Y12600D02*
X25340D01*
X25300Y12560D02*
Y12640D01*
X31760Y10300D02*
X31840D01*
X31800Y10260D02*
Y10340D01*
X31760Y18800D02*
X31840D01*
X31800Y18760D02*
Y18840D01*
X36660Y7400D02*
X36740D01*
X36700Y7360D02*
Y7440D01*
X37160Y7800D02*
X37240D01*
X37200Y7760D02*
Y7840D01*
X39160Y8200D02*
X39240D01*
X39200Y8160D02*
Y8240D01*
X13960Y41200D02*
X14040D01*
X14000Y41160D02*
Y41240D01*
X28660Y16008D02*
X28740D01*
X28700Y15968D02*
Y16048D01*
X28360Y16244D02*
X28440D01*
X28400Y16204D02*
Y16284D01*
X28660Y16480D02*
X28740D01*
X28700Y16440D02*
Y16520D01*
X28360Y16717D02*
X28440D01*
X28400Y16677D02*
Y16757D01*
X2160Y12988D02*
X2240D01*
X2200Y12948D02*
Y13028D01*
X5771Y14500D02*
X5851D01*
X5811Y14460D02*
Y14540D01*
X5949Y14300D02*
X6029D01*
X5989Y14260D02*
Y14340D01*
X5771Y12500D02*
X5851D01*
X5811Y12460D02*
Y12540D01*
X4260Y13000D02*
X4340D01*
X4300Y12960D02*
Y13040D01*
X4260Y14000D02*
X4340D01*
X4300Y13960D02*
Y14040D01*
X4160Y14600D02*
X4240D01*
X4200Y14560D02*
Y14640D01*
X3760Y15800D02*
X3840D01*
X3800Y15760D02*
Y15840D01*
X43860Y20496D02*
X43940D01*
X43900Y20456D02*
Y20536D01*
X28660Y20496D02*
X28740D01*
X28700Y20456D02*
Y20536D01*
X44160Y20732D02*
X44240D01*
X44200Y20692D02*
Y20772D01*
X43860Y21205D02*
X43940D01*
X43900Y21165D02*
Y21245D01*
X44160Y21441D02*
X44240D01*
X44200Y21401D02*
Y21481D01*
X43860Y21677D02*
X43940D01*
X43900Y21637D02*
Y21717D01*
X44160Y21913D02*
X44240D01*
X44200Y21873D02*
Y21953D01*
X43860Y22150D02*
X43940D01*
X43900Y22110D02*
Y22190D01*
X44160Y22386D02*
X44240D01*
X44200Y22346D02*
Y22426D01*
X43860Y22622D02*
X43940D01*
X43900Y22582D02*
Y22662D01*
X44160Y23094D02*
X44240D01*
X44200Y23054D02*
Y23134D01*
X43860Y23331D02*
X43940D01*
X43900Y23291D02*
Y23371D01*
X44160Y23803D02*
X44240D01*
X44200Y23763D02*
Y23843D01*
X43860Y24039D02*
X43940D01*
X43900Y23999D02*
Y24079D01*
X44160Y24512D02*
X44240D01*
X44200Y24472D02*
Y24552D01*
X43860Y24748D02*
X43940D01*
X43900Y24708D02*
Y24788D01*
X44160Y25220D02*
X44240D01*
X44200Y25180D02*
Y25260D01*
X43860Y25457D02*
X43940D01*
X43900Y25417D02*
Y25497D01*
X25660Y20732D02*
X25740D01*
X25700Y20692D02*
Y20772D01*
X26060Y21205D02*
X26140D01*
X26100Y21165D02*
Y21245D01*
X25660Y21441D02*
X25740D01*
X25700Y21401D02*
Y21481D01*
X26060Y21677D02*
X26140D01*
X26100Y21637D02*
Y21717D01*
X25660Y21913D02*
X25740D01*
X25700Y21873D02*
Y21953D01*
X26060Y22150D02*
X26140D01*
X26100Y22110D02*
Y22190D01*
X25660Y22386D02*
X25740D01*
X25700Y22346D02*
Y22426D01*
X26060Y22622D02*
X26140D01*
X26100Y22582D02*
Y22662D01*
X25660Y23094D02*
X25740D01*
X25700Y23054D02*
Y23134D01*
X26060Y23331D02*
X26140D01*
X26100Y23291D02*
Y23371D01*
X25660Y23803D02*
X25740D01*
X25700Y23763D02*
Y23843D01*
X26060Y24039D02*
X26140D01*
X26100Y23999D02*
Y24079D01*
X25660Y24512D02*
X25740D01*
X25700Y24472D02*
Y24552D01*
X26060Y24748D02*
X26140D01*
X26100Y24708D02*
Y24788D01*
X25660Y25220D02*
X25740D01*
X25700Y25180D02*
Y25260D01*
X26060Y25457D02*
X26140D01*
X26100Y25417D02*
Y25497D01*
X44160Y25929D02*
X44240D01*
X44200Y25889D02*
Y25969D01*
X43860Y26165D02*
X43940D01*
X43900Y26125D02*
Y26205D01*
X44160Y26638D02*
X44240D01*
X44200Y26598D02*
Y26678D01*
X43860Y26874D02*
X43940D01*
X43900Y26834D02*
Y26914D01*
X44160Y27346D02*
X44240D01*
X44200Y27306D02*
Y27386D01*
X43860Y27583D02*
X43940D01*
X43900Y27543D02*
Y27623D01*
X44160Y28055D02*
X44240D01*
X44200Y28015D02*
Y28095D01*
X40660Y29500D02*
X40740D01*
X40700Y29460D02*
Y29540D01*
X29260Y29500D02*
X29340D01*
X29300Y29460D02*
Y29540D01*
X43860Y28291D02*
X43940D01*
X43900Y28251D02*
Y28331D01*
X43860Y34669D02*
X43940D01*
X43900Y34629D02*
Y34709D01*
X43760Y34433D02*
X43840D01*
X43800Y34393D02*
Y34473D01*
X43860Y33961D02*
X43940D01*
X43900Y33921D02*
Y34001D01*
X44260Y34197D02*
X44340D01*
X44300Y34157D02*
Y34237D01*
X33160Y31500D02*
X33240D01*
X33200Y31460D02*
Y31540D01*
X40460Y29700D02*
X40540D01*
X40500Y29660D02*
Y29740D01*
X29460Y29700D02*
X29540D01*
X29500Y29660D02*
Y29740D01*
X43860Y29709D02*
X43940D01*
X43900Y29669D02*
Y29749D01*
X44160Y29945D02*
X44240D01*
X44200Y29905D02*
Y29985D01*
X43760Y44827D02*
X43840D01*
X43800Y44787D02*
Y44867D01*
X42760Y44827D02*
X42840D01*
X42800Y44787D02*
Y44867D01*
X41760Y44827D02*
X41840D01*
X41800Y44787D02*
Y44867D01*
X43760Y44118D02*
X43840D01*
X43800Y44078D02*
Y44158D01*
X41760Y44118D02*
X41840D01*
X41800Y44078D02*
Y44158D01*
X43760Y42937D02*
X43840D01*
X43800Y42897D02*
Y42977D01*
X41760Y42937D02*
X41840D01*
X41800Y42897D02*
Y42977D01*
X42760Y42937D02*
X42840D01*
X42800Y42897D02*
Y42977D01*
X41760Y42228D02*
X41840D01*
X41800Y42188D02*
Y42268D01*
X42760Y42228D02*
X42840D01*
X42800Y42188D02*
Y42268D01*
X43760Y42228D02*
X43840D01*
X43800Y42188D02*
Y42268D01*
X43760Y39630D02*
X43840D01*
X43800Y39590D02*
Y39670D01*
X42760Y39630D02*
X42840D01*
X42800Y39590D02*
Y39670D01*
X41760Y39630D02*
X41840D01*
X41800Y39590D02*
Y39670D01*
X26160Y44827D02*
X26240D01*
X26200Y44787D02*
Y44867D01*
X28160Y44827D02*
X28240D01*
X28200Y44787D02*
Y44867D01*
X27160Y44827D02*
X27240D01*
X27200Y44787D02*
Y44867D01*
X28160Y44118D02*
X28240D01*
X28200Y44078D02*
Y44158D01*
X27160Y44118D02*
X27240D01*
X27200Y44078D02*
Y44158D01*
X26160Y44118D02*
X26240D01*
X26200Y44078D02*
Y44158D01*
X28160Y42937D02*
X28240D01*
X28200Y42897D02*
Y42977D01*
X27160Y42937D02*
X27240D01*
X27200Y42897D02*
Y42977D01*
X26160Y42937D02*
X26240D01*
X26200Y42897D02*
Y42977D01*
X26160Y42228D02*
X26240D01*
X26200Y42188D02*
Y42268D01*
X27160Y42228D02*
X27240D01*
X27200Y42188D02*
Y42268D01*
X28160Y42228D02*
X28240D01*
X28200Y42188D02*
Y42268D01*
X27160Y39630D02*
X27240D01*
X27200Y39590D02*
Y39670D01*
X28160Y39630D02*
X28240D01*
X28200Y39590D02*
Y39670D01*
X41760Y37032D02*
X41840D01*
X41800Y36992D02*
Y37071D01*
X42760Y37032D02*
X42840D01*
X42800Y36992D02*
Y37071D01*
X43760Y37032D02*
X43840D01*
X43800Y36992D02*
Y37071D01*
X44260Y36795D02*
X44340D01*
X44300Y36755D02*
Y36835D01*
X43860Y36559D02*
X43940D01*
X43900Y36519D02*
Y36599D01*
X44260Y36323D02*
X44340D01*
X44300Y36283D02*
Y36363D01*
X43860Y36087D02*
X43940D01*
X43900Y36047D02*
Y36127D01*
X44260Y35850D02*
X44340D01*
X44300Y35810D02*
Y35890D01*
X43860Y35614D02*
X43940D01*
X43900Y35574D02*
Y35654D01*
X44260Y35378D02*
X44340D01*
X44300Y35338D02*
Y35418D01*
X43860Y35142D02*
X43940D01*
X43900Y35102D02*
Y35182D01*
X44260Y34906D02*
X44340D01*
X44300Y34866D02*
Y34946D01*
X42760Y34433D02*
X42840D01*
X42800Y34393D02*
Y34473D01*
X41760Y34433D02*
X41840D01*
X41800Y34393D02*
Y34473D01*
X28160Y34433D02*
X28240D01*
X28200Y34393D02*
Y34473D01*
X27160Y34433D02*
X27240D01*
X27200Y34393D02*
Y34473D01*
X26160Y34433D02*
X26240D01*
X26200Y34393D02*
Y34473D01*
X26060Y34669D02*
X26140D01*
X26100Y34629D02*
Y34709D01*
X25660Y34906D02*
X25740D01*
X25700Y34866D02*
Y34946D01*
X26060Y35142D02*
X26140D01*
X26100Y35102D02*
Y35182D01*
X25660Y35378D02*
X25740D01*
X25700Y35338D02*
Y35418D01*
X26060Y35614D02*
X26140D01*
X26100Y35574D02*
Y35654D01*
X25660Y35850D02*
X25740D01*
X25700Y35810D02*
Y35890D01*
X26060Y36087D02*
X26140D01*
X26100Y36047D02*
Y36127D01*
X25660Y36323D02*
X25740D01*
X25700Y36283D02*
Y36363D01*
X26060Y36559D02*
X26140D01*
X26100Y36519D02*
Y36599D01*
X25660Y36795D02*
X25740D01*
X25700Y36755D02*
Y36835D01*
X25660Y37268D02*
X25740D01*
X25700Y37228D02*
Y37308D01*
X26060Y37504D02*
X26140D01*
X26100Y37464D02*
Y37544D01*
X25660Y37740D02*
X25740D01*
X25700Y37700D02*
Y37780D01*
X26060Y37976D02*
X26140D01*
X26100Y37936D02*
Y38016D01*
X25660Y38213D02*
X25740D01*
X25700Y38173D02*
Y38253D01*
X26060Y38449D02*
X26140D01*
X26100Y38409D02*
Y38489D01*
X44260Y37268D02*
X44340D01*
X44300Y37228D02*
Y37308D01*
X43860Y37504D02*
X43940D01*
X43900Y37464D02*
Y37544D01*
X44260Y37740D02*
X44340D01*
X44300Y37700D02*
Y37780D01*
X43860Y37976D02*
X43940D01*
X43900Y37936D02*
Y38016D01*
X44260Y38213D02*
X44340D01*
X44300Y38173D02*
Y38253D01*
X43860Y38449D02*
X43940D01*
X43900Y38409D02*
Y38489D01*
X28160Y37032D02*
X28240D01*
X28200Y36992D02*
Y37071D01*
X27160Y37032D02*
X27240D01*
X27200Y36992D02*
Y37071D01*
X26160Y37032D02*
X26240D01*
X26200Y36992D02*
Y37071D01*
X44260Y38685D02*
X44340D01*
X44300Y38645D02*
Y38725D01*
X43860Y38921D02*
X43940D01*
X43900Y38881D02*
Y38961D01*
X44260Y39157D02*
X44340D01*
X44300Y39117D02*
Y39197D01*
X43860Y39394D02*
X43940D01*
X43900Y39354D02*
Y39434D01*
X25660Y38685D02*
X25740D01*
X25700Y38645D02*
Y38725D01*
X26060Y38921D02*
X26140D01*
X26100Y38881D02*
Y38961D01*
X25660Y39157D02*
X25740D01*
X25700Y39117D02*
Y39197D01*
X26060Y39394D02*
X26140D01*
X26100Y39354D02*
Y39434D01*
X26160Y39630D02*
X26240D01*
X26200Y39590D02*
Y39670D01*
X43760Y18370D02*
X43840D01*
X43800Y18330D02*
Y18410D01*
X41760Y18606D02*
X41840D01*
X41800Y18566D02*
Y18646D01*
X41760Y19787D02*
X41840D01*
X41800Y19747D02*
Y19827D01*
X43760Y20260D02*
X43840D01*
X43800Y20220D02*
Y20300D01*
X42760Y20969D02*
X42840D01*
X42800Y20929D02*
Y21009D01*
X43760Y20969D02*
X43840D01*
X43800Y20929D02*
Y21009D01*
X41760Y20969D02*
X41840D01*
X41800Y20929D02*
Y21009D01*
X47060Y6800D02*
X47140D01*
X47100Y6760D02*
Y6840D01*
X46260Y6800D02*
X46340D01*
X46300Y6760D02*
Y6840D01*
X44660Y6800D02*
X44740D01*
X44700Y6760D02*
Y6840D01*
X40460Y17189D02*
X40540D01*
X40500Y17149D02*
Y17229D01*
X40760Y17700D02*
X40840D01*
X40800Y17660D02*
Y17740D01*
X43760Y15063D02*
X43840D01*
X43800Y15023D02*
Y15103D01*
X41760Y15063D02*
X41840D01*
X41800Y15023D02*
Y15103D01*
X42760Y15063D02*
X42840D01*
X42800Y15023D02*
Y15103D01*
X42760Y15772D02*
X42840D01*
X42800Y15732D02*
Y15812D01*
X43760Y15772D02*
X43840D01*
X43800Y15732D02*
Y15812D01*
X41760Y15772D02*
X41840D01*
X41800Y15732D02*
Y15812D01*
X43760Y17661D02*
X43840D01*
X43800Y17621D02*
Y17701D01*
X42760Y17661D02*
X42840D01*
X42800Y17621D02*
Y17701D01*
X41760Y17661D02*
X41840D01*
X41800Y17621D02*
Y17701D01*
X42760Y16953D02*
X42840D01*
X42800Y16913D02*
Y16993D01*
X41760Y16953D02*
X41840D01*
X41800Y16913D02*
Y16993D01*
X43760Y16953D02*
X43840D01*
X43800Y16913D02*
Y16993D01*
X41360Y3800D02*
X41440D01*
X41400Y3760D02*
Y3840D01*
X41360Y6900D02*
X41440D01*
X41400Y6860D02*
Y6940D01*
X28360Y19551D02*
X28440D01*
X28400Y19511D02*
Y19591D01*
X36341Y9400D02*
X36421D01*
X36381Y9360D02*
Y9440D01*
X35554Y9400D02*
X35634D01*
X35594Y9360D02*
Y9440D01*
X34766Y9400D02*
X34846D01*
X34806Y9360D02*
Y9440D01*
X33979Y9400D02*
X34059D01*
X34019Y9360D02*
Y9440D01*
X36160Y7000D02*
X36240D01*
X36200Y6960D02*
Y7040D01*
X35260Y6500D02*
X35340D01*
X35300Y6460D02*
Y6540D01*
X28660Y19787D02*
X28740D01*
X28700Y19747D02*
Y19827D01*
X28660Y19315D02*
X28740D01*
X28700Y19275D02*
Y19355D01*
X28360Y19079D02*
X28440D01*
X28400Y19039D02*
Y19119D01*
X28660Y18843D02*
X28740D01*
X28700Y18803D02*
Y18883D01*
X28360Y18606D02*
X28440D01*
X28400Y18566D02*
Y18646D01*
X29360Y17000D02*
X29440D01*
X29400Y16960D02*
Y17040D01*
X29360Y16700D02*
X29440D01*
X29400Y16660D02*
Y16740D01*
X29360Y15300D02*
X29440D01*
X29400Y15260D02*
Y15340D01*
X28860Y15000D02*
X28940D01*
X28900Y14960D02*
Y15040D01*
X28160Y27819D02*
X28240D01*
X28200Y27779D02*
Y27859D01*
X28160Y27110D02*
X28240D01*
X28200Y27070D02*
Y27150D01*
X28158Y26402D02*
X28238D01*
X28198Y26362D02*
Y26442D01*
X28160Y25693D02*
X28240D01*
X28200Y25653D02*
Y25733D01*
X28160Y24984D02*
X28240D01*
X28200Y24944D02*
Y25024D01*
X28160Y24276D02*
X28240D01*
X28200Y24236D02*
Y24316D01*
X28160Y23567D02*
X28240D01*
X28200Y23527D02*
Y23607D01*
X26160Y22858D02*
X26240D01*
X26200Y22818D02*
Y22898D01*
X28160Y22858D02*
X28240D01*
X28200Y22818D02*
Y22898D01*
X27160Y22858D02*
X27240D01*
X27200Y22818D02*
Y22898D01*
X26160Y20969D02*
X26240D01*
X26200Y20929D02*
Y21009D01*
X27160Y20969D02*
X27240D01*
X27200Y20929D02*
Y21009D01*
X28160Y20969D02*
X28240D01*
X28200Y20929D02*
Y21009D01*
X28160Y20260D02*
X28240D01*
X28200Y20220D02*
Y20300D01*
X26160Y19787D02*
X26240D01*
X26200Y19747D02*
Y19827D01*
X26160Y18606D02*
X26240D01*
X26200Y18566D02*
Y18646D01*
X28160Y18370D02*
X28240D01*
X28200Y18330D02*
Y18410D01*
X26160Y17661D02*
X26240D01*
X26200Y17621D02*
Y17701D01*
X28160Y17661D02*
X28240D01*
X28200Y17621D02*
Y17701D01*
X27160Y17661D02*
X27240D01*
X27200Y17621D02*
Y17701D01*
X26160Y16953D02*
X26240D01*
X26200Y16913D02*
Y16993D01*
X28160Y16953D02*
X28240D01*
X28200Y16913D02*
Y16993D01*
X27160Y16953D02*
X27240D01*
X27200Y16913D02*
Y16993D01*
X28160Y15063D02*
X28240D01*
X28200Y15023D02*
Y15103D01*
X26160Y15063D02*
X26240D01*
X26200Y15023D02*
Y15103D01*
X27160Y15063D02*
X27240D01*
X27200Y15023D02*
Y15103D01*
X28160Y15772D02*
X28240D01*
X28200Y15732D02*
Y15812D01*
X27160Y15772D02*
X27240D01*
X27200Y15732D02*
Y15812D01*
X26160Y15772D02*
X26240D01*
X26200Y15732D02*
Y15812D01*
X39660Y15535D02*
X39740D01*
X39700Y15495D02*
Y15575D01*
X40360Y15300D02*
X40440D01*
X40400Y15260D02*
Y15340D01*
X44260Y15535D02*
X44340D01*
X44300Y15495D02*
Y15575D01*
X43860Y15299D02*
X43940D01*
X43900Y15259D02*
Y15339D01*
X25660Y15299D02*
X25740D01*
X25700Y15259D02*
Y15339D01*
X33560Y11900D02*
X33640D01*
X33600Y11860D02*
Y11940D01*
X35560Y11900D02*
X35640D01*
X35600Y11860D02*
Y11940D01*
X34760Y11600D02*
X34840D01*
X34800Y11560D02*
Y11640D01*
X26060Y15535D02*
X26140D01*
X26100Y15495D02*
Y15575D01*
X35560Y11000D02*
X35640D01*
X35600Y10960D02*
Y11040D01*
X39160Y18400D02*
X39240D01*
X39200Y18360D02*
Y18440D01*
X37660Y18100D02*
X37740D01*
X37700Y18060D02*
Y18140D01*
X43860Y17898D02*
X43940D01*
X43900Y17858D02*
Y17938D01*
X44260Y18134D02*
X44340D01*
X44300Y18094D02*
Y18174D01*
X28960Y17900D02*
X29040D01*
X29000Y17860D02*
Y17940D01*
X28960Y18400D02*
X29040D01*
X29000Y18360D02*
Y18440D01*
X25660Y18134D02*
X25740D01*
X25700Y18094D02*
Y18174D01*
X26060Y17898D02*
X26140D01*
X26100Y17858D02*
Y17938D01*
X26060Y17189D02*
X26140D01*
X26100Y17149D02*
Y17229D01*
X25660Y17425D02*
X25740D01*
X25700Y17385D02*
Y17465D01*
X43860Y17189D02*
X43940D01*
X43900Y17149D02*
Y17229D01*
X44260Y17425D02*
X44340D01*
X44300Y17385D02*
Y17465D01*
X41060Y16900D02*
X41140D01*
X41100Y16860D02*
Y16940D01*
X41060Y17425D02*
X41140D01*
X41100Y17385D02*
Y17465D01*
X30260Y46100D02*
X30340D01*
X30300Y46060D02*
Y46140D01*
X30260Y45500D02*
X30340D01*
X30300Y45460D02*
Y45540D01*
X31960Y45600D02*
X32040D01*
X32000Y45560D02*
Y45640D01*
X31960Y46100D02*
X32040D01*
X32000Y46060D02*
Y46140D01*
X32660Y46100D02*
X32740D01*
X32700Y46060D02*
Y46140D01*
X34660Y46000D02*
X34740D01*
X34700Y45960D02*
Y46040D01*
X35010Y45650D02*
X35090D01*
X35050Y45610D02*
Y45690D01*
X35010Y46000D02*
X35090D01*
X35050Y45960D02*
Y46040D01*
X30560Y46700D02*
X30640D01*
X30600Y46660D02*
Y46740D01*
X31060Y46700D02*
X31140D01*
X31100Y46660D02*
Y46740D01*
X31560Y46700D02*
X31640D01*
X31600Y46660D02*
Y46740D01*
X26160Y30417D02*
X26240D01*
X26200Y30377D02*
Y30457D01*
X26160Y31126D02*
X26240D01*
X26200Y31086D02*
Y31166D01*
X26160Y31835D02*
X26240D01*
X26200Y31795D02*
Y31875D01*
X26060Y33961D02*
X26140D01*
X26100Y33921D02*
Y34001D01*
X25660Y33724D02*
X25740D01*
X25700Y33684D02*
Y33764D01*
X26060Y33488D02*
X26140D01*
X26100Y33448D02*
Y33528D01*
X25660Y33252D02*
X25740D01*
X25700Y33212D02*
Y33292D01*
X26060Y33016D02*
X26140D01*
X26100Y32976D02*
Y33056D01*
X25660Y32780D02*
X25740D01*
X25700Y32740D02*
Y32820D01*
X26060Y32543D02*
X26140D01*
X26100Y32503D02*
Y32583D01*
X25660Y32307D02*
X25740D01*
X25700Y32267D02*
Y32347D01*
X26060Y32071D02*
X26140D01*
X26100Y32031D02*
Y32111D01*
X32660Y34197D02*
X32740D01*
X32700Y34157D02*
Y34237D01*
X33160Y33961D02*
X33240D01*
X33200Y33921D02*
Y34001D01*
X32660Y33724D02*
X32740D01*
X32700Y33684D02*
Y33764D01*
X32660Y33252D02*
X32740D01*
X32700Y33212D02*
Y33292D01*
X32660Y32780D02*
X32740D01*
X32700Y32740D02*
Y32820D01*
X33160Y32543D02*
X33240D01*
X33200Y32503D02*
Y32583D01*
X33160Y33016D02*
X33240D01*
X33200Y32976D02*
Y33056D01*
X33160Y33488D02*
X33240D01*
X33200Y33448D02*
Y33528D01*
X32660Y32307D02*
X32740D01*
X32700Y32267D02*
Y32347D01*
X33160Y32071D02*
X33240D01*
X33200Y32031D02*
Y32111D01*
X25660Y30181D02*
X25740D01*
X25700Y30141D02*
Y30221D01*
X26060Y29945D02*
X26140D01*
X26100Y29905D02*
Y29985D01*
X32660Y31800D02*
X32740D01*
X32700Y31760D02*
Y31840D01*
X28260Y30417D02*
X28340D01*
X28300Y30377D02*
Y30457D01*
X28660Y30654D02*
X28740D01*
X28700Y30614D02*
Y30694D01*
X43860Y30417D02*
X43940D01*
X43900Y30377D02*
Y30457D01*
X44160Y30654D02*
X44240D01*
X44200Y30614D02*
Y30694D01*
X14560Y49905D02*
X14640D01*
X14600Y49865D02*
Y49945D01*
X17060Y49905D02*
X17140D01*
X17100Y49865D02*
Y49945D01*
X14560Y37700D02*
X14640D01*
X14600Y37660D02*
Y37740D01*
X14560Y38487D02*
X14640D01*
X14600Y38447D02*
Y38527D01*
X17060Y38881D02*
X17140D01*
X17100Y38841D02*
Y38921D01*
X17060Y39275D02*
X17140D01*
X17100Y39235D02*
Y39315D01*
X14560Y39669D02*
X14640D01*
X14600Y39629D02*
Y39709D01*
X14560Y40850D02*
X14640D01*
X14600Y40810D02*
Y40890D01*
X17060Y40850D02*
X17140D01*
X17100Y40810D02*
Y40890D01*
X17060Y42031D02*
X17140D01*
X17100Y41991D02*
Y42071D01*
X14560Y42424D02*
X14640D01*
X14600Y42384D02*
Y42464D01*
X17060Y42818D02*
X17140D01*
X17100Y42778D02*
Y42858D01*
X17060Y43999D02*
X17140D01*
X17100Y43959D02*
Y44039D01*
X14560Y44000D02*
X14640D01*
X14600Y43960D02*
Y44040D01*
X14560Y45180D02*
X14640D01*
X14600Y45140D02*
Y45220D01*
X17060Y45180D02*
X17140D01*
X17100Y45140D02*
Y45220D01*
X14560Y47149D02*
X14640D01*
X14600Y47109D02*
Y47189D01*
X17060Y47149D02*
X17140D01*
X17100Y47109D02*
Y47189D01*
X14560Y47936D02*
X14640D01*
X14600Y47896D02*
Y47976D01*
X19160Y47600D02*
X19240D01*
X19200Y47560D02*
Y47640D01*
X14560Y41243D02*
X14640D01*
X14600Y41203D02*
Y41283D01*
X14560Y40456D02*
X14640D01*
X14600Y40416D02*
Y40496D01*
X12760Y40100D02*
X12840D01*
X12800Y40060D02*
Y40140D01*
X29760Y29100D02*
X29840D01*
X29800Y29060D02*
Y29140D01*
X29960Y28800D02*
X30040D01*
X30000Y28760D02*
Y28840D01*
X30160Y29100D02*
X30240D01*
X30200Y29060D02*
Y29140D01*
X30360Y28800D02*
X30440D01*
X30400Y28760D02*
Y28840D01*
X30560Y29100D02*
X30640D01*
X30600Y29060D02*
Y29140D01*
X30760Y28800D02*
X30840D01*
X30800Y28760D02*
Y28840D01*
X14560Y31200D02*
X14640D01*
X14600Y31160D02*
Y31240D01*
X17060Y31200D02*
X17140D01*
X17100Y31160D02*
Y31240D01*
X14560Y29232D02*
X14640D01*
X14600Y29192D02*
Y29272D01*
X14560Y28444D02*
X14640D01*
X14600Y28404D02*
Y28484D01*
X17060Y28444D02*
X17140D01*
X17100Y28404D02*
Y28484D01*
X14560Y26476D02*
X14640D01*
X14600Y26436D02*
Y26516D01*
X17060Y26476D02*
X17140D01*
X17100Y26436D02*
Y26516D01*
X14560Y25294D02*
X14640D01*
X14600Y25254D02*
Y25334D01*
X17060Y25294D02*
X17140D01*
X17100Y25254D02*
Y25334D01*
X17060Y24113D02*
X17140D01*
X17100Y24073D02*
Y24153D01*
X14560Y23720D02*
X14640D01*
X14600Y23680D02*
Y23760D01*
X17060Y23326D02*
X17140D01*
X17100Y23286D02*
Y23366D01*
X14560Y22145D02*
X14640D01*
X14600Y22105D02*
Y22185D01*
X14560Y22539D02*
X14640D01*
X14600Y22499D02*
Y22579D01*
X14560Y20964D02*
X14640D01*
X14600Y20924D02*
Y21004D01*
X14560Y21751D02*
X14640D01*
X14600Y21711D02*
Y21791D01*
X14560Y21357D02*
X14640D01*
X14600Y21317D02*
Y21397D01*
X17760Y37000D02*
X17840D01*
X17800Y36960D02*
Y37040D01*
X17760Y28700D02*
X17840D01*
X17800Y28660D02*
Y28740D01*
X17060Y41243D02*
X17140D01*
X17100Y41203D02*
Y41283D01*
X1660Y48000D02*
X1740D01*
X1700Y47960D02*
Y48040D01*
X1660Y43500D02*
X1740D01*
X1700Y43460D02*
Y43540D01*
X1660Y38000D02*
X1740D01*
X1700Y37960D02*
Y38040D01*
X1660Y29000D02*
X1740D01*
X1700Y28960D02*
Y29040D01*
X1660Y19500D02*
X1740D01*
X1700Y19460D02*
Y19540D01*
X17060Y22539D02*
X17140D01*
X17100Y22499D02*
Y22579D01*
X12760Y21300D02*
X12840D01*
X12800Y21260D02*
Y21340D01*
X12760Y19000D02*
X12840D01*
X12800Y18960D02*
Y19040D01*
X25660Y34197D02*
X25740D01*
X25700Y34157D02*
Y34237D01*
X8560Y8300D02*
X8640D01*
X8600Y8260D02*
Y8340D01*
X9060Y8700D02*
X9140D01*
X9100Y8660D02*
Y8740D01*
X9060Y9500D02*
X9140D01*
X9100Y9460D02*
Y9540D01*
X12260Y20200D02*
X12340D01*
X12300Y20160D02*
Y20240D01*
X15810Y22145D02*
X15890D01*
X15850Y22105D02*
Y22185D01*
X9360Y9700D02*
X9440D01*
X9400Y9660D02*
Y9740D01*
X26060Y19551D02*
X26140D01*
X26100Y19511D02*
Y19591D01*
X25660Y19315D02*
X25740D01*
X25700Y19275D02*
Y19355D01*
X26060Y19079D02*
X26140D01*
X26100Y19039D02*
Y19119D01*
X25660Y18843D02*
X25740D01*
X25700Y18803D02*
Y18883D01*
X27460Y2300D02*
X27540D01*
X27500Y2260D02*
Y2340D01*
X30060Y2000D02*
X30140D01*
X30100Y1960D02*
Y2040D01*
X24460Y2300D02*
X24540D01*
X24500Y2260D02*
Y2340D01*
X21860Y2000D02*
X21940D01*
X21900Y1960D02*
Y2040D01*
X18460Y2300D02*
X18540D01*
X18500Y2260D02*
Y2340D01*
X15860Y2000D02*
X15940D01*
X15900Y1960D02*
Y2040D01*
X12460Y2300D02*
X12540D01*
X12500Y2260D02*
Y2340D01*
X9860Y2000D02*
X9940D01*
X9900Y1960D02*
Y2040D01*
X21720Y24500D02*
X21880D01*
X21800Y24420D02*
Y24580D01*
X22220Y24500D02*
X22380D01*
X22300Y24420D02*
Y24580D01*
X21720Y24000D02*
X21880D01*
X21800Y23920D02*
Y24080D01*
X22220Y24000D02*
X22380D01*
X22300Y23920D02*
Y24080D01*
X22220Y23500D02*
X22380D01*
X22300Y23420D02*
Y23580D01*
X21720Y23500D02*
X21880D01*
X21800Y23420D02*
Y23580D01*
X21720Y23000D02*
X21880D01*
X21800Y22920D02*
Y23080D01*
X22220Y23000D02*
X22380D01*
X22300Y22920D02*
Y23080D01*
X21720Y22500D02*
X21880D01*
X21800Y22420D02*
Y22580D01*
X22220Y22500D02*
X22380D01*
X22300Y22420D02*
Y22580D01*
X24720Y26400D02*
X24880D01*
X24800Y26320D02*
Y26480D01*
X25220Y26400D02*
X25380D01*
X25300Y26320D02*
Y26480D01*
X25720Y26400D02*
X25880D01*
X25800Y26320D02*
Y26480D01*
X22520Y26400D02*
X22680D01*
X22600Y26320D02*
Y26480D01*
X22920Y25500D02*
X23080D01*
X23000Y25420D02*
Y25580D01*
X23420Y25500D02*
X23580D01*
X23500Y25420D02*
Y25580D01*
X23920Y25500D02*
X24080D01*
X24000Y25420D02*
Y25580D01*
X25720Y27900D02*
X25880D01*
X25800Y27820D02*
Y27980D01*
X25220Y27900D02*
X25380D01*
X25300Y27820D02*
Y27980D01*
X24720Y27900D02*
X24880D01*
X24800Y27820D02*
Y27980D01*
X23920Y27900D02*
X24080D01*
X24000Y27820D02*
Y27980D01*
X23420Y27900D02*
X23580D01*
X23500Y27820D02*
Y27980D01*
X24720Y28800D02*
X24880D01*
X24800Y28720D02*
Y28880D01*
X24720Y29300D02*
X24880D01*
X24800Y29220D02*
Y29380D01*
X31960Y28291D02*
X32040D01*
X32000Y28251D02*
Y28331D01*
X32460Y28055D02*
X32540D01*
X32500Y28015D02*
Y28095D01*
X31960Y27583D02*
X32040D01*
X32000Y27543D02*
Y27623D01*
X32460Y27346D02*
X32540D01*
X32500Y27306D02*
Y27386D01*
X31960Y26874D02*
X32040D01*
X32000Y26834D02*
Y26914D01*
X32460Y26638D02*
X32540D01*
X32500Y26598D02*
Y26678D01*
X31960Y26165D02*
X32040D01*
X32000Y26125D02*
Y26205D01*
X32460Y25929D02*
X32540D01*
X32500Y25889D02*
Y25969D01*
X39920Y28700D02*
X40080D01*
X40000Y28620D02*
Y28780D01*
X38920Y28700D02*
X39080D01*
X39000Y28620D02*
Y28780D01*
X37920Y28700D02*
X38080D01*
X38000Y28620D02*
Y28780D01*
X37920Y29200D02*
X38080D01*
X38000Y29120D02*
Y29280D01*
X38920Y29200D02*
X39080D01*
X39000Y29120D02*
Y29280D01*
X39920Y29200D02*
X40080D01*
X40000Y29120D02*
Y29280D01*
X37920Y31100D02*
X38080D01*
X38000Y31020D02*
Y31180D01*
X36920Y31100D02*
X37080D01*
X37000Y31020D02*
Y31180D01*
X35920Y31100D02*
X36080D01*
X36000Y31020D02*
Y31180D01*
X34920Y31100D02*
X35080D01*
X35000Y31020D02*
Y31180D01*
X33920Y31100D02*
X34080D01*
X34000Y31020D02*
Y31180D01*
X32920Y31100D02*
X33080D01*
X33000Y31020D02*
Y31180D01*
X31920Y31100D02*
X32080D01*
X32000Y31020D02*
Y31180D01*
X36920Y29200D02*
X37080D01*
X37000Y29120D02*
Y29280D01*
X36920Y28700D02*
X37080D01*
X37000Y28620D02*
Y28780D01*
X41760Y24984D02*
X41840D01*
X41800Y24944D02*
Y25024D01*
X41760Y23567D02*
X41840D01*
X41800Y23527D02*
Y23607D01*
X41760Y24276D02*
X41840D01*
X41800Y24236D02*
Y24316D01*
X28160Y31600D02*
X28240D01*
X28200Y31560D02*
Y31640D01*
X28160Y30890D02*
X28240D01*
X28200Y30850D02*
Y30930D01*
X26160Y29709D02*
X26240D01*
X26200Y29669D02*
Y29749D01*
X42320Y29400D02*
X42480D01*
X42400Y29320D02*
Y29480D01*
X26720Y29400D02*
X26880D01*
X26800Y29320D02*
Y29480D01*
X47420Y38500D02*
X47580D01*
X47500Y38420D02*
Y38580D01*
X49420Y38500D02*
X49580D01*
X49500Y38420D02*
Y38580D01*
X48420Y38500D02*
X48580D01*
X48500Y38420D02*
Y38580D01*
X48920Y42000D02*
X49080D01*
X49000Y41920D02*
Y42080D01*
X48420Y39500D02*
X48580D01*
X48500Y39420D02*
Y39580D01*
X47420Y39500D02*
X47580D01*
X47500Y39420D02*
Y39580D01*
X47420Y40500D02*
X47580D01*
X47500Y40420D02*
Y40580D01*
X48920Y41000D02*
X49080D01*
X49000Y40920D02*
Y41080D01*
X48920Y43000D02*
X49080D01*
X49000Y42920D02*
Y43080D01*
X48920Y44000D02*
X49080D01*
X49000Y43920D02*
Y44080D01*
X49920Y43500D02*
X50080D01*
X50000Y43420D02*
Y43580D01*
X51420Y43500D02*
X51580D01*
X51500Y43420D02*
Y43580D01*
X51420Y42000D02*
X51580D01*
X51500Y41920D02*
Y42080D01*
X49920Y42000D02*
X50080D01*
X50000Y41920D02*
Y42080D01*
X49920Y44500D02*
X50080D01*
X50000Y44420D02*
Y44580D01*
X51420Y44500D02*
X51580D01*
X51500Y44420D02*
Y44580D01*
X46020Y37000D02*
X46180D01*
X46100Y36920D02*
Y37080D01*
X47220Y37000D02*
X47380D01*
X47300Y36920D02*
Y37080D01*
X44920Y37000D02*
X45080D01*
X45000Y36920D02*
Y37080D01*
X48120Y36100D02*
X48280D01*
X48200Y36020D02*
Y36180D01*
X51860Y27212D02*
X51940D01*
X51900Y27172D02*
Y27252D01*
X50260Y27700D02*
X50340D01*
X50300Y27660D02*
Y27740D01*
X50160Y27100D02*
X50240D01*
X50200Y27060D02*
Y27140D01*
X50160Y26100D02*
X50240D01*
X50200Y26060D02*
Y26140D01*
X48460Y28400D02*
X48540D01*
X48500Y28360D02*
Y28440D01*
X45260Y30900D02*
X45340D01*
X45300Y30860D02*
Y30940D01*
X49260Y27500D02*
X49340D01*
X49300Y27460D02*
Y27540D01*
X47920Y27200D02*
X48080D01*
X48000Y27120D02*
Y27280D01*
X47920Y24900D02*
X48080D01*
X48000Y24820D02*
Y24980D01*
X49020Y25400D02*
X49180D01*
X49100Y25320D02*
Y25480D01*
X48420Y25400D02*
X48580D01*
X48500Y25320D02*
Y25480D01*
X43860Y33252D02*
X43940D01*
X43900Y33212D02*
Y33292D01*
X44260Y33488D02*
X44340D01*
X44300Y33448D02*
Y33528D01*
X14560Y19783D02*
X14640D01*
X14600Y19743D02*
Y19823D01*
X11120Y18500D02*
X11280D01*
X11200Y18420D02*
Y18580D01*
X11120Y37000D02*
X11280D01*
X11200Y36920D02*
Y37080D01*
X25420Y51200D02*
X25580D01*
X25500Y51120D02*
Y51280D01*
X31160Y28800D02*
X31240D01*
X31200Y28760D02*
Y28840D01*
X30960Y29100D02*
X31040D01*
X31000Y29060D02*
Y29140D01*
X7260Y9100D02*
X7340D01*
X7300Y9060D02*
Y9140D01*
X37720Y4300D02*
X37880D01*
X37800Y4220D02*
Y4380D01*
X38420Y4300D02*
X38580D01*
X38500Y4220D02*
Y4380D01*
X39120Y4300D02*
X39280D01*
X39200Y4220D02*
Y4380D01*
X43220Y5900D02*
X43380D01*
X43300Y5820D02*
Y5980D01*
X43220Y5200D02*
X43380D01*
X43300Y5120D02*
Y5280D01*
X44920Y2500D02*
X45080D01*
X45000Y2420D02*
Y2580D01*
X46620Y2500D02*
X46780D01*
X46700Y2420D02*
Y2580D01*
X48120Y2500D02*
X48280D01*
X48200Y2420D02*
Y2580D01*
X17160Y20176D02*
X17240D01*
X17200Y20136D02*
Y20216D01*
X13920Y24500D02*
X14080D01*
X14000Y24420D02*
Y24580D01*
X13920Y26000D02*
X14080D01*
X14000Y25920D02*
Y26080D01*
X13920Y27500D02*
X14080D01*
X14000Y27420D02*
Y27580D01*
X13920Y29000D02*
X14080D01*
X14000Y28920D02*
Y29080D01*
X13920Y30000D02*
X14080D01*
X14000Y29920D02*
Y30080D01*
X13920Y31000D02*
X14080D01*
X14000Y30920D02*
Y31080D01*
X13920Y32000D02*
X14080D01*
X14000Y31920D02*
Y32080D01*
X13920Y43000D02*
X14080D01*
X14000Y42920D02*
Y43080D01*
X13920Y44000D02*
X14080D01*
X14000Y43920D02*
Y44080D01*
X13920Y45000D02*
X14080D01*
X14000Y44920D02*
Y45080D01*
X13920Y46000D02*
X14080D01*
X14000Y45920D02*
Y46080D01*
X13920Y47000D02*
X14080D01*
X14000Y46920D02*
Y47080D01*
X13920Y48000D02*
X14080D01*
X14000Y47920D02*
Y48080D01*
X13920Y49000D02*
X14080D01*
X14000Y48920D02*
Y49080D01*
X13920Y50000D02*
X14080D01*
X14000Y49920D02*
Y50080D01*
X35620Y2500D02*
X35780D01*
X35700Y2420D02*
Y2580D01*
X35620Y4300D02*
X35780D01*
X35700Y4220D02*
Y4380D01*
X16420Y15000D02*
X16580D01*
X16500Y14920D02*
Y15080D01*
X16420Y13500D02*
X16580D01*
X16500Y13420D02*
Y13580D01*
X16420Y12000D02*
X16580D01*
X16500Y11920D02*
Y12080D01*
X16420Y10500D02*
X16580D01*
X16500Y10420D02*
Y10580D01*
X16420Y9000D02*
X16580D01*
X16500Y8920D02*
Y9080D01*
X14920Y12000D02*
X15080D01*
X15000Y11920D02*
Y12080D01*
X14920Y10500D02*
X15080D01*
X15000Y10420D02*
Y10580D01*
X14920Y9000D02*
X15080D01*
X15000Y8920D02*
Y9080D01*
X32420Y19500D02*
X32580D01*
X32500Y19420D02*
Y19580D01*
X33420Y19500D02*
X33580D01*
X33500Y19420D02*
Y19580D01*
X39920Y19500D02*
X40080D01*
X40000Y19420D02*
Y19580D01*
X39920Y16500D02*
X40080D01*
X40000Y16420D02*
Y16580D01*
X29420Y41500D02*
X29580D01*
X29500Y41420D02*
Y41580D01*
X29420Y40500D02*
X29580D01*
X29500Y40420D02*
Y40580D01*
X30920Y41500D02*
X31080D01*
X31000Y41420D02*
Y41580D01*
X30920Y40500D02*
X31080D01*
X31000Y40420D02*
Y40580D01*
X32420Y41500D02*
X32580D01*
X32500Y41420D02*
Y41580D01*
X32420Y40500D02*
X32580D01*
X32500Y40420D02*
Y40580D01*
X36920Y41500D02*
X37080D01*
X37000Y41420D02*
Y41580D01*
X36920Y40500D02*
X37080D01*
X37000Y40420D02*
Y40580D01*
X32420Y16000D02*
X32580D01*
X32500Y15920D02*
Y16080D01*
X32420Y15000D02*
X32580D01*
X32500Y14920D02*
Y15080D01*
X32320Y11500D02*
X32480D01*
X32400Y11420D02*
Y11580D01*
X32320Y10700D02*
X32480D01*
X32400Y10620D02*
Y10780D01*
X17560Y20570D02*
X17640D01*
X17600Y20530D02*
Y20610D01*
X48160Y23900D02*
X48240D01*
X48200Y23860D02*
Y23940D01*
X31469Y53500D02*
X32531D01*
X32000Y52969D02*
Y54032D01*
X37469Y53500D02*
X38531D01*
X38000Y52969D02*
Y54032D01*
X47660Y24400D02*
X47740D01*
X47700Y24360D02*
Y24440D01*
X50060Y25500D02*
X50140D01*
X50100Y25460D02*
Y25540D01*
X12760Y37600D02*
X12840D01*
X12800Y37560D02*
Y37640D01*
X1660Y24400D02*
X1740D01*
X1700Y24360D02*
Y24440D01*
X34060Y45974D02*
X34140D01*
X34100Y45934D02*
Y46014D01*
X24960Y6700D02*
X25040D01*
X25000Y6660D02*
Y6740D01*
X46860Y7725D02*
X46940D01*
X46900Y7685D02*
Y7765D01*
X6560Y14000D02*
X6640D01*
X6600Y13960D02*
Y14040D01*
X6560Y13000D02*
X6640D01*
X6600Y12960D02*
Y13040D01*
X48360Y27100D02*
X48440D01*
X48400Y27060D02*
Y27140D01*
X48360Y26100D02*
X48440D01*
X48400Y26060D02*
Y26140D01*
X2420Y11800D02*
X2580D01*
X2500Y11720D02*
Y11880D01*
X2820Y11200D02*
X2980D01*
X2900Y11120D02*
Y11280D01*
X2020Y11200D02*
X2180D01*
X2100Y11120D02*
Y11280D01*
X5420Y11800D02*
X5580D01*
X5500Y11720D02*
Y11880D01*
X5420Y11000D02*
X5580D01*
X5500Y10920D02*
Y11080D01*
X6420Y11500D02*
X6580D01*
X6500Y11420D02*
Y11580D01*
X49060Y26797D02*
X49140D01*
X49100Y26757D02*
Y26837D01*
X49414Y26797D02*
X49494D01*
X49454Y26757D02*
Y26837D01*
X49414Y26403D02*
X49494D01*
X49454Y26363D02*
Y26443D01*
X49060Y26403D02*
X49140D01*
X49100Y26363D02*
Y26443D01*
X48706Y26797D02*
X48786D01*
X48746Y26757D02*
Y26837D01*
X48706Y26403D02*
X48786D01*
X48746Y26363D02*
Y26443D01*
X3113Y17420D02*
X4176D01*
X3645Y16889D02*
Y17952D01*
X3113Y32775D02*
X4176D01*
X3645Y32243D02*
Y33306D01*
X3113Y51480D02*
X4176D01*
X3645Y50948D02*
Y52011D01*
X3113Y36125D02*
X4176D01*
X3645Y35594D02*
Y36657D01*
X6214Y13697D02*
X6294D01*
X6254Y13657D02*
Y13737D01*
X6214Y13303D02*
X6294D01*
X6254Y13263D02*
Y13343D01*
X5860Y13697D02*
X5940D01*
X5900Y13657D02*
Y13737D01*
X5506Y13697D02*
X5586D01*
X5546Y13657D02*
Y13737D01*
X5506Y13303D02*
X5586D01*
X5546Y13263D02*
Y13343D01*
X5860Y13303D02*
X5940D01*
X5900Y13263D02*
Y13343D01*
%TF.MD5,7be4008a5adfbfcd885c41bbbd64721f*%
M02*
