G04 Layer_Color=16711935*
%FSLAX24Y24*%
%MOIN*%
%TF.FileFunction,Soldermask,Bot*%
%TF.Part,Single*%
G01*
G75*
%TA.AperFunction,NonConductor*%
%ADD45C,0.0100*%
%TA.AperFunction,ViaPad*%
%ADD110C,0.1840*%
%TA.AperFunction,ComponentPad*%
%ADD111C,0.0631*%
%ADD112R,0.0631X0.0631*%
%ADD113C,0.0490*%
%ADD114C,0.0760*%
%ADD115C,0.0040*%
%ADD116R,0.0040X0.0040*%
%ADD117C,0.0434*%
%ADD118R,0.0631X0.0631*%
G04:AMPARAMS|DCode=119|XSize=67mil|YSize=78.8mil|CornerRadius=24mil|HoleSize=0mil|Usage=FLASHONLY|Rotation=270.000|XOffset=0mil|YOffset=0mil|HoleType=Round|Shape=RoundedRectangle|*
%AMROUNDEDRECTD119*
21,1,0.0670,0.0307,0,0,270.0*
21,1,0.0189,0.0788,0,0,270.0*
1,1,0.0481,-0.0154,-0.0094*
1,1,0.0481,-0.0154,0.0094*
1,1,0.0481,0.0154,0.0094*
1,1,0.0481,0.0154,-0.0094*
%
%ADD119ROUNDEDRECTD119*%
%ADD120C,0.0611*%
%ADD121C,0.1024*%
%ADD122C,0.0591*%
%TA.AperFunction,ViaPad*%
%ADD123C,0.2540*%
%ADD124C,0.0220*%
%ADD125C,0.1760*%
G36*
X33406Y55532D02*
X33410Y55530D01*
X33413Y55529D01*
X33416Y55526D01*
X33419Y55523D01*
X33421Y55519D01*
X33422Y55516D01*
X33422Y55512D01*
Y52902D01*
X33422Y52898D01*
X33421Y52894D01*
X33419Y52891D01*
X33416Y52888D01*
X32714Y52186D01*
X32711Y52183D01*
X32708Y52181D01*
X32704Y52180D01*
X32700Y52180D01*
X31300D01*
X31300Y52180D01*
X31296Y52180D01*
X31292Y52181D01*
X31291Y52182D01*
X31289Y52183D01*
X31287Y52185D01*
X31286Y52186D01*
X31286Y52186D01*
X30586Y52886D01*
X30583Y52889D01*
X30581Y52892D01*
X30580Y52896D01*
X30580Y52900D01*
Y55512D01*
X30580Y55516D01*
X30581Y55519D01*
X30583Y55523D01*
X30586Y55526D01*
X30589Y55529D01*
X30592Y55530D01*
X30596Y55532D01*
X30600Y55532D01*
X33402D01*
X33406Y55532D01*
D02*
G37*
G36*
X39406D02*
X39410Y55530D01*
X39413Y55529D01*
X39416Y55526D01*
X39419Y55523D01*
X39421Y55519D01*
X39422Y55516D01*
X39422Y55512D01*
Y52902D01*
X39422Y52898D01*
X39421Y52894D01*
X39419Y52891D01*
X39416Y52888D01*
X38714Y52186D01*
X38711Y52183D01*
X38708Y52181D01*
X38704Y52180D01*
X38700Y52180D01*
X37300D01*
X37300Y52180D01*
X37296Y52180D01*
X37292Y52181D01*
X37291Y52182D01*
X37289Y52183D01*
X37287Y52185D01*
X37286Y52186D01*
X37286Y52186D01*
X36586Y52886D01*
X36583Y52889D01*
X36581Y52892D01*
X36580Y52896D01*
X36580Y52900D01*
Y55512D01*
X36580Y55516D01*
X36581Y55519D01*
X36583Y55523D01*
X36586Y55526D01*
X36589Y55529D01*
X36592Y55530D01*
X36596Y55532D01*
X36600Y55532D01*
X39402D01*
X39406Y55532D01*
D02*
G37*
D45*
X0Y-10400D02*
Y-11000D01*
X300D01*
X400Y-10900D01*
Y-10800D01*
X300Y-10700D01*
X0D01*
X300D01*
X400Y-10600D01*
Y-10500D01*
X300Y-10400D01*
X0D01*
X700Y-11000D02*
X900D01*
X1000Y-10900D01*
Y-10700D01*
X900Y-10600D01*
X700D01*
X600Y-10700D01*
Y-10900D01*
X700Y-11000D01*
X1300Y-10500D02*
Y-10600D01*
X1200D01*
X1400D01*
X1300D01*
Y-10900D01*
X1400Y-11000D01*
X1799Y-10500D02*
Y-10600D01*
X1699D01*
X1899D01*
X1799D01*
Y-10900D01*
X1899Y-11000D01*
X2299D02*
X2499D01*
X2599Y-10900D01*
Y-10700D01*
X2499Y-10600D01*
X2299D01*
X2199Y-10700D01*
Y-10900D01*
X2299Y-11000D01*
X2799D02*
Y-10600D01*
X2899D01*
X2999Y-10700D01*
Y-11000D01*
Y-10700D01*
X3099Y-10600D01*
X3199Y-10700D01*
Y-11000D01*
X4399Y-10500D02*
X4299Y-10400D01*
X4099D01*
X3999Y-10500D01*
Y-10600D01*
X4099Y-10700D01*
X4299D01*
X4399Y-10800D01*
Y-10900D01*
X4299Y-11000D01*
X4099D01*
X3999Y-10900D01*
X4698Y-11000D02*
X4898D01*
X4998Y-10900D01*
Y-10700D01*
X4898Y-10600D01*
X4698D01*
X4599Y-10700D01*
Y-10900D01*
X4698Y-11000D01*
X5198D02*
X5398D01*
X5298D01*
Y-10400D01*
X5198D01*
X6098D02*
Y-11000D01*
X5798D01*
X5698Y-10900D01*
Y-10700D01*
X5798Y-10600D01*
X6098D01*
X6598Y-11000D02*
X6398D01*
X6298Y-10900D01*
Y-10700D01*
X6398Y-10600D01*
X6598D01*
X6698Y-10700D01*
Y-10800D01*
X6298D01*
X6898Y-10600D02*
Y-11000D01*
Y-10800D01*
X6998Y-10700D01*
X7098Y-10600D01*
X7198D01*
X8297Y-11000D02*
X8097Y-10800D01*
Y-10600D01*
X8297Y-10400D01*
X8597Y-11000D02*
Y-10400D01*
X8797Y-10600D01*
X8997Y-10400D01*
Y-11000D01*
X9297Y-10600D02*
X9497D01*
X9597Y-10700D01*
Y-11000D01*
X9297D01*
X9197Y-10900D01*
X9297Y-10800D01*
X9597D01*
X9797Y-11000D02*
X10097D01*
X10197Y-10900D01*
X10097Y-10800D01*
X9897D01*
X9797Y-10700D01*
X9897Y-10600D01*
X10197D01*
X10397Y-11000D02*
Y-10400D01*
Y-10800D02*
X10697Y-10600D01*
X10397Y-10800D02*
X10697Y-11000D01*
X10996D02*
X11196Y-10800D01*
Y-10600D01*
X10996Y-10400D01*
D110*
X38200Y19300D02*
D03*
X52100Y2000D02*
D03*
X2000D02*
D03*
Y53500D02*
D03*
X52100D02*
D03*
X35000Y41000D02*
D03*
D111*
X39200Y41100D02*
D03*
Y48100D02*
D03*
Y47100D02*
D03*
Y46100D02*
D03*
Y45100D02*
D03*
Y44100D02*
D03*
Y43100D02*
D03*
Y42100D02*
D03*
X20700Y51500D02*
D03*
Y50500D02*
D03*
Y49500D02*
D03*
Y48500D02*
D03*
Y46500D02*
D03*
Y47500D02*
D03*
X52000Y23500D02*
D03*
X51000Y22500D02*
D03*
X52000D02*
D03*
X51000Y21500D02*
D03*
X52000D02*
D03*
X51000Y20500D02*
D03*
X52000D02*
D03*
X51000Y19500D02*
D03*
X52000D02*
D03*
X51000Y18500D02*
D03*
X52000D02*
D03*
X51000Y17500D02*
D03*
X52000D02*
D03*
X51000Y16500D02*
D03*
X52000D02*
D03*
X51000Y15500D02*
D03*
X52000D02*
D03*
X51000Y14500D02*
D03*
X52000D02*
D03*
X51000Y13500D02*
D03*
X52000D02*
D03*
X51000Y12500D02*
D03*
X52000D02*
D03*
X51000Y11500D02*
D03*
X52000D02*
D03*
X51000Y10500D02*
D03*
X52000D02*
D03*
X51000Y9500D02*
D03*
X52000D02*
D03*
X51000Y8500D02*
D03*
X52000D02*
D03*
X51000Y7500D02*
D03*
X52000D02*
D03*
X51000Y6500D02*
D03*
X52000D02*
D03*
X51000Y5500D02*
D03*
X52000D02*
D03*
X51000Y4500D02*
D03*
X52000D02*
D03*
X35600Y16600D02*
D03*
X34600D02*
D03*
X35600Y17600D02*
D03*
X34600D02*
D03*
X35600Y18600D02*
D03*
X34600D02*
D03*
X35600Y19600D02*
D03*
X47000Y53500D02*
D03*
X46000D02*
D03*
X20700Y34500D02*
D03*
Y33500D02*
D03*
Y32500D02*
D03*
Y31500D02*
D03*
Y29500D02*
D03*
Y30500D02*
D03*
X46400Y41100D02*
D03*
Y48100D02*
D03*
Y47100D02*
D03*
Y46100D02*
D03*
Y45100D02*
D03*
Y44100D02*
D03*
Y43100D02*
D03*
Y42100D02*
D03*
X29000Y5200D02*
D03*
Y4200D02*
D03*
X28000Y5200D02*
D03*
Y4200D02*
D03*
X27000Y5200D02*
D03*
Y4200D02*
D03*
X26000Y5200D02*
D03*
Y4200D02*
D03*
X25000Y5200D02*
D03*
Y4200D02*
D03*
X24000Y5200D02*
D03*
Y4200D02*
D03*
X23000Y5200D02*
D03*
Y4200D02*
D03*
X22000Y5200D02*
D03*
Y4200D02*
D03*
X21000Y5200D02*
D03*
Y4200D02*
D03*
X20000Y5200D02*
D03*
Y4200D02*
D03*
X19000Y5200D02*
D03*
Y4200D02*
D03*
X18000Y5200D02*
D03*
Y4200D02*
D03*
X17000Y5200D02*
D03*
Y4200D02*
D03*
X16000Y5200D02*
D03*
Y4200D02*
D03*
X15000Y5200D02*
D03*
Y4200D02*
D03*
X14000Y5200D02*
D03*
Y4200D02*
D03*
X13000Y5200D02*
D03*
Y4200D02*
D03*
X12000Y5200D02*
D03*
Y4200D02*
D03*
X11000Y5200D02*
D03*
Y4200D02*
D03*
X10000Y5200D02*
D03*
X36600Y14900D02*
D03*
Y13900D02*
D03*
X35600Y14900D02*
D03*
Y13900D02*
D03*
X34600Y14900D02*
D03*
Y13900D02*
D03*
X33600Y14900D02*
D03*
D112*
X39200Y40100D02*
D03*
X20700Y45500D02*
D03*
X51000Y23500D02*
D03*
X34600Y19600D02*
D03*
X20700Y28500D02*
D03*
X46400Y40100D02*
D03*
D113*
X4700Y8900D02*
D03*
X5700Y8400D02*
D03*
X4700Y7900D02*
D03*
X5700Y7400D02*
D03*
X4700Y6900D02*
D03*
X5700Y6400D02*
D03*
X4700Y5900D02*
D03*
X5700Y5400D02*
D03*
X48600Y35000D02*
D03*
X49600Y34500D02*
D03*
X48600Y34000D02*
D03*
X49600Y33500D02*
D03*
X48600Y33000D02*
D03*
X49600Y32500D02*
D03*
X48600Y32000D02*
D03*
X49600Y31500D02*
D03*
D114*
X1000Y10200D02*
D03*
Y4100D02*
D03*
X53300Y36300D02*
D03*
Y30200D02*
D03*
D115*
X2200Y9400D02*
D03*
Y4900D02*
D03*
X52100Y35500D02*
D03*
Y31000D02*
D03*
X37169Y10239D02*
D03*
X33231D02*
D03*
X44294Y4700D02*
D03*
X48231D02*
D03*
D116*
X15850Y18326D02*
D03*
Y31869D02*
D03*
Y50574D02*
D03*
Y37031D02*
D03*
D117*
X42800Y45299D02*
D03*
Y14591D02*
D03*
Y29000D02*
D03*
X27200D02*
D03*
Y14591D02*
D03*
Y45299D02*
D03*
D118*
X45000Y53500D02*
D03*
X10000Y4200D02*
D03*
X33600Y13900D02*
D03*
D119*
X737Y12122D02*
D03*
Y14878D02*
D03*
X53563Y25322D02*
D03*
Y28078D02*
D03*
D120*
X1800Y14484D02*
D03*
Y12516D02*
D03*
X52500Y27684D02*
D03*
Y25716D02*
D03*
D121*
X50700Y50600D02*
D03*
Y49000D02*
D03*
Y47400D02*
D03*
Y45800D02*
D03*
Y44200D02*
D03*
Y42600D02*
D03*
D122*
X49950Y39000D02*
D03*
X50950D02*
D03*
X49950Y40000D02*
D03*
X50950D02*
D03*
X49950Y41000D02*
D03*
X50950D02*
D03*
D123*
X32000Y53500D02*
D03*
X38000D02*
D03*
D124*
X49100Y26797D02*
D03*
X49454D02*
D03*
Y26403D02*
D03*
X49100D02*
D03*
X48746Y26797D02*
D03*
Y26403D02*
D03*
X6254Y13697D02*
D03*
Y13303D02*
D03*
X5900Y13697D02*
D03*
X5546D02*
D03*
Y13303D02*
D03*
X5900D02*
D03*
D125*
X3645Y17420D02*
D03*
Y32775D02*
D03*
Y51480D02*
D03*
Y36125D02*
D03*
%TF.MD5,022f6d5424ccf676ee7d1d8b3ff263cf*%
M02*
