G04 Layer_Physical_Order=8*
G04 Layer_Color=16737945*
%FSLAX24Y24*%
%MOIN*%
%TF.FileFunction,Copper,L8,Inr,Signal*%
%TF.Part,Single*%
G01*
G75*
%TA.AperFunction,Conductor*%
%ADD42C,0.0060*%
%ADD48C,0.0200*%
%TA.AperFunction,NonConductor*%
%ADD55C,0.0100*%
%TA.AperFunction,ViaPad*%
%ADD59C,0.0160*%
%ADD60C,0.0180*%
%TA.AperFunction,TestPad*%
%ADD61C,0.0160*%
%TA.AperFunction,ViaPad*%
%ADD62C,0.0170*%
%TA.AperFunction,Conductor*%
%ADD68C,0.0045*%
%ADD69C,0.0040*%
%ADD70C,0.0064*%
D42*
X9843Y5827D02*
X10118Y6102D01*
X9409Y5827D02*
X9843D01*
X9370Y5787D02*
X9409Y5827D01*
X9370Y5669D02*
Y5787D01*
X9331Y5630D02*
X9370Y5669D01*
X9213Y5630D02*
X9331D01*
X9173Y5669D02*
X9213Y5630D01*
X9173Y5669D02*
Y5787D01*
X9134Y5827D02*
X9173Y5787D01*
X9016Y5827D02*
X9134D01*
X8976Y5787D02*
X9016Y5827D01*
X8976Y5669D02*
Y5787D01*
X8937Y5630D02*
X8976Y5669D01*
X8819Y5630D02*
X8937D01*
X8780Y5669D02*
X8819Y5630D01*
X8780Y5669D02*
Y5787D01*
X8622Y5945D02*
X8780Y5787D01*
X10945Y6142D02*
Y7205D01*
X10906Y6102D02*
X10945Y6142D01*
X10118Y6102D02*
X10906D01*
X5197Y5945D02*
X8622D01*
X8425Y8071D02*
X8465Y8110D01*
X8307Y8071D02*
X8425D01*
X8268Y8110D02*
X8307Y8071D01*
X7520Y7913D02*
X9488D01*
X8465Y8110D02*
Y8386D01*
X8268Y8110D02*
Y8386D01*
X9567Y7835D02*
X11260D01*
X9488Y7913D02*
X9567Y7835D01*
X7441D02*
X7520Y7913D01*
X7047Y7835D02*
X7441D01*
X8346Y7520D02*
X8819D01*
X8268Y7598D02*
X8346Y7520D01*
X7441Y7598D02*
X8268D01*
X7362Y7520D02*
X7441Y7598D01*
X6772Y7520D02*
X7362D01*
X9016Y9606D02*
X9055Y9646D01*
X8898Y9606D02*
X9016D01*
X8858Y9646D02*
X8898Y9606D01*
X9055Y9646D02*
Y9843D01*
X8858Y9646D02*
Y9843D01*
X9291Y9724D02*
X10000D01*
X9252Y9764D02*
X9291Y9724D01*
X9252Y9764D02*
Y9843D01*
X9213Y9882D02*
X9252Y9843D01*
X9094Y9882D02*
X9213D01*
X9055Y9843D02*
X9094Y9882D01*
X8819D02*
X8858Y9843D01*
X8701Y9882D02*
X8819D01*
X8661Y9843D02*
X8701Y9882D01*
X8661Y9764D02*
Y9843D01*
X8622Y9724D02*
X8661Y9764D01*
X6732Y9724D02*
X8622D01*
X8465Y10079D02*
X8504Y10039D01*
X8465Y10079D02*
Y10157D01*
X8425Y10197D02*
X8465Y10157D01*
X8307Y10197D02*
X8425D01*
X8268Y10157D02*
X8307Y10197D01*
X8504Y10039D02*
X10000D01*
X8268Y9921D02*
Y10157D01*
X8268Y9921D02*
X8268D01*
X8228Y9882D02*
X8268Y9921D01*
X8110Y9882D02*
X8228D01*
X8071Y9921D02*
X8110Y9882D01*
X8071Y9921D02*
Y10157D01*
X8031Y10197D02*
X8071Y10157D01*
X7913Y10197D02*
X8031D01*
X7874Y10157D02*
X7913Y10197D01*
X7874Y10079D02*
Y10157D01*
X7835Y10039D02*
X7874Y10079D01*
X6732Y10039D02*
X7835D01*
X8701Y8150D02*
X9685D01*
X8661Y8189D02*
X8701Y8150D01*
X8661Y8189D02*
Y8386D01*
X8622Y8425D02*
X8661Y8386D01*
X8504Y8425D02*
X8622D01*
X8465Y8386D02*
X8504Y8425D01*
X8268Y8386D02*
X8268D01*
X8228Y8425D02*
X8268Y8386D01*
X8110Y8425D02*
X8228D01*
X8071Y8386D02*
X8110Y8425D01*
X8071Y8268D02*
Y8386D01*
X8031Y8228D02*
X8071Y8268D01*
X8031Y8228D02*
Y8228D01*
X7795Y8228D02*
X8031D01*
X7559Y8465D02*
X7795Y8228D01*
X6457Y8465D02*
X7559D01*
X6339Y8583D02*
X6457Y8465D01*
X5906Y8583D02*
X6339D01*
X5630Y8307D02*
X5906Y8583D01*
X10276Y8780D02*
X10315Y8740D01*
X9291Y8780D02*
X10276D01*
X9291Y8780D02*
Y8780D01*
X9252Y8740D02*
X9291Y8780D01*
X9252Y8622D02*
Y8740D01*
X9252Y8622D02*
X9252D01*
X9213Y8583D02*
X9252Y8622D01*
X9094Y8583D02*
X9213D01*
X9055Y8622D02*
X9094Y8583D01*
X9055Y8622D02*
Y8740D01*
X9016Y8780D02*
X9055Y8740D01*
X8898Y8780D02*
X9016D01*
X8898Y8780D02*
Y8780D01*
X8858Y8740D02*
X8898Y8780D01*
X8858Y8622D02*
Y8740D01*
X8819Y8583D02*
X8858Y8622D01*
X8701Y8583D02*
X8819D01*
X8661Y8622D02*
X8701Y8583D01*
X8661Y8622D02*
Y8740D01*
X8622Y8780D02*
X8661Y8740D01*
X8504Y8780D02*
X8622D01*
X8465Y8740D02*
X8504Y8780D01*
X8465Y8622D02*
Y8740D01*
X8425Y8583D02*
X8465Y8622D01*
X8307Y8583D02*
X8425D01*
X8268Y8622D02*
X8307Y8583D01*
X8268Y8622D02*
Y8740D01*
X8228Y8780D02*
X8268Y8740D01*
X8110Y8780D02*
X8228D01*
X8071Y8740D02*
X8110Y8780D01*
X8071Y8622D02*
Y8740D01*
X8031Y8583D02*
X8071Y8622D01*
X7913Y8583D02*
X8031D01*
X7874Y8622D02*
X7913Y8583D01*
X7874Y8622D02*
Y8740D01*
X7835Y8780D02*
X7874Y8740D01*
X6732Y8780D02*
X7835D01*
X9291Y9094D02*
X9685D01*
X9252Y9055D02*
X9291Y9094D01*
X9252Y8937D02*
Y9055D01*
X9252Y8937D02*
X9252D01*
X9213Y8898D02*
X9252Y8937D01*
X9094Y8898D02*
X9213D01*
X9055Y8937D02*
X9094Y8898D01*
X9055Y8937D02*
Y9252D01*
X9016Y9291D02*
X9055Y9252D01*
X8898Y9291D02*
X9016D01*
X8858Y9252D02*
X8898Y9291D01*
X8858Y8937D02*
Y9252D01*
X8819Y8898D02*
X8858Y8937D01*
X8701Y8898D02*
X8819D01*
X8661Y8937D02*
X8701Y8898D01*
X8661Y8937D02*
Y9252D01*
X8622Y9291D02*
X8661Y9252D01*
X8504Y9291D02*
X8622D01*
X8465Y9252D02*
X8504Y9291D01*
X8465Y8937D02*
Y9252D01*
X8425Y8898D02*
X8465Y8937D01*
X8307Y8898D02*
X8425D01*
X8268Y8937D02*
X8307Y8898D01*
X10787Y7362D02*
Y7362D01*
Y7362D02*
X10945Y7205D01*
X10000Y7205D02*
X10157Y7362D01*
X6575Y6732D02*
Y6732D01*
X10945Y7520D02*
X11102Y7362D01*
X11260Y7835D02*
X11417Y7677D01*
X5315Y6417D02*
X5472Y6260D01*
X5315Y7047D02*
X5472Y6890D01*
X7677Y6614D02*
Y7323D01*
X7717Y7362D01*
X7835D01*
X7874Y7323D01*
Y6614D02*
Y7323D01*
X8071Y6614D02*
Y7126D01*
X8110Y7165D01*
X8228D01*
X8268Y7126D01*
Y6732D02*
Y7126D01*
Y6732D02*
X8307Y6693D01*
X8425D01*
X8465Y6732D01*
Y7323D01*
X8504Y7362D01*
X8622D01*
X8661Y7323D01*
Y6732D02*
Y7323D01*
Y6732D02*
X8701Y6693D01*
X8819D01*
X8858Y6732D01*
Y7165D01*
X8898Y7205D01*
X10000D01*
X9685Y8150D02*
X9843Y7992D01*
X6575Y8622D02*
X6732Y8780D01*
X10315Y8150D02*
Y8740D01*
Y8150D02*
X10472Y7992D01*
X8228Y9291D02*
X8268Y9252D01*
X8110Y9291D02*
X8228D01*
X8071Y9252D02*
X8110Y9291D01*
X8071Y8937D02*
Y9252D01*
X8031Y8898D02*
X8071Y8937D01*
X7913Y8898D02*
X8031D01*
X7874Y8937D02*
X7913Y8898D01*
X7874Y8937D02*
Y9252D01*
X7835Y9291D02*
X7874Y9252D01*
X7717Y9291D02*
X7835D01*
X7677Y9252D02*
X7717Y9291D01*
X7677Y9134D02*
Y9252D01*
X7638Y9094D02*
X7677Y9134D01*
X7047Y9094D02*
X7638D01*
X7047D02*
Y9094D01*
X6890Y9252D02*
X7047Y9094D01*
X8268Y8937D02*
Y9252D01*
X9685Y9094D02*
X9843Y8937D01*
X10000Y10039D02*
X10157Y9882D01*
X10000Y9724D02*
X10157Y9567D01*
X6575Y10197D02*
X6732Y10039D01*
X6575Y9882D02*
X6732Y9724D01*
Y9724D02*
Y9724D01*
X10315Y10669D02*
X10787Y10197D01*
X7047Y10669D02*
X10315D01*
X6890Y10827D02*
X7047Y10669D01*
X9252Y6102D02*
X9291Y6142D01*
X9134Y6102D02*
X9252D01*
X9094Y6142D02*
X9134Y6102D01*
X9094Y6142D02*
Y6535D01*
X9055Y6575D02*
X9094Y6535D01*
X8937Y6575D02*
X9055D01*
X8898Y6535D02*
X8937Y6575D01*
X8898Y6142D02*
Y6535D01*
X8858Y6102D02*
X8898Y6142D01*
X8740Y6102D02*
X8858D01*
X8701Y6142D02*
X8740Y6102D01*
X8701Y6142D02*
Y6535D01*
X8661Y6575D02*
X8701Y6535D01*
X8543Y6575D02*
X8661D01*
X8504Y6535D02*
X8543Y6575D01*
X8504Y6142D02*
Y6535D01*
X8465Y6102D02*
X8504Y6142D01*
X8346Y6102D02*
X8465D01*
X8307Y6142D02*
X8346Y6102D01*
X8307Y6142D02*
Y6220D01*
X8268Y6260D02*
X8307Y6220D01*
X5472Y6260D02*
X8268D01*
X9291Y6142D02*
Y6535D01*
X9331Y6575D01*
X9646Y6102D02*
X9685Y6142D01*
X9528Y6102D02*
X9646D01*
X9488Y6142D02*
X9528Y6102D01*
X9488Y6142D02*
Y6535D01*
X9449Y6575D02*
X9488Y6535D01*
X9331Y6575D02*
X9449D01*
X9685Y6142D02*
Y6890D01*
X9843Y7047D01*
X5472Y6890D02*
X5787D01*
X6260Y6417D01*
X6102Y6811D02*
X6378Y6535D01*
X6102Y6811D02*
Y6850D01*
X6417Y7165D01*
Y7205D01*
X6260Y7362D02*
X6417Y7205D01*
X6260Y7362D02*
Y7402D01*
X6339Y7480D01*
X6378D01*
X6535Y7323D01*
X6575D01*
X6772Y7520D01*
X8819D02*
X8858Y7559D01*
Y7638D01*
X8898Y7677D01*
X9016D01*
X9055Y7638D01*
Y7402D02*
Y7638D01*
Y7402D02*
X9094Y7362D01*
X9213D01*
X9252Y7402D01*
X9252D01*
Y7638D01*
X9291Y7677D01*
X9409D01*
X9449Y7638D01*
Y7559D02*
Y7638D01*
Y7559D02*
X9488Y7520D01*
X10945D01*
X6260Y6417D02*
X6299D01*
X6378Y6496D01*
Y6535D01*
X5630Y7047D02*
X5906Y7323D01*
Y7362D01*
X5787Y7480D02*
X5906Y7362D01*
X5787Y7480D02*
Y7520D01*
X5866Y7598D01*
X5906D01*
X6024Y7480D01*
X6063D01*
X6142Y7559D01*
Y7598D01*
X5827Y7913D02*
X6142Y7598D01*
X5827Y7913D02*
Y7953D01*
X5906Y8031D01*
X5945D01*
X6260Y7717D01*
X6299D01*
Y7717D01*
X6417Y7835D01*
X6260Y7992D02*
X6417Y7835D01*
X6260Y7992D02*
Y8031D01*
X6378Y8150D01*
X6732D01*
X7047Y7835D01*
X7874Y6614D02*
X7913Y6575D01*
X8031D01*
X8071Y6614D01*
X7047Y6890D02*
X7323D01*
X7362Y6850D01*
Y6614D02*
Y6850D01*
Y6614D02*
X7402Y6575D01*
X7638D01*
X7677Y6614D01*
X6575Y6732D02*
X6732Y6575D01*
Y6457D02*
Y6575D01*
Y6457D02*
X6772Y6417D01*
X6969D01*
X7008Y6457D01*
Y6850D01*
X7047Y6890D01*
X5315Y6732D02*
X5315D01*
X5157Y6575D02*
X5315Y6732D01*
X5157Y5984D02*
Y6575D01*
Y5984D02*
X5197Y5945D01*
D48*
X29587Y8504D02*
Y8701D01*
X28740Y7874D02*
X29094D01*
X28661Y7953D02*
X28740Y7874D01*
X28661Y7953D02*
X28661D01*
X28386Y8228D02*
X28661Y7953D01*
X26811Y8228D02*
X28386D01*
X25394Y7756D02*
Y7835D01*
X26417D02*
X26811Y8228D01*
X25394Y7835D02*
Y7953D01*
X29094Y7874D02*
X29587Y8366D01*
Y8504D01*
X25394Y7835D02*
X26417D01*
D55*
X-30400Y3400D02*
Y2800D01*
X-30000D01*
X-29700Y3200D02*
X-29500D01*
X-29400Y3100D01*
Y2800D01*
X-29700D01*
X-29800Y2900D01*
X-29700Y3000D01*
X-29400D01*
X-29200Y3200D02*
Y2900D01*
X-29100Y2800D01*
X-28801D01*
Y2700D01*
X-28900Y2600D01*
X-29000D01*
X-28801Y2800D02*
Y3200D01*
X-28301Y2800D02*
X-28501D01*
X-28601Y2900D01*
Y3100D01*
X-28501Y3200D01*
X-28301D01*
X-28201Y3100D01*
Y3000D01*
X-28601D01*
X-28001Y3200D02*
Y2800D01*
Y3000D01*
X-27901Y3100D01*
X-27801Y3200D01*
X-27701D01*
X-26801Y3300D02*
X-26701Y3400D01*
X-26501D01*
X-26401Y3300D01*
Y3200D01*
X-26501Y3100D01*
X-26401Y3000D01*
Y2900D01*
X-26501Y2800D01*
X-26701D01*
X-26801Y2900D01*
Y3000D01*
X-26701Y3100D01*
X-26801Y3200D01*
Y3300D01*
X-26701Y3100D02*
X-26501D01*
X-25602D02*
X-25202D01*
X-24002Y3300D02*
X-24102Y3400D01*
X-24302D01*
X-24402Y3300D01*
Y3200D01*
X-24302Y3100D01*
X-24102D01*
X-24002Y3000D01*
Y2900D01*
X-24102Y2800D01*
X-24302D01*
X-24402Y2900D01*
X-23802Y2800D02*
X-23602D01*
X-23702D01*
Y3200D01*
X-23802D01*
X-23102Y2600D02*
X-23002D01*
X-22902Y2700D01*
Y3200D01*
X-23202D01*
X-23302Y3100D01*
Y2900D01*
X-23202Y2800D01*
X-22902D01*
X-22702D02*
Y3200D01*
X-22403D01*
X-22303Y3100D01*
Y2800D01*
X-22003Y3200D02*
X-21803D01*
X-21703Y3100D01*
Y2800D01*
X-22003D01*
X-22103Y2900D01*
X-22003Y3000D01*
X-21703D01*
X-21503Y2800D02*
X-21303D01*
X-21403D01*
Y3400D01*
X-21503D01*
X-20203Y2800D02*
X-20403Y3000D01*
Y3200D01*
X-20203Y3400D01*
X-19504Y3300D02*
X-19603Y3400D01*
X-19803D01*
X-19903Y3300D01*
Y2900D01*
X-19803Y2800D01*
X-19603D01*
X-19504Y2900D01*
X-19204Y2800D02*
X-19004D01*
X-18904Y2900D01*
Y3100D01*
X-19004Y3200D01*
X-19204D01*
X-19304Y3100D01*
Y2900D01*
X-19204Y2800D01*
X-18704Y2600D02*
Y3200D01*
X-18404D01*
X-18304Y3100D01*
Y2900D01*
X-18404Y2800D01*
X-18704D01*
X-18104Y2600D02*
Y3200D01*
X-17804D01*
X-17704Y3100D01*
Y2900D01*
X-17804Y2800D01*
X-18104D01*
X-17204D02*
X-17404D01*
X-17504Y2900D01*
Y3100D01*
X-17404Y3200D01*
X-17204D01*
X-17104Y3100D01*
Y3000D01*
X-17504D01*
X-16904Y3200D02*
Y2800D01*
Y3000D01*
X-16804Y3100D01*
X-16704Y3200D01*
X-16604D01*
X-16305Y2800D02*
X-16105Y3000D01*
Y3200D01*
X-16305Y3400D01*
D59*
X25591Y2047D02*
D03*
X25906D02*
D03*
X25157D02*
D03*
X22913Y3307D02*
D03*
X22638D02*
D03*
X22244D02*
D03*
X21929D02*
D03*
X21535D02*
D03*
X21142D02*
D03*
X20827D02*
D03*
X20512D02*
D03*
X20197D02*
D03*
X21024Y1732D02*
D03*
X17323Y2283D02*
D03*
X17795D02*
D03*
X18110D02*
D03*
X18425D02*
D03*
X18740D02*
D03*
X19055D02*
D03*
X19370D02*
D03*
X20079Y2047D02*
D03*
X20157Y1732D02*
D03*
X20472Y2047D02*
D03*
X21142D02*
D03*
X21732Y1732D02*
D03*
X22362Y2047D02*
D03*
Y1732D02*
D03*
X21732Y2047D02*
D03*
X22756D02*
D03*
X23504D02*
D03*
X23583Y1575D02*
D03*
X23150D02*
D03*
X24291D02*
D03*
X24567Y2047D02*
D03*
X23937D02*
D03*
X24882Y1575D02*
D03*
X16811Y2008D02*
D03*
X16575Y2283D02*
D03*
X15748Y2008D02*
D03*
X16142Y1850D02*
D03*
X13189Y2559D02*
D03*
X13346Y2756D02*
D03*
X12598Y2047D02*
D03*
X12835Y2559D02*
D03*
X11496D02*
D03*
X11693Y1260D02*
D03*
X11890Y2559D02*
D03*
X12283D02*
D03*
X11299Y3031D02*
D03*
X11063Y2047D02*
D03*
Y2559D02*
D03*
X10354Y2047D02*
D03*
X9646D02*
D03*
X8937D02*
D03*
X8701Y3031D02*
D03*
X8465Y2559D02*
D03*
Y2047D02*
D03*
X7756D02*
D03*
X7047D02*
D03*
X10472Y2559D02*
D03*
X10000D02*
D03*
X9528D02*
D03*
X7874D02*
D03*
X7402D02*
D03*
X6929D02*
D03*
X30748Y6063D02*
D03*
X30591Y3937D02*
D03*
X30945Y3307D02*
D03*
X22559Y10866D02*
D03*
X23031Y7913D02*
D03*
X21870Y8110D02*
D03*
X22441Y7913D02*
D03*
X12047Y10512D02*
D03*
X11732D02*
D03*
Y9882D02*
D03*
X11417Y9252D02*
D03*
X23268Y11299D02*
D03*
Y10984D02*
D03*
X12362Y10197D02*
D03*
X11417Y10512D02*
D03*
X23819Y8031D02*
D03*
Y8346D02*
D03*
X24173Y11339D02*
D03*
X26063Y9882D02*
D03*
X26457D02*
D03*
Y4055D02*
D03*
X26220Y4252D02*
D03*
X27677Y3898D02*
D03*
X27480Y4094D02*
D03*
X29606Y4134D02*
D03*
X28819Y3937D02*
D03*
X28425Y4134D02*
D03*
X30039Y3937D02*
D03*
X25591Y4331D02*
D03*
X15197Y2165D02*
D03*
X11417Y4213D02*
D03*
X24528Y9606D02*
D03*
X16220Y3189D02*
D03*
X16457D02*
D03*
X14961Y1457D02*
D03*
X27953Y2598D02*
D03*
X27402D02*
D03*
X27677D02*
D03*
X23819Y3307D02*
D03*
X23425D02*
D03*
X23189D02*
D03*
X24449D02*
D03*
X24055D02*
D03*
X24685D02*
D03*
X9843Y9882D02*
D03*
X11732Y5787D02*
D03*
X19528Y4764D02*
D03*
Y4528D02*
D03*
X11102Y9252D02*
D03*
X26063Y11417D02*
D03*
X19409Y8622D02*
D03*
X19803D02*
D03*
X20118D02*
D03*
X20433D02*
D03*
X19055D02*
D03*
X25669Y3661D02*
D03*
X28661Y3465D02*
D03*
X16457Y8622D02*
D03*
X15512Y8937D02*
D03*
X15827D02*
D03*
X14567Y8307D02*
D03*
X14882Y7992D02*
D03*
X14567D02*
D03*
X14882Y8307D02*
D03*
Y7677D02*
D03*
X15197Y8307D02*
D03*
X15512D02*
D03*
X15827D02*
D03*
X15197Y7677D02*
D03*
X16457D02*
D03*
X16142Y7992D02*
D03*
X16457Y7047D02*
D03*
X14252Y7992D02*
D03*
X15827Y7677D02*
D03*
Y7992D02*
D03*
X15512Y7677D02*
D03*
X13937Y8622D02*
D03*
X14567Y7677D02*
D03*
X15197Y7362D02*
D03*
X13937Y7992D02*
D03*
X14252Y7677D02*
D03*
X15827Y7047D02*
D03*
X14882Y7362D02*
D03*
Y7047D02*
D03*
X27047Y2441D02*
D03*
X15827Y8622D02*
D03*
X14882D02*
D03*
X15197D02*
D03*
X14567D02*
D03*
X15197Y9252D02*
D03*
X15512D02*
D03*
Y8622D02*
D03*
X26457Y1339D02*
D03*
X26732Y1535D02*
D03*
X26969Y1299D02*
D03*
X28465Y3031D02*
D03*
Y3307D02*
D03*
X28504Y1732D02*
D03*
X31299Y5709D02*
D03*
X11732Y9567D02*
D03*
X12047Y8937D02*
D03*
X12677Y9567D02*
D03*
Y9252D02*
D03*
X29843Y3465D02*
D03*
X29488Y3031D02*
D03*
X29016Y3583D02*
D03*
X13937Y9567D02*
D03*
Y10197D02*
D03*
X14252D02*
D03*
X14567Y10512D02*
D03*
X30039Y3031D02*
D03*
X20748Y9528D02*
D03*
X15197Y9882D02*
D03*
Y9567D02*
D03*
X14567Y10197D02*
D03*
X13622Y9882D02*
D03*
Y10197D02*
D03*
X14252Y9567D02*
D03*
X14882Y8937D02*
D03*
X15197D02*
D03*
X15827Y9882D02*
D03*
X18110Y9567D02*
D03*
X14882D02*
D03*
X20394Y9528D02*
D03*
X14567Y9567D02*
D03*
X13937Y9882D02*
D03*
X12047D02*
D03*
X13740Y2756D02*
D03*
X14488Y1693D02*
D03*
Y1299D02*
D03*
X14252Y1693D02*
D03*
X13386D02*
D03*
X15827Y5157D02*
D03*
X15512D02*
D03*
X15827Y6102D02*
D03*
Y6417D02*
D03*
X15512Y6102D02*
D03*
X15197Y6417D02*
D03*
X14567Y5157D02*
D03*
X15512Y4213D02*
D03*
X15197D02*
D03*
X15512Y4843D02*
D03*
Y4528D02*
D03*
X15197D02*
D03*
Y4843D02*
D03*
X14567Y4528D02*
D03*
Y4843D02*
D03*
X14882Y5787D02*
D03*
X14252Y4843D02*
D03*
Y4528D02*
D03*
X13937Y3740D02*
D03*
X13622Y5157D02*
D03*
Y3898D02*
D03*
Y4213D02*
D03*
X12992Y4843D02*
D03*
X12992Y5157D02*
D03*
Y4213D02*
D03*
X13307Y4528D02*
D03*
X12992D02*
D03*
X12362D02*
D03*
X12047D02*
D03*
X12677Y5472D02*
D03*
X11417Y4843D02*
D03*
Y4528D02*
D03*
X12362Y5157D02*
D03*
X8110Y3031D02*
D03*
X7638D02*
D03*
X7165D02*
D03*
X6693D02*
D03*
X14252Y5472D02*
D03*
X13937Y5787D02*
D03*
Y4843D02*
D03*
X13622D02*
D03*
Y5472D02*
D03*
X16575Y10197D02*
D03*
X25276Y6142D02*
D03*
X14567Y8937D02*
D03*
X19724Y10118D02*
D03*
X20118Y10512D02*
D03*
X19724D02*
D03*
X14252Y6102D02*
D03*
X13622Y4528D02*
D03*
Y5787D02*
D03*
X13307D02*
D03*
X12677D02*
D03*
X11417Y5472D02*
D03*
X11102Y5157D02*
D03*
X9173Y1260D02*
D03*
X9882D02*
D03*
X9646Y1575D02*
D03*
X10354D02*
D03*
X10591Y1260D02*
D03*
X11063Y1575D02*
D03*
X11299Y1260D02*
D03*
X8701D02*
D03*
X8465Y1575D02*
D03*
X7992Y1260D02*
D03*
X7756Y1575D02*
D03*
X7047D02*
D03*
X7283Y1260D02*
D03*
X6575D02*
D03*
X10787Y5157D02*
D03*
X10157Y4528D02*
D03*
X11102Y4213D02*
D03*
X11417Y5157D02*
D03*
X13307Y6417D02*
D03*
X15197Y10512D02*
D03*
X13307Y10197D02*
D03*
X10157Y5157D02*
D03*
X4331Y7520D02*
D03*
Y7205D02*
D03*
Y6890D02*
D03*
Y6575D02*
D03*
Y6260D02*
D03*
Y5945D02*
D03*
X11102Y10197D02*
D03*
X6575Y9567D02*
D03*
X5315Y6732D02*
D03*
X10787Y7362D02*
D03*
Y7047D02*
D03*
X10472D02*
D03*
X10157Y6417D02*
D03*
X10787Y7677D02*
D03*
X11102Y6732D02*
D03*
X8465Y7677D02*
D03*
X5315Y6102D02*
D03*
X10787Y7992D02*
D03*
X10157Y7362D02*
D03*
X9843Y7047D02*
D03*
X5315Y6417D02*
D03*
X11102Y7362D02*
D03*
X5315Y7047D02*
D03*
X11417Y6417D02*
D03*
X8465Y5787D02*
D03*
X10472D02*
D03*
X11102D02*
D03*
X9843Y6732D02*
D03*
X10157D02*
D03*
X13307Y5472D02*
D03*
X15512Y6732D02*
D03*
X12047Y8307D02*
D03*
X12362Y8937D02*
D03*
X11732D02*
D03*
X15669Y1535D02*
D03*
X16142Y1339D02*
D03*
X15197Y1299D02*
D03*
X12992Y8937D02*
D03*
X12677Y6417D02*
D03*
X12362D02*
D03*
X12677Y6102D02*
D03*
X12047Y6417D02*
D03*
X12362Y7677D02*
D03*
X12677Y7362D02*
D03*
X11732Y6417D02*
D03*
X5000Y9882D02*
D03*
Y9567D02*
D03*
X7205Y9252D02*
D03*
X7520Y8937D02*
D03*
Y8622D02*
D03*
X10472Y6732D02*
D03*
X11102Y7047D02*
D03*
X10157D02*
D03*
X10787Y9252D02*
D03*
X7835Y5787D02*
D03*
X11102Y6417D02*
D03*
X5315Y7362D02*
D03*
X5000Y7677D02*
D03*
X9528Y6732D02*
D03*
X11102Y6102D02*
D03*
X10787Y6732D02*
D03*
X8150Y7362D02*
D03*
X10787Y8307D02*
D03*
Y8937D02*
D03*
X11417Y8307D02*
D03*
Y7992D02*
D03*
Y7677D02*
D03*
X7205Y8937D02*
D03*
X10787Y8622D02*
D03*
X5315Y8937D02*
D03*
X5630D02*
D03*
X10157Y8307D02*
D03*
X10472D02*
D03*
Y7992D02*
D03*
X10157D02*
D03*
X5000Y8937D02*
D03*
X5630Y8307D02*
D03*
X9843Y7992D02*
D03*
Y8307D02*
D03*
X6575Y8622D02*
D03*
X5630Y9252D02*
D03*
X10157D02*
D03*
X5315Y8622D02*
D03*
X6890Y9252D02*
D03*
X9843Y8937D02*
D03*
X9528D02*
D03*
X6575D02*
D03*
X10157Y8937D02*
D03*
X10472Y8937D02*
D03*
X11102D02*
D03*
X6890Y8307D02*
D03*
X5630Y9882D02*
D03*
X9843Y10197D02*
D03*
X10157Y9882D02*
D03*
Y9567D02*
D03*
X10472Y9252D02*
D03*
X6890Y10827D02*
D03*
X10787Y10197D02*
D03*
X5630Y10512D02*
D03*
X10157D02*
D03*
X6575Y10197D02*
D03*
Y9882D02*
D03*
X6890D02*
D03*
X5630Y10197D02*
D03*
X9843Y9567D02*
D03*
X5315Y10512D02*
D03*
X10787D02*
D03*
X5315Y9882D02*
D03*
X9843Y9252D02*
D03*
X7205Y10197D02*
D03*
X7835Y6417D02*
D03*
X9843Y7362D02*
D03*
X4055Y4528D02*
D03*
X4370D02*
D03*
X2992Y5000D02*
D03*
X5551Y4173D02*
D03*
X12362Y5472D02*
D03*
X11732Y5157D02*
D03*
Y4843D02*
D03*
X12677Y5157D02*
D03*
X2598Y4528D02*
D03*
X2323D02*
D03*
X12362Y4213D02*
D03*
X12677D02*
D03*
X11732Y4528D02*
D03*
X11102Y4843D02*
D03*
X7874Y4685D02*
D03*
X12047Y5157D02*
D03*
X5906Y4685D02*
D03*
X3701Y5157D02*
D03*
X11732Y9252D02*
D03*
X11260Y10787D02*
D03*
X1339Y9449D02*
D03*
X15197Y10197D02*
D03*
X15512Y9882D02*
D03*
X12992Y9567D02*
D03*
X25709Y7520D02*
D03*
X25591Y7323D02*
D03*
X25709Y6732D02*
D03*
X25827Y6535D02*
D03*
X25591Y6929D02*
D03*
X26220Y6260D02*
D03*
X14252Y9252D02*
D03*
Y8937D02*
D03*
X27244Y5945D02*
D03*
X27047Y5787D02*
D03*
X26693D02*
D03*
X26496Y5945D02*
D03*
X13937Y9252D02*
D03*
X12362Y9882D02*
D03*
X11102D02*
D03*
X12992Y9252D02*
D03*
X14882Y10197D02*
D03*
X15512Y10512D02*
D03*
X25472Y7126D02*
D03*
X14882Y9882D02*
D03*
X9291Y3031D02*
D03*
X9764D02*
D03*
X10236D02*
D03*
X10709D02*
D03*
X13307Y4213D02*
D03*
X14252D02*
D03*
X28346Y6575D02*
D03*
X28543Y6732D02*
D03*
X28346Y7835D02*
D03*
X14252Y5787D02*
D03*
X14567Y5472D02*
D03*
X14882D02*
D03*
X13937Y4213D02*
D03*
Y4528D02*
D03*
X14252Y5157D02*
D03*
X14567Y4213D02*
D03*
X14882D02*
D03*
X14252Y3898D02*
D03*
X26260Y8386D02*
D03*
X26181Y8110D02*
D03*
X25787D02*
D03*
X27638Y5827D02*
D03*
X28307Y5551D02*
D03*
Y5827D02*
D03*
X28976Y5709D02*
D03*
X11417Y10197D02*
D03*
X12992Y9882D02*
D03*
X13307Y9567D02*
D03*
X30354Y10344D02*
D03*
X29370D02*
D03*
X28386D02*
D03*
Y8583D02*
D03*
X28583Y8425D02*
D03*
X28502Y7679D02*
D03*
X28740Y7362D02*
D03*
X28896Y7207D02*
D03*
X12992Y10197D02*
D03*
X30315Y1299D02*
D03*
X30079D02*
D03*
X12677Y8937D02*
D03*
X28898Y1535D02*
D03*
X29449Y1299D02*
D03*
X29213D02*
D03*
X28976D02*
D03*
X25591Y1339D02*
D03*
X26063Y1575D02*
D03*
X15827Y5472D02*
D03*
X15197Y5787D02*
D03*
Y6102D02*
D03*
X14567Y5787D02*
D03*
X15512Y6417D02*
D03*
X14252D02*
D03*
X14567D02*
D03*
X14882D02*
D03*
X15827Y5787D02*
D03*
X16142Y6102D02*
D03*
X14567Y6732D02*
D03*
X14882D02*
D03*
X14252D02*
D03*
Y7047D02*
D03*
X15197Y6732D02*
D03*
Y7047D02*
D03*
X15827Y6732D02*
D03*
X13937Y7047D02*
D03*
X14252Y7362D02*
D03*
Y8622D02*
D03*
X26260Y1496D02*
D03*
X25748Y3898D02*
D03*
X16693Y8307D02*
D03*
X25236Y4331D02*
D03*
X20984Y9528D02*
D03*
X20118Y6732D02*
D03*
X23937Y4606D02*
D03*
X13307Y6732D02*
D03*
X11417D02*
D03*
Y7362D02*
D03*
Y7047D02*
D03*
X13622Y9567D02*
D03*
X12992Y7992D02*
D03*
X12677Y7677D02*
D03*
X13622Y7992D02*
D03*
X12992Y7677D02*
D03*
X13307Y7992D02*
D03*
Y7677D02*
D03*
Y7362D02*
D03*
X12992Y7047D02*
D03*
X12047D02*
D03*
X12362D02*
D03*
X12677D02*
D03*
X12992Y7362D02*
D03*
X12362Y7992D02*
D03*
X13661Y10512D02*
D03*
X15394Y2362D02*
D03*
X27480Y1929D02*
D03*
X11417Y8937D02*
D03*
X14961Y1693D02*
D03*
X3268Y4803D02*
D03*
X20551Y7717D02*
D03*
D60*
X21024Y1260D02*
D03*
X17992Y10866D02*
D03*
X23150Y10197D02*
D03*
X22795D02*
D03*
X22441D02*
D03*
X22087D02*
D03*
X23150Y9528D02*
D03*
X22795D02*
D03*
X22441D02*
D03*
X22087D02*
D03*
X22953Y8937D02*
D03*
X22480D02*
D03*
X21299Y10866D02*
D03*
X21654D02*
D03*
X21969D02*
D03*
X24409Y8701D02*
D03*
Y7677D02*
D03*
X24016D02*
D03*
X20354Y10866D02*
D03*
X29803Y9961D02*
D03*
X27441D02*
D03*
X27205Y8740D02*
D03*
X30394Y4331D02*
D03*
X29370D02*
D03*
X28189D02*
D03*
X27008D02*
D03*
X30748Y4252D02*
D03*
X26870Y5413D02*
D03*
X28071Y5394D02*
D03*
X25787D02*
D03*
X26024D02*
D03*
X19685Y1535D02*
D03*
X20394Y1299D02*
D03*
X19685D02*
D03*
X18976D02*
D03*
X18268D02*
D03*
X16850Y1181D02*
D03*
X11563Y11575D02*
D03*
X24882Y11299D02*
D03*
X14449Y11575D02*
D03*
X14724D02*
D03*
X11850D02*
D03*
X12520D02*
D03*
Y11339D02*
D03*
X29370Y10600D02*
D03*
X29587Y8701D02*
D03*
X29646Y7441D02*
D03*
X30394Y8628D02*
D03*
X17717Y4291D02*
D03*
X17441D02*
D03*
X2598Y5748D02*
D03*
X2126Y5512D02*
D03*
Y5787D02*
D03*
X1575D02*
D03*
Y5512D02*
D03*
X1850D02*
D03*
X31378Y9528D02*
D03*
Y8976D02*
D03*
Y10079D02*
D03*
X31850Y9528D02*
D03*
Y8976D02*
D03*
Y10079D02*
D03*
Y2953D02*
D03*
Y1378D02*
D03*
Y2402D02*
D03*
X31575D02*
D03*
X31299Y2953D02*
D03*
X31575D02*
D03*
X31299Y1378D02*
D03*
Y2402D02*
D03*
X433D02*
D03*
Y2953D02*
D03*
X474Y1500D02*
D03*
X984Y2953D02*
D03*
X709Y2402D02*
D03*
X984D02*
D03*
X709Y2953D02*
D03*
X1026Y1500D02*
D03*
X20197Y6142D02*
D03*
X18819Y6260D02*
D03*
X18543D02*
D03*
X18268D02*
D03*
X17717Y6850D02*
D03*
X17992D02*
D03*
X17913Y8268D02*
D03*
Y8543D02*
D03*
X18622Y5197D02*
D03*
X18425D02*
D03*
X18228D02*
D03*
X23465Y7165D02*
D03*
Y6772D02*
D03*
Y7520D02*
D03*
X21693D02*
D03*
Y7165D02*
D03*
Y6772D02*
D03*
X24606Y10157D02*
D03*
X16890Y10866D02*
D03*
X1457Y7244D02*
D03*
Y6929D02*
D03*
Y6614D02*
D03*
Y6299D02*
D03*
X1142D02*
D03*
Y6614D02*
D03*
Y6929D02*
D03*
Y7244D02*
D03*
Y7559D02*
D03*
Y7874D02*
D03*
Y8189D02*
D03*
Y8504D02*
D03*
X3386Y8701D02*
D03*
X3071D02*
D03*
X1417Y8504D02*
D03*
X591Y10787D02*
D03*
Y11102D02*
D03*
Y11417D02*
D03*
Y9449D02*
D03*
Y9764D02*
D03*
Y10065D02*
D03*
Y10394D02*
D03*
X2047Y10433D02*
D03*
X1260Y11417D02*
D03*
X1614D02*
D03*
X1969D02*
D03*
X2638D02*
D03*
X2323D02*
D03*
Y11102D02*
D03*
Y10787D02*
D03*
X906Y11417D02*
D03*
Y11102D02*
D03*
Y10787D02*
D03*
X4291Y9488D02*
D03*
X3976Y11063D02*
D03*
X9252Y11260D02*
D03*
X21496Y4488D02*
D03*
Y4764D02*
D03*
X21220D02*
D03*
X20394Y1535D02*
D03*
X18976D02*
D03*
X18268D02*
D03*
X19685Y2047D02*
D03*
X17559Y1850D02*
D03*
X17126D02*
D03*
X25827Y1339D02*
D03*
X27480Y1535D02*
D03*
X25512Y5354D02*
D03*
X25787Y11417D02*
D03*
X26378D02*
D03*
X27362D02*
D03*
X30354Y10600D02*
D03*
X19449Y9528D02*
D03*
X25394Y9606D02*
D03*
Y9370D02*
D03*
X29449Y7795D02*
D03*
X13110Y11417D02*
D03*
X13858Y1339D02*
D03*
X13189Y1457D02*
D03*
X12362Y1575D02*
D03*
X20118Y10118D02*
D03*
X6614Y3858D02*
D03*
X7126D02*
D03*
X5354Y2677D02*
D03*
X1339Y3819D02*
D03*
X2520Y1654D02*
D03*
X2795D02*
D03*
X1929Y8504D02*
D03*
X1850Y5787D02*
D03*
X2638Y6142D02*
D03*
X9606Y5433D02*
D03*
X6102Y7205D02*
D03*
X4843Y1339D02*
D03*
X4961Y1535D02*
D03*
X4724D02*
D03*
X5512Y1732D02*
D03*
Y1969D02*
D03*
Y2205D02*
D03*
X2717Y2638D02*
D03*
X2559Y2795D02*
D03*
X4118Y2772D02*
D03*
X3971Y2632D02*
D03*
X3976Y2323D02*
D03*
X2992Y6142D02*
D03*
Y5906D02*
D03*
X6102Y8150D02*
D03*
X5354Y3661D02*
D03*
X4803Y4803D02*
D03*
X2677Y5000D02*
D03*
X2087D02*
D03*
X1457Y4606D02*
D03*
X4370Y5157D02*
D03*
X9803Y11535D02*
D03*
X10630Y11496D02*
D03*
X2756Y8701D02*
D03*
X1339Y9055D02*
D03*
X2559Y9606D02*
D03*
X906Y10394D02*
D03*
Y10079D02*
D03*
Y9764D02*
D03*
X1890Y9606D02*
D03*
X1142Y8858D02*
D03*
X3346Y10433D02*
D03*
X3661D02*
D03*
X3976D02*
D03*
Y10748D02*
D03*
Y10118D02*
D03*
X2835Y10315D02*
D03*
X12047Y10866D02*
D03*
X12362D02*
D03*
X11732D02*
D03*
X12835D02*
D03*
X13982Y11530D02*
D03*
X27559Y8504D02*
D03*
X28189Y8740D02*
D03*
X28898Y8189D02*
D03*
X29587Y8504D02*
D03*
X29646Y7638D02*
D03*
X28937Y6378D02*
D03*
Y6142D02*
D03*
X30394Y8425D02*
D03*
X24528Y9213D02*
D03*
X25276Y9882D02*
D03*
X28543Y11457D02*
D03*
X29528D02*
D03*
X30512D02*
D03*
X28386Y10600D02*
D03*
X27795Y11417D02*
D03*
X17559Y10866D02*
D03*
X26811Y11417D02*
D03*
X30325Y1614D02*
D03*
X30315Y2323D02*
D03*
X29134Y2598D02*
D03*
X30315D02*
D03*
X29134Y2323D02*
D03*
X29124Y1614D02*
D03*
X22441Y1260D02*
D03*
X21732D02*
D03*
X21890Y1457D02*
D03*
X22598D02*
D03*
X21181D02*
D03*
X21496Y9528D02*
D03*
X24567Y5354D02*
D03*
X20945Y4764D02*
D03*
X20669D02*
D03*
X20394D02*
D03*
X8346Y11260D02*
D03*
X8031D02*
D03*
X7717D02*
D03*
X7402D02*
D03*
X3976Y9803D02*
D03*
X4291D02*
D03*
Y10118D02*
D03*
Y10433D02*
D03*
Y10748D02*
D03*
Y11063D02*
D03*
X8937Y11260D02*
D03*
X13346Y10866D02*
D03*
X18071Y10157D02*
D03*
X25000Y6811D02*
D03*
X24685D02*
D03*
X24724Y5197D02*
D03*
X3701Y8701D02*
D03*
X10472Y10984D02*
D03*
X19094Y7992D02*
D03*
Y7717D02*
D03*
X19370D02*
D03*
X17992Y4291D02*
D03*
X12205Y11575D02*
D03*
X31693Y4961D02*
D03*
Y6614D02*
D03*
D61*
X23819Y11339D02*
D03*
X23543Y4449D02*
D03*
D62*
X31024Y394D02*
D03*
X30315D02*
D03*
X29134D02*
D03*
X28425D02*
D03*
X25118D02*
D03*
X23228D02*
D03*
X1260D02*
D03*
X1969D02*
D03*
X3150D02*
D03*
X3858D02*
D03*
X6457D02*
D03*
X9055D02*
D03*
X11654D02*
D03*
X16142Y11575D02*
D03*
X15197D02*
D03*
X15472D02*
D03*
Y11339D02*
D03*
X15197D02*
D03*
X14724D02*
D03*
X14449D02*
D03*
X15866Y11575D02*
D03*
Y11339D02*
D03*
X9843Y6102D02*
D03*
X25197Y5551D02*
D03*
X25000Y5748D02*
D03*
X28189Y11457D02*
D03*
X27087D02*
D03*
X25551Y11496D02*
D03*
X5906Y5157D02*
D03*
X5512D02*
D03*
X5118D02*
D03*
X4724D02*
D03*
X8268D02*
D03*
X7874D02*
D03*
X7520D02*
D03*
X26693Y7638D02*
D03*
Y7205D02*
D03*
Y6772D02*
D03*
X27126D02*
D03*
Y7638D02*
D03*
X27559D02*
D03*
Y7205D02*
D03*
Y6772D02*
D03*
X27126Y7205D02*
D03*
X22992Y5079D02*
D03*
X22756Y5315D02*
D03*
Y4843D02*
D03*
X23228D02*
D03*
Y5315D02*
D03*
X2205Y6890D02*
D03*
Y7244D02*
D03*
X2835Y6850D02*
D03*
Y7244D02*
D03*
X2520Y7047D02*
D03*
X5984Y2008D02*
D03*
Y2598D02*
D03*
Y3189D02*
D03*
Y9252D02*
D03*
X6299D02*
D03*
X21220Y4488D02*
D03*
X20945D02*
D03*
X20669D02*
D03*
X20394D02*
D03*
X11732Y6102D02*
D03*
X11417D02*
D03*
X11102Y8628D02*
D03*
X18543Y6575D02*
D03*
X17717Y7402D02*
D03*
X17992Y7126D02*
D03*
X17717D02*
D03*
X18268Y6575D02*
D03*
X17638Y8543D02*
D03*
X17913Y6457D02*
D03*
X18622Y5000D02*
D03*
X18425D02*
D03*
X18228D02*
D03*
X18898Y5472D02*
D03*
Y5748D02*
D03*
X18622D02*
D03*
X18346Y5472D02*
D03*
X18071Y5748D02*
D03*
Y5472D02*
D03*
X17795D02*
D03*
Y5748D02*
D03*
Y6024D02*
D03*
X17520Y5472D02*
D03*
Y5748D02*
D03*
Y6024D02*
D03*
Y6299D02*
D03*
X23189Y6772D02*
D03*
X22913D02*
D03*
Y7520D02*
D03*
X23189D02*
D03*
Y7165D02*
D03*
X22913D02*
D03*
X22244Y7520D02*
D03*
X21969D02*
D03*
Y6772D02*
D03*
X22244Y7165D02*
D03*
X21969D02*
D03*
X22244Y6772D02*
D03*
X2480Y2205D02*
D03*
X1220Y9764D02*
D03*
Y10079D02*
D03*
X1850Y10236D02*
D03*
X8937Y10945D02*
D03*
X9252D02*
D03*
X12205Y11378D02*
D03*
X21260Y5315D02*
D03*
X20433D02*
D03*
X20709D02*
D03*
X20984D02*
D03*
X15512Y7362D02*
D03*
X23228Y945D02*
D03*
X25118D02*
D03*
X14567Y6102D02*
D03*
X14882D02*
D03*
X12992D02*
D03*
X11654Y945D02*
D03*
X9055D02*
D03*
X6457D02*
D03*
X3150D02*
D03*
X1969D02*
D03*
X1260D02*
D03*
X3110Y7756D02*
D03*
X5984Y8937D02*
D03*
X5000Y5787D02*
D03*
X6299Y8937D02*
D03*
X5630Y6417D02*
D03*
X6575Y7677D02*
D03*
X5630Y6732D02*
D03*
X6575D02*
D03*
Y7047D02*
D03*
X6890Y7047D02*
D03*
X5630Y7677D02*
D03*
X7205Y5787D02*
D03*
Y6102D02*
D03*
X5315Y7677D02*
D03*
Y7992D02*
D03*
X7520Y7362D02*
D03*
X7205D02*
D03*
X10472Y7677D02*
D03*
Y7362D02*
D03*
X6575Y7992D02*
D03*
Y8307D02*
D03*
X10472Y6417D02*
D03*
X11417Y9567D02*
D03*
Y9882D02*
D03*
X12047Y7362D02*
D03*
X11732D02*
D03*
X12992Y5787D02*
D03*
Y5472D02*
D03*
X12362Y5787D02*
D03*
X14567Y7047D02*
D03*
X12992Y6417D02*
D03*
X13307Y7047D02*
D03*
X13937Y6102D02*
D03*
Y6732D02*
D03*
X13622Y6417D02*
D03*
X13937Y7362D02*
D03*
X13622Y7677D02*
D03*
X10472Y9567D02*
D03*
Y10197D02*
D03*
X12677Y4528D02*
D03*
X13307Y5157D02*
D03*
X13937D02*
D03*
X14882Y4843D02*
D03*
X15512Y5787D02*
D03*
X15827Y7362D02*
D03*
X15197Y7992D02*
D03*
X15827Y4528D02*
D03*
Y9567D02*
D03*
X14567Y9252D02*
D03*
Y9882D02*
D03*
X14252Y8307D02*
D03*
X13622D02*
D03*
X13307Y8622D02*
D03*
X12047Y7677D02*
D03*
X12362Y8307D02*
D03*
Y8622D02*
D03*
X12992Y8307D02*
D03*
X11732D02*
D03*
Y7047D02*
D03*
X12047Y9252D02*
D03*
Y9567D02*
D03*
X11732Y10197D02*
D03*
X10787Y6417D02*
D03*
X12362Y4843D02*
D03*
X14567Y7362D02*
D03*
X12992Y6732D02*
D03*
X13937Y6417D02*
D03*
X13622Y6102D02*
D03*
Y6732D02*
D03*
Y7047D02*
D03*
Y7362D02*
D03*
X13937Y7677D02*
D03*
X3425Y1772D02*
D03*
X3858Y945D02*
D03*
X3350Y3400D02*
D03*
X10472Y8622D02*
D03*
X10787Y9567D02*
D03*
X10157Y10197D02*
D03*
X12677Y4843D02*
D03*
X13307D02*
D03*
X13937Y5472D02*
D03*
X14882Y5157D02*
D03*
X15512Y7992D02*
D03*
X15827Y4843D02*
D03*
Y9252D02*
D03*
X14882D02*
D03*
X14252Y9882D02*
D03*
X13937Y8307D02*
D03*
X13622Y8622D02*
D03*
X13307Y8937D02*
D03*
X12047Y8622D02*
D03*
X12992D02*
D03*
X12677Y8307D02*
D03*
X11732Y8622D02*
D03*
X12362Y9567D02*
D03*
Y9252D02*
D03*
X12047Y10197D02*
D03*
Y5472D02*
D03*
X12677Y6732D02*
D03*
X12362D02*
D03*
X12047D02*
D03*
Y4843D02*
D03*
X11732Y5472D02*
D03*
X12362Y7362D02*
D03*
X11732Y6732D02*
D03*
X11102Y7992D02*
D03*
X11732Y7992D02*
D03*
X12047D02*
D03*
X12362Y6102D02*
D03*
X12047D02*
D03*
Y5787D02*
D03*
X11102Y7677D02*
D03*
X11732Y7677D02*
D03*
X5000Y8307D02*
D03*
X5315D02*
D03*
X4685Y10827D02*
D03*
Y10512D02*
D03*
Y10197D02*
D03*
Y9882D02*
D03*
X5315Y10197D02*
D03*
X5000D02*
D03*
X4685Y9567D02*
D03*
Y9252D02*
D03*
Y8622D02*
D03*
X5000D02*
D03*
X4685Y7047D02*
D03*
Y6732D02*
D03*
Y6417D02*
D03*
Y6102D02*
D03*
Y5787D02*
D03*
X7205Y10827D02*
D03*
X7520D02*
D03*
Y10512D02*
D03*
Y10197D02*
D03*
Y9882D02*
D03*
Y9567D02*
D03*
X7205Y9882D02*
D03*
Y9567D02*
D03*
X6890Y8622D02*
D03*
X7205D02*
D03*
Y8307D02*
D03*
Y7992D02*
D03*
X7520Y6732D02*
D03*
Y6417D02*
D03*
Y6102D02*
D03*
Y5787D02*
D03*
X7205Y7677D02*
D03*
X5630Y7362D02*
D03*
Y5787D02*
D03*
Y7992D02*
D03*
X7205Y6732D02*
D03*
Y6417D02*
D03*
X5630Y6102D02*
D03*
X6575D02*
D03*
X5630Y7047D02*
D03*
X11102Y8307D02*
D03*
X10157Y8622D02*
D03*
X10787Y9882D02*
D03*
X7205Y7047D02*
D03*
X4016Y5157D02*
D03*
X6299D02*
D03*
X2244Y8504D02*
D03*
X12677Y7992D02*
D03*
X13307Y8307D02*
D03*
Y9252D02*
D03*
X25394Y7953D02*
D03*
Y7756D02*
D03*
X31024Y945D02*
D03*
X30315D02*
D03*
X29134D02*
D03*
X28425D02*
D03*
X15512Y5472D02*
D03*
X13307Y6102D02*
D03*
X18268Y8543D02*
D03*
X18543D02*
D03*
X18268Y8268D02*
D03*
X18543D02*
D03*
X18819D02*
D03*
Y7992D02*
D03*
X18543D02*
D03*
X18268D02*
D03*
X18543Y7717D02*
D03*
X18819D02*
D03*
X3600Y3150D02*
D03*
Y3650D02*
D03*
X3100D02*
D03*
Y3150D02*
D03*
X3600Y3150D02*
D03*
Y3650D02*
D03*
X3100D02*
D03*
Y3150D02*
D03*
D68*
X22008Y2874D02*
X22402Y2480D01*
X20276Y2874D02*
X22008D01*
X22402Y2480D02*
X22795D01*
X21732Y2717D02*
X22165Y2283D01*
X20157Y2717D02*
X21732D01*
X22165Y2283D02*
X22795D01*
X22992Y2087D01*
X23268Y1890D02*
Y2008D01*
X22795Y2480D02*
X23268Y2008D01*
X22480Y3071D02*
X23504Y2047D01*
X21850Y3071D02*
X22480D01*
X21732Y3189D02*
Y3386D01*
X21654Y3465D02*
X21732Y3386D01*
X19449Y3465D02*
X21654D01*
X18898Y4016D02*
X19449Y3465D01*
X23465Y3622D02*
X23622Y3465D01*
X19567Y3622D02*
X23465D01*
X19055Y4134D02*
X19567Y3622D01*
X23937Y3780D02*
X24291Y3425D01*
X19685Y3780D02*
X23937D01*
X19213Y4252D02*
X19685Y3780D01*
X24370Y3937D02*
X24882Y3425D01*
X19764Y3937D02*
X24370D01*
X19370Y4331D02*
X19764Y3937D01*
X23622Y2953D02*
Y3465D01*
X24291Y1575D02*
Y3425D01*
X24882Y1575D02*
Y3425D01*
X24585Y4094D02*
X26239Y2441D01*
X19882Y4094D02*
X24585D01*
X19724Y4252D02*
X19882Y4094D01*
X19843Y3307D02*
X20276Y2874D01*
X17283Y5354D02*
X19331Y3307D01*
X19843D01*
X21732Y3189D02*
X21850Y3071D01*
X19764Y3110D02*
X20157Y2717D01*
X18268Y3110D02*
X19764D01*
X18189Y2953D02*
X19646D01*
X20039Y2559D02*
X20906D01*
X19646Y2953D02*
X20039Y2559D01*
X20827Y1890D02*
Y2047D01*
X18110Y2795D02*
X19488D01*
X20472Y2402D02*
X20827Y2047D01*
X19882Y2402D02*
X20472D01*
X19488Y2795D02*
X19882Y2402D01*
X20276Y2244D02*
X20472Y2047D01*
X18032Y2638D02*
X19331D01*
X19724Y2244D02*
X20276D01*
X19331Y2638D02*
X19724Y2244D01*
X24685Y4252D02*
X26102Y2835D01*
X20079Y4252D02*
X24685D01*
X19921Y4409D02*
X20079Y4252D01*
X22992Y1732D02*
Y2087D01*
X20984Y1732D02*
X21024D01*
X20827Y1890D02*
X20984Y1732D01*
X17953Y2480D02*
X19173D01*
X19370Y2283D01*
X16339Y3819D02*
X17795Y2362D01*
X16339Y3819D02*
Y5276D01*
X17795Y2283D02*
Y2362D01*
X16181Y3740D02*
X17559Y2362D01*
Y2205D02*
Y2362D01*
Y2205D02*
X17717Y2047D01*
X18583D01*
X16496Y3937D02*
Y5394D01*
X16102Y5787D02*
X16496Y5394D01*
X15827Y5787D02*
X16102D01*
X16968Y4173D02*
X18189Y2953D01*
X17126Y4252D02*
X18268Y3110D01*
X16654Y4016D02*
X18032Y2638D01*
X16496Y3937D02*
X17953Y2480D01*
X18740Y2205D02*
Y2283D01*
X20906Y2559D02*
X21732Y1732D01*
X23268Y1890D02*
X23583Y1575D01*
X22992Y1732D02*
X23150Y1575D01*
X23937Y2047D02*
Y2638D01*
X14409Y2559D02*
X15984Y4134D01*
X13189Y2559D02*
X14409D01*
X11378Y3110D02*
X14449D01*
X11299Y3031D02*
X11378Y3110D01*
X12283Y2953D02*
X14528D01*
X11890Y2559D02*
X12283Y2953D01*
X14094Y3543D02*
Y4646D01*
X13819Y3268D02*
X14094Y3543D01*
X10669Y3268D02*
X13819D01*
X9764Y3583D02*
X12992D01*
X12638Y3898D02*
X12835Y4094D01*
X9409Y3898D02*
X12638D01*
X8937Y4764D02*
X9764D01*
X7402Y3228D02*
X8937Y4764D01*
X7402Y2913D02*
Y3228D01*
X9016Y4567D02*
X9882D01*
X7874Y3425D02*
X9016Y4567D01*
X7874Y2913D02*
Y3425D01*
X9173Y4370D02*
X11890D01*
X8307Y3504D02*
X9173Y4370D01*
X8307Y2953D02*
Y3504D01*
X9213Y4055D02*
X11890D01*
X8504Y3346D02*
X9213Y4055D01*
X8504Y2913D02*
Y3346D01*
X8898Y3386D02*
X9409Y3898D01*
X8898Y2677D02*
Y3386D01*
X9606Y3740D02*
X12795D01*
X9094Y3228D02*
X9606Y3740D01*
X9094Y2539D02*
Y3228D01*
X7992Y1890D02*
X8268Y2165D01*
X7992Y1260D02*
Y1890D01*
X8268Y2677D02*
X8504Y2913D01*
X8268Y2165D02*
Y2677D01*
X8110Y2756D02*
X8307Y2953D01*
X8110Y2402D02*
Y2756D01*
X7756Y2047D02*
X8110Y2402D01*
X8622Y2205D02*
Y2402D01*
X8898Y2677D01*
X8780Y1890D02*
Y2224D01*
X9094Y2539D01*
X8465Y2047D02*
X8622Y2205D01*
X9528Y3346D02*
X9764Y3583D01*
X9528Y2913D02*
Y3346D01*
X9291Y2677D02*
X9528Y2913D01*
X9291Y1850D02*
Y2677D01*
X8701Y1260D02*
X9291Y1850D01*
X7165Y2677D02*
X7402Y2913D01*
X7165Y2323D02*
Y2677D01*
X7638Y2362D02*
Y2677D01*
X7874Y2913D01*
X7165Y2323D02*
X7244Y2244D01*
X10472Y2559D02*
Y3071D01*
X6929Y2559D02*
Y3071D01*
X23937Y11575D02*
X24173Y11339D01*
X16378Y11575D02*
X23937D01*
X15945Y11142D02*
X16378Y11575D01*
X11220Y11142D02*
X15945D01*
X11024Y10945D02*
X11220Y11142D01*
X26239Y2441D02*
X27047D01*
X25748Y8386D02*
X26260D01*
X24528Y9606D02*
X25748Y8386D01*
X18583Y8780D02*
X19724Y7638D01*
X16299Y8780D02*
X18583D01*
X16142Y8622D02*
X16299Y8780D01*
X9882Y4567D02*
X10000Y4685D01*
X16181Y3740D02*
Y5118D01*
X16654Y4016D02*
Y5906D01*
X16811Y4094D02*
X18110Y2795D01*
X16811Y4094D02*
Y6260D01*
X16968Y4173D02*
Y6811D01*
X17126Y4252D02*
Y6850D01*
X17283Y5354D02*
Y6890D01*
X18898Y4016D02*
Y5197D01*
X19055Y4134D02*
Y6417D01*
X19213Y4252D02*
Y6457D01*
X19370Y4331D02*
Y6496D01*
X17559Y8307D02*
X19370Y6496D01*
X17087Y8307D02*
X17559D01*
X17520Y8150D02*
X19213Y6457D01*
X15669Y8150D02*
X17520D01*
X17480Y7992D02*
X19055Y6417D01*
X16142Y7992D02*
X17480D01*
X14409Y8465D02*
X16929D01*
X17087Y8307D01*
X17480Y6614D02*
X18898Y5197D01*
X19055Y8622D02*
X19921Y7756D01*
Y4409D02*
Y7756D01*
X19724Y4252D02*
Y7638D01*
X16299Y7520D02*
X16654D01*
X16142Y7677D02*
X16299Y7520D01*
X15827Y7677D02*
X16142D01*
X15984Y6575D02*
X16654Y5906D01*
X14449Y6575D02*
X15984D01*
Y5315D02*
X16181Y5118D01*
X15984Y5630D02*
X16339Y5276D01*
X16181Y6890D02*
X16811Y6260D01*
X16575Y7205D02*
X16968Y6811D01*
X16614Y7362D02*
X17126Y6850D01*
X16654Y7520D02*
X17283Y6890D01*
X15354D02*
X16181D01*
X16142Y7362D02*
X16614D01*
X15512Y8307D02*
X15669Y8150D01*
X14134Y7520D02*
X15984D01*
X16142Y7362D01*
X14409Y7205D02*
X16575D01*
X14252Y7992D02*
X14409Y7835D01*
X14094Y7559D02*
X14134Y7520D01*
X14094Y7559D02*
Y8465D01*
X13937Y8622D02*
X14094Y8465D01*
X11024Y10591D02*
Y10945D01*
Y10591D02*
X11417Y10197D01*
X20197Y9724D02*
X20394Y9528D01*
X15039Y9724D02*
X20197D01*
X14882Y9567D02*
X15039Y9724D01*
X15984Y4134D02*
Y5000D01*
X15827Y5157D02*
X15984Y5000D01*
X14528Y2953D02*
X15669Y4094D01*
Y5000D01*
X15512Y5157D02*
X15669Y5000D01*
X9764Y3031D02*
Y3189D01*
X10472Y3071D02*
X10669Y3268D01*
X14449Y3110D02*
X15354Y4016D01*
Y4685D01*
X15512Y4843D01*
X14094Y4646D02*
X14134Y4685D01*
X15039D01*
X15197Y4843D01*
Y4843D01*
X9764Y3189D02*
X10000Y3425D01*
X13386D01*
X13780Y3819D01*
Y5591D01*
X13819Y5630D01*
X14724D01*
X14882Y5787D01*
X12795Y3740D02*
X12992Y3937D01*
Y4213D01*
X8465Y1575D02*
X8780Y1890D01*
X12835Y4094D02*
Y4331D01*
X12874Y4370D01*
X12835Y4685D02*
X12992Y4528D01*
X12559Y4685D02*
X12835D01*
X12520Y4646D02*
X12559Y4685D01*
X12520Y4409D02*
Y4646D01*
X12480Y4370D02*
X12520Y4409D01*
Y5039D02*
Y5315D01*
X12480Y5000D02*
X12520Y5039D01*
X12244Y5000D02*
X12480D01*
X12205Y4961D02*
X12244Y5000D01*
X12205Y4724D02*
Y4961D01*
X12165Y4685D02*
X12205Y4724D01*
X11850Y5000D02*
X11890Y5039D01*
Y5276D01*
X11929Y5315D01*
X12205D01*
X12362Y5157D01*
X11890Y4055D02*
X12205Y4370D01*
X12874D02*
X13150D01*
X13307Y4528D01*
X12992Y3583D02*
X13622Y4213D01*
X12205Y4370D02*
X12480D01*
X11890D02*
X12047Y4528D01*
X7283Y1260D02*
X7402Y1378D01*
Y2126D01*
X7638Y2362D01*
X10000Y4685D02*
X12165D01*
X12520Y5315D02*
X12677Y5472D01*
X6693Y3031D02*
Y3071D01*
X7047Y1575D02*
X7244Y1772D01*
Y2244D01*
X9764Y4764D02*
X10000Y5000D01*
X11850D01*
X12362Y5157D02*
X12362D01*
X10079Y5315D02*
X11535D01*
X9803Y5039D02*
X10079Y5315D01*
X13622Y5787D02*
Y5787D01*
X11535Y5315D02*
X11575Y5354D01*
Y5591D01*
X11614Y5630D01*
X12520D01*
Y5630D01*
X12677Y5787D01*
X6693Y3071D02*
X8819Y5197D01*
X9685D01*
X6929Y3071D02*
X8898Y5039D01*
X9803D01*
X14094Y5945D02*
X14252Y6102D01*
X11575Y5945D02*
X14094D01*
X9685Y5197D02*
X9961Y5472D01*
X11102D01*
X11575Y5945D01*
X14567Y6417D02*
X14724Y6260D01*
Y5984D02*
Y6260D01*
Y5984D02*
X14764Y5945D01*
X15000D01*
X15039Y5906D01*
X14882Y6417D02*
X15039Y6260D01*
X15315D01*
X15354Y6220D01*
Y5669D02*
Y6220D01*
Y5669D02*
X15394Y5630D01*
X15984D01*
X15039D02*
Y5906D01*
Y5630D02*
X15354Y5315D01*
X15984D01*
X18583Y2047D02*
X18740Y2205D01*
X14252Y7047D02*
X14409Y6890D01*
Y6614D02*
Y6890D01*
Y6614D02*
X14449Y6575D01*
X15197Y7047D02*
X15354Y6890D01*
X14252Y7362D02*
X14409Y7205D01*
Y7205D02*
Y7205D01*
X14252Y8622D02*
X14409Y8465D01*
X15827Y8622D02*
X16142D01*
X27047Y2835D02*
X27244Y2638D01*
X26102Y2835D02*
X27047D01*
X16811Y7835D02*
X17480Y7165D01*
Y6614D02*
Y7165D01*
X14409Y7835D02*
X16811D01*
X23622Y2953D02*
X23937Y2638D01*
X27244Y2165D02*
Y2638D01*
Y2165D02*
X27480Y1929D01*
D69*
X20945Y6220D02*
Y7795D01*
Y6220D02*
X21260Y5906D01*
X20118Y8622D02*
X20945Y7795D01*
X23504Y9055D02*
X24016D01*
X23465Y9016D02*
X23504Y9055D01*
X23465Y8031D02*
Y9016D01*
X23425Y7992D02*
X23465Y8031D01*
X23346Y7992D02*
X23425D01*
X23307Y8031D02*
X23346Y7992D01*
X23307Y8031D02*
Y9016D01*
X23268Y9055D02*
X23307Y9016D01*
X23189Y9055D02*
X23268D01*
X23150Y9016D02*
X23189Y9055D01*
X23150Y8031D02*
Y9016D01*
X23031Y7913D02*
X23150Y8031D01*
X24055D02*
Y9016D01*
X24016Y9055D02*
X24055Y9016D01*
X23268Y9213D02*
X24173D01*
X24213Y9173D01*
Y8504D02*
Y9173D01*
X21890Y9843D02*
X24370D01*
X24409Y9803D01*
X24331Y9528D02*
X24370Y9488D01*
X24409Y9724D02*
Y9803D01*
X24370Y9685D02*
X24409Y9724D01*
X24370Y9685D02*
Y9685D01*
X23386Y9685D02*
X24370D01*
X23346Y9567D02*
Y9646D01*
X23386Y9528D02*
X24331D01*
X24370Y9409D02*
Y9488D01*
X23268Y9370D02*
X24331D01*
X23228Y9252D02*
Y9331D01*
Y9252D02*
X23268Y9213D01*
X23346Y9567D02*
X23386Y9528D01*
X24331Y9370D02*
X24370Y9409D01*
X23346Y9646D02*
X23386Y9685D01*
X23228Y9331D02*
X23268Y9370D01*
X21850Y9528D02*
Y9803D01*
X21890Y9843D01*
X24055Y8031D02*
X24094Y7992D01*
X25118D01*
X25157Y8031D01*
Y8110D01*
X25118Y8150D02*
X25157Y8110D01*
X24252Y8150D02*
X25118D01*
X24213Y8189D02*
X24252Y8150D01*
X24213Y8189D02*
Y8268D01*
X24252Y8307D01*
X25118D01*
X25157Y8346D01*
Y8425D01*
X25118Y8465D02*
X25157Y8425D01*
X24252Y8465D02*
X25118D01*
X24213Y8504D02*
X24252Y8465D01*
X23425Y10433D02*
Y10709D01*
X23386Y10394D02*
X23425Y10433D01*
X22402Y10394D02*
X23386D01*
X24567Y9921D02*
X24882D01*
X24488Y10000D02*
X24567Y9921D01*
X21811Y10000D02*
X24488D01*
X21732Y10079D02*
X21811Y10000D01*
X21732Y10079D02*
Y10551D01*
X24488Y6575D02*
Y7441D01*
X25551Y6417D02*
Y6496D01*
X25512Y6535D02*
X25551Y6496D01*
X24528Y6535D02*
X25512D01*
X24488Y6575D02*
X24528Y6535D01*
X24331Y6575D02*
Y7441D01*
X24173Y6575D02*
Y7441D01*
X24291Y6535D02*
X24331Y6575D01*
X24213Y6535D02*
X24291D01*
X24173Y6575D02*
X24213Y6535D01*
X23898D02*
X23976D01*
X23858Y6575D02*
Y7441D01*
Y6575D02*
X23898Y6535D01*
X24016Y6575D02*
Y7441D01*
X23976Y6535D02*
X24016Y6575D01*
X23701D02*
Y7441D01*
X23661Y6535D02*
X23701Y6575D01*
X22717D02*
Y7717D01*
X22756Y6535D02*
X23661D01*
X22717Y6575D02*
X22756Y6535D01*
X22717Y6575D02*
X22717D01*
X22559D02*
Y7756D01*
X22441Y6535D02*
X22520D01*
X22559Y6575D01*
X22402D02*
Y7717D01*
Y6575D02*
X22441Y6535D01*
X25512Y6378D02*
X25551Y6417D01*
X21535Y6378D02*
X25512D01*
X23701Y7441D02*
X23740Y7480D01*
X23819D01*
X23858Y7441D01*
X24449Y7480D02*
X24488Y7441D01*
X24370Y7480D02*
X24449D01*
X24331Y7441D02*
X24370Y7480D01*
X24134D02*
X24173Y7441D01*
X24055Y7480D02*
X24134D01*
X24016Y7441D02*
X24055Y7480D01*
X22283Y8740D02*
X22283Y8740D01*
X22441D01*
X22480Y8701D01*
Y8622D02*
Y8701D01*
X22441Y8583D02*
X22480Y8622D01*
X21378Y8583D02*
X22441D01*
X22283Y8425D02*
X22283Y8425D01*
X22441D01*
X22480Y8386D01*
Y8307D02*
Y8386D01*
X22441Y8268D02*
X22480Y8307D01*
X21654Y8268D02*
X22441D01*
X21732Y11063D02*
Y11378D01*
X21575Y11063D02*
Y11378D01*
X21693Y11024D02*
X21732Y11063D01*
X21614Y11024D02*
X21693D01*
X21575Y11063D02*
X21614Y11024D01*
X21063Y10827D02*
X21102Y10866D01*
X20984Y10827D02*
X21063D01*
X20945Y10866D02*
X20984Y10827D01*
X22559Y10669D02*
Y10866D01*
Y10669D02*
X22638Y10591D01*
X23110D01*
X22047Y11063D02*
Y11378D01*
X22008Y11024D02*
X22047Y11063D01*
X21929Y11024D02*
X22008D01*
X21890Y11063D02*
X21929Y11024D01*
X21890Y11063D02*
Y11378D01*
X22520Y11063D02*
Y11378D01*
X22677Y11063D02*
Y11378D01*
X22520Y11063D02*
X22559Y11024D01*
X22638D01*
X22677Y11063D01*
X19685Y10866D02*
Y11378D01*
X19843Y10866D02*
Y11378D01*
X19685Y10866D02*
X19724Y10827D01*
X19803D01*
X19843Y10866D01*
X22717Y7717D02*
X22795Y7795D01*
X21654Y8110D02*
X21870D01*
X21654Y7913D02*
X22441D01*
X21614Y7874D02*
X21654Y7913D01*
X21614Y7795D02*
Y7874D01*
Y8150D02*
X21654Y8110D01*
X21614Y8150D02*
Y8228D01*
X21654Y8268D01*
X21378Y8425D02*
X22283D01*
X21339Y8465D02*
X21378Y8425D01*
X21339Y8465D02*
Y8543D01*
X21378Y8583D01*
X21063Y8740D02*
X22283D01*
X21063D02*
Y8740D01*
X21024Y8780D02*
X21063Y8740D01*
X21024Y8780D02*
Y8858D01*
X21063Y8898D01*
X22244D01*
X22283Y8937D01*
Y9016D01*
X22244Y9055D02*
X22283Y9016D01*
X20787Y9055D02*
X22244D01*
X20748Y9094D02*
X20787Y9055D01*
X20787Y9213D02*
X22047D01*
X20748Y9094D02*
Y9173D01*
X20787Y9213D01*
X22047D02*
Y9213D01*
X22087Y9252D01*
Y9331D01*
X22047Y9370D02*
X22087Y9331D01*
X20630Y9370D02*
X22047D01*
X20591Y9331D02*
X20630Y9370D01*
X20591Y9252D02*
Y9331D01*
X20551Y9213D02*
X20591Y9252D01*
X20157Y9213D02*
X20551D01*
X20118Y9252D02*
X20157Y9213D01*
X20118Y9252D02*
Y9567D01*
X20079Y9606D02*
X20118Y9567D01*
X20000Y9606D02*
X20079D01*
X19961Y9567D02*
X20000Y9606D01*
X19961Y9252D02*
Y9567D01*
X19921Y9213D02*
X19961Y9252D01*
X19843Y9213D02*
X19921D01*
X19803Y9252D02*
X19843Y9213D01*
X19803Y9252D02*
Y9567D01*
X19764Y9606D02*
X19803Y9567D01*
X19685Y9606D02*
X19764D01*
X19646Y9567D02*
X19685Y9606D01*
X19646Y9409D02*
Y9567D01*
X19606Y9370D02*
X19646Y9409D01*
X19291Y9370D02*
X19606D01*
X19252Y9331D02*
X19291Y9370D01*
X19252Y9252D02*
Y9331D01*
X19213Y9213D02*
X19252Y9252D01*
X19134Y9213D02*
X19213D01*
X19094Y9252D02*
X19134Y9213D01*
X19094Y9252D02*
Y9567D01*
X19055Y9606D02*
X19094Y9567D01*
X18976Y9606D02*
X19055D01*
X18937Y9567D02*
X18976Y9606D01*
X18937Y9252D02*
Y9567D01*
X18898Y9213D02*
X18937Y9252D01*
X18819Y9213D02*
X18898D01*
X18780Y9252D02*
X18819Y9213D01*
X18780Y9252D02*
Y9567D01*
X18780D02*
X18780D01*
X18740Y9606D02*
X18780Y9567D01*
X18661Y9606D02*
X18740D01*
X18622Y9567D02*
X18661Y9606D01*
X18622Y9252D02*
Y9567D01*
X18583Y9213D02*
X18622Y9252D01*
X18504Y9213D02*
X18583D01*
X18465Y9252D02*
X18504Y9213D01*
X18465Y9252D02*
Y9567D01*
X18425Y9606D02*
X18465Y9567D01*
X18346Y9606D02*
X18425D01*
X18307Y9567D02*
X18346Y9606D01*
X18307Y9449D02*
Y9567D01*
X18268Y9409D02*
X18307Y9449D01*
X17953Y9409D02*
X18268D01*
X17913Y9370D02*
X17953Y9409D01*
X17913Y9252D02*
Y9370D01*
X17874Y9213D02*
X17913Y9252D01*
X17795Y9213D02*
X17874D01*
X17756Y9252D02*
X17795Y9213D01*
X17756Y9252D02*
Y9567D01*
X17717Y9606D02*
X17756Y9567D01*
X17638Y9606D02*
X17717D01*
X17598Y9567D02*
X17638Y9606D01*
X17598Y9252D02*
Y9567D01*
X17559Y9213D02*
X17598Y9252D01*
X17559Y9213D02*
Y9213D01*
X17480Y9213D02*
X17559D01*
X17441Y9252D02*
X17480Y9213D01*
X17441Y9252D02*
Y9567D01*
X17402Y9606D02*
X17441Y9567D01*
X17323Y9606D02*
X17402D01*
X17283Y9567D02*
X17323Y9606D01*
X17283Y9252D02*
Y9567D01*
X17244Y9213D02*
X17283Y9252D01*
X17165Y9213D02*
X17244D01*
X17126Y9252D02*
X17165Y9213D01*
X17126Y9252D02*
Y9567D01*
X17087Y9606D02*
X17126Y9567D01*
X17008Y9606D02*
X17087D01*
X16968Y9567D02*
X17008Y9606D01*
X16968Y9252D02*
Y9567D01*
X16929Y9213D02*
X16968Y9252D01*
X16850Y9213D02*
X16929D01*
X16811Y9252D02*
X16850Y9213D01*
X16811Y9252D02*
Y9567D01*
X16772Y9606D02*
X16811Y9567D01*
X16693Y9606D02*
X16772D01*
X16654Y9567D02*
X16693Y9606D01*
X16654Y9252D02*
Y9567D01*
X16614Y9213D02*
X16654Y9252D01*
X16535Y9213D02*
X16614D01*
X16496Y9252D02*
X16535Y9213D01*
X16496Y9252D02*
Y9567D01*
X16457Y9606D02*
X16496Y9567D01*
X16378Y9606D02*
X16457D01*
X16339Y9567D02*
X16378Y9606D01*
X16339Y9252D02*
Y9567D01*
X16299Y9213D02*
X16339Y9252D01*
X16220Y9213D02*
X16299D01*
X16181Y9252D02*
X16220Y9213D01*
X16181Y9252D02*
Y9567D01*
X16142Y9606D02*
X16181Y9567D01*
X16063Y9606D02*
X16142D01*
X16024Y9567D02*
X16063Y9606D01*
X16024Y9449D02*
Y9567D01*
X15984Y9409D02*
X16024Y9449D01*
X11929Y9409D02*
X15984D01*
X11890Y9449D02*
X11929Y9409D01*
X11890Y9449D02*
Y9685D01*
X11850Y9724D02*
X11890Y9685D01*
X11614Y9724D02*
X11850D01*
X11575Y9764D02*
X11614Y9724D01*
X11575Y9764D02*
Y10315D01*
X11614Y10354D01*
X11890D01*
X12047Y10512D01*
X26535Y10945D02*
X26575Y10906D01*
Y10315D02*
Y10906D01*
X23465Y10945D02*
X26535D01*
X25630Y10315D02*
Y10787D01*
X26535Y10276D02*
X26575Y10315D01*
X26457Y10276D02*
X26535D01*
X26417Y10315D02*
X26457Y10276D01*
X26417Y10315D02*
Y10787D01*
X26378Y10827D02*
X26417Y10787D01*
X26299Y10827D02*
X26378D01*
X26260Y10787D02*
X26299Y10827D01*
X26260Y10315D02*
Y10787D01*
X26260Y10315D02*
X26260D01*
X26220Y10276D02*
X26260Y10315D01*
X26142Y10276D02*
X26220D01*
X26102Y10315D02*
X26142Y10276D01*
X26102Y10315D02*
Y10787D01*
X26063Y10827D02*
X26102Y10787D01*
X25984Y10827D02*
X26063D01*
X25945Y10787D02*
X25984Y10827D01*
X25945Y10315D02*
Y10787D01*
X25906Y10276D02*
X25945Y10315D01*
X25827Y10276D02*
X25906D01*
X25787Y10315D02*
X25827Y10276D01*
X25787Y10315D02*
Y10787D01*
X25748Y10827D02*
X25787Y10787D01*
X25669Y10827D02*
X25748D01*
X25630Y10787D02*
X25669Y10827D01*
X25472Y10315D02*
Y10787D01*
X25315Y10315D02*
Y10787D01*
X25157Y10315D02*
Y10787D01*
X25000Y10315D02*
Y10787D01*
X24843Y10315D02*
Y10787D01*
X25591Y10276D02*
X25630Y10315D01*
X25512Y10276D02*
X25591D01*
X25472Y10315D02*
X25512Y10276D01*
X25433Y10827D02*
X25472Y10787D01*
X25354Y10827D02*
X25433D01*
X25315Y10787D02*
X25354Y10827D01*
X25276Y10276D02*
X25315Y10315D01*
X25197Y10276D02*
X25276D01*
X25157Y10315D02*
X25197Y10276D01*
X25118Y10827D02*
X25157Y10787D01*
X25039Y10827D02*
X25118D01*
X25000Y10787D02*
X25039Y10827D01*
X24961Y10276D02*
X25000Y10315D01*
X24882Y10276D02*
X24961D01*
X24843Y10315D02*
X24882Y10276D01*
X24803Y10827D02*
X24843Y10787D01*
X24724Y10827D02*
X24803D01*
X24685Y10787D02*
X24724Y10827D01*
X24685Y10394D02*
Y10787D01*
X24567Y10354D02*
X24646D01*
X24685Y10394D01*
X24528D02*
Y10787D01*
Y10394D02*
X24567Y10354D01*
X24358Y10145D02*
Y10775D01*
X24488Y10827D02*
X24528Y10787D01*
X24409Y10827D02*
X24488D01*
X24358Y10775D02*
X24409Y10827D01*
X24331Y10118D02*
X24358Y10145D01*
X24252Y10118D02*
X24331D01*
X24213Y10157D02*
X24252Y10118D01*
X23898Y10157D02*
Y10787D01*
X23858Y10827D02*
X23898Y10787D01*
X23780Y10827D02*
X23858D01*
X23740Y10787D02*
X23780Y10827D01*
X24055Y10157D02*
Y10787D01*
X23740Y10157D02*
Y10787D01*
X23583Y10157D02*
Y10709D01*
X24213Y10157D02*
Y10787D01*
X24173Y10827D02*
X24213Y10787D01*
X24094Y10827D02*
X24173D01*
X24055Y10787D02*
X24094Y10827D01*
X24016Y10118D02*
X24055Y10157D01*
X23937Y10118D02*
X24016D01*
X23898Y10157D02*
X23937Y10118D01*
X23701D02*
X23740Y10157D01*
X23622Y10118D02*
X23701D01*
X23583Y10157D02*
X23622Y10118D01*
X23543Y10748D02*
X23583Y10709D01*
X23465Y10748D02*
X23543D01*
X23425Y10709D02*
X23465Y10748D01*
X22087Y10709D02*
X22402Y10394D01*
X11929Y10709D02*
X22087D01*
X23110Y10591D02*
X23465Y10945D01*
X11732Y10512D02*
X11929Y10709D01*
X21811Y9488D02*
X21850Y9528D01*
X21732Y9488D02*
X21811D01*
X21693Y9528D02*
X21732Y9488D01*
X21693Y9528D02*
Y9882D01*
X21654Y9921D02*
X21693Y9882D01*
X21339Y9921D02*
X21654D01*
X17913D02*
X21102D01*
X21299Y9882D02*
X21339Y9921D01*
X21299Y9528D02*
Y9882D01*
X21260Y9488D02*
X21299Y9528D01*
X21181Y9488D02*
X21260D01*
X21142Y9528D02*
X21181Y9488D01*
X21142Y9528D02*
Y9882D01*
X21102Y9921D02*
X21142Y9882D01*
X17874Y9961D02*
X17913Y9921D01*
X17874Y9961D02*
Y10197D01*
X17835Y10236D02*
X17874Y10197D01*
X17756Y10236D02*
X17835D01*
X17717Y10197D02*
X17756Y10236D01*
X17717Y9882D02*
Y10197D01*
X17559Y9882D02*
Y10197D01*
X17402Y9882D02*
Y10197D01*
X17244Y9882D02*
Y10197D01*
X17087Y9882D02*
Y10197D01*
X16929Y9882D02*
Y10197D01*
X17677Y9843D02*
X17717Y9882D01*
X17598Y9843D02*
X17677D01*
X17559Y9882D02*
X17598Y9843D01*
X17520Y10236D02*
X17559Y10197D01*
X17441Y10236D02*
X17520D01*
X17402Y10197D02*
X17441Y10236D01*
X17362Y9843D02*
X17402Y9882D01*
X17283Y9843D02*
X17362D01*
X17244Y9882D02*
X17283Y9843D01*
X17205Y10236D02*
X17244Y10197D01*
X17126Y10236D02*
X17205D01*
X17087Y10197D02*
X17126Y10236D01*
X17047Y9843D02*
X17087Y9882D01*
X16968Y9843D02*
X17047D01*
X16929Y9882D02*
X16968Y9843D01*
X16890Y10236D02*
X16929Y10197D01*
X16811Y10236D02*
X16890D01*
X16772Y10197D02*
X16811Y10236D01*
X16772Y10079D02*
Y10197D01*
X16732Y10039D02*
X16772Y10079D01*
X11890Y10039D02*
X16732D01*
X11732Y9882D02*
X11890Y10039D01*
X11732Y9882D02*
X11732D01*
X22795Y7795D02*
Y8937D01*
X21614Y7795D02*
X21654Y7756D01*
X22362D01*
X22402Y7717D01*
X22559Y7756D02*
X22638Y7835D01*
Y8937D01*
X22677Y8976D01*
X22756D01*
X22795Y8937D01*
X21496Y6417D02*
X21535Y6378D01*
X21496Y6417D02*
Y8150D01*
X20551Y9094D02*
X21496Y8150D01*
X11575Y9094D02*
X20551D01*
X11575D02*
Y9094D01*
X11417Y9252D02*
X11575Y9094D01*
X23150Y11417D02*
X23268Y11299D01*
X23031Y11417D02*
X23150D01*
X23386Y11102D02*
X26654D01*
X23268Y10984D02*
X23386Y11102D01*
X21575Y10079D02*
Y10551D01*
X21693Y10591D02*
X21732Y10551D01*
X21614Y10591D02*
X21693D01*
X21575Y10551D02*
X21614Y10591D01*
X21535Y10039D02*
X21575Y10079D01*
X21457Y10039D02*
X21535D01*
X21417Y10079D02*
X21457Y10039D01*
X21417Y10079D02*
Y10551D01*
X21260Y10079D02*
Y10551D01*
X21102Y10079D02*
Y10551D01*
X20945Y10079D02*
Y10551D01*
X20787Y10079D02*
Y10551D01*
X20630Y10079D02*
Y10551D01*
X20472Y10079D02*
Y10551D01*
X21378Y10591D02*
X21417Y10551D01*
X21299Y10591D02*
X21378D01*
X21260Y10551D02*
X21299Y10591D01*
X21220Y10039D02*
X21260Y10079D01*
X21142Y10039D02*
X21220D01*
X21102Y10079D02*
X21142Y10039D01*
X21063Y10591D02*
X21102Y10551D01*
X20984Y10591D02*
X21063D01*
X20945Y10551D02*
X20984Y10591D01*
X20906Y10039D02*
X20945Y10079D01*
X20827Y10039D02*
X20906D01*
X20787Y10079D02*
X20827Y10039D01*
X20748Y10591D02*
X20787Y10551D01*
X20669Y10591D02*
X20748D01*
X20630Y10551D02*
X20669Y10591D01*
X20591Y10039D02*
X20630Y10079D01*
X20512Y10039D02*
X20591D01*
X20472Y10079D02*
X20512Y10039D01*
X20433Y10591D02*
X20472Y10551D01*
X20354Y10591D02*
X20433D01*
X20315Y10551D02*
X20354Y10591D01*
X20315Y10394D02*
Y10551D01*
X20276Y10354D02*
X20315Y10394D01*
X19567Y10354D02*
X20276D01*
X26654Y11102D02*
X26772Y10984D01*
Y10236D02*
Y10984D01*
X26654Y10118D02*
X26772Y10236D01*
X25079Y10118D02*
X26654D01*
X24882Y9921D02*
X25079Y10118D01*
X19528Y10394D02*
X19567Y10354D01*
X19528Y10394D02*
Y10551D01*
X19488Y10591D02*
X19528Y10551D01*
X19409Y10591D02*
X19488D01*
X19370Y10551D02*
X19409Y10591D01*
X19370Y10079D02*
Y10551D01*
X19331Y10039D02*
X19370Y10079D01*
X19252Y10039D02*
X19331D01*
X19213Y10079D02*
X19252Y10039D01*
X19213Y10079D02*
Y10551D01*
X19173Y10591D02*
X19213Y10551D01*
X19094Y10591D02*
X19173D01*
X19055Y10551D02*
X19094Y10591D01*
X19055Y10079D02*
Y10551D01*
X19016Y10039D02*
X19055Y10079D01*
X18937Y10039D02*
X19016D01*
X18898Y10079D02*
X18937Y10039D01*
X18898Y10079D02*
Y10551D01*
X18858Y10591D02*
X18898Y10551D01*
X18780Y10591D02*
X18858D01*
X18740Y10551D02*
X18780Y10591D01*
X18740Y10079D02*
Y10551D01*
X18701Y10039D02*
X18740Y10079D01*
X18622Y10039D02*
X18701D01*
X18583Y10079D02*
X18622Y10039D01*
X18583Y10079D02*
Y10551D01*
X18543Y10591D02*
X18583Y10551D01*
X18465Y10591D02*
X18543D01*
X18425Y10551D02*
X18465Y10591D01*
X18425Y10079D02*
Y10551D01*
X18386Y10039D02*
X18425Y10079D01*
X18307Y10039D02*
X18386D01*
X18268Y10079D02*
X18307Y10039D01*
X18268Y10079D02*
Y10551D01*
X18228Y10591D02*
X18268Y10551D01*
X18150Y10591D02*
X18228D01*
X18110Y10551D02*
X18150Y10591D01*
X18110Y10394D02*
Y10551D01*
X18074Y10358D02*
X18110Y10394D01*
X12523Y10358D02*
X18074D01*
X12362Y10197D02*
X12523Y10358D01*
X20315Y11063D02*
Y11378D01*
X20472Y11063D02*
Y11378D01*
X20433Y11024D02*
X20472Y11063D01*
X20354Y11024D02*
X20433D01*
X20315Y11063D02*
X20354Y11024D01*
X19488Y10827D02*
X19528Y10866D01*
X19409Y10827D02*
X19488D01*
X19370Y10866D02*
X19409Y10827D01*
X22953Y10709D02*
X22992Y10748D01*
X22874Y10709D02*
X22953D01*
X22835Y10748D02*
X22874Y10709D01*
X22323Y10827D02*
X22362Y10866D01*
X22205D02*
X22244Y10827D01*
X22323D01*
X22992Y10748D02*
Y11378D01*
X22835Y10748D02*
Y11378D01*
X22362Y10866D02*
Y11378D01*
X22205Y10866D02*
Y11378D01*
X22992D02*
X23031Y11417D01*
X22795D02*
X22835Y11378D01*
X22717Y11417D02*
X22795D01*
X22677Y11378D02*
X22717Y11417D01*
X22480D02*
X22520Y11378D01*
X22402Y11417D02*
X22480D01*
X22362Y11378D02*
X22402Y11417D01*
X22165D02*
X22205Y11378D01*
X22087Y11417D02*
X22165D01*
X22047Y11378D02*
X22087Y11417D01*
X21850D02*
X21890Y11378D01*
X21772Y11417D02*
X21850D01*
X21732Y11378D02*
X21772Y11417D01*
X21535D02*
X21575Y11378D01*
X21457Y11417D02*
X21535D01*
X21417Y11378D02*
X21457Y11417D01*
X21417Y11063D02*
Y11378D01*
X21378Y11024D02*
X21417Y11063D01*
X21299Y11024D02*
X21378D01*
X21260Y11063D02*
X21299Y11024D01*
X21260Y11063D02*
Y11378D01*
X21220Y11417D02*
X21260Y11378D01*
X21142Y11417D02*
X21220D01*
X21102Y11378D02*
X21142Y11417D01*
X21102Y10866D02*
Y11378D01*
X20945Y10866D02*
Y11378D01*
X20906Y11417D02*
X20945Y11378D01*
X20827Y11417D02*
X20906D01*
X20787Y11378D02*
X20827Y11417D01*
X20787Y10866D02*
Y11378D01*
X20748Y10827D02*
X20787Y10866D01*
X20669Y10827D02*
X20748D01*
X20630Y10866D02*
X20669Y10827D01*
X20630Y10866D02*
Y11378D01*
X20591Y11417D02*
X20630Y11378D01*
X20512Y11417D02*
X20591D01*
X20472Y11378D02*
X20512Y11417D01*
X20276D02*
X20315Y11378D01*
X20197Y11417D02*
X20276D01*
X20157Y11378D02*
X20197Y11417D01*
X20157Y10866D02*
Y11378D01*
X20118Y10827D02*
X20157Y10866D01*
X20039Y10827D02*
X20118D01*
X20000Y10866D02*
X20039Y10827D01*
X20000Y10866D02*
Y11378D01*
X19961Y11417D02*
X20000Y11378D01*
X19882Y11417D02*
X19961D01*
X19843Y11378D02*
X19882Y11417D01*
X19646D02*
X19685Y11378D01*
X19567Y11417D02*
X19646D01*
X19528Y11378D02*
X19567Y11417D01*
X19528Y10866D02*
Y11378D01*
X19370Y10866D02*
Y11378D01*
X19331Y11417D02*
X19370Y11378D01*
X19252Y11417D02*
X19331D01*
X19213Y11378D02*
X19252Y11417D01*
X19213Y10866D02*
Y11378D01*
X19173Y10827D02*
X19213Y10866D01*
X19094Y10827D02*
X19173D01*
X19055Y10866D02*
X19094Y10827D01*
X19055Y10866D02*
Y11378D01*
X19016Y11417D02*
X19055Y11378D01*
X18937Y11417D02*
X19016D01*
X18898Y11378D02*
X18937Y11417D01*
X18898Y10866D02*
Y11378D01*
X18858Y10827D02*
X18898Y10866D01*
X18780Y10827D02*
X18858D01*
X18740Y10866D02*
X18780Y10827D01*
X18740Y10866D02*
Y11378D01*
X18701Y11417D02*
X18740Y11378D01*
X18622Y11417D02*
X18701D01*
X18583Y11378D02*
X18622Y11417D01*
X18583Y10866D02*
Y11378D01*
X18543Y10827D02*
X18583Y10866D01*
X18465Y10827D02*
X18543D01*
X18425Y10866D02*
X18465Y10827D01*
X18425Y10866D02*
Y11378D01*
X18386Y11417D02*
X18425Y11378D01*
X18307Y11417D02*
X18386D01*
X18268Y11378D02*
X18307Y11417D01*
X18268Y11063D02*
Y11378D01*
X18228Y11024D02*
X18268Y11063D01*
X18150Y11024D02*
X18228D01*
X18110Y11063D02*
X18150Y11024D01*
X18110Y11063D02*
Y11378D01*
X18071Y11417D02*
X18110Y11378D01*
X17992Y11417D02*
X18071D01*
X17953Y11378D02*
X17992Y11417D01*
X17953Y11063D02*
Y11378D01*
X17913Y11024D02*
X17953Y11063D01*
X17835Y11024D02*
X17913D01*
X17795Y11063D02*
X17835Y11024D01*
X17795Y11063D02*
Y11378D01*
X17756Y11417D02*
X17795Y11378D01*
X17677Y11417D02*
X17756D01*
X17638Y11378D02*
X17677Y11417D01*
X17638Y11063D02*
Y11378D01*
X17598Y11024D02*
X17638Y11063D01*
X17520Y11024D02*
X17598D01*
X17480Y11063D02*
X17520Y11024D01*
X17480Y11063D02*
Y11378D01*
X17441Y11417D02*
X17480Y11378D01*
X17362Y11417D02*
X17441D01*
X17323Y11378D02*
X17362Y11417D01*
X17323Y10866D02*
Y11378D01*
X17283Y10827D02*
X17323Y10866D01*
X17205Y10827D02*
X17283D01*
X17165Y10866D02*
X17205Y10827D01*
X17165Y10866D02*
Y11378D01*
X17126Y11417D02*
X17165Y11378D01*
X17047Y11417D02*
X17126D01*
X17008Y11378D02*
X17047Y11417D01*
X17008Y11063D02*
Y11378D01*
X16968Y11024D02*
X17008Y11063D01*
X16890Y11024D02*
X16968D01*
X16850Y11063D02*
X16890Y11024D01*
X16850Y11063D02*
Y11378D01*
X16811Y11417D02*
X16850Y11378D01*
X16732Y11417D02*
X16811D01*
X16693Y11378D02*
X16732Y11417D01*
X16693Y10866D02*
Y11378D01*
X16654Y10827D02*
X16693Y10866D01*
X16575Y10827D02*
X16654D01*
X16535Y10866D02*
X16575Y10827D01*
X16535Y10866D02*
Y11378D01*
X16496Y11417D02*
X16535Y11378D01*
X16417Y11417D02*
X16496D01*
X16378Y11378D02*
X16417Y11417D01*
X16378Y11063D02*
Y11378D01*
X16339Y11024D02*
X16378Y11063D01*
X11614Y11024D02*
X16339D01*
X11575Y10669D02*
Y10984D01*
X11417Y10512D02*
X11575Y10669D01*
Y10984D02*
X11614Y11024D01*
X27008Y4843D02*
X27953Y3898D01*
X24449Y4843D02*
X27008D01*
X27953Y2598D02*
Y3898D01*
X27087Y5000D02*
X28228Y3858D01*
X25251Y5000D02*
X27087D01*
X28228Y3268D02*
Y3858D01*
X27677Y2598D02*
Y3386D01*
X26378Y4685D02*
X27677Y3386D01*
X24370Y4685D02*
X26378D01*
X27402Y2598D02*
Y3425D01*
X26305Y4521D02*
X27402Y3425D01*
X24298Y4521D02*
X26305D01*
X19409Y8622D02*
X20394Y7638D01*
Y6181D02*
Y7638D01*
Y6181D02*
X20984Y5591D01*
X23228D01*
X20394Y7992D02*
X20551D01*
X19764Y8622D02*
X19803D01*
X21142Y6260D02*
Y7913D01*
X20433Y8622D02*
X21142Y7913D01*
X27126Y5157D02*
X28465Y3819D01*
X28228Y3268D02*
X28465Y3031D01*
Y3307D02*
Y3819D01*
X15197Y8937D02*
X15354Y8780D01*
X15984D02*
X16142Y8937D01*
X15354Y8780D02*
X15984D01*
X25315Y5157D02*
X27126D01*
X20512Y8937D02*
X21339Y8110D01*
Y6299D02*
Y8110D01*
X16142Y8937D02*
X20512D01*
X20748Y6102D02*
Y7795D01*
X21339Y6299D02*
X21417Y6220D01*
X24252D01*
X25315Y5157D01*
X21142Y6260D02*
X21339Y6063D01*
X24188D01*
X25251Y5000D01*
X21260Y5906D02*
X23386D01*
X24449Y4843D01*
X20748Y6102D02*
X21102Y5748D01*
X23307D01*
X24370Y4685D01*
X23228Y5591D02*
X24298Y4521D01*
X20551Y7992D02*
X20748Y7795D01*
X19764Y8622D02*
X20394Y7992D01*
D70*
X5827Y9094D02*
X5984Y8937D01*
X4449Y9094D02*
X5827D01*
X3110Y7756D02*
X4449Y9094D01*
%TF.MD5,608bbe2c585aaedb6f6e1024dfc4cbe2*%
M02*
