G04 Layer_Physical_Order=4*
G04 Layer_Color=16440176*
%FSLAX24Y24*%
%MOIN*%
%TF.FileFunction,Copper,L4,Inr,Signal*%
%TF.Part,Single*%
G01*
G75*
%TA.AperFunction,Conductor*%
%ADD42C,0.0060*%
%TA.AperFunction,NonConductor*%
%ADD55C,0.0100*%
%TA.AperFunction,ViaPad*%
%ADD59C,0.0160*%
%ADD60C,0.0180*%
%TA.AperFunction,TestPad*%
%ADD61C,0.0160*%
%TA.AperFunction,ViaPad*%
%ADD62C,0.0170*%
%TA.AperFunction,Conductor*%
%ADD68C,0.0045*%
%ADD69C,0.0040*%
%ADD70C,0.0064*%
D42*
X9685Y10039D02*
X9843Y9882D01*
X9094Y10039D02*
X9685D01*
X6969Y6850D02*
X7008Y6890D01*
X6969Y6732D02*
Y6850D01*
X6929Y6693D02*
X6969Y6732D01*
X6811Y6693D02*
X6929D01*
X6772Y6732D02*
X6811Y6693D01*
X6772Y6732D02*
Y6850D01*
X6575Y7047D02*
X6772Y6850D01*
X6850Y5472D02*
X6969D01*
X6811Y5433D02*
X6850Y5472D01*
X6811Y5315D02*
Y5433D01*
X7008Y5315D02*
Y5433D01*
X6969Y5472D02*
X7008Y5433D01*
X6772Y5276D02*
X6811Y5315D01*
X6654Y5276D02*
X6772D01*
X6614Y5315D02*
X6654Y5276D01*
X6614Y5315D02*
Y5433D01*
X7008Y5315D02*
X7047Y5276D01*
X7165D01*
X7205Y5315D01*
Y5394D01*
X7244Y5433D01*
X9134D01*
X6299Y5748D02*
X6614Y5433D01*
X4331Y7520D02*
X4843D01*
X5000Y7677D01*
X5236Y7283D02*
X5315Y7362D01*
X4409Y7283D02*
X5236D01*
X4331Y7205D02*
X4409Y7283D01*
X4331Y6890D02*
X4843D01*
X4921Y6969D01*
X5236D01*
X5315Y7047D01*
X5315Y6732D02*
X5315D01*
X5157Y6575D02*
X5315Y6732D01*
X4331Y6575D02*
X5157D01*
X4331Y6260D02*
X5157D01*
X5315Y6417D01*
X4331Y5945D02*
X5157D01*
X5315Y6102D01*
X5315D01*
X7638Y9724D02*
X7795Y9567D01*
X7047Y9724D02*
X7638D01*
X9488D02*
X10630D01*
X9449Y9685D02*
X9488Y9724D01*
X9449Y9606D02*
Y9685D01*
X9409Y9567D02*
X9449Y9606D01*
X9291Y9567D02*
X9409D01*
X9252Y9606D02*
X9291Y9567D01*
X9252Y9606D02*
Y9843D01*
X9213Y9882D02*
X9252Y9843D01*
X9094Y9882D02*
X9213D01*
X9055Y9843D02*
X9094Y9882D01*
X9055Y9606D02*
Y9843D01*
X9016Y9567D02*
X9055Y9606D01*
X7795Y9567D02*
X9016D01*
X9488Y9094D02*
X10315D01*
X9449Y9134D02*
X9488Y9094D01*
X9291Y8622D02*
X9409D01*
X9252Y8661D02*
X9291Y8622D01*
X9252Y8661D02*
Y8937D01*
X9449Y8661D02*
Y8740D01*
X9409Y8622D02*
X9449Y8661D01*
X9488Y8780D02*
X10000D01*
X9449Y8740D02*
X9488Y8780D01*
X9213Y8976D02*
X9252Y8937D01*
X9094Y8976D02*
X9213D01*
X9055Y8937D02*
X9094Y8976D01*
X9055Y8819D02*
Y8937D01*
X9016Y8780D02*
X9055Y8819D01*
X8898Y8780D02*
X9016D01*
X8858Y8819D02*
X8898Y8780D01*
X8858Y8819D02*
Y8937D01*
X8819Y8976D02*
X8858Y8937D01*
X8701Y8976D02*
X8819D01*
X8661Y8937D02*
X8701Y8976D01*
X8661Y8819D02*
Y8937D01*
X8622Y8780D02*
X8661Y8819D01*
X5787Y8780D02*
X8622D01*
X10472Y7047D02*
X10630Y6890D01*
Y6260D02*
Y6890D01*
X10315Y5945D02*
X10630Y6260D01*
X10315Y5945D02*
Y5945D01*
X10000Y6575D02*
X10157Y6417D01*
X10787Y7047D02*
X10787D01*
X10630Y7205D02*
X10787Y7047D01*
X10630Y7205D02*
Y7480D01*
X10591Y7520D02*
X10630Y7480D01*
X6575Y7047D02*
Y7047D01*
X7205Y5787D02*
X7362Y5945D01*
X7205Y6102D02*
X7362Y6260D01*
X6575Y6102D02*
Y6102D01*
X7047Y6575D01*
X10787Y8937D02*
X10787D01*
X10906Y7835D02*
X10945Y7874D01*
Y8150D01*
X10787Y8307D02*
X10945Y8150D01*
X10630Y8780D02*
X10787Y8937D01*
X10591Y8150D02*
X10630Y8189D01*
Y8780D01*
X5315Y8937D02*
X5787Y8465D01*
X5630Y8937D02*
X5787Y8780D01*
X10000Y8465D02*
X10157Y8307D01*
X6575Y8937D02*
X6732Y9094D01*
X7638D01*
X7677Y9134D01*
X10000Y8780D02*
X10157Y8937D01*
X10315Y9094D02*
X10472Y8937D01*
X6890Y9882D02*
Y9882D01*
Y9882D02*
X7047Y9724D01*
X10630D02*
X10787Y9882D01*
X7205Y10197D02*
X7362Y10039D01*
X7638D01*
X7677Y10079D01*
Y10197D01*
X7717Y10236D01*
X7835D01*
X7874Y10197D01*
Y9882D02*
Y10197D01*
Y9882D02*
X7913Y9843D01*
X8031D01*
X8071Y9882D01*
Y10197D01*
X8110Y10236D01*
X8228D01*
X8268Y10197D01*
Y9882D02*
Y10197D01*
Y9882D02*
X8307Y9843D01*
X8425D01*
X8465Y9882D01*
Y10197D01*
X8504Y10236D01*
X8622D01*
X8661Y10197D01*
Y9882D02*
Y10197D01*
Y9882D02*
X8701Y9843D01*
X8819D01*
X8858Y9882D01*
Y10197D01*
X8898Y10236D01*
X9016D01*
X9055Y10197D01*
Y10079D02*
Y10197D01*
Y10079D02*
X9094Y10039D01*
X7362Y6260D02*
X7638D01*
X7677Y6220D01*
X9488Y7441D02*
Y7480D01*
X9409Y7559D02*
X9488Y7480D01*
X9370Y7559D02*
X9409D01*
X8346Y6535D02*
X9370Y7559D01*
X8307Y6535D02*
X8346D01*
X8228Y6614D02*
X8307Y6535D01*
X8228Y6614D02*
X8228D01*
X8228D02*
Y6654D01*
X9252Y7677D01*
X9528D01*
X9685Y7520D01*
X9764D01*
X9803Y7559D01*
X10000D02*
X10039Y7520D01*
X10591D01*
X6102Y6260D02*
X6417Y6575D01*
X6457D01*
X6535Y6496D01*
Y6457D02*
Y6496D01*
X6299Y6220D02*
X6535Y6457D01*
X6299Y6220D02*
Y6220D01*
X6220Y6142D02*
X6299Y6220D01*
X5984Y6339D02*
Y6378D01*
Y6339D02*
X6063Y6260D01*
X6102D01*
X5630Y6732D02*
X5945Y7047D01*
X5984D01*
X6063Y6969D01*
Y6929D02*
Y6969D01*
X5748Y6614D02*
X6063Y6929D01*
X5827Y6496D02*
X5866D01*
X5748Y6575D02*
X5827Y6496D01*
X5748Y6575D02*
Y6614D01*
X5866Y6496D02*
X6339Y6969D01*
X6378D01*
X6457Y6890D01*
Y6850D02*
Y6890D01*
X5984Y6378D02*
X6457Y6850D01*
X6220Y6142D02*
X6220D01*
X6220Y6102D02*
Y6142D01*
Y6102D02*
X6693Y5630D01*
X7362Y6890D02*
X8543Y8071D01*
Y8110D01*
X8465Y8189D02*
X8543Y8110D01*
X8425Y8189D02*
X8465D01*
X7756Y7520D02*
X8425Y8189D01*
X7717Y7520D02*
X7756D01*
X7638Y7598D02*
X7717Y7520D01*
X7638Y7598D02*
Y7638D01*
X8307Y8307D01*
X9567D01*
X9724Y8150D01*
X10591D01*
X7008Y6890D02*
X7362D01*
X7362Y6890D01*
X7047Y6575D02*
X7638D01*
X7756Y6693D01*
X7756D01*
Y6772D01*
X7638Y6890D02*
X7756Y6772D01*
X7638Y6890D02*
Y6929D01*
X7717Y7008D01*
X7756D01*
X8031Y6732D01*
X8071D01*
X8150Y6811D01*
Y6850D01*
X7874Y7126D02*
X8150Y6850D01*
X7874Y7126D02*
Y7165D01*
X7953Y7244D01*
X7992D01*
X8150Y7087D01*
X8228D01*
X8701Y7559D01*
Y8110D01*
X8740Y8150D01*
X9528D01*
X9567Y8110D01*
Y8031D02*
Y8110D01*
X9528Y7992D02*
X9567Y8031D01*
X8898Y7992D02*
X9528D01*
X8858Y7953D02*
X8898Y7992D01*
X8858Y7874D02*
Y7953D01*
Y7874D02*
X8898Y7835D01*
X7362Y5945D02*
X8268D01*
X6693Y5630D02*
X8937D01*
X9882Y6575D01*
X10000D01*
X9134Y5433D02*
X9646Y5945D01*
X10315D01*
X8268D02*
X9528Y7205D01*
X9567D01*
X9646Y7126D01*
Y7087D02*
Y7126D01*
X8583Y6024D02*
X9646Y7087D01*
X8583Y5984D02*
Y6024D01*
Y5984D02*
X8661Y5906D01*
X9685Y6575D02*
Y6850D01*
X9724Y6890D01*
X10276D01*
X10315Y6929D01*
Y7165D01*
X10276Y7205D02*
X10315Y7165D01*
X10000Y7205D02*
X10276D01*
X9843Y7362D02*
X10000Y7205D01*
X9843Y7362D02*
Y7362D01*
X5630Y6417D02*
X5906Y6142D01*
Y6102D02*
Y6142D01*
X5748Y5945D02*
X5906Y6102D01*
X5748Y5945D02*
X5748D01*
X5748Y5906D02*
Y5945D01*
Y5906D02*
X5827Y5827D01*
X5866D01*
X6024Y5984D01*
X6063D01*
X6142Y5906D01*
Y5866D02*
Y5906D01*
X5787Y5512D02*
X6142Y5866D01*
X5787Y5472D02*
Y5512D01*
Y5472D02*
X5866Y5394D01*
X5906D01*
X6260Y5748D01*
X6299D01*
X8661Y5906D02*
X8661D01*
X8780Y5787D01*
X8819D01*
X8898Y5866D01*
Y5906D01*
X8819Y5984D02*
X8898Y5906D01*
X8819Y5984D02*
Y6024D01*
X8898Y6102D01*
X8937D01*
X9016Y6024D01*
X9055D01*
X9134Y6102D01*
Y6142D01*
X9055Y6220D02*
X9134Y6142D01*
X9055Y6220D02*
Y6260D01*
X9134Y6339D01*
X9173D01*
X9252Y6260D01*
X9291D01*
X9370Y6339D01*
Y6378D01*
X9291Y6457D02*
X9370Y6378D01*
X9291Y6457D02*
Y6496D01*
X9370Y6575D01*
X9409D01*
X9488Y6496D01*
X9606D01*
X9685Y6575D01*
X7677Y6161D02*
X7736Y6102D01*
X8150D01*
X7677Y6161D02*
Y6220D01*
X8150Y6102D02*
X9488Y7441D01*
X9803Y7559D02*
Y7638D01*
X10000Y7559D02*
Y7638D01*
X8898Y7835D02*
X10906D01*
X9961Y7677D02*
X10000Y7638D01*
X9803D02*
X9843Y7677D01*
X9961D01*
X8110Y8465D02*
X10000D01*
X7441D02*
X7480Y8425D01*
Y8307D02*
Y8425D01*
Y8307D02*
X7520Y8268D01*
X7638D01*
X7677Y8307D01*
Y8425D01*
X7717Y8465D01*
X5787D02*
X7441D01*
X7835D02*
X7874Y8425D01*
Y8307D02*
Y8425D01*
Y8307D02*
X7913Y8268D01*
X8031D01*
X8071Y8307D01*
Y8425D01*
X8110Y8465D01*
X7717D02*
X7835D01*
X7677Y9134D02*
Y9291D01*
X7717Y9331D01*
X7835D01*
X7874Y9291D01*
Y8976D02*
Y9291D01*
X8071Y8976D02*
Y9291D01*
X8110Y9331D01*
X8228D01*
X8268Y9291D01*
Y8976D02*
Y9291D01*
X8465Y8976D02*
Y9291D01*
X8504Y9331D01*
X8622D01*
X8661Y9291D01*
Y9173D02*
Y9291D01*
X8858Y9173D02*
Y9291D01*
X8898Y9331D01*
X9016D01*
X9055Y9291D01*
Y9173D02*
Y9291D01*
X9252Y9173D02*
Y9291D01*
X9291Y9331D01*
X9409D01*
X9449Y9291D01*
Y9134D02*
Y9291D01*
X7874Y8976D02*
X7913Y8937D01*
X8031D01*
X8071Y8976D01*
X8268D02*
X8307Y8937D01*
X8425D01*
X8465Y8976D01*
X8661Y9173D02*
X8701Y9134D01*
X8819D01*
X8858Y9173D01*
X9055D02*
X9094Y9134D01*
X9213D01*
X9252Y9173D01*
D55*
X-30400Y7400D02*
Y6800D01*
X-30000D01*
X-29700Y7200D02*
X-29500D01*
X-29400Y7100D01*
Y6800D01*
X-29700D01*
X-29800Y6900D01*
X-29700Y7000D01*
X-29400D01*
X-29200Y7200D02*
Y6900D01*
X-29100Y6800D01*
X-28801D01*
Y6700D01*
X-28900Y6600D01*
X-29000D01*
X-28801Y6800D02*
Y7200D01*
X-28301Y6800D02*
X-28501D01*
X-28601Y6900D01*
Y7100D01*
X-28501Y7200D01*
X-28301D01*
X-28201Y7100D01*
Y7000D01*
X-28601D01*
X-28001Y7200D02*
Y6800D01*
Y7000D01*
X-27901Y7100D01*
X-27801Y7200D01*
X-27701D01*
X-26501Y6800D02*
Y7400D01*
X-26801Y7100D01*
X-26401D01*
X-25602D02*
X-25202D01*
X-24002Y7300D02*
X-24102Y7400D01*
X-24302D01*
X-24402Y7300D01*
Y7200D01*
X-24302Y7100D01*
X-24102D01*
X-24002Y7000D01*
Y6900D01*
X-24102Y6800D01*
X-24302D01*
X-24402Y6900D01*
X-23802Y6800D02*
X-23602D01*
X-23702D01*
Y7200D01*
X-23802D01*
X-23102Y6600D02*
X-23002D01*
X-22902Y6700D01*
Y7200D01*
X-23202D01*
X-23302Y7100D01*
Y6900D01*
X-23202Y6800D01*
X-22902D01*
X-22702D02*
Y7200D01*
X-22403D01*
X-22303Y7100D01*
Y6800D01*
X-22003Y7200D02*
X-21803D01*
X-21703Y7100D01*
Y6800D01*
X-22003D01*
X-22103Y6900D01*
X-22003Y7000D01*
X-21703D01*
X-21503Y6800D02*
X-21303D01*
X-21403D01*
Y7400D01*
X-21503D01*
X-20203Y6800D02*
X-20403Y7000D01*
Y7200D01*
X-20203Y7400D01*
X-19504Y7300D02*
X-19603Y7400D01*
X-19803D01*
X-19903Y7300D01*
Y6900D01*
X-19803Y6800D01*
X-19603D01*
X-19504Y6900D01*
X-19204Y6800D02*
X-19004D01*
X-18904Y6900D01*
Y7100D01*
X-19004Y7200D01*
X-19204D01*
X-19304Y7100D01*
Y6900D01*
X-19204Y6800D01*
X-18704Y6600D02*
Y7200D01*
X-18404D01*
X-18304Y7100D01*
Y6900D01*
X-18404Y6800D01*
X-18704D01*
X-18104Y6600D02*
Y7200D01*
X-17804D01*
X-17704Y7100D01*
Y6900D01*
X-17804Y6800D01*
X-18104D01*
X-17204D02*
X-17404D01*
X-17504Y6900D01*
Y7100D01*
X-17404Y7200D01*
X-17204D01*
X-17104Y7100D01*
Y7000D01*
X-17504D01*
X-16904Y7200D02*
Y6800D01*
Y7000D01*
X-16804Y7100D01*
X-16704Y7200D01*
X-16604D01*
X-16305Y6800D02*
X-16105Y7000D01*
Y7200D01*
X-16305Y7400D01*
D59*
X25591Y2047D02*
D03*
X25906D02*
D03*
X25157D02*
D03*
X22913Y3307D02*
D03*
X22638D02*
D03*
X22244D02*
D03*
X21929D02*
D03*
X21535D02*
D03*
X21142D02*
D03*
X20827D02*
D03*
X20512D02*
D03*
X20197D02*
D03*
X21024Y1732D02*
D03*
X17323Y2283D02*
D03*
X17795D02*
D03*
X18110D02*
D03*
X18425D02*
D03*
X18740D02*
D03*
X19055D02*
D03*
X19370D02*
D03*
X20079Y2047D02*
D03*
X20157Y1732D02*
D03*
X20472Y2047D02*
D03*
X21142D02*
D03*
X21732Y1732D02*
D03*
X22362Y2047D02*
D03*
Y1732D02*
D03*
X21732Y2047D02*
D03*
X22756D02*
D03*
X23504D02*
D03*
X23583Y1575D02*
D03*
X23150D02*
D03*
X24291D02*
D03*
X24567Y2047D02*
D03*
X23937D02*
D03*
X24882Y1575D02*
D03*
X16811Y2008D02*
D03*
X16575Y2283D02*
D03*
X15748Y2008D02*
D03*
X16142Y1850D02*
D03*
X13189Y2559D02*
D03*
X13346Y2756D02*
D03*
X12598Y2047D02*
D03*
X12835Y2559D02*
D03*
X11496D02*
D03*
X11693Y1260D02*
D03*
X11890Y2559D02*
D03*
X12283D02*
D03*
X11299Y3031D02*
D03*
X11063Y2047D02*
D03*
Y2559D02*
D03*
X10354Y2047D02*
D03*
X9646D02*
D03*
X8937D02*
D03*
X8701Y3031D02*
D03*
X8465Y2559D02*
D03*
Y2047D02*
D03*
X7756D02*
D03*
X7047D02*
D03*
X10472Y2559D02*
D03*
X10000D02*
D03*
X9528D02*
D03*
X7874D02*
D03*
X7402D02*
D03*
X6929D02*
D03*
X30748Y6063D02*
D03*
X30591Y3937D02*
D03*
X30945Y3307D02*
D03*
X22559Y10866D02*
D03*
X23031Y7913D02*
D03*
X21870Y8110D02*
D03*
X22441Y7913D02*
D03*
X12047Y10512D02*
D03*
X11732D02*
D03*
Y9882D02*
D03*
X11417Y9252D02*
D03*
X23268Y11299D02*
D03*
Y10984D02*
D03*
X12362Y10197D02*
D03*
X11417Y10512D02*
D03*
X23819Y8031D02*
D03*
Y8346D02*
D03*
X24173Y11339D02*
D03*
X26063Y9882D02*
D03*
X26457D02*
D03*
Y4055D02*
D03*
X26220Y4252D02*
D03*
X27677Y3898D02*
D03*
X27480Y4094D02*
D03*
X29606Y4134D02*
D03*
X28819Y3937D02*
D03*
X28425Y4134D02*
D03*
X30039Y3937D02*
D03*
X25591Y4331D02*
D03*
X15197Y2165D02*
D03*
X11417Y4213D02*
D03*
X24528Y9606D02*
D03*
X16220Y3189D02*
D03*
X16457D02*
D03*
X14961Y1457D02*
D03*
X27953Y2598D02*
D03*
X27402D02*
D03*
X27677D02*
D03*
X23819Y3307D02*
D03*
X23425D02*
D03*
X23189D02*
D03*
X24449D02*
D03*
X24055D02*
D03*
X24685D02*
D03*
X9843Y9882D02*
D03*
X11732Y5787D02*
D03*
X19528Y4764D02*
D03*
Y4528D02*
D03*
X11102Y9252D02*
D03*
X26063Y11417D02*
D03*
X19409Y8622D02*
D03*
X19803D02*
D03*
X20118D02*
D03*
X20433D02*
D03*
X19055D02*
D03*
X25669Y3661D02*
D03*
X28661Y3465D02*
D03*
X16457Y8622D02*
D03*
X15512Y8937D02*
D03*
X15827D02*
D03*
X14567Y8307D02*
D03*
X14882Y7992D02*
D03*
X14567D02*
D03*
X14882Y8307D02*
D03*
Y7677D02*
D03*
X15197Y8307D02*
D03*
X15512D02*
D03*
X15827D02*
D03*
X15197Y7677D02*
D03*
X16457D02*
D03*
X16142Y7992D02*
D03*
X16457Y7047D02*
D03*
X14252Y7992D02*
D03*
X15827Y7677D02*
D03*
Y7992D02*
D03*
X15512Y7677D02*
D03*
X13937Y8622D02*
D03*
X14567Y7677D02*
D03*
X15197Y7362D02*
D03*
X13937Y7992D02*
D03*
X14252Y7677D02*
D03*
X15827Y7047D02*
D03*
X14882Y7362D02*
D03*
Y7047D02*
D03*
X27047Y2441D02*
D03*
X15827Y8622D02*
D03*
X14882D02*
D03*
X15197D02*
D03*
X14567D02*
D03*
X15197Y9252D02*
D03*
X15512D02*
D03*
Y8622D02*
D03*
X26457Y1339D02*
D03*
X26732Y1535D02*
D03*
X26969Y1299D02*
D03*
X28465Y3031D02*
D03*
Y3307D02*
D03*
X28504Y1732D02*
D03*
X31299Y5709D02*
D03*
X11732Y9567D02*
D03*
X12047Y8937D02*
D03*
X12677Y9567D02*
D03*
Y9252D02*
D03*
X29843Y3465D02*
D03*
X29488Y3031D02*
D03*
X29016Y3583D02*
D03*
X13937Y9567D02*
D03*
Y10197D02*
D03*
X14252D02*
D03*
X14567Y10512D02*
D03*
X30039Y3031D02*
D03*
X20748Y9528D02*
D03*
X15197Y9882D02*
D03*
Y9567D02*
D03*
X14567Y10197D02*
D03*
X13622Y9882D02*
D03*
Y10197D02*
D03*
X14252Y9567D02*
D03*
X14882Y8937D02*
D03*
X15197D02*
D03*
X15827Y9882D02*
D03*
X18110Y9567D02*
D03*
X14882D02*
D03*
X20394Y9528D02*
D03*
X14567Y9567D02*
D03*
X13937Y9882D02*
D03*
X12047D02*
D03*
X13740Y2756D02*
D03*
X14488Y1693D02*
D03*
Y1299D02*
D03*
X14252Y1693D02*
D03*
X13386D02*
D03*
X15827Y5157D02*
D03*
X15512D02*
D03*
X15827Y6102D02*
D03*
Y6417D02*
D03*
X15512Y6102D02*
D03*
X15197Y6417D02*
D03*
X14567Y5157D02*
D03*
X15512Y4213D02*
D03*
X15197D02*
D03*
X15512Y4843D02*
D03*
Y4528D02*
D03*
X15197D02*
D03*
Y4843D02*
D03*
X14567Y4528D02*
D03*
Y4843D02*
D03*
X14882Y5787D02*
D03*
X14252Y4843D02*
D03*
Y4528D02*
D03*
X13937Y3740D02*
D03*
X13622Y5157D02*
D03*
Y3898D02*
D03*
Y4213D02*
D03*
X12992Y4843D02*
D03*
X12992Y5157D02*
D03*
Y4213D02*
D03*
X13307Y4528D02*
D03*
X12992D02*
D03*
X12362D02*
D03*
X12047D02*
D03*
X12677Y5472D02*
D03*
X11417Y4843D02*
D03*
Y4528D02*
D03*
X12362Y5157D02*
D03*
X8110Y3031D02*
D03*
X7638D02*
D03*
X7165D02*
D03*
X6693D02*
D03*
X14252Y5472D02*
D03*
X13937Y5787D02*
D03*
Y4843D02*
D03*
X13622D02*
D03*
Y5472D02*
D03*
X16575Y10197D02*
D03*
X25276Y6142D02*
D03*
X14567Y8937D02*
D03*
X19724Y10118D02*
D03*
X20118Y10512D02*
D03*
X19724D02*
D03*
X14252Y6102D02*
D03*
X13622Y4528D02*
D03*
Y5787D02*
D03*
X13307D02*
D03*
X12677D02*
D03*
X11417Y5472D02*
D03*
X11102Y5157D02*
D03*
X9173Y1260D02*
D03*
X9882D02*
D03*
X9646Y1575D02*
D03*
X10354D02*
D03*
X10591Y1260D02*
D03*
X11063Y1575D02*
D03*
X11299Y1260D02*
D03*
X8701D02*
D03*
X8465Y1575D02*
D03*
X7992Y1260D02*
D03*
X7756Y1575D02*
D03*
X7047D02*
D03*
X7283Y1260D02*
D03*
X6575D02*
D03*
X10787Y5157D02*
D03*
X10157Y4528D02*
D03*
X11102Y4213D02*
D03*
X11417Y5157D02*
D03*
X13307Y6417D02*
D03*
X15197Y10512D02*
D03*
X13307Y10197D02*
D03*
X10157Y5157D02*
D03*
X4331Y7520D02*
D03*
Y7205D02*
D03*
Y6890D02*
D03*
Y6575D02*
D03*
Y6260D02*
D03*
Y5945D02*
D03*
X11102Y10197D02*
D03*
X6575Y9567D02*
D03*
X5315Y6732D02*
D03*
X10787Y7362D02*
D03*
Y7047D02*
D03*
X10472D02*
D03*
X10157Y6417D02*
D03*
X10787Y7677D02*
D03*
X11102Y6732D02*
D03*
X8465Y7677D02*
D03*
X5315Y6102D02*
D03*
X10787Y7992D02*
D03*
X10157Y7362D02*
D03*
X9843Y7047D02*
D03*
X5315Y6417D02*
D03*
X11102Y7362D02*
D03*
X5315Y7047D02*
D03*
X11417Y6417D02*
D03*
X8465Y5787D02*
D03*
X10472D02*
D03*
X11102D02*
D03*
X9843Y6732D02*
D03*
X10157D02*
D03*
X13307Y5472D02*
D03*
X15512Y6732D02*
D03*
X12047Y8307D02*
D03*
X12362Y8937D02*
D03*
X11732D02*
D03*
X15669Y1535D02*
D03*
X16142Y1339D02*
D03*
X15197Y1299D02*
D03*
X12992Y8937D02*
D03*
X12677Y6417D02*
D03*
X12362D02*
D03*
X12677Y6102D02*
D03*
X12047Y6417D02*
D03*
X12362Y7677D02*
D03*
X12677Y7362D02*
D03*
X11732Y6417D02*
D03*
X5000Y9882D02*
D03*
Y9567D02*
D03*
X7205Y9252D02*
D03*
X7520Y8937D02*
D03*
Y8622D02*
D03*
X10472Y6732D02*
D03*
X11102Y7047D02*
D03*
X10157D02*
D03*
X10787Y9252D02*
D03*
X7835Y5787D02*
D03*
X11102Y6417D02*
D03*
X5315Y7362D02*
D03*
X5000Y7677D02*
D03*
X9528Y6732D02*
D03*
X11102Y6102D02*
D03*
X10787Y6732D02*
D03*
X8150Y7362D02*
D03*
X10787Y8307D02*
D03*
Y8937D02*
D03*
X11417Y8307D02*
D03*
Y7992D02*
D03*
Y7677D02*
D03*
X7205Y8937D02*
D03*
X10787Y8622D02*
D03*
X5315Y8937D02*
D03*
X5630D02*
D03*
X10157Y8307D02*
D03*
X10472D02*
D03*
Y7992D02*
D03*
X10157D02*
D03*
X5000Y8937D02*
D03*
X5630Y8307D02*
D03*
X9843Y7992D02*
D03*
Y8307D02*
D03*
X6575Y8622D02*
D03*
X5630Y9252D02*
D03*
X10157D02*
D03*
X5315Y8622D02*
D03*
X6890Y9252D02*
D03*
X9843Y8937D02*
D03*
X9528D02*
D03*
X6575D02*
D03*
X10157Y8937D02*
D03*
X10472Y8937D02*
D03*
X11102D02*
D03*
X6890Y8307D02*
D03*
X5630Y9882D02*
D03*
X9843Y10197D02*
D03*
X10157Y9882D02*
D03*
Y9567D02*
D03*
X10472Y9252D02*
D03*
X6890Y10827D02*
D03*
X10787Y10197D02*
D03*
X5630Y10512D02*
D03*
X10157D02*
D03*
X6575Y10197D02*
D03*
Y9882D02*
D03*
X6890D02*
D03*
X5630Y10197D02*
D03*
X9843Y9567D02*
D03*
X5315Y10512D02*
D03*
X10787D02*
D03*
X5315Y9882D02*
D03*
X9843Y9252D02*
D03*
X7205Y10197D02*
D03*
X7835Y6417D02*
D03*
X9843Y7362D02*
D03*
X4055Y4528D02*
D03*
X4370D02*
D03*
X2992Y5000D02*
D03*
X5551Y4173D02*
D03*
X12362Y5472D02*
D03*
X11732Y5157D02*
D03*
Y4843D02*
D03*
X12677Y5157D02*
D03*
X2598Y4528D02*
D03*
X2323D02*
D03*
X12362Y4213D02*
D03*
X12677D02*
D03*
X11732Y4528D02*
D03*
X11102Y4843D02*
D03*
X7874Y4685D02*
D03*
X12047Y5157D02*
D03*
X5906Y4685D02*
D03*
X3701Y5157D02*
D03*
X11732Y9252D02*
D03*
X11260Y10787D02*
D03*
X1339Y9449D02*
D03*
X15197Y10197D02*
D03*
X15512Y9882D02*
D03*
X12992Y9567D02*
D03*
X25709Y7520D02*
D03*
X25591Y7323D02*
D03*
X25709Y6732D02*
D03*
X25827Y6535D02*
D03*
X25591Y6929D02*
D03*
X26220Y6260D02*
D03*
X14252Y9252D02*
D03*
Y8937D02*
D03*
X27244Y5945D02*
D03*
X27047Y5787D02*
D03*
X26693D02*
D03*
X26496Y5945D02*
D03*
X13937Y9252D02*
D03*
X12362Y9882D02*
D03*
X11102D02*
D03*
X12992Y9252D02*
D03*
X14882Y10197D02*
D03*
X15512Y10512D02*
D03*
X25472Y7126D02*
D03*
X14882Y9882D02*
D03*
X9291Y3031D02*
D03*
X9764D02*
D03*
X10236D02*
D03*
X10709D02*
D03*
X13307Y4213D02*
D03*
X14252D02*
D03*
X28346Y6575D02*
D03*
X28543Y6732D02*
D03*
X28346Y7835D02*
D03*
X14252Y5787D02*
D03*
X14567Y5472D02*
D03*
X14882D02*
D03*
X13937Y4213D02*
D03*
Y4528D02*
D03*
X14252Y5157D02*
D03*
X14567Y4213D02*
D03*
X14882D02*
D03*
X14252Y3898D02*
D03*
X26260Y8386D02*
D03*
X26181Y8110D02*
D03*
X25787D02*
D03*
X27638Y5827D02*
D03*
X28307Y5551D02*
D03*
Y5827D02*
D03*
X28976Y5709D02*
D03*
X11417Y10197D02*
D03*
X12992Y9882D02*
D03*
X13307Y9567D02*
D03*
X30354Y10344D02*
D03*
X29370D02*
D03*
X28386D02*
D03*
Y8583D02*
D03*
X28583Y8425D02*
D03*
X28502Y7679D02*
D03*
X28740Y7362D02*
D03*
X28896Y7207D02*
D03*
X12992Y10197D02*
D03*
X30315Y1299D02*
D03*
X30079D02*
D03*
X12677Y8937D02*
D03*
X28898Y1535D02*
D03*
X29449Y1299D02*
D03*
X29213D02*
D03*
X28976D02*
D03*
X25591Y1339D02*
D03*
X26063Y1575D02*
D03*
X15827Y5472D02*
D03*
X15197Y5787D02*
D03*
Y6102D02*
D03*
X14567Y5787D02*
D03*
X15512Y6417D02*
D03*
X14252D02*
D03*
X14567D02*
D03*
X14882D02*
D03*
X15827Y5787D02*
D03*
X16142Y6102D02*
D03*
X14567Y6732D02*
D03*
X14882D02*
D03*
X14252D02*
D03*
Y7047D02*
D03*
X15197Y6732D02*
D03*
Y7047D02*
D03*
X15827Y6732D02*
D03*
X13937Y7047D02*
D03*
X14252Y7362D02*
D03*
Y8622D02*
D03*
X26260Y1496D02*
D03*
X25748Y3898D02*
D03*
X16693Y8307D02*
D03*
X25236Y4331D02*
D03*
X20984Y9528D02*
D03*
X20118Y6732D02*
D03*
X23937Y4606D02*
D03*
X13307Y6732D02*
D03*
X11417D02*
D03*
Y7362D02*
D03*
Y7047D02*
D03*
X13622Y9567D02*
D03*
X12992Y7992D02*
D03*
X12677Y7677D02*
D03*
X13622Y7992D02*
D03*
X12992Y7677D02*
D03*
X13307Y7992D02*
D03*
Y7677D02*
D03*
Y7362D02*
D03*
X12992Y7047D02*
D03*
X12047D02*
D03*
X12362D02*
D03*
X12677D02*
D03*
X12992Y7362D02*
D03*
X12362Y7992D02*
D03*
X13661Y10512D02*
D03*
X15394Y2362D02*
D03*
X27480Y1929D02*
D03*
X11417Y8937D02*
D03*
X14961Y1693D02*
D03*
X3268Y4803D02*
D03*
X20551Y7717D02*
D03*
D60*
X21024Y1260D02*
D03*
X17992Y10866D02*
D03*
X23150Y10197D02*
D03*
X22795D02*
D03*
X22441D02*
D03*
X22087D02*
D03*
X23150Y9528D02*
D03*
X22795D02*
D03*
X22441D02*
D03*
X22087D02*
D03*
X22953Y8937D02*
D03*
X22480D02*
D03*
X21299Y10866D02*
D03*
X21654D02*
D03*
X21969D02*
D03*
X24409Y8701D02*
D03*
Y7677D02*
D03*
X24016D02*
D03*
X20354Y10866D02*
D03*
X29803Y9961D02*
D03*
X27441D02*
D03*
X27205Y8740D02*
D03*
X30394Y4331D02*
D03*
X29370D02*
D03*
X28189D02*
D03*
X27008D02*
D03*
X30748Y4252D02*
D03*
X26870Y5413D02*
D03*
X28071Y5394D02*
D03*
X25787D02*
D03*
X26024D02*
D03*
X19685Y1535D02*
D03*
X20394Y1299D02*
D03*
X19685D02*
D03*
X18976D02*
D03*
X18268D02*
D03*
X16850Y1181D02*
D03*
X11563Y11575D02*
D03*
X24882Y11299D02*
D03*
X14449Y11575D02*
D03*
X14724D02*
D03*
X11850D02*
D03*
X12520D02*
D03*
Y11339D02*
D03*
X29370Y10600D02*
D03*
X29587Y8701D02*
D03*
X29646Y7441D02*
D03*
X30394Y8628D02*
D03*
X17717Y4291D02*
D03*
X17441D02*
D03*
X2598Y5748D02*
D03*
X2126Y5512D02*
D03*
Y5787D02*
D03*
X1575D02*
D03*
Y5512D02*
D03*
X1850D02*
D03*
X31378Y9528D02*
D03*
Y8976D02*
D03*
Y10079D02*
D03*
X31850Y9528D02*
D03*
Y8976D02*
D03*
Y10079D02*
D03*
Y2953D02*
D03*
Y1378D02*
D03*
Y2402D02*
D03*
X31575D02*
D03*
X31299Y2953D02*
D03*
X31575D02*
D03*
X31299Y1378D02*
D03*
Y2402D02*
D03*
X433D02*
D03*
Y2953D02*
D03*
X474Y1500D02*
D03*
X984Y2953D02*
D03*
X709Y2402D02*
D03*
X984D02*
D03*
X709Y2953D02*
D03*
X1026Y1500D02*
D03*
X20197Y6142D02*
D03*
X18819Y6260D02*
D03*
X18543D02*
D03*
X18268D02*
D03*
X17717Y6850D02*
D03*
X17992D02*
D03*
X17913Y8268D02*
D03*
Y8543D02*
D03*
X18622Y5197D02*
D03*
X18425D02*
D03*
X18228D02*
D03*
X23465Y7165D02*
D03*
Y6772D02*
D03*
Y7520D02*
D03*
X21693D02*
D03*
Y7165D02*
D03*
Y6772D02*
D03*
X24606Y10157D02*
D03*
X16890Y10866D02*
D03*
X1457Y7244D02*
D03*
Y6929D02*
D03*
Y6614D02*
D03*
Y6299D02*
D03*
X1142D02*
D03*
Y6614D02*
D03*
Y6929D02*
D03*
Y7244D02*
D03*
Y7559D02*
D03*
Y7874D02*
D03*
Y8189D02*
D03*
Y8504D02*
D03*
X3386Y8701D02*
D03*
X3071D02*
D03*
X1417Y8504D02*
D03*
X591Y10787D02*
D03*
Y11102D02*
D03*
Y11417D02*
D03*
Y9449D02*
D03*
Y9764D02*
D03*
Y10065D02*
D03*
Y10394D02*
D03*
X2047Y10433D02*
D03*
X1260Y11417D02*
D03*
X1614D02*
D03*
X1969D02*
D03*
X2638D02*
D03*
X2323D02*
D03*
Y11102D02*
D03*
Y10787D02*
D03*
X906Y11417D02*
D03*
Y11102D02*
D03*
Y10787D02*
D03*
X4291Y9488D02*
D03*
X3976Y11063D02*
D03*
X9252Y11260D02*
D03*
X21496Y4488D02*
D03*
Y4764D02*
D03*
X21220D02*
D03*
X20394Y1535D02*
D03*
X18976D02*
D03*
X18268D02*
D03*
X19685Y2047D02*
D03*
X17559Y1850D02*
D03*
X17126D02*
D03*
X25827Y1339D02*
D03*
X27480Y1535D02*
D03*
X25512Y5354D02*
D03*
X25787Y11417D02*
D03*
X26378D02*
D03*
X27362D02*
D03*
X30354Y10600D02*
D03*
X19449Y9528D02*
D03*
X25394Y9606D02*
D03*
Y9370D02*
D03*
X29449Y7795D02*
D03*
X13110Y11417D02*
D03*
X13858Y1339D02*
D03*
X13189Y1457D02*
D03*
X12362Y1575D02*
D03*
X20118Y10118D02*
D03*
X6614Y3858D02*
D03*
X7126D02*
D03*
X5354Y2677D02*
D03*
X1339Y3819D02*
D03*
X2520Y1654D02*
D03*
X2795D02*
D03*
X1929Y8504D02*
D03*
X1850Y5787D02*
D03*
X2638Y6142D02*
D03*
X9606Y5433D02*
D03*
X6102Y7205D02*
D03*
X4843Y1339D02*
D03*
X4961Y1535D02*
D03*
X4724D02*
D03*
X5512Y1732D02*
D03*
Y1969D02*
D03*
Y2205D02*
D03*
X2717Y2638D02*
D03*
X2559Y2795D02*
D03*
X4118Y2772D02*
D03*
X3971Y2632D02*
D03*
X3976Y2323D02*
D03*
X2992Y6142D02*
D03*
Y5906D02*
D03*
X6102Y8150D02*
D03*
X5354Y3661D02*
D03*
X4803Y4803D02*
D03*
X2677Y5000D02*
D03*
X2087D02*
D03*
X1457Y4606D02*
D03*
X4370Y5157D02*
D03*
X9803Y11535D02*
D03*
X10630Y11496D02*
D03*
X2756Y8701D02*
D03*
X1339Y9055D02*
D03*
X2559Y9606D02*
D03*
X906Y10394D02*
D03*
Y10079D02*
D03*
Y9764D02*
D03*
X1890Y9606D02*
D03*
X1142Y8858D02*
D03*
X3346Y10433D02*
D03*
X3661D02*
D03*
X3976D02*
D03*
Y10748D02*
D03*
Y10118D02*
D03*
X2835Y10315D02*
D03*
X12047Y10866D02*
D03*
X12362D02*
D03*
X11732D02*
D03*
X12835D02*
D03*
X13982Y11530D02*
D03*
X27559Y8504D02*
D03*
X28189Y8740D02*
D03*
X28898Y8189D02*
D03*
X29587Y8504D02*
D03*
X29646Y7638D02*
D03*
X28937Y6378D02*
D03*
Y6142D02*
D03*
X30394Y8425D02*
D03*
X24528Y9213D02*
D03*
X25276Y9882D02*
D03*
X28543Y11457D02*
D03*
X29528D02*
D03*
X30512D02*
D03*
X28386Y10600D02*
D03*
X27795Y11417D02*
D03*
X17559Y10866D02*
D03*
X26811Y11417D02*
D03*
X30325Y1614D02*
D03*
X30315Y2323D02*
D03*
X29134Y2598D02*
D03*
X30315D02*
D03*
X29134Y2323D02*
D03*
X29124Y1614D02*
D03*
X22441Y1260D02*
D03*
X21732D02*
D03*
X21890Y1457D02*
D03*
X22598D02*
D03*
X21181D02*
D03*
X21496Y9528D02*
D03*
X24567Y5354D02*
D03*
X20945Y4764D02*
D03*
X20669D02*
D03*
X20394D02*
D03*
X8346Y11260D02*
D03*
X8031D02*
D03*
X7717D02*
D03*
X7402D02*
D03*
X3976Y9803D02*
D03*
X4291D02*
D03*
Y10118D02*
D03*
Y10433D02*
D03*
Y10748D02*
D03*
Y11063D02*
D03*
X8937Y11260D02*
D03*
X13346Y10866D02*
D03*
X18071Y10157D02*
D03*
X25000Y6811D02*
D03*
X24685D02*
D03*
X24724Y5197D02*
D03*
X3701Y8701D02*
D03*
X10472Y10984D02*
D03*
X19094Y7992D02*
D03*
Y7717D02*
D03*
X19370D02*
D03*
X17992Y4291D02*
D03*
X12205Y11575D02*
D03*
X31693Y4961D02*
D03*
Y6614D02*
D03*
D61*
X23819Y11339D02*
D03*
X23543Y4449D02*
D03*
D62*
X31024Y394D02*
D03*
X30315D02*
D03*
X29134D02*
D03*
X28425D02*
D03*
X25118D02*
D03*
X23228D02*
D03*
X1260D02*
D03*
X1969D02*
D03*
X3150D02*
D03*
X3858D02*
D03*
X6457D02*
D03*
X9055D02*
D03*
X11654D02*
D03*
X16142Y11575D02*
D03*
X15197D02*
D03*
X15472D02*
D03*
Y11339D02*
D03*
X15197D02*
D03*
X14724D02*
D03*
X14449D02*
D03*
X15866Y11575D02*
D03*
Y11339D02*
D03*
X9843Y6102D02*
D03*
X25197Y5551D02*
D03*
X25000Y5748D02*
D03*
X28189Y11457D02*
D03*
X27087D02*
D03*
X25551Y11496D02*
D03*
X5906Y5157D02*
D03*
X5512D02*
D03*
X5118D02*
D03*
X4724D02*
D03*
X8268D02*
D03*
X7874D02*
D03*
X7520D02*
D03*
X26693Y7638D02*
D03*
Y7205D02*
D03*
Y6772D02*
D03*
X27126D02*
D03*
Y7638D02*
D03*
X27559D02*
D03*
Y7205D02*
D03*
Y6772D02*
D03*
X27126Y7205D02*
D03*
X22992Y5079D02*
D03*
X22756Y5315D02*
D03*
Y4843D02*
D03*
X23228D02*
D03*
Y5315D02*
D03*
X2205Y6890D02*
D03*
Y7244D02*
D03*
X2835Y6850D02*
D03*
Y7244D02*
D03*
X2520Y7047D02*
D03*
X5984Y2008D02*
D03*
Y2598D02*
D03*
Y3189D02*
D03*
Y9252D02*
D03*
X6299D02*
D03*
X21220Y4488D02*
D03*
X20945D02*
D03*
X20669D02*
D03*
X20394D02*
D03*
X11732Y6102D02*
D03*
X11417D02*
D03*
X11102Y8628D02*
D03*
X18543Y6575D02*
D03*
X17717Y7402D02*
D03*
X17992Y7126D02*
D03*
X17717D02*
D03*
X18268Y6575D02*
D03*
X17638Y8543D02*
D03*
X17913Y6457D02*
D03*
X18622Y5000D02*
D03*
X18425D02*
D03*
X18228D02*
D03*
X18898Y5472D02*
D03*
Y5748D02*
D03*
X18622D02*
D03*
X18346Y5472D02*
D03*
X18071Y5748D02*
D03*
Y5472D02*
D03*
X17795D02*
D03*
Y5748D02*
D03*
Y6024D02*
D03*
X17520Y5472D02*
D03*
Y5748D02*
D03*
Y6024D02*
D03*
Y6299D02*
D03*
X23189Y6772D02*
D03*
X22913D02*
D03*
Y7520D02*
D03*
X23189D02*
D03*
Y7165D02*
D03*
X22913D02*
D03*
X22244Y7520D02*
D03*
X21969D02*
D03*
Y6772D02*
D03*
X22244Y7165D02*
D03*
X21969D02*
D03*
X22244Y6772D02*
D03*
X2480Y2205D02*
D03*
X1220Y9764D02*
D03*
Y10079D02*
D03*
X1850Y10236D02*
D03*
X8937Y10945D02*
D03*
X9252D02*
D03*
X12205Y11378D02*
D03*
X21260Y5315D02*
D03*
X20433D02*
D03*
X20709D02*
D03*
X20984D02*
D03*
X15512Y7362D02*
D03*
X23228Y945D02*
D03*
X25118D02*
D03*
X14567Y6102D02*
D03*
X14882D02*
D03*
X12992D02*
D03*
X11654Y945D02*
D03*
X9055D02*
D03*
X6457D02*
D03*
X3150D02*
D03*
X1969D02*
D03*
X1260D02*
D03*
X3110Y7756D02*
D03*
X5984Y8937D02*
D03*
X5000Y5787D02*
D03*
X6299Y8937D02*
D03*
X5630Y6417D02*
D03*
X6575Y7677D02*
D03*
X5630Y6732D02*
D03*
X6575D02*
D03*
Y7047D02*
D03*
X6890Y7047D02*
D03*
X5630Y7677D02*
D03*
X7205Y5787D02*
D03*
Y6102D02*
D03*
X5315Y7677D02*
D03*
Y7992D02*
D03*
X7520Y7362D02*
D03*
X7205D02*
D03*
X10472Y7677D02*
D03*
Y7362D02*
D03*
X6575Y7992D02*
D03*
Y8307D02*
D03*
X10472Y6417D02*
D03*
X11417Y9567D02*
D03*
Y9882D02*
D03*
X12047Y7362D02*
D03*
X11732D02*
D03*
X12992Y5787D02*
D03*
Y5472D02*
D03*
X12362Y5787D02*
D03*
X14567Y7047D02*
D03*
X12992Y6417D02*
D03*
X13307Y7047D02*
D03*
X13937Y6102D02*
D03*
Y6732D02*
D03*
X13622Y6417D02*
D03*
X13937Y7362D02*
D03*
X13622Y7677D02*
D03*
X10472Y9567D02*
D03*
Y10197D02*
D03*
X12677Y4528D02*
D03*
X13307Y5157D02*
D03*
X13937D02*
D03*
X14882Y4843D02*
D03*
X15512Y5787D02*
D03*
X15827Y7362D02*
D03*
X15197Y7992D02*
D03*
X15827Y4528D02*
D03*
Y9567D02*
D03*
X14567Y9252D02*
D03*
Y9882D02*
D03*
X14252Y8307D02*
D03*
X13622D02*
D03*
X13307Y8622D02*
D03*
X12047Y7677D02*
D03*
X12362Y8307D02*
D03*
Y8622D02*
D03*
X12992Y8307D02*
D03*
X11732D02*
D03*
Y7047D02*
D03*
X12047Y9252D02*
D03*
Y9567D02*
D03*
X11732Y10197D02*
D03*
X10787Y6417D02*
D03*
X12362Y4843D02*
D03*
X14567Y7362D02*
D03*
X12992Y6732D02*
D03*
X13937Y6417D02*
D03*
X13622Y6102D02*
D03*
Y6732D02*
D03*
Y7047D02*
D03*
Y7362D02*
D03*
X13937Y7677D02*
D03*
X3425Y1772D02*
D03*
X3858Y945D02*
D03*
X3350Y3400D02*
D03*
X10472Y8622D02*
D03*
X10787Y9567D02*
D03*
X10157Y10197D02*
D03*
X12677Y4843D02*
D03*
X13307D02*
D03*
X13937Y5472D02*
D03*
X14882Y5157D02*
D03*
X15512Y7992D02*
D03*
X15827Y4843D02*
D03*
Y9252D02*
D03*
X14882D02*
D03*
X14252Y9882D02*
D03*
X13937Y8307D02*
D03*
X13622Y8622D02*
D03*
X13307Y8937D02*
D03*
X12047Y8622D02*
D03*
X12992D02*
D03*
X12677Y8307D02*
D03*
X11732Y8622D02*
D03*
X12362Y9567D02*
D03*
Y9252D02*
D03*
X12047Y10197D02*
D03*
Y5472D02*
D03*
X12677Y6732D02*
D03*
X12362D02*
D03*
X12047D02*
D03*
Y4843D02*
D03*
X11732Y5472D02*
D03*
X12362Y7362D02*
D03*
X11732Y6732D02*
D03*
X11102Y7992D02*
D03*
X11732Y7992D02*
D03*
X12047D02*
D03*
X12362Y6102D02*
D03*
X12047D02*
D03*
Y5787D02*
D03*
X11102Y7677D02*
D03*
X11732Y7677D02*
D03*
X5000Y8307D02*
D03*
X5315D02*
D03*
X4685Y10827D02*
D03*
Y10512D02*
D03*
Y10197D02*
D03*
Y9882D02*
D03*
X5315Y10197D02*
D03*
X5000D02*
D03*
X4685Y9567D02*
D03*
Y9252D02*
D03*
Y8622D02*
D03*
X5000D02*
D03*
X4685Y7047D02*
D03*
Y6732D02*
D03*
Y6417D02*
D03*
Y6102D02*
D03*
Y5787D02*
D03*
X7205Y10827D02*
D03*
X7520D02*
D03*
Y10512D02*
D03*
Y10197D02*
D03*
Y9882D02*
D03*
Y9567D02*
D03*
X7205Y9882D02*
D03*
Y9567D02*
D03*
X6890Y8622D02*
D03*
X7205D02*
D03*
Y8307D02*
D03*
Y7992D02*
D03*
X7520Y6732D02*
D03*
Y6417D02*
D03*
Y6102D02*
D03*
Y5787D02*
D03*
X7205Y7677D02*
D03*
X5630Y7362D02*
D03*
Y5787D02*
D03*
Y7992D02*
D03*
X7205Y6732D02*
D03*
Y6417D02*
D03*
X5630Y6102D02*
D03*
X6575D02*
D03*
X5630Y7047D02*
D03*
X11102Y8307D02*
D03*
X10157Y8622D02*
D03*
X10787Y9882D02*
D03*
X7205Y7047D02*
D03*
X4016Y5157D02*
D03*
X6299D02*
D03*
X2244Y8504D02*
D03*
X12677Y7992D02*
D03*
X13307Y8307D02*
D03*
Y9252D02*
D03*
X25394Y7953D02*
D03*
Y7756D02*
D03*
X31024Y945D02*
D03*
X30315D02*
D03*
X29134D02*
D03*
X28425D02*
D03*
X15512Y5472D02*
D03*
X13307Y6102D02*
D03*
X18268Y8543D02*
D03*
X18543D02*
D03*
X18268Y8268D02*
D03*
X18543D02*
D03*
X18819D02*
D03*
Y7992D02*
D03*
X18543D02*
D03*
X18268D02*
D03*
X18543Y7717D02*
D03*
X18819D02*
D03*
X3600Y3150D02*
D03*
Y3650D02*
D03*
X3100D02*
D03*
Y3150D02*
D03*
X3600Y3150D02*
D03*
Y3650D02*
D03*
X3100D02*
D03*
Y3150D02*
D03*
D68*
X21732Y2362D02*
X22362Y1732D01*
X21732Y2362D02*
Y3465D01*
X21535Y3661D02*
X21732Y3465D01*
X17717Y3661D02*
X21535D01*
X21339Y2441D02*
X21732Y2047D01*
X21339Y2441D02*
Y3386D01*
X21220Y3504D02*
X21339Y3386D01*
X17598Y3504D02*
X21220D01*
X17598Y3268D02*
X19409D01*
X19685Y2992D01*
X20512D01*
X20827Y3307D01*
X18858Y2087D02*
X19055Y2283D01*
X17244Y2087D02*
X18858D01*
X16772Y2559D02*
X17244Y2087D01*
X17441Y2559D02*
X17835D01*
X18110Y2283D01*
X19252Y3031D02*
X20079Y2205D01*
X17598Y3031D02*
X19252D01*
X20079Y2047D02*
Y2205D01*
X15984Y3110D02*
X16535Y2559D01*
X16772D01*
X15984Y3110D02*
Y5315D01*
X14134Y2283D02*
X15039Y3189D01*
X12520Y2283D02*
X14134D01*
X11693Y1457D02*
X12520Y2283D01*
X14134Y2047D02*
X15354Y3268D01*
X12598Y2047D02*
X14134D01*
X11693Y1260D02*
Y1457D01*
X12087Y2205D02*
Y2756D01*
X11299Y1417D02*
X12087Y2205D01*
X11299Y1260D02*
Y1417D01*
X11299Y2677D02*
X11890Y3268D01*
X11299Y2283D02*
Y2677D01*
X11063Y2047D02*
X11299Y2283D01*
X11890Y3268D02*
X14409D01*
X12008Y3110D02*
X14449D01*
X11693Y2795D02*
X12008Y3110D01*
X11693Y2205D02*
Y2795D01*
X11063Y1575D02*
X11693Y2205D01*
X12283Y2953D02*
X14528D01*
X12087Y2756D02*
X12283Y2953D01*
X11417Y3425D02*
X14252D01*
X10787Y2795D02*
X11417Y3425D01*
X10787Y1457D02*
Y2795D01*
X10472Y2992D02*
Y3386D01*
X10236Y2756D02*
X10472Y2992D01*
X10236Y2402D02*
Y2756D01*
Y2402D02*
X10236D01*
X10315Y2323D01*
X10394D01*
X10591Y2126D01*
Y1811D02*
Y2126D01*
X9803Y2717D02*
X10000Y2913D01*
X9803Y2362D02*
Y2717D01*
Y2362D02*
X10118Y2047D01*
X10354D01*
X10669Y3583D02*
X14055D01*
X10472Y3386D02*
X10669Y3583D01*
X10354Y1575D02*
X10591Y1811D01*
X10394Y3740D02*
X13701D01*
X10000Y3346D02*
X10394Y3740D01*
X10000Y2913D02*
Y3346D01*
X10591Y1260D02*
X10787Y1457D01*
X6929Y2913D02*
Y3307D01*
X6693Y2402D02*
Y2677D01*
X6929Y2913D01*
X6693Y2402D02*
X7047Y2047D01*
X22835Y10669D02*
X23071Y10433D01*
X15039Y10669D02*
X22835D01*
X30118Y11142D02*
X31102Y10157D01*
Y3819D02*
Y10157D01*
X30315Y3031D02*
X31102Y3819D01*
X28425Y10157D02*
X29843Y8740D01*
Y3465D02*
Y8740D01*
X25827Y10394D02*
X26693D01*
X25472Y10748D02*
X25827Y10394D01*
X22953Y10748D02*
X25472D01*
X22638Y11063D02*
X22953Y10748D01*
X25276Y10433D02*
X25551Y10157D01*
X23071Y10433D02*
X25276D01*
X30157Y4173D02*
Y9173D01*
X28543Y10787D02*
X30157Y9173D01*
X27087Y10787D02*
X28543D01*
X25551Y10157D02*
X28425D01*
X26693Y10394D02*
X27087Y10787D01*
X16654Y4449D02*
X17598Y3504D01*
X14409Y10984D02*
X16496D01*
X16811Y11063D02*
X22638D01*
X22795Y11142D02*
X30118D01*
X22717Y11220D02*
X22795Y11142D01*
X16732Y11220D02*
X22717D01*
X16654Y4449D02*
Y6417D01*
X16181Y6890D02*
X16654Y6417D01*
X15039Y6890D02*
X16181D01*
X16299Y4331D02*
Y6260D01*
X15984Y6575D02*
X16299Y6260D01*
X14724Y6575D02*
X15984D01*
X15984Y5630D02*
Y6220D01*
X15945Y6260D02*
X15984Y6220D01*
X15669Y6260D02*
X15945D01*
X16457Y4409D02*
Y6417D01*
X16811Y4567D02*
X17717Y3661D01*
X16811Y4567D02*
Y6457D01*
X16220Y7047D02*
X16811Y6457D01*
X15827Y7047D02*
X16220D01*
X16181Y3819D02*
X17441Y2559D01*
X16181Y3819D02*
Y5433D01*
X16299Y4331D02*
X17598Y3031D01*
X16457Y4409D02*
X17598Y3268D01*
X16142Y6732D02*
X16457Y6417D01*
X15827Y6732D02*
X16142D01*
X14882Y7047D02*
X15039Y6890D01*
X30039Y3031D02*
X30315D01*
X29843Y1535D02*
X30079Y1299D01*
X29843Y1535D02*
Y3189D01*
X30315Y3661D02*
Y4016D01*
X30157Y4173D02*
X30315Y4016D01*
X29843Y3465D02*
X29843D01*
X16496Y10984D02*
X16732Y11220D01*
X16575Y10827D02*
X16811Y11063D01*
X20118Y10512D02*
X20551D01*
X20748Y10315D01*
Y9528D02*
Y10315D01*
X14016Y1693D02*
X15669Y3346D01*
X13386Y1693D02*
X14016D01*
X15669Y3346D02*
Y5945D01*
X15354Y3268D02*
Y6260D01*
X15039Y3189D02*
Y5276D01*
X14882Y3307D02*
Y4213D01*
X14528Y2953D02*
X14882Y3307D01*
X14724Y3386D02*
Y4961D01*
X14449Y3110D02*
X14724Y3386D01*
X15669Y5945D02*
X15669D01*
X15827Y6102D01*
X15197Y6417D02*
X15354Y6260D01*
X15197Y6417D02*
X15197D01*
X15000Y5315D02*
X15039Y5276D01*
X14724Y5315D02*
X15000D01*
X14567Y5157D02*
X14724Y5315D01*
X14567Y5157D02*
Y5157D01*
X14685Y5000D02*
X14724Y4961D01*
X14409Y5000D02*
X14685D01*
X14252Y4843D02*
X14409Y5000D01*
Y3583D02*
Y4646D01*
X14370Y4685D02*
X14409Y4646D01*
X14134Y4685D02*
X14370D01*
X14094Y4724D02*
X14134Y4685D01*
X14094Y4724D02*
Y5000D01*
X14094D01*
X14252Y5157D01*
X13307Y5787D02*
X13465Y5630D01*
X13307Y5787D02*
Y5787D01*
X7756Y1575D02*
Y1614D01*
X11260Y4724D02*
Y5315D01*
X11220Y4685D02*
X11260Y4724D01*
Y5315D02*
X11417Y5472D01*
X7362Y4921D02*
X10866D01*
X11102Y5157D01*
X6929Y3307D02*
X8307Y4685D01*
X11220D01*
X13465Y4370D02*
Y5630D01*
X13307Y4213D02*
X13465Y4370D01*
X13307Y4213D02*
Y4213D01*
X13780Y4055D02*
Y5630D01*
X13622Y3898D02*
X13780Y4055D01*
X13622Y5787D02*
X13780Y5630D01*
X13937Y3976D02*
Y4213D01*
X13701Y3740D02*
X13937Y3976D01*
Y4528D02*
X14094Y4370D01*
Y3622D02*
Y4370D01*
X14055Y3583D02*
X14094Y3622D01*
X14252Y3425D02*
X14409Y3583D01*
X14567Y3425D02*
Y4213D01*
X14409Y3268D02*
X14567Y3425D01*
X15827Y5472D02*
X15984Y5315D01*
X15512Y6417D02*
X15669Y6260D01*
X15984Y5630D02*
X16181Y5433D01*
X14567Y6732D02*
X14724Y6575D01*
X19724Y9882D02*
Y10118D01*
X20787Y9331D02*
X20984Y9528D01*
X19724Y9882D02*
X20276Y9331D01*
X20787D01*
X6260Y1575D02*
X6575Y1260D01*
X6260Y1575D02*
Y3819D01*
X7362Y4921D01*
X14252Y10197D02*
X14409Y10354D01*
Y10354D01*
X14724D01*
X15039Y10669D01*
X13937Y10197D02*
X14567Y10827D01*
Y10827D01*
X16575D01*
X13622Y10197D02*
X14409Y10984D01*
X29843Y3189D02*
X30315Y3661D01*
D69*
X28307Y1654D02*
Y2835D01*
X28110Y3031D02*
X28307Y2835D01*
X25512Y3031D02*
X28110D01*
X28150Y1496D02*
Y2717D01*
X28031Y2835D02*
X28150Y2717D01*
X25472Y2835D02*
X28031D01*
X28425Y1535D02*
X28898D01*
X28307Y1654D02*
X28425Y1535D01*
X28346Y1299D02*
X28976D01*
X28150Y1496D02*
X28346Y1299D01*
X24528Y3780D02*
X25472Y2835D01*
X18780Y3780D02*
X24528D01*
X24646Y3898D02*
X25512Y3031D01*
X18898Y3898D02*
X24646D01*
X25551Y3228D02*
X28031D01*
X24764Y4016D02*
X25551Y3228D01*
X19016Y4016D02*
X24764D01*
X25591Y3425D02*
X27992D01*
X24882Y4134D02*
X25591Y3425D01*
X19094Y4134D02*
X24882D01*
X23661Y9173D02*
X25315Y7520D01*
X24567Y7835D02*
X25276Y7126D01*
X23740Y7835D02*
X24567D01*
X23071Y8504D02*
X23740Y7835D01*
X24331Y7047D02*
X25118D01*
X23031Y8346D02*
X24331Y7047D01*
X19094Y8346D02*
X23031D01*
X18622Y8819D02*
X19094Y8346D01*
X17165Y8819D02*
X18622D01*
X16575Y9409D02*
X17165Y8819D01*
X18071Y4488D02*
X18780Y3780D01*
X17205Y4488D02*
X18071D01*
X18150Y4646D02*
X18898Y3898D01*
X17323Y4646D02*
X18150D01*
X18268Y4764D02*
X19016Y4016D01*
X17441Y4764D02*
X18268D01*
X27992Y3425D02*
X28346Y3780D01*
X28031Y3228D02*
X28268Y3465D01*
X28346Y3780D02*
X28661D01*
X28858Y2087D02*
Y3583D01*
X28661Y3780D02*
X28858Y3583D01*
X19094Y4134D02*
Y4134D01*
X18937Y4291D02*
X19094Y4134D01*
X18937Y4291D02*
Y5157D01*
X17480Y6614D02*
X18937Y5157D01*
X17126Y4843D02*
Y6929D01*
X16535Y7520D02*
X17126Y6929D01*
X12244Y7520D02*
X16535D01*
X12559Y7835D02*
X16575D01*
X28268Y3465D02*
X28661D01*
X17283Y4921D02*
X17441Y4764D01*
X17283Y4921D02*
Y7126D01*
X16575Y7835D02*
X17283Y7126D01*
X17126Y4843D02*
X17323Y4646D01*
X16968Y4724D02*
X17205Y4488D01*
X16968Y4724D02*
Y6811D01*
X11929Y7205D02*
X16575D01*
X16968Y6811D01*
X28504Y1732D02*
X28858Y2087D01*
X15039Y10000D02*
X15079Y10039D01*
X15039Y9764D02*
Y10000D01*
X15000Y9724D02*
X15039Y9764D01*
X26457Y5984D02*
X26496Y5945D01*
X26142Y6339D02*
X26220Y6260D01*
X15512Y9882D02*
X15669Y9724D01*
X15197Y10197D02*
X15354Y10354D01*
X12992Y9567D02*
X13150Y9724D01*
X15000D01*
X14252Y9252D02*
X14409Y9409D01*
X14252Y8937D02*
X14409Y9094D01*
X13937Y9252D02*
X14094Y9094D01*
Y8819D02*
Y9094D01*
Y8819D02*
X14134Y8780D01*
X12992Y9252D02*
X13150Y9094D01*
X13740D01*
X13780Y9055D01*
Y8504D02*
Y9055D01*
Y8504D02*
X13819Y8465D01*
X12677Y8937D02*
X12677D01*
X12835Y8780D01*
X13425D01*
X13465Y8740D01*
Y8189D02*
Y8740D01*
Y8189D02*
X13504Y8150D01*
X11732Y8937D02*
X11890Y8780D01*
X12480D01*
X12520Y8740D01*
Y7874D02*
Y8740D01*
Y7874D02*
X12559Y7835D01*
X12205Y7559D02*
X12244Y7520D01*
X11417Y8307D02*
X11575Y8150D01*
Y8150D02*
Y8150D01*
Y8150D02*
X12165D01*
X12205Y8110D01*
Y7559D02*
Y8110D01*
X11417Y7992D02*
X11575Y7835D01*
X11850D01*
X11890Y7795D01*
Y7244D02*
Y7795D01*
Y7244D02*
X11929Y7205D01*
X13504Y8150D02*
X16890D01*
X17480Y7559D01*
Y6614D02*
Y7559D01*
X13819Y8465D02*
X16929D01*
X19409Y5984D01*
X26457D01*
X14134Y8780D02*
X16811D01*
X19252Y6339D01*
X26142D01*
X14409Y9094D02*
X16693D01*
X19252Y6535D01*
X25827D01*
X14409Y9409D02*
X16575D01*
X15354Y10354D02*
X17087D01*
X18071Y9370D02*
X20039D01*
X17087Y10354D02*
X18071Y9370D01*
X20236Y9173D02*
X23661D01*
X20039Y9370D02*
X20236Y9173D01*
X20197Y9016D02*
X21417D01*
X20000Y9213D02*
X20197Y9016D01*
X19961Y9055D02*
X20157Y8858D01*
X21378D01*
X15669Y9724D02*
X17283D01*
X17953Y9055D01*
X19961D01*
X15079Y10039D02*
X17165D01*
X17992Y9213D01*
X20000D01*
X25315Y7520D02*
X25709D01*
X21732Y8701D02*
X23937D01*
X25315Y7323D01*
X21417Y9016D02*
X21732Y8701D01*
X25315Y7323D02*
X25591D01*
X21378Y8858D02*
X21732Y8504D01*
X25276Y7126D02*
X25472D01*
X21732Y8504D02*
X23071D01*
X25118Y7047D02*
X25236Y6929D01*
X25591D01*
D70*
X6732Y7205D02*
X6890Y7047D01*
X6102Y7205D02*
X6732D01*
%TF.MD5,9dea12858e31718aff5452aef03f8cdf*%
M02*
