G04 Layer_Physical_Order=1*
G04 Layer_Color=255*
%FSLAX24Y24*%
%MOIN*%
%TF.FileFunction,Copper,L1,Top,Signal*%
%TF.Part,Single*%
G01*
G75*
%TA.AperFunction,SMDPad,CuDef*%
%ADD10R,0.0205X0.0197*%
%ADD11R,0.0138X0.0138*%
%ADD12R,0.1024X0.0531*%
%ADD13R,0.0138X0.0138*%
%TA.AperFunction,SMDPad,SMDef*%
%ADD14R,0.0646X0.0173*%
%TA.AperFunction,SMDPad,CuDef*%
%ADD15O,0.0236X0.0098*%
%ADD16R,0.0236X0.0098*%
%ADD17O,0.0098X0.0354*%
%ADD18O,0.0354X0.0098*%
%ADD19R,0.0984X0.0984*%
%ADD20R,0.0197X0.0205*%
%ADD21R,0.0295X0.0295*%
%ADD22R,0.0906X0.0335*%
%ADD23R,0.0217X0.0217*%
%ADD24R,0.0217X0.0217*%
%ADD25R,0.0315X0.0315*%
%ADD26R,0.0315X0.0315*%
%ADD27R,0.0531X0.1024*%
%ADD28R,0.0394X0.0571*%
%ADD29R,0.0571X0.0394*%
%TA.AperFunction,BGAPad,CuDef*%
%ADD30C,0.0177*%
%TA.AperFunction,SMDPad,CuDef*%
%ADD31O,0.0118X0.0335*%
%ADD32O,0.0335X0.0118*%
%ADD33R,0.0827X0.0827*%
%ADD34R,0.0248X0.0799*%
%TA.AperFunction,BGAPad,CuDef*%
%ADD35C,0.0157*%
%TA.AperFunction,SMDPad,CuDef*%
%ADD36R,0.0177X0.1004*%
%ADD37R,0.0354X0.0276*%
%ADD38R,0.0177X0.0394*%
%ADD39R,0.1811X0.1850*%
%ADD40R,0.0354X0.0256*%
%ADD41R,0.0209X0.0069*%
%TA.AperFunction,Conductor*%
%ADD42C,0.0060*%
%ADD43C,0.0180*%
%ADD44C,0.0070*%
%ADD45C,0.0150*%
%ADD46C,0.0065*%
%ADD47C,0.0140*%
%ADD48C,0.0200*%
%ADD49C,0.0175*%
%ADD50C,0.0120*%
%ADD51C,0.0100*%
%ADD52C,0.0095*%
%ADD53C,0.0250*%
%ADD54C,0.0080*%
%TA.AperFunction,NonConductor*%
%ADD55C,0.0100*%
%TA.AperFunction,Conductor*%
%ADD56R,0.0630X0.0433*%
%ADD57R,0.0551X0.0709*%
%ADD58R,0.0551X0.0354*%
%TA.AperFunction,ViaPad*%
%ADD59C,0.0160*%
%ADD60C,0.0180*%
%TA.AperFunction,TestPad*%
%ADD61C,0.0160*%
%TA.AperFunction,ViaPad*%
%ADD62C,0.0170*%
G36*
X24843Y5276D02*
Y5118D01*
X24803Y5079D01*
X24646Y5079D01*
X24252Y5472D01*
X24055Y5472D01*
Y5827D01*
X24291D01*
X24843Y5276D01*
D02*
G37*
G36*
X23858Y6417D02*
X23898Y6378D01*
X24370D01*
X24409Y6339D01*
X24409Y5984D01*
X23898D01*
X23583Y5669D01*
X23543Y5630D01*
X23346Y5630D01*
X23307Y5669D01*
Y5945D01*
X23504Y6142D01*
Y6496D01*
X23858D01*
Y6417D01*
D02*
G37*
G36*
X17992Y7520D02*
Y7323D01*
X18110Y7205D01*
X19213Y7205D01*
X19252Y7165D01*
X19252Y6693D01*
X19488Y6457D01*
X20394Y6457D01*
Y6024D01*
X19528Y6024D01*
X19409Y6142D01*
X18228Y6142D01*
X18189Y6181D01*
Y6535D01*
X18071Y6654D01*
X17559D01*
Y6969D01*
X17520Y7008D01*
X16968D01*
X16968Y8701D01*
X17992Y8701D01*
X17992Y7520D01*
D02*
G37*
G36*
Y6181D02*
X18228Y5945D01*
X19291D01*
X19567Y5669D01*
Y5315D01*
X19173Y4921D01*
X19016D01*
X18976Y4961D01*
Y5354D01*
X18937Y5394D01*
X18110D01*
X17992Y5276D01*
X16968D01*
Y6535D01*
X17992D01*
Y6181D01*
D02*
G37*
G36*
X5079Y1220D02*
X4606Y1220D01*
X4606Y1811D01*
X4803Y2008D01*
X5079D01*
X5079Y1220D01*
D02*
G37*
G36*
X5630Y1614D02*
X5197D01*
X5197Y2323D01*
X5630D01*
X5630Y1614D01*
D02*
G37*
G36*
X18110Y4331D02*
X18110Y4173D01*
X17717Y3780D01*
X17323D01*
Y4331D01*
X17402Y4409D01*
X18032D01*
X18110Y4331D01*
D02*
G37*
G36*
X6417Y9331D02*
Y8858D01*
X6378Y8819D01*
X6220D01*
X6181Y8858D01*
Y9055D01*
X6102Y9134D01*
X5906D01*
X5866Y9173D01*
Y9331D01*
X5906Y9370D01*
X6378D01*
X6417Y9331D01*
D02*
G37*
G36*
X12480Y11024D02*
X12480Y10787D01*
X12441Y10748D01*
X11654Y10748D01*
X11614Y10787D01*
X11614Y10945D01*
X11693Y11024D01*
X11929Y11024D01*
X12087Y11181D01*
X12323D01*
X12480Y11024D01*
D02*
G37*
G36*
X12126Y11339D02*
X12008Y11220D01*
X11929D01*
Y11378D01*
X12087Y11535D01*
X12126D01*
Y11339D01*
D02*
G37*
G36*
X19528Y7874D02*
X20197D01*
Y7520D01*
X20157Y7480D01*
X19409D01*
X19213Y7283D01*
X18268D01*
Y7559D01*
X18189Y7638D01*
Y8661D01*
X18740D01*
X19528Y7874D01*
D02*
G37*
G36*
X11732Y6732D02*
Y6732D01*
X11575Y6575D01*
X11417Y6732D01*
Y6732D01*
X11575Y6890D01*
X11732Y6732D01*
D02*
G37*
G36*
X21299Y7165D02*
Y7008D01*
X20827D01*
Y7480D01*
X20984D01*
X21299Y7165D01*
D02*
G37*
G36*
X12992Y7677D02*
X13307Y7362D01*
X12992D01*
Y7047D01*
X12362D01*
X12205Y7205D01*
X12992Y7992D01*
Y7677D01*
D02*
G37*
D10*
X14724Y2250D02*
D03*
Y1923D02*
D03*
X6220Y4730D02*
D03*
Y4404D02*
D03*
X7559D02*
D03*
Y4730D02*
D03*
X20906Y7722D02*
D03*
Y7396D02*
D03*
X24213Y6069D02*
D03*
Y5742D02*
D03*
X20906Y7093D02*
D03*
Y6766D02*
D03*
X29528Y11266D02*
D03*
Y10939D02*
D03*
X28543D02*
D03*
Y11266D02*
D03*
X30512D02*
D03*
Y10939D02*
D03*
X5354Y3852D02*
D03*
Y4179D02*
D03*
X1500Y2937D02*
D03*
Y3263D02*
D03*
X28780Y3116D02*
D03*
Y2789D02*
D03*
X24370Y7041D02*
D03*
Y7368D02*
D03*
X2559Y9876D02*
D03*
Y10203D02*
D03*
X24134Y4915D02*
D03*
Y5242D02*
D03*
X21220Y6766D02*
D03*
Y7093D02*
D03*
X19094Y7081D02*
D03*
Y7407D02*
D03*
X24488Y4730D02*
D03*
Y4404D02*
D03*
X12835Y11423D02*
D03*
Y11096D02*
D03*
X18386Y7407D02*
D03*
Y7081D02*
D03*
X18740D02*
D03*
Y7407D02*
D03*
X21260Y11344D02*
D03*
Y11018D02*
D03*
X20945D02*
D03*
Y11344D02*
D03*
X26378Y10663D02*
D03*
Y10990D02*
D03*
X27362D02*
D03*
Y10663D02*
D03*
X23898Y7041D02*
D03*
Y7368D02*
D03*
X28819Y1923D02*
D03*
Y2250D02*
D03*
X25000Y7041D02*
D03*
Y7368D02*
D03*
X24685Y7041D02*
D03*
Y7368D02*
D03*
D11*
X28543Y10600D02*
D03*
Y10344D02*
D03*
X1024Y9242D02*
D03*
Y9498D02*
D03*
X19685Y4281D02*
D03*
Y4537D02*
D03*
X24134Y4616D02*
D03*
Y4360D02*
D03*
X30512Y10344D02*
D03*
Y10600D02*
D03*
X29528D02*
D03*
Y10344D02*
D03*
X5354Y2234D02*
D03*
Y2490D02*
D03*
D12*
X20866Y4321D02*
D03*
Y5285D02*
D03*
X17480Y6289D02*
D03*
Y7254D02*
D03*
X18740Y6624D02*
D03*
Y5659D02*
D03*
X1614Y11033D02*
D03*
Y10069D02*
D03*
D13*
X24970Y9606D02*
D03*
X24715D02*
D03*
X30325Y2047D02*
D03*
X30069D02*
D03*
X30128Y2323D02*
D03*
X29872D02*
D03*
X29321D02*
D03*
X29577D02*
D03*
X29124Y2047D02*
D03*
X29380D02*
D03*
X30325Y1772D02*
D03*
X30069D02*
D03*
X30128Y2598D02*
D03*
X29872D02*
D03*
X29321D02*
D03*
X29577D02*
D03*
X29124Y1772D02*
D03*
X29380D02*
D03*
X18770Y10118D02*
D03*
X19026D02*
D03*
X24970Y9331D02*
D03*
X24715D02*
D03*
Y7835D02*
D03*
X24970D02*
D03*
X30108Y9961D02*
D03*
X30364D02*
D03*
X29242Y9961D02*
D03*
X29498D02*
D03*
X27746Y9961D02*
D03*
X28002D02*
D03*
X26880Y9961D02*
D03*
X27136D02*
D03*
X2077Y4803D02*
D03*
X2333D02*
D03*
X2878Y2200D02*
D03*
X2622D02*
D03*
X3372Y2200D02*
D03*
X3628D02*
D03*
D14*
X18563Y4429D02*
D03*
Y4665D02*
D03*
Y4902D02*
D03*
X2106Y8917D02*
D03*
Y9154D02*
D03*
Y9390D02*
D03*
D15*
X19094Y4961D02*
D03*
Y4764D02*
D03*
Y4567D02*
D03*
X1575Y9252D02*
D03*
Y9055D02*
D03*
Y8858D02*
D03*
D16*
X19094Y4370D02*
D03*
X1575Y9449D02*
D03*
D17*
X2956Y2632D02*
D03*
X3153D02*
D03*
X3350D02*
D03*
X3547D02*
D03*
X3744D02*
D03*
Y4168D02*
D03*
X3547D02*
D03*
X3350D02*
D03*
X3153D02*
D03*
X2956D02*
D03*
D18*
X4118Y3006D02*
D03*
Y3203D02*
D03*
Y3400D02*
D03*
Y3597D02*
D03*
Y3794D02*
D03*
X2582D02*
D03*
Y3597D02*
D03*
Y3400D02*
D03*
Y3203D02*
D03*
Y3006D02*
D03*
D19*
X3350Y3400D02*
D03*
D20*
X19258Y11181D02*
D03*
X18931D02*
D03*
X17041D02*
D03*
X17368D02*
D03*
X13864D02*
D03*
X13537D02*
D03*
X16687Y9921D02*
D03*
X17014D02*
D03*
X16687Y9606D02*
D03*
X17014D02*
D03*
Y9291D02*
D03*
X16687D02*
D03*
X23262Y6299D02*
D03*
X23589D02*
D03*
X2998Y4803D02*
D03*
X2671D02*
D03*
X17041Y10709D02*
D03*
X17368D02*
D03*
X20596Y6339D02*
D03*
X20270D02*
D03*
X24679Y9016D02*
D03*
X25006D02*
D03*
X2474Y1850D02*
D03*
X2801D02*
D03*
X3431D02*
D03*
X3104D02*
D03*
X1863Y3800D02*
D03*
X1537D02*
D03*
X25360Y11457D02*
D03*
X25033D02*
D03*
X11563Y11299D02*
D03*
X11890D02*
D03*
X18313Y10709D02*
D03*
X17986D02*
D03*
D21*
X20039Y7695D02*
D03*
X20413Y6793D02*
D03*
X19665D02*
D03*
D22*
X17480Y5433D02*
D03*
Y4646D02*
D03*
X3386Y9173D02*
D03*
Y9961D02*
D03*
D23*
X5315Y1850D02*
D03*
X4961D02*
D03*
D24*
X12205Y11437D02*
D03*
Y11083D02*
D03*
D25*
X17835Y11181D02*
D03*
X18465D02*
D03*
X20354D02*
D03*
X19724D02*
D03*
D26*
X6654Y4134D02*
D03*
Y4764D02*
D03*
X7126D02*
D03*
Y4134D02*
D03*
X29961Y11142D02*
D03*
Y10512D02*
D03*
X28976D02*
D03*
Y11142D02*
D03*
X30945D02*
D03*
Y10512D02*
D03*
X26811D02*
D03*
Y11142D02*
D03*
X27795D02*
D03*
Y10512D02*
D03*
D27*
X9144Y10512D02*
D03*
X8179D02*
D03*
X17510Y8150D02*
D03*
X18474D02*
D03*
X22077Y7165D02*
D03*
X23041D02*
D03*
D28*
X16083Y11220D02*
D03*
X15335D02*
D03*
X3484Y10866D02*
D03*
X2736D02*
D03*
D29*
X19803Y6240D02*
D03*
Y5492D02*
D03*
X17441Y3976D02*
D03*
Y3228D02*
D03*
D30*
X10000Y10354D02*
D03*
X10315D02*
D03*
X10630D02*
D03*
X10945D02*
D03*
X11260D02*
D03*
X11575D02*
D03*
X11890D02*
D03*
X12205D02*
D03*
X12520D02*
D03*
X12835D02*
D03*
X13150D02*
D03*
X13465D02*
D03*
X13780D02*
D03*
X14094D02*
D03*
X14409D02*
D03*
X14724D02*
D03*
X15039D02*
D03*
X15354D02*
D03*
X15669D02*
D03*
X15984D02*
D03*
X10000Y10039D02*
D03*
X10315D02*
D03*
X10630D02*
D03*
X10945D02*
D03*
X11260D02*
D03*
X11575D02*
D03*
X11890D02*
D03*
X12205D02*
D03*
X12520D02*
D03*
X12835D02*
D03*
X13150D02*
D03*
X13465D02*
D03*
X13780D02*
D03*
X14094D02*
D03*
X14409D02*
D03*
X14724D02*
D03*
X15039D02*
D03*
X15354D02*
D03*
X15669D02*
D03*
X15984D02*
D03*
X10000Y9724D02*
D03*
X10315D02*
D03*
X10630D02*
D03*
X10945D02*
D03*
X11260D02*
D03*
X11575D02*
D03*
X11890D02*
D03*
X12205D02*
D03*
X12520D02*
D03*
X12835D02*
D03*
X13150D02*
D03*
X13465D02*
D03*
X13780D02*
D03*
X14094D02*
D03*
X14409D02*
D03*
X14724D02*
D03*
X15039D02*
D03*
X15354D02*
D03*
X15669D02*
D03*
X15984D02*
D03*
X10000Y9409D02*
D03*
X10315D02*
D03*
X10630D02*
D03*
X10945D02*
D03*
X11260D02*
D03*
X11575D02*
D03*
X11890D02*
D03*
X12205D02*
D03*
X12520D02*
D03*
X12835D02*
D03*
X13150D02*
D03*
X13465D02*
D03*
X13780D02*
D03*
X14094D02*
D03*
X14409D02*
D03*
X14724D02*
D03*
X15039D02*
D03*
X15354D02*
D03*
X15669D02*
D03*
X15984D02*
D03*
X10000Y9094D02*
D03*
X10315D02*
D03*
X10630D02*
D03*
X10945D02*
D03*
X11260D02*
D03*
X11575D02*
D03*
X11890D02*
D03*
X12205D02*
D03*
X12520D02*
D03*
X12835D02*
D03*
X13150D02*
D03*
X13465D02*
D03*
X13780D02*
D03*
X14094D02*
D03*
X14409D02*
D03*
X14724D02*
D03*
X15039D02*
D03*
X15354D02*
D03*
X15669D02*
D03*
X15984D02*
D03*
X10000Y8780D02*
D03*
X10315D02*
D03*
X10630D02*
D03*
X10945D02*
D03*
X11260D02*
D03*
X11575D02*
D03*
X11890D02*
D03*
X12205D02*
D03*
X12520D02*
D03*
X12835D02*
D03*
X13150D02*
D03*
X13465D02*
D03*
X13780D02*
D03*
X14094D02*
D03*
X14409D02*
D03*
X14724D02*
D03*
X15039D02*
D03*
X15354D02*
D03*
X15669D02*
D03*
X15984D02*
D03*
X10000Y8465D02*
D03*
X10315D02*
D03*
X10630D02*
D03*
X10945D02*
D03*
X11260D02*
D03*
X11575D02*
D03*
X11890D02*
D03*
X12205D02*
D03*
X12520D02*
D03*
X12835D02*
D03*
X13150D02*
D03*
X13465D02*
D03*
X13780D02*
D03*
X14094D02*
D03*
X14409D02*
D03*
X14724D02*
D03*
X15039D02*
D03*
X15354D02*
D03*
X15669D02*
D03*
X15984D02*
D03*
X10000Y8150D02*
D03*
X10315D02*
D03*
X10630D02*
D03*
X10945D02*
D03*
X11260D02*
D03*
X11575D02*
D03*
X11890D02*
D03*
X12205D02*
D03*
X12520D02*
D03*
X12835D02*
D03*
X13150D02*
D03*
X13465D02*
D03*
X13780D02*
D03*
X14094D02*
D03*
X14409D02*
D03*
X14724D02*
D03*
X15039D02*
D03*
X15354D02*
D03*
X15669D02*
D03*
X15984D02*
D03*
X10000Y7835D02*
D03*
X10315D02*
D03*
X10630D02*
D03*
X10945D02*
D03*
X11260D02*
D03*
X11575D02*
D03*
X11890D02*
D03*
X12205D02*
D03*
X12520D02*
D03*
X12835D02*
D03*
X13150D02*
D03*
X13465D02*
D03*
X13780D02*
D03*
X14094D02*
D03*
X14409D02*
D03*
X14724D02*
D03*
X15039D02*
D03*
X15354D02*
D03*
X15669D02*
D03*
X15984D02*
D03*
X10000Y7520D02*
D03*
X10315D02*
D03*
X10630D02*
D03*
X10945D02*
D03*
X11260D02*
D03*
X11575D02*
D03*
X11890D02*
D03*
X12205D02*
D03*
X12520D02*
D03*
X12835D02*
D03*
X13150D02*
D03*
X13465D02*
D03*
X13780D02*
D03*
X14094D02*
D03*
X14409D02*
D03*
X14724D02*
D03*
X15039D02*
D03*
X15354D02*
D03*
X15669D02*
D03*
X15984D02*
D03*
X10000Y7205D02*
D03*
X10315D02*
D03*
X10630D02*
D03*
X10945D02*
D03*
X11260D02*
D03*
X11575D02*
D03*
X11890D02*
D03*
X12205D02*
D03*
X12520D02*
D03*
X12835D02*
D03*
X13150D02*
D03*
X13465D02*
D03*
X13780D02*
D03*
X14094D02*
D03*
X14409D02*
D03*
X14724D02*
D03*
X15039D02*
D03*
X15354D02*
D03*
X15669D02*
D03*
X15984D02*
D03*
X10000Y6890D02*
D03*
X10315D02*
D03*
X10630D02*
D03*
X10945D02*
D03*
X11260D02*
D03*
X11575D02*
D03*
X11890D02*
D03*
X12205D02*
D03*
X12520D02*
D03*
X12835D02*
D03*
X13150D02*
D03*
X13465D02*
D03*
X13780D02*
D03*
X14094D02*
D03*
X14409D02*
D03*
X14724D02*
D03*
X15039D02*
D03*
X15354D02*
D03*
X15669D02*
D03*
X15984D02*
D03*
X10000Y6575D02*
D03*
X10315D02*
D03*
X10630D02*
D03*
X10945D02*
D03*
X11260D02*
D03*
X11575D02*
D03*
X11890D02*
D03*
X12205D02*
D03*
X12520D02*
D03*
X12835D02*
D03*
X13150D02*
D03*
X13465D02*
D03*
X13780D02*
D03*
X14094D02*
D03*
X14409D02*
D03*
X14724D02*
D03*
X15039D02*
D03*
X15354D02*
D03*
X15669D02*
D03*
X15984D02*
D03*
X10000Y6260D02*
D03*
X10315D02*
D03*
X10630D02*
D03*
X10945D02*
D03*
X11260D02*
D03*
X11575D02*
D03*
X11890D02*
D03*
X12205D02*
D03*
X12520D02*
D03*
X12835D02*
D03*
X13150D02*
D03*
X13465D02*
D03*
X13780D02*
D03*
X14094D02*
D03*
X14409D02*
D03*
X14724D02*
D03*
X15039D02*
D03*
X15354D02*
D03*
X15669D02*
D03*
X15984D02*
D03*
X10000Y5945D02*
D03*
X10315D02*
D03*
X10630D02*
D03*
X10945D02*
D03*
X11260D02*
D03*
X11575D02*
D03*
X11890D02*
D03*
X12205D02*
D03*
X12520D02*
D03*
X12835D02*
D03*
X13150D02*
D03*
X13465D02*
D03*
X13780D02*
D03*
X14094D02*
D03*
X14409D02*
D03*
X14724D02*
D03*
X15039D02*
D03*
X15354D02*
D03*
X15669D02*
D03*
X15984D02*
D03*
X10000Y5630D02*
D03*
X10315D02*
D03*
X10630D02*
D03*
X10945D02*
D03*
X11260D02*
D03*
X11575D02*
D03*
X11890D02*
D03*
X12205D02*
D03*
X12520D02*
D03*
X12835D02*
D03*
X13150D02*
D03*
X13465D02*
D03*
X13780D02*
D03*
X14094D02*
D03*
X14409D02*
D03*
X14724D02*
D03*
X15039D02*
D03*
X15354D02*
D03*
X15669D02*
D03*
X15984D02*
D03*
X10000Y5315D02*
D03*
X10315D02*
D03*
X10630D02*
D03*
X10945D02*
D03*
X11260D02*
D03*
X11575D02*
D03*
X11890D02*
D03*
X12205D02*
D03*
X12520D02*
D03*
X12835D02*
D03*
X13150D02*
D03*
X13465D02*
D03*
X13780D02*
D03*
X14094D02*
D03*
X14409D02*
D03*
X14724D02*
D03*
X15039D02*
D03*
X15354D02*
D03*
X15669D02*
D03*
X15984D02*
D03*
X10000Y5000D02*
D03*
X10315D02*
D03*
X10630D02*
D03*
X10945D02*
D03*
X11260D02*
D03*
X11575D02*
D03*
X11890D02*
D03*
X12205D02*
D03*
X12520D02*
D03*
X12835D02*
D03*
X13150D02*
D03*
X13465D02*
D03*
X13780D02*
D03*
X14094D02*
D03*
X14409D02*
D03*
X14724D02*
D03*
X15039D02*
D03*
X15354D02*
D03*
X15669D02*
D03*
X15984D02*
D03*
X10000Y4685D02*
D03*
X10315D02*
D03*
X10630D02*
D03*
X10945D02*
D03*
X11260D02*
D03*
X11575D02*
D03*
X11890D02*
D03*
X12205D02*
D03*
X12520D02*
D03*
X12835D02*
D03*
X13150D02*
D03*
X13465D02*
D03*
X13780D02*
D03*
X14094D02*
D03*
X14409D02*
D03*
X14724D02*
D03*
X15039D02*
D03*
X15354D02*
D03*
X15669D02*
D03*
X15984D02*
D03*
X10000Y4370D02*
D03*
X10315D02*
D03*
X10630D02*
D03*
X10945D02*
D03*
X11260D02*
D03*
X11575D02*
D03*
X11890D02*
D03*
X12205D02*
D03*
X12520D02*
D03*
X12835D02*
D03*
X13150D02*
D03*
X13465D02*
D03*
X13780D02*
D03*
X14094D02*
D03*
X14409D02*
D03*
X14724D02*
D03*
X15039D02*
D03*
X15354D02*
D03*
X15669D02*
D03*
X15984D02*
D03*
D31*
X22608Y4360D02*
D03*
X22864D02*
D03*
X23120D02*
D03*
X23376D02*
D03*
Y5797D02*
D03*
X23120D02*
D03*
X22864D02*
D03*
X22608D02*
D03*
D32*
X23711Y4695D02*
D03*
Y4951D02*
D03*
Y5207D02*
D03*
Y5463D02*
D03*
X22274D02*
D03*
Y5207D02*
D03*
Y4951D02*
D03*
Y4695D02*
D03*
D33*
X22992Y5079D02*
D03*
D34*
X30394Y9343D02*
D03*
X30000D02*
D03*
X29606D02*
D03*
X29213D02*
D03*
X28819D02*
D03*
X28425D02*
D03*
X28031D02*
D03*
X27638D02*
D03*
X27244D02*
D03*
X26850D02*
D03*
X26457D02*
D03*
X26063D02*
D03*
X30394Y4843D02*
D03*
X30000D02*
D03*
X29606D02*
D03*
X29213D02*
D03*
X28819D02*
D03*
X28425D02*
D03*
X28031D02*
D03*
X27638D02*
D03*
X27244D02*
D03*
X26850D02*
D03*
X26457D02*
D03*
X26063D02*
D03*
D35*
X7362Y5945D02*
D03*
X7047D02*
D03*
X6732D02*
D03*
X5472D02*
D03*
X5157D02*
D03*
X4843D02*
D03*
X7362Y6260D02*
D03*
X7047D02*
D03*
X6732D02*
D03*
X5472D02*
D03*
X5157D02*
D03*
X4843D02*
D03*
X7362Y6575D02*
D03*
X7047D02*
D03*
X6732D02*
D03*
X5472D02*
D03*
X5157D02*
D03*
X4843D02*
D03*
X7362Y6890D02*
D03*
X7047D02*
D03*
X6732D02*
D03*
X5472D02*
D03*
X5157D02*
D03*
X4843D02*
D03*
X7362Y7205D02*
D03*
X7047D02*
D03*
X6732D02*
D03*
X5472D02*
D03*
X5157D02*
D03*
X4843D02*
D03*
X7362Y7520D02*
D03*
X7047D02*
D03*
X6732D02*
D03*
X5472D02*
D03*
X5157D02*
D03*
X4843D02*
D03*
X7362Y7835D02*
D03*
X7047D02*
D03*
X6732D02*
D03*
X5472D02*
D03*
X5157D02*
D03*
X4843D02*
D03*
X7362Y8150D02*
D03*
X7047D02*
D03*
X6732D02*
D03*
X5472D02*
D03*
X5157D02*
D03*
X4843D02*
D03*
X7362Y8465D02*
D03*
X7047D02*
D03*
X6732D02*
D03*
X5472D02*
D03*
X5157D02*
D03*
X4843D02*
D03*
X7362Y8780D02*
D03*
X7047D02*
D03*
X6732D02*
D03*
X5472D02*
D03*
X5157D02*
D03*
X4843D02*
D03*
X7362Y9094D02*
D03*
X7047D02*
D03*
X6732D02*
D03*
X5472D02*
D03*
X5157D02*
D03*
X4843D02*
D03*
X7362Y9409D02*
D03*
X7047D02*
D03*
X6732D02*
D03*
X5472D02*
D03*
X5157D02*
D03*
X4843D02*
D03*
X7362Y9724D02*
D03*
X7047D02*
D03*
X6732D02*
D03*
X5472D02*
D03*
X5157D02*
D03*
X4843D02*
D03*
X7362Y10039D02*
D03*
X7047D02*
D03*
X6732D02*
D03*
X5472D02*
D03*
X5157D02*
D03*
X4843D02*
D03*
X7362Y10354D02*
D03*
X7047D02*
D03*
X6732D02*
D03*
X5472D02*
D03*
X5157D02*
D03*
X4843D02*
D03*
X7362Y10669D02*
D03*
X7047D02*
D03*
X6732D02*
D03*
X5472D02*
D03*
X5157D02*
D03*
X4843D02*
D03*
D36*
X31024Y551D02*
D03*
X30787D02*
D03*
X30551D02*
D03*
X30315D02*
D03*
X30079D02*
D03*
X29843D02*
D03*
X29606D02*
D03*
X29370D02*
D03*
X29134D02*
D03*
X28898D02*
D03*
X28661D02*
D03*
X28425D02*
D03*
X28189D02*
D03*
X27953D02*
D03*
X27717D02*
D03*
X27480D02*
D03*
X27244D02*
D03*
X27008D02*
D03*
X26772D02*
D03*
X26535D02*
D03*
X26299D02*
D03*
X26063D02*
D03*
X25827D02*
D03*
X25591D02*
D03*
X25354D02*
D03*
X25118D02*
D03*
X24882D02*
D03*
X24646D02*
D03*
X24409D02*
D03*
X24173D02*
D03*
X23937D02*
D03*
X23701D02*
D03*
X23465D02*
D03*
X23228D02*
D03*
X22992D02*
D03*
X22756D02*
D03*
X22520D02*
D03*
X22283D02*
D03*
X22047D02*
D03*
X21811D02*
D03*
X21575D02*
D03*
X21339D02*
D03*
X21102D02*
D03*
X20866D02*
D03*
X20630D02*
D03*
X20394D02*
D03*
X20157D02*
D03*
X19921D02*
D03*
X19685D02*
D03*
X19449D02*
D03*
X19213D02*
D03*
X18976D02*
D03*
X18740D02*
D03*
X18504D02*
D03*
X18268D02*
D03*
X18032D02*
D03*
X17795D02*
D03*
X16378Y551D02*
D03*
X16142D02*
D03*
X15906D02*
D03*
X15669D02*
D03*
X15433D02*
D03*
X15197D02*
D03*
X14961D02*
D03*
X14724D02*
D03*
X14488D02*
D03*
X14252D02*
D03*
X14016D02*
D03*
X13780D02*
D03*
X13543D02*
D03*
X13307D02*
D03*
X13071D02*
D03*
X12835D02*
D03*
X12598D02*
D03*
X12362D02*
D03*
X12126D02*
D03*
X11890D02*
D03*
X11654D02*
D03*
X11417D02*
D03*
X11181D02*
D03*
X10945D02*
D03*
X10709D02*
D03*
X10472D02*
D03*
X10236D02*
D03*
X10000D02*
D03*
X9764D02*
D03*
X9528D02*
D03*
X9291D02*
D03*
X9055D02*
D03*
X8819D02*
D03*
X8583D02*
D03*
X8346D02*
D03*
X8110D02*
D03*
X7874D02*
D03*
X7638D02*
D03*
X7402D02*
D03*
X7165D02*
D03*
X6929D02*
D03*
X6693D02*
D03*
X6457D02*
D03*
X6220D02*
D03*
X5984D02*
D03*
X5748D02*
D03*
X5512D02*
D03*
X5276D02*
D03*
X5039D02*
D03*
X4803D02*
D03*
X4567D02*
D03*
X4331D02*
D03*
X4094D02*
D03*
X3858D02*
D03*
X3622D02*
D03*
X3386D02*
D03*
X3150D02*
D03*
X2913D02*
D03*
X2677D02*
D03*
X2441D02*
D03*
X2205D02*
D03*
X1969D02*
D03*
X1732D02*
D03*
X1496D02*
D03*
X1260D02*
D03*
D37*
X1496Y2461D02*
D03*
Y1870D02*
D03*
D38*
X22045Y8211D02*
D03*
X22545D02*
D03*
X23045D02*
D03*
X23545D02*
D03*
X22045Y11238D02*
D03*
X22545D02*
D03*
X23045D02*
D03*
X23545D02*
D03*
D39*
X22795Y9724D02*
D03*
D40*
X20394Y9744D02*
D03*
Y10118D02*
D03*
Y10492D02*
D03*
X19449D02*
D03*
Y10118D02*
D03*
Y9744D02*
D03*
D41*
X24711Y8553D02*
D03*
Y8415D02*
D03*
Y8278D02*
D03*
Y8140D02*
D03*
X24974Y8553D02*
D03*
Y8415D02*
D03*
Y8278D02*
D03*
Y8140D02*
D03*
D42*
X25591Y1339D02*
Y2047D01*
X25157Y1535D02*
Y2047D01*
X22559Y1766D02*
Y2205D01*
X22244Y2520D02*
X22559Y2205D01*
X22244Y2520D02*
Y3307D01*
X21929Y2480D02*
Y3307D01*
Y2480D02*
X22165Y2244D01*
Y1654D02*
Y2244D01*
X21535Y3307D02*
X21752Y3091D01*
Y2343D02*
Y3091D01*
Y2343D02*
X21969Y2126D01*
Y1654D02*
Y2126D01*
X22638Y3189D02*
X22953Y2874D01*
X22638Y3189D02*
Y3307D01*
X22559Y1766D02*
X22795Y1530D01*
X22913Y3307D02*
Y3346D01*
X23071Y3504D01*
X20827Y1024D02*
Y2992D01*
X20512Y3307D02*
X20827Y2992D01*
Y3307D02*
X21378Y2756D01*
X21535Y709D02*
Y2913D01*
X21142Y3307D02*
X21535Y2913D01*
X21969Y1654D02*
X22087Y1535D01*
X21378Y1024D02*
Y2756D01*
X20197Y3307D02*
X20630Y2874D01*
Y2283D02*
Y2874D01*
Y2283D02*
X20669Y2244D01*
Y1890D02*
Y2244D01*
X20630Y1805D02*
Y1850D01*
X20669Y1890D01*
X16811Y2795D02*
X17323Y2283D01*
X16811Y2795D02*
Y5079D01*
X22165Y1654D02*
X22244Y1575D01*
Y1024D02*
Y1575D01*
X22087Y1024D02*
Y1535D01*
X22244Y1024D02*
X22283Y984D01*
X23150Y2441D02*
X23189Y2480D01*
X23150Y1850D02*
Y2441D01*
Y1850D02*
X23386Y1614D01*
X22953Y591D02*
Y2874D01*
X23504Y2362D02*
Y3228D01*
X23307Y2165D02*
X23504Y2362D01*
X23307Y1969D02*
Y2165D01*
X23386Y1417D02*
Y1614D01*
X23642Y1831D02*
X23780Y1693D01*
X23307Y1969D02*
X23445Y1831D01*
X23642D01*
X23740Y2008D02*
Y3228D01*
Y2008D02*
X23937Y1811D01*
X23740Y3228D02*
X23819Y3307D01*
X23465Y551D02*
Y1339D01*
X23386Y1417D02*
X23465Y1339D01*
X22953Y591D02*
X22992Y551D01*
X24882D02*
Y1260D01*
X25157Y1535D01*
X23780Y1417D02*
Y1693D01*
X23740Y1378D02*
X23780Y1417D01*
X23740Y591D02*
Y1378D01*
X23701Y551D02*
X23740Y591D01*
X24134Y1732D02*
Y2402D01*
Y591D02*
Y1457D01*
X24094Y1693D02*
X24134Y1732D01*
X24094Y1496D02*
Y1693D01*
Y1496D02*
X24134Y1457D01*
X23937Y551D02*
Y1811D01*
X24409Y551D02*
Y1417D01*
X24488Y1496D01*
X24409Y1772D02*
Y2441D01*
Y1772D02*
X24488Y1693D01*
Y1496D02*
Y1693D01*
X24055Y2480D02*
X24134Y2402D01*
Y591D02*
X24173Y551D01*
X24409Y2441D02*
X24449Y2480D01*
X23425Y3307D02*
X23504Y3228D01*
X16457Y2835D02*
Y3189D01*
X16350Y2728D02*
X16457Y2835D01*
X16350Y1311D02*
Y2728D01*
X15953Y2646D02*
X16220Y2913D01*
X15953Y598D02*
Y2646D01*
X15118Y2244D02*
X15197Y2165D01*
X14797Y2244D02*
X15118D01*
X14370Y2480D02*
X15276D01*
X14055Y2165D02*
X14370Y2480D01*
X14055Y591D02*
Y2165D01*
X14252Y2638D02*
X15197D01*
X13819Y2205D02*
X14252Y2638D01*
X13819Y1614D02*
Y2205D01*
X14134Y2795D02*
X15118D01*
X13661Y2323D02*
X14134Y2795D01*
X13661Y1693D02*
Y2323D01*
X12992Y1260D02*
Y1732D01*
X13189Y1929D02*
Y2559D01*
X12992Y1732D02*
X13189Y1929D01*
X12598Y551D02*
Y2047D01*
X12835Y551D02*
Y2559D01*
X11693Y1260D02*
X11772D01*
X11890Y1142D01*
Y2953D02*
X15039D01*
X11496Y2559D02*
X11890Y2953D01*
Y1457D02*
Y2559D01*
Y1457D02*
X12126Y1220D01*
X11693Y3110D02*
X14921D01*
X11063Y2559D02*
X11142D01*
X11693Y3110D01*
X12283Y1969D02*
Y2559D01*
X12165Y1850D02*
X12283Y1969D01*
X12165Y1457D02*
Y1850D01*
X10197Y3425D02*
X14685D01*
X10000Y3228D02*
X10197Y3425D01*
X10000Y2559D02*
Y3228D01*
X9843Y3583D02*
X14567D01*
X9299Y3039D02*
X9843Y3583D01*
X8150Y3898D02*
X13622D01*
X7402Y3150D02*
X8150Y3898D01*
X7402Y2559D02*
Y3150D01*
X7953Y4055D02*
X13150D01*
X7165Y3268D02*
X7953Y4055D01*
X7165Y3031D02*
Y3268D01*
X10748Y1732D02*
X11063Y2047D01*
X10906Y591D02*
Y1339D01*
X10748Y1496D02*
Y1732D01*
Y1496D02*
X10906Y1339D01*
X10039Y1732D02*
X10354Y2047D01*
X10197Y591D02*
Y1339D01*
X10039Y1496D02*
Y1732D01*
Y1496D02*
X10197Y1339D01*
X9331Y1732D02*
X9646Y2047D01*
X9488Y591D02*
Y1339D01*
X9331Y1496D02*
Y1732D01*
Y1496D02*
X9488Y1339D01*
X8150Y1732D02*
X8465Y2047D01*
X8307Y591D02*
Y1339D01*
X8150Y1496D02*
Y1732D01*
Y1496D02*
X8307Y1339D01*
X7480Y1772D02*
X7756Y2047D01*
X7638Y551D02*
Y1339D01*
X7480Y1496D02*
Y1772D01*
Y1496D02*
X7638Y1339D01*
X6732Y1732D02*
X7047Y2047D01*
X6890Y591D02*
Y1299D01*
X6732Y1457D02*
Y1732D01*
Y1457D02*
X6890Y1299D01*
X15669Y3858D02*
Y4370D01*
X14921Y3110D02*
X15669Y3858D01*
X15512Y3976D02*
Y4213D01*
X14803Y3268D02*
X15512Y3976D01*
X10945Y3268D02*
X14803D01*
X15354Y4094D02*
Y4370D01*
X14685Y3425D02*
X15354Y4094D01*
X24974Y8415D02*
X25876D01*
X25620Y8278D02*
X25787Y8110D01*
X24974Y8278D02*
X25620D01*
X24213Y8415D02*
X24711D01*
X24144Y8346D02*
X24213Y8415D01*
X23819Y8346D02*
X24144D01*
X23819Y8031D02*
X24094D01*
X24341Y8278D01*
X24711D01*
X24803Y9695D02*
Y10709D01*
X24173Y11339D02*
X24803Y10709D01*
X24715Y9606D02*
X24803Y9695D01*
X25827Y4331D02*
X27205Y2953D01*
X25591Y4331D02*
X25827D01*
X14724Y1299D02*
Y1844D01*
X16142Y551D02*
Y1102D01*
X16350Y1311D01*
X30118Y1102D02*
X30315Y1299D01*
X30118Y984D02*
Y1102D01*
X30079Y945D02*
X30118Y984D01*
X30079Y551D02*
Y945D01*
X24528Y9606D02*
X24715D01*
X1024Y9242D02*
X1033Y9252D01*
X1575D01*
X1339Y9449D02*
X1339Y9449D01*
X1575D01*
X16220Y2913D02*
Y3189D01*
X15276Y2480D02*
X16654Y3858D01*
X24685Y2480D02*
X24764Y2402D01*
X24685Y2480D02*
Y3307D01*
X24055Y2480D02*
Y3307D01*
X23189Y2480D02*
Y3307D01*
X24449Y2480D02*
Y3307D01*
X14528Y1102D02*
X14724Y1299D01*
X14528Y984D02*
Y1102D01*
X14488Y945D02*
X14528Y984D01*
X14488Y551D02*
Y945D01*
X15236Y1102D02*
X15394Y1260D01*
X15236Y1024D02*
Y1102D01*
X15197Y984D02*
X15236Y1024D01*
X15197Y551D02*
Y984D01*
X19094Y4567D02*
X19488D01*
X19528Y4528D01*
X19636D01*
X19646Y4537D01*
X15984Y6890D02*
X16339Y6535D01*
Y5551D02*
X16811Y5079D01*
X16339Y5551D02*
Y6535D01*
X18898Y8780D02*
X19055Y8622D01*
X17835Y8780D02*
X18898D01*
X17559Y9055D02*
X17835Y8780D01*
X25669Y3661D02*
X26417Y2913D01*
X16142Y8622D02*
X16457D01*
X15984Y8780D02*
X16142Y8622D01*
X15354Y9094D02*
X15512Y8937D01*
X15354Y9094D02*
X15354D01*
X15669D02*
X15827Y8937D01*
X15669Y9094D02*
X15669D01*
X14567Y8307D02*
Y8307D01*
X14409Y8150D02*
X14567Y8307D01*
X14252Y8622D02*
X14409Y8465D01*
X14567Y7992D02*
X14724Y8150D01*
X14882Y8307D02*
X15039Y8465D01*
X15039D01*
X14724Y7835D02*
X14882Y7677D01*
Y7992D02*
X15039Y8150D01*
X15197Y8307D02*
X15197D01*
X15354Y8465D01*
Y8150D02*
X15512Y8307D01*
X15354Y8150D02*
Y8150D01*
X15669Y8465D02*
X15827Y8307D01*
X15669Y8465D02*
X15669D01*
X15197Y7677D02*
X15354Y7835D01*
X15354D01*
X15984Y8150D02*
X16142Y7992D01*
X16299Y7835D02*
X16457Y7677D01*
X15984Y7835D02*
X16299D01*
Y7205D02*
X16457Y7047D01*
X15984Y7205D02*
X16299D01*
X14724Y7835D02*
Y7835D01*
X14252Y7992D02*
Y7992D01*
Y7992D02*
X14409Y7835D01*
X15669Y7520D02*
X15827Y7677D01*
X15669Y7835D02*
X15827Y7992D01*
X15354Y7520D02*
X15512Y7677D01*
X15354Y7520D02*
Y7520D01*
X13937Y8622D02*
Y8622D01*
Y8622D02*
X14094Y8465D01*
X14567Y7677D02*
Y7677D01*
Y7677D02*
X14724Y7520D01*
X15197Y7362D02*
X15197D01*
X15039Y7520D02*
X15197Y7362D01*
X13937Y7992D02*
Y7992D01*
Y7992D02*
X14094Y7835D01*
Y7520D02*
X14252Y7677D01*
X15827Y7047D02*
X15827D01*
X15669Y7205D02*
X15827Y7047D01*
X14724Y7205D02*
X14882Y7362D01*
Y7047D02*
X15039Y7205D01*
X15984Y8465D02*
X15984D01*
X15669Y8780D02*
X15827Y8622D01*
X15669Y8780D02*
X15669D01*
X14882Y8622D02*
X14882D01*
X14724Y8780D02*
X14882Y8622D01*
X15039Y8780D02*
X15197Y8622D01*
Y9252D02*
X15354Y9409D01*
X15354D01*
X15512Y9252D02*
X15669Y9409D01*
X15669D01*
X26654Y1260D02*
Y1378D01*
X26535Y1142D02*
X26654Y1260D01*
X26535Y551D02*
Y1142D01*
X26417Y1614D02*
X26654Y1378D01*
X26732Y1772D02*
X26890Y1614D01*
Y1457D02*
Y1614D01*
X26772Y1339D02*
X26890Y1457D01*
X26772Y551D02*
Y1339D01*
X27008Y1024D02*
X27126Y1142D01*
X27008Y551D02*
Y1024D01*
X27283Y591D02*
Y2480D01*
X27244Y551D02*
X27283Y591D01*
X29843Y2648D02*
Y3465D01*
X29872Y2598D02*
X29882Y2608D01*
X29016Y3189D02*
Y3583D01*
Y3189D02*
X29577Y2628D01*
Y2598D02*
Y2628D01*
X13937Y9567D02*
Y9567D01*
Y9567D02*
X14094Y9409D01*
X13780Y10039D02*
X13937Y10197D01*
X13780Y10039D02*
Y10039D01*
X14094Y10039D02*
X14252Y10197D01*
X29380Y1772D02*
Y2047D01*
X15197Y9882D02*
X15354Y9724D01*
X15039D02*
X15197Y9567D01*
X14409Y10039D02*
X14567Y10197D01*
X14409Y10039D02*
Y10039D01*
X13465Y9724D02*
X13622Y9882D01*
X13465Y9724D02*
Y9724D01*
X13622Y10197D02*
Y10197D01*
X13465Y10039D02*
X13622Y10197D01*
X14252Y9567D02*
Y9567D01*
Y9567D02*
X14409Y9409D01*
X14882Y8937D02*
X14882D01*
X14724Y9094D02*
X14882Y8937D01*
X14724Y9724D02*
X14882Y9567D01*
X14724Y9724D02*
X14724D01*
X19026Y10118D02*
X19449D01*
X20394Y9528D02*
Y9744D01*
X14409Y9724D02*
X14567Y9567D01*
X13937Y9882D02*
Y9882D01*
X13780Y9724D02*
X13937Y9882D01*
X11890Y9724D02*
Y9724D01*
X12047Y9882D01*
X13696Y1186D02*
Y1492D01*
X8346Y3740D02*
X13937D01*
X7638Y3031D02*
X8346Y3740D01*
X13696Y1492D02*
X13819Y1614D01*
X13696Y1186D02*
X13780Y1102D01*
X13543Y1575D02*
X13661Y1693D01*
X13543Y551D02*
Y1575D01*
X14016Y551D02*
X14055Y591D01*
X13386Y1260D02*
Y1693D01*
X13819Y1614D02*
X13819D01*
X16654Y3858D02*
Y4961D01*
X15984Y5630D02*
X16654Y4961D01*
X15197Y2638D02*
X16496Y3937D01*
Y4803D01*
X15984Y5315D02*
X16496Y4803D01*
X15118Y2795D02*
X16339Y4016D01*
Y4646D01*
X15984Y5000D02*
X16339Y4646D01*
X15669Y5315D02*
X15827Y5157D01*
X15669Y5315D02*
X15669D01*
X15354D02*
X15512Y5157D01*
X15827Y6102D02*
X15984Y6260D01*
X15827Y6417D02*
X15827D01*
X15984Y6575D01*
X15512Y6102D02*
X15669Y6260D01*
X15197Y6417D02*
X15197D01*
X15354Y6575D01*
X14409Y5315D02*
X14567Y5157D01*
X13307Y1181D02*
X13386Y1260D01*
X13780Y551D02*
Y1102D01*
X13307Y551D02*
Y1181D01*
X11890Y551D02*
Y1142D01*
X12126Y551D02*
Y1220D01*
X12165Y1457D02*
X12362Y1260D01*
Y551D02*
Y1260D01*
X12992D02*
X13071Y1181D01*
Y551D02*
Y1181D01*
X9291Y3031D02*
X9299Y3039D01*
X15039Y2953D02*
X16181Y4094D01*
Y4488D01*
X15984Y4685D02*
X16181Y4488D01*
X10709Y3031D02*
X10945Y3268D01*
X14567Y3583D02*
X15197Y4213D01*
X15512Y4843D02*
X15512D01*
X15354Y5000D02*
X15512Y4843D01*
X15512Y4528D02*
X15669Y4685D01*
X15197Y4528D02*
X15197D01*
X15354Y4685D01*
X15197Y4843D02*
X15197D01*
X15039Y5000D02*
X15197Y4843D01*
X14567Y4528D02*
X14724Y4685D01*
X14567Y4843D02*
X14724Y5000D01*
X14724D01*
X14882Y5787D02*
Y5787D01*
Y5787D02*
X15039Y5630D01*
X14252Y4843D02*
X14252D01*
X14409Y5000D01*
X14252Y4528D02*
X14409Y4685D01*
X13465Y4370D02*
X13622Y4213D01*
X12992Y4843D02*
X13150Y5000D01*
X12992Y5157D02*
Y5157D01*
X12835Y5000D02*
X12992Y5157D01*
Y4213D02*
X13150Y4370D01*
X13307Y4528D02*
X13307D01*
X13150Y4685D02*
X13307Y4528D01*
X12835Y4685D02*
X12992Y4528D01*
X12362D02*
X12520Y4685D01*
X12047Y4528D02*
X12205Y4685D01*
X12677Y5472D02*
Y5472D01*
X12520Y5315D02*
X12677Y5472D01*
X11417Y4843D02*
X11417D01*
X11575Y5000D01*
X11417Y4528D02*
X11575Y4685D01*
X12205Y5315D02*
X12362Y5157D01*
X12205Y5315D02*
X12205D01*
X14252Y5472D02*
X14409Y5630D01*
X13937Y5787D02*
X14094Y5630D01*
Y5630D02*
Y5630D01*
X13937Y4843D02*
X13937D01*
X13780Y5000D02*
X13937Y4843D01*
X13465Y5000D02*
X13622Y4843D01*
X13465Y5000D02*
X13465D01*
X13465Y5315D02*
X13622Y5472D01*
X13465Y5315D02*
Y5315D01*
X19449Y10118D02*
X19724D01*
X20138Y10492D02*
X20394D01*
X19705D02*
X19724Y10512D01*
X19449Y10492D02*
X19705D01*
X14094Y6260D02*
X14252Y6102D01*
X14094Y6260D02*
X14094D01*
X13622Y4528D02*
X13780Y4685D01*
X13780D01*
X13465Y5630D02*
X13622Y5787D01*
X13465Y5630D02*
Y5630D01*
X13150Y5630D02*
X13307Y5787D01*
X12677D02*
X12835Y5630D01*
X9882Y1260D02*
Y1299D01*
X10354Y1575D02*
Y1575D01*
X7756Y1575D02*
Y1575D01*
X7992Y1260D02*
X8110Y1142D01*
Y551D02*
Y1142D01*
X7756Y1575D02*
X7795Y1535D01*
Y1181D02*
Y1535D01*
X7283Y1260D02*
Y1299D01*
X11102Y5157D02*
X11260Y5315D01*
X11260D01*
Y5630D02*
X11417Y5472D01*
X15906Y551D02*
X15953Y598D01*
X12205Y9724D02*
X12362Y9882D01*
X11102D02*
X11260Y9724D01*
X13780Y4134D02*
Y4370D01*
Y4134D02*
X13898Y4016D01*
X14134D01*
X13150Y4055D02*
X13307Y4213D01*
X14094Y5945D02*
X14094D01*
X14252Y5787D01*
X14567Y5472D02*
X14724Y5630D01*
X14882Y5472D02*
X15039Y5315D01*
X14882Y5472D02*
Y5472D01*
X13937Y4213D02*
X14094Y4370D01*
X13937Y4528D02*
X14094Y4685D01*
Y5315D02*
X14094D01*
X14252Y5157D01*
X14567Y4213D02*
X14724Y4370D01*
X14882Y4213D02*
X15039Y4370D01*
X14409Y5000D02*
X14409D01*
X14134Y4016D02*
X14252Y3898D01*
X25787Y8110D02*
X25787D01*
X25876Y8415D02*
X26181Y8110D01*
X11260Y10039D02*
Y10039D01*
X11417Y10197D01*
X12835Y9724D02*
X12992Y9882D01*
Y9882D01*
X13150Y9724D02*
X13307Y9567D01*
X13307D01*
X12835Y10039D02*
Y10039D01*
X12992Y10197D01*
X30069Y1772D02*
X30079Y1762D01*
X30069Y1772D02*
Y2047D01*
X30079Y1535D02*
X30315Y1299D01*
X30079Y1535D02*
Y1762D01*
X29843Y551D02*
Y2293D01*
X29872Y2323D01*
Y2598D01*
X29577Y2323D02*
Y2598D01*
X29606Y551D02*
Y2293D01*
X29577Y2323D02*
X29606Y2293D01*
X29213Y1299D02*
X29370Y1142D01*
Y551D02*
Y1142D01*
X29213Y1299D02*
X29380Y1467D01*
Y1772D01*
X24646Y551D02*
Y1726D01*
X22756Y551D02*
Y984D01*
X22795Y1024D01*
X22283Y551D02*
Y984D01*
X22047Y551D02*
Y984D01*
X22087Y1024D01*
X21339Y551D02*
Y984D01*
X21378Y1024D01*
X20866Y551D02*
Y984D01*
X20827Y1024D02*
X20866Y984D01*
X20630Y551D02*
Y1805D01*
X20630Y1805D02*
X20630Y1805D01*
X15669Y5630D02*
X15827Y5472D01*
X15827D01*
X15039Y5945D02*
X15197Y5787D01*
X15197Y6102D02*
X15354Y5945D01*
X14724D02*
X14724D01*
X14567Y5787D02*
X14724Y5945D01*
X15354Y6260D02*
Y6260D01*
X15512Y6417D01*
X14409Y6260D02*
Y6260D01*
X14252Y6417D02*
X14409Y6260D01*
X14724Y6260D02*
Y6260D01*
X14567Y6417D02*
X14724Y6260D01*
X14882Y6417D02*
X15039Y6575D01*
X14882Y6417D02*
X14882D01*
X15669Y5945D02*
X15827Y5787D01*
X15827D01*
X14409Y6575D02*
Y6575D01*
X14567Y6732D01*
X14724Y6575D02*
X14882Y6732D01*
X14094Y6890D02*
X14094D01*
X14252Y6732D01*
Y7047D02*
X14409Y6890D01*
X14252Y7047D02*
Y7047D01*
X15039Y6890D02*
X15197Y6732D01*
Y7047D02*
X15354Y6890D01*
X15669D02*
X15827Y6732D01*
X15827D01*
X13937Y7047D02*
X14094Y7205D01*
X14409D02*
Y7205D01*
X14252Y7362D02*
X14409Y7205D01*
X26732Y1772D02*
Y2913D01*
X25827Y4094D02*
X26890Y3031D01*
X25748Y3898D02*
X25748D01*
X26732Y2913D01*
X15984Y8465D02*
X16142Y8307D01*
X16693D01*
X25236Y4331D02*
X25472Y4094D01*
X25827D01*
X23711Y4695D02*
X23848D01*
X23937Y4606D01*
X24163D02*
X24173Y4616D01*
X15394Y1260D02*
Y2362D01*
X16457Y8622D02*
X16726D01*
X26417Y1614D02*
Y2913D01*
X24646Y1726D02*
X24764Y1844D01*
Y2402D01*
X22795Y1024D02*
Y1530D01*
X23071Y3504D02*
X24843D01*
X25354Y2992D01*
Y551D02*
Y2992D01*
X27205Y2559D02*
Y2953D01*
X15984Y9409D02*
X16339Y9055D01*
X17559D01*
X27205Y2559D02*
X27283Y2480D01*
X26890Y2126D02*
Y3031D01*
Y2126D02*
X27126Y1890D01*
Y1142D02*
Y1890D01*
X10906Y591D02*
X10945Y551D01*
X11063Y1220D02*
Y1575D01*
X10197Y591D02*
X10236Y551D01*
X10354Y1220D02*
Y1575D01*
X10433Y591D02*
X10472Y551D01*
X10433Y591D02*
Y1142D01*
X10354Y1220D02*
X10433Y1142D01*
X9488Y591D02*
X9528Y551D01*
X9646Y1220D02*
Y1575D01*
X9724Y591D02*
X9764Y551D01*
X9724Y591D02*
Y1142D01*
X9646Y1220D02*
X9724Y1142D01*
X8307Y591D02*
X8346Y551D01*
X8465Y1220D02*
Y1575D01*
X8543Y591D02*
X8583Y551D01*
X8543Y591D02*
Y1142D01*
X8465Y1220D02*
X8543Y1142D01*
X6890Y591D02*
X6929Y551D01*
X7047Y1220D02*
Y1575D01*
X7126Y591D02*
X7165Y551D01*
X7126Y591D02*
Y1142D01*
X7047Y1220D02*
X7126Y1142D01*
X8780Y591D02*
X8819Y551D01*
X8780Y591D02*
Y1181D01*
X8701Y1260D02*
X8780Y1181D01*
X7835Y591D02*
X7874Y551D01*
X7835Y591D02*
Y1142D01*
X7795Y1181D02*
X7835Y1142D01*
X9252Y591D02*
X9291Y551D01*
X9252Y591D02*
Y1181D01*
X9173Y1260D02*
X9252Y1181D01*
X9961Y591D02*
X10000Y551D01*
X9961Y591D02*
Y1181D01*
X9882Y1260D02*
X9961Y1181D01*
X10669Y591D02*
X10709Y551D01*
X10669Y591D02*
Y1181D01*
X10591Y1260D02*
X10669Y1181D01*
X11142Y591D02*
X11181Y551D01*
X11142Y591D02*
Y1142D01*
X11063Y1220D02*
X11142Y1142D01*
X11378Y591D02*
X11417Y551D01*
X11378Y591D02*
Y1181D01*
X11299Y1260D02*
X11378Y1181D01*
X7362Y591D02*
X7402Y551D01*
X7362Y591D02*
Y1181D01*
X7283Y1260D02*
X7362Y1181D01*
X6654Y591D02*
X6693Y551D01*
X6654Y591D02*
Y1181D01*
X6575Y1260D02*
X6654Y1181D01*
X23937Y4606D02*
X24163D01*
X29843Y2648D02*
X29882Y2608D01*
X23346Y4449D02*
X23543D01*
D43*
X20354Y10866D02*
Y11181D01*
X29213Y4488D02*
X29370Y4331D01*
X29370D01*
X28031Y4488D02*
X28189Y4331D01*
X26850Y4488D02*
Y4528D01*
Y4488D02*
X27008Y4331D01*
X3366Y9154D02*
X3386Y9173D01*
X2106Y9154D02*
X3366D01*
X31024Y1299D02*
X31024Y1299D01*
Y551D02*
Y1299D01*
D44*
X24409Y8701D02*
X24557Y8553D01*
X24711D01*
X25319D02*
X25394Y8628D01*
X24974Y8553D02*
X25319D01*
X18931Y11181D02*
Y11423D01*
X17047Y11535D02*
X18819D01*
X18931Y11423D01*
X16417Y10669D02*
X16811Y11063D01*
X16929D02*
X16968Y11102D01*
X16811Y11063D02*
X16929D01*
X13622Y5157D02*
X13780Y5315D01*
X11102Y7992D02*
X11260Y8150D01*
X12205Y5000D02*
Y5000D01*
X12520Y7835D02*
X12677Y7992D01*
X30512Y10344D02*
X30778D01*
X30945Y10512D01*
X29528Y10344D02*
X29793D01*
X29961Y10512D01*
X28543Y10344D02*
X28809D01*
X28976Y10512D01*
X30354Y10344D02*
X30512D01*
X29370D02*
X29528D01*
X28386D02*
X28543D01*
X14094Y10354D02*
X14409Y10669D01*
X16417D01*
X16339Y10827D02*
X17047Y11535D01*
X20557Y7722D02*
X20906D01*
X13465Y10354D02*
Y10669D01*
X13622Y10827D01*
X16339D01*
X7559Y4404D02*
X7593D01*
X7874Y4685D01*
X5906D02*
X6187Y4404D01*
X6220D01*
X11102Y4843D02*
X11102D01*
X11260Y5000D01*
X12047Y5157D02*
X12205Y5000D01*
X19665Y6793D02*
X19965Y7093D01*
X20906D01*
X19094Y4764D02*
X19528D01*
X20551Y7717D02*
X20557Y7722D01*
X7559Y4443D02*
X7559D01*
D45*
X25006Y9016D02*
X25394Y8628D01*
X26372D01*
X1260Y394D02*
Y551D01*
X1260Y551D02*
X1260Y551D01*
X1969Y394D02*
Y551D01*
X3150Y394D02*
Y551D01*
X3858Y394D02*
Y551D01*
X15118Y1299D02*
X15197D01*
X14961Y1142D02*
X15118Y1299D01*
X26496Y8504D02*
X27559D01*
X27953Y8110D01*
Y6496D02*
Y8110D01*
X17480Y4646D02*
X17500Y4665D01*
X18563D01*
X27480Y551D02*
Y1535D01*
X26378Y10990D02*
Y11417D01*
X28819Y2250D02*
Y2402D01*
X29016Y2598D01*
X29134D01*
X14409Y1299D02*
X14488D01*
X3150Y551D02*
Y945D01*
X1969Y551D02*
Y945D01*
X1260Y551D02*
Y945D01*
X1260Y551D02*
X1260Y551D01*
X14961Y551D02*
Y1142D01*
X14252Y551D02*
X14252Y551D01*
X15669Y551D02*
Y1535D01*
X14252Y551D02*
Y1142D01*
X14409Y1299D01*
X26372Y8628D02*
X26496Y8504D01*
X25000Y9010D02*
X25006Y9016D01*
X24970Y9051D02*
Y9331D01*
Y9051D02*
X25006Y9016D01*
X27953Y6496D02*
X28740Y5709D01*
X28976D01*
X24970Y9606D02*
X25394D01*
X28543Y11266D02*
Y11457D01*
X29528Y11266D02*
Y11457D01*
X30512Y11266D02*
Y11457D01*
X27795Y11142D02*
Y11417D01*
X26811Y11142D02*
Y11417D01*
X29124Y1614D02*
Y1772D01*
X30325Y1614D02*
Y1772D01*
X29124Y2047D02*
Y2313D01*
X29134Y2323D01*
X29321D01*
X30325Y2047D02*
Y2313D01*
X30315Y2323D02*
X30325Y2313D01*
X30128Y2323D02*
X30315D01*
X29134Y2598D02*
X29321D01*
X30128D02*
X30315D01*
X26299Y551D02*
Y1142D01*
X25827Y1339D02*
X26102D01*
X26299Y1142D01*
X23720Y6299D02*
X23819Y6201D01*
X24213D01*
D46*
X30551Y3898D02*
X30591Y3937D01*
X30551Y2671D02*
Y3898D01*
X31299Y3307D02*
Y5709D01*
X30787Y2795D02*
X31299Y3307D01*
X30787Y551D02*
Y2795D01*
X21945Y8110D02*
X22045Y8211D01*
X21870Y8110D02*
X21945D01*
X22545Y11238D02*
X22559Y11224D01*
Y10866D02*
Y11224D01*
X23031Y8197D02*
X23045Y8211D01*
X23031Y7913D02*
Y8197D01*
X22441Y7953D02*
X22520Y8031D01*
X22441Y7913D02*
Y7953D01*
X23425Y10984D02*
X23504Y11063D01*
X23268Y10984D02*
X23425D01*
X23045Y11238D02*
X23106Y11299D01*
X23268D01*
X11890Y10354D02*
X12047Y10512D01*
Y10512D01*
X11575Y10354D02*
X11732Y10512D01*
Y10512D01*
Y9882D02*
X11890Y10039D01*
X11890D01*
X11575Y9409D02*
X11575D01*
X11417Y9252D02*
X11575Y9409D01*
X12205Y10039D02*
X12362Y10197D01*
X11260Y10354D02*
X11417Y10512D01*
Y10512D01*
X19724Y11181D02*
X19843D01*
X19291D02*
X19724D01*
X17368D02*
X17835D01*
X29606Y4134D02*
Y4843D01*
X30000Y7283D02*
Y9343D01*
X28819Y3937D02*
Y4843D01*
X27264Y4311D02*
Y4837D01*
X27244Y9016D02*
Y9343D01*
X28425Y4134D02*
Y4843D01*
X26457Y9343D02*
Y9882D01*
X26063Y9343D02*
Y9882D01*
X28543Y7720D02*
Y8110D01*
X27677Y8976D02*
X28543Y8110D01*
X30039Y3937D02*
Y4803D01*
X30000Y4843D02*
X30039Y4803D01*
X26476Y4837D02*
X26534Y4779D01*
X27638Y8740D02*
X28346Y8031D01*
X27244Y9016D02*
X27520Y8740D01*
X27638D01*
X28465Y9016D02*
X28484Y8996D01*
X28465Y8976D02*
X28780Y8661D01*
Y8346D02*
Y8661D01*
X28858Y8976D02*
X29094Y8740D01*
Y7405D02*
Y8740D01*
X29284Y6567D02*
X30000Y7283D01*
X29646Y9016D02*
X29823Y8839D01*
Y7343D02*
Y8839D01*
X29252Y6772D02*
X29823Y7343D01*
X26220Y4252D02*
Y4390D01*
X26083Y4528D02*
X26220Y4390D01*
X26457Y4055D02*
Y4703D01*
X27677Y4449D02*
X27717Y4488D01*
X27677Y3898D02*
Y4449D01*
X27264Y4311D02*
X27480Y4094D01*
X11417Y4213D02*
X11575Y4370D01*
X28701Y6567D02*
X29284D01*
X12677Y9567D02*
Y9567D01*
X14409Y10354D02*
X14567Y10512D01*
X14409Y10354D02*
Y10354D01*
X15984Y9724D02*
Y9724D01*
X14567Y8937D02*
Y8937D01*
X7047Y7520D02*
X7205Y7362D01*
X7047Y7520D02*
X7047D01*
X11417Y9567D02*
Y9567D01*
X4118Y3006D02*
X4238D01*
X4038D02*
X4118D01*
X4030Y2998D02*
X4038Y3006D01*
X11575Y8465D02*
X11575D01*
X2998Y4803D02*
Y4994D01*
X2992Y5000D02*
X2998Y4994D01*
X5545Y4179D02*
X5551Y4173D01*
X12362Y5472D02*
X12520Y5630D01*
X11732Y5157D02*
X11890Y5315D01*
X11890D01*
X11732Y4843D02*
X11732D01*
X11890Y5000D01*
X12677Y5157D02*
X12835Y5315D01*
X12835D01*
X12205Y4370D02*
X12362Y4213D01*
X12205Y4370D02*
X12205D01*
X12520D02*
X12677Y4213D01*
X11732Y4528D02*
X11890Y4370D01*
Y9094D02*
Y9094D01*
X11732Y9252D02*
X11890Y9094D01*
X15039Y10354D02*
X15197Y10197D01*
X15354Y10039D02*
X15512Y9882D01*
X12835Y9409D02*
X12992Y9567D01*
X14094Y9094D02*
X14252Y9252D01*
Y9252D01*
X14094Y8780D02*
X14252Y8937D01*
X13780Y9409D02*
X13937Y9252D01*
X13937D01*
X12992D02*
X13150Y9409D01*
X14724Y10354D02*
X14882Y10197D01*
X15512Y10512D02*
X15669Y10354D01*
X14882Y9882D02*
X15039Y10039D01*
X28346Y7835D02*
Y8031D01*
X30512Y10939D02*
X30742D01*
X30945Y11142D01*
X29528Y10939D02*
X29758D01*
X29961Y11142D01*
X28543Y10939D02*
X28774D01*
X28976Y11142D01*
X27362Y10663D02*
X27514Y10512D01*
X27795D01*
X26530D02*
X26811D01*
X26378Y10663D02*
X26530Y10512D01*
X30551Y551D02*
Y2671D01*
X12520Y8780D02*
X12677Y8937D01*
Y8937D01*
X28622Y591D02*
X28661Y551D01*
X23711Y5207D02*
X24098D01*
X24134Y5242D01*
X3622Y551D02*
X3671Y600D01*
Y1072D01*
X4921Y2323D01*
Y3189D01*
X4513Y3597D02*
X4921Y3189D01*
X4118Y3597D02*
X4513D01*
X4118Y3400D02*
X4356D01*
X4764Y2992D01*
Y2402D02*
Y2992D01*
X3583Y1220D02*
X4764Y2402D01*
X3465Y1220D02*
X3583D01*
X3386Y1142D02*
X3465Y1220D01*
X3386Y551D02*
Y1142D01*
X4118Y3203D02*
X4317D01*
X4606Y2913D01*
Y2480D02*
Y2913D01*
X3526Y1400D02*
X4606Y2480D01*
X3150Y1400D02*
X3526D01*
X2913Y1163D02*
X3150Y1400D01*
X2913Y551D02*
Y1163D01*
X2677Y551D02*
Y1177D01*
X3050Y1550D01*
X3479D01*
X4449Y2520D01*
Y2795D01*
X4238Y3006D02*
X4449Y2795D01*
X3350Y2222D02*
X3372Y2200D01*
X3350Y2222D02*
Y2632D01*
X3104Y1850D02*
X3153Y1899D01*
Y2632D01*
X2441Y551D02*
Y1457D01*
X2250Y1648D02*
X2441Y1457D01*
X2250Y1648D02*
Y3037D01*
X2205Y551D02*
Y1142D01*
X2050Y1296D02*
X2205Y1142D01*
X2050Y1296D02*
Y3074D01*
X2376Y3400D01*
X2582D01*
X2250Y3037D02*
X2416Y3203D01*
X2582D01*
X2376Y3597D02*
X2582D01*
X1850Y3070D02*
X2376Y3597D01*
X1515Y2933D02*
X1877Y3294D01*
X1863Y3800D02*
X1877D01*
X2576D01*
X2582Y3794D01*
X3153Y4168D02*
Y4648D01*
X2998Y4803D02*
X3153Y4648D01*
X3350Y4168D02*
Y4610D01*
X3465Y4724D01*
X4252D01*
X4370Y4606D01*
Y4528D02*
Y4606D01*
X3622Y4528D02*
X4055D01*
X3547Y4452D02*
X3622Y4528D01*
X3547Y4168D02*
Y4452D01*
X3744Y4168D02*
X5343D01*
X5354Y4179D01*
X5545D01*
X6620Y4730D02*
X6654Y4764D01*
X6220Y4730D02*
X6620D01*
X7126Y4764D02*
X7526D01*
X7559Y4730D01*
X28189Y551D02*
Y984D01*
X28150Y1024D02*
X28189Y984D01*
X28661Y551D02*
Y1142D01*
X28307Y1496D02*
X28661Y1142D01*
X28720Y1398D02*
X28819Y1299D01*
X28720Y1824D02*
X28819Y1923D01*
X28720Y1398D02*
Y1824D01*
X28819Y1299D02*
X28898D01*
X28543Y6732D02*
X28583Y6772D01*
X29252D01*
X28346Y6575D02*
X28386D01*
X28425Y6535D01*
X28669D01*
X28701Y6567D01*
X28896Y7207D02*
X29094Y7405D01*
X28701Y8071D02*
X28740Y8031D01*
X28701Y8071D02*
Y8268D01*
X28740Y7362D02*
Y8031D01*
X28701Y8268D02*
X28780Y8346D01*
X28502Y7679D02*
X28543Y7720D01*
X15827Y9882D02*
X15827D01*
X15669Y10039D02*
X15827Y9882D01*
X15984Y9724D02*
X16417Y9291D01*
X16687D01*
X16417Y9606D02*
X16687D01*
X15984Y10039D02*
X16417Y9606D01*
X17014Y9921D02*
X17480D01*
X18032Y9370D01*
X19016D01*
X19252Y9134D01*
X18110Y9567D02*
X19094D01*
X19331Y9331D01*
X19724D01*
X20433Y8622D01*
X19606Y9134D02*
X20118Y8622D01*
X19252Y9134D02*
X19606D01*
X19468Y8957D02*
X19803Y8622D01*
X19154Y8957D02*
X19468D01*
X18937Y9173D02*
X19154Y8957D01*
X17953Y9173D02*
X18937D01*
X19232Y8799D02*
X19409Y8622D01*
X19075Y8799D02*
X19232D01*
X18898Y8976D02*
X19075Y8799D01*
X17874Y8976D02*
X18898D01*
X17520Y9606D02*
X17953Y9173D01*
X17014Y9606D02*
X17520D01*
X17559Y9291D02*
X17874Y8976D01*
X17014Y9291D02*
X17559D01*
X28661Y3234D02*
Y3465D01*
Y3234D02*
X28780Y3116D01*
X11260Y9409D02*
X11417Y9567D01*
X12047Y9252D02*
Y9252D01*
X12205Y9409D01*
X11575Y8780D02*
X11732Y8937D01*
X11417Y8307D02*
X11575Y8465D01*
X11417Y7992D02*
X11575Y7835D01*
X14409Y8780D02*
X14567Y8937D01*
X15039Y9094D02*
X15197Y8937D01*
X12835Y5945D02*
X12992Y5787D01*
Y6102D02*
X13150Y5945D01*
X11575Y7205D02*
X11732Y7047D01*
X12047Y8937D02*
X12205Y9094D01*
X12520Y9094D02*
X12677Y9252D01*
X12520Y9409D02*
X12677Y9567D01*
X11575Y9724D02*
X11732Y9567D01*
X1732Y551D02*
Y1181D01*
X1850Y1299D01*
Y3070D01*
X16417Y9921D02*
X16687D01*
X15984Y10354D02*
X16417Y9921D01*
X28510Y2132D02*
Y2520D01*
X28307Y1929D02*
X28510Y2132D01*
Y2520D02*
X28780Y2789D01*
X28307Y1496D02*
Y1929D01*
X28150Y2087D02*
X28346Y2283D01*
X28150Y1024D02*
Y2087D01*
X27953Y551D02*
Y2244D01*
X28189Y2480D01*
Y3031D01*
X28465Y3307D01*
X28346Y2283D02*
Y2913D01*
X28465Y3031D01*
X30551Y2671D02*
X30551Y2671D01*
X27717Y551D02*
Y2283D01*
X27402Y2598D02*
X27717Y2283D01*
X1496Y2461D02*
Y2933D01*
X11417Y8937D02*
X11575Y9094D01*
X11417Y8937D02*
X11417D01*
X28898Y551D02*
Y1299D01*
X26457Y4703D02*
X26534Y4779D01*
X1496Y2933D02*
X1515D01*
X1877Y3294D02*
Y3800D01*
D47*
X26850Y9343D02*
X26880Y9372D01*
Y9961D01*
X28002Y9372D02*
X28031Y9343D01*
X28002Y9372D02*
Y9961D01*
X30364Y9372D02*
X30394Y9343D01*
X30364Y9372D02*
Y9961D01*
X29213Y9343D02*
X29242Y9372D01*
Y9961D01*
X29803Y9961D02*
X30108D01*
X29803Y9961D02*
X29803Y9961D01*
X29803Y9961D02*
X29803Y9961D01*
X29498Y9961D02*
X29803D01*
X27746Y9961D02*
X27746Y9961D01*
X27441Y9961D02*
X27746D01*
X27136D02*
X27441D01*
X27136Y9961D02*
X27136Y9961D01*
D48*
X30394Y4331D02*
Y4843D01*
X11563Y11299D02*
Y11575D01*
X24882Y11299D02*
X25033Y11451D01*
Y11457D01*
X25512D02*
X25551Y11496D01*
X25360Y11457D02*
X25512D01*
X12835Y10866D02*
Y11096D01*
X19449Y9528D02*
Y9744D01*
X13104Y11423D02*
X13110Y11417D01*
X20118Y10118D02*
X20394D01*
X6614Y3858D02*
Y4016D01*
X7126Y3858D02*
Y4016D01*
X1458Y3819D02*
X1500Y3777D01*
X1339Y3819D02*
X1458D01*
X2795Y1654D02*
Y1844D01*
X2474Y1699D02*
Y1850D01*
Y1699D02*
X2520Y1654D01*
X6102Y5433D02*
Y7205D01*
Y8150D01*
X12835Y11423D02*
X13104D01*
X13982Y11195D02*
Y11530D01*
Y11195D02*
X13996Y11181D01*
X24522Y9219D02*
X24528Y9213D01*
X24679Y9061D01*
Y9016D02*
Y9061D01*
X24528Y9213D02*
X24596D01*
X24715Y9331D01*
X13346Y10866D02*
Y10990D01*
X13537Y11181D01*
D49*
X20394Y551D02*
Y1063D01*
X20157D02*
X20157Y1063D01*
Y551D02*
Y1063D01*
X19921Y551D02*
Y1063D01*
X19685D02*
X19685Y1063D01*
Y551D02*
Y1063D01*
X19449Y551D02*
Y1063D01*
X19213D02*
X19213Y1063D01*
Y551D02*
Y1063D01*
X18976Y551D02*
Y1063D01*
X18740Y1142D02*
X18740Y1142D01*
Y551D02*
Y1142D01*
X18504Y551D02*
Y1142D01*
X18268Y551D02*
Y1063D01*
X18032Y1142D02*
X18032Y1142D01*
Y551D02*
Y1142D01*
X17795Y551D02*
Y1181D01*
X16378Y1063D02*
X16535Y1220D01*
X16378Y551D02*
Y1063D01*
D50*
X9055Y394D02*
Y551D01*
X6457D02*
Y945D01*
D51*
X11654Y394D02*
Y551D01*
X2617Y2205D02*
X2617D01*
X2617D02*
X2622Y2200D01*
X2480Y2205D02*
X2617D01*
X2474Y2052D02*
Y2171D01*
Y1850D02*
Y2052D01*
X29370Y10600D02*
X29528D01*
X11732Y6102D02*
X11890Y6260D01*
X11890D01*
X11575Y5630D02*
Y5630D01*
X11732Y5787D01*
X11732D02*
X11732D01*
X11575Y5945D02*
X11732Y5787D01*
X11417Y6102D02*
X11417D01*
X11575Y6260D01*
Y6260D01*
X11102Y8622D02*
Y8628D01*
Y8622D02*
X11260Y8465D01*
X11102Y9252D02*
Y9252D01*
Y9252D02*
X11260Y9094D01*
X16884Y10866D02*
X16890D01*
X2450Y2205D02*
X2480D01*
X2446Y2200D02*
X2450Y2205D01*
X15354Y7205D02*
X15512Y7362D01*
X15354Y7205D02*
Y7205D01*
X13622Y8307D02*
X13622D01*
X13780Y8465D01*
X21102Y984D02*
X21142Y1024D01*
Y1102D01*
X21220Y1181D01*
X21811Y984D02*
X21850Y1024D01*
Y1102D01*
X22559D02*
X22638Y1181D01*
X22559Y1024D02*
Y1102D01*
X22520Y984D02*
X22559Y1024D01*
X22520Y551D02*
Y984D01*
X14567Y8622D02*
X14724Y8465D01*
X15354Y8780D02*
X15512Y8622D01*
X27362Y10990D02*
Y11417D01*
X30354Y10600D02*
X30512D01*
X14567Y6102D02*
Y6102D01*
X14409Y5945D02*
X14567Y6102D01*
X14882Y6102D02*
X15039Y6260D01*
X11654Y551D02*
Y945D01*
X10787Y5157D02*
X10945Y5000D01*
Y5000D02*
Y5000D01*
X10157Y4528D02*
X10157D01*
X10315Y4685D01*
X11102Y4213D02*
X11102D01*
X11260Y4370D01*
X11417Y5157D02*
X11575Y5315D01*
X5354Y2490D02*
Y2677D01*
X2617Y2205D02*
X2622Y2200D01*
X2795Y1844D02*
X2801Y1850D01*
X13307Y6417D02*
X13465Y6575D01*
X13307Y6417D02*
X13307D01*
X13150Y6260D02*
X13307Y6417D01*
X15197Y10512D02*
X15354Y10354D01*
X13150Y10039D02*
X13307Y10197D01*
X10000Y5315D02*
X10157Y5157D01*
X6890Y7047D02*
Y7047D01*
X5315Y7677D02*
X5315D01*
X5157Y7835D02*
X5315Y7677D01*
Y7992D02*
X5315D01*
X5157Y8150D02*
X5315Y7992D01*
X10472Y5787D02*
Y5787D01*
Y5787D02*
X10630Y5630D01*
X11102Y5787D02*
X11260Y5945D01*
X11260D01*
X7362Y7205D02*
X7520Y7362D01*
X10315Y7835D02*
X10472Y7677D01*
Y7362D02*
Y7362D01*
Y7362D02*
X10630Y7205D01*
X9843Y6732D02*
X10000Y6890D01*
X7047Y7835D02*
X7047D01*
X11732Y6417D02*
X11890Y6575D01*
X10315Y6260D02*
X10472Y6417D01*
X11417Y9882D02*
X11575Y10039D01*
X11575D01*
X11890Y7205D02*
X12047Y7362D01*
X11575Y7520D02*
X11732Y7362D01*
X11575Y6890D02*
X11732Y6732D01*
X12992Y5472D02*
X13150Y5315D01*
X13307Y5472D01*
X12835Y6260D02*
X12835D01*
X12205Y6890D02*
Y6890D01*
X12520Y6575D02*
X12520D01*
X12362Y5787D02*
X12362D01*
X12205Y5630D02*
X12362Y5787D01*
X12205Y6260D02*
Y6260D01*
X14567Y7047D02*
X14724Y6890D01*
X12835Y6260D02*
X12992Y6417D01*
X13150Y6575D01*
X13307Y7047D02*
Y7047D01*
X13150Y7205D02*
X13307Y7047D01*
X13780Y5945D02*
X13937Y6102D01*
X13780Y6575D02*
X13937Y6732D01*
X13465Y6260D02*
X13622Y6417D01*
X13780Y6575D01*
X13780D01*
Y7205D02*
X13937Y7362D01*
X13622Y7677D02*
X13780Y7835D01*
X13465Y7520D02*
X13622Y7677D01*
X5315Y1850D02*
X5354Y1890D01*
X2717Y2638D02*
X2951D01*
X2559Y2795D02*
X2717Y2638D01*
X2559Y2795D02*
Y2795D01*
X2951Y2638D02*
X2956Y2632D01*
X2559Y2795D02*
Y2983D01*
X2559Y2983D02*
X2582Y3006D01*
X1496Y551D02*
Y1791D01*
X1496Y1791D02*
X1496Y1791D01*
X2801Y1850D02*
X2878Y1927D01*
X10630Y7205D02*
Y7205D01*
X10315Y9409D02*
X10472Y9567D01*
X10630Y10354D02*
Y10354D01*
X10472Y10197D02*
X10630Y10354D01*
X12677Y4528D02*
X12835Y4370D01*
X12677Y4528D02*
X12677D01*
X13150Y5315D02*
X13307Y5157D01*
Y5157D02*
Y5157D01*
X13937Y5157D02*
X14094Y5000D01*
X15039Y4685D02*
X15039D01*
X14882Y4843D02*
X15039Y4685D01*
X15354Y5630D02*
X15512Y5787D01*
X15512D01*
Y6732D02*
X15669Y6575D01*
X15984Y7520D02*
X15984D01*
X15827Y7362D02*
X15984Y7520D01*
X15039Y7835D02*
X15197Y7992D01*
X15984Y4370D02*
X15984D01*
X15827Y4528D02*
X15984Y4370D01*
X15669Y9724D02*
X15827Y9567D01*
Y9567D02*
Y9567D01*
X14409Y9094D02*
X14567Y9252D01*
Y9882D02*
X14724Y10039D01*
X14094Y8150D02*
X14252Y8307D01*
X13465Y8150D02*
X13622Y8307D01*
X13150Y8465D02*
X13307Y8622D01*
X11890Y7835D02*
Y7835D01*
Y7835D02*
X12047Y7677D01*
X11890Y8465D02*
X12047Y8307D01*
X12205Y8150D02*
X12362Y8307D01*
X12362D01*
X12520Y8465D01*
X12205Y8780D02*
X12362Y8937D01*
X12205Y8465D02*
X12362Y8622D01*
X12835Y8150D02*
X12992Y8307D01*
X13150Y8465D01*
X11575Y8150D02*
X11732Y8307D01*
X11890Y9409D02*
X12047Y9567D01*
X11575Y10039D02*
X11732Y10197D01*
X11575Y5630D02*
X11732Y5472D01*
X10787Y6417D02*
Y6417D01*
X3969Y2316D02*
X3976Y2323D01*
X3744Y2316D02*
X3969D01*
X3628Y2200D02*
X3744Y2316D01*
X11890Y8150D02*
Y8150D01*
X11890Y7520D02*
X11890D01*
X12362Y7362D02*
X12520Y7520D01*
X12362Y7362D02*
X12520Y7205D01*
X11890Y6890D02*
X12047Y6732D01*
X12677Y6732D02*
X12835Y6575D01*
X11890Y5630D02*
Y5630D01*
X12205Y5945D02*
Y5945D01*
X12362Y4843D02*
X12362D01*
X12520Y5000D01*
X14409Y7520D02*
X14567Y7362D01*
X12835Y6575D02*
X12992Y6732D01*
X13150Y6890D01*
Y6890D01*
X13937Y6417D02*
X14094Y6575D01*
X13780Y6260D02*
X13937Y6417D01*
X13465Y5945D02*
X13622Y6102D01*
X13780Y6260D01*
X13780Y6890D02*
X13780D01*
X13622Y6732D02*
X13780Y6890D01*
X13465Y6575D02*
X13622Y6732D01*
X13465Y7205D02*
X13622Y7047D01*
X13780Y6890D01*
Y7520D02*
X13780D01*
X13622Y7362D02*
X13780Y7520D01*
X13465Y7205D02*
X13622Y7362D01*
X13780Y7520D02*
X13937Y7677D01*
X3628Y2047D02*
Y2200D01*
X3431Y1850D02*
X3628Y2047D01*
X3744Y2316D02*
Y2632D01*
X1500Y3263D02*
Y3777D01*
X3744Y3794D02*
X4118D01*
X3744Y2632D02*
Y3006D01*
X3350Y3400D02*
X3567Y3183D01*
X10787Y6417D02*
X10945Y6575D01*
X10630Y8780D02*
Y8780D01*
X10472Y8622D02*
X10630Y8780D01*
X10787Y9567D02*
X10945Y9724D01*
X10000Y10039D02*
X10157Y10197D01*
X12520Y5000D02*
X12677Y4843D01*
X13465Y4685D02*
X13465D01*
X13307Y4843D02*
X13465Y4685D01*
X13780Y5630D02*
Y5630D01*
Y5630D02*
X13937Y5472D01*
X14724Y5315D02*
Y5315D01*
Y5315D02*
X14882Y5157D01*
X15669Y8150D02*
Y8150D01*
X15512Y7992D02*
X15669Y8150D01*
Y5000D02*
X15827Y4843D01*
X15827Y9252D02*
X15984Y9094D01*
X15827Y9252D02*
X15827D01*
X14882D02*
X15039Y9409D01*
X14094Y9724D02*
X14252Y9882D01*
X13780Y8150D02*
X13937Y8307D01*
X13465Y8465D02*
X13622Y8622D01*
X13150Y8780D02*
X13307Y8937D01*
X11890Y8780D02*
X12047Y8622D01*
X12835Y8465D02*
X12992Y8622D01*
X12677Y8307D02*
X12835Y8465D01*
X12677Y8307D02*
X12677D01*
X12520Y8150D02*
X12677Y8307D01*
X11732Y8622D02*
X11890Y8780D01*
Y8780D01*
X12362Y9567D02*
X12520Y9724D01*
X12362Y9567D02*
Y9567D01*
X12205Y10354D02*
Y10354D01*
X12047Y10197D02*
X12205Y10354D01*
X12835Y9094D02*
X12992Y8937D01*
X12835Y8780D02*
Y8780D01*
X12992Y8622D02*
X13150Y8780D01*
X12992Y8937D02*
X13150Y8780D01*
X11890Y5630D02*
X12047Y5472D01*
X12677Y6417D02*
X12835Y6260D01*
X12520Y6575D02*
X12677Y6417D01*
Y6732D02*
X12677D01*
X12205Y6890D02*
X12362Y6732D01*
X12520Y6575D01*
X12047Y6732D02*
Y6732D01*
Y6732D02*
X12205Y6575D01*
Y6260D02*
X12362Y6417D01*
X12677Y6102D02*
X12835Y6260D01*
X12520Y5945D02*
X12677Y6102D01*
X11890Y4685D02*
X12047Y4843D01*
X11890Y6260D02*
X12047Y6417D01*
X12205Y6575D01*
X11732Y5472D02*
Y5472D01*
X12205Y7520D02*
X12362Y7677D01*
X12520Y7520D02*
X12677Y7362D01*
X12362D02*
X12362D01*
X12205Y7205D02*
X12362Y7362D01*
X11575Y6575D02*
X11732Y6732D01*
Y6732D01*
Y6417D02*
X11732D01*
Y7992D02*
X11890Y7835D01*
X11732Y7992D02*
X11732D01*
X11890Y8150D02*
X12047Y7992D01*
X12205Y7835D01*
Y5945D02*
X12362Y6102D01*
X12520Y6260D01*
X12047Y6102D02*
X12205Y6260D01*
X11890Y5945D02*
X12047Y6102D01*
X11890Y5630D02*
X12047Y5787D01*
X12047D02*
X12205Y5945D01*
X12047Y5787D02*
X12047D01*
X11102Y7677D02*
X11260Y7520D01*
X11732Y7677D02*
X11890Y7520D01*
X4843Y8465D02*
X5000Y8307D01*
X5157Y8150D02*
X5315Y8307D01*
X4685Y10827D02*
X4843Y10669D01*
X4685Y10827D02*
Y10827D01*
X4843Y10354D02*
Y10354D01*
X4685Y10512D02*
X4843Y10354D01*
X4685Y10197D02*
X4843Y10039D01*
Y9724D02*
Y9724D01*
X4685Y9882D02*
X4843Y9724D01*
X5315Y10197D02*
X5472Y10354D01*
X5315Y10197D02*
Y10197D01*
X5000Y10197D02*
X5157Y10354D01*
X4685Y9567D02*
X4843Y9409D01*
X4685Y9567D02*
Y9567D01*
Y9252D02*
X4843Y9094D01*
X4685Y9252D02*
Y9252D01*
X5000Y9882D02*
X5157Y9724D01*
X5000Y9882D02*
Y9882D01*
X4843Y10039D02*
X5000Y9882D01*
X4843Y10039D02*
X4843D01*
X5000Y9567D02*
X5157Y9409D01*
X5000Y9567D02*
Y9567D01*
X5000D02*
X5000D01*
X4843Y9724D02*
X5000Y9567D01*
X4685Y8622D02*
X4843Y8780D01*
X5000Y8622D02*
X5157Y8465D01*
X4685Y7047D02*
X4843Y7205D01*
X4685Y6732D02*
X4843Y6890D01*
X4685Y6417D02*
X4843Y6575D01*
X4685Y6102D02*
X4843Y6260D01*
X4685Y5787D02*
X4843Y5945D01*
X7047Y10669D02*
X7205Y10827D01*
X7362Y10669D02*
X7520Y10827D01*
X7362Y10354D02*
X7520Y10512D01*
X7362Y10039D02*
X7520Y10197D01*
X7362Y9724D02*
X7520Y9882D01*
X7362Y10039D02*
X7520Y9882D01*
X7362Y10039D02*
X7362D01*
X7362Y9409D02*
X7520Y9567D01*
X7362Y9724D02*
X7520Y9567D01*
X7362Y9724D02*
X7362D01*
X7047D02*
X7205Y9882D01*
X7047Y9409D02*
X7205Y9567D01*
X7205D02*
X7205D01*
X7047Y9724D02*
X7205Y9567D01*
X7205Y9252D02*
X7362Y9094D01*
X7205Y9252D02*
Y9252D01*
X7047Y9409D02*
X7205Y9252D01*
X7047Y9409D02*
X7047D01*
X6732Y8780D02*
X6732D01*
X6890Y8622D01*
X7047Y8780D02*
X7205Y8622D01*
X7205D01*
X7362Y8780D01*
X7520Y8937D01*
X7520D02*
X7520D01*
X7362Y9094D02*
X7520Y8937D01*
X7362Y8465D02*
X7520Y8622D01*
X7520D01*
X7047Y8150D02*
X7205Y8307D01*
X7047Y7835D02*
X7205Y7992D01*
X7362Y6890D02*
X7520Y6732D01*
X7520D01*
X7362Y6575D02*
X7362D01*
X7520Y6417D01*
X7362Y6260D02*
X7362D01*
X7520Y6102D01*
X7362Y5945D02*
X7362D01*
X7520Y5787D01*
X10945Y8150D02*
X11102Y8307D01*
Y8307D01*
X10000Y8465D02*
X10157Y8622D01*
X2671Y4770D02*
X2956Y4485D01*
X2671Y4770D02*
Y4803D01*
X2956Y4168D02*
Y4485D01*
X5354Y3661D02*
Y3852D01*
X2333Y4803D02*
X2671D01*
X2077Y4990D02*
X2087Y5000D01*
Y4813D02*
Y5000D01*
X2077Y4803D02*
X2087Y4813D01*
X2677Y4809D02*
Y5000D01*
X2671Y4803D02*
X2677Y4809D01*
X13150Y8150D02*
X13307Y8307D01*
X13150Y9094D02*
X13307Y9252D01*
Y9252D01*
X14252Y4213D02*
X14409Y4370D01*
X12835Y8780D02*
X12992Y8622D01*
Y8622D02*
Y8622D01*
X28386Y10600D02*
X28543D01*
X17368Y10709D02*
X17402D01*
X17559Y10866D01*
X21850Y1102D02*
X21929Y1181D01*
Y1417D01*
X21890Y1457D02*
X21929Y1417D01*
X22638Y1181D02*
Y1417D01*
X22598Y1457D02*
X22638Y1417D01*
X21220Y1181D02*
Y1417D01*
X21181Y1457D02*
X21220Y1417D01*
X15984Y5945D02*
X16142Y6102D01*
Y6102D01*
X18110Y10118D02*
X18770D01*
X22992Y5079D02*
X23120Y4951D01*
X23711D02*
X24098D01*
X24134Y4915D01*
X24303D02*
X24488Y4730D01*
X24134Y4915D02*
X24303D01*
X13307Y6732D02*
X13465Y6890D01*
X11417Y6732D02*
X11575Y6575D01*
X11417Y6732D02*
Y6732D01*
X11575Y6890D01*
X11260Y7520D02*
X11417Y7362D01*
X11417D01*
X11575Y6890D02*
Y6890D01*
X11417Y7047D02*
X11575Y6890D01*
X13465Y9409D02*
Y9409D01*
X13622Y9567D01*
X18071Y10157D02*
X18110Y10118D01*
X12992Y7992D02*
X13150Y8150D01*
X12992Y7992D02*
Y7992D01*
X12835Y7835D02*
X12992Y7992D01*
X12677Y7677D02*
X12835Y7835D01*
X12677Y7677D02*
X12677D01*
X12520Y7520D02*
X12677Y7677D01*
X12520Y7520D02*
Y7520D01*
Y7205D02*
X12677Y7362D01*
X12677D02*
X12835Y7205D01*
X12677Y7362D02*
X12677D01*
X12835Y7520D01*
X13465Y7835D02*
Y7835D01*
X13622Y7992D01*
X13780Y8150D01*
X13780D01*
X12992Y7677D02*
Y7677D01*
X12835Y7835D02*
X12992Y7677D01*
X12835Y7520D02*
X12992Y7677D01*
X13307Y7992D02*
Y7992D01*
X13307D02*
X13307D01*
X13150Y8150D02*
X13307Y7992D01*
X13307Y7992D02*
X13465Y7835D01*
X13150Y7520D02*
X13307Y7362D01*
X13307D01*
X13465Y7205D01*
Y7205D02*
Y7205D01*
Y7205D01*
X12835Y7205D02*
X12992Y7047D01*
X13150Y6890D01*
Y6890D02*
Y6890D01*
X12047Y7047D02*
X12205Y7205D01*
X11890Y6890D02*
X12047Y7047D01*
X11890Y6890D02*
Y6890D01*
X12205Y7205D02*
X12362Y7047D01*
X12362D01*
X12520Y7205D01*
X12677Y7047D01*
X12677D01*
X12835Y7205D01*
X12992Y7362D01*
Y7362D01*
X13150Y7520D01*
X12992Y7677D02*
X13150Y7520D01*
X13150D01*
X12205Y7835D02*
X12362Y7992D01*
X12520Y8150D01*
X13661Y10472D02*
Y10512D01*
Y10472D02*
X13780Y10354D01*
X2878Y1927D02*
Y2200D01*
Y2200D01*
X2956Y2278D02*
Y2632D01*
X2878Y2200D02*
X2956Y2278D01*
X1500Y3263D02*
X1500Y3263D01*
X1496Y1923D02*
X1496Y1923D01*
X1496Y1791D02*
Y1870D01*
Y1923D01*
X6299Y1260D02*
X6457Y1102D01*
Y945D02*
Y1102D01*
X8976Y1142D02*
X9055Y1063D01*
X8976Y1142D02*
Y1378D01*
X9055Y551D02*
Y945D01*
Y1063D01*
X2559Y2983D02*
X2559Y2983D01*
X16884Y10866D02*
X17041Y10709D01*
X2446Y2200D02*
X2474Y2171D01*
Y2052D02*
X2573Y2151D01*
X3547Y2632D02*
Y3183D01*
X3567D02*
X3744Y3006D01*
X3350Y3400D02*
X3744Y3794D01*
X23120Y4951D02*
X23711D01*
D52*
X9843Y9882D02*
X10000Y9724D01*
X9843Y9882D02*
Y9882D01*
X9978Y9724D02*
X10000D01*
X10945Y10039D02*
Y10039D01*
X11102Y10197D01*
X5000Y5787D02*
X5157Y5945D01*
X6575Y9567D02*
X6732Y9724D01*
X7913Y9213D02*
X8071D01*
X7835Y9134D02*
X7913Y9213D01*
X7835Y6417D02*
Y9134D01*
X8150Y7362D02*
Y9134D01*
X8071Y9213D02*
X8150Y9134D01*
X5472Y6575D02*
X5630Y6417D01*
X5472Y6575D02*
X5472D01*
X5157Y6890D02*
X5315Y6732D01*
X11260Y8780D02*
X11260D01*
X6575Y7677D02*
X6732Y7520D01*
X5630Y6732D02*
X5630D01*
X5472Y6890D02*
X5630Y6732D01*
X10630Y7520D02*
X10787Y7362D01*
X10630Y7520D02*
X10630D01*
X10787Y7047D02*
Y7047D01*
X10945Y7205D01*
X10472Y7047D02*
X10630Y6890D01*
Y6890D02*
Y6890D01*
X10157Y6417D02*
X10157D01*
X10315Y6575D01*
X10945Y7520D02*
Y7520D01*
X10787Y7677D02*
X10945Y7520D01*
X11102Y6732D02*
X11260Y6575D01*
X5315Y6102D02*
X5315D01*
X5157Y6260D02*
X5315Y6102D01*
X10787Y7992D02*
Y7992D01*
Y7992D02*
X10945Y7835D01*
X10315Y7520D02*
X10315D01*
X10157Y7362D02*
X10315Y7520D01*
X6575Y6732D02*
X6732Y6575D01*
X6575Y7047D02*
Y7047D01*
Y7047D02*
X6732Y6890D01*
X9843Y7047D02*
X10000Y7205D01*
X5315Y6417D02*
X5315D01*
X5157Y6575D02*
X5315Y6417D01*
X11102Y7362D02*
X11260Y7205D01*
X5315Y7047D02*
X5315D01*
X5157Y7205D02*
X5315Y7047D01*
X11260Y6260D02*
Y6260D01*
X11417Y6417D01*
X5630Y7677D02*
X5630D01*
X5472Y7835D02*
X5630Y7677D01*
X10000Y7520D02*
X10000D01*
X9843Y7362D02*
X10000Y7520D01*
X7205Y5787D02*
X7205D01*
X7047Y5945D02*
X7205Y5787D01*
X7047Y6260D02*
X7205Y6102D01*
X10315Y6890D02*
X10315D01*
X10157Y6732D02*
X10315Y6890D01*
Y7205D02*
X10315D01*
Y7205D01*
X6575Y7992D02*
Y7992D01*
Y7992D02*
X6732Y7835D01*
X6575Y8307D02*
Y8307D01*
Y8307D02*
X6732Y8150D01*
X7205Y7677D02*
X7362Y7835D01*
X10472Y6732D02*
X10630Y6575D01*
Y6575D02*
Y6575D01*
X5472Y7520D02*
X5472D01*
X5630Y7362D01*
X11102Y7047D02*
X11260Y6890D01*
X10157Y7047D02*
X10315Y7205D01*
X5472Y5945D02*
X5630Y5787D01*
X10787Y9252D02*
X10945Y9409D01*
X5472Y8150D02*
X5630Y7992D01*
X10945Y6260D02*
X11102Y6417D01*
X5157Y7520D02*
X5157D01*
X5315Y7362D01*
X4843Y7835D02*
X5000Y7677D01*
X9882Y6457D02*
X10000Y6575D01*
X9803Y6457D02*
X9882D01*
X9528Y6732D02*
X9803Y6457D01*
X9528Y6732D02*
X9528D01*
X7047Y6890D02*
X7205Y6732D01*
X10945Y5945D02*
X11102Y6102D01*
X7047Y6575D02*
X7205Y6417D01*
X7205D01*
X10787Y6732D02*
X10945Y6890D01*
X5472Y6260D02*
X5472D01*
X5630Y6102D01*
X6575D02*
X6732Y6260D01*
X10787Y8307D02*
X10945Y8465D01*
X10945D01*
X10787Y8937D02*
X10945Y9094D01*
X10945D01*
X5472Y7205D02*
X5630Y7047D01*
X5630D01*
X11260Y7835D02*
X11417Y7677D01*
X7047Y9094D02*
X7205Y8937D01*
X7205D01*
X10630Y8465D02*
X10787Y8622D01*
X5472Y9094D02*
Y9094D01*
X5315Y8937D02*
X5472Y9094D01*
Y8780D02*
X5630Y8937D01*
X10157Y8307D02*
X10315Y8465D01*
X10315D01*
X10472Y8307D02*
X10630Y8150D01*
X10472Y8307D02*
Y8307D01*
X10630Y7835D02*
Y7835D01*
X10472Y7992D02*
X10630Y7835D01*
X10157Y7992D02*
X10315Y8150D01*
X10157Y7992D02*
X10157D01*
X5000Y8937D02*
X5157Y9094D01*
X5472Y8465D02*
X5472D01*
X5630Y8307D01*
X9843Y7992D02*
X10000Y7835D01*
Y7835D02*
Y7835D01*
X9843Y8307D02*
X10000Y8150D01*
X9843Y8307D02*
Y8307D01*
X6575Y8622D02*
X6732Y8465D01*
X5472Y9409D02*
X5630Y9252D01*
X5630D01*
X10157D02*
X10315Y9094D01*
Y9094D02*
Y9094D01*
X5157Y8780D02*
X5315Y8622D01*
X5315D01*
X6732Y9409D02*
X6890Y9252D01*
X6890D01*
X9843Y8937D02*
X10000Y8780D01*
Y8780D02*
Y8780D01*
X6575Y8937D02*
X6732Y9094D01*
X10157Y8937D02*
Y8937D01*
Y8937D02*
X10315Y8780D01*
X10472Y8937D02*
X10630Y9094D01*
X10630D01*
X11102Y8937D02*
X11260Y8780D01*
X11102Y8937D02*
Y8937D01*
X7047Y8465D02*
Y8465D01*
X6890Y8307D02*
X7047Y8465D01*
X5472Y9724D02*
X5630Y9882D01*
X9843Y10197D02*
X10000Y10354D01*
X10157Y9882D02*
X10315Y10039D01*
X10315D01*
X10157Y9567D02*
X10315Y9724D01*
X10315D01*
X10472Y9252D02*
X10630Y9409D01*
X10630D01*
X6732Y10669D02*
X6890Y10827D01*
X10630Y10039D02*
X10787Y10197D01*
X5472Y10669D02*
X5630Y10512D01*
X5630D01*
X10157D02*
X10315Y10354D01*
X6575Y10197D02*
X6732Y10354D01*
X6575Y9882D02*
X6732Y10039D01*
X7047Y10039D02*
Y10039D01*
X6890Y9882D02*
X7047Y10039D01*
X10630Y9724D02*
X10787Y9882D01*
X5472Y10039D02*
X5472D01*
X5630Y10197D01*
X9843Y9567D02*
X10000Y9409D01*
Y9409D02*
Y9409D01*
X5157Y10669D02*
X5315Y10512D01*
X5315D01*
X10787D02*
X10945Y10354D01*
Y10354D02*
Y10354D01*
X5157Y10039D02*
X5157D01*
X5315Y9882D01*
X9843Y9252D02*
X10000Y9094D01*
Y9094D02*
Y9094D01*
X7047Y10354D02*
X7205Y10197D01*
X7205D01*
X8465Y5787D02*
Y6496D01*
X8504Y6535D01*
X8740D01*
X8780Y6575D01*
Y6693D01*
X8740Y6732D02*
X8780Y6693D01*
X8189Y6732D02*
X8740D01*
X8150Y6772D02*
X8189Y6732D01*
X8150Y6772D02*
Y6929D01*
X8189Y6969D01*
X8425D01*
X8465Y7008D01*
Y7677D01*
X5315Y6732D02*
X5315D01*
D53*
X3465Y5433D02*
X6102D01*
X2992Y5906D02*
X3465Y5433D01*
X2992Y5906D02*
Y6142D01*
X6102Y5433D02*
X9606D01*
D54*
X6890Y7047D02*
X7047Y7205D01*
X1575Y9055D02*
X1575Y9055D01*
X1339Y9055D02*
X1575D01*
X1142Y8858D02*
X1575D01*
X1142Y8858D02*
X1142Y8858D01*
X13150Y7835D02*
X13150D01*
X13307Y7677D01*
D55*
X-30400Y10400D02*
Y9800D01*
X-30000D01*
X-29700Y10200D02*
X-29500D01*
X-29400Y10100D01*
Y9800D01*
X-29700D01*
X-29800Y9900D01*
X-29700Y10000D01*
X-29400D01*
X-29200Y10200D02*
Y9900D01*
X-29100Y9800D01*
X-28801D01*
Y9700D01*
X-28900Y9600D01*
X-29000D01*
X-28801Y9800D02*
Y10200D01*
X-28301Y9800D02*
X-28501D01*
X-28601Y9900D01*
Y10100D01*
X-28501Y10200D01*
X-28301D01*
X-28201Y10100D01*
Y10000D01*
X-28601D01*
X-28001Y10200D02*
Y9800D01*
Y10000D01*
X-27901Y10100D01*
X-27801Y10200D01*
X-27701D01*
X-26801Y9800D02*
X-26601D01*
X-26701D01*
Y10400D01*
X-26801Y10300D01*
X-25702Y10100D02*
X-25302D01*
X-24102Y10300D02*
X-24202Y10400D01*
X-24402D01*
X-24502Y10300D01*
Y10200D01*
X-24402Y10100D01*
X-24202D01*
X-24102Y10000D01*
Y9900D01*
X-24202Y9800D01*
X-24402D01*
X-24502Y9900D01*
X-23902Y9800D02*
X-23702D01*
X-23802D01*
Y10200D01*
X-23902D01*
X-23202Y9600D02*
X-23102D01*
X-23002Y9700D01*
Y10200D01*
X-23302D01*
X-23402Y10100D01*
Y9900D01*
X-23302Y9800D01*
X-23002D01*
X-22802D02*
Y10200D01*
X-22503D01*
X-22403Y10100D01*
Y9800D01*
X-22103Y10200D02*
X-21903D01*
X-21803Y10100D01*
Y9800D01*
X-22103D01*
X-22203Y9900D01*
X-22103Y10000D01*
X-21803D01*
X-21603Y9800D02*
X-21403D01*
X-21503D01*
Y10400D01*
X-21603D01*
X-20303Y9800D02*
X-20503Y10000D01*
Y10200D01*
X-20303Y10400D01*
X-19603Y10300D02*
X-19703Y10400D01*
X-19903D01*
X-20003Y10300D01*
Y9900D01*
X-19903Y9800D01*
X-19703D01*
X-19603Y9900D01*
X-19304Y9800D02*
X-19104D01*
X-19004Y9900D01*
Y10100D01*
X-19104Y10200D01*
X-19304D01*
X-19404Y10100D01*
Y9900D01*
X-19304Y9800D01*
X-18804Y9600D02*
Y10200D01*
X-18504D01*
X-18404Y10100D01*
Y9900D01*
X-18504Y9800D01*
X-18804D01*
X-18204Y9600D02*
Y10200D01*
X-17904D01*
X-17804Y10100D01*
Y9900D01*
X-17904Y9800D01*
X-18204D01*
X-17304D02*
X-17504D01*
X-17604Y9900D01*
Y10100D01*
X-17504Y10200D01*
X-17304D01*
X-17204Y10100D01*
Y10000D01*
X-17604D01*
X-17004Y10200D02*
Y9800D01*
Y10000D01*
X-16904Y10100D01*
X-16804Y10200D01*
X-16704D01*
X-16405Y9800D02*
X-16205Y10000D01*
Y10200D01*
X-16405Y10400D01*
D56*
X18465Y5059D02*
D03*
D57*
X16024Y11299D02*
D03*
D58*
X12362Y11476D02*
D03*
D59*
X25591Y2047D02*
D03*
X25906D02*
D03*
X25157D02*
D03*
X22913Y3307D02*
D03*
X22638D02*
D03*
X22244D02*
D03*
X21929D02*
D03*
X21535D02*
D03*
X21142D02*
D03*
X20827D02*
D03*
X20512D02*
D03*
X20197D02*
D03*
X21024Y1732D02*
D03*
X17323Y2283D02*
D03*
X17795D02*
D03*
X18110D02*
D03*
X18425D02*
D03*
X18740D02*
D03*
X19055D02*
D03*
X19370D02*
D03*
X20079Y2047D02*
D03*
X20157Y1732D02*
D03*
X20472Y2047D02*
D03*
X21142D02*
D03*
X21732Y1732D02*
D03*
X22362Y2047D02*
D03*
Y1732D02*
D03*
X21732Y2047D02*
D03*
X22756D02*
D03*
X23504D02*
D03*
X23583Y1575D02*
D03*
X23150D02*
D03*
X24291D02*
D03*
X24567Y2047D02*
D03*
X23937D02*
D03*
X24882Y1575D02*
D03*
X16811Y2008D02*
D03*
X16575Y2283D02*
D03*
X15748Y2008D02*
D03*
X16142Y1850D02*
D03*
X13189Y2559D02*
D03*
X13346Y2756D02*
D03*
X12598Y2047D02*
D03*
X12835Y2559D02*
D03*
X11496D02*
D03*
X11693Y1260D02*
D03*
X11890Y2559D02*
D03*
X12283D02*
D03*
X11299Y3031D02*
D03*
X11063Y2047D02*
D03*
Y2559D02*
D03*
X10354Y2047D02*
D03*
X9646D02*
D03*
X8937D02*
D03*
X8701Y3031D02*
D03*
X8465Y2559D02*
D03*
Y2047D02*
D03*
X7756D02*
D03*
X7047D02*
D03*
X10472Y2559D02*
D03*
X10000D02*
D03*
X9528D02*
D03*
X7874D02*
D03*
X7402D02*
D03*
X6929D02*
D03*
X30748Y6063D02*
D03*
X30591Y3937D02*
D03*
X30945Y3307D02*
D03*
X22559Y10866D02*
D03*
X23031Y7913D02*
D03*
X21870Y8110D02*
D03*
X22441Y7913D02*
D03*
X12047Y10512D02*
D03*
X11732D02*
D03*
Y9882D02*
D03*
X11417Y9252D02*
D03*
X23268Y11299D02*
D03*
Y10984D02*
D03*
X12362Y10197D02*
D03*
X11417Y10512D02*
D03*
X23819Y8031D02*
D03*
Y8346D02*
D03*
X24173Y11339D02*
D03*
X26063Y9882D02*
D03*
X26457D02*
D03*
Y4055D02*
D03*
X26220Y4252D02*
D03*
X27677Y3898D02*
D03*
X27480Y4094D02*
D03*
X29606Y4134D02*
D03*
X28819Y3937D02*
D03*
X28425Y4134D02*
D03*
X30039Y3937D02*
D03*
X25591Y4331D02*
D03*
X15197Y2165D02*
D03*
X11417Y4213D02*
D03*
X24528Y9606D02*
D03*
X16220Y3189D02*
D03*
X16457D02*
D03*
X14961Y1457D02*
D03*
X27953Y2598D02*
D03*
X27402D02*
D03*
X27677D02*
D03*
X23819Y3307D02*
D03*
X23425D02*
D03*
X23189D02*
D03*
X24449D02*
D03*
X24055D02*
D03*
X24685D02*
D03*
X9843Y9882D02*
D03*
X11732Y5787D02*
D03*
X19528Y4764D02*
D03*
Y4528D02*
D03*
X11102Y9252D02*
D03*
X26063Y11417D02*
D03*
X19409Y8622D02*
D03*
X19803D02*
D03*
X20118D02*
D03*
X20433D02*
D03*
X19055D02*
D03*
X25669Y3661D02*
D03*
X28661Y3465D02*
D03*
X16457Y8622D02*
D03*
X15512Y8937D02*
D03*
X15827D02*
D03*
X14567Y8307D02*
D03*
X14882Y7992D02*
D03*
X14567D02*
D03*
X14882Y8307D02*
D03*
Y7677D02*
D03*
X15197Y8307D02*
D03*
X15512D02*
D03*
X15827D02*
D03*
X15197Y7677D02*
D03*
X16457D02*
D03*
X16142Y7992D02*
D03*
X16457Y7047D02*
D03*
X14252Y7992D02*
D03*
X15827Y7677D02*
D03*
Y7992D02*
D03*
X15512Y7677D02*
D03*
X13937Y8622D02*
D03*
X14567Y7677D02*
D03*
X15197Y7362D02*
D03*
X13937Y7992D02*
D03*
X14252Y7677D02*
D03*
X15827Y7047D02*
D03*
X14882Y7362D02*
D03*
Y7047D02*
D03*
X27047Y2441D02*
D03*
X15827Y8622D02*
D03*
X14882D02*
D03*
X15197D02*
D03*
X14567D02*
D03*
X15197Y9252D02*
D03*
X15512D02*
D03*
Y8622D02*
D03*
X26457Y1339D02*
D03*
X26732Y1535D02*
D03*
X26969Y1299D02*
D03*
X28465Y3031D02*
D03*
Y3307D02*
D03*
X28504Y1732D02*
D03*
X31299Y5709D02*
D03*
X11732Y9567D02*
D03*
X12047Y8937D02*
D03*
X12677Y9567D02*
D03*
Y9252D02*
D03*
X29843Y3465D02*
D03*
X29488Y3031D02*
D03*
X29016Y3583D02*
D03*
X13937Y9567D02*
D03*
Y10197D02*
D03*
X14252D02*
D03*
X14567Y10512D02*
D03*
X30039Y3031D02*
D03*
X20748Y9528D02*
D03*
X15197Y9882D02*
D03*
Y9567D02*
D03*
X14567Y10197D02*
D03*
X13622Y9882D02*
D03*
Y10197D02*
D03*
X14252Y9567D02*
D03*
X14882Y8937D02*
D03*
X15197D02*
D03*
X15827Y9882D02*
D03*
X18110Y9567D02*
D03*
X14882D02*
D03*
X20394Y9528D02*
D03*
X14567Y9567D02*
D03*
X13937Y9882D02*
D03*
X12047D02*
D03*
X13740Y2756D02*
D03*
X14488Y1693D02*
D03*
Y1299D02*
D03*
X14252Y1693D02*
D03*
X13386D02*
D03*
X15827Y5157D02*
D03*
X15512D02*
D03*
X15827Y6102D02*
D03*
Y6417D02*
D03*
X15512Y6102D02*
D03*
X15197Y6417D02*
D03*
X14567Y5157D02*
D03*
X15512Y4213D02*
D03*
X15197D02*
D03*
X15512Y4843D02*
D03*
Y4528D02*
D03*
X15197D02*
D03*
Y4843D02*
D03*
X14567Y4528D02*
D03*
Y4843D02*
D03*
X14882Y5787D02*
D03*
X14252Y4843D02*
D03*
Y4528D02*
D03*
X13937Y3740D02*
D03*
X13622Y5157D02*
D03*
Y3898D02*
D03*
Y4213D02*
D03*
X12992Y4843D02*
D03*
X12992Y5157D02*
D03*
Y4213D02*
D03*
X13307Y4528D02*
D03*
X12992D02*
D03*
X12362D02*
D03*
X12047D02*
D03*
X12677Y5472D02*
D03*
X11417Y4843D02*
D03*
Y4528D02*
D03*
X12362Y5157D02*
D03*
X8110Y3031D02*
D03*
X7638D02*
D03*
X7165D02*
D03*
X6693D02*
D03*
X14252Y5472D02*
D03*
X13937Y5787D02*
D03*
Y4843D02*
D03*
X13622D02*
D03*
Y5472D02*
D03*
X16575Y10197D02*
D03*
X25276Y6142D02*
D03*
X14567Y8937D02*
D03*
X19724Y10118D02*
D03*
X20118Y10512D02*
D03*
X19724D02*
D03*
X14252Y6102D02*
D03*
X13622Y4528D02*
D03*
Y5787D02*
D03*
X13307D02*
D03*
X12677D02*
D03*
X11417Y5472D02*
D03*
X11102Y5157D02*
D03*
X9173Y1260D02*
D03*
X9882D02*
D03*
X9646Y1575D02*
D03*
X10354D02*
D03*
X10591Y1260D02*
D03*
X11063Y1575D02*
D03*
X11299Y1260D02*
D03*
X8701D02*
D03*
X8465Y1575D02*
D03*
X7992Y1260D02*
D03*
X7756Y1575D02*
D03*
X7047D02*
D03*
X7283Y1260D02*
D03*
X6575D02*
D03*
X10787Y5157D02*
D03*
X10157Y4528D02*
D03*
X11102Y4213D02*
D03*
X11417Y5157D02*
D03*
X13307Y6417D02*
D03*
X15197Y10512D02*
D03*
X13307Y10197D02*
D03*
X10157Y5157D02*
D03*
X4331Y7520D02*
D03*
Y7205D02*
D03*
Y6890D02*
D03*
Y6575D02*
D03*
Y6260D02*
D03*
Y5945D02*
D03*
X11102Y10197D02*
D03*
X6575Y9567D02*
D03*
X5315Y6732D02*
D03*
X10787Y7362D02*
D03*
Y7047D02*
D03*
X10472D02*
D03*
X10157Y6417D02*
D03*
X10787Y7677D02*
D03*
X11102Y6732D02*
D03*
X8465Y7677D02*
D03*
X5315Y6102D02*
D03*
X10787Y7992D02*
D03*
X10157Y7362D02*
D03*
X9843Y7047D02*
D03*
X5315Y6417D02*
D03*
X11102Y7362D02*
D03*
X5315Y7047D02*
D03*
X11417Y6417D02*
D03*
X8465Y5787D02*
D03*
X10472D02*
D03*
X11102D02*
D03*
X9843Y6732D02*
D03*
X10157D02*
D03*
X13307Y5472D02*
D03*
X15512Y6732D02*
D03*
X12047Y8307D02*
D03*
X12362Y8937D02*
D03*
X11732D02*
D03*
X15669Y1535D02*
D03*
X16142Y1339D02*
D03*
X15197Y1299D02*
D03*
X12992Y8937D02*
D03*
X12677Y6417D02*
D03*
X12362D02*
D03*
X12677Y6102D02*
D03*
X12047Y6417D02*
D03*
X12362Y7677D02*
D03*
X12677Y7362D02*
D03*
X11732Y6417D02*
D03*
X5000Y9882D02*
D03*
Y9567D02*
D03*
X7205Y9252D02*
D03*
X7520Y8937D02*
D03*
Y8622D02*
D03*
X10472Y6732D02*
D03*
X11102Y7047D02*
D03*
X10157D02*
D03*
X10787Y9252D02*
D03*
X7835Y5787D02*
D03*
X11102Y6417D02*
D03*
X5315Y7362D02*
D03*
X5000Y7677D02*
D03*
X9528Y6732D02*
D03*
X11102Y6102D02*
D03*
X10787Y6732D02*
D03*
X8150Y7362D02*
D03*
X10787Y8307D02*
D03*
Y8937D02*
D03*
X11417Y8307D02*
D03*
Y7992D02*
D03*
Y7677D02*
D03*
X7205Y8937D02*
D03*
X10787Y8622D02*
D03*
X5315Y8937D02*
D03*
X5630D02*
D03*
X10157Y8307D02*
D03*
X10472D02*
D03*
Y7992D02*
D03*
X10157D02*
D03*
X5000Y8937D02*
D03*
X5630Y8307D02*
D03*
X9843Y7992D02*
D03*
Y8307D02*
D03*
X6575Y8622D02*
D03*
X5630Y9252D02*
D03*
X10157D02*
D03*
X5315Y8622D02*
D03*
X6890Y9252D02*
D03*
X9843Y8937D02*
D03*
X9528D02*
D03*
X6575D02*
D03*
X10157Y8937D02*
D03*
X10472Y8937D02*
D03*
X11102D02*
D03*
X6890Y8307D02*
D03*
X5630Y9882D02*
D03*
X9843Y10197D02*
D03*
X10157Y9882D02*
D03*
Y9567D02*
D03*
X10472Y9252D02*
D03*
X6890Y10827D02*
D03*
X10787Y10197D02*
D03*
X5630Y10512D02*
D03*
X10157D02*
D03*
X6575Y10197D02*
D03*
Y9882D02*
D03*
X6890D02*
D03*
X5630Y10197D02*
D03*
X9843Y9567D02*
D03*
X5315Y10512D02*
D03*
X10787D02*
D03*
X5315Y9882D02*
D03*
X9843Y9252D02*
D03*
X7205Y10197D02*
D03*
X7835Y6417D02*
D03*
X9843Y7362D02*
D03*
X4055Y4528D02*
D03*
X4370D02*
D03*
X2992Y5000D02*
D03*
X5551Y4173D02*
D03*
X12362Y5472D02*
D03*
X11732Y5157D02*
D03*
Y4843D02*
D03*
X12677Y5157D02*
D03*
X2598Y4528D02*
D03*
X2323D02*
D03*
X12362Y4213D02*
D03*
X12677D02*
D03*
X11732Y4528D02*
D03*
X11102Y4843D02*
D03*
X7874Y4685D02*
D03*
X12047Y5157D02*
D03*
X5906Y4685D02*
D03*
X3701Y5157D02*
D03*
X11732Y9252D02*
D03*
X11260Y10787D02*
D03*
X1339Y9449D02*
D03*
X15197Y10197D02*
D03*
X15512Y9882D02*
D03*
X12992Y9567D02*
D03*
X25709Y7520D02*
D03*
X25591Y7323D02*
D03*
X25709Y6732D02*
D03*
X25827Y6535D02*
D03*
X25591Y6929D02*
D03*
X26220Y6260D02*
D03*
X14252Y9252D02*
D03*
Y8937D02*
D03*
X27244Y5945D02*
D03*
X27047Y5787D02*
D03*
X26693D02*
D03*
X26496Y5945D02*
D03*
X13937Y9252D02*
D03*
X12362Y9882D02*
D03*
X11102D02*
D03*
X12992Y9252D02*
D03*
X14882Y10197D02*
D03*
X15512Y10512D02*
D03*
X25472Y7126D02*
D03*
X14882Y9882D02*
D03*
X9291Y3031D02*
D03*
X9764D02*
D03*
X10236D02*
D03*
X10709D02*
D03*
X13307Y4213D02*
D03*
X14252D02*
D03*
X28346Y6575D02*
D03*
X28543Y6732D02*
D03*
X28346Y7835D02*
D03*
X14252Y5787D02*
D03*
X14567Y5472D02*
D03*
X14882D02*
D03*
X13937Y4213D02*
D03*
Y4528D02*
D03*
X14252Y5157D02*
D03*
X14567Y4213D02*
D03*
X14882D02*
D03*
X14252Y3898D02*
D03*
X26260Y8386D02*
D03*
X26181Y8110D02*
D03*
X25787D02*
D03*
X27638Y5827D02*
D03*
X28307Y5551D02*
D03*
Y5827D02*
D03*
X28976Y5709D02*
D03*
X11417Y10197D02*
D03*
X12992Y9882D02*
D03*
X13307Y9567D02*
D03*
X30354Y10344D02*
D03*
X29370D02*
D03*
X28386D02*
D03*
Y8583D02*
D03*
X28583Y8425D02*
D03*
X28502Y7679D02*
D03*
X28740Y7362D02*
D03*
X28896Y7207D02*
D03*
X12992Y10197D02*
D03*
X30315Y1299D02*
D03*
X30079D02*
D03*
X12677Y8937D02*
D03*
X28898Y1535D02*
D03*
X29449Y1299D02*
D03*
X29213D02*
D03*
X28976D02*
D03*
X25591Y1339D02*
D03*
X26063Y1575D02*
D03*
X15827Y5472D02*
D03*
X15197Y5787D02*
D03*
Y6102D02*
D03*
X14567Y5787D02*
D03*
X15512Y6417D02*
D03*
X14252D02*
D03*
X14567D02*
D03*
X14882D02*
D03*
X15827Y5787D02*
D03*
X16142Y6102D02*
D03*
X14567Y6732D02*
D03*
X14882D02*
D03*
X14252D02*
D03*
Y7047D02*
D03*
X15197Y6732D02*
D03*
Y7047D02*
D03*
X15827Y6732D02*
D03*
X13937Y7047D02*
D03*
X14252Y7362D02*
D03*
Y8622D02*
D03*
X26260Y1496D02*
D03*
X25748Y3898D02*
D03*
X16693Y8307D02*
D03*
X25236Y4331D02*
D03*
X20984Y9528D02*
D03*
X20118Y6732D02*
D03*
X23937Y4606D02*
D03*
X13307Y6732D02*
D03*
X11417D02*
D03*
Y7362D02*
D03*
Y7047D02*
D03*
X13622Y9567D02*
D03*
X12992Y7992D02*
D03*
X12677Y7677D02*
D03*
X13622Y7992D02*
D03*
X12992Y7677D02*
D03*
X13307Y7992D02*
D03*
Y7677D02*
D03*
Y7362D02*
D03*
X12992Y7047D02*
D03*
X12047D02*
D03*
X12362D02*
D03*
X12677D02*
D03*
X12992Y7362D02*
D03*
X12362Y7992D02*
D03*
X13661Y10512D02*
D03*
X15394Y2362D02*
D03*
X27480Y1929D02*
D03*
X11417Y8937D02*
D03*
X14961Y1693D02*
D03*
X3268Y4803D02*
D03*
X20551Y7717D02*
D03*
D60*
X21024Y1260D02*
D03*
X17992Y10866D02*
D03*
X23150Y10197D02*
D03*
X22795D02*
D03*
X22441D02*
D03*
X22087D02*
D03*
X23150Y9528D02*
D03*
X22795D02*
D03*
X22441D02*
D03*
X22087D02*
D03*
X22953Y8937D02*
D03*
X22480D02*
D03*
X21299Y10866D02*
D03*
X21654D02*
D03*
X21969D02*
D03*
X24409Y8701D02*
D03*
Y7677D02*
D03*
X24016D02*
D03*
X20354Y10866D02*
D03*
X29803Y9961D02*
D03*
X27441D02*
D03*
X27205Y8740D02*
D03*
X30394Y4331D02*
D03*
X29370D02*
D03*
X28189D02*
D03*
X27008D02*
D03*
X30748Y4252D02*
D03*
X26870Y5413D02*
D03*
X28071Y5394D02*
D03*
X25787D02*
D03*
X26024D02*
D03*
X19685Y1535D02*
D03*
X20394Y1299D02*
D03*
X19685D02*
D03*
X18976D02*
D03*
X18268D02*
D03*
X16850Y1181D02*
D03*
X11563Y11575D02*
D03*
X24882Y11299D02*
D03*
X14449Y11575D02*
D03*
X14724D02*
D03*
X11850D02*
D03*
X12520D02*
D03*
Y11339D02*
D03*
X29370Y10600D02*
D03*
X29587Y8701D02*
D03*
X29646Y7441D02*
D03*
X30394Y8628D02*
D03*
X17717Y4291D02*
D03*
X17441D02*
D03*
X2598Y5748D02*
D03*
X2126Y5512D02*
D03*
Y5787D02*
D03*
X1575D02*
D03*
Y5512D02*
D03*
X1850D02*
D03*
X31378Y9528D02*
D03*
Y8976D02*
D03*
Y10079D02*
D03*
X31850Y9528D02*
D03*
Y8976D02*
D03*
Y10079D02*
D03*
Y2953D02*
D03*
Y1378D02*
D03*
Y2402D02*
D03*
X31575D02*
D03*
X31299Y2953D02*
D03*
X31575D02*
D03*
X31299Y1378D02*
D03*
Y2402D02*
D03*
X433D02*
D03*
Y2953D02*
D03*
X474Y1500D02*
D03*
X984Y2953D02*
D03*
X709Y2402D02*
D03*
X984D02*
D03*
X709Y2953D02*
D03*
X1026Y1500D02*
D03*
X20197Y6142D02*
D03*
X18819Y6260D02*
D03*
X18543D02*
D03*
X18268D02*
D03*
X17717Y6850D02*
D03*
X17992D02*
D03*
X17913Y8268D02*
D03*
Y8543D02*
D03*
X18622Y5197D02*
D03*
X18425D02*
D03*
X18228D02*
D03*
X23465Y7165D02*
D03*
Y6772D02*
D03*
Y7520D02*
D03*
X21693D02*
D03*
Y7165D02*
D03*
Y6772D02*
D03*
X24606Y10157D02*
D03*
X16890Y10866D02*
D03*
X1457Y7244D02*
D03*
Y6929D02*
D03*
Y6614D02*
D03*
Y6299D02*
D03*
X1142D02*
D03*
Y6614D02*
D03*
Y6929D02*
D03*
Y7244D02*
D03*
Y7559D02*
D03*
Y7874D02*
D03*
Y8189D02*
D03*
Y8504D02*
D03*
X3386Y8701D02*
D03*
X3071D02*
D03*
X1417Y8504D02*
D03*
X591Y10787D02*
D03*
Y11102D02*
D03*
Y11417D02*
D03*
Y9449D02*
D03*
Y9764D02*
D03*
Y10065D02*
D03*
Y10394D02*
D03*
X2047Y10433D02*
D03*
X1260Y11417D02*
D03*
X1614D02*
D03*
X1969D02*
D03*
X2638D02*
D03*
X2323D02*
D03*
Y11102D02*
D03*
Y10787D02*
D03*
X906Y11417D02*
D03*
Y11102D02*
D03*
Y10787D02*
D03*
X4291Y9488D02*
D03*
X3976Y11063D02*
D03*
X9252Y11260D02*
D03*
X21496Y4488D02*
D03*
Y4764D02*
D03*
X21220D02*
D03*
X20394Y1535D02*
D03*
X18976D02*
D03*
X18268D02*
D03*
X19685Y2047D02*
D03*
X17559Y1850D02*
D03*
X17126D02*
D03*
X25827Y1339D02*
D03*
X27480Y1535D02*
D03*
X25512Y5354D02*
D03*
X25787Y11417D02*
D03*
X26378D02*
D03*
X27362D02*
D03*
X30354Y10600D02*
D03*
X19449Y9528D02*
D03*
X25394Y9606D02*
D03*
Y9370D02*
D03*
X29449Y7795D02*
D03*
X13110Y11417D02*
D03*
X13858Y1339D02*
D03*
X13189Y1457D02*
D03*
X12362Y1575D02*
D03*
X20118Y10118D02*
D03*
X6614Y3858D02*
D03*
X7126D02*
D03*
X5354Y2677D02*
D03*
X1339Y3819D02*
D03*
X2520Y1654D02*
D03*
X2795D02*
D03*
X1929Y8504D02*
D03*
X1850Y5787D02*
D03*
X2638Y6142D02*
D03*
X9606Y5433D02*
D03*
X6102Y7205D02*
D03*
X4843Y1339D02*
D03*
X4961Y1535D02*
D03*
X4724D02*
D03*
X5512Y1732D02*
D03*
Y1969D02*
D03*
Y2205D02*
D03*
X2717Y2638D02*
D03*
X2559Y2795D02*
D03*
X4118Y2772D02*
D03*
X3971Y2632D02*
D03*
X3976Y2323D02*
D03*
X2992Y6142D02*
D03*
Y5906D02*
D03*
X6102Y8150D02*
D03*
X5354Y3661D02*
D03*
X4803Y4803D02*
D03*
X2677Y5000D02*
D03*
X2087D02*
D03*
X1457Y4606D02*
D03*
X4370Y5157D02*
D03*
X9803Y11535D02*
D03*
X10630Y11496D02*
D03*
X2756Y8701D02*
D03*
X1339Y9055D02*
D03*
X2559Y9606D02*
D03*
X906Y10394D02*
D03*
Y10079D02*
D03*
Y9764D02*
D03*
X1890Y9606D02*
D03*
X1142Y8858D02*
D03*
X3346Y10433D02*
D03*
X3661D02*
D03*
X3976D02*
D03*
Y10748D02*
D03*
Y10118D02*
D03*
X2835Y10315D02*
D03*
X12047Y10866D02*
D03*
X12362D02*
D03*
X11732D02*
D03*
X12835D02*
D03*
X13982Y11530D02*
D03*
X27559Y8504D02*
D03*
X28189Y8740D02*
D03*
X28898Y8189D02*
D03*
X29587Y8504D02*
D03*
X29646Y7638D02*
D03*
X28937Y6378D02*
D03*
Y6142D02*
D03*
X30394Y8425D02*
D03*
X24528Y9213D02*
D03*
X25276Y9882D02*
D03*
X28543Y11457D02*
D03*
X29528D02*
D03*
X30512D02*
D03*
X28386Y10600D02*
D03*
X27795Y11417D02*
D03*
X17559Y10866D02*
D03*
X26811Y11417D02*
D03*
X30325Y1614D02*
D03*
X30315Y2323D02*
D03*
X29134Y2598D02*
D03*
X30315D02*
D03*
X29134Y2323D02*
D03*
X29124Y1614D02*
D03*
X22441Y1260D02*
D03*
X21732D02*
D03*
X21890Y1457D02*
D03*
X22598D02*
D03*
X21181D02*
D03*
X21496Y9528D02*
D03*
X24567Y5354D02*
D03*
X20945Y4764D02*
D03*
X20669D02*
D03*
X20394D02*
D03*
X8346Y11260D02*
D03*
X8031D02*
D03*
X7717D02*
D03*
X7402D02*
D03*
X3976Y9803D02*
D03*
X4291D02*
D03*
Y10118D02*
D03*
Y10433D02*
D03*
Y10748D02*
D03*
Y11063D02*
D03*
X8937Y11260D02*
D03*
X13346Y10866D02*
D03*
X18071Y10157D02*
D03*
X25000Y6811D02*
D03*
X24685D02*
D03*
X24724Y5197D02*
D03*
X3701Y8701D02*
D03*
X10472Y10984D02*
D03*
X19094Y7992D02*
D03*
Y7717D02*
D03*
X19370D02*
D03*
X17992Y4291D02*
D03*
X12205Y11575D02*
D03*
X31693Y4961D02*
D03*
Y6614D02*
D03*
D61*
X23819Y11339D02*
D03*
X23543Y4449D02*
D03*
D62*
X31024Y394D02*
D03*
X30315D02*
D03*
X29134D02*
D03*
X28425D02*
D03*
X25118D02*
D03*
X23228D02*
D03*
X1260D02*
D03*
X1969D02*
D03*
X3150D02*
D03*
X3858D02*
D03*
X6457D02*
D03*
X9055D02*
D03*
X11654D02*
D03*
X16142Y11575D02*
D03*
X15197D02*
D03*
X15472D02*
D03*
Y11339D02*
D03*
X15197D02*
D03*
X14724D02*
D03*
X14449D02*
D03*
X15866Y11575D02*
D03*
Y11339D02*
D03*
X9843Y6102D02*
D03*
X25197Y5551D02*
D03*
X25000Y5748D02*
D03*
X28189Y11457D02*
D03*
X27087D02*
D03*
X25551Y11496D02*
D03*
X5906Y5157D02*
D03*
X5512D02*
D03*
X5118D02*
D03*
X4724D02*
D03*
X8268D02*
D03*
X7874D02*
D03*
X7520D02*
D03*
X26693Y7638D02*
D03*
Y7205D02*
D03*
Y6772D02*
D03*
X27126D02*
D03*
Y7638D02*
D03*
X27559D02*
D03*
Y7205D02*
D03*
Y6772D02*
D03*
X27126Y7205D02*
D03*
X22992Y5079D02*
D03*
X22756Y5315D02*
D03*
Y4843D02*
D03*
X23228D02*
D03*
Y5315D02*
D03*
X2205Y6890D02*
D03*
Y7244D02*
D03*
X2835Y6850D02*
D03*
Y7244D02*
D03*
X2520Y7047D02*
D03*
X5984Y2008D02*
D03*
Y2598D02*
D03*
Y3189D02*
D03*
Y9252D02*
D03*
X6299D02*
D03*
X21220Y4488D02*
D03*
X20945D02*
D03*
X20669D02*
D03*
X20394D02*
D03*
X11732Y6102D02*
D03*
X11417D02*
D03*
X11102Y8628D02*
D03*
X18543Y6575D02*
D03*
X17717Y7402D02*
D03*
X17992Y7126D02*
D03*
X17717D02*
D03*
X18268Y6575D02*
D03*
X17638Y8543D02*
D03*
X17913Y6457D02*
D03*
X18622Y5000D02*
D03*
X18425D02*
D03*
X18228D02*
D03*
X18898Y5472D02*
D03*
Y5748D02*
D03*
X18622D02*
D03*
X18346Y5472D02*
D03*
X18071Y5748D02*
D03*
Y5472D02*
D03*
X17795D02*
D03*
Y5748D02*
D03*
Y6024D02*
D03*
X17520Y5472D02*
D03*
Y5748D02*
D03*
Y6024D02*
D03*
Y6299D02*
D03*
X23189Y6772D02*
D03*
X22913D02*
D03*
Y7520D02*
D03*
X23189D02*
D03*
Y7165D02*
D03*
X22913D02*
D03*
X22244Y7520D02*
D03*
X21969D02*
D03*
Y6772D02*
D03*
X22244Y7165D02*
D03*
X21969D02*
D03*
X22244Y6772D02*
D03*
X2480Y2205D02*
D03*
X1220Y9764D02*
D03*
Y10079D02*
D03*
X1850Y10236D02*
D03*
X8937Y10945D02*
D03*
X9252D02*
D03*
X12205Y11378D02*
D03*
X21260Y5315D02*
D03*
X20433D02*
D03*
X20709D02*
D03*
X20984D02*
D03*
X15512Y7362D02*
D03*
X23228Y945D02*
D03*
X25118D02*
D03*
X14567Y6102D02*
D03*
X14882D02*
D03*
X12992D02*
D03*
X11654Y945D02*
D03*
X9055D02*
D03*
X6457D02*
D03*
X3150D02*
D03*
X1969D02*
D03*
X1260D02*
D03*
X3110Y7756D02*
D03*
X5984Y8937D02*
D03*
X5000Y5787D02*
D03*
X6299Y8937D02*
D03*
X5630Y6417D02*
D03*
X6575Y7677D02*
D03*
X5630Y6732D02*
D03*
X6575D02*
D03*
Y7047D02*
D03*
X6890Y7047D02*
D03*
X5630Y7677D02*
D03*
X7205Y5787D02*
D03*
Y6102D02*
D03*
X5315Y7677D02*
D03*
Y7992D02*
D03*
X7520Y7362D02*
D03*
X7205D02*
D03*
X10472Y7677D02*
D03*
Y7362D02*
D03*
X6575Y7992D02*
D03*
Y8307D02*
D03*
X10472Y6417D02*
D03*
X11417Y9567D02*
D03*
Y9882D02*
D03*
X12047Y7362D02*
D03*
X11732D02*
D03*
X12992Y5787D02*
D03*
Y5472D02*
D03*
X12362Y5787D02*
D03*
X14567Y7047D02*
D03*
X12992Y6417D02*
D03*
X13307Y7047D02*
D03*
X13937Y6102D02*
D03*
Y6732D02*
D03*
X13622Y6417D02*
D03*
X13937Y7362D02*
D03*
X13622Y7677D02*
D03*
X10472Y9567D02*
D03*
Y10197D02*
D03*
X12677Y4528D02*
D03*
X13307Y5157D02*
D03*
X13937D02*
D03*
X14882Y4843D02*
D03*
X15512Y5787D02*
D03*
X15827Y7362D02*
D03*
X15197Y7992D02*
D03*
X15827Y4528D02*
D03*
Y9567D02*
D03*
X14567Y9252D02*
D03*
Y9882D02*
D03*
X14252Y8307D02*
D03*
X13622D02*
D03*
X13307Y8622D02*
D03*
X12047Y7677D02*
D03*
X12362Y8307D02*
D03*
Y8622D02*
D03*
X12992Y8307D02*
D03*
X11732D02*
D03*
Y7047D02*
D03*
X12047Y9252D02*
D03*
Y9567D02*
D03*
X11732Y10197D02*
D03*
X10787Y6417D02*
D03*
X12362Y4843D02*
D03*
X14567Y7362D02*
D03*
X12992Y6732D02*
D03*
X13937Y6417D02*
D03*
X13622Y6102D02*
D03*
Y6732D02*
D03*
Y7047D02*
D03*
Y7362D02*
D03*
X13937Y7677D02*
D03*
X3425Y1772D02*
D03*
X3858Y945D02*
D03*
X3350Y3400D02*
D03*
X10472Y8622D02*
D03*
X10787Y9567D02*
D03*
X10157Y10197D02*
D03*
X12677Y4843D02*
D03*
X13307D02*
D03*
X13937Y5472D02*
D03*
X14882Y5157D02*
D03*
X15512Y7992D02*
D03*
X15827Y4843D02*
D03*
Y9252D02*
D03*
X14882D02*
D03*
X14252Y9882D02*
D03*
X13937Y8307D02*
D03*
X13622Y8622D02*
D03*
X13307Y8937D02*
D03*
X12047Y8622D02*
D03*
X12992D02*
D03*
X12677Y8307D02*
D03*
X11732Y8622D02*
D03*
X12362Y9567D02*
D03*
Y9252D02*
D03*
X12047Y10197D02*
D03*
Y5472D02*
D03*
X12677Y6732D02*
D03*
X12362D02*
D03*
X12047D02*
D03*
Y4843D02*
D03*
X11732Y5472D02*
D03*
X12362Y7362D02*
D03*
X11732Y6732D02*
D03*
X11102Y7992D02*
D03*
X11732Y7992D02*
D03*
X12047D02*
D03*
X12362Y6102D02*
D03*
X12047D02*
D03*
Y5787D02*
D03*
X11102Y7677D02*
D03*
X11732Y7677D02*
D03*
X5000Y8307D02*
D03*
X5315D02*
D03*
X4685Y10827D02*
D03*
Y10512D02*
D03*
Y10197D02*
D03*
Y9882D02*
D03*
X5315Y10197D02*
D03*
X5000D02*
D03*
X4685Y9567D02*
D03*
Y9252D02*
D03*
Y8622D02*
D03*
X5000D02*
D03*
X4685Y7047D02*
D03*
Y6732D02*
D03*
Y6417D02*
D03*
Y6102D02*
D03*
Y5787D02*
D03*
X7205Y10827D02*
D03*
X7520D02*
D03*
Y10512D02*
D03*
Y10197D02*
D03*
Y9882D02*
D03*
Y9567D02*
D03*
X7205Y9882D02*
D03*
Y9567D02*
D03*
X6890Y8622D02*
D03*
X7205D02*
D03*
Y8307D02*
D03*
Y7992D02*
D03*
X7520Y6732D02*
D03*
Y6417D02*
D03*
Y6102D02*
D03*
Y5787D02*
D03*
X7205Y7677D02*
D03*
X5630Y7362D02*
D03*
Y5787D02*
D03*
Y7992D02*
D03*
X7205Y6732D02*
D03*
Y6417D02*
D03*
X5630Y6102D02*
D03*
X6575D02*
D03*
X5630Y7047D02*
D03*
X11102Y8307D02*
D03*
X10157Y8622D02*
D03*
X10787Y9882D02*
D03*
X7205Y7047D02*
D03*
X4016Y5157D02*
D03*
X6299D02*
D03*
X2244Y8504D02*
D03*
X12677Y7992D02*
D03*
X13307Y8307D02*
D03*
Y9252D02*
D03*
X25394Y7953D02*
D03*
Y7756D02*
D03*
X31024Y945D02*
D03*
X30315D02*
D03*
X29134D02*
D03*
X28425D02*
D03*
X15512Y5472D02*
D03*
X13307Y6102D02*
D03*
X18268Y8543D02*
D03*
X18543D02*
D03*
X18268Y8268D02*
D03*
X18543D02*
D03*
X18819D02*
D03*
Y7992D02*
D03*
X18543D02*
D03*
X18268D02*
D03*
X18543Y7717D02*
D03*
X18819D02*
D03*
X3600Y3150D02*
D03*
Y3650D02*
D03*
X3100D02*
D03*
Y3150D02*
D03*
X3600Y3150D02*
D03*
Y3650D02*
D03*
X3100D02*
D03*
Y3150D02*
D03*
%TF.MD5,d8d39bef2836cec0d5d2154c92d1de0d*%
M02*
