G04 Layer_Physical_Order=7*
G04 Layer_Color=6736896*
%FSLAX24Y24*%
%MOIN*%
%TF.FileFunction,Copper,L7,Inr,Signal*%
%TF.Part,Single*%
G01*
G75*
%TA.AperFunction,Conductor*%
%ADD42C,0.0060*%
%ADD45C,0.0150*%
%ADD51C,0.0100*%
%TA.AperFunction,NonConductor*%
%ADD55C,0.0100*%
%TA.AperFunction,ViaPad*%
%ADD59C,0.0160*%
%ADD60C,0.0180*%
%TA.AperFunction,TestPad*%
%ADD61C,0.0160*%
%TA.AperFunction,ViaPad*%
%ADD62C,0.0170*%
%TA.AperFunction,Conductor*%
%ADD68C,0.0045*%
%ADD69C,0.0040*%
%ADD70C,0.0064*%
D42*
X8819Y8543D02*
X8898Y8622D01*
X7717Y8543D02*
X8819D01*
X7638Y8465D02*
X7717Y8543D01*
X8898Y5945D02*
X10630D01*
X10945Y6260D02*
X11260D01*
X10630Y5945D02*
X10945Y6260D01*
Y6575D02*
X11102Y6417D01*
X10669Y6575D02*
X10945D01*
X10630Y6535D02*
X10669Y6575D01*
X10630Y6299D02*
Y6535D01*
X10591Y6260D02*
X10630Y6299D01*
X9173Y6260D02*
X10591D01*
X11102Y10197D02*
Y10197D01*
X10945Y10354D02*
X11102Y10197D01*
X6378Y10354D02*
X10945D01*
X5748Y9724D02*
X6378Y10354D01*
X5472Y9724D02*
X5748D01*
X4843Y9094D02*
X5472Y9724D01*
X4843Y5945D02*
Y9094D01*
Y5945D02*
X5000Y5787D01*
X10630Y9094D02*
X10787Y9252D01*
X9685Y9094D02*
X10630D01*
X9528Y8937D02*
X9685Y9094D01*
X5630Y5787D02*
X5866Y5551D01*
X7598D01*
X7835Y5787D01*
X9764Y8465D02*
X10315D01*
X9409Y8819D02*
X9764Y8465D01*
X7717Y8819D02*
X9409D01*
X7677Y8780D02*
X7717Y8819D01*
X5157Y8780D02*
X7677D01*
X10315Y9409D02*
X10472Y9252D01*
X6732Y9409D02*
X10315D01*
X6575Y9567D02*
X6732Y9409D01*
X9449Y8307D02*
X9606Y8150D01*
X9449Y8307D02*
Y8583D01*
X9409Y8622D02*
X9449Y8583D01*
X9291Y8622D02*
X9409D01*
X9252Y8583D02*
X9291Y8622D01*
X9252Y8504D02*
Y8583D01*
X9252Y8504D02*
X9252D01*
X9213Y8465D02*
X9252Y8504D01*
X9094Y8465D02*
X9213D01*
X9055Y8504D02*
X9094Y8465D01*
X9055Y8504D02*
Y8583D01*
X9016Y8622D02*
X9055Y8583D01*
X8898Y8622D02*
X9016D01*
X6339Y8346D02*
X6457Y8465D01*
X5906Y8346D02*
X6339D01*
X5787Y8465D02*
X5906Y8346D01*
X5472Y8465D02*
X5787D01*
X10315D02*
X10472Y8307D01*
X10000Y6890D02*
X10157Y6732D01*
X9488Y6890D02*
X10000D01*
X6575Y7992D02*
X6772Y7795D01*
X6417Y7205D02*
X8228D01*
X11260Y6260D02*
X11417Y6417D01*
X5866Y7087D02*
X6063Y6890D01*
X5866Y7087D02*
Y7441D01*
X5630Y7677D02*
X5866Y7441D01*
X10157Y6732D02*
Y6732D01*
X7205Y7677D02*
X7362Y7520D01*
X10315Y6575D02*
X10472Y6732D01*
X5630Y7992D02*
X6417Y7205D01*
X7362Y7520D02*
X8346D01*
X9291Y6575D01*
X10315D01*
X8228Y7205D02*
X9173Y6260D01*
X8740Y7717D02*
Y7756D01*
X8976Y7717D02*
X9016D01*
X9094Y7638D01*
Y7598D02*
Y7638D01*
X8819Y7323D02*
X9094Y7598D01*
X8819Y7283D02*
Y7323D01*
Y7283D02*
X8898Y7205D01*
X8937D01*
X9213Y7480D01*
X9252D01*
X9331Y7402D01*
Y7362D02*
Y7402D01*
X9449Y6929D02*
X9488Y6890D01*
X9055Y7087D02*
X9331Y7362D01*
X9055Y7047D02*
Y7087D01*
Y7047D02*
X9134Y6969D01*
X9173D01*
X9409Y7205D01*
X5000Y8937D02*
X5157Y8780D01*
X5315Y8622D02*
X5472Y8465D01*
X9606Y8150D02*
X10000D01*
X10157Y7992D01*
X7323Y8150D02*
X7362Y8189D01*
Y8268D01*
X7559Y8189D02*
X7598Y8150D01*
X7717D01*
X7756Y8189D01*
Y8307D01*
X7795Y8346D01*
X7913D01*
X7953Y8307D01*
Y8189D02*
Y8307D01*
Y8189D02*
X7992Y8150D01*
X8110D01*
X8150Y8189D01*
Y8307D01*
X8189Y8346D01*
X8307D01*
X8346Y8307D01*
Y8189D02*
Y8307D01*
Y8189D02*
X8386Y8150D01*
X8504D01*
X8543Y8189D01*
Y8307D01*
X8583Y8346D01*
X8701D01*
X8740Y8307D01*
Y8189D02*
Y8307D01*
Y8189D02*
X8780Y8150D01*
X7323Y7835D02*
X7362Y7874D01*
Y7992D01*
X7402Y8031D01*
X7520D01*
X7559Y7992D01*
Y7717D02*
Y7992D01*
X7756Y7717D02*
Y7992D01*
X7795Y8031D01*
X7913D01*
X7953Y7992D01*
Y7717D02*
Y7992D01*
X8976Y7913D02*
Y7953D01*
Y7913D02*
X9055Y7835D01*
X9094D01*
X9370Y8110D01*
X9409D01*
X9488Y8031D01*
Y7992D02*
Y8031D01*
X9213Y7717D02*
X9488Y7992D01*
X9213Y7677D02*
Y7717D01*
Y7677D02*
X9291Y7598D01*
X9331D01*
X9449Y7441D02*
Y7480D01*
X10000Y7205D02*
X10157Y7047D01*
X9606Y7874D02*
Y7874D01*
X9449Y7480D02*
X9724Y7756D01*
X9606Y7874D02*
X9646D01*
X9331Y7598D02*
X9606Y7874D01*
X9646Y7874D02*
X9724Y7795D01*
Y7756D02*
Y7795D01*
X9449Y7441D02*
X9685Y7205D01*
X10000D01*
X8622Y7598D02*
X8740Y7717D01*
X8622Y7559D02*
Y7598D01*
Y7559D02*
X8701Y7480D01*
X8740D01*
X8976Y7717D01*
X8780Y8150D02*
X8937D01*
X9094Y8307D01*
X8976Y7953D02*
X9213Y8189D01*
X8071Y6457D02*
Y6496D01*
Y6457D02*
X8150Y6378D01*
X8189D01*
X8465Y6654D01*
X8504D01*
X8583Y6575D01*
Y6535D02*
Y6575D01*
X8307Y6260D02*
X8583Y6535D01*
X8307Y6220D02*
Y6260D01*
Y6220D02*
X8386Y6142D01*
X8425D01*
X8701Y6417D01*
X8740D01*
X8819Y6339D01*
Y6299D02*
Y6339D01*
X8701Y6181D02*
X8819Y6299D01*
X8701Y6142D02*
Y6181D01*
Y6142D02*
X8701D01*
X8898Y5945D01*
X8071Y6496D02*
X8228Y6654D01*
Y6693D01*
X8031Y6890D02*
X8228Y6693D01*
X8031Y6890D02*
Y6890D01*
X6063D02*
X8031D01*
X7559Y7717D02*
X7598Y7677D01*
X7717D01*
X7756Y7717D01*
X7953D02*
X7992Y7677D01*
X8110D01*
X8150Y7717D01*
X9449Y6929D02*
Y7008D01*
X9528Y7087D01*
X9409Y7205D02*
X9449D01*
X9528Y7126D01*
Y7087D02*
Y7126D01*
X8150Y7717D02*
Y7874D01*
X8189Y7913D01*
X8583D01*
X8740Y7756D01*
X7047Y7835D02*
X7323D01*
X6575Y8307D02*
X6772Y8110D01*
X7008D02*
X7047Y8150D01*
X7323D01*
X6457Y8465D02*
X7638D01*
X7559Y8189D02*
Y8268D01*
X7362D02*
X7402Y8307D01*
X7520D01*
X7559Y8268D01*
X9094Y8307D02*
X9134D01*
X9213Y8228D01*
Y8189D02*
Y8228D01*
X6772Y8071D02*
Y8110D01*
Y8071D02*
X6811Y8031D01*
X6969D01*
X7008Y8071D01*
Y8110D01*
X6772Y7756D02*
Y7795D01*
Y7756D02*
X6811Y7717D01*
X6969D01*
X7008Y7756D01*
Y7795D01*
X7047Y7835D01*
D45*
X11181Y5551D02*
X11417Y5787D01*
Y6102D01*
X9724Y5551D02*
X11181D01*
X9606Y5433D02*
X9724Y5551D01*
D51*
X30551Y11063D02*
X31024Y10591D01*
Y3819D02*
Y10591D01*
X30610Y3406D02*
X31024Y3819D01*
X30394Y709D02*
X30610Y925D01*
Y3406D01*
X26063Y11417D02*
X26417Y11063D01*
X30551D01*
X26457Y709D02*
X30394D01*
X26063Y1102D02*
X26457Y709D01*
X26063Y1102D02*
Y1575D01*
D55*
X-30400Y4400D02*
Y3800D01*
X-30000D01*
X-29700Y4200D02*
X-29500D01*
X-29400Y4100D01*
Y3800D01*
X-29700D01*
X-29800Y3900D01*
X-29700Y4000D01*
X-29400D01*
X-29200Y4200D02*
Y3900D01*
X-29100Y3800D01*
X-28801D01*
Y3700D01*
X-28900Y3600D01*
X-29000D01*
X-28801Y3800D02*
Y4200D01*
X-28301Y3800D02*
X-28501D01*
X-28601Y3900D01*
Y4100D01*
X-28501Y4200D01*
X-28301D01*
X-28201Y4100D01*
Y4000D01*
X-28601D01*
X-28001Y4200D02*
Y3800D01*
Y4000D01*
X-27901Y4100D01*
X-27801Y4200D01*
X-27701D01*
X-26801Y4400D02*
X-26401D01*
Y4300D01*
X-26801Y3900D01*
Y3800D01*
X-25602Y4100D02*
X-25202D01*
X-24002Y4300D02*
X-24102Y4400D01*
X-24302D01*
X-24402Y4300D01*
Y4200D01*
X-24302Y4100D01*
X-24102D01*
X-24002Y4000D01*
Y3900D01*
X-24102Y3800D01*
X-24302D01*
X-24402Y3900D01*
X-23802Y3800D02*
X-23602D01*
X-23702D01*
Y4200D01*
X-23802D01*
X-23102Y3600D02*
X-23002D01*
X-22902Y3700D01*
Y4200D01*
X-23202D01*
X-23302Y4100D01*
Y3900D01*
X-23202Y3800D01*
X-22902D01*
X-22702D02*
Y4200D01*
X-22403D01*
X-22303Y4100D01*
Y3800D01*
X-22003Y4200D02*
X-21803D01*
X-21703Y4100D01*
Y3800D01*
X-22003D01*
X-22103Y3900D01*
X-22003Y4000D01*
X-21703D01*
X-21503Y3800D02*
X-21303D01*
X-21403D01*
Y4400D01*
X-21503D01*
X-20203Y3800D02*
X-20403Y4000D01*
Y4200D01*
X-20203Y4400D01*
X-19504Y4300D02*
X-19603Y4400D01*
X-19803D01*
X-19903Y4300D01*
Y3900D01*
X-19803Y3800D01*
X-19603D01*
X-19504Y3900D01*
X-19204Y3800D02*
X-19004D01*
X-18904Y3900D01*
Y4100D01*
X-19004Y4200D01*
X-19204D01*
X-19304Y4100D01*
Y3900D01*
X-19204Y3800D01*
X-18704Y3600D02*
Y4200D01*
X-18404D01*
X-18304Y4100D01*
Y3900D01*
X-18404Y3800D01*
X-18704D01*
X-18104Y3600D02*
Y4200D01*
X-17804D01*
X-17704Y4100D01*
Y3900D01*
X-17804Y3800D01*
X-18104D01*
X-17204D02*
X-17404D01*
X-17504Y3900D01*
Y4100D01*
X-17404Y4200D01*
X-17204D01*
X-17104Y4100D01*
Y4000D01*
X-17504D01*
X-16904Y4200D02*
Y3800D01*
Y4000D01*
X-16804Y4100D01*
X-16704Y4200D01*
X-16604D01*
X-16305Y3800D02*
X-16105Y4000D01*
Y4200D01*
X-16305Y4400D01*
D59*
X25591Y2047D02*
D03*
X25906D02*
D03*
X25157D02*
D03*
X22913Y3307D02*
D03*
X22638D02*
D03*
X22244D02*
D03*
X21929D02*
D03*
X21535D02*
D03*
X21142D02*
D03*
X20827D02*
D03*
X20512D02*
D03*
X20197D02*
D03*
X21024Y1732D02*
D03*
X17323Y2283D02*
D03*
X17795D02*
D03*
X18110D02*
D03*
X18425D02*
D03*
X18740D02*
D03*
X19055D02*
D03*
X19370D02*
D03*
X20079Y2047D02*
D03*
X20157Y1732D02*
D03*
X20472Y2047D02*
D03*
X21142D02*
D03*
X21732Y1732D02*
D03*
X22362Y2047D02*
D03*
Y1732D02*
D03*
X21732Y2047D02*
D03*
X22756D02*
D03*
X23504D02*
D03*
X23583Y1575D02*
D03*
X23150D02*
D03*
X24291D02*
D03*
X24567Y2047D02*
D03*
X23937D02*
D03*
X24882Y1575D02*
D03*
X16811Y2008D02*
D03*
X16575Y2283D02*
D03*
X15748Y2008D02*
D03*
X16142Y1850D02*
D03*
X13189Y2559D02*
D03*
X13346Y2756D02*
D03*
X12598Y2047D02*
D03*
X12835Y2559D02*
D03*
X11496D02*
D03*
X11693Y1260D02*
D03*
X11890Y2559D02*
D03*
X12283D02*
D03*
X11299Y3031D02*
D03*
X11063Y2047D02*
D03*
Y2559D02*
D03*
X10354Y2047D02*
D03*
X9646D02*
D03*
X8937D02*
D03*
X8701Y3031D02*
D03*
X8465Y2559D02*
D03*
Y2047D02*
D03*
X7756D02*
D03*
X7047D02*
D03*
X10472Y2559D02*
D03*
X10000D02*
D03*
X9528D02*
D03*
X7874D02*
D03*
X7402D02*
D03*
X6929D02*
D03*
X30748Y6063D02*
D03*
X30591Y3937D02*
D03*
X30945Y3307D02*
D03*
X22559Y10866D02*
D03*
X23031Y7913D02*
D03*
X21870Y8110D02*
D03*
X22441Y7913D02*
D03*
X12047Y10512D02*
D03*
X11732D02*
D03*
Y9882D02*
D03*
X11417Y9252D02*
D03*
X23268Y11299D02*
D03*
Y10984D02*
D03*
X12362Y10197D02*
D03*
X11417Y10512D02*
D03*
X23819Y8031D02*
D03*
Y8346D02*
D03*
X24173Y11339D02*
D03*
X26063Y9882D02*
D03*
X26457D02*
D03*
Y4055D02*
D03*
X26220Y4252D02*
D03*
X27677Y3898D02*
D03*
X27480Y4094D02*
D03*
X29606Y4134D02*
D03*
X28819Y3937D02*
D03*
X28425Y4134D02*
D03*
X30039Y3937D02*
D03*
X25591Y4331D02*
D03*
X15197Y2165D02*
D03*
X11417Y4213D02*
D03*
X24528Y9606D02*
D03*
X16220Y3189D02*
D03*
X16457D02*
D03*
X14961Y1457D02*
D03*
X27953Y2598D02*
D03*
X27402D02*
D03*
X27677D02*
D03*
X23819Y3307D02*
D03*
X23425D02*
D03*
X23189D02*
D03*
X24449D02*
D03*
X24055D02*
D03*
X24685D02*
D03*
X9843Y9882D02*
D03*
X11732Y5787D02*
D03*
X19528Y4764D02*
D03*
Y4528D02*
D03*
X11102Y9252D02*
D03*
X26063Y11417D02*
D03*
X19409Y8622D02*
D03*
X19803D02*
D03*
X20118D02*
D03*
X20433D02*
D03*
X19055D02*
D03*
X25669Y3661D02*
D03*
X28661Y3465D02*
D03*
X16457Y8622D02*
D03*
X15512Y8937D02*
D03*
X15827D02*
D03*
X14567Y8307D02*
D03*
X14882Y7992D02*
D03*
X14567D02*
D03*
X14882Y8307D02*
D03*
Y7677D02*
D03*
X15197Y8307D02*
D03*
X15512D02*
D03*
X15827D02*
D03*
X15197Y7677D02*
D03*
X16457D02*
D03*
X16142Y7992D02*
D03*
X16457Y7047D02*
D03*
X14252Y7992D02*
D03*
X15827Y7677D02*
D03*
Y7992D02*
D03*
X15512Y7677D02*
D03*
X13937Y8622D02*
D03*
X14567Y7677D02*
D03*
X15197Y7362D02*
D03*
X13937Y7992D02*
D03*
X14252Y7677D02*
D03*
X15827Y7047D02*
D03*
X14882Y7362D02*
D03*
Y7047D02*
D03*
X27047Y2441D02*
D03*
X15827Y8622D02*
D03*
X14882D02*
D03*
X15197D02*
D03*
X14567D02*
D03*
X15197Y9252D02*
D03*
X15512D02*
D03*
Y8622D02*
D03*
X26457Y1339D02*
D03*
X26732Y1535D02*
D03*
X26969Y1299D02*
D03*
X28465Y3031D02*
D03*
Y3307D02*
D03*
X28504Y1732D02*
D03*
X31299Y5709D02*
D03*
X11732Y9567D02*
D03*
X12047Y8937D02*
D03*
X12677Y9567D02*
D03*
Y9252D02*
D03*
X29843Y3465D02*
D03*
X29488Y3031D02*
D03*
X29016Y3583D02*
D03*
X13937Y9567D02*
D03*
Y10197D02*
D03*
X14252D02*
D03*
X14567Y10512D02*
D03*
X30039Y3031D02*
D03*
X20748Y9528D02*
D03*
X15197Y9882D02*
D03*
Y9567D02*
D03*
X14567Y10197D02*
D03*
X13622Y9882D02*
D03*
Y10197D02*
D03*
X14252Y9567D02*
D03*
X14882Y8937D02*
D03*
X15197D02*
D03*
X15827Y9882D02*
D03*
X18110Y9567D02*
D03*
X14882D02*
D03*
X20394Y9528D02*
D03*
X14567Y9567D02*
D03*
X13937Y9882D02*
D03*
X12047D02*
D03*
X13740Y2756D02*
D03*
X14488Y1693D02*
D03*
Y1299D02*
D03*
X14252Y1693D02*
D03*
X13386D02*
D03*
X15827Y5157D02*
D03*
X15512D02*
D03*
X15827Y6102D02*
D03*
Y6417D02*
D03*
X15512Y6102D02*
D03*
X15197Y6417D02*
D03*
X14567Y5157D02*
D03*
X15512Y4213D02*
D03*
X15197D02*
D03*
X15512Y4843D02*
D03*
Y4528D02*
D03*
X15197D02*
D03*
Y4843D02*
D03*
X14567Y4528D02*
D03*
Y4843D02*
D03*
X14882Y5787D02*
D03*
X14252Y4843D02*
D03*
Y4528D02*
D03*
X13937Y3740D02*
D03*
X13622Y5157D02*
D03*
Y3898D02*
D03*
Y4213D02*
D03*
X12992Y4843D02*
D03*
X12992Y5157D02*
D03*
Y4213D02*
D03*
X13307Y4528D02*
D03*
X12992D02*
D03*
X12362D02*
D03*
X12047D02*
D03*
X12677Y5472D02*
D03*
X11417Y4843D02*
D03*
Y4528D02*
D03*
X12362Y5157D02*
D03*
X8110Y3031D02*
D03*
X7638D02*
D03*
X7165D02*
D03*
X6693D02*
D03*
X14252Y5472D02*
D03*
X13937Y5787D02*
D03*
Y4843D02*
D03*
X13622D02*
D03*
Y5472D02*
D03*
X16575Y10197D02*
D03*
X25276Y6142D02*
D03*
X14567Y8937D02*
D03*
X19724Y10118D02*
D03*
X20118Y10512D02*
D03*
X19724D02*
D03*
X14252Y6102D02*
D03*
X13622Y4528D02*
D03*
Y5787D02*
D03*
X13307D02*
D03*
X12677D02*
D03*
X11417Y5472D02*
D03*
X11102Y5157D02*
D03*
X9173Y1260D02*
D03*
X9882D02*
D03*
X9646Y1575D02*
D03*
X10354D02*
D03*
X10591Y1260D02*
D03*
X11063Y1575D02*
D03*
X11299Y1260D02*
D03*
X8701D02*
D03*
X8465Y1575D02*
D03*
X7992Y1260D02*
D03*
X7756Y1575D02*
D03*
X7047D02*
D03*
X7283Y1260D02*
D03*
X6575D02*
D03*
X10787Y5157D02*
D03*
X10157Y4528D02*
D03*
X11102Y4213D02*
D03*
X11417Y5157D02*
D03*
X13307Y6417D02*
D03*
X15197Y10512D02*
D03*
X13307Y10197D02*
D03*
X10157Y5157D02*
D03*
X4331Y7520D02*
D03*
Y7205D02*
D03*
Y6890D02*
D03*
Y6575D02*
D03*
Y6260D02*
D03*
Y5945D02*
D03*
X11102Y10197D02*
D03*
X6575Y9567D02*
D03*
X5315Y6732D02*
D03*
X10787Y7362D02*
D03*
Y7047D02*
D03*
X10472D02*
D03*
X10157Y6417D02*
D03*
X10787Y7677D02*
D03*
X11102Y6732D02*
D03*
X8465Y7677D02*
D03*
X5315Y6102D02*
D03*
X10787Y7992D02*
D03*
X10157Y7362D02*
D03*
X9843Y7047D02*
D03*
X5315Y6417D02*
D03*
X11102Y7362D02*
D03*
X5315Y7047D02*
D03*
X11417Y6417D02*
D03*
X8465Y5787D02*
D03*
X10472D02*
D03*
X11102D02*
D03*
X9843Y6732D02*
D03*
X10157D02*
D03*
X13307Y5472D02*
D03*
X15512Y6732D02*
D03*
X12047Y8307D02*
D03*
X12362Y8937D02*
D03*
X11732D02*
D03*
X15669Y1535D02*
D03*
X16142Y1339D02*
D03*
X15197Y1299D02*
D03*
X12992Y8937D02*
D03*
X12677Y6417D02*
D03*
X12362D02*
D03*
X12677Y6102D02*
D03*
X12047Y6417D02*
D03*
X12362Y7677D02*
D03*
X12677Y7362D02*
D03*
X11732Y6417D02*
D03*
X5000Y9882D02*
D03*
Y9567D02*
D03*
X7205Y9252D02*
D03*
X7520Y8937D02*
D03*
Y8622D02*
D03*
X10472Y6732D02*
D03*
X11102Y7047D02*
D03*
X10157D02*
D03*
X10787Y9252D02*
D03*
X7835Y5787D02*
D03*
X11102Y6417D02*
D03*
X5315Y7362D02*
D03*
X5000Y7677D02*
D03*
X9528Y6732D02*
D03*
X11102Y6102D02*
D03*
X10787Y6732D02*
D03*
X8150Y7362D02*
D03*
X10787Y8307D02*
D03*
Y8937D02*
D03*
X11417Y8307D02*
D03*
Y7992D02*
D03*
Y7677D02*
D03*
X7205Y8937D02*
D03*
X10787Y8622D02*
D03*
X5315Y8937D02*
D03*
X5630D02*
D03*
X10157Y8307D02*
D03*
X10472D02*
D03*
Y7992D02*
D03*
X10157D02*
D03*
X5000Y8937D02*
D03*
X5630Y8307D02*
D03*
X9843Y7992D02*
D03*
Y8307D02*
D03*
X6575Y8622D02*
D03*
X5630Y9252D02*
D03*
X10157D02*
D03*
X5315Y8622D02*
D03*
X6890Y9252D02*
D03*
X9843Y8937D02*
D03*
X9528D02*
D03*
X6575D02*
D03*
X10157Y8937D02*
D03*
X10472Y8937D02*
D03*
X11102D02*
D03*
X6890Y8307D02*
D03*
X5630Y9882D02*
D03*
X9843Y10197D02*
D03*
X10157Y9882D02*
D03*
Y9567D02*
D03*
X10472Y9252D02*
D03*
X6890Y10827D02*
D03*
X10787Y10197D02*
D03*
X5630Y10512D02*
D03*
X10157D02*
D03*
X6575Y10197D02*
D03*
Y9882D02*
D03*
X6890D02*
D03*
X5630Y10197D02*
D03*
X9843Y9567D02*
D03*
X5315Y10512D02*
D03*
X10787D02*
D03*
X5315Y9882D02*
D03*
X9843Y9252D02*
D03*
X7205Y10197D02*
D03*
X7835Y6417D02*
D03*
X9843Y7362D02*
D03*
X4055Y4528D02*
D03*
X4370D02*
D03*
X2992Y5000D02*
D03*
X5551Y4173D02*
D03*
X12362Y5472D02*
D03*
X11732Y5157D02*
D03*
Y4843D02*
D03*
X12677Y5157D02*
D03*
X2598Y4528D02*
D03*
X2323D02*
D03*
X12362Y4213D02*
D03*
X12677D02*
D03*
X11732Y4528D02*
D03*
X11102Y4843D02*
D03*
X7874Y4685D02*
D03*
X12047Y5157D02*
D03*
X5906Y4685D02*
D03*
X3701Y5157D02*
D03*
X11732Y9252D02*
D03*
X11260Y10787D02*
D03*
X1339Y9449D02*
D03*
X15197Y10197D02*
D03*
X15512Y9882D02*
D03*
X12992Y9567D02*
D03*
X25709Y7520D02*
D03*
X25591Y7323D02*
D03*
X25709Y6732D02*
D03*
X25827Y6535D02*
D03*
X25591Y6929D02*
D03*
X26220Y6260D02*
D03*
X14252Y9252D02*
D03*
Y8937D02*
D03*
X27244Y5945D02*
D03*
X27047Y5787D02*
D03*
X26693D02*
D03*
X26496Y5945D02*
D03*
X13937Y9252D02*
D03*
X12362Y9882D02*
D03*
X11102D02*
D03*
X12992Y9252D02*
D03*
X14882Y10197D02*
D03*
X15512Y10512D02*
D03*
X25472Y7126D02*
D03*
X14882Y9882D02*
D03*
X9291Y3031D02*
D03*
X9764D02*
D03*
X10236D02*
D03*
X10709D02*
D03*
X13307Y4213D02*
D03*
X14252D02*
D03*
X28346Y6575D02*
D03*
X28543Y6732D02*
D03*
X28346Y7835D02*
D03*
X14252Y5787D02*
D03*
X14567Y5472D02*
D03*
X14882D02*
D03*
X13937Y4213D02*
D03*
Y4528D02*
D03*
X14252Y5157D02*
D03*
X14567Y4213D02*
D03*
X14882D02*
D03*
X14252Y3898D02*
D03*
X26260Y8386D02*
D03*
X26181Y8110D02*
D03*
X25787D02*
D03*
X27638Y5827D02*
D03*
X28307Y5551D02*
D03*
Y5827D02*
D03*
X28976Y5709D02*
D03*
X11417Y10197D02*
D03*
X12992Y9882D02*
D03*
X13307Y9567D02*
D03*
X30354Y10344D02*
D03*
X29370D02*
D03*
X28386D02*
D03*
Y8583D02*
D03*
X28583Y8425D02*
D03*
X28502Y7679D02*
D03*
X28740Y7362D02*
D03*
X28896Y7207D02*
D03*
X12992Y10197D02*
D03*
X30315Y1299D02*
D03*
X30079D02*
D03*
X12677Y8937D02*
D03*
X28898Y1535D02*
D03*
X29449Y1299D02*
D03*
X29213D02*
D03*
X28976D02*
D03*
X25591Y1339D02*
D03*
X26063Y1575D02*
D03*
X15827Y5472D02*
D03*
X15197Y5787D02*
D03*
Y6102D02*
D03*
X14567Y5787D02*
D03*
X15512Y6417D02*
D03*
X14252D02*
D03*
X14567D02*
D03*
X14882D02*
D03*
X15827Y5787D02*
D03*
X16142Y6102D02*
D03*
X14567Y6732D02*
D03*
X14882D02*
D03*
X14252D02*
D03*
Y7047D02*
D03*
X15197Y6732D02*
D03*
Y7047D02*
D03*
X15827Y6732D02*
D03*
X13937Y7047D02*
D03*
X14252Y7362D02*
D03*
Y8622D02*
D03*
X26260Y1496D02*
D03*
X25748Y3898D02*
D03*
X16693Y8307D02*
D03*
X25236Y4331D02*
D03*
X20984Y9528D02*
D03*
X20118Y6732D02*
D03*
X23937Y4606D02*
D03*
X13307Y6732D02*
D03*
X11417D02*
D03*
Y7362D02*
D03*
Y7047D02*
D03*
X13622Y9567D02*
D03*
X12992Y7992D02*
D03*
X12677Y7677D02*
D03*
X13622Y7992D02*
D03*
X12992Y7677D02*
D03*
X13307Y7992D02*
D03*
Y7677D02*
D03*
Y7362D02*
D03*
X12992Y7047D02*
D03*
X12047D02*
D03*
X12362D02*
D03*
X12677D02*
D03*
X12992Y7362D02*
D03*
X12362Y7992D02*
D03*
X13661Y10512D02*
D03*
X15394Y2362D02*
D03*
X27480Y1929D02*
D03*
X11417Y8937D02*
D03*
X14961Y1693D02*
D03*
X3268Y4803D02*
D03*
X20551Y7717D02*
D03*
D60*
X21024Y1260D02*
D03*
X17992Y10866D02*
D03*
X23150Y10197D02*
D03*
X22795D02*
D03*
X22441D02*
D03*
X22087D02*
D03*
X23150Y9528D02*
D03*
X22795D02*
D03*
X22441D02*
D03*
X22087D02*
D03*
X22953Y8937D02*
D03*
X22480D02*
D03*
X21299Y10866D02*
D03*
X21654D02*
D03*
X21969D02*
D03*
X24409Y8701D02*
D03*
Y7677D02*
D03*
X24016D02*
D03*
X20354Y10866D02*
D03*
X29803Y9961D02*
D03*
X27441D02*
D03*
X27205Y8740D02*
D03*
X30394Y4331D02*
D03*
X29370D02*
D03*
X28189D02*
D03*
X27008D02*
D03*
X30748Y4252D02*
D03*
X26870Y5413D02*
D03*
X28071Y5394D02*
D03*
X25787D02*
D03*
X26024D02*
D03*
X19685Y1535D02*
D03*
X20394Y1299D02*
D03*
X19685D02*
D03*
X18976D02*
D03*
X18268D02*
D03*
X16850Y1181D02*
D03*
X11563Y11575D02*
D03*
X24882Y11299D02*
D03*
X14449Y11575D02*
D03*
X14724D02*
D03*
X11850D02*
D03*
X12520D02*
D03*
Y11339D02*
D03*
X29370Y10600D02*
D03*
X29587Y8701D02*
D03*
X29646Y7441D02*
D03*
X30394Y8628D02*
D03*
X17717Y4291D02*
D03*
X17441D02*
D03*
X2598Y5748D02*
D03*
X2126Y5512D02*
D03*
Y5787D02*
D03*
X1575D02*
D03*
Y5512D02*
D03*
X1850D02*
D03*
X31378Y9528D02*
D03*
Y8976D02*
D03*
Y10079D02*
D03*
X31850Y9528D02*
D03*
Y8976D02*
D03*
Y10079D02*
D03*
Y2953D02*
D03*
Y1378D02*
D03*
Y2402D02*
D03*
X31575D02*
D03*
X31299Y2953D02*
D03*
X31575D02*
D03*
X31299Y1378D02*
D03*
Y2402D02*
D03*
X433D02*
D03*
Y2953D02*
D03*
X474Y1500D02*
D03*
X984Y2953D02*
D03*
X709Y2402D02*
D03*
X984D02*
D03*
X709Y2953D02*
D03*
X1026Y1500D02*
D03*
X20197Y6142D02*
D03*
X18819Y6260D02*
D03*
X18543D02*
D03*
X18268D02*
D03*
X17717Y6850D02*
D03*
X17992D02*
D03*
X17913Y8268D02*
D03*
Y8543D02*
D03*
X18622Y5197D02*
D03*
X18425D02*
D03*
X18228D02*
D03*
X23465Y7165D02*
D03*
Y6772D02*
D03*
Y7520D02*
D03*
X21693D02*
D03*
Y7165D02*
D03*
Y6772D02*
D03*
X24606Y10157D02*
D03*
X16890Y10866D02*
D03*
X1457Y7244D02*
D03*
Y6929D02*
D03*
Y6614D02*
D03*
Y6299D02*
D03*
X1142D02*
D03*
Y6614D02*
D03*
Y6929D02*
D03*
Y7244D02*
D03*
Y7559D02*
D03*
Y7874D02*
D03*
Y8189D02*
D03*
Y8504D02*
D03*
X3386Y8701D02*
D03*
X3071D02*
D03*
X1417Y8504D02*
D03*
X591Y10787D02*
D03*
Y11102D02*
D03*
Y11417D02*
D03*
Y9449D02*
D03*
Y9764D02*
D03*
Y10065D02*
D03*
Y10394D02*
D03*
X2047Y10433D02*
D03*
X1260Y11417D02*
D03*
X1614D02*
D03*
X1969D02*
D03*
X2638D02*
D03*
X2323D02*
D03*
Y11102D02*
D03*
Y10787D02*
D03*
X906Y11417D02*
D03*
Y11102D02*
D03*
Y10787D02*
D03*
X4291Y9488D02*
D03*
X3976Y11063D02*
D03*
X9252Y11260D02*
D03*
X21496Y4488D02*
D03*
Y4764D02*
D03*
X21220D02*
D03*
X20394Y1535D02*
D03*
X18976D02*
D03*
X18268D02*
D03*
X19685Y2047D02*
D03*
X17559Y1850D02*
D03*
X17126D02*
D03*
X25827Y1339D02*
D03*
X27480Y1535D02*
D03*
X25512Y5354D02*
D03*
X25787Y11417D02*
D03*
X26378D02*
D03*
X27362D02*
D03*
X30354Y10600D02*
D03*
X19449Y9528D02*
D03*
X25394Y9606D02*
D03*
Y9370D02*
D03*
X29449Y7795D02*
D03*
X13110Y11417D02*
D03*
X13858Y1339D02*
D03*
X13189Y1457D02*
D03*
X12362Y1575D02*
D03*
X20118Y10118D02*
D03*
X6614Y3858D02*
D03*
X7126D02*
D03*
X5354Y2677D02*
D03*
X1339Y3819D02*
D03*
X2520Y1654D02*
D03*
X2795D02*
D03*
X1929Y8504D02*
D03*
X1850Y5787D02*
D03*
X2638Y6142D02*
D03*
X9606Y5433D02*
D03*
X6102Y7205D02*
D03*
X4843Y1339D02*
D03*
X4961Y1535D02*
D03*
X4724D02*
D03*
X5512Y1732D02*
D03*
Y1969D02*
D03*
Y2205D02*
D03*
X2717Y2638D02*
D03*
X2559Y2795D02*
D03*
X4118Y2772D02*
D03*
X3971Y2632D02*
D03*
X3976Y2323D02*
D03*
X2992Y6142D02*
D03*
Y5906D02*
D03*
X6102Y8150D02*
D03*
X5354Y3661D02*
D03*
X4803Y4803D02*
D03*
X2677Y5000D02*
D03*
X2087D02*
D03*
X1457Y4606D02*
D03*
X4370Y5157D02*
D03*
X9803Y11535D02*
D03*
X10630Y11496D02*
D03*
X2756Y8701D02*
D03*
X1339Y9055D02*
D03*
X2559Y9606D02*
D03*
X906Y10394D02*
D03*
Y10079D02*
D03*
Y9764D02*
D03*
X1890Y9606D02*
D03*
X1142Y8858D02*
D03*
X3346Y10433D02*
D03*
X3661D02*
D03*
X3976D02*
D03*
Y10748D02*
D03*
Y10118D02*
D03*
X2835Y10315D02*
D03*
X12047Y10866D02*
D03*
X12362D02*
D03*
X11732D02*
D03*
X12835D02*
D03*
X13982Y11530D02*
D03*
X27559Y8504D02*
D03*
X28189Y8740D02*
D03*
X28898Y8189D02*
D03*
X29587Y8504D02*
D03*
X29646Y7638D02*
D03*
X28937Y6378D02*
D03*
Y6142D02*
D03*
X30394Y8425D02*
D03*
X24528Y9213D02*
D03*
X25276Y9882D02*
D03*
X28543Y11457D02*
D03*
X29528D02*
D03*
X30512D02*
D03*
X28386Y10600D02*
D03*
X27795Y11417D02*
D03*
X17559Y10866D02*
D03*
X26811Y11417D02*
D03*
X30325Y1614D02*
D03*
X30315Y2323D02*
D03*
X29134Y2598D02*
D03*
X30315D02*
D03*
X29134Y2323D02*
D03*
X29124Y1614D02*
D03*
X22441Y1260D02*
D03*
X21732D02*
D03*
X21890Y1457D02*
D03*
X22598D02*
D03*
X21181D02*
D03*
X21496Y9528D02*
D03*
X24567Y5354D02*
D03*
X20945Y4764D02*
D03*
X20669D02*
D03*
X20394D02*
D03*
X8346Y11260D02*
D03*
X8031D02*
D03*
X7717D02*
D03*
X7402D02*
D03*
X3976Y9803D02*
D03*
X4291D02*
D03*
Y10118D02*
D03*
Y10433D02*
D03*
Y10748D02*
D03*
Y11063D02*
D03*
X8937Y11260D02*
D03*
X13346Y10866D02*
D03*
X18071Y10157D02*
D03*
X25000Y6811D02*
D03*
X24685D02*
D03*
X24724Y5197D02*
D03*
X3701Y8701D02*
D03*
X10472Y10984D02*
D03*
X19094Y7992D02*
D03*
Y7717D02*
D03*
X19370D02*
D03*
X17992Y4291D02*
D03*
X12205Y11575D02*
D03*
X31693Y4961D02*
D03*
Y6614D02*
D03*
D61*
X23819Y11339D02*
D03*
X23543Y4449D02*
D03*
D62*
X31024Y394D02*
D03*
X30315D02*
D03*
X29134D02*
D03*
X28425D02*
D03*
X25118D02*
D03*
X23228D02*
D03*
X1260D02*
D03*
X1969D02*
D03*
X3150D02*
D03*
X3858D02*
D03*
X6457D02*
D03*
X9055D02*
D03*
X11654D02*
D03*
X16142Y11575D02*
D03*
X15197D02*
D03*
X15472D02*
D03*
Y11339D02*
D03*
X15197D02*
D03*
X14724D02*
D03*
X14449D02*
D03*
X15866Y11575D02*
D03*
Y11339D02*
D03*
X9843Y6102D02*
D03*
X25197Y5551D02*
D03*
X25000Y5748D02*
D03*
X28189Y11457D02*
D03*
X27087D02*
D03*
X25551Y11496D02*
D03*
X5906Y5157D02*
D03*
X5512D02*
D03*
X5118D02*
D03*
X4724D02*
D03*
X8268D02*
D03*
X7874D02*
D03*
X7520D02*
D03*
X26693Y7638D02*
D03*
Y7205D02*
D03*
Y6772D02*
D03*
X27126D02*
D03*
Y7638D02*
D03*
X27559D02*
D03*
Y7205D02*
D03*
Y6772D02*
D03*
X27126Y7205D02*
D03*
X22992Y5079D02*
D03*
X22756Y5315D02*
D03*
Y4843D02*
D03*
X23228D02*
D03*
Y5315D02*
D03*
X2205Y6890D02*
D03*
Y7244D02*
D03*
X2835Y6850D02*
D03*
Y7244D02*
D03*
X2520Y7047D02*
D03*
X5984Y2008D02*
D03*
Y2598D02*
D03*
Y3189D02*
D03*
Y9252D02*
D03*
X6299D02*
D03*
X21220Y4488D02*
D03*
X20945D02*
D03*
X20669D02*
D03*
X20394D02*
D03*
X11732Y6102D02*
D03*
X11417D02*
D03*
X11102Y8628D02*
D03*
X18543Y6575D02*
D03*
X17717Y7402D02*
D03*
X17992Y7126D02*
D03*
X17717D02*
D03*
X18268Y6575D02*
D03*
X17638Y8543D02*
D03*
X17913Y6457D02*
D03*
X18622Y5000D02*
D03*
X18425D02*
D03*
X18228D02*
D03*
X18898Y5472D02*
D03*
Y5748D02*
D03*
X18622D02*
D03*
X18346Y5472D02*
D03*
X18071Y5748D02*
D03*
Y5472D02*
D03*
X17795D02*
D03*
Y5748D02*
D03*
Y6024D02*
D03*
X17520Y5472D02*
D03*
Y5748D02*
D03*
Y6024D02*
D03*
Y6299D02*
D03*
X23189Y6772D02*
D03*
X22913D02*
D03*
Y7520D02*
D03*
X23189D02*
D03*
Y7165D02*
D03*
X22913D02*
D03*
X22244Y7520D02*
D03*
X21969D02*
D03*
Y6772D02*
D03*
X22244Y7165D02*
D03*
X21969D02*
D03*
X22244Y6772D02*
D03*
X2480Y2205D02*
D03*
X1220Y9764D02*
D03*
Y10079D02*
D03*
X1850Y10236D02*
D03*
X8937Y10945D02*
D03*
X9252D02*
D03*
X12205Y11378D02*
D03*
X21260Y5315D02*
D03*
X20433D02*
D03*
X20709D02*
D03*
X20984D02*
D03*
X15512Y7362D02*
D03*
X23228Y945D02*
D03*
X25118D02*
D03*
X14567Y6102D02*
D03*
X14882D02*
D03*
X12992D02*
D03*
X11654Y945D02*
D03*
X9055D02*
D03*
X6457D02*
D03*
X3150D02*
D03*
X1969D02*
D03*
X1260D02*
D03*
X3110Y7756D02*
D03*
X5984Y8937D02*
D03*
X5000Y5787D02*
D03*
X6299Y8937D02*
D03*
X5630Y6417D02*
D03*
X6575Y7677D02*
D03*
X5630Y6732D02*
D03*
X6575D02*
D03*
Y7047D02*
D03*
X6890Y7047D02*
D03*
X5630Y7677D02*
D03*
X7205Y5787D02*
D03*
Y6102D02*
D03*
X5315Y7677D02*
D03*
Y7992D02*
D03*
X7520Y7362D02*
D03*
X7205D02*
D03*
X10472Y7677D02*
D03*
Y7362D02*
D03*
X6575Y7992D02*
D03*
Y8307D02*
D03*
X10472Y6417D02*
D03*
X11417Y9567D02*
D03*
Y9882D02*
D03*
X12047Y7362D02*
D03*
X11732D02*
D03*
X12992Y5787D02*
D03*
Y5472D02*
D03*
X12362Y5787D02*
D03*
X14567Y7047D02*
D03*
X12992Y6417D02*
D03*
X13307Y7047D02*
D03*
X13937Y6102D02*
D03*
Y6732D02*
D03*
X13622Y6417D02*
D03*
X13937Y7362D02*
D03*
X13622Y7677D02*
D03*
X10472Y9567D02*
D03*
Y10197D02*
D03*
X12677Y4528D02*
D03*
X13307Y5157D02*
D03*
X13937D02*
D03*
X14882Y4843D02*
D03*
X15512Y5787D02*
D03*
X15827Y7362D02*
D03*
X15197Y7992D02*
D03*
X15827Y4528D02*
D03*
Y9567D02*
D03*
X14567Y9252D02*
D03*
Y9882D02*
D03*
X14252Y8307D02*
D03*
X13622D02*
D03*
X13307Y8622D02*
D03*
X12047Y7677D02*
D03*
X12362Y8307D02*
D03*
Y8622D02*
D03*
X12992Y8307D02*
D03*
X11732D02*
D03*
Y7047D02*
D03*
X12047Y9252D02*
D03*
Y9567D02*
D03*
X11732Y10197D02*
D03*
X10787Y6417D02*
D03*
X12362Y4843D02*
D03*
X14567Y7362D02*
D03*
X12992Y6732D02*
D03*
X13937Y6417D02*
D03*
X13622Y6102D02*
D03*
Y6732D02*
D03*
Y7047D02*
D03*
Y7362D02*
D03*
X13937Y7677D02*
D03*
X3425Y1772D02*
D03*
X3858Y945D02*
D03*
X3350Y3400D02*
D03*
X10472Y8622D02*
D03*
X10787Y9567D02*
D03*
X10157Y10197D02*
D03*
X12677Y4843D02*
D03*
X13307D02*
D03*
X13937Y5472D02*
D03*
X14882Y5157D02*
D03*
X15512Y7992D02*
D03*
X15827Y4843D02*
D03*
Y9252D02*
D03*
X14882D02*
D03*
X14252Y9882D02*
D03*
X13937Y8307D02*
D03*
X13622Y8622D02*
D03*
X13307Y8937D02*
D03*
X12047Y8622D02*
D03*
X12992D02*
D03*
X12677Y8307D02*
D03*
X11732Y8622D02*
D03*
X12362Y9567D02*
D03*
Y9252D02*
D03*
X12047Y10197D02*
D03*
Y5472D02*
D03*
X12677Y6732D02*
D03*
X12362D02*
D03*
X12047D02*
D03*
Y4843D02*
D03*
X11732Y5472D02*
D03*
X12362Y7362D02*
D03*
X11732Y6732D02*
D03*
X11102Y7992D02*
D03*
X11732Y7992D02*
D03*
X12047D02*
D03*
X12362Y6102D02*
D03*
X12047D02*
D03*
Y5787D02*
D03*
X11102Y7677D02*
D03*
X11732Y7677D02*
D03*
X5000Y8307D02*
D03*
X5315D02*
D03*
X4685Y10827D02*
D03*
Y10512D02*
D03*
Y10197D02*
D03*
Y9882D02*
D03*
X5315Y10197D02*
D03*
X5000D02*
D03*
X4685Y9567D02*
D03*
Y9252D02*
D03*
Y8622D02*
D03*
X5000D02*
D03*
X4685Y7047D02*
D03*
Y6732D02*
D03*
Y6417D02*
D03*
Y6102D02*
D03*
Y5787D02*
D03*
X7205Y10827D02*
D03*
X7520D02*
D03*
Y10512D02*
D03*
Y10197D02*
D03*
Y9882D02*
D03*
Y9567D02*
D03*
X7205Y9882D02*
D03*
Y9567D02*
D03*
X6890Y8622D02*
D03*
X7205D02*
D03*
Y8307D02*
D03*
Y7992D02*
D03*
X7520Y6732D02*
D03*
Y6417D02*
D03*
Y6102D02*
D03*
Y5787D02*
D03*
X7205Y7677D02*
D03*
X5630Y7362D02*
D03*
Y5787D02*
D03*
Y7992D02*
D03*
X7205Y6732D02*
D03*
Y6417D02*
D03*
X5630Y6102D02*
D03*
X6575D02*
D03*
X5630Y7047D02*
D03*
X11102Y8307D02*
D03*
X10157Y8622D02*
D03*
X10787Y9882D02*
D03*
X7205Y7047D02*
D03*
X4016Y5157D02*
D03*
X6299D02*
D03*
X2244Y8504D02*
D03*
X12677Y7992D02*
D03*
X13307Y8307D02*
D03*
Y9252D02*
D03*
X25394Y7953D02*
D03*
Y7756D02*
D03*
X31024Y945D02*
D03*
X30315D02*
D03*
X29134D02*
D03*
X28425D02*
D03*
X15512Y5472D02*
D03*
X13307Y6102D02*
D03*
X18268Y8543D02*
D03*
X18543D02*
D03*
X18268Y8268D02*
D03*
X18543D02*
D03*
X18819D02*
D03*
Y7992D02*
D03*
X18543D02*
D03*
X18268D02*
D03*
X18543Y7717D02*
D03*
X18819D02*
D03*
X3600Y3150D02*
D03*
Y3650D02*
D03*
X3100D02*
D03*
Y3150D02*
D03*
X3600Y3150D02*
D03*
Y3650D02*
D03*
X3100D02*
D03*
Y3150D02*
D03*
D68*
X25906Y2047D02*
Y2874D01*
X24961Y3819D02*
X25906Y2874D01*
X19252Y3819D02*
X24961D01*
X25157Y2047D02*
Y3150D01*
X24803Y3504D02*
X25157Y3150D01*
X17913Y3504D02*
X24803D01*
X25591Y2047D02*
Y2953D01*
X24882Y3661D02*
X25591Y2953D01*
X18937Y3661D02*
X24882D01*
X26260Y1496D02*
Y2756D01*
X25039Y3976D02*
X26260Y2756D01*
X19331Y3976D02*
X25039D01*
X26457Y1339D02*
Y3583D01*
X25906Y4134D02*
X26457Y3583D01*
X26732Y1535D02*
Y4291D01*
X26496Y4528D02*
X26732Y4291D01*
X25118Y4528D02*
X26496D01*
X24882Y4291D02*
X25118Y4528D01*
X20315Y4291D02*
X24882D01*
X18858Y4213D02*
X19252Y3819D01*
X17323Y5276D02*
X18937Y3661D01*
X17165Y4252D02*
X17913Y3504D01*
X23661Y2953D02*
X24567Y2047D01*
X18032Y2953D02*
X23661D01*
X22008Y2795D02*
X22756Y2047D01*
X17953Y2795D02*
X22008D01*
X21772Y2638D02*
X22362Y2047D01*
X17874Y2638D02*
X21772D01*
X20276Y1850D02*
Y2165D01*
X19961Y2480D02*
X20276Y2165D01*
X17756Y2480D02*
X19961D01*
X16693Y4055D02*
X17953Y2795D01*
X16535Y3976D02*
X17874Y2638D01*
X24488Y3110D02*
X24685Y3307D01*
X18110Y3110D02*
X24488D01*
X17008Y4213D02*
X18110Y3110D01*
X16378Y3858D02*
X17756Y2480D01*
X15984Y3898D02*
X17559Y2323D01*
Y2205D02*
Y2323D01*
Y2205D02*
X17677Y2087D01*
X18228D01*
X18425Y2283D01*
X20157Y1732D02*
X20276Y1850D01*
X16614Y2717D02*
X16811Y2520D01*
Y2008D02*
Y2520D01*
X16575Y2283D02*
Y2441D01*
X16457Y2559D02*
X16575Y2441D01*
X14488Y2008D02*
X15748D01*
X16142Y1850D02*
Y1890D01*
X13346Y2756D02*
X14252Y1850D01*
X8937Y2047D02*
Y2992D01*
X8701Y3031D02*
Y3268D01*
X9173Y3740D01*
X8465Y2559D02*
Y3425D01*
X8937Y3898D01*
X9528Y2559D02*
Y3110D01*
X23583Y9724D02*
X23898Y9409D01*
X25118Y8701D02*
X26260D01*
X20984D02*
X24016D01*
X24291Y8976D01*
X24843D01*
X25118Y8701D01*
X25236Y8898D02*
X26693D01*
X24724Y9409D02*
X25236Y8898D01*
X23898Y9409D02*
X24724D01*
X25315Y9134D02*
X27402D01*
X23661Y11496D02*
X23819Y11339D01*
X16968Y11496D02*
X23661D01*
X29843Y3740D02*
Y9567D01*
X29252Y10157D02*
X29843Y9567D01*
X28307Y10157D02*
X29252D01*
X28189Y6260D02*
X28819Y5630D01*
Y4252D02*
Y5630D01*
Y4252D02*
X29213Y3858D01*
X29173Y4213D02*
X29488Y3898D01*
X29173Y4213D02*
Y8937D01*
X29488Y3031D02*
Y3898D01*
X28622Y3819D02*
X28858Y3583D01*
X28622Y3819D02*
Y4449D01*
X29646Y1496D02*
Y3543D01*
X29843Y3740D01*
X29449Y1299D02*
X29646Y1496D01*
X10709Y11102D02*
X16575D01*
X10591Y11220D02*
X10709Y11102D01*
X9764Y11220D02*
X10591D01*
X9488Y11496D02*
X9764Y11220D01*
X16575Y11102D02*
X16968Y11496D01*
X20709Y8976D02*
X20984Y8701D01*
X16181Y8976D02*
X20709D01*
X16142Y8937D02*
X16181Y8976D01*
X15827Y8937D02*
X16142D01*
X20591Y9134D02*
X20984Y9528D01*
X15039Y9094D02*
X16024D01*
X16063Y9134D02*
X20591D01*
X16024Y9094D02*
X16063Y9134D01*
X15984Y3898D02*
Y6220D01*
X19094Y4213D02*
X19331Y3976D01*
X19449Y4134D02*
X25906D01*
X19291Y4291D02*
X19449Y4134D01*
X19488Y5118D02*
X20315Y4291D01*
X28189Y10827D02*
X29449D01*
X27913Y10551D02*
X28189Y10827D01*
X29449D02*
X30157Y10118D01*
X16378Y3858D02*
Y6220D01*
X16535Y3976D02*
Y6575D01*
X16693Y4055D02*
Y7087D01*
X16850Y4134D02*
X18032Y2953D01*
X16850Y4134D02*
Y7126D01*
X17008Y4213D02*
Y7165D01*
X17165Y4252D02*
Y7205D01*
X14252Y1850D02*
X16102D01*
X17087Y8307D02*
X19094Y6299D01*
Y4213D02*
Y6299D01*
X17087Y8780D02*
X19488Y6378D01*
Y5118D02*
Y6378D01*
X17008Y8622D02*
X19291Y6339D01*
Y4291D02*
Y6339D01*
X23071Y10827D02*
X25118D01*
X22835Y11063D02*
X23071Y10827D01*
X16811Y11063D02*
X22835D01*
X25394Y10551D02*
X27913D01*
X25118Y10827D02*
X25394Y10551D01*
X28110Y10354D02*
X28307Y10157D01*
X25236Y10354D02*
X28110D01*
X24921Y10669D02*
X25236Y10354D01*
X27992Y10118D02*
X29173Y8937D01*
X24961Y10118D02*
X27992D01*
X24685Y10394D02*
X24961Y10118D01*
X27402Y9134D02*
X28189Y8346D01*
X26693Y8898D02*
X27874Y7717D01*
X26890Y6654D02*
Y8071D01*
X26260Y8701D02*
X26890Y8071D01*
X16299Y8465D02*
X17480Y7283D01*
Y6614D02*
Y7283D01*
X16260Y8307D02*
X17323Y7244D01*
X16220Y8150D02*
X17165Y7205D01*
X16654Y7520D02*
X17008Y7165D01*
X16614Y7362D02*
X16850Y7126D01*
X16575Y7205D02*
X16693Y7087D01*
X16220Y6890D02*
X16535Y6575D01*
X14134Y6890D02*
X16220D01*
X16024Y6575D02*
X16378Y6220D01*
X15039Y6575D02*
X16024D01*
X15630Y2559D02*
X16457D01*
X15354Y2835D02*
X15630Y2559D01*
X15787Y2717D02*
X16614D01*
X15669Y2835D02*
X15787Y2717D01*
X15354Y8465D02*
X16299D01*
X15827Y8307D02*
X16260D01*
X14724Y8150D02*
X16220D01*
X16142Y7362D02*
X16614D01*
X14449Y7205D02*
X16575D01*
X16299Y7520D02*
X16654D01*
X15512Y8937D02*
X15669Y8780D01*
X26969Y1299D02*
Y2008D01*
X26890Y2087D02*
X26969Y2008D01*
X14567Y8307D02*
X14724Y8150D01*
X14567Y8307D02*
Y8307D01*
X15984Y7835D02*
X16299Y7520D01*
X15039Y7835D02*
X15984D01*
X14882Y7992D02*
X15039Y7835D01*
X14724Y7559D02*
X14764Y7520D01*
X14724Y7559D02*
Y7835D01*
X14409Y7520D02*
X14567Y7677D01*
X14409Y7244D02*
Y7520D01*
Y7244D02*
X14449Y7205D01*
X15669Y2835D02*
Y5906D01*
X15354Y2835D02*
Y5630D01*
X15039Y2717D02*
Y5276D01*
X14724Y2638D02*
X15197Y2165D01*
X14724Y2638D02*
Y4961D01*
X15197Y2165D02*
Y2165D01*
X15984Y7520D02*
X16142Y7362D01*
X14764Y7520D02*
X15984D01*
X14567Y7992D02*
X14724Y7835D01*
X14094Y6929D02*
X14134Y6890D01*
X14094Y6929D02*
Y7835D01*
X13937Y7992D02*
X14094Y7835D01*
X30079Y1535D02*
X30315Y1299D01*
X30079Y1535D02*
Y2677D01*
X30315Y2913D02*
Y4016D01*
X30157Y4173D02*
X30315Y4016D01*
X29213Y2874D02*
Y3858D01*
Y2874D02*
X29370Y2717D01*
X28858Y3583D02*
X29016D01*
X29213Y1299D02*
X29370Y1457D01*
Y2717D01*
X14409Y10669D02*
X24921D01*
X14094Y10354D02*
X14409Y10669D01*
X14094Y9724D02*
Y10354D01*
X13937Y9567D02*
X14094Y9724D01*
X15354D02*
X23583D01*
X15197Y9567D02*
X15354Y9724D01*
X16417Y10039D02*
X16535Y9921D01*
X27874Y5197D02*
X28622Y4449D01*
X27874Y5197D02*
Y7717D01*
X21220Y10394D02*
X24685D01*
X21181Y10354D02*
X21220Y10394D01*
X30157Y4173D02*
Y10118D01*
X28189Y6260D02*
Y8346D01*
X16575Y10827D02*
X16811Y11063D01*
X14252Y10827D02*
X16575D01*
X13780Y10354D02*
X14252Y10827D01*
X15354Y10039D02*
X16417D01*
X14409Y9409D02*
X19213D01*
X14724Y10354D02*
X21181D01*
X14567Y10197D02*
X14724Y10354D01*
X15197Y9882D02*
X15354Y10039D01*
X15197Y9882D02*
X15197D01*
X13780Y10039D02*
Y10354D01*
X13780Y10039D02*
X13780D01*
X13622Y9882D02*
X13780Y10039D01*
X14252Y9567D02*
X14409Y9409D01*
X14882Y8937D02*
X15039Y9094D01*
X13740Y2756D02*
X14488Y2008D01*
X9528Y3583D02*
X13543D01*
X8937Y2992D02*
X9528Y3583D01*
X9173Y3740D02*
X13307D01*
X10236Y3031D02*
X10472Y3268D01*
X14094D01*
X9528Y3110D02*
X9843Y3425D01*
X14094Y3268D02*
X14409Y3583D01*
Y4370D01*
X14567Y4528D01*
X9843Y3425D02*
X13898D01*
X14094Y3622D01*
Y4646D01*
X14134Y4685D01*
X14409D01*
Y4685D01*
X14567Y4843D01*
X13543Y3583D02*
X13780Y3819D01*
Y4685D01*
X13465Y3898D02*
Y4370D01*
X13307Y3740D02*
X13465Y3898D01*
X12953D02*
X13150Y4094D01*
Y4646D01*
X13780Y4685D02*
X13937Y4843D01*
X13465Y4370D02*
X13622Y4528D01*
X13150Y4646D02*
X13189Y4685D01*
X13465D01*
X13622Y4843D01*
Y4843D01*
X12520Y5984D02*
X12559Y5945D01*
X12520Y5984D02*
Y10000D01*
X12480Y10039D02*
X12520Y10000D01*
X11260Y10039D02*
X12480D01*
X11102Y9882D02*
X11260Y10039D01*
X11102Y9882D02*
X11102D01*
X12205Y5669D02*
X12244Y5630D01*
X12205Y5669D02*
Y9724D01*
X12362Y9882D01*
X8937Y3898D02*
X12953D01*
X12244Y5630D02*
X13110D01*
X13150Y5591D01*
Y5039D02*
Y5591D01*
Y5039D02*
X13189Y5000D01*
X14685D01*
X14724Y4961D01*
X12559Y5945D02*
X13425D01*
X13465Y5906D01*
Y5354D02*
Y5906D01*
Y5354D02*
X13504Y5315D01*
X15000D01*
X15039Y5276D01*
X15197Y6102D02*
X15354Y5945D01*
X15630D01*
X15669Y5906D01*
X15197Y5787D02*
X15354Y5630D01*
X14252Y6417D02*
X14409Y6260D01*
X15945D01*
X15984Y6220D01*
X14882Y6732D02*
X15039Y6575D01*
X15197Y8307D02*
X15354Y8465D01*
X16693Y8307D02*
X17087D01*
X16457Y8622D02*
X17008D01*
X18858Y4213D02*
Y5236D01*
X17480Y6614D02*
X18858Y5236D01*
X15669Y8780D02*
X17087D01*
X20551Y9331D02*
X20748Y9528D01*
X19213Y9409D02*
X19291Y9331D01*
X20551D01*
X26890Y6654D02*
X27441Y6102D01*
Y4331D02*
Y6102D01*
X26890Y3780D02*
X27441Y4331D01*
X26890Y2087D02*
Y3780D01*
X3661Y11496D02*
X9488D01*
X2126Y9961D02*
X3661Y11496D01*
X1850Y9961D02*
X2126D01*
X1339Y9449D02*
X1850Y9961D01*
X17323Y5276D02*
Y7244D01*
X15039Y2717D02*
X15394Y2362D01*
X30079Y2677D02*
X30315Y2913D01*
X24528Y9921D02*
X25315Y9134D01*
X16535Y9921D02*
X24528D01*
X16102Y1850D02*
X16142Y1890D01*
D69*
X11220Y4016D02*
X11417Y4213D01*
X2835Y4016D02*
X11220D01*
X11575Y4685D02*
X11732Y4528D01*
X10000Y4685D02*
X11575D01*
X12520Y4370D02*
Y5276D01*
X12480Y5315D02*
X12520Y5276D01*
X10000Y5315D02*
X12480D01*
X3740Y4370D02*
X12205D01*
X9843Y4528D02*
X10000Y4685D01*
X4724Y4528D02*
X9843D01*
X2598D02*
X3583D01*
X3740Y4370D01*
X12205D02*
X12362Y4213D01*
X12520Y4370D02*
X12677Y4213D01*
Y4213D02*
Y4213D01*
X2323Y4528D02*
X2835Y4016D01*
X4449Y4803D02*
X4724Y4528D01*
X3701Y5157D02*
X3858Y5000D01*
X9685D01*
X10000Y5315D01*
X3268Y4803D02*
X4449D01*
D70*
X11890Y5000D02*
X12047Y5157D01*
X6063Y4843D02*
X9843D01*
X5906Y4685D02*
X6063Y4843D01*
X9843D02*
X10000Y5000D01*
X11890D01*
X13150Y10669D02*
X13346Y10866D01*
X13150Y9409D02*
Y10669D01*
Y9409D02*
X13307Y9252D01*
X12835Y8150D02*
Y10866D01*
X12677Y7992D02*
X12835Y8150D01*
X11417Y6102D02*
Y6102D01*
X11575Y6260D01*
Y8150D01*
X11732Y8307D01*
%TF.MD5,53e8283602b23d9361e9ff096e00064a*%
M02*
